<?xml version="1.0" encoding="utf-8"?>
<!DOCTYPE svg PUBLIC "-//W3C//DTD SVG 1.0//EN" "http://www.w3.org/TR/2001/REC-SVG-20010904/DTD/svg10.dtd">
<svg version="1.0" xmlns="http://www.w3.org/2000/svg" width="1024px" height="1024px" viewBox="0 0 1024 1024" preserveAspectRatio="xMidYMid meet">
 <g fill="#000000">
  <path d="M477 1023.3 c-154.1 -11.1 -292.3 -88.7 -382.3 -214.4 -67.4 -94.4 -101.1 -212.3 -93.7 -328.4 7.2 -112.8 50 -217.6 123.8 -303.5 10.9 -12.6 39.1 -40.8 52.2 -52 52.6 -45.3 113.9 -79.9 178 -100.5 80.1 -25.7 167.2 -31.2 250.5 -16 217 39.7 385.4 216.9 414.4 436 3.4 26.1 4.4 45.6 3.8 77.8 -0.8 42.6 -4.6 73.3 -14.1 112 -18.7 76.6 -54 145.8 -106.7 209.2 -19.1 23 -55.6 57.4 -82.5 77.7 -78.5 59.2 -171.1 94.2 -269.3 101.8 -12.2 0.9 -62.8 1.1 -74.1 0.3z m89.5 -11.6 c69.7 -8.8 127.9 -26.9 184 -57.4 141.8 -77 238.7 -217.1 259.4 -374.8 3.5 -26.8 4.4 -44.4 3.8 -77.1 -0.5 -32 -1.6 -45.1 -6.3 -73.7 -20.4 -125.5 -91.4 -241.7 -194.9 -319 -51.4 -38.4 -110.6 -67 -171.9 -83.2 -67.6 -17.7 -140.2 -21.2 -209.6 -9.9 -89.1 14.4 -171.7 52.4 -242.5 111.5 -13.1 11 -41.3 38.6 -52.9 51.9 -70.2 80.2 -111.7 175.1 -123.2 282 -1.4 12.3 -1.8 24.9 -1.9 49.5 0 33.5 0.7 44.7 4.6 72 20.2 142.3 101.3 269.7 222.1 348.9 69.8 45.7 150 73.4 233.3 80.5 16.5 1.4 81.5 0.6 96 -1.2z"/>
  <path d="M483 999.9 c-103.3 -6.2 -201.6 -44.9 -282 -111.1 -14.6 -12 -42.5 -39.1 -54.9 -53.2 -71.1 -81 -112.6 -179.4 -121.1 -287 -1.3 -16.7 -1.3 -55.4 0 -72.7 4.9 -63.9 20.8 -121.9 49 -179.4 70.5 -143.7 208 -244.2 366.1 -267.4 23.6 -3.5 32.8 -4.2 62 -4.8 39.7 -0.8 67.7 1.5 103.4 8.3 75.9 14.5 151.6 49.5 211.5 97.8 21.2 17 49.4 44.2 66 63.6 94.9 110.7 135.4 258.1 110.4 402 -11.6 67.3 -36.6 129.7 -74.6 186.9 -69.6 104.6 -177.4 178.7 -299.8 206 -44.2 9.9 -91.2 13.7 -136 11z m61 -9.9 c66.1 -4.7 123.9 -20.4 182.4 -49.6 47.2 -23.6 86.6 -52.2 125.1 -90.8 37.4 -37.6 65.6 -76.7 89 -123.6 35.6 -71.3 52.1 -145.4 50.2 -225 -1.8 -71.8 -17.3 -135.7 -48.7 -199.5 -62.4 -127 -176.9 -219.7 -313.5 -253.8 -39.1 -9.8 -73.7 -14 -116 -14 -28.6 0 -41.9 0.9 -67.5 4.4 -69.5 9.7 -137.5 35.4 -196.9 74.6 -52.2 34.5 -99.5 81.7 -134.5 134.3 -74.7 112.2 -98.5 249.2 -66.1 380.6 30.3 122.8 109.2 229.5 218.1 295 57.9 34.8 120.7 56.4 188.4 64.9 26.8 3.4 63 4.4 90 2.5z"/>
  <path d="M575.3 953.1 c-8.6 -3.2 -16.1 -8.9 -32.4 -24.7 -14.9 -14.4 -16 -15.3 -27 -20.7 -16.4 -8.1 -27.4 -10.8 -46.9 -11.4 -18.1 -0.6 -29.7 1.3 -41.5 6.6 l-6.9 3.2 4.9 2.3 c20.5 9.4 16.6 37.9 -5.6 42.1 -8.1 1.5 -18 -3.6 -22.3 -11.4 -6.6 -12.2 -0.6 -27.6 15.1 -38.8 28.6 -20.4 83.5 -18.4 118 4.3 3.2 2.1 12.8 10.6 21.3 18.9 16 15.4 21.8 19.5 30.4 21.5 13.6 3 26 -7.7 41.5 -36.1 15.5 -28.3 31.5 -38.4 47.8 -30 3.8 1.9 10.9 8.8 13.1 12.6 1.3 2.4 0.9 2.9 6.5 -7.5 11.1 -20.5 22.6 -36.7 36.1 -50.8 18.9 -19.6 37.2 -29.6 56.9 -30.9 8.4 -0.6 8.9 -0.8 16.5 -5.8 4.2 -2.8 21.9 -15.7 39.2 -28.6 l31.5 -23.5 -0.3 -6.6 c-0.4 -7.7 1.6 -12.7 7.2 -17.5 4.6 -4.1 9.6 -5.6 16.6 -5.1 7.4 0.5 12.9 4 16.7 10.5 2.3 4 2.8 5.9 2.8 11.3 -0.1 7.1 -1.5 10.7 -6.2 15.4 -7.6 7.7 -19.5 8.7 -28.6 2.3 l-2.8 -1.9 -4.7 3.3 c-21.7 15.5 -63.1 47.2 -62.7 48 0.4 0.5 1.3 0.9 2 0.9 2.6 0 8.8 6.4 11.1 11.5 2.7 5.8 3.2 14.7 1 19.8 -3.3 8.1 -13.9 13.2 -25.9 12.5 -8.9 -0.4 -14.1 -2.9 -18.2 -8.7 -4 -5.7 -4.7 -15.5 -1.6 -22.6 1.2 -2.7 2 -5 1.8 -5.2 -0.7 -0.7 -11.5 3.1 -17.7 6.2 -22.5 11.3 -43.4 35.4 -64.4 74.2 -4.2 7.6 -7.9 14.4 -8.3 15.1 -0.6 0.9 -2 1.1 -5 0.6 -4.1 -0.6 -4.3 -0.8 -5.7 -5.8 -2.9 -9.8 -9 -15.7 -17 -16.4 -4.4 -0.3 -5.8 0.1 -9.8 2.7 -5.8 3.7 -12 11.5 -18.3 22.9 -12.6 22.8 -22.2 34.5 -33 40 -6.8 3.5 -17.8 4.1 -25.2 1.3z m-149.6 -16.5 c4.6 -5 4.7 -11 0.2 -16 -5.1 -5.9 -12.8 -6.1 -17.9 -0.6 -8 8.6 -1.6 21.8 10 20.7 3.5 -0.4 5.1 -1.3 7.7 -4.1z m379.6 -97.7 c2.1 -0.5 5.2 -2.2 6.8 -3.7 2.6 -2.3 3.1 -3.5 3.1 -7.4 0 -9.5 -4.5 -14.2 -14.6 -15.4 -5.6 -0.7 -5.8 -0.6 -9.7 3.2 -4.8 4.7 -6.6 10.2 -5 15.4 2.2 7.5 9.8 10.6 19.4 7.9z m93.7 -91.4 c9 -4.7 7.3 -18.9 -2.6 -22.4 -3.6 -1.3 -4.4 -1.2 -8.5 0.6 -8.6 3.8 -10.2 13.2 -3.4 20 2.7 2.7 4.1 3.3 7.4 3.3 2.3 0 5.5 -0.7 7.1 -1.5z"/>
  <path d="M330.1 939.7 c-4.8 -1.8 -10.9 -7.3 -12.9 -11.5 -1.2 -2.7 -2.4 -3.8 -4.3 -4 -5.1 -0.6 -13.1 -6.4 -15.6 -11.2 -3 -6.1 -3.2 -17.5 -0.2 -26.3 4.6 -14 17.3 -30.1 28.8 -36.7 3.3 -1.9 6.1 -4 6.1 -4.7 0 -2.1 -9.6 -11.1 -17.6 -16.3 -8.7 -5.7 -29.3 -16 -42.6 -21.3 l-8.8 -3.5 -7.2 6.1 c-20.6 17.3 -39.4 28.6 -50.8 30.7 -10.4 1.9 -19 -1.5 -27.8 -11.1 -5.8 -6.5 -13.1 -17.6 -17.6 -26.9 -3.9 -8.1 -4.1 -8.9 -4.1 -18 0 -8.7 0.3 -10.1 3.2 -16.1 3.9 -7.9 12.6 -16.9 23.5 -24.6 4.3 -3 7.8 -5.8 7.8 -6.1 0 -1.3 -17.1 -31.6 -25.3 -44.9 l-8.1 -13.3 -3.6 3.5 c-7.8 7.6 -19.8 9.8 -31.1 5.6 -8.9 -3.4 -12.3 -8.2 -12.3 -17.7 0 -7.9 3.6 -14.4 9.7 -17.6 6.4 -3.4 17.1 -3.1 25.4 0.6 3.4 1.6 7 3.7 7.9 4.7 0.9 1.1 2.1 1.9 2.5 1.9 1.6 0 3.3 -7.9 3.3 -15.5 0.1 -6.9 -0.4 -8.9 -3.1 -14.7 -7.6 -16.2 -23.1 -25.9 -41.8 -26.1 -24.5 -0.2 -42.5 12.7 -42.5 30.6 0 3.2 0.7 7.1 1.5 8.7 3.7 7.2 19.5 5.9 19.5 -1.6 0 -1.2 -0.4 -3.4 -0.9 -4.7 -0.9 -2.2 -0.6 -2.6 3.1 -4.1 2.2 -0.8 4.4 -1.3 4.8 -1.1 1.9 1.2 3.1 10.3 2 14.3 -2.2 8.3 -13 13.5 -23.6 11.2 -11.5 -2.5 -15.9 -8.9 -15.9 -23 0 -7.6 0.3 -9.3 3.3 -15.2 11.3 -23 48.8 -32.1 75.1 -18.3 23.6 12.5 33.6 36.6 25.3 61.2 l-2.8 8.3 7.6 12.2 c9.5 15.3 18.9 31.7 27.1 47.2 5.8 11 6.1 12.1 4.5 13 -9.6 5.8 -20.8 13.8 -25.5 18.4 -12.2 11.9 -14.5 22.6 -7.9 36.5 4 8.2 9.9 17.5 16 24.9 4.3 5.2 10.7 8.8 15.6 8.8 10.1 0 29.8 -11.9 53.1 -32.1 l8.2 -7.1 5.7 2.3 c21.3 8.4 44.5 19.9 56.2 27.9 12.2 8.4 20 18.9 20 27.3 0 2.9 -0.4 3.7 -1.8 3.7 -4.4 0 -14.2 6.2 -21 13.4 -17 17.9 -21.3 41.9 -8.3 46.4 2.9 1 3 0.9 5.8 -4.6 4 -8.1 9.2 -11.5 18.3 -12 6 -0.4 7.5 -0.1 11.9 2.3 2.9 1.6 6.2 4.5 7.8 6.9 2.5 3.7 2.8 5 2.8 12.3 0 7.4 -0.3 8.5 -3 12.5 -1.7 2.3 -5 5.3 -7.3 6.6 -5 2.8 -13.4 3.7 -18.1 1.9z m13.7 -10.7 c6.7 -4.1 7.8 -13 2.3 -18.9 -7.1 -7.6 -19.4 -3.5 -20.8 6.9 -1.4 10.6 9.4 17.6 18.5 12z m-204.1 -248.1 c3.4 -1.2 10.3 -7.8 10.3 -9.7 0 -2.2 -6.1 -7 -10.9 -8.7 -8.7 -2.9 -16 -1.6 -18.6 3.4 -4.4 8.6 1.4 15.7 13.2 16 1.7 0.1 4.4 -0.4 6 -1z"/>
  <path d="M493 859.9 c-147.2 -7.3 -275.6 -110.1 -316 -253 -9.4 -33.3 -12.4 -56.2 -12.4 -94.9 0 -31.5 0.9 -42.5 6 -68 27.3 -137.6 135.8 -246.1 273.4 -273.4 24.8 -4.9 37.5 -6.1 67.5 -6.1 17.4 0 32.2 0.5 39 1.3 81.9 10 151 43.4 208.1 100.6 29.4 29.5 49.7 58.2 67.7 95.6 25.2 52.3 36.4 108.3 33.6 167.5 -4.4 90.8 -43.9 175.8 -110.5 237.6 -69.8 64.9 -160.1 97.5 -256.4 92.8z m14 -76.5 l0 -67.7 -16.2 0.7 c-69.5 3 -141.4 19.2 -199.1 44.9 l-5.8 2.6 4.3 3.9 c19.1 17.1 44.8 34.3 71.8 47.7 29.4 14.7 56.8 23.8 90 29.9 14.5 2.6 36 5 49.8 5.4 l5.2 0.2 0 -67.6z m45.5 65 c56.1 -6.6 110.3 -27.6 156.5 -60.7 10.4 -7.4 29 -22.5 29 -23.5 0 -0.4 -1.2 -1.3 -2.7 -1.9 -33.1 -13.6 -56.9 -21.8 -81.9 -28.1 -41.1 -10.5 -78.5 -16.1 -119.6 -17.8 l-16.8 -0.7 0 67.8 0 67.7 11.3 -0.7 c6.1 -0.3 17.1 -1.3 24.2 -2.1z m-263.5 -96.5 c22.7 -9.8 54.9 -20.8 81.9 -27.8 6.2 -1.7 11.5 -3.1 11.6 -3.3 0.3 -0.4 25.5 -100.3 25.5 -101.2 0 -0.3 -30.8 -0.6 -68.5 -0.6 l-68.5 0 0 -23 0 -23 74.5 0 74.4 0 1 -3.7 c0.6 -2.1 3.5 -13.9 6.6 -26.3 3.1 -12.4 5.8 -23.3 6.1 -24.2 0.5 -1.7 -6.1 -1.8 -129.7 -1.8 l-130.2 0 0.6 14.8 c3.4 77.8 38.3 157.8 93.6 214.5 5.2 5.3 10 9.7 10.5 9.7 0.6 0 5.4 -1.9 10.6 -4.1z m469 -6.8 c56.5 -60.6 87.7 -133.6 92.5 -216.3 l0.7 -11.8 -129.1 0 c-71 0 -129.1 0.3 -129.1 0.6 0 0.3 2.9 12.8 6.5 27.6 3.6 14.9 6.5 27.2 6.5 27.4 0 0.2 33.1 0.4 73.5 0.4 l73.5 0 0 23 0 23 -67.9 0.2 -67.8 0.3 12 50.5 c6.6 27.8 12.1 50.6 12.3 50.8 0.1 0.2 7.1 2.1 15.5 4.3 24.9 6.4 63.5 19.9 82.9 28.8 2.5 1.1 5.3 2.1 6.2 2.1 0.9 0 6.2 -4.9 11.8 -10.9z m-347.5 -29.6 c34.2 -6.3 64.7 -8.9 102.5 -8.9 38.2 0.1 69.9 3 103 9.4 8 1.5 14.6 2.7 14.7 2.6 0.2 -0.2 -5 -22.5 -11.5 -49.7 l-11.9 -49.4 -94.5 -0.3 -94.5 -0.2 -12.3 48.7 c-6.8 26.9 -12.5 49.4 -12.8 50.2 -0.4 0.9 0.1 1.2 1.4 0.7 1 -0.3 8.2 -1.7 15.9 -3.1z m3.4 -119 c1.7 -6.8 3.1 -12.7 3.1 -13 0 -0.3 -30.8 -0.5 -68.5 -0.5 l-68.5 0 0 13 0 13 65.4 0 65.4 0 3.1 -12.5z m188.4 2.3 c-1.3 -5.7 -2.7 -11.5 -3 -13 l-0.5 -2.8 -85.8 0 -85.8 0 -3.1 12.5 c-1.7 6.8 -3.1 12.7 -3.1 13 0 0.3 41.3 0.5 91.9 0.5 l91.9 0 -2.5 -10.2z m140.7 -2.8 l0 -13 -67 0 c-39.7 0 -67 0.4 -67 0.9 0 1 4.8 21.9 5.5 23.9 0.3 0.9 14.1 1.2 64.5 1.2 l64 0 0 -13z m-147 -23.4 c0 -0.2 -2.9 -12.6 -6.5 -27.5 -3.6 -14.9 -6.5 -27.4 -6.5 -27.6 0 -0.3 -31.3 -0.5 -69.5 -0.5 l-69.4 0 -1 3.8 c-0.6 2 -3.5 13.8 -6.6 26.2 -3.1 12.4 -5.8 23.3 -6.1 24.3 -0.5 1.6 3.9 1.7 82.5 1.7 45.7 0 83.1 -0.2 83.1 -0.4z m-156.2 -78.7 c1.8 -7.3 3.1 -13.2 3 -13.3 -0.2 -0.1 -4.3 -2.1 -9.3 -4.5 -21.5 -10.3 -37 -24.3 -45.1 -40.6 -4.8 -9.8 -6.4 -16.5 -6.4 -27.7 l0 -9.8 41 0 40.9 0 1 -3.7 c3.4 -12.8 6.1 -24.4 6.1 -25.7 0 -0.9 -0.6 -1.6 -1.2 -1.6 -2.5 0 -14 -6 -21.4 -11.1 -33.4 -23.1 -38.7 -62.6 -12.1 -90.5 12.1 -12.9 26.6 -21 46.1 -25.9 5 -1.3 12.6 -2.6 16.9 -3 l7.7 -0.7 0 -30.9 0 -30.9 -8.7 0 c-24.9 0 -62.2 6.7 -91.7 16.4 -127.6 42 -218.3 155.3 -231.6 289.5 -0.5 5.7 -1 14.1 -1 18.7 l0 8.4 131.3 0 131.3 0 3.2 -13.1z m140.2 12.1 c0 -0.6 -1.2 -5.8 -2.6 -11.6 -2.5 -9.6 -2.9 -10.5 -4.8 -10.1 -1.2 0.2 -6.6 1.6 -12.1 3 -29.3 7.6 -66.7 7.7 -95.8 0.2 -5.1 -1.3 -9.9 -2.6 -10.8 -3 -1.4 -0.5 -2.1 1.2 -4.3 9.9 -1.4 5.8 -2.6 11 -2.6 11.6 0 0.7 21.5 1 66.5 1 45 0 66.5 -0.3 66.5 -1z m270.6 -9.7 c-4.2 -65.9 -23.3 -122.8 -58.3 -174.3 -12.2 -17.8 -21.8 -29.5 -37.8 -45.9 -15.5 -15.8 -24.5 -23.8 -41.2 -36.2 -51.5 -38.6 -118.5 -62.8 -181.5 -65.6 l-14.8 -0.6 0 31.1 0 31.1 5.8 0.6 c26.6 3.2 49.1 13.6 63.5 29.6 28 30.9 17.5 75.3 -22.5 95.5 -3.8 1.9 -6.8 4 -6.8 4.7 0 0.6 1.6 8.1 3.6 16.5 l3.6 15.2 38.8 0 38.9 0 0.7 5.7 c0.8 6.9 -0.7 17.9 -3.6 25.6 -6.5 17.3 -24 34.9 -45.5 45.7 -5 2.5 -9.2 4.6 -9.3 4.7 -0.2 0.1 1.1 6.3 2.9 13.7 l3.2 13.6 130.5 0 130.4 0 -0.6 -10.7z m-321.6 -13.4 c18.9 -1.7 43.1 -7.5 43 -10.2 -0.1 -0.7 -2 -9.3 -4.4 -19.2 l-4.3 -18 -49.3 0 -49.3 0 -4.8 18.5 c-2.7 10.2 -4.8 19 -4.9 19.7 0 2.2 22.9 7.7 38.8 9.2 12.7 1.2 22.2 1.2 35.2 0z m-79.1 -28.4 c2.2 -9 4.1 -17.1 4.1 -18 0 -1.3 -3.5 -1.5 -27 -1.5 -15.6 0 -27 0.4 -27 0.9 0 1.4 7.2 10.2 12.1 14.7 6 5.4 15.5 11.8 24.7 16.5 4.3 2.1 8 3.9 8.3 3.9 0.4 0 2.5 -7.4 4.8 -16.5z m138.4 12.4 c13.9 -7 30 -20.2 35 -28.8 l1.8 -3.1 -25.4 0 c-13.9 0 -25.6 0.2 -25.9 0.5 -0.5 0.5 7.3 34.5 7.9 34.5 0.2 0 3.2 -1.4 6.6 -3.1z m-130.3 -45.1 c0.6 -2.4 1.5 -5.9 2.1 -7.8 0.5 -1.9 0.9 -4.1 0.9 -4.7 0 -1 -7.7 -1.3 -35 -1.3 -28.3 0 -35 0.3 -35 1.3 0 2.7 2.2 13.2 3.1 14.9 0.9 1.7 3.4 1.8 31.9 1.8 l30.9 0 1.1 -4.2z m102.7 2.9 c-0.2 -0.7 -1.2 -4.7 -2.2 -9 l-1.7 -7.7 -42.7 0 -42.7 0 -1.9 7.8 c-1 4.2 -2 8.3 -2.2 9 -0.4 0.9 9.3 1.2 46.7 1.2 37.8 0 47.1 -0.3 46.7 -1.3z m70.2 -1.9 c0.7 -1.8 1.4 -5.9 1.8 -9 l0.6 -5.8 -33.2 0 c-25.8 0 -33.1 0.3 -33.1 1.3 0 0.6 0.4 2.8 0.9 4.7 0.6 1.9 1.5 5.4 2.1 7.8 l1.1 4.2 29.3 0 29.4 0 1.1 -3.2z m-76.9 -25.3 c0 -0.6 -7.9 -34.1 -8.6 -36.6 -0.3 -1.2 1.3 -2.3 6.4 -4.3 21.4 -8.3 37 -25.7 40.2 -44.6 4.8 -28.6 -20.8 -56.1 -60 -64.2 -12.7 -2.7 -36.3 -2.1 -48.5 1.2 -23.2 6.3 -41.1 19.4 -49.6 36.4 -9.3 18.9 -5.5 38 11 54.7 8.3 8.3 17.6 14.1 30.1 18.6 4.1 1.4 7.6 2.7 7.8 2.8 0.2 0.2 -6.9 29.7 -8.4 34.8 -0.5 1.6 1.8 1.7 39.5 1.7 22.1 0 40.1 -0.2 40.1 -0.5z"/>
  <path d="M368.1 468.9 c-3 -1.2 -4.4 -2.9 -8 -9.9 -3.9 -7.4 -7.7 -19.9 -9 -29.4 -3.1 -22.5 1.1 -40.1 14.3 -59.8 3.5 -5.1 6.9 -11.1 7.6 -13.3 1.7 -5 1.8 -15.7 0.2 -21.1 -3.2 -11.1 -15 -19.4 -27.9 -19.7 l-6.8 -0.2 -0.3 21.3 c-0.2 20.5 -0.2 21.2 1.7 21.2 5.5 0 10.1 5.2 8.1 9 -2 3.6 -4.4 4 -27.8 4 -21.7 0 -23.1 -0.1 -25.6 -2.1 -4.7 -3.7 -2.3 -9.4 4.5 -10.5 l3.9 -0.7 0 -41.3 0 -41.4 -3.5 0 c-10.3 0 -12.9 -8.7 -3.7 -12.8 4.5 -2 42.9 -3.1 47.4 -1.3 3.3 1.2 6.1 5.2 5.2 7.5 -0.8 2 -5.5 4.6 -8.3 4.6 -1.1 0 -2.2 0.4 -2.5 0.9 -0.3 0.5 -0.3 7.1 0.1 14.7 l0.6 13.9 9.6 0.1 c17.4 0.1 32.7 6 43.7 16.9 7.3 7.3 9.4 12.5 9.4 23.4 -0.1 16.7 -3.4 23.4 -20.2 40.7 -16.8 17.4 -20.6 25.5 -19.6 41.9 0.6 9.2 3.2 14.1 11.9 22.6 6.5 6.3 6.9 7 6.9 11.2 0 3.3 -0.6 5.1 -2.5 7.1 -1.3 1.4 -2.8 2.6 -3.4 2.6 -0.5 0 -1.5 0.2 -2.3 0.4 -0.7 0.3 -2.4 0 -3.7 -0.5z"/>
  <path d="M664.6 392.4 c-17.1 -4.1 -31.8 -18.2 -36.2 -34.8 -1.8 -6.9 -1.8 -19 0.2 -25.7 4.4 -15.2 17.6 -28.2 33.7 -33.1 5.7 -1.7 8.6 -2 17 -1.6 11.4 0.6 19.1 3.1 27.2 8.9 l4.6 3.3 5.2 -5.3 c3.9 -4 4.8 -5.5 3.7 -5.9 -3.2 -1.1 -18.6 -9.4 -19.9 -10.7 -0.9 -0.8 -1.1 -2.3 -0.6 -4.4 0.4 -1.7 0.8 -3.1 1 -3.1 0.2 0 3.4 0.7 7.2 1.6 10.8 2.5 25.4 2.1 34.4 -0.9 4.1 -1.4 7.5 -2.4 7.6 -2.3 0.2 0.1 -0.4 3.6 -1.3 7.7 -2.2 10 -2.1 27.5 0 35.8 1.8 6.5 1.6 7.5 -1.9 8.5 -1.6 0.4 -3 -0.8 -6.7 -5.8 -2.6 -3.5 -5.9 -8.9 -7.4 -11.9 l-2.8 -5.6 -3.9 3.2 c-2.2 1.8 -4.8 3.9 -5.9 4.8 -2 1.5 -2 1.6 1 7 20.8 36.8 -14.2 80.5 -56.2 70.3z m20.4 -9.4 c15.8 -3.5 27.9 -14.6 31.6 -29.1 4.3 -16.9 -4.2 -34.2 -21.1 -42.5 -6.1 -3 -8.7 -3.7 -15.8 -4.1 -17.7 -1.1 -32.4 7.1 -40.4 22.7 -2.5 4.9 -2.8 6.6 -2.8 15 0 8.8 0.3 10.1 3.3 16.2 8 16.3 27.5 25.7 45.2 21.8z"/>
  <path d="M669 357.2 c-13.8 -6.9 -8.2 -25.2 7.7 -25.2 15.5 0 20.8 18.1 7.3 25 -4.8 2.5 -10.4 2.6 -15 0.2z"/>
  <path d="M820.5 730.1 c-4.9 -2.2 -9.9 -7.7 -11.5 -12.6 -0.7 -2.1 -1 -6.4 -0.8 -9.6 0.6 -7.8 4.3 -13.2 11.8 -17.2 4.7 -2.5 6.3 -2.8 11.1 -2.4 6.2 0.5 10 2.2 14.2 6.1 1.5 1.4 3.3 2.6 4 2.6 0.7 -0.1 15.4 -5.4 32.7 -11.9 l31.5 -11.8 0.2 -5.1 c0.8 -16.6 17.6 -26.2 32.4 -18.4 7.7 4 11.4 10.2 11.4 19.1 -0.1 7.2 -1.5 10.8 -6.2 15.5 -8.3 8.5 -22.3 8.8 -30.8 0.6 l-3 -2.8 -32.7 12.1 -32.8 12.2 0 3.5 c0 8.6 -5.1 16.8 -12.4 20.1 -5.3 2.4 -13.9 2.4 -19.1 0z m13.9 -8.5 c6.9 -2.9 9.6 -10.7 6.1 -17.6 -4.7 -9.1 -19.1 -7.3 -22.3 2.8 -1.2 3.7 -1.2 4.6 0.5 7.9 1.9 4 7.4 8.3 10.5 8.3 1 0 3.3 -0.6 5.2 -1.4z m107.6 -42.1 c7.5 -3.9 7.9 -16.1 0.8 -20.7 -4.2 -2.7 -7.6 -3 -12.2 -1 -8.4 3.8 -10 13.7 -3.1 20 4 3.7 9.4 4.3 14.5 1.7z"/>
  <path d="M928.2 615.7 c-16.9 -6.2 -19.9 -29.6 -5 -39.4 4.7 -3.2 14.3 -4.3 20.1 -2.4 5.5 1.8 11.5 8.4 13.3 14.7 5 17.1 -11.7 33.1 -28.4 27.1z m15.4 -12 c7.1 -6.5 5 -17.2 -4 -20.6 -5.3 -2 -11.1 0 -14.4 4.9 -5.4 8 0.5 19 10.3 19 3.7 0 5.2 -0.6 8.1 -3.3z"/>
  <path d="M52.2 564.9 c-2.3 -1.2 -5.2 -3.5 -6.4 -5.2 -2.7 -3.7 -3.6 -12.8 -1.8 -18.1 2.2 -6.8 11.6 -12.6 20.4 -12.6 l3.6 0 0 -33.4 0 -33.3 -8.3 -0.5 c-10.3 -0.5 -14.7 -2.8 -17.2 -9 -3.3 -8.3 0.3 -17.4 8.5 -21.5 5.7 -3 10.3 -2.9 15.6 0.2 4.6 2.7 8.7 9.6 10 16.8 l0.6 3.7 22.3 0 22.4 0 1.1 -5.7 c1.5 -7 2.9 -10 6.7 -13.5 10.4 -9.8 26.8 -4.3 28.9 9.7 0.8 5.6 -2.1 12 -6.8 15.2 -3.4 2.1 -11.6 4.3 -16.7 4.3 -2.5 0 -2.9 0.4 -3.5 3.8 -0.3 2 -0.6 16.8 -0.6 32.8 l0 29.2 2.3 0.6 c1.2 0.3 3.7 0.6 5.5 0.6 4.7 0 9.4 2.2 12.5 5.9 10.5 12.6 -5.9 35 -20.3 27.6 -4.8 -2.5 -7.8 -8.9 -9.5 -20.7 l-0.6 -3.8 -21.3 0 -21.2 0 -1.2 8.4 c-1.3 9.9 -4 15.9 -8.5 18.6 -4.2 2.6 -11 2.6 -16.5 -0.1z m11.5 -8.4 c2.3 -1.6 4.3 -8.3 4.3 -14.5 l0 -4.2 -4.2 0.7 c-8.3 1.3 -12.7 6.2 -11.2 12.3 0.7 2.8 1.8 4.1 4.4 5.4 4.2 2.2 4.1 2.2 6.7 0.3z m78.2 -5.2 c6.1 -7.6 2.6 -13.3 -8.3 -13.3 l-2.9 0 0.7 5.2 c1.4 10.4 6 13.9 10.5 8.1z m-20.6 -47.5 c0.4 -13.3 0.7 -28.1 0.7 -33 l0 -8.8 -22 0 -22 0 0 33 0 33 21.3 0 21.4 0 0.6 -24.2z m-54.3 -53.6 c0 -1 -1 -3.8 -2.2 -6.2 -2 -3.9 -2.7 -4.5 -5.9 -4.8 -3 -0.3 -4.1 0.2 -5.8 2.4 -2.6 3.3 -2.7 7.9 -0.3 9.3 0.9 0.6 4.5 1.1 8 1.1 5.3 0 6.2 -0.3 6.2 -1.8z m77.5 0.4 c8.9 -3.7 3.3 -15.4 -5.9 -12.3 -3 1 -6.5 7.2 -6.6 11.5 0 2 0.5 2.2 4.5 2.2 2.5 0 6.1 -0.6 8 -1.4z"/>
  <path d="M944.9 539.7 c-6 -2.3 -9.6 -5.4 -12.3 -10.9 -7.6 -15.2 2.5 -31.8 19.4 -31.8 17.1 0 27.2 16.9 19.2 32.1 -4.9 9.4 -16.8 14.1 -26.3 10.6z m13 -10.1 c4.1 -2.2 6.1 -5.9 6.1 -11.2 0 -3.9 -0.5 -5.1 -3.3 -7.9 -5.5 -5.5 -10.8 -5.8 -16.6 -0.9 -11.2 9.4 0.8 26.7 13.8 20z"/>
  <path d="M879.8 479 c-9.6 -2.9 -15.8 -11.2 -15.8 -21.1 0 -12.6 9.5 -22.1 21.9 -22.1 l5.6 0 12.8 -30 12.8 -30.1 -2.4 -2.6 c-10 -10.7 -7.1 -28.9 5.7 -35 10.1 -4.9 22.2 -1.8 28.3 7.2 5.7 8.5 5.3 18.9 -1.2 26.5 -4.2 4.8 -9.2 7.3 -16.4 8.1 l-5.5 0.6 -12.8 29.9 -12.7 29.9 3 3.6 c7.5 9.4 6.3 22 -2.9 30.3 -5.8 5.2 -13.3 7 -20.4 4.8z m12.2 -10.5 c5.9 -3 8 -12.7 3.9 -17.9 -6.3 -8 -17.1 -7 -21.1 2.1 -1.7 4 -1.8 4.9 -0.6 8.6 2.3 7.4 10.8 10.8 17.8 7.2z m47.1 -102.4 c3.2 -3.2 3.9 -4.6 3.9 -7.8 0 -5.3 -3.5 -10.3 -8.4 -12.2 -10.7 -4.1 -20.8 8.5 -14.4 17.9 2.9 4.2 6.1 6 11.2 6 3.1 0 4.5 -0.7 7.7 -3.9z"/>
  <path d="M934.9 462.7 c-13.1 -6.9 -15.5 -25.4 -4.5 -35.5 14.3 -13.2 36.8 -3.6 36.8 15.7 0 6.8 -1.1 9.8 -5.3 14.5 -6.8 7.8 -18 10 -27 5.3z m16 -8.5 c3.7 -2 7.1 -7.3 7.1 -11 0 -3.2 -2.5 -7.6 -5.6 -10.1 -5.2 -4.1 -14.2 -2.1 -17.8 3.9 -3.5 6 -0.6 14.8 5.7 17.5 4.3 1.9 6.6 1.8 10.6 -0.3z"/>
  <path d="M129.3 398.2 c-8.2 -2.9 -15.7 -8.5 -27.2 -20.2 -7.6 -7.7 -11.5 -10.9 -13.8 -11.4 -3.8 -0.9 -9.5 0.7 -13.6 3.8 -3.4 2.5 -7.4 10.6 -8.3 16.9 l-0.6 4.7 -4.6 0 -4.5 0 0.5 -6.3 c0.7 -7.9 3.4 -14.3 8.7 -20 5.8 -6.3 12.6 -9 21.1 -8.5 l6.7 0.3 18.4 -26.3 c10.1 -14.6 18.8 -27.3 19.3 -28.3 0.7 -1.4 -0.4 -3.2 -5.2 -8.5 -8.7 -9.4 -10.7 -14 -10.7 -24 0 -7 0.4 -8.8 3 -13.9 3.6 -7.1 10.6 -12.9 17.7 -14.6 8.5 -2 15.3 0.7 20.7 8.1 7.8 10.8 5.6 26 -6.3 43.4 -2.6 3.7 -4.6 6.9 -4.4 7 0.2 0.2 4.3 2.7 9.2 5.6 16 9.6 24 20.3 28.6 38.4 5.1 20 0.7 36.8 -12.1 46.2 -11 8.1 -31.2 11.7 -42.6 7.6z m26.1 -10.2 c8.7 -2.7 14.4 -7.2 18 -14.3 2.6 -5 3 -6.9 2.9 -13.5 0 -4.2 -0.8 -10.6 -1.8 -14.2 -1.9 -7.3 -8.3 -20.3 -9.6 -19.5 -0.9 0.6 -38.9 56.3 -39.5 58 -0.3 0.6 1.5 2 3.8 3.2 5.8 2.9 17.1 3.1 26.2 0.3z m-17.5 -39.6 c10.5 -15.5 19.1 -28.6 19.1 -29.2 0 -0.5 -3.8 -3.2 -8.5 -6 l-8.5 -5.1 -18.6 26.6 c-10.2 14.6 -18.8 27.2 -19 27.8 -0.3 0.7 2.7 4.7 6.7 8.9 5.9 6.3 7.4 7.5 8.5 6.4 0.6 -0.7 9.8 -14 20.3 -29.4z m3.6 -59 c4.5 -5.8 9.3 -15.9 10.1 -20.9 0.9 -6.2 -0.9 -11.7 -4.8 -15 -11.4 -9.6 -28.1 12.2 -19.9 26.1 2.4 4 10.2 13.4 11.2 13.4 0.4 0 1.9 -1.6 3.4 -3.6z"/>
  <path d="M852.4 340.9 c-5.2 -1.2 -12.1 -7.1 -14.5 -12.3 -2.2 -4.9 -2.4 -12.4 -0.4 -17.2 l1.4 -3.4 -5.8 -4.3 c-3.3 -2.3 -35.8 -25.1 -72.4 -50.7 -36.6 -25.6 -66.6 -46.8 -66.6 -47.3 -0.1 -0.4 7.4 -11.4 16.5 -24.4 9.1 -13.1 16.8 -24.2 17 -24.8 0.2 -0.5 -15 -10.7 -33.8 -22.5 -41.8 -26.4 -38.5 -24.5 -40.7 -22.6 -2.8 2.5 -10.4 5.6 -14.1 5.6 -6.5 0 -11.3 -2.1 -16.1 -6.9 -7.4 -7.4 -8.8 -15.9 -4.1 -25.2 3.9 -7.8 9.2 -11.2 18.1 -11.7 7.4 -0.4 11.3 0.9 16.4 5.7 4.6 4.2 6.7 9.3 6.7 16.3 l0.1 6.3 96.4 60.7 96.4 60.8 5.1 -3.2 c8.4 -5.2 19.4 -4.2 26.8 2.6 8.6 7.7 8.9 22.5 0.8 31.4 -6.3 7 -18.6 8.7 -26.9 3.9 -7.6 -4.5 -10.8 -10.4 -11.1 -20.4 l-0.1 -6.2 -55.4 -35 c-55 -34.6 -55.5 -35 -57 -32.8 -0.9 1.2 -7.5 10.7 -14.8 21.1 l-13.2 18.9 2.2 1.7 c1.2 0.9 32.3 22.7 69 48.4 l66.8 46.8 6.3 -1.7 c8.4 -2.3 15.1 -0.9 20.9 4.4 10.4 9.4 10.3 24.3 -0.3 33.3 -3.6 3.2 -11.6 6.2 -14.8 5.7 -0.4 -0.1 -2.5 -0.5 -4.8 -1z m11.2 -10.5 c6.1 -2.9 8.3 -10.7 5 -17.2 -3.1 -5.9 -11.4 -8 -17 -4.3 -3.8 2.6 -5.5 5.7 -5.6 10.4 0 5.1 2.2 9.1 6.2 11 4.2 2.1 7.1 2.1 11.4 0.1z m12.5 -81.7 c4.5 -3 6.1 -6.3 5.6 -11.6 -1.2 -11.7 -16.5 -15 -22.7 -4.8 -3.6 5.9 -1.8 13 4.3 16.7 4.2 2.6 8.6 2.5 12.8 -0.3z m-229.6 -145 c6.5 -6.5 5.1 -15.9 -2.8 -20 -7.3 -3.8 -16.3 0.9 -17.4 9 -1.1 8.4 4 14.3 12.6 14.3 3.5 0 4.9 -0.6 7.6 -3.3z"/>
  <path d="M192.6 272.5 c-9.4 -3.3 -16.5 -13.1 -17.4 -24 -0.4 -5.6 -0.1 -7.2 2.2 -11.9 6.3 -12.9 25.4 -19.4 48.8 -16.7 8.8 1 11.2 1 16.3 -0.4 17.4 -4.6 26.6 -19.1 19.3 -30.3 -7.5 -11.3 -25.2 -13.4 -34.9 -4.2 -4.5 4.3 -4.8 6.2 -1.4 9.5 3.1 3.1 5.8 3.2 8.2 0.1 l1.9 -2.4 4.2 2.5 c4.6 2.8 4.6 4.3 -0.4 8.2 -10.4 8.1 -25.4 0.8 -25.4 -12.3 0 -7.5 4.1 -13.2 12.5 -17.4 13.5 -6.7 29.2 -4.3 39.6 6.1 5.6 5.6 7.9 10.8 7.9 18.2 0 11.7 -7.3 21.6 -21 28.3 l-7.4 3.7 -21.1 0 c-19.6 0 -21.4 0.2 -26.8 2.3 -3.1 1.3 -7.3 3.8 -9.2 5.6 -3.2 3 -3.5 3.9 -3.5 8.7 0 9.8 7 17.9 15.2 17.9 4.5 0 9.7 -2.2 12.4 -5.1 2.2 -2.5 2.2 -7.3 0 -9.8 -1.5 -1.6 -1.6 -2.5 -0.6 -6 1.2 -4.6 2 -4.9 6 -2.1 3.6 2.6 6 7.7 6 12.9 0 13.5 -17.2 23.7 -31.4 18.6z"/>
  <path d="M302.5 207.6 c-8.8 -3.9 -12.8 -14.2 -9 -23.3 2.9 -6.9 7 -9.8 15.7 -11.1 l5.2 -0.7 9.8 -13.5 9.7 -13.5 -22.5 -0.3 -22.6 -0.2 -3.7 3.8 c-9 9.2 -23.2 7.4 -28.8 -3.8 -4.1 -7.9 -2.6 -15.9 4 -21.7 4 -3.5 8.8 -4.8 14.8 -4 3.5 0.5 5.5 1.4 10.4 5.1 0.7 0.5 10.6 -2.8 27.1 -9.3 14.2 -5.7 32.3 -12.8 40.2 -15.8 11.6 -4.6 14.2 -5.9 13.6 -7.2 -0.4 -0.9 -0.9 -4.2 -1.2 -7.3 -0.4 -4.9 0 -6.4 2.2 -10.2 4.6 -7.8 14.4 -10.7 23.2 -6.7 4.8 2.2 7.7 5.9 9.3 11.9 3.1 11.3 -7.3 23.2 -19.2 22 -2.9 -0.3 -3.6 0.5 -15 16.2 l-11.9 16.5 18.5 0.3 18.4 0.2 3.9 -3.9 c8.4 -8.3 20.7 -7.4 27.7 2.1 3.1 4.2 3.5 13.3 0.8 18.6 -4.2 8.2 -15.9 11.7 -24.2 7.3 l-3.6 -1.9 -33.6 15.6 c-33.3 15.5 -33.7 15.7 -33.7 18.7 -0.1 6.4 -5.4 14.2 -11.3 16.4 -3.8 1.5 -10.5 1.3 -14.2 -0.3z m13.3 -10.9 c4.8 -4.5 1.1 -13.7 -5.6 -13.7 -4.4 0 -8.2 3.5 -8.2 7.5 0 4.9 0.9 6.6 4.4 8.1 3.6 1.5 6.2 1 9.4 -1.9z m41.7 -32.6 c37.1 -17.4 38.5 -18.5 22.5 -18.7 -7.4 -0.1 -8.5 0 -5 0.6 4.8 0.8 -11.3 0.4 -22.6 -0.6 l-6.1 -0.5 -11.2 15.6 c-12 16.7 -13.1 18.5 -10.9 18.5 0.8 0 15.8 -6.7 33.3 -14.9z m55.7 -14.9 c1 -0.9 2 -3.1 2.4 -4.9 0.5 -2.7 0.1 -3.7 -2.4 -6.3 -1.7 -1.6 -4 -3 -5.1 -3 -7.1 0 -11.4 7.3 -7.5 12.8 3 4.4 8.9 5 12.6 1.4z m-136.2 -5.9 l2.5 -1.8 -4 -0.6 -4 -0.6 4.3 -0.2 c4.1 -0.1 4.2 -0.2 4.2 -3.4 0 -6 -6.6 -10 -11.8 -7.3 -3.4 1.7 -4.2 3.4 -4.2 8.1 0 6.2 7.6 9.6 13 5.8z m74.3 -21.9 c5.4 -7.5 9.6 -13.9 9.3 -14.1 -0.3 -0.3 -6.2 1.8 -13.3 4.5 -7 2.8 -22.7 9 -34.8 13.7 -12.1 4.8 -22.2 8.9 -22.4 9.1 -0.2 0.2 11.2 0.4 25.5 0.4 l25.9 0 9.8 -13.6z m36.7 -31.4 c4.5 -4.5 3.4 -11.1 -2.2 -13.4 -4.1 -1.8 -8.4 -0.4 -10.3 3.5 -2.1 3.9 -1.9 5.3 1.1 8.8 3.1 3.7 8.3 4.2 11.4 1.1z"/>
  <path d="M543 156.7 c-12.8 -3.6 -23.8 -16.5 -27.2 -31.9 -1.6 -7.2 -2.5 -7.9 -4.4 -3.2 -3.5 8.6 -5 11 -10.6 16.9 -5.9 6.4 -13.6 11.2 -23.2 14.5 -6.3 2.1 -22.2 4.3 -28.1 3.8 l-4 -0.3 -0.3 -4.7 -0.3 -4.8 7.6 0 c14.4 0 27.6 -3.9 36.9 -10.8 4.4 -3.4 12.6 -14 12.6 -16.5 0 -0.7 -9.8 -0.8 -29 -0.4 l-29 0.6 0 -4.9 0 -5 8.8 0 c4.9 0 18.5 -0.3 30.2 -0.7 l21.3 -0.6 -0.7 -6.8 c-0.3 -3.8 -1.6 -9.4 -2.8 -12.6 -8.2 -22.1 -25.1 -30.3 -45.4 -22.1 l-6.2 2.5 -2 -4.3 -2.1 -4.2 5.7 -2.5 c23.3 -10.3 45 -2.4 56.1 20.5 2.2 4.6 4.7 11.5 5.4 15.3 1.3 6.1 1.5 6.6 2.1 4 3.6 -16 6.5 -22.3 13.8 -29.1 2.7 -2.5 7.4 -5.7 10.6 -7.2 5.2 -2.4 6.8 -2.7 17.4 -2.7 7.3 0 12.1 0.4 12.8 1.1 0.9 0.9 0.9 2.2 0 5.3 l-1.1 4.1 -4.2 -0.7 c-2.3 -0.5 -6.9 -0.8 -10.2 -0.7 -15.6 0.3 -27.8 14 -29.3 32.8 l-0.5 6.9 25.2 -0.7 25.1 -0.7 0 5 0 5.1 -9.2 0 c-5.1 0 -16.3 0.3 -24.9 0.7 l-15.6 0.6 0.9 4.1 c2.2 10.4 9.3 20.1 17.2 23.7 8.1 3.7 20.3 1.6 29.6 -5.2 2.3 -1.7 4.3 -2.9 4.4 -2.7 0.2 0.2 1.5 2 3 4 l2.8 3.7 -5.5 3.5 c-11.5 7.4 -24 10.1 -33.7 7.3z"/>
 </g>
 <g fill="none">
  <path d="M0.1 779.3 c0.1 -142.9 0.5 -239.6 1 -232.3 6.3 93.3 39.5 186.2 93.6 261.9 46.7 65.2 105.9 117.4 175.8 154.9 63.2 33.9 133.8 54.2 206.5 59.5 2.5 0.2 -103.8 0.4 -236.2 0.5 l-240.8 0.2 0.1 -244.7z"/>
  <path d="M553 1022.9 c96.4 -7.6 189.7 -43.1 267.4 -101.7 19.5 -14.8 34.4 -27.8 54.2 -47.6 21.5 -21.6 30.3 -31.7 47.9 -55.1 58.8 -78.2 94.1 -173.4 100.8 -272 0.2 -2.7 0.4 103.6 0.5 236.3 l0.2 241.2 -240.7 -0.1 c-136 -0.1 -236.2 -0.5 -230.3 -1z"/>
  <path d="M470.5 1012.9 c-36 -3.1 -78.8 -11.7 -113 -22.7 -136.7 -44.2 -249.1 -146.5 -306.4 -278.9 -20.9 -48.3 -33.4 -97.3 -39.3 -154.3 -2 -19.2 -1.7 -74.4 0.6 -95 11.5 -106.9 53 -201.8 123.2 -282 11.6 -13.3 39.8 -40.9 52.9 -51.9 70.8 -59.1 153.4 -97.1 242.5 -111.5 48.7 -7.9 100.2 -8.6 148.8 -2 54.9 7.4 103.4 22.2 153.7 46.9 99.3 48.7 178.7 127.7 228.3 227.1 26.7 53.5 42.3 106.5 49.8 169.4 2.2 18.3 3 70.5 1.5 90.9 -13.2 172.2 -110.9 323 -262.6 405.4 -56.1 30.5 -114.3 48.6 -184 57.4 -14.5 1.8 -79.5 2.6 -96 1.2z m68 -12.9 c68.9 -4.1 130.6 -20.4 190.5 -50.1 68.1 -33.9 126.1 -81.8 172 -141.9 125 -164.1 133.2 -389.5 20.3 -563 -9.1 -14 -27.2 -38.1 -38.3 -51 -21.3 -24.9 -54.5 -55.7 -81 -75.2 -74.3 -54.6 -162.6 -87.2 -254.9 -93.9 -18.5 -1.3 -67.6 -0.7 -83.6 1.1 -62.8 6.9 -118.2 23.1 -171.6 50.1 -133.7 67.6 -229.5 193.5 -258.8 340.4 -10 49.7 -11.9 106.1 -5.5 157.5 9.5 75.7 37.3 149 81.2 213.6 30.8 45.3 72.3 87.9 117.5 120.7 89.4 65 202.6 98.2 312.2 91.7z"/>
  <path d="M478 989.9 c-125 -8.9 -242.6 -67.4 -325.6 -161.9 -142.9 -162.8 -158.8 -400.8 -38.8 -581 35 -52.6 82.3 -99.8 134.5 -134.3 59.4 -39.2 127.4 -64.9 196.9 -74.6 25.6 -3.5 38.9 -4.4 67.5 -4.4 31.5 0 51.3 1.6 80 6.4 137.2 23.1 258.6 106.2 330.7 226.4 55.2 92.1 77.6 200.5 63.7 308.4 -9.3 72 -35 140.4 -76.1 202.6 -17.3 26 -35.6 48.3 -59.3 72.1 -38.5 38.6 -77.9 67.2 -125.1 90.8 -58.5 29.2 -116.3 44.9 -182.4 49.6 -16.6 1.1 -49.1 1.1 -66 -0.1z m122.5 -38.1 c10.8 -5.5 20.4 -17.2 33 -40 6.3 -11.4 12.5 -19.2 18.3 -22.9 4 -2.6 5.4 -3 9.8 -2.7 8 0.7 14.1 6.6 17 16.4 1.4 5 1.6 5.2 5.7 5.8 3 0.5 4.4 0.3 5 -0.6 0.4 -0.7 4.1 -7.5 8.3 -15.1 21 -38.8 41.9 -62.9 64.4 -74.2 6.2 -3.1 17 -6.9 17.7 -6.2 0.2 0.2 -0.6 2.5 -1.8 5.2 -3.1 7.1 -2.4 16.9 1.6 22.6 4.1 5.8 9.3 8.3 18.2 8.7 12 0.7 22.6 -4.4 25.9 -12.5 2.2 -5.1 1.7 -14 -1 -19.8 -2.3 -5.1 -8.5 -11.5 -11.1 -11.5 -0.7 0 -1.6 -0.4 -2 -0.9 -0.4 -0.8 41 -32.5 62.7 -48 l4.7 -3.3 2.8 1.9 c9.1 6.4 21 5.4 28.6 -2.3 4.7 -4.7 6.1 -8.3 6.2 -15.4 0 -12.1 -7.9 -21 -19.5 -21.8 -7 -0.5 -12 1 -16.6 5.1 -5.6 4.8 -7.6 9.8 -7.2 17.5 l0.3 6.6 -31.5 23.5 c-17.3 12.9 -35 25.8 -39.2 28.6 -7.6 5 -8.1 5.2 -16.5 5.8 -32.7 2.2 -65.9 31.4 -93 81.7 -5.6 10.4 -5.2 9.9 -6.5 7.5 -2.2 -3.8 -9.3 -10.7 -13.1 -12.6 -16.3 -8.4 -32.3 1.7 -47.8 30 -15.5 28.4 -27.9 39.1 -41.5 36.1 -8.6 -2 -14.4 -6.1 -30.4 -21.5 -8.5 -8.3 -18.1 -16.8 -21.3 -18.9 -34.5 -22.7 -89.4 -24.7 -118 -4.3 -15.7 11.2 -21.7 26.6 -15.1 38.8 4.3 7.8 14.2 12.9 22.3 11.4 22.2 -4.2 26.1 -32.7 5.6 -42.1 l-4.9 -2.3 6.9 -3.2 c11.8 -5.3 23.4 -7.2 41.5 -6.6 19.5 0.6 30.5 3.3 46.9 11.4 11 5.4 12.1 6.3 27 20.7 22.9 22.2 31.1 27 45.1 26.3 5.6 -0.3 8.8 -1 12.5 -2.9z m-252.3 -14 c2.3 -1.3 5.6 -4.3 7.3 -6.6 2.7 -4 3 -5.1 3 -12.5 0 -7.3 -0.3 -8.6 -2.8 -12.3 -1.6 -2.4 -4.9 -5.3 -7.8 -6.9 -4.4 -2.4 -5.9 -2.7 -11.9 -2.3 -9.1 0.5 -14.3 3.9 -18.3 12 -2.8 5.5 -2.9 5.6 -5.8 4.6 -13 -4.5 -8.7 -28.5 8.3 -46.4 6.8 -7.2 16.6 -13.4 21 -13.4 1.4 0 1.8 -0.8 1.8 -3.7 0 -8.4 -7.8 -18.9 -20 -27.3 -11.7 -8 -34.9 -19.5 -56.2 -27.9 l-5.7 -2.3 -8.2 7.1 c-23.3 20.2 -43 32.1 -53.1 32.1 -7.5 0 -14.1 -5.4 -23.7 -19.8 -11.7 -17.4 -14.1 -28.4 -8.6 -39.2 4.5 -8.8 16.1 -18.9 34.1 -29.6 1.6 -0.9 1.3 -2 -4.5 -13 -8.2 -15.5 -17.6 -31.9 -27.1 -47.2 l-7.6 -12.2 2.8 -8.3 c11.7 -34.5 -14.1 -67.6 -52.8 -67.7 -21.3 0 -40.3 9.9 -47.6 24.8 -3 5.9 -3.3 7.6 -3.3 15.2 0 14.1 4.4 20.5 15.9 23 10.6 2.3 21.4 -2.9 23.6 -11.2 1.1 -4 -0.1 -13.1 -2 -14.3 -0.4 -0.2 -2.6 0.3 -4.8 1.1 -3.7 1.5 -4 1.9 -3.1 4.1 0.5 1.3 0.9 3.5 0.9 4.7 0 7.5 -15.8 8.8 -19.5 1.6 -0.8 -1.6 -1.5 -5.5 -1.5 -8.7 0 -17.9 18 -30.8 42.5 -30.6 18.7 0.2 34.2 9.9 41.8 26.1 2.7 5.8 3.2 7.8 3.1 14.7 0 7.6 -1.7 15.5 -3.3 15.5 -0.4 0 -1.6 -0.8 -2.5 -1.9 -0.9 -1 -4.5 -3.1 -7.9 -4.7 -8.3 -3.7 -19 -4 -25.4 -0.6 -6.1 3.2 -9.7 9.7 -9.7 17.6 0 9.5 3.4 14.3 12.3 17.7 11.3 4.2 23.3 2 31.1 -5.6 l3.6 -3.5 8.1 13.3 c8.2 13.3 25.3 43.6 25.3 44.9 0 0.3 -3.5 3.1 -7.8 6.1 -10.9 7.7 -19.6 16.7 -23.5 24.6 -2.9 6 -3.2 7.4 -3.2 16.1 0 9.1 0.2 9.9 4.1 18 4.5 9.3 11.8 20.4 17.6 26.9 8.8 9.6 17.4 13 27.8 11.1 11.4 -2.1 30.2 -13.4 50.8 -30.7 l7.2 -6.1 8.8 3.5 c13.3 5.3 33.9 15.6 42.6 21.3 8 5.2 17.6 14.2 17.6 16.3 0 0.7 -2.8 2.8 -6.1 4.7 -11.5 6.6 -24.2 22.7 -28.8 36.7 -3 8.8 -2.8 20.2 0.2 26.3 2.5 4.8 10.5 10.6 15.6 11.2 1.9 0.2 3.1 1.3 4.3 4 2 4.2 8.1 9.7 12.9 11.5 4.7 1.8 13.1 0.9 18.1 -1.9z m196.8 -78.9 c93.4 -8.4 180 -55.4 239.8 -129.9 82.7 -103.3 99 -247.5 41.5 -367 -18 -37.4 -38.3 -66.1 -67.7 -95.6 -57.1 -57.2 -126.2 -90.6 -208.1 -100.6 -16.8 -2 -63.5 -1.7 -80.5 0.5 -94.9 12.6 -175.6 58.6 -233.7 133.2 -37.5 48.2 -61.2 105.6 -69.9 170 -2.5 18.2 -2.5 66.5 -0.1 84.9 10.5 78.3 42.9 145.7 96.5 200.7 73.7 75.8 175.9 113.4 282.2 103.8z m294.6 -128.8 c7.3 -3.3 12.4 -11.5 12.4 -20.1 l0 -3.5 32.8 -12.2 32.7 -12.1 3 2.8 c8.5 8.2 22.5 7.9 30.8 -0.6 4.7 -4.7 6.1 -8.3 6.2 -15.5 0 -8.9 -3.7 -15.1 -11.4 -19.1 -14.8 -7.8 -31.6 1.8 -32.4 18.4 l-0.2 5.1 -31.5 11.8 c-17.3 6.5 -32 11.8 -32.7 11.9 -0.7 0 -2.5 -1.2 -4 -2.6 -4.2 -3.9 -8 -5.6 -14.2 -6.1 -4.8 -0.4 -6.4 -0.1 -11.1 2.4 -7.5 4 -11.2 9.4 -11.8 17.2 -0.5 7.2 1 12.1 5.1 16.8 6.2 7 17.6 9.4 26.3 5.4z m102.5 -114.2 c15.6 -4.7 20.5 -25 8.8 -36.7 -5 -5.1 -9.3 -6.5 -17.4 -6 -11.8 0.7 -19.8 9.3 -19.9 21.2 -0.1 15.3 13.9 25.8 28.5 21.5z m-873.4 -50.9 c4.5 -2.7 7.2 -8.7 8.5 -18.6 l1.2 -8.4 21.2 0 21.3 0 0.6 3.8 c2.3 15.7 6.9 22.2 15.7 22.2 9.7 -0.1 19.2 -12.5 17.3 -22.6 -1.2 -6.7 -8.4 -12.4 -15.7 -12.4 -1.8 0 -4.3 -0.3 -5.5 -0.6 l-2.3 -0.6 0 -29.2 c0 -16 0.3 -30.8 0.6 -32.8 0.6 -3.4 1 -3.8 3.5 -3.8 5.1 0 13.3 -2.2 16.7 -4.3 13 -8.7 6.3 -29.7 -9.5 -29.7 -5.3 0 -9.1 1.4 -12.6 4.8 -3.8 3.5 -5.2 6.5 -6.7 13.5 l-1.1 5.7 -22.4 0 -22.3 0 -0.6 -3.7 c-1.3 -7.2 -5.4 -14.1 -10 -16.8 -5.3 -3.1 -9.9 -3.2 -15.6 -0.2 -8.2 4.1 -11.8 13.2 -8.5 21.5 2.5 6.2 6.9 8.5 17.2 9 l8.3 0.5 0 33.3 0 33.4 -3.6 0 c-8.8 0 -18.2 5.8 -20.4 12.6 -1.8 5.3 -0.9 14.4 1.8 18.1 4.7 6.6 16.3 9.3 22.9 5.3z m895.1 -27.7 c6.1 -3.7 10.2 -11.4 10.2 -18.7 -0.1 -12.4 -9.4 -21.6 -22 -21.6 -16.9 0 -27 16.6 -19.4 31.8 5.8 11.6 20 15.5 31.2 8.5z m-71.5 -58.4 c4.9 -1.3 11.5 -7.3 13.8 -12.4 3.3 -7.3 2.1 -16.1 -3 -22.6 l-3 -3.6 12.7 -29.9 12.8 -29.9 5.5 -0.6 c7.2 -0.8 12.2 -3.3 16.4 -8.1 12.1 -14.2 1.8 -35.9 -16.9 -35.9 -3.8 0 -7.2 0.7 -10.2 2.2 -12.8 6.1 -15.7 24.3 -5.7 35 l2.4 2.6 -12.8 30.1 -12.8 30 -5.6 0 c-12.4 0 -21.9 9.5 -21.9 22.1 0 14.9 13.7 25.1 28.3 21z m62.6 -15.8 c4.3 -2.2 9.7 -8 11.3 -12 0.5 -1.4 1 -5.1 1 -8.2 0 -19.3 -22.5 -28.9 -36.8 -15.7 -14.7 13.5 -5.2 37.8 14.8 37.8 3.8 0 7.2 -0.7 9.7 -1.9z m-795.2 -66.3 c22.1 -7.8 30.8 -26.6 24.3 -52.4 -4.6 -18.1 -12.6 -28.8 -28.6 -38.4 -4.9 -2.9 -9 -5.4 -9.2 -5.6 -0.2 -0.1 1.8 -3.3 4.4 -7 11.9 -17.4 14.1 -32.6 6.3 -43.4 -5.4 -7.4 -12.2 -10.1 -20.7 -8.1 -7.1 1.7 -14.1 7.5 -17.7 14.6 -2.6 5.1 -3 6.9 -3 13.9 0 10 2 14.6 10.7 24 4.8 5.3 5.9 7.1 5.2 8.5 -0.5 1 -9.2 13.7 -19.3 28.3 l-18.4 26.3 -6.7 -0.3 c-8.5 -0.5 -15.3 2.2 -21.1 8.5 -5.3 5.7 -8 12.1 -8.7 20 l-0.5 6.3 4.5 0 4.6 0 0.6 -4.7 c1.9 -13.4 12 -22.9 21.9 -20.7 2.3 0.5 6.2 3.7 13.8 11.4 11.5 11.7 19 17.3 27.2 20.2 7.3 2.6 20.6 2 30.4 -1.4z m703.1 -55.9 c6.1 -1.3 12.7 -6.6 15.3 -12.3 5.6 -12.3 -1.8 -27.4 -15 -30.6 -4.6 -1.1 -6.2 -1 -11.7 0.5 l-6.3 1.7 -66.8 -46.8 c-36.7 -25.7 -67.8 -47.5 -69 -48.4 l-2.2 -1.7 13.2 -18.9 c7.3 -10.4 13.9 -19.9 14.8 -21.1 1.5 -2.2 2 -1.8 57 32.8 l55.4 35 0.1 6.2 c0.3 10 3.5 15.9 11.1 20.4 3.7 2.1 5.9 2.7 10.7 2.7 13 -0.1 22 -9 22 -21.9 0 -13 -9 -21.8 -22.1 -21.9 -5.2 0 -7 0.5 -11.3 3.2 l-5.1 3.2 -96.4 -60.8 -96.4 -60.7 -0.1 -6.3 c0 -9.5 -4.3 -16.4 -12.9 -20.7 -5.5 -2.7 -15.8 -1.8 -21.3 2 -5 3.5 -9.8 12 -9.8 17.4 0 12.8 10.3 23.1 23 23.1 3.7 0 11.3 -3.1 14.1 -5.6 2.2 -1.9 -1.1 -3.8 40.7 22.6 18.8 11.8 34 22 33.8 22.5 -0.2 0.6 -7.9 11.7 -17 24.8 -9.1 13 -16.6 24 -16.5 24.4 0 0.5 30 21.7 66.6 47.3 36.6 25.6 69.1 48.4 72.4 50.7 l5.8 4.3 -1.4 3.4 c-5.7 13.5 3.8 28.1 19.7 30.5 0.4 0.1 2.9 -0.4 5.6 -1z m-655.8 -67.9 c6 -1.7 12.7 -6.6 15 -10.9 3.7 -7.4 1.9 -16.9 -4 -21.1 -4 -2.8 -4.8 -2.5 -6 2.1 -1 3.5 -0.9 4.4 0.6 6 2.2 2.5 2.2 7.3 0 9.8 -2.7 2.9 -7.9 5.1 -12.4 5.1 -8.2 0 -15.2 -8.1 -15.2 -17.9 0 -4.8 0.3 -5.7 3.5 -8.7 1.9 -1.8 6.1 -4.3 9.2 -5.6 5.4 -2.1 7.2 -2.3 26.8 -2.3 l21.1 0 7.4 -3.7 c13.7 -6.7 21 -16.6 21 -28.3 0 -7.4 -2.3 -12.6 -7.9 -18.2 -10.4 -10.4 -26.1 -12.8 -39.6 -6.1 -8.4 4.2 -12.5 9.9 -12.5 17.4 0 13.1 15 20.4 25.4 12.3 5 -3.9 5 -5.4 0.4 -8.2 l-4.2 -2.5 -1.9 2.4 c-2.4 3.1 -5.1 3 -8.2 -0.1 -3.4 -3.3 -3.1 -5.2 1.4 -9.5 9.7 -9.2 27.4 -7.1 34.9 4.2 7.3 11.2 -1.9 25.7 -19.3 30.3 -5.1 1.4 -7.5 1.4 -16.3 0.4 -23.4 -2.7 -42.5 3.8 -48.8 16.7 -2.3 4.7 -2.6 6.3 -2.2 11.9 1.4 17.1 16.5 28.8 31.8 24.5z m109.7 -65.1 c5.9 -2.2 11.2 -10 11.3 -16.4 0 -3 0.4 -3.2 33.7 -18.7 l33.6 -15.6 3.6 1.9 c8.3 4.4 20 0.9 24.2 -7.3 2.7 -5.3 2.3 -14.4 -0.8 -18.6 -7 -9.5 -19.3 -10.4 -27.7 -2.1 l-3.9 3.9 -18.4 -0.2 -18.5 -0.3 11.9 -16.5 c11.4 -15.7 12.1 -16.5 15 -16.2 11.9 1.2 22.3 -10.7 19.2 -22 -1.6 -6 -4.5 -9.7 -9.3 -11.9 -8.8 -4 -18.6 -1.1 -23.2 6.7 -2.2 3.8 -2.6 5.3 -2.2 10.2 0.3 3.1 0.8 6.4 1.2 7.3 0.6 1.3 -2 2.6 -13.6 7.2 -7.9 3 -26 10.1 -40.2 15.8 -16.5 6.5 -26.4 9.8 -27.1 9.3 -4.9 -3.7 -6.9 -4.6 -10.4 -5.1 -6 -0.8 -10.8 0.5 -14.8 4 -6.6 5.8 -8.1 13.8 -4 21.7 5.6 11.2 19.8 13 28.8 3.8 l3.7 -3.8 22.6 0.2 22.5 0.3 -9.7 13.5 -9.8 13.5 -5.2 0.7 c-8.7 1.3 -12.8 4.2 -15.7 11.1 -5 11.9 3.3 24.5 16.2 24.7 2.3 0 5.4 -0.5 7 -1.1z m249.1 -52.8 c2.9 -1.2 7.8 -3.7 10.9 -5.7 l5.5 -3.5 -2.8 -3.7 c-1.5 -2 -2.8 -3.8 -3 -4 -0.1 -0.2 -2.1 1 -4.4 2.7 -9.3 6.8 -21.5 8.9 -29.6 5.2 -7.9 -3.6 -15 -13.3 -17.2 -23.7 l-0.9 -4.1 15.6 -0.6 c8.6 -0.4 19.8 -0.7 24.9 -0.7 l9.2 0 0 -5.1 0 -5 -25.1 0.7 -25.2 0.7 0.5 -6.9 c1.5 -18.8 13.7 -32.5 29.3 -32.8 3.3 -0.1 7.9 0.2 10.2 0.7 l4.2 0.7 1.1 -4.1 c0.9 -3.1 0.9 -4.4 0 -5.3 -0.7 -0.7 -5.5 -1.1 -12.8 -1.1 -10.6 0 -12.2 0.3 -17.4 2.7 -3.2 1.5 -7.9 4.7 -10.6 7.2 -7.3 6.8 -10.2 13.1 -13.8 29.1 -0.6 2.6 -0.8 2.1 -2.1 -4 -0.7 -3.8 -3.2 -10.7 -5.4 -15.3 -11.1 -22.9 -32.8 -30.8 -56.1 -20.5 l-5.7 2.5 2.1 4.2 2 4.3 6.2 -2.5 c20.3 -8.2 37.2 0 45.4 22.1 1.2 3.2 2.5 8.8 2.8 12.6 l0.7 6.8 -21.3 0.6 c-11.7 0.4 -25.3 0.7 -30.2 0.7 l-8.8 0 0 5 0 4.9 29 -0.6 c19.2 -0.4 29 -0.3 29 0.4 0 2.5 -8.2 13.1 -12.6 16.5 -9.3 6.9 -22.5 10.8 -36.9 10.8 l-7.6 0 0.3 4.8 0.3 4.7 4 0.3 c5.9 0.5 21.8 -1.7 28.1 -3.8 9.6 -3.3 17.3 -8.1 23.2 -14.5 5.6 -5.9 7.1 -8.3 10.6 -16.9 1.9 -4.7 2.8 -4 4.4 3.2 3.4 15.4 14.4 28.3 27.2 31.9 6 1.7 16.2 1 22.8 -1.6z"/>
  <path d="M410.2 939 c-6.6 -4.1 -7.7 -13.1 -2.2 -19 7.5 -8.1 21 -2.6 21 8.5 0 9.6 -10.8 15.6 -18.8 10.5z"/>
  <path d="M793.6 839 c-9.7 -3 -11.2 -15.1 -2.7 -23.4 3.9 -3.8 4.1 -3.9 9.7 -3.2 10.1 1.2 14.6 5.9 14.6 15.4 0 3.9 -0.5 5.1 -3.1 7.4 -4.7 4.2 -12 5.7 -18.5 3.8z"/>
  <path d="M884.5 745.7 c-6.8 -6.8 -5.2 -16.2 3.4 -20 4.1 -1.8 4.9 -1.9 8.5 -0.6 7.3 2.5 10.7 11 7.1 17.9 -1.9 3.8 -6.3 6 -11.6 6 -3.3 0 -4.7 -0.6 -7.4 -3.3z"/>
  <path d="M330.8 929.3 c-8.6 -5.3 -7.2 -18.4 2.3 -22.3 6.5 -2.7 15.1 2.2 16.4 9.4 1.9 10 -10.1 18.2 -18.7 12.9z"/>
  <path d="M127 680.9 c-7.1 -2 -9.9 -8.4 -6.5 -15 2.6 -5 9.9 -6.3 18.6 -3.4 4.8 1.7 10.9 6.5 10.9 8.7 0 1.9 -6.9 8.5 -10.3 9.7 -3.4 1.3 -7.9 1.3 -12.7 0z"/>
  <path d="M492.5 850.3 c-33 -2.6 -57.4 -7.2 -83.5 -15.5 -42.2 -13.4 -87.9 -39.2 -118.8 -67 l-4.3 -3.9 5.8 -2.6 c57.7 -25.7 129.6 -41.9 199.1 -44.9 l16.2 -0.7 0 67.7 0 67.6 -5.2 -0.2 c-2.9 -0.1 -7.1 -0.3 -9.3 -0.5z"/>
  <path d="M517 783.5 l0 -67.8 16.8 0.7 c41.1 1.7 78.5 7.3 119.6 17.8 25 6.3 48.8 14.5 81.9 28.1 1.5 0.6 2.7 1.5 2.7 1.9 0 0.4 -4.6 4.5 -10.2 9.1 -58.1 47.3 -123.5 72.7 -199.5 77.2 l-11.3 0.7 0 -67.7z"/>
  <path d="M267.9 746.3 c-48.5 -49.7 -80.4 -115 -90.9 -185.8 -1.1 -7.7 -2.3 -20.6 -2.7 -28.7 l-0.6 -14.8 130.2 0 c123.6 0 130.2 0.1 129.7 1.8 -0.3 0.9 -3 11.8 -6.1 24.2 -3.1 12.4 -6 24.2 -6.6 26.3 l-1 3.7 -74.4 0 -74.5 0 0 23 0 23 68.5 0 c37.7 0 68.5 0.3 68.5 0.6 0 0.9 -25.2 100.8 -25.5 101.2 -0.1 0.2 -5.4 1.6 -11.6 3.3 -27 7 -59.2 18 -81.9 27.8 -5.2 2.2 -10 4.1 -10.6 4.1 -0.5 0 -5.3 -4.4 -10.5 -9.7z"/>
  <path d="M740 753.9 c-19.4 -8.9 -58 -22.4 -82.9 -28.8 -8.4 -2.2 -15.4 -4.1 -15.5 -4.3 -0.2 -0.2 -5.7 -23 -12.3 -50.8 l-12 -50.5 67.8 -0.3 67.9 -0.2 0 -23 0 -23 -73.5 0 c-40.4 0 -73.5 -0.2 -73.5 -0.4 0 -0.2 -2.9 -12.5 -6.5 -27.4 -3.6 -14.8 -6.5 -27.3 -6.5 -27.6 0 -0.3 58.1 -0.6 129.1 -0.6 l129.1 0 -0.7 11.8 c-4.8 82.7 -36 155.7 -92.5 216.3 -5.6 6 -10.9 10.9 -11.8 10.9 -0.9 0 -3.7 -1 -6.2 -2.1z"/>
  <path d="M393.2 717.9 c0.3 -0.8 6 -23.3 12.8 -50.2 l12.3 -48.7 94.5 0.2 94.5 0.3 11.9 49.4 c6.5 27.2 11.7 49.5 11.5 49.7 -0.1 0.1 -6.7 -1.1 -14.7 -2.6 -33.1 -6.4 -64.8 -9.3 -103 -9.4 -29.3 0 -47.3 1.1 -73.5 4.4 -14 1.8 -40.6 6.3 -44.9 7.6 -1.3 0.5 -1.8 0.2 -1.4 -0.7z"/>
  <path d="M280 596 l0 -13 68.5 0 c37.7 0 68.5 0.2 68.5 0.5 0 0.3 -1.4 6.2 -3.1 13 l-3.1 12.5 -65.4 0 -65.4 0 0 -13z"/>
  <path d="M421 608.5 c0 -0.3 1.4 -6.2 3.1 -13 l3.1 -12.5 85.8 0 85.8 0 0.5 2.8 c0.3 1.5 1.7 7.3 3 13 l2.5 10.2 -91.9 0 c-50.6 0 -91.9 -0.2 -91.9 -0.5z"/>
  <path d="M614.5 607.8 c-0.7 -2 -5.5 -22.9 -5.5 -23.9 0 -0.5 27.3 -0.9 67 -0.9 l67 0 0 13 0 13 -64 0 c-50.4 0 -64.2 -0.3 -64.5 -1.2z"/>
  <path d="M430.4 571.3 c0.3 -1 3 -11.9 6.1 -24.3 3.1 -12.4 6 -24.2 6.6 -26.2 l1 -3.8 69.4 0 c38.2 0 69.5 0.2 69.5 0.5 0 0.2 2.9 12.7 6.5 27.6 3.6 14.9 6.5 27.3 6.5 27.5 0 0.2 -37.4 0.4 -83.1 0.4 -78.6 0 -83 -0.1 -82.5 -1.7z"/>
  <path d="M174 498.6 c0 -10.6 1.5 -25.5 4.1 -41.6 22.8 -140.3 133.3 -252.6 273.4 -278 15.1 -2.7 36.2 -5 46.8 -5 l8.7 0 0 30.9 0 30.9 -7.7 0.7 c-40 3.7 -72.4 27.8 -78.9 58.5 -4.7 22.3 6.1 45.7 28 60.9 7.4 5.1 18.9 11.1 21.4 11.1 0.6 0 1.2 0.7 1.2 1.6 0 1.3 -2.7 12.9 -6.1 25.7 l-1 3.7 -40.9 0 -41 0 0 9.8 c0 11.2 1.6 17.9 6.4 27.7 8.1 16.3 23.6 30.3 45.1 40.6 5 2.4 9.1 4.4 9.3 4.5 0.1 0.1 -1.2 6 -3 13.3 l-3.2 13.1 -131.3 0 -131.3 0 0 -8.4z m200.1 -29.6 c0.6 0 2.1 -1.2 3.4 -2.6 1.9 -2 2.5 -3.8 2.5 -7.1 0 -4.2 -0.4 -4.9 -6.9 -11.2 -8.7 -8.5 -11.3 -13.4 -11.9 -22.6 -1 -16.4 2.8 -24.5 19.6 -41.9 16.8 -17.3 20.1 -24 20.2 -40.7 0 -10.9 -2.1 -16.1 -9.4 -23.4 -11 -10.9 -26.3 -16.8 -43.7 -16.9 l-9.6 -0.1 -0.6 -13.9 c-0.4 -7.6 -0.4 -14.2 -0.1 -14.7 0.3 -0.5 1.4 -0.9 2.5 -0.9 2.8 0 7.5 -2.6 8.3 -4.6 0.9 -2.3 -1.9 -6.3 -5.2 -7.5 -4.5 -1.8 -42.9 -0.7 -47.4 1.3 -9.2 4.1 -6.6 12.8 3.7 12.8 l3.5 0 0 41.4 0 41.3 -3.9 0.7 c-6.8 1.1 -9.2 6.8 -4.5 10.5 2.5 2 3.9 2.1 25.6 2.1 23.4 0 25.8 -0.4 27.8 -4 2 -3.8 -2.6 -9 -8.1 -9 -1.9 0 -1.9 -0.7 -1.7 -21.2 l0.3 -21.3 6.8 0.2 c12.9 0.3 24.7 8.6 27.9 19.7 1.6 5.4 1.5 16.1 -0.2 21.1 -0.7 2.2 -4.1 8.2 -7.6 13.3 -13.2 19.7 -17.4 37.3 -14.3 59.8 1.8 12.8 8 30 13.2 36.6 1.7 2.1 5.7 3.8 7.5 3.2 0.8 -0.2 1.8 -0.4 2.3 -0.4z"/>
  <path d="M447 506 c0 -0.6 1.2 -5.8 2.6 -11.6 2.2 -8.7 2.9 -10.4 4.3 -9.9 4.5 1.9 21.3 5.6 31.1 7 14.3 2 41 2 54.9 0 5.8 -0.9 15.1 -2.7 20.6 -4.2 5.5 -1.4 10.9 -2.8 12.1 -3 1.9 -0.4 2.3 0.5 4.8 10.1 1.4 5.8 2.6 11 2.6 11.6 0 0.7 -21.5 1 -66.5 1 -45 0 -66.5 -0.3 -66.5 -1z"/>
  <path d="M587.1 493.4 c-1.8 -7.4 -3.1 -13.6 -2.9 -13.7 0.1 -0.1 4.3 -2.2 9.3 -4.7 21.5 -10.8 39 -28.4 45.5 -45.7 2.9 -7.7 4.4 -18.7 3.6 -25.6 l-0.7 -5.7 -38.9 0 -38.8 0 -3.6 -15.2 c-2 -8.4 -3.6 -15.9 -3.6 -16.5 0 -0.7 3 -2.8 6.8 -4.7 28.7 -14.4 43.7 -43.1 36.7 -70 -7.5 -28.9 -37.9 -50.4 -77.7 -55.1 l-5.8 -0.6 0 -31.1 0 -31.1 14.8 0.6 c63 2.8 130 27 181.5 65.6 16.7 12.4 25.7 20.4 41.2 36.2 16 16.4 25.6 28.1 37.8 45.9 35 51.5 54.1 108.4 58.3 174.3 l0.6 10.7 -130.4 0 -130.5 0 -3.2 -13.6z m102.7 -101.3 c31.2 -8.2 46.5 -42.6 31 -70 -3 -5.4 -3 -5.5 -1 -7 1.1 -0.9 3.7 -3 5.9 -4.8 l3.9 -3.2 2.8 5.6 c1.5 3 4.8 8.4 7.4 11.9 3.7 5 5.1 6.2 6.7 5.8 3.5 -1 3.7 -2 1.9 -8.5 -2.1 -8.3 -2.2 -25.8 0 -35.8 0.9 -4.1 1.5 -7.6 1.3 -7.7 -0.1 -0.1 -3.5 0.9 -7.6 2.3 -9 3 -23.6 3.4 -34.4 0.9 -3.8 -0.9 -7 -1.6 -7.2 -1.6 -0.2 0 -0.6 1.4 -1 3.1 -0.5 2.1 -0.3 3.6 0.6 4.4 1.3 1.3 16.7 9.6 19.9 10.7 1.1 0.4 0.2 1.9 -3.7 5.9 l-5.2 5.3 -4.6 -3.3 c-8.1 -5.8 -15.8 -8.3 -27.2 -8.9 -12.2 -0.6 -20.5 1.6 -29.8 7.6 -14.7 9.5 -22.5 23.5 -22.5 40.1 0 13.8 4.5 24.6 14 34.1 12.8 12.8 31.2 17.7 48.8 13.1z"/>
  <path d="M668 382.9 c-11.5 -2.3 -23 -11 -28.2 -21.7 -3 -6.1 -3.3 -7.4 -3.3 -16.2 0 -8.4 0.3 -10.1 2.8 -15 8 -15.6 22.7 -23.8 40.4 -22.7 30.7 1.9 48 33.7 31.6 58.4 -9 13.6 -26.4 20.5 -43.3 17.2z m16 -25.9 c13.5 -6.9 8.2 -25 -7.3 -25 -8.4 0 -14.6 4.9 -15.4 12.2 -1.2 10.9 11.9 18.3 22.7 12.8z"/>
  <path d="M493.8 482.9 c-15.9 -1.5 -38.8 -7 -38.8 -9.2 0.1 -0.7 2.2 -9.5 4.9 -19.7 l4.8 -18.5 49.3 0 49.3 0 4.3 18 c2.4 9.9 4.3 18.5 4.4 19.2 0.1 2.7 -24.1 8.5 -43 10.2 -13 1.2 -22.5 1.2 -35.2 0z"/>
  <path d="M436.8 467.1 c-9.2 -4.7 -18.7 -11.1 -24.7 -16.5 -4.9 -4.5 -12.1 -13.3 -12.1 -14.7 0 -0.5 11.4 -0.9 27 -0.9 23.5 0 27 0.2 27 1.5 0 2.6 -8.2 34.5 -8.9 34.5 -0.3 0 -4 -1.8 -8.3 -3.9z"/>
  <path d="M577.4 453 c-2.2 -9.3 -3.8 -17.2 -3.6 -17.5 0.3 -0.3 12 -0.5 25.9 -0.5 l25.4 0 -1.8 3.1 c-2.9 4.9 -15 16.5 -22.2 21.3 -5.5 3.6 -18.2 10.6 -19.4 10.6 -0.1 0 -2.1 -7.6 -4.3 -17z"/>
  <path d="M394.1 424.2 c-0.9 -1.7 -3.1 -12.2 -3.1 -14.9 0 -1 6.7 -1.3 35 -1.3 27.3 0 35 0.3 35 1.3 0 0.6 -0.4 2.8 -0.9 4.7 -0.6 1.9 -1.5 5.4 -2.1 7.8 l-1.1 4.2 -30.9 0 c-28.5 0 -31 -0.1 -31.9 -1.8z"/>
  <path d="M467.3 424.8 c0.2 -0.7 1.2 -4.8 2.2 -9 l1.9 -7.8 42.7 0 42.7 0 1.7 7.7 c1 4.3 2 8.3 2.2 9 0.4 1 -8.9 1.3 -46.7 1.3 -37.4 0 -47.1 -0.3 -46.7 -1.2z"/>
  <path d="M570 421.8 c-0.6 -2.4 -1.5 -5.9 -2.1 -7.8 -0.5 -1.9 -0.9 -4.1 -0.9 -4.7 0 -1 7.3 -1.3 33.1 -1.3 l33.2 0 -0.6 5.8 c-0.4 3.1 -1.1 7.2 -1.8 9 l-1.1 3.2 -29.4 0 -29.3 0 -1.1 -4.2z"/>
  <path d="M474.4 396.3 c1.5 -5.1 8.6 -34.6 8.4 -34.8 -0.2 -0.1 -3.7 -1.4 -7.8 -2.8 -12.5 -4.5 -21.8 -10.3 -30.1 -18.6 -12 -12.2 -16.7 -24 -15.6 -39.1 1.1 -13.8 11 -29.2 25.1 -38.9 6.9 -4.8 19.9 -10.6 29.1 -13.1 12.2 -3.3 35.8 -3.9 48.5 -1.2 39.2 8.1 64.8 35.6 60 64.2 -3.2 18.9 -18.8 36.3 -40.2 44.6 -5.1 2 -6.7 3.1 -6.4 4.3 0.7 2.5 8.6 36 8.6 36.6 0 0.3 -18 0.5 -40.1 0.5 -37.7 0 -40 -0.1 -39.5 -1.7z"/>
  <path d="M823.9 720.7 c-1.9 -1.2 -4.2 -3.9 -5.2 -6 -1.7 -3.3 -1.7 -4.2 -0.5 -7.9 3.2 -10.1 17.6 -11.9 22.3 -2.8 3.5 6.9 0.8 14.7 -6.1 17.6 -4.6 1.9 -6.6 1.8 -10.5 -0.9z"/>
  <path d="M927.5 677.8 c-11.4 -10.5 2.3 -27.4 15.3 -19 7.1 4.6 6.7 16.8 -0.8 20.7 -5.1 2.6 -10.5 2 -14.5 -1.7z"/>
  <path d="M927.4 603.7 c-7.2 -6.6 -5 -17.4 4.3 -20.6 12.6 -4.4 21.8 11.5 11.9 20.6 -2.9 2.7 -4.4 3.3 -8.1 3.3 -3.7 0 -5.2 -0.6 -8.1 -3.3z"/>
  <path d="M57 556.2 c-2.6 -1.3 -3.7 -2.6 -4.4 -5.4 -1.5 -6.1 2.9 -11 11.2 -12.3 l4.2 -0.7 0 4.2 c0 6.2 -2 12.9 -4.3 14.5 -2.6 1.9 -2.5 1.9 -6.7 -0.3z"/>
  <path d="M133.6 551.2 c-0.8 -1.6 -1.8 -5.2 -2.2 -8 l-0.7 -5.2 2.9 0 c10.9 0 14.4 5.7 8.3 13.3 -2.8 3.6 -6.4 3.6 -8.3 -0.1z"/>
  <path d="M78 495 l0 -33 22 0 22 0 0 8.8 c0 4.9 -0.3 19.7 -0.7 33 l-0.6 24.2 -21.4 0 -21.3 0 0 -33z"/>
  <path d="M52.8 450.9 c-2.4 -1.4 -2.3 -6 0.3 -9.3 1.7 -2.2 2.8 -2.7 5.8 -2.4 3.2 0.3 3.9 0.9 5.9 4.8 3.6 7.2 3.2 8 -4 8 -3.5 0 -7.1 -0.5 -8 -1.1z"/>
  <path d="M132 449.8 c0.1 -4.3 3.6 -10.5 6.6 -11.5 6.1 -2 11.5 2.3 10 8.1 -0.8 3.4 -5.6 5.6 -12.1 5.6 -4 0 -4.5 -0.2 -4.5 -2.2z"/>
  <path d="M944.9 528.7 c-6.6 -4.4 -7 -13.9 -0.8 -19.1 5.8 -4.9 11.1 -4.6 16.6 0.9 2.8 2.8 3.3 4 3.3 7.9 0 2.7 -0.7 5.8 -1.6 7.2 -3.7 5.6 -11.7 7 -17.5 3.1z"/>
  <path d="M878.9 467.7 c-2.3 -1.5 -3.8 -3.7 -4.7 -6.4 -3.3 -10.2 7.4 -19.6 16.8 -14.8 6.5 3.4 8.9 10.9 5.5 17.5 -3.1 6 -11.6 7.8 -17.6 3.7z"/>
  <path d="M925 368.7 c-1.3 -0.7 -3.5 -2.8 -4.8 -4.7 -4.4 -6.5 -1.2 -15.2 6.5 -17.9 3.5 -1.3 4.6 -1.3 7.9 0 4.9 1.9 8.4 6.9 8.4 12.2 0 3.2 -0.7 4.6 -3.9 7.8 -3.2 3.2 -4.6 3.9 -7.7 3.9 -2.2 0 -5 -0.6 -6.4 -1.3z"/>
  <path d="M940.3 454.5 c-6.3 -2.7 -9.2 -11.5 -5.7 -17.5 3.6 -6 12.6 -8 17.8 -3.9 3.1 2.5 5.6 6.9 5.6 10.1 0 3.7 -3.4 9 -7.1 11 -4 2.1 -6.3 2.2 -10.6 0.3z"/>
  <path d="M129.2 387.7 c-2.3 -1.2 -4.1 -2.6 -3.8 -3.2 0.6 -1.7 38.6 -57.4 39.5 -58 1.3 -0.8 7.7 12.2 9.6 19.5 1 3.6 1.8 10 1.8 14.2 0.1 6.6 -0.3 8.5 -2.9 13.5 -1.8 3.5 -4.6 7 -7.2 9 -9.3 7 -27.9 9.6 -37 5z"/>
  <path d="M109.1 371.4 c-4 -4.2 -7 -8.2 -6.7 -8.9 0.2 -0.6 8.8 -13.2 19 -27.8 l18.6 -26.6 8.5 5.1 c4.7 2.8 8.5 5.5 8.5 6 0 1 -37.2 56.2 -39.4 58.6 -1.1 1.1 -2.6 -0.1 -8.5 -6.4z"/>
  <path d="M133.3 288.1 c-6.6 -7.6 -8.5 -11.5 -8.5 -17 0 -9.8 6.7 -18.7 15 -19.8 7.5 -1 13.2 7.3 11.8 17.2 -1 6.6 -10.9 24.5 -13.5 24.5 -0.3 0 -2.5 -2.2 -4.8 -4.9z"/>
  <path d="M852.2 330.3 c-4 -1.9 -6.2 -5.9 -6.2 -11 0.1 -9.5 9.6 -15.2 18 -10.8 8.3 4.3 8.1 17.9 -0.4 21.9 -4.3 2 -7.2 2 -11.4 -0.1z"/>
  <path d="M863.3 249 c-6.1 -3.7 -7.9 -10.8 -4.3 -16.7 6.2 -10.2 21.5 -6.9 22.7 4.8 0.5 5.3 -1.1 8.6 -5.6 11.6 -4.2 2.8 -8.6 2.9 -12.8 0.3z"/>
  <path d="M631.4 105.1 c-6.4 -3.9 -7.2 -14.2 -1.5 -19.3 6.4 -5.7 15.5 -4.1 19.4 3.5 2.6 5 1.6 10 -2.8 14.4 -2.7 2.7 -4.1 3.3 -7.6 3.3 -2.5 0 -5.7 -0.8 -7.5 -1.9z"/>
  <path d="M306.4 198.6 c-3.5 -1.5 -4.4 -3.2 -4.4 -8.1 0 -6.7 8.7 -9.9 13.5 -5 6.5 6.4 -0.7 16.7 -9.1 13.1z"/>
  <path d="M323.4 177.5 c0.3 -0.8 5.6 -8.5 11.7 -17 l11.2 -15.6 6.1 0.5 c11.3 1 27.4 1.4 22.6 0.6 -3.5 -0.6 -2.4 -0.7 5 -0.6 16 0.2 14.6 1.3 -22.5 18.7 -17.5 8.2 -32.5 14.9 -33.3 14.9 -0.8 0 -1.2 -0.6 -0.8 -1.5z"/>
  <path d="M404.4 151 c-2.6 -1 -5.4 -4.8 -5.4 -7.2 0 -3 2.1 -6.5 4.7 -7.7 3.9 -1.8 6.3 -1.3 9.5 1.9 2.5 2.6 2.9 3.6 2.4 6.3 -1.1 5.5 -6.4 8.7 -11.2 6.7z"/>
  <path d="M266.6 142.9 c-1.9 -1.5 -2.6 -3 -2.6 -5.4 0 -4.7 0.8 -6.4 4.2 -8.1 5.2 -2.7 11.8 1.3 11.8 7.3 0 3.2 -0.1 3.3 -4.2 3.4 l-4.3 0.2 4 0.6 4 0.6 -2.5 1.8 c-3.3 2.3 -7.1 2.2 -10.4 -0.4z"/>
  <path d="M290.1 134.6 c0.2 -0.2 10.3 -4.3 22.4 -9.1 12.1 -4.7 27.8 -10.9 34.8 -13.7 7.1 -2.7 13 -4.8 13.3 -4.5 0.3 0.2 -3.9 6.6 -9.3 14.1 l-9.8 13.6 -25.9 0 c-14.3 0 -25.7 -0.2 -25.5 -0.4z"/>
  <path d="M376.6 88.9 c-3 -3.5 -3.2 -4.9 -1.1 -8.8 4.2 -8.1 17.3 -3.4 15.1 5.4 -1.7 6.9 -9.5 8.8 -14 3.4z"/>
  <path d="M0.1 245.3 l-0.1 -245.3 244.8 0.2 c134.6 0.1 242.5 0.3 239.7 0.5 -115.7 6.9 -220.4 49.3 -307.5 124.3 -13.1 11.2 -41.3 39.4 -52.2 52 -72.9 84.9 -116.4 190.6 -123.7 300.5 -0.5 7.8 -0.9 -86 -1 -232.2z"/>
  <path d="M1022.6 471 c-1.5 -24.4 -7.4 -59.6 -14.7 -88 -38.8 -149.3 -143.8 -273.8 -284.7 -337.6 -54.6 -24.7 -116.7 -40.4 -175.7 -44.3 -7.8 -0.5 85.7 -0.9 231.8 -1 l244.7 -0.1 0 241 c0 132.6 -0.2 241 -0.3 241 -0.2 0 -0.7 -5 -1.1 -11z"/>
 </g>
</svg>
