<?xml version="1.0" encoding="utf-8"?>
<!DOCTYPE svg PUBLIC "-//W3C//DTD SVG 1.0//EN" "http://www.w3.org/TR/2001/REC-SVG-20010904/DTD/svg10.dtd">
<svg version="1.0" xmlns="http://www.w3.org/2000/svg" width="140px" height="124px" viewBox="0 0 140 124" preserveAspectRatio="xMidYMid meet">
 <g fill="#000000">
  <path d="M54.75 123.50 c-0.20 -0.30 -6.10 -0.50 -16.05 -0.50 -12.85 0 -15.70 -0.10 -15.70 -0.65 0 -0.40 1.85 -1.70 4.10 -2.90 4.65 -2.45 11.10 -8.40 12.55 -11.55 0.55 -1.20 0.85 -3.10 0.85 -5.55 l0 -3.70 -11.05 -0.35 c-9.20 -0.30 -11.20 -0.25 -12.10 0.35 -0.60 0.40 -2.45 2.75 -4.10 5.25 -1.65 2.50 -3.20 4.55 -3.50 4.60 -0.35 0 -0.45 -5.45 -0.40 -15.60 0.15 -18.70 0.55 -26 1.30 -25.75 0.30 0.10 1.80 2.75 3.30 5.90 l2.80 5.70 12 0 12 0 0.15 -8.60 0.10 -8.65 -1.35 -0.25 c-4.55 -0.95 -6 -1.40 -8.20 -2.55 -2.65 -1.30 -2.55 -1.35 -3.20 1.55 -0.85 3.95 -4.90 7.25 -9 7.25 -4.90 0 -9.25 -4.30 -9.25 -9.20 0 -4.50 2.75 -8.35 6.45 -9.10 0.85 -0.20 1.70 -0.50 1.80 -0.70 0.35 -0.60 -1.80 -5.50 -2.45 -5.50 -0.30 0.05 -1.10 0.35 -1.80 0.75 -0.70 0.40 -2.20 0.70 -3.40 0.75 -5.30 0.05 -9.10 -3.85 -9.10 -9.30 0 -2.95 0.95 -5.15 3.15 -7.05 2.65 -2.35 5.25 -2.90 8.70 -1.90 1.50 0.45 2.80 0.75 2.85 0.65 0.05 -0.10 0.60 -1.40 1.20 -2.90 l1.15 -2.75 -1.05 -0.75 c-4.60 -3.30 -6 -5.45 -6 -9.50 0 -3.05 0.90 -5 3.10 -6.65 4.15 -3.10 8.70 -3 12.20 0.25 1.20 1.15 2.35 2.60 2.50 3.25 0.35 1.40 0.60 1.40 5.40 -0.35 16.20 -5.85 34.25 6.10 36.10 23.80 l0.30 3.05 5.30 0.35 c2.90 0.15 6.90 0.30 8.85 0.30 l3.65 0 0.30 -2.65 c0.15 -1.40 0.40 -6.90 0.60 -12.15 l0.35 -9.50 -4.95 -2.50 c-2.70 -1.35 -4.95 -2.75 -5.10 -3.05 -0.15 -0.50 0.95 -0.65 4.25 -0.65 8.80 0 24.60 0.65 25.25 1.05 1 0.60 -0.25 1.55 -4.15 3.15 -1.80 0.75 -3.85 1.85 -4.60 2.45 l-1.30 1.10 -0.45 11.25 c-0.25 6.20 -0.30 11.40 -0.15 11.60 0.40 0.45 25.05 1.15 25.05 0.75 0 -0.20 -0.45 -1.05 -1 -1.95 -1.40 -2.30 -1.35 -6.50 0.15 -9.15 1.50 -2.70 3.85 -3.85 7.20 -3.60 5.45 0.40 8.60 4.20 8.65 10.30 0 2.65 -0.25 3.65 -1.60 6.05 l-1.55 2.85 1.15 1.90 c2.30 3.70 0.90 9 -3.10 11.60 -1.85 1.25 -2.55 1.40 -6.20 1.40 -3.90 0 -4.20 -0.10 -5.65 -1.45 -5.20 -5 -0.30 -14.05 6.35 -11.75 3 1.05 3.95 5.15 1.75 7.55 -1.75 1.95 -3.60 0.65 -2.35 -1.65 1.35 -2.40 0.30 -4.10 -1.80 -2.95 -3.50 1.85 -2.05 7.50 1.90 7.50 5.90 0 9.10 -8.80 4.15 -11.50 -0.55 -0.25 -6.75 -0.60 -13.85 -0.75 -7.15 -0.15 -14.60 -0.40 -16.55 -0.55 l-3.65 -0.25 0 8 0 7.95 3.80 3.55 c2.10 2 3.70 3.70 3.55 3.90 -0.15 0.15 -4.75 0 -10.20 -0.30 -13.90 -0.80 -16.70 -1.10 -16.50 -1.75 0.10 -0.30 2 -1.45 4.25 -2.55 2.25 -1.15 4.40 -2.35 4.80 -2.75 0.50 -0.55 0.75 -2.95 0.95 -8.35 0.30 -6.90 0.25 -7.60 -0.55 -7.85 -0.45 -0.10 -4.55 -0.30 -9.10 -0.40 l-8.20 -0.15 -1.05 3 c-1.85 5.20 -3.80 8.40 -7.20 11.75 -3.60 3.60 -8.25 6.15 -12.70 7.05 -1.40 0.25 -3.05 0.60 -3.65 0.70 -1 0.20 -1.05 0.65 -1.40 8.60 -0.30 7.65 -0.30 8.45 0.50 9 0.65 0.45 3.20 0.65 8.90 0.65 l8 0 2.15 -2.30 c1.15 -1.30 3.15 -4.10 4.40 -6.30 1.30 -2.15 2.60 -3.85 2.90 -3.75 0.45 0.15 0.55 2.05 0.45 6.90 -0.20 11 -1.15 35.15 -1.35 35.80 -0.40 1.25 -1.80 -0.05 -4.10 -3.90 -1.30 -2.20 -3.10 -4.75 -3.95 -5.75 l-1.60 -1.70 -8.45 0.10 -8.40 0.15 -0.15 4.25 c-0.15 3.95 -0.05 4.45 1.65 7.85 1.95 4 4.65 6.65 9.50 9.50 3.65 2.10 3.35 1.85 2.95 2.85 -0.35 0.90 -2.95 1.15 -3.45 0.30z m8.75 -29.50 c0.95 -0.50 3 -3.50 3 -4.35 0 -0.30 -0.80 -1.55 -1.75 -2.85 l-1.80 -2.30 -9.20 0 -9.25 0 0 4.75 0 4.70 3.65 0.20 c8.20 0.35 14.45 0.30 15.35 -0.15z m-23 -4.65 l0 -4.70 -5.60 -0.30 c-3.10 -0.20 -8.40 -0.35 -11.70 -0.35 l-6.05 0 -1.85 2.35 -1.80 2.30 1.30 1.80 c2.70 3.70 2.10 3.55 14.50 3.55 l11.20 0 0 -4.65z m-17.60 -25.85 c3 -1.85 3.85 -6.25 1.85 -9.35 -0.45 -0.70 -1.85 -1.70 -3.10 -2.25 -2.85 -1.25 -5.15 -0.75 -7.40 1.60 -1.30 1.40 -1.50 1.90 -1.50 4.55 0 2.85 0.10 3.15 1.85 4.75 1.60 1.45 2.25 1.70 4.25 1.70 1.50 0 3 -0.35 4.05 -1z m19.10 -15.50 c0.15 -4.80 0.20 -9.25 0.10 -9.85 -0.20 -1 -0.55 -1.05 -7.25 -1.40 -3.90 -0.20 -8.65 -0.25 -10.60 -0.15 l-3.50 0.15 0 2.50 c0.05 3.35 2 7.40 5.30 10.70 3.60 3.70 10.75 7.15 14.20 6.90 l1.50 -0.10 0.25 -8.75z m11.70 6.30 c5.40 -2.65 9.20 -7.30 10.80 -13.20 0.95 -3.60 0.80 -3.65 -9.95 -3.50 l-9.30 0.15 -0.25 8.90 c-0.15 4.85 -0.15 9.10 -0.05 9.40 0.35 1.05 5 0.15 8.75 -1.75z m-40.30 -13.30 c4.45 -2.70 4.70 -8.90 0.50 -11.50 -4.60 -2.80 -10.40 0.50 -10.40 5.85 0 3.10 3.65 6.65 6.75 6.65 0.85 0 2.25 -0.45 3.15 -1z m121.50 -6.70 c0.30 -3.55 -0.20 -6.10 -1.45 -7.35 -2.35 -2.35 -6.95 0.10 -6.95 3.80 0 2.50 1.10 4.40 3.85 6.50 2.35 1.80 2.35 1.80 3.35 0.80 0.65 -0.65 1.05 -1.90 1.20 -3.75z m-69.90 -0.55 c1 -1.20 0.25 -6.45 -1.45 -10.10 -0.85 -1.70 -2.55 -4.25 -3.85 -5.65 -3.90 -4.15 -12.75 -7.95 -13.95 -5.95 -0.45 0.70 -0.95 19.10 -0.55 20.65 0.30 1.25 0.35 1.25 6.45 1.45 3.35 0.05 7.60 0.20 9.40 0.25 2.45 0.05 3.50 -0.10 3.95 -0.65z m-22.75 -9.35 c0.20 -5.05 0.25 -9.95 0.15 -10.90 l-0.15 -1.75 -2.85 0.05 c-3.65 0.10 -9.10 2.60 -12.75 5.90 -3.05 2.75 -5.40 7.10 -6.20 11.50 -0.80 4.35 -0.85 4.30 11.35 4.30 l10.10 0 0.35 -9.10z m-18 -7.60 c1.85 -1.20 2.90 -3.10 2.90 -5.20 0 -6.75 -7.95 -9.55 -12.10 -4.30 -1.40 1.80 -1.45 6.05 -0.05 7.80 2.20 2.80 6.40 3.55 9.25 1.70z"/>
  <path d="M29.75 50.30 c-3.50 -1 -5.30 -5.40 -3.60 -8.80 0.85 -1.70 3.70 -3.50 5.60 -3.50 3.10 0 6.25 3.05 6.25 6.15 0 4.45 -3.90 7.35 -8.25 6.15z m3.75 -2.05 c1.80 -0.95 2.50 -2.15 2.50 -4.45 0 -2.25 -1.85 -3.80 -4.55 -3.80 -2.75 0 -4.05 1.50 -3.85 4.50 0.15 1.90 0.40 2.40 1.85 3.35 2 1.35 2.15 1.35 4.05 0.40z"/>
  <path d="M50 51.10 c-3.45 -1.70 -4.35 -6.20 -1.95 -9.30 2.55 -3.25 6.10 -3.50 9.20 -0.60 1.55 1.50 1.75 1.95 1.75 4.15 0 2.95 -1.25 4.90 -3.80 5.95 -2.20 0.90 -3.10 0.90 -5.20 -0.20z m6.05 -2.55 c2.35 -2.40 1.90 -5.80 -1.05 -7.30 -2.05 -1.05 -3.20 -0.95 -4.90 0.50 -1.90 1.60 -2.40 3.70 -1.40 5.70 1.55 3 4.95 3.50 7.35 1.10z"/>
  <path d="M52.20 31.30 c-2.45 -1.10 -3.70 -3.05 -3.70 -5.90 0 -2.15 0.25 -2.75 1.65 -4.15 2.10 -2.10 4.60 -2.65 7 -1.50 4.90 2.30 5.05 9.10 0.25 11.25 -2.55 1.15 -3.15 1.20 -5.20 0.30z m5.85 -2.75 c1.70 -1.70 1.85 -3.20 0.45 -5.40 -1.85 -3.10 -6.45 -2.55 -7.70 0.95 -1.60 4.55 3.80 7.90 7.25 4.45z"/>
  <path d="M30.20 29.55 c-3.50 -1.60 -4.45 -5.15 -2.40 -9.10 0.70 -1.45 3.45 -2.95 5.30 -2.95 3 0 6.40 3.45 6.40 6.50 0 2.70 -3.70 6.50 -6.25 6.50 -0.55 0 -1.90 -0.45 -3.05 -0.95z m5.85 -1.95 c2.25 -2 2.25 -4.70 0.05 -6.65 -2.60 -2.30 -5.85 -1.85 -7.35 1.05 -1.15 2.20 -0.90 3.45 0.95 5.30 2.15 2.15 4.15 2.25 6.35 0.30z"/>
 </g>
 <g fill="none">
  <path d="M0 62 l0 -62 70 0 70 0 0 62 0 62 -41.05 0 c-39.15 0 -41 -0.05 -40.75 -0.90 0.25 -0.70 -0.40 -1.30 -2.85 -2.70 -4.90 -2.85 -7.60 -5.50 -9.60 -9.55 -1.70 -3.40 -1.80 -3.90 -1.65 -7.85 l0.15 -4.25 8.40 -0.15 8.45 -0.10 1.60 1.70 c0.85 1 2.65 3.55 3.95 5.75 2.30 3.85 3.70 5.15 4.10 3.90 0.20 -0.65 1.15 -24.80 1.35 -35.80 0.10 -4.85 0 -6.75 -0.45 -6.90 -0.30 -0.10 -1.60 1.60 -2.90 3.75 -1.25 2.20 -3.25 5 -4.40 6.30 l-2.15 2.30 -8 0 c-5.70 0 -8.25 -0.20 -8.90 -0.65 -0.80 -0.55 -0.80 -1.35 -0.50 -9 0.35 -7.95 0.40 -8.40 1.40 -8.60 0.60 -0.10 2.25 -0.45 3.65 -0.70 4.45 -0.90 9.10 -3.45 12.70 -7.05 3.40 -3.35 5.35 -6.55 7.20 -11.75 l1.05 -3 8.20 0.15 c4.55 0.10 8.65 0.30 9.10 0.40 0.80 0.25 0.85 0.95 0.55 7.85 -0.20 5.40 -0.45 7.80 -0.95 8.35 -0.40 0.40 -2.55 1.60 -4.80 2.75 -2.25 1.10 -4.15 2.25 -4.25 2.55 -0.20 0.65 2.60 0.95 16.50 1.75 5.45 0.30 10.05 0.45 10.20 0.30 0.15 -0.20 -1.45 -1.90 -3.55 -3.90 l-3.80 -3.55 0 -7.95 0 -8 3.65 0.25 c1.95 0.15 9.40 0.40 16.55 0.55 7.10 0.15 13.30 0.50 13.85 0.75 4.95 2.70 1.75 11.50 -4.15 11.50 -3.95 0 -5.40 -5.65 -1.90 -7.50 2.10 -1.15 3.15 0.55 1.80 2.95 -0.80 1.50 -0.55 2.55 0.70 2.55 2.20 0 3.60 -3.85 2.30 -6.40 -1.25 -2.45 -5.55 -3.25 -7.80 -1.45 -3.85 3.05 -4.25 8 -0.95 11.15 1.45 1.35 1.75 1.45 5.65 1.45 3.65 0 4.35 -0.15 6.20 -1.40 4 -2.60 5.40 -7.90 3.10 -11.60 l-1.15 -1.90 1.55 -2.85 c2.95 -5.35 1.90 -12 -2.40 -14.80 -2.65 -1.80 -6.50 -2.15 -9 -0.85 -3.65 1.90 -5.25 8.30 -3 12.05 0.55 0.90 1 1.75 1 1.95 0 0.40 -24.65 -0.30 -25.05 -0.75 -0.15 -0.20 -0.10 -5.40 0.15 -11.60 l0.45 -11.25 1.30 -1.10 c0.75 -0.60 2.80 -1.70 4.60 -2.45 3.90 -1.60 5.15 -2.55 4.15 -3.15 -0.65 -0.40 -16.45 -1.05 -25.25 -1.05 -3.30 0 -4.40 0.15 -4.25 0.65 0.15 0.30 2.40 1.70 5.10 3.05 l4.95 2.50 -0.35 9.50 c-0.20 5.25 -0.45 10.75 -0.60 12.20 l-0.30 2.60 -3.65 0 c-1.95 0 -5.95 -0.15 -8.85 -0.30 l-5.30 -0.35 -0.30 -3.05 c-1.85 -17.70 -19.90 -29.65 -36.10 -23.80 -4.80 1.75 -5.05 1.75 -5.40 0.35 -0.15 -0.65 -1.30 -2.10 -2.50 -3.25 -3.50 -3.25 -8.05 -3.35 -12.20 -0.25 -2.20 1.65 -3.10 3.60 -3.10 6.65 0 4.05 1.40 6.20 6 9.50 l1.05 0.75 -1.15 2.75 c-0.60 1.50 -1.15 2.80 -1.20 2.90 -0.05 0.10 -1.35 -0.20 -2.85 -0.65 -3.45 -1 -6.05 -0.45 -8.70 1.90 -2.20 1.90 -3.15 4.10 -3.15 7.05 0 5.45 3.80 9.35 9.10 9.30 1.20 -0.05 2.70 -0.35 3.40 -0.75 0.70 -0.40 1.50 -0.70 1.80 -0.75 0.65 0 2.80 4.90 2.45 5.50 -0.10 0.20 -0.95 0.50 -1.80 0.70 -3.70 0.75 -6.45 4.60 -6.45 9.10 0 4.90 4.35 9.20 9.25 9.20 4.10 0 8.15 -3.30 9 -7.25 0.65 -2.90 0.55 -2.85 3.20 -1.55 2.20 1.15 3.65 1.60 8.20 2.55 l1.35 0.25 -0.10 8.65 -0.15 8.60 -12 0 -12 0 -2.80 -5.70 c-1.50 -3.15 -3 -5.80 -3.30 -5.90 -0.75 -0.25 -1.15 7.05 -1.30 25.75 -0.05 10.15 0.05 15.60 0.40 15.60 0.30 -0.05 1.85 -2.10 3.50 -4.60 1.65 -2.50 3.50 -4.85 4.10 -5.25 0.90 -0.60 2.90 -0.65 12.10 -0.35 l11.05 0.35 0 3.70 c0 2.45 -0.30 4.35 -0.85 5.55 -1.45 3.15 -7.90 9.10 -12.50 11.55 -2.30 1.20 -4.15 2.50 -4.15 2.90 0 0.55 2.85 0.65 15.70 0.65 9.95 0 15.85 0.20 16.05 0.50 0.20 0.35 -9 0.50 -27.20 0.50 l-27.55 0 0 -62z"/>
  <path d="M48.15 94.15 l-3.65 -0.20 0 -4.70 0 -4.75 9.25 0 9.20 0 1.80 2.30 c0.95 1.30 1.75 2.55 1.75 2.85 0 0.85 -2.05 3.85 -3 4.35 -0.90 0.45 -7.15 0.50 -15.35 0.15z"/>
  <path d="M17.10 93.15 c-0.50 -0.50 -1.55 -1.70 -2.30 -2.70 l-1.30 -1.80 1.80 -2.30 1.85 -2.35 6.05 0 c3.30 0 8.60 0.15 11.70 0.35 l5.60 0.30 0 4.70 0 4.65 -11.20 0 c-9.95 0 -11.30 -0.10 -12.20 -0.85z"/>
  <path d="M14.60 62.80 c-1.75 -1.60 -1.85 -1.90 -1.85 -4.75 0 -2.65 0.20 -3.15 1.50 -4.55 2.25 -2.35 4.55 -2.85 7.40 -1.60 7 3.10 4.95 12.60 -2.80 12.60 -2 0 -2.65 -0.25 -4.25 -1.70z"/>
  <path d="M36.75 56.30 c-9 -2.90 -15.95 -10.30 -16 -17.05 l0 -2.50 3.50 -0.15 c1.95 -0.10 6.70 -0.05 10.60 0.15 6.70 0.35 7.05 0.40 7.25 1.40 0.10 0.60 0.05 5.05 -0.10 9.85 l-0.25 8.75 -1.50 0.10 c-0.80 0.05 -2.40 -0.20 -3.50 -0.55z m-1.40 -6.75 c1.25 -0.65 2.65 -3.50 2.65 -5.40 0 -3.10 -3.15 -6.15 -6.25 -6.15 -1.90 0 -4.75 1.80 -5.60 3.50 -1.70 3.40 0.10 7.80 3.60 8.80 1.95 0.55 3.65 0.35 5.60 -0.75z"/>
  <path d="M29.45 47.85 c-1.45 -0.95 -1.70 -1.45 -1.85 -3.35 -0.20 -3 1.10 -4.50 3.85 -4.50 2.70 0 4.55 1.55 4.55 3.80 0 2.30 -0.70 3.50 -2.50 4.45 -1.90 0.95 -2.05 0.95 -4.05 -0.40z"/>
  <path d="M44.95 56.05 c-0.10 -0.30 -0.10 -4.55 0.05 -9.40 l0.25 -8.90 9.30 -0.15 c10.75 -0.15 10.90 -0.10 9.95 3.50 -1.60 5.90 -5.40 10.55 -10.80 13.20 -3.75 1.90 -8.40 2.80 -8.75 1.75z m10.25 -4.75 c2.55 -1.05 3.80 -3 3.80 -5.95 0 -2.20 -0.20 -2.65 -1.75 -4.15 -3.10 -2.90 -6.65 -2.65 -9.20 0.60 -2.40 3.10 -1.50 7.60 1.95 9.30 2.10 1.10 3 1.10 5.20 0.20z"/>
  <path d="M50.35 49.45 c-1.35 -0.80 -2.45 -3.35 -2.10 -4.95 0.35 -1.70 2.85 -4 4.30 -4 1.45 0 3.85 1.35 4.45 2.45 2.15 4.05 -2.70 8.80 -6.65 6.50z"/>
  <path d="M7.10 41 c-4.45 -2.70 -4.70 -8.90 -0.50 -11.50 4.60 -2.80 10.40 0.50 10.40 5.85 0 3.10 -3.65 6.65 -6.75 6.65 -0.80 0 -2.25 -0.45 -3.15 -1z"/>
  <path d="M130.35 37.25 c-4.15 -3.15 -5.10 -7.10 -2.40 -9.80 2.70 -2.65 6.10 -1.55 6.85 2.30 0.55 3 0 7.20 -1.10 8.30 -1 1 -1 1 -3.35 -0.80z"/>
  <path d="M51.65 34.15 c-6.10 -0.20 -6.15 -0.20 -6.45 -1.45 -0.40 -1.55 0.10 -19.95 0.55 -20.65 1.20 -2 10.05 1.80 13.95 5.95 3 3.20 5.20 7.85 5.60 11.90 0.45 4.15 0 4.65 -4.25 4.50 -1.80 -0.05 -6.05 -0.20 -9.40 -0.25z m5.75 -3.15 c4.80 -2.15 4.65 -8.95 -0.25 -11.25 -2.40 -1.15 -4.90 -0.60 -7 1.50 -1.40 1.40 -1.65 2 -1.65 4.15 0 2.85 1.25 4.80 3.70 5.90 2.05 0.90 2.65 0.85 5.20 -0.30z"/>
  <path d="M52 29 c-2.10 -2.10 -1.85 -5.35 0.60 -7.15 1.90 -1.40 4.60 -0.85 5.90 1.30 1.40 2.20 1.25 3.70 -0.45 5.40 -1.80 1.75 -4.50 2 -6.05 0.45z"/>
  <path d="M20.80 32.85 c-0.80 -0.60 -0.85 -0.95 -0.35 -3.65 0.80 -4.40 3.15 -8.75 6.20 -11.50 3.65 -3.30 9.10 -5.80 12.75 -5.90 l2.85 -0.05 0.15 1.75 c0.10 0.95 0.05 5.85 -0.15 10.90 l-0.35 9.10 -10.10 0 c-7.50 0 -10.35 -0.15 -11 -0.65z m15.10 -3.35 c1.90 -1.15 3.60 -3.75 3.60 -5.50 0 -3.05 -3.40 -6.50 -6.40 -6.50 -1.85 0 -4.60 1.50 -5.30 2.95 -2.05 3.95 -1.10 7.50 2.40 9.10 2.60 1.20 3.65 1.20 5.70 -0.05z"/>
  <path d="M29.70 27.30 c-1.85 -1.85 -2.10 -3.10 -0.95 -5.30 1.50 -2.90 4.75 -3.35 7.35 -1.05 2.20 1.95 2.20 4.65 -0.05 6.65 -2.20 1.95 -4.20 1.85 -6.35 -0.30z"/>
  <path d="M17.60 17.20 c-2.60 -1.35 -3.60 -2.95 -3.60 -5.95 0 -2.90 1.05 -4.75 3.50 -6 4.45 -2.30 9.65 1.15 9.65 6.35 0 4.60 -5.35 7.75 -9.55 5.60z"/>
 </g>
</svg>
