<?xml version="1.0" encoding="utf-8"?>
<!DOCTYPE svg PUBLIC "-//W3C//DTD SVG 1.0//EN" "http://www.w3.org/TR/2001/REC-SVG-20010904/DTD/svg10.dtd">
<svg version="1.0" xmlns="http://www.w3.org/2000/svg" width="133px" height="151px" viewBox="0 0 133 151" preserveAspectRatio="xMidYMid meet">
 <g fill="#000000">
  <path d="M88 149.90 c-7 -0.70 -12.35 -3.35 -15.95 -7.90 -4.60 -5.85 -4.75 -10.80 -0.60 -21.75 5.15 -13.50 5.20 -13.80 5.50 -35.25 0.20 -10.30 0.25 -19.05 0.15 -19.35 -0.15 -0.35 -1 -0.65 -1.95 -0.65 -1.75 0 -1.80 0 -1.50 1.90 0.40 2.50 -1.05 5.80 -3.10 6.80 -0.80 0.45 -2.45 0.80 -3.60 0.80 -1.75 0 -2.35 -0.30 -4.05 -2 -1.95 -1.95 -2 -2.10 -1.80 -4.75 0.25 -3.15 0.15 -3.25 -3.85 -3.25 -1.60 0 -2.85 0.25 -3.20 0.65 -0.35 0.50 -0.60 6.55 -0.65 19.15 l-0.15 18.45 -12.80 0.15 -12.85 0.10 -0.30 1.55 c-0.15 0.90 -0.30 6.25 -0.30 11.95 l0 10.40 1.75 1.05 c2.75 1.60 3.85 3.75 3.60 7.15 -0.10 2.20 -0.45 3.20 -1.40 4.20 -3.30 3.55 -8.05 3.60 -11.30 0.10 -3.05 -3.35 -1.90 -9.50 2.20 -11.35 l1.50 -0.65 0.30 -7.55 c0.20 -4.10 0.35 -9.60 0.35 -12.10 l0 -4.60 -7.10 -0.30 c-3.95 -0.20 -9.15 -0.35 -11.55 -0.35 l-4.45 0 0.35 -33.10 c0.20 -18.25 0.45 -33.25 0.55 -33.35 0.10 -0.10 15.90 -0.05 44.95 0.15 l3.50 0.05 0.35 -2.50 c0.15 -1.35 0.35 -5.90 0.35 -10.05 l0.05 -7.60 -1.55 -0.60 c-3.35 -1.40 -5.40 -6.55 -3.95 -10 0.35 -0.80 1.40 -2.20 2.35 -3 1.50 -1.35 2.05 -1.50 4.90 -1.50 2.85 0 3.40 0.15 4.90 1.50 0.95 0.80 2 2.20 2.35 3 1.40 3.45 -0.60 8.60 -3.90 9.95 l-1.45 0.60 -0.35 9.80 c-0.20 5.35 -0.20 9.95 0.05 10.15 0.20 0.20 10.65 0.45 23.15 0.55 l22.75 0.20 0 -4.50 0 -4.50 -2.85 -0.15 c-3.05 -0.15 -3 -0.20 -6.05 3.35 -0.80 0.90 -1.65 1.45 -1.85 1.25 -0.60 -0.70 0.05 -14.70 0.70 -14.70 0.30 0 1.35 0.95 2.35 2.10 1.75 2.05 1.90 2.10 4.75 2.15 l2.95 0 0.15 -2.60 c0.20 -3.10 -0.70 -5.05 -3.15 -6.95 -1.90 -1.40 -2.20 -2.40 -0.95 -2.90 0.40 -0.15 3.45 -0.15 6.75 0.05 4.50 0.25 5.95 0.45 5.95 1 0 0.35 -0.25 0.65 -0.50 0.65 -0.30 0 -1.20 1.05 -2.05 2.35 -1.30 2.10 -1.45 2.80 -1.35 5.40 l0.15 3 2.80 0.15 c2.60 0.15 2.95 0 5.40 -1.90 1.40 -1.10 2.80 -1.90 3.05 -1.75 0.55 0.35 0.65 7.60 0.20 11.65 -0.40 3.25 -1.15 3.35 -3.20 0.35 l-1.55 -2.25 -3.50 0 -3.50 0 0.15 4.40 0.15 4.35 11 0.30 c6.05 0.20 12.10 0.35 13.40 0.40 l2.40 0.05 -0.30 35.40 c-0.20 19.45 -0.50 38.15 -0.75 41.60 -0.45 6.95 -1.45 10.50 -3.05 10.50 -1.10 0 -1.30 -0.80 -1.60 -6.25 -0.30 -4.95 -2.90 -15.45 -4.90 -19.65 -1 -2.05 -2 -3.35 -2.95 -3.85 -2.75 -1.45 -9.05 -0.60 -10.30 1.30 -0.25 0.40 -0.45 9.15 -0.45 19.45 0 18.40 0 18.80 -1.20 22.25 -0.65 1.95 -1.50 4.20 -1.90 5 -1 1.95 -3.55 4.65 -5.30 5.55 -1.95 1.05 -7 1.55 -11.35 1.10z m9.75 -3.20 c1.95 -0.90 3.85 -3.25 5.40 -6.60 1 -2.15 1.10 -2.95 0.90 -9.85 -0.15 -4.10 -0.25 -13.40 -0.25 -20.60 -0.05 -12.45 0 -13.15 1 -14.50 2.05 -2.85 9.35 -5.35 12.95 -4.45 2.15 0.55 4.90 3.50 7.15 7.75 1.20 2.25 2.35 4.05 2.60 4.05 0.40 0 1.20 -28.05 0.90 -33.50 l-0.15 -3.25 -11.50 -0.25 -11.50 -0.25 -0.15 -3.85 -0.15 -3.90 -5.65 0 c-6.50 0 -6.30 -0.15 -6.30 4.55 l0 2.90 -6.10 0.15 -6.15 0.15 -0.35 17.25 c-0.20 9.50 -0.60 18.60 -0.90 20.25 -0.35 1.65 -2 6.90 -3.75 11.75 -3.45 9.75 -4 12.65 -3.30 17.70 0.65 4.60 2.90 7.90 7.50 11.05 3.10 2.10 8.30 4.10 8.75 3.35 0.10 -0.20 0.35 -12.20 0.55 -26.65 0.35 -23.35 0.30 -26.35 -0.40 -26.60 -1.35 -0.50 -2.55 0.15 -3.95 2.20 -0.75 1.05 -1.60 1.95 -1.90 1.95 -0.30 0 -0.50 -2.40 -0.50 -6.30 0 -6.85 0.25 -7.35 2.40 -4.15 1.30 1.90 2.65 2.75 3.80 2.30 0.60 -0.25 0.80 -1.05 0.80 -3.15 0 -2.60 -0.15 -3 -2 -5.05 -1.15 -1.20 -1.90 -2.40 -1.75 -2.65 0.40 -0.65 10.25 -0.65 11.25 0 0.60 0.40 0.35 0.90 -1.60 2.70 -2.35 2.15 -2.40 2.25 -2.40 5.30 l0 3.05 1.85 -0.15 c1.55 -0.10 2.10 -0.50 3.30 -2.30 0.80 -1.15 1.65 -2 1.90 -1.85 0.25 0.20 0.45 3.25 0.45 6.80 0 5.85 -0.10 6.50 -0.85 6.35 -0.45 -0.10 -1.45 -1.15 -2.15 -2.40 -1.05 -1.80 -1.60 -2.30 -2.85 -2.40 l-1.50 -0.15 -0.30 6.40 c-0.25 4.90 -0.60 45.30 -0.40 47.30 0.10 0.65 3.60 0.35 5.30 -0.45z m-69.15 -8.65 c1.25 -1.10 1.60 -1.85 1.60 -3.25 0 -5 -6.30 -7.15 -9 -3 -1.40 2.10 -1.10 4.65 0.75 6.30 2.15 1.90 4.50 1.90 6.65 -0.05z m21.45 -52.05 c0.45 -20.45 0.50 -45.90 0.10 -46.15 -0.25 -0.15 -10.50 -0.30 -22.90 -0.40 l-22.50 -0.20 -0.15 14.55 -0.10 14.60 2.35 0.20 c1.35 0.15 4.90 0.20 7.90 0.20 l5.50 -0.05 0.15 -4.60 0.15 -4.60 -1.80 -2 c-1 -1.10 -2.55 -2.25 -3.50 -2.55 -2 -0.65 -2.85 -1.60 -2.45 -2.70 0.25 -0.70 1.50 -0.80 9.95 -0.80 5.30 0 10 0.15 10.45 0.30 1.45 0.55 0.85 1.65 -1.85 3.35 -4.80 3.10 -6.15 5.75 -5.75 11.35 l0.15 2.25 3.75 0.15 c5 0.15 6.35 -0.70 8.75 -5.40 1.30 -2.55 2.05 -3.50 2.75 -3.50 0.90 0 1 0.35 1 3.65 0 2.05 -0.15 7.10 -0.35 11.30 -0.30 7.20 -0.35 7.60 -1.30 7.45 -0.60 -0.10 -1.50 -1.15 -2.30 -2.60 -0.70 -1.35 -2 -3.20 -2.85 -4.15 -1.55 -1.60 -1.65 -1.65 -5.65 -1.65 l-4.05 0 0 5.65 0 5.65 3.30 3.30 c4.85 4.90 4.80 4.90 -6.90 4.55 -5.30 -0.15 -9.85 -0.45 -10.10 -0.70 -0.65 -0.60 0.55 -1.85 2.80 -3 1 -0.50 2.65 -1.65 3.60 -2.45 1.70 -1.50 1.70 -1.60 2.05 -6.75 0.30 -3.90 0.20 -5.45 -0.25 -6 -0.50 -0.60 -2.05 -0.75 -8.05 -0.75 -7.30 0 -7.45 0 -7.70 1.15 -0.15 0.60 -0.20 6.40 -0.15 12.85 l0.15 11.75 18.75 0.25 c10.30 0.15 20.55 0.30 22.75 0.25 l4 0 0.30 -13.75z m20.35 -15.30 c1.50 -1.70 1.40 -3.50 -0.35 -5.25 -1.70 -1.70 -3.40 -1.85 -5.20 -0.45 -1.55 1.25 -2.05 3.15 -1.25 4.90 1.35 2.80 4.65 3.20 6.80 0.80z m57.45 -8.60 c0.45 -0.25 0.60 -3.30 0.70 -10.75 0 -5.75 0 -10.45 -0.10 -10.55 -0.10 -0.10 -10.80 -0.30 -23.80 -0.45 l-23.55 -0.30 -0.35 6.10 c-0.15 3.35 -0.25 8.15 -0.15 10.60 l0.15 4.50 3.35 0.45 c1.85 0.20 3.95 0.25 4.65 0.10 1.20 -0.30 1.25 -0.50 1.25 -4.05 l0 -3.75 9.15 0.10 9.10 0.15 0.15 3.85 0.15 3.85 6.60 0.20 c3.65 0.05 7.85 0.20 9.35 0.25 1.50 0.05 3 -0.10 3.35 -0.30z m-57.50 -1.40 c1.05 -1.05 1.20 -1.60 0.95 -3.10 -0.65 -4.10 -5.75 -5.10 -7.60 -1.50 -2.25 4.30 3.20 8.05 6.65 4.60z m-9.25 -1.95 c-0.40 -7.80 9.20 -10 12.25 -2.80 0.45 1.10 0.60 2.35 0.40 3.65 l-0.35 1.95 1.95 -0.15 1.90 -0.15 0.15 -10.60 0.10 -10.55 -11.10 -0.20 c-6.15 -0.10 -11.45 -0.10 -11.75 0 -0.50 0.15 -0.65 2.70 -0.65 10.55 0 5.70 0.15 10.55 0.35 10.75 0.20 0.20 1.80 0.30 3.60 0.20 l3.25 -0.15 -0.10 -2.50z m-6.35 -45.95 c2 -0.85 2.75 -2.10 2.75 -4.55 0 -2.55 -2.20 -4.75 -4.75 -4.75 -4.85 0 -6.65 6.90 -2.35 9.20 1.70 0.95 2.25 0.95 4.35 0.10z"/>
  <path d="M96.20 138.05 c-1.50 -0.65 -3.20 -2.95 -3.20 -4.40 0 -5.30 7.45 -7.05 9.50 -2.20 1.60 3.90 -2.50 8.20 -6.30 6.60z"/>
  <path d="M76.45 136.55 c-1.05 -1.10 -1.45 -1.95 -1.45 -3.30 0 -2.55 2.20 -4.75 4.75 -4.75 2.50 0 3.70 0.75 4.55 2.85 2.10 4.95 -4 9 -7.85 5.20z"/>
 </g>
 <g fill="none">
  <path d="M0 75.50 l0 -75.50 66.50 0 66.50 0 0 75.50 0 75.50 -66.50 0 -66.50 0 0 -75.50z m99.35 73.30 c1.75 -0.90 4.30 -3.60 5.30 -5.55 0.40 -0.80 1.25 -3.05 1.90 -5 1.20 -3.45 1.20 -3.85 1.20 -22.25 0 -10.30 0.20 -19.05 0.45 -19.45 1.25 -1.90 7.55 -2.75 10.30 -1.30 0.95 0.50 1.95 1.80 2.95 3.85 2 4.20 4.60 14.70 4.90 19.65 0.30 5.45 0.50 6.25 1.60 6.25 1.60 0 2.60 -3.55 3.05 -10.50 0.25 -3.45 0.55 -22.15 0.75 -41.60 l0.30 -35.40 -2.40 -0.05 c-1.30 -0.05 -7.35 -0.20 -13.40 -0.40 l-11 -0.30 -0.15 -4.35 -0.15 -4.40 3.50 0 3.50 0 1.55 2.25 c2.05 3 2.80 2.90 3.20 -0.35 0.45 -4.05 0.35 -11.30 -0.20 -11.65 -0.25 -0.15 -1.65 0.65 -3.05 1.75 -2.45 1.90 -2.80 2.05 -5.40 1.90 l-2.80 -0.15 -0.15 -3 c-0.10 -2.60 0.05 -3.30 1.35 -5.40 0.85 -1.30 1.75 -2.35 2.05 -2.35 0.25 0 0.50 -0.30 0.50 -0.65 0 -0.55 -1.45 -0.75 -5.95 -1 -3.30 -0.20 -6.35 -0.20 -6.75 -0.05 -1.25 0.50 -0.95 1.50 0.95 2.90 2.45 1.90 3.35 3.85 3.15 6.95 l-0.15 2.60 -2.95 0 c-2.85 -0.05 -3 -0.10 -4.75 -2.15 -1 -1.15 -2.05 -2.10 -2.35 -2.10 -0.65 0 -1.30 14 -0.70 14.70 0.20 0.20 1.05 -0.35 1.85 -1.25 3.05 -3.55 3 -3.50 6.05 -3.35 l2.85 0.15 0 4.50 0 4.50 -22.75 -0.20 c-12.50 -0.10 -22.95 -0.35 -23.15 -0.55 -0.25 -0.20 -0.25 -4.80 -0.05 -10.15 l0.35 -9.80 1.45 -0.60 c3.30 -1.35 5.30 -6.50 3.90 -9.95 -0.35 -0.80 -1.40 -2.20 -2.35 -3 -1.50 -1.35 -2.05 -1.50 -4.90 -1.50 -2.85 0 -3.40 0.15 -4.90 1.50 -0.95 0.80 -2 2.20 -2.35 3 -1.45 3.45 0.60 8.60 3.95 10 l1.55 0.60 -0.05 7.60 c0 4.15 -0.20 8.70 -0.35 10.05 l-0.35 2.50 -3.50 -0.05 c-29.05 -0.20 -44.85 -0.25 -44.95 -0.15 -0.10 0.10 -0.35 15.10 -0.55 33.35 l-0.35 33.10 4.45 0 c2.40 0 7.60 0.15 11.55 0.35 l7.10 0.30 0 4.60 c0 2.50 -0.15 8 -0.35 12.10 l-0.30 7.55 -1.50 0.65 c-4.10 1.85 -5.25 8 -2.20 11.35 3.25 3.50 8 3.45 11.30 -0.10 0.95 -1 1.30 -2 1.40 -4.20 0.25 -3.40 -0.85 -5.55 -3.60 -7.15 l-1.75 -1.05 0 -10.40 c0 -5.70 0.15 -11.05 0.30 -11.95 l0.30 -1.55 12.85 -0.10 12.80 -0.15 0.15 -18.45 c0.05 -12.60 0.30 -18.65 0.65 -19.15 0.35 -0.40 1.60 -0.65 3.20 -0.65 4 0 4.10 0.10 3.85 3.25 -0.20 2.65 -0.15 2.80 1.80 4.75 1.70 1.70 2.30 2 4.05 2 1.15 0 2.80 -0.35 3.60 -0.80 2.05 -1 3.50 -4.30 3.10 -6.80 -0.30 -1.90 -0.25 -1.90 1.50 -1.90 0.95 0 1.80 0.30 1.95 0.65 0.10 0.30 0.05 9.05 -0.15 19.35 -0.30 21.45 -0.35 21.75 -5.50 35.25 -4.15 10.95 -4 15.90 0.60 21.75 2.35 3 5.25 5.05 9.20 6.45 5.45 1.95 14.70 2.15 18.10 0.35z"/>
  <path d="M92.45 147.15 c-0.20 -2 0.15 -42.40 0.40 -47.30 l0.30 -6.40 1.50 0.15 c1.25 0.10 1.80 0.60 2.85 2.40 0.70 1.25 1.70 2.30 2.15 2.40 0.75 0.15 0.85 -0.50 0.85 -6.35 0 -3.55 -0.20 -6.60 -0.45 -6.80 -0.25 -0.15 -1.10 0.70 -1.90 1.85 -1.20 1.80 -1.75 2.20 -3.30 2.30 l-1.85 0.15 0 -3.05 c0 -3.05 0.05 -3.15 2.40 -5.30 1.95 -1.80 2.20 -2.30 1.60 -2.70 -1 -0.65 -10.85 -0.65 -11.25 0 -0.15 0.25 0.60 1.45 1.75 2.65 1.85 2.05 2 2.45 2 5.05 0 2.10 -0.20 2.90 -0.80 3.15 -1.15 0.45 -2.50 -0.40 -3.80 -2.30 -2.15 -3.20 -2.40 -2.70 -2.40 4.15 0 3.90 0.20 6.30 0.50 6.30 0.30 0 1.15 -0.90 1.90 -1.95 1.40 -2.05 2.60 -2.70 3.95 -2.20 0.70 0.25 0.75 3.25 0.40 26.60 -0.20 14.45 -0.45 26.45 -0.55 26.65 -0.45 0.75 -5.65 -1.25 -8.75 -3.35 -4.60 -3.15 -6.85 -6.45 -7.50 -11.05 -0.70 -5.05 -0.15 -7.95 3.30 -17.70 1.75 -4.85 3.40 -10.10 3.75 -11.75 0.30 -1.65 0.70 -10.75 0.90 -20.25 l0.35 -17.25 6.15 -0.15 6.10 -0.15 0 -2.90 c0 -4.70 -0.20 -4.55 6.30 -4.55 l5.65 0 0.15 3.90 0.15 3.85 11.50 0.25 11.50 0.25 0.15 3.25 c0.30 5.45 -0.50 33.50 -0.90 33.50 -0.25 0 -1.40 -1.80 -2.60 -4.05 -2.25 -4.25 -5 -7.20 -7.15 -7.75 -3.60 -0.90 -10.90 1.60 -12.95 4.45 -1 1.35 -1.05 2.05 -1 14.50 0 7.20 0.10 16.50 0.25 20.60 0.20 6.90 0.10 7.70 -0.90 9.85 -1.55 3.35 -3.45 5.70 -5.40 6.60 -1.70 0.80 -5.20 1.10 -5.30 0.45z m8.90 -10.20 c2.30 -2.20 1.85 -6.30 -0.90 -7.70 -4.75 -2.50 -9.65 2.85 -6.40 6.95 2 2.55 5.05 2.80 7.30 0.75z m-18.60 0.25 c1.80 -1.15 2.45 -3.70 1.55 -5.85 -1.35 -3.25 -5.30 -3.95 -7.85 -1.40 -4.10 4.10 1.40 10.45 6.30 7.25z"/>
  <path d="M21.95 138.10 c-1.85 -1.65 -2.15 -4.20 -0.75 -6.30 2.70 -4.15 9 -2 9 3 0 1.40 -0.35 2.15 -1.60 3.25 -2.15 1.95 -4.50 1.95 -6.65 0.05z"/>
  <path d="M23 99.50 l-18.75 -0.25 -0.15 -11.75 c-0.05 -6.45 0 -12.25 0.15 -12.85 0.25 -1.15 0.40 -1.15 7.70 -1.15 6 0 7.55 0.15 8.05 0.75 0.45 0.55 0.55 2.10 0.25 6 -0.35 5.15 -0.35 5.25 -2.05 6.75 -0.95 0.80 -2.60 1.95 -3.60 2.45 -2.25 1.15 -3.45 2.40 -2.80 3 0.25 0.25 4.80 0.55 10.10 0.70 11.70 0.35 11.75 0.35 6.90 -4.55 l-3.30 -3.30 0 -5.65 0 -5.65 4.05 0 c4 0 4.10 0.05 5.65 1.65 0.85 0.95 2.15 2.80 2.85 4.15 0.80 1.45 1.70 2.50 2.30 2.60 0.95 0.15 1 -0.25 1.30 -7.45 0.20 -4.20 0.35 -9.25 0.35 -11.30 0 -3.30 -0.10 -3.65 -1 -3.65 -0.70 0 -1.45 0.95 -2.75 3.50 -2.40 4.70 -3.75 5.55 -8.75 5.40 l-3.75 -0.15 -0.15 -2.25 c-0.40 -5.60 0.95 -8.25 5.75 -11.35 2.70 -1.70 3.30 -2.80 1.85 -3.35 -0.45 -0.15 -5.15 -0.30 -10.45 -0.30 -8.45 0 -9.70 0.10 -9.95 0.80 -0.40 1.10 0.45 2.05 2.45 2.70 0.95 0.30 2.50 1.45 3.50 2.55 l1.80 2 -0.15 4.60 -0.15 4.60 -5.50 0.05 c-3 0 -6.55 -0.05 -7.90 -0.20 l-2.35 -0.20 0.10 -14.60 0.15 -14.55 22.50 0.20 c12.40 0.10 22.65 0.25 22.90 0.40 0.40 0.25 0.35 25.70 -0.10 46.15 l-0.30 13.75 -4 0 c-2.20 0.05 -12.45 -0.10 -22.75 -0.25z"/>
  <path d="M65.50 71.85 c-2.70 -1.40 -3.05 -4.95 -0.65 -6.85 1.80 -1.40 3.50 -1.25 5.20 0.45 1.75 1.75 1.85 3.55 0.35 5.25 -1.40 1.55 -3.25 2 -4.90 1.15z"/>
  <path d="M115.15 62.15 l-6.60 -0.20 -0.15 -3.85 -0.15 -3.85 -9.10 -0.15 -9.15 -0.10 0 3.75 c0 3.55 -0.05 3.75 -1.25 4.05 -0.70 0.15 -2.80 0.10 -4.65 -0.10 l-3.35 -0.45 -0.15 -4.50 c-0.10 -2.45 0 -7.25 0.15 -10.60 l0.35 -6.10 23.55 0.30 c13 0.15 23.70 0.35 23.80 0.45 0.10 0.10 0.10 4.80 0.10 10.55 -0.10 7.45 -0.25 10.50 -0.70 10.75 -0.35 0.20 -1.85 0.35 -3.35 0.30 -1.50 -0.05 -5.70 -0.20 -9.35 -0.25z"/>
  <path d="M64.65 61.25 c-1.45 -1.05 -1.90 -3.30 -0.95 -5.15 1.85 -3.60 6.95 -2.60 7.60 1.50 0.25 1.50 0.10 2.05 -0.95 3.10 -1.50 1.50 -4 1.75 -5.70 0.55z"/>
  <path d="M54.35 61.20 c-0.20 -0.20 -0.35 -5.05 -0.35 -10.75 0 -7.85 0.15 -10.40 0.65 -10.55 0.30 -0.10 5.60 -0.10 11.75 0 l11.10 0.20 -0.10 10.55 -0.15 10.60 -1.90 0.15 -1.95 0.15 0.35 -1.95 c0.90 -5.30 -4.60 -9.75 -9.20 -7.40 -2.40 1.25 -3.60 3.55 -3.45 6.55 l0.10 2.50 -3.25 0.15 c-1.80 0.10 -3.40 0 -3.60 -0.20z"/>
  <path d="M50.40 12.70 c-4.30 -2.30 -2.50 -9.20 2.35 -9.20 2.55 0 4.75 2.20 4.75 4.75 0 2.45 -0.75 3.70 -2.75 4.55 -2.10 0.85 -2.65 0.85 -4.35 -0.10z"/>
 </g>
</svg>
