<?xml version="1.0" encoding="utf-8"?>
<!DOCTYPE svg PUBLIC "-//W3C//DTD SVG 1.0//EN" "http://www.w3.org/TR/2001/REC-SVG-20010904/DTD/svg10.dtd">
<svg version="1.0" xmlns="http://www.w3.org/2000/svg" width="162px" height="134px" viewBox="0 0 162 134" preserveAspectRatio="xMidYMid meet">
 <g fill="#000000">
  <path d="M72 131.75 c0 -0.45 0.45 -0.75 1.20 -0.75 0.65 0 1.75 -0.45 2.50 -1.05 1.10 -0.90 1.30 -1.40 1.30 -3.75 0 -3.20 -0.55 -3.65 -3.55 -2.75 -1.95 0.60 -3.45 2.45 -3.45 4.30 0 0.45 -0.30 0.75 -0.60 0.65 -0.65 -0.25 -0.70 -0.70 -0.50 -9.95 0.05 -3.65 0.25 -5 0.70 -4.85 0.35 0.15 0.80 1 1.05 1.95 0.55 2.25 2.05 3.45 4.35 3.45 l1.90 0 0.20 -3.35 c0.15 -1.90 0.15 -3.65 0.05 -3.95 -0.15 -0.40 -3.20 -0.65 -9.55 -0.80 -5.15 -0.10 -9.65 -0.35 -10 -0.60 -0.55 -0.30 -0.60 -2.60 -0.30 -11.45 0.40 -12.60 1 -11.50 -4.75 -9.10 -1.75 0.75 -4.45 1.45 -6 1.60 -1.55 0.15 -2.95 0.55 -3.15 0.85 -0.20 0.30 -0.40 3.65 -0.40 7.45 l0 6.90 1.70 1 c1.75 1.05 3.80 4.40 3.80 6.25 0 0.50 -0.45 1.90 -1 3.05 -2.95 6.60 -12.65 5.10 -13.75 -2.15 -0.40 -2.70 1.35 -6.05 3.90 -7.35 l1.90 -0.95 -0.15 -7.55 -0.15 -7.55 -2.45 -0.60 c-6.05 -1.55 -12.50 -6.20 -16.10 -11.65 l-1.45 -2.25 -0.35 2.75 c-0.15 1.50 -0.30 4.55 -0.35 6.85 l-0.05 4.10 1.80 0 c2.40 0 3.55 -0.70 4.45 -2.75 1.30 -3.25 1.75 -2.05 1.75 4.80 0 5.85 -0.10 6.50 -0.85 6.35 -0.45 -0.10 -1 -0.80 -1.20 -1.55 -0.50 -1.90 -1.80 -2.80 -4.05 -2.85 -1.80 0 -1.90 0.10 -1.90 1.55 0 2.15 0.85 3.45 2.80 4.25 1.70 0.70 2.10 1.40 1.20 1.95 -0.90 0.55 -12.50 -0.35 -12.50 -1 0 -0.30 0.85 -0.80 1.90 -1.05 1.60 -0.40 1.95 -0.75 2.60 -2.55 0.65 -1.95 0.65 -2.25 -0.10 -2.95 -0.70 -0.70 -1.05 -0.70 -2.65 -0.20 -1.50 0.50 -2.05 1.05 -2.65 2.55 -0.40 1.10 -1 1.90 -1.30 1.80 -0.70 -0.25 -1 -11.80 -0.35 -12.80 0.55 -0.90 1.55 -0.25 1.55 1 0 1.65 2.20 3.45 4.25 3.45 l1.75 0 0 -9.50 0 -9.45 -1.50 -0.80 c-4.70 -2.45 -4.65 -10.10 0.10 -12.55 2.25 -1.20 5.60 -1.10 7.25 0.10 3.60 2.70 4.45 6.10 2.45 9.85 l-1.30 2.45 1.55 3.15 c4.30 8.70 12.85 14.10 21.80 13.70 10.30 -0.50 19.15 -8.80 21.50 -20.20 1.25 -6.05 1.65 -5.80 -7.95 -5.65 l-8.15 0.15 -0.15 4.15 -0.15 4.10 -5.85 0 c-3.20 0 -8.70 -0.15 -12.20 -0.35 l-6.40 -0.30 0 -4.80 -0.05 -4.80 -7.85 -8.15 c-4.30 -4.50 -8 -8.15 -8.20 -8.10 -0.75 0 -0.40 3.85 0.35 4.50 0.40 0.35 0.75 0.95 0.75 1.35 0 0.60 -0.90 0.70 -5.20 0.55 -2.85 -0.05 -5.40 -0.30 -5.60 -0.55 -0.20 -0.20 0.10 -0.85 0.70 -1.50 0.95 -1 1.05 -1.70 1.15 -9.95 0.10 -7.70 0 -9 -0.70 -9.80 -0.50 -0.50 -0.85 -1.10 -0.85 -1.25 0 -0.55 10.40 -0.40 10.75 0.10 0.15 0.25 0 0.65 -0.25 0.80 -0.85 0.50 -1.55 2.75 -1.15 3.50 0.30 0.50 3.05 -1.90 9.80 -8.35 l9.35 -9 0 -5.80 c0 -3.25 0.15 -6.40 0.35 -7.05 l0.30 -1.20 6.95 0.30 c3.85 0.20 7.15 0.45 7.45 0.60 0.25 0.20 0.45 3 0.45 6.30 l0 5.95 3.95 0 c3.15 0 4 -0.15 4.25 -0.80 0.15 -0.45 0.30 -3.15 0.30 -6 l0 -5.20 7.80 0 7.80 0 -0.15 5.65 -0.20 5.60 3 0 3 0 0.25 -5.50 0.25 -5.50 6.75 0 6.75 0 -0.20 5.65 -0.15 5.60 3.30 0 3.30 0 0 -5.50 0 -5.55 7.65 0.15 7.60 0.15 -0.20 6.15 -0.20 6.10 4.35 0 4.30 0 0 -5.95 c0 -3.70 0.20 -6.10 0.55 -6.30 0.30 -0.20 3.75 -0.20 7.75 0 l7.20 0.35 0 6.85 0.05 6.80 8.85 9.15 c4.85 5.05 9 9.15 9.25 9.10 0.65 0 0.35 -2.85 -0.40 -3.50 -1.50 -1.25 -0.65 -1.50 4.50 -1.50 4.15 0 5.25 0.15 5.25 0.70 0 0.35 -0.35 0.95 -0.75 1.30 -0.60 0.50 -0.75 2.25 -0.75 9.75 0 7.50 0.15 9.25 0.75 9.75 0.40 0.35 0.75 0.95 0.75 1.40 0 0.65 -0.75 0.70 -5.30 0.45 -2.90 -0.10 -5.40 -0.35 -5.55 -0.50 -0.15 -0.15 0.20 -0.90 0.80 -1.65 1.10 -1.40 1.45 -4.20 0.50 -4.20 -0.30 0 -4.20 3.55 -8.75 7.85 l-8.20 7.90 0 4.25 c0 2.35 -0.20 4.55 -0.45 4.95 -0.35 0.55 -2.55 0.60 -12.25 0.30 l-11.80 -0.40 0 -4.10 0 -4.15 -6.60 -0.35 c-3.65 -0.20 -7.30 -0.25 -8.15 -0.15 -1.45 0.15 -1.50 0.20 -1.35 2.65 0.10 1.40 0.70 4.15 1.40 6.20 4.90 14.65 20 21.15 32.85 14.20 3.05 -1.70 7.20 -6.10 9.10 -9.75 l1.45 -2.80 -1.10 -2.25 c-1.35 -2.75 -1.40 -5.10 -0.10 -7.25 1.50 -2.50 3.80 -3.70 6.55 -3.45 3.05 0.25 5.15 1.80 6.20 4.55 1.35 3.60 -0.25 7.25 -4.10 9.25 -1.15 0.55 -1.15 0.75 -1.15 9.80 l0 9.25 1.20 0.30 c1.90 0.45 3.95 -0.80 4.60 -2.80 0.60 -1.80 1.55 -2.50 1.95 -1.40 0.15 0.35 0.10 3.35 -0.10 6.65 -0.40 5.90 -1 7.35 -1.80 4.25 -0.45 -1.85 -2.10 -3 -4.20 -3 -1.55 0 -1.65 0.10 -1.65 1.80 0 2.45 0.70 3.50 2.75 4.20 4.30 1.40 -0.35 2.40 -7.75 1.65 -3.90 -0.40 -4.50 -1 -1.85 -1.90 2.05 -0.70 3.55 -2.80 3.15 -4.45 -0.25 -1.10 -0.60 -1.30 -2.10 -1.30 -2.45 0 -3.50 0.70 -4.20 2.75 -0.55 1.70 -1.45 2.35 -1.55 1.15 0 -0.35 0 -3.30 0.05 -6.50 0.05 -3.25 0 -5.90 -0.10 -5.90 -0.10 0 -1.95 0.90 -4.15 2 -2.20 1.10 -4.75 2.15 -5.75 2.30 -3.60 0.65 -3.50 0.45 -3.50 8.45 l0 7.20 1.50 0.80 c2.75 1.45 4.25 5 3.40 8.10 -2.20 8.20 -13.90 6.65 -13.90 -1.85 0 -2.75 1.10 -4.75 3.50 -6.25 l2 -1.25 0 -7 c0 -5.20 -0.15 -7.10 -0.60 -7.20 -0.35 -0.10 -2.10 -0.45 -3.85 -0.75 -1.75 -0.35 -4.40 -1.15 -5.90 -1.85 -1.55 -0.65 -2.95 -1.20 -3.20 -1.20 -0.25 0 -0.45 3.90 -0.50 8.65 0 4.70 -0.20 9.60 -0.35 10.85 l-0.35 2.25 -10 0 -10 0 -0.15 3.90 -0.15 3.85 2.45 0 c2.75 0 3.80 -0.80 4.40 -3.25 0.50 -2.10 0.70 -2.35 1.35 -1.80 0.40 0.30 0.55 2.65 0.45 7.75 -0.10 5.95 -0.30 7.30 -0.90 7.30 -0.35 0 -0.70 -0.45 -0.70 -1 0 -3.15 -2.50 -4.90 -6.35 -4.55 -0.85 0.05 -0.85 4.05 -0.10 5.75 0.35 0.80 1.30 1.50 2.40 1.85 3.65 1.15 2.70 1.45 -4.85 1.45 -6.40 0 -7.60 -0.10 -7.60 -0.75z m48.60 -14.25 c1.20 -1.25 1.45 -1.80 1.15 -2.90 -0.45 -1.95 -1.95 -3.25 -3.75 -3.25 -3.45 0 -4.95 4.20 -2.30 6.50 1.80 1.55 3.05 1.45 4.90 -0.35z m-77.85 -0.30 c0.40 -0.20 1.10 -0.95 1.50 -1.75 0.85 -1.60 0.35 -3.65 -1.15 -4.75 -2.75 -2.10 -6.85 1.25 -5.60 4.55 0.70 1.90 3.05 2.75 5.25 1.95z m55.50 -9.65 c0.15 -0.30 0.40 -5.20 0.60 -10.95 l0.30 -10.45 -2 -2.20 c-5.20 -5.65 -7.80 -12.40 -7.85 -20.20 l-0.05 -5 11.85 0 c6.50 0 12 0.15 12.20 0.40 0.20 0.20 0.40 2.10 0.40 4.25 l0.05 3.85 7.90 0.25 c4.35 0.15 8.25 0.05 8.65 -0.15 0.50 -0.30 0.70 -1.40 0.70 -4.05 l0 -3.70 10 -9.75 c5.50 -5.40 10 -9.95 10 -10.10 0 -0.20 -4.85 -5.30 -10.80 -11.40 l-10.80 -11.10 0.30 -5.90 0.35 -5.85 -2.55 -0.10 c-1.35 -0.05 -3.25 -0.10 -4.10 -0.10 l-1.65 -0.05 -0.25 5.75 -0.25 5.75 -4 0.15 c-2.20 0.10 -5.65 0 -7.60 -0.15 l-3.65 -0.35 0 -5.70 0 -5.70 -4 0 -4 0 0 4.65 c0 7.40 0.50 6.90 -6.95 6.75 l-6.30 -0.15 -0.15 -5.85 -0.15 -5.90 -2.90 0 c-2.20 0 -3 0.20 -3.25 0.80 -0.15 0.45 -0.30 3 -0.30 5.75 0 3.60 -0.15 4.95 -0.60 5 -1.90 0.15 -12.20 -0.15 -12.50 -0.35 -0.25 -0.15 -0.40 -2.70 -0.40 -5.70 0 -6.30 0.10 -6.20 -5.05 -5.90 l-2.70 0.15 -0.15 5.20 c-0.05 2.90 -0.40 5.55 -0.70 5.90 -0.60 0.70 -6.50 0.90 -11.85 0.35 l-3.05 -0.35 0 -5.65 0 -5.70 -2.35 0 c-1.35 0 -2.85 -0.15 -3.40 -0.25 -2.05 -0.55 -2.40 0.35 -2.60 6.35 l-0.15 5.65 -11 10.75 c-6.05 5.90 -11 10.95 -11 11.15 0 0.20 4.40 4.95 9.80 10.50 l9.80 10.10 -0.20 3.75 -0.15 3.75 7.95 0.40 c4.35 0.25 8.20 0.30 8.60 0.15 0.50 -0.20 0.70 -1.30 0.70 -4.30 0 -2.85 0.20 -4 0.65 -4.05 5.30 -0.20 23.20 0.20 23.60 0.60 0.65 0.65 0.35 6.85 -0.55 10.30 -1.10 4.35 -3.80 9.50 -6.90 13.15 l-2.80 3.25 0.15 11 0.10 11 8 0 8 0 0.15 -5.85 0.15 -5.90 -1.90 0 c-2.55 0 -4 1.10 -4.65 3.50 -0.30 1.20 -0.85 2 -1.30 2 -0.60 0 -0.70 -1.15 -0.60 -7.60 0.10 -5.50 0.30 -7.60 0.75 -7.80 0.65 -0.20 0.85 0.15 1.35 2.55 0.50 2.15 2 3.35 4.30 3.35 l2 0 0 -2.70 c0 -3.70 -0.30 -4.25 -2.80 -5.35 -3.85 -1.60 -2.80 -2 5.15 -1.85 6.35 0.15 7.40 0.25 7.55 0.95 0.10 0.55 -0.35 0.90 -1.50 1.15 -2.75 0.55 -3.90 2.05 -3.90 5.15 l0 2.65 2.15 0 c2.60 0 4.35 -1.25 4.80 -3.50 0.15 -0.90 0.60 -1.75 0.95 -1.90 0.45 -0.15 0.60 1.65 0.60 7.40 0 6.90 -0.10 7.55 -0.85 7.40 -0.50 -0.10 -1 -0.85 -1.20 -1.90 -0.50 -2.25 -2.05 -3.50 -4.45 -3.50 l-1.95 0 -0.15 5.40 c-0.10 2.95 -0.10 5.60 0 5.95 0.20 0.60 2.85 0.85 11.45 1.05 2.50 0.05 4.70 -0.10 4.90 -0.35z m43.10 -22.05 l0.15 -6.75 -1.65 2 c-0.85 1.10 -2.55 3.05 -3.75 4.35 -1.20 1.25 -1.95 2.45 -1.70 2.60 0.30 0.15 0.65 0.90 0.85 1.65 0.55 2.35 1.70 3.20 3.95 3.05 l2.05 -0.15 0.10 -6.75z m4.90 -16.25 c2.15 -2.10 1.40 -5.15 -1.40 -6.20 -3.85 -1.50 -6.75 3.85 -3.55 6.40 1.75 1.40 3.45 1.30 4.95 -0.20z m-126.50 -2 c0.80 -0.75 1.25 -1.80 1.25 -2.75 0 -1.90 -1.95 -4 -3.65 -4 -2.10 0 -3.85 1.80 -3.85 4 0 3.55 3.80 5.20 6.25 2.75z"/>
 </g>
 <g fill="none">
  <path d="M0 91.85 l0 -42.10 5.50 0.15 c4.60 0.20 5.50 0.10 5.50 -0.55 0 -0.40 -0.35 -1 -0.75 -1.35 -0.75 -0.65 -1.10 -4.50 -0.35 -4.50 0.20 -0.05 3.90 3.60 8.20 8.10 l7.85 8.15 0.05 4.80 0 4.80 6.40 0.30 c3.50 0.20 9 0.35 12.20 0.35 l5.85 0 0.15 -4.10 0.15 -4.15 8.15 -0.15 c9.60 -0.15 9.20 -0.40 7.95 5.65 -2.35 11.40 -11.20 19.70 -21.50 20.20 -8.95 0.40 -17.50 -5 -21.80 -13.70 l-1.55 -3.15 1.30 -2.45 c2 -3.75 1.15 -7.15 -2.45 -9.85 -1.65 -1.20 -5 -1.30 -7.25 -0.10 -4.75 2.45 -4.80 10.10 -0.10 12.55 l1.50 0.80 0 9.45 0 9.50 -1.75 0 c-2.05 0 -4.25 -1.80 -4.25 -3.45 0 -1.25 -1 -1.90 -1.55 -1 -0.65 1 -0.35 12.55 0.35 12.80 0.30 0.10 0.90 -0.70 1.30 -1.80 0.60 -1.50 1.15 -2.05 2.65 -2.55 1.60 -0.50 1.95 -0.50 2.65 0.20 0.75 0.70 0.75 1 0.10 2.95 -0.65 1.80 -1 2.15 -2.60 2.55 -1.05 0.25 -1.90 0.75 -1.90 1.05 0 0.65 11.60 1.55 12.50 1 0.90 -0.55 0.50 -1.25 -1.20 -1.95 -1.95 -0.80 -2.80 -2.10 -2.80 -4.25 0 -1.45 0.10 -1.55 1.90 -1.55 2.25 0.05 3.55 0.95 4.05 2.85 0.20 0.75 0.75 1.45 1.20 1.55 0.75 0.15 0.85 -0.50 0.85 -6.35 0 -6.85 -0.45 -8.05 -1.75 -4.80 -0.90 2.05 -2.05 2.75 -4.45 2.75 l-1.80 0 0.05 -4.10 c0.05 -2.30 0.20 -5.35 0.35 -6.85 l0.35 -2.75 1.45 2.25 c3.60 5.45 10.05 10.10 16.10 11.65 l2.45 0.60 0.15 7.55 0.15 7.55 -1.90 0.95 c-3.85 1.95 -5.10 7.20 -2.60 10.75 2.10 2.95 6.65 3.85 9.85 1.90 1.65 -1 3.55 -4.35 3.60 -6.20 0 -1.85 -2.05 -5.20 -3.80 -6.25 l-1.70 -1 0 -6.90 c0 -3.80 0.20 -7.15 0.40 -7.45 0.20 -0.30 1.60 -0.70 3.15 -0.85 1.55 -0.15 4.25 -0.85 6 -1.60 5.75 -2.40 5.15 -3.50 4.75 9.10 -0.30 8.85 -0.25 11.15 0.30 11.45 0.35 0.25 4.85 0.50 10 0.60 6.35 0.15 9.40 0.40 9.55 0.80 0.10 0.30 0.10 2.05 -0.05 3.95 l-0.20 3.35 -1.90 0 c-2.30 0 -3.80 -1.20 -4.35 -3.45 -0.25 -0.95 -0.70 -1.80 -1.05 -1.95 -0.45 -0.15 -0.65 1.20 -0.70 4.85 -0.20 9.25 -0.15 9.70 0.50 9.95 0.30 0.10 0.60 -0.20 0.60 -0.65 0 -1.85 1.50 -3.70 3.45 -4.30 3 -0.90 3.55 -0.45 3.55 2.75 0 2.35 -0.20 2.85 -1.30 3.75 -0.75 0.60 -1.85 1.05 -2.50 1.05 -0.75 0 -1.20 0.30 -1.20 0.75 0 0.65 1.20 0.75 7.60 0.75 7.55 0 8.50 -0.30 4.85 -1.45 -1.10 -0.35 -2.05 -1.05 -2.40 -1.85 -0.75 -1.70 -0.75 -5.70 0.10 -5.75 0.90 -0.10 2.45 0.05 3.70 0.30 1.20 0.30 2.65 2.55 2.65 4.25 0 0.55 0.35 1 0.70 1 0.60 0 0.80 -1.35 0.90 -7.30 0.10 -5.10 -0.05 -7.45 -0.45 -7.75 -0.65 -0.55 -0.85 -0.30 -1.35 1.80 -0.60 2.45 -1.65 3.25 -4.40 3.25 l-2.45 0 0.15 -3.85 0.15 -3.90 10 0 10 0 0.35 -2.25 c0.15 -1.25 0.35 -6.15 0.35 -10.85 0.05 -4.75 0.25 -8.65 0.50 -8.65 0.25 0 1.65 0.55 3.20 1.20 1.50 0.70 4.15 1.50 5.90 1.85 1.75 0.30 3.50 0.65 3.85 0.75 0.45 0.10 0.60 2 0.60 7.20 l0 7 -2 1.25 c-7.10 4.45 -2.65 15.45 5.40 13.30 6.05 -1.65 7.15 -10.45 1.60 -13.30 l-1.50 -0.80 0 -7.20 c0 -8 -0.10 -7.80 3.50 -8.45 1 -0.15 3.55 -1.20 5.75 -2.30 2.20 -1.10 4.05 -2 4.15 -2 0.10 0 0.15 2.65 0.10 5.90 -0.05 3.20 -0.05 6.15 -0.05 6.50 0.10 1.20 1 0.55 1.55 -1.15 0.70 -2.05 1.75 -2.75 4.20 -2.75 1.50 0 1.85 0.20 2.10 1.30 0.45 1.70 -1.10 3.75 -3.35 4.50 -0.95 0.35 -1.65 0.80 -1.60 1 0.05 0.25 1.75 0.60 3.75 0.85 7.25 0.75 11.95 -0.25 7.65 -1.65 -2.05 -0.70 -2.75 -1.75 -2.75 -4.20 0 -1.70 0.10 -1.80 1.65 -1.80 2.10 0 3.75 1.15 4.20 3.05 0.25 0.85 0.65 1.50 0.90 1.50 0.55 -0.05 1.45 -11.35 1 -12.45 -0.40 -1.10 -1.35 -0.40 -1.95 1.40 -0.65 2 -2.70 3.25 -4.60 2.80 l-1.20 -0.30 0 -9.25 c0 -9.05 0 -9.25 1.15 -9.80 3.85 -2 5.45 -5.65 4.10 -9.25 -2.15 -5.65 -9.60 -6.25 -12.75 -1.10 -1.30 2.15 -1.25 4.50 0.10 7.25 l1.10 2.25 -1.45 2.80 c-8.30 15.80 -29.05 16.85 -38.95 1.95 -2.10 -3.20 -4.15 -9.10 -4.40 -12.60 -0.15 -2.45 -0.10 -2.50 1.35 -2.65 0.85 -0.10 4.50 -0.05 8.15 0.15 l6.60 0.35 0 4.15 0 4.10 11.80 0.40 c9.70 0.30 11.90 0.25 12.25 -0.30 0.25 -0.40 0.45 -2.60 0.45 -4.95 l0 -4.25 8.20 -7.85 c4.55 -4.35 8.45 -7.90 8.75 -7.90 0.95 0 0.60 2.80 -0.50 4.20 -0.60 0.75 -0.95 1.50 -0.80 1.65 0.15 0.15 2.65 0.40 5.55 0.50 4.55 0.25 5.30 0.20 5.30 -0.45 0 -0.45 -0.35 -1.05 -0.75 -1.40 -0.60 -0.50 -0.75 -2.25 -0.75 -9.75 0 -7.50 0.15 -9.25 0.75 -9.75 0.40 -0.35 0.75 -0.95 0.75 -1.30 0 -0.55 -1.10 -0.70 -5.25 -0.70 -5.15 0 -6 0.25 -4.50 1.50 0.75 0.65 1.05 3.50 0.40 3.50 -0.25 0.05 -4.40 -4.05 -9.25 -9.10 l-8.85 -9.15 -0.05 -6.80 0 -6.85 -7.20 -0.35 c-4 -0.20 -7.45 -0.20 -7.75 0 -0.35 0.20 -0.55 2.60 -0.55 6.30 l0 5.95 -4.30 0 -4.35 0 0.20 -6.10 0.20 -6.15 -7.60 -0.15 -7.65 -0.15 0 5.55 0 5.50 -3.30 0 -3.30 0 0.15 -5.60 0.20 -5.65 -6.75 0 -6.75 0 -0.25 5.50 -0.25 5.50 -3 0 -3 0 0.20 -5.60 0.15 -5.65 -7.80 0 -7.80 0 0 5.20 c0 2.85 -0.15 5.55 -0.30 6 -0.25 0.65 -1.10 0.80 -4.25 0.80 l-3.90 0 -0.15 -6.10 -0.15 -6.15 -2.50 -0.30 c-1.35 -0.15 25.10 -0.35 58.90 -0.35 l61.35 -0.10 0 67 0 67 -81 0 -81 0 0 -42.15z"/>
  <path d="M115.70 117.85 c-2.65 -2.30 -1.15 -6.50 2.30 -6.50 1.80 0 3.30 1.30 3.75 3.25 0.30 1.10 0.05 1.65 -1.15 2.90 -1.85 1.80 -3.10 1.90 -4.90 0.35z"/>
  <path d="M38.85 116.95 c-2.25 -1.30 -1.95 -5.30 0.45 -6.40 2.40 -1.10 4.25 -0.35 5.20 2.15 1.20 3.20 -2.55 6.05 -5.65 4.25z"/>
  <path d="M85.40 107.65 c-2 -0.15 -3.40 -0.45 -3.50 -0.80 -0.10 -0.35 -0.10 -3 0 -5.95 l0.15 -5.40 1.95 0 c2.40 0 3.95 1.25 4.45 3.50 0.20 1.05 0.70 1.80 1.20 1.90 0.75 0.15 0.85 -0.50 0.85 -7.40 0 -5.75 -0.15 -7.55 -0.60 -7.40 -0.35 0.15 -0.80 1 -0.95 1.90 -0.45 2.25 -2.20 3.50 -4.80 3.50 l-2.15 0 0 -2.65 c0 -3.10 1.15 -4.60 3.90 -5.15 1.15 -0.25 1.60 -0.60 1.50 -1.15 -0.15 -0.70 -1.20 -0.80 -7.55 -0.95 -7.95 -0.15 -9 0.25 -5.15 1.85 2.50 1.10 2.80 1.65 2.80 5.35 l0 2.70 -2 0 c-2.30 0 -3.80 -1.20 -4.30 -3.35 -0.50 -2.40 -0.70 -2.75 -1.35 -2.55 -0.45 0.20 -0.65 2.30 -0.75 7.80 -0.10 6.45 0 7.60 0.60 7.60 0.45 0 1 -0.80 1.30 -2 0.65 -2.40 2.10 -3.50 4.65 -3.50 l1.90 0 -0.15 5.90 -0.15 5.85 -8 0 -8 0 -0.10 -11 -0.15 -11 2.80 -3.25 c3.10 -3.65 5.80 -8.80 6.90 -13.15 0.90 -3.45 1.20 -9.65 0.55 -10.30 -0.40 -0.40 -18.30 -0.80 -23.60 -0.60 -0.45 0.05 -0.65 1.20 -0.65 4.05 0 3 -0.20 4.10 -0.70 4.30 -0.40 0.15 -4.25 0.10 -8.60 -0.15 l-7.95 -0.40 0.15 -3.75 0.20 -3.75 -9.80 -10.10 c-5.40 -5.55 -9.80 -10.30 -9.80 -10.50 0 -0.20 4.95 -5.25 11 -11.15 l11 -10.75 0.15 -5.65 c0.20 -6 0.55 -6.90 2.60 -6.35 0.55 0.10 2.05 0.25 3.40 0.25 l2.35 0 0 5.70 0 5.65 3.05 0.35 c5.35 0.55 11.25 0.35 11.85 -0.35 0.30 -0.35 0.65 -3 0.70 -5.90 l0.15 -5.20 2.70 -0.15 c5.15 -0.30 5.05 -0.40 5.05 5.90 0 3 0.15 5.55 0.40 5.70 0.30 0.20 10.60 0.50 12.50 0.35 0.45 -0.05 0.60 -1.40 0.60 -5 0 -2.75 0.15 -5.30 0.30 -5.75 0.25 -0.60 1.05 -0.80 3.25 -0.80 l2.90 0 0.15 5.90 0.15 5.85 6.30 0.15 c7.45 0.15 6.95 0.65 6.95 -6.75 l0 -4.65 4 0 4 0 0 5.70 0 5.70 3.65 0.35 c1.95 0.15 5.40 0.25 7.60 0.15 l4 -0.15 0.25 -5.75 0.25 -5.75 1.65 0.05 c0.85 0 2.75 0.05 4.10 0.10 l2.55 0.10 -0.35 5.85 -0.30 5.90 10.80 11.10 c5.95 6.10 10.80 11.20 10.80 11.40 0 0.15 -4.50 4.70 -10 10.10 l-10 9.75 0 3.70 c0 2.65 -0.20 3.75 -0.70 4.05 -0.40 0.20 -4.30 0.30 -8.65 0.15 l-7.90 -0.25 -0.05 -3.85 c0 -2.15 -0.20 -4.05 -0.40 -4.25 -0.20 -0.25 -5.70 -0.40 -12.20 -0.40 l-11.85 0 0.05 5 c0.05 7.80 2.65 14.55 7.85 20.20 l2 2.20 -0.30 10.45 c-0.20 5.75 -0.45 10.65 -0.60 10.95 -0.30 0.40 -5.45 0.45 -12.85 0.10z"/>
  <path d="M136.40 91.65 c-0.45 -0.50 -1 -1.50 -1.15 -2.30 -0.20 -0.75 -0.55 -1.50 -0.85 -1.65 -0.25 -0.15 0.50 -1.35 1.70 -2.60 1.20 -1.30 2.90 -3.25 3.75 -4.35 l1.65 -2 -0.15 6.75 -0.10 6.75 -2.05 0.15 c-1.45 0.10 -2.25 -0.10 -2.80 -0.75z"/>
  <path d="M141.30 69.45 c-3.20 -2.55 -0.30 -7.90 3.55 -6.40 2.80 1.05 3.55 4.10 1.40 6.20 -1.50 1.50 -3.20 1.60 -4.95 0.20z"/>
  <path d="M14.80 67.45 c-1.85 -1.45 -1.85 -4.45 0 -5.90 0.75 -0.60 1.90 -1.05 2.55 -1.05 1.70 0 3.65 2.10 3.65 4 0 1.90 -1.95 4 -3.65 4 -0.65 0 -1.80 -0.45 -2.55 -1.05z"/>
  <path d="M0 24.35 l0 -24.35 14.65 0 14.60 0 -0.15 6.85 -0.10 6.90 -9.40 9.10 c-6.70 6.50 -9.45 8.90 -9.70 8.40 -0.45 -0.75 0.25 -2.95 1.10 -3.50 0.25 -0.15 0.40 -0.55 0.25 -0.80 -0.35 -0.50 -10.75 -0.65 -10.75 -0.10 0 0.15 0.35 0.75 0.85 1.25 0.70 0.80 0.80 2.10 0.70 9.80 -0.10 8 -0.20 8.95 -1.10 9.85 -0.95 0.95 -0.95 0.75 -0.95 -23.40z"/>
 </g>
</svg>
