<?xml version="1.0" encoding="utf-8"?>
<!DOCTYPE svg PUBLIC "-//W3C//DTD SVG 1.0//EN" "http://www.w3.org/TR/2001/REC-SVG-20010904/DTD/svg10.dtd">
<svg version="1.0" xmlns="http://www.w3.org/2000/svg" width="170px" height="134px" viewBox="0 0 170 134" preserveAspectRatio="xMidYMid meet">
 <g fill="#000000">
  <path d="M123.75 132.30 c-1.85 -0.85 -4 -3.10 -4.70 -4.95 -1.45 -3.80 0.05 -9.80 2.95 -11.75 5.50 -3.75 16.10 3.95 11.40 8.25 -2.75 2.50 -5.55 2.85 -7.75 0.95 -1.90 -1.65 -1.15 -3.05 1.65 -3.05 1.75 0 1.95 -0.15 1.95 -1.25 0 -2.70 -4.40 -3.25 -6.05 -0.75 -2.65 4 0.95 8.75 6.65 8.75 1.90 0 2.95 -0.35 5 -1.75 5.05 -3.40 6 -6.35 4.15 -13.10 -1.35 -5.05 -3.85 -9.35 -7.75 -13.40 -5.40 -5.65 -12.45 -9.45 -20.45 -11.10 -5.35 -1.10 -5.35 -1.05 -5.20 4.85 l0.15 4.25 3 -0.15 c2.50 -0.15 3.30 0.05 4.75 1 4.75 3.20 4.45 9.95 -0.55 12.50 -0.95 0.50 -2.40 0.90 -3.25 0.90 -1.50 0 -1.60 0.15 -1.95 2.25 -0.40 2.90 -2.65 5.55 -5.30 6.30 -2.70 0.85 -5.40 -0.05 -7.45 -2.35 -1.45 -1.70 -1.55 -2.05 -1.45 -5.15 l0.15 -3.30 -6.25 -0.25 c-6.30 -0.25 -41.85 -0.75 -55.95 -0.75 l-7.75 0 0.15 2.85 c0.30 4.95 -2.40 7.90 -7.25 7.90 -3.85 0 -6.60 -2.40 -7.15 -6.20 -0.25 -1.85 -0.35 -1.95 -2.75 -2.55 -1.70 -0.45 -2.95 -1.20 -4.10 -2.45 -1.45 -1.55 -1.65 -2.15 -1.65 -4.40 0 -4.95 2.70 -7.65 7.75 -7.65 l3 0 0.30 -19.50 c0.15 -10.70 0.35 -26.10 0.40 -34.10 l0.05 -14.65 -4.70 0 c-2.60 0 -4.85 -0.20 -5.05 -0.45 -0.50 -0.85 13.50 -17.05 14.70 -17.05 0.50 0 2.85 2.45 5.40 5.65 6.40 7.90 6.90 8.35 8.55 8.35 1.95 0 2.20 -0.40 1.35 -2.05 -2.20 -4.20 1 -8.95 6 -8.95 2.10 0 2.60 0.25 4.35 2 1.90 1.85 2 2.10 1.75 4.35 -0.10 1.35 -0.40 2.90 -0.60 3.50 -0.35 1.10 -0.25 1.15 3.15 1.15 l3.50 0 4 -4.60 c7.20 -8.40 7.85 -9.10 8.70 -8.75 0.45 0.15 2.90 2.85 5.40 5.95 2.55 3.10 5.05 6.15 5.55 6.80 0.80 0.95 1.40 1.15 3.10 1 2.20 -0.15 2.25 -0.25 1.25 -2.75 -0.50 -1.35 -0.50 -2 0.10 -3.75 1 -2.75 3.35 -4.40 6.40 -4.40 1.90 0 2.50 0.25 4.20 2 1.90 1.85 2 2.10 1.75 4.35 -0.10 1.35 -0.40 2.90 -0.60 3.55 -0.35 1 -0.20 1.10 1.55 1.05 1.85 0 2.20 -0.30 7.85 -6.75 3.25 -3.65 6.20 -6.70 6.55 -6.70 0.85 0 13.95 16.35 13.70 17.05 -0.15 0.40 -2.45 0.55 -6.80 0.50 -5.05 -0.10 -6.65 0.05 -6.80 0.55 -0.15 0.35 -0.35 3.75 -0.45 7.55 -0.20 5.90 -0.10 6.95 0.55 7.20 1.25 0.50 8 -0.85 12 -2.40 8.05 -3.10 15.45 -9.40 18.95 -16.20 1.10 -2.20 2.45 -5.60 2.95 -7.55 0.85 -3.40 0.85 -3.65 0 -5.90 -1.50 -3.85 -6.20 -7.30 -10.10 -7.30 -2.45 0 -5.90 2.05 -6.70 3.95 -1.30 3.20 1.15 6.95 4.25 6.35 3.50 -0.75 3.60 -3.15 0.15 -3.40 -1.75 -0.10 -2.20 -0.35 -2.30 -1.20 -0.20 -1.35 2 -3.20 3.75 -3.20 2.55 0 6.15 2.95 6.15 5.05 0 1.30 -2.80 4.35 -5.05 5.50 -5.95 3 -10.95 -0.70 -10.95 -8.10 0 -3.70 0.90 -5.55 3.80 -7.75 1.55 -1.20 2.40 -1.45 5.55 -1.60 3.20 -0.20 4 -0.05 6.40 1.15 3.40 1.65 6.90 5.05 8.60 8.45 2.50 4.75 1.30 12.50 -2.75 18.45 -3.70 5.30 -10.75 10.95 -18.85 15 -6 3 -8.90 4.10 -13.50 5.05 l-3 0.60 0 3.20 0 3.25 3.75 0.40 c2.05 0.20 8.55 0.30 14.45 0.25 l10.70 -0.15 1.40 -5.25 c0.75 -2.90 2.60 -7.95 4.05 -11.25 4.70 -10.45 6 -11.75 11.25 -11.75 5.60 0.05 9.15 2.90 9.15 7.40 0 4.65 -2.90 8.10 -6.80 8.10 -2.55 0 -4.90 -1.05 -5.70 -2.45 -1.35 -2.55 0.25 -7.15 2.20 -6.40 1 0.40 1.80 2.40 1.80 4.65 0 1.40 0.20 1.70 1 1.70 1.45 0 3.90 -1.35 4.50 -2.45 1.25 -2.45 -0.20 -5.55 -3.25 -6.85 -3.60 -1.50 -8 1.35 -10.50 6.85 -2.75 6.10 -5.75 25 -4.15 26.05 0.35 0.20 3.15 0.35 6.15 0.30 l5.50 -0.15 0.15 -5.45 c0.10 -4.90 0.05 -5.55 -0.85 -6.35 -0.75 -0.70 -0.90 -1.25 -0.60 -2.10 0.35 -1 0.80 -1.10 4.10 -1.25 5.20 -0.20 7.70 0.60 10.55 3.45 3.35 3.35 4.05 6.10 3.80 14.90 -0.20 7.40 -0.95 9.90 -3.60 12.70 -2.65 2.70 -4.80 3.40 -10.20 3.25 -4.85 -0.15 -4.85 -0.15 -5 -1.50 -0.10 -0.95 0.15 -1.50 0.85 -1.90 0.95 -0.50 1.05 -1 1.05 -5.95 l0 -5.45 -4.60 -0.35 c-2.55 -0.20 -5.30 -0.25 -6.15 -0.15 l-1.50 0.15 0.15 5.50 c0.35 14.15 3.90 24.80 9.20 27.55 2.55 1.30 4.80 0.90 6.95 -1.25 2.45 -2.40 2.55 -4.10 0.40 -6.05 -2.85 -2.75 -4.95 -2.35 -4.95 0.85 0 2.15 -0.80 3.65 -1.90 3.65 -1.45 0 -2.10 -1.05 -2.10 -3.50 0 -4.50 4.35 -6.80 8.80 -4.70 2.40 1.15 4.45 5.40 4 8.35 -0.45 2.80 -1.40 4.10 -3.95 5.45 -2.80 1.50 -7.40 1.55 -9.80 0.15 -2.95 -1.75 -7.90 -12.35 -10.40 -22.45 -0.70 -2.75 -1.55 -5.20 -1.85 -5.40 -0.30 -0.20 -6.80 -0.40 -14.40 -0.40 l-13.90 0 0 3.50 c0 3.40 0.05 3.50 1.40 3.75 12.40 2.55 26.55 11.35 32.90 20.50 4.10 6 5.35 13.75 2.95 18.60 -1.55 3.05 -5.90 7.30 -8.85 8.65 -2.55 1.15 -8.35 1.30 -10.65 0.30z m-21.60 -14.85 c2.20 -1 2.95 -3.85 1.55 -5.85 -1.10 -1.60 -2.85 -2.15 -4.70 -1.55 -1.80 0.65 -2.50 1.80 -2.50 4.10 0 2.90 2.85 4.55 5.65 3.30z m-82.55 -1.95 c1.25 -1.30 1.45 -1.80 1.20 -3.10 -0.60 -3.15 -3.20 -4.50 -5.85 -3.15 -2.75 1.45 -3.05 4.80 -0.60 6.75 1.80 1.40 3.50 1.25 5.25 -0.50z m91.85 -6.75 c1.55 -0.80 2.05 -1.65 2.05 -3.70 0 -3.90 -4.90 -5.30 -7.35 -2.10 -1.40 1.80 -0.25 5.15 2.05 6.05 1.45 0.60 1.65 0.60 3.25 -0.25z m-100.50 -2.05 c1.40 -1.80 1.35 -3.95 -0.20 -5.45 -2.45 -2.50 -6.75 -0.85 -6.75 2.65 0 2.50 1.60 4.10 4.05 4.10 1.45 0 2.10 -0.30 2.90 -1.30z m90.75 -5.35 c0.15 -2.55 0.35 -19.65 0.40 -38.10 l0.15 -33.50 -18.20 -0.40 c-15.05 -0.40 -18.25 -0.35 -18.60 0.25 -0.25 0.35 -0.40 4.60 -0.30 9.40 l0.10 8.75 7.65 0.15 7.65 0.15 2.20 -1.55 c1.75 -1.20 2.60 -2.35 3.85 -5.05 1.70 -3.65 3.15 -4.70 4.85 -3.60 0.70 0.45 0.80 2 0.60 13.20 -0.10 7 -0.25 12.85 -0.40 13.10 -0.10 0.20 -0.85 0.35 -1.60 0.35 -1.55 0 -2.75 -1.10 -3.30 -3 -0.60 -1.90 -2.75 -6.05 -4.15 -7.85 l-1.20 -1.65 -8.15 0 -8.10 0 -0.30 8.35 c-0.20 4.55 -0.35 13.25 -0.35 19.25 l0 10.90 2.25 2.15 c2.10 2.05 2.25 2.35 2.25 4.80 0 2.35 -0.20 2.85 -1.65 4.30 -2.95 2.95 -6.75 2.95 -9.70 0 -1.40 -1.40 -1.65 -2 -1.65 -4 0 -2.70 1.05 -4.75 3 -5.90 l1.35 -0.80 0.30 -10.60 c0.20 -5.85 0.35 -14.60 0.35 -19.50 0 -7.60 -0.10 -8.90 -0.80 -9.15 -0.45 -0.15 -4.15 -0.30 -8.25 -0.30 l-7.45 0 -1.35 1.90 c-0.80 1.05 -2.30 3.75 -3.35 6 -2 4.05 -3.10 5.05 -5 4.30 -0.75 -0.30 -0.80 -1.80 -0.70 -13.40 l0.15 -13.05 1.95 0 c1.95 0 2 0.05 3.15 3 0.75 2.05 1.80 3.65 3.35 5.05 l2.20 2.05 7.65 0.30 c4.20 0.20 7.80 0.20 8 0 0.20 -0.25 0.40 -4.45 0.50 -9.40 l0.20 -9 -21.60 -0.45 c-11.90 -0.25 -21.90 -0.30 -22.30 -0.15 -0.70 0.25 -0.95 11.20 -1.45 63.10 l-0.15 13 3.50 0.30 c1.95 0.20 20.70 0.50 41.75 0.70 21.05 0.20 38.30 0.40 38.40 0.50 0.10 0.10 0.60 0.05 1.10 -0.10 0.80 -0.20 0.95 -0.90 1.20 -4.80z m-36.95 -1.55 c1.15 -0.85 1.20 -3.55 0.10 -4.65 -1.20 -1.25 -3.85 -1.05 -4.95 0.35 -2.40 2.95 1.70 6.60 4.85 4.30z m95.90 -20.25 c0.75 -0.45 2.10 -1.90 3 -3.25 1.45 -2.30 1.55 -2.75 1.75 -8.30 0.20 -5.45 0.15 -5.95 -1.05 -8.35 -0.70 -1.40 -2 -3.10 -2.80 -3.80 -1.65 -1.40 -4.40 -2.20 -5.10 -1.50 -0.50 0.50 -0.70 25.35 -0.20 26.15 0.40 0.60 2.45 0.20 4.40 -0.95z m-26.95 -6.35 c0.80 -0.30 1.05 -1.95 0.50 -3.40 -0.25 -0.70 -2 -0.80 -14.25 -0.80 l-13.95 0 0 2 0 2 11.65 0.15 c6.35 0.05 12.45 0.15 13.45 0.25 1 0.05 2.15 -0.05 2.60 -0.20z m0.55 -10.20 l0 -1.75 -13.50 -0.35 c-7.40 -0.20 -13.80 -0.25 -14.10 -0.15 -0.70 0.25 -0.90 3.35 -0.30 3.90 0.20 0.20 6.55 0.30 14.10 0.25 l13.80 -0.15 0 -1.75z m-22.55 -37.40 c0.30 -0.50 -4.60 -7.10 -5.20 -7.10 -0.20 0 -1.70 1.50 -3.25 3.40 l-2.90 3.35 3.20 0.30 c5.25 0.45 7.90 0.50 8.15 0.05z m-43.45 -0.60 c0.40 -0.65 -4.30 -6.50 -5.25 -6.45 -0.40 0 -1.95 1.40 -3.45 3.10 l-2.65 3.10 5.15 0.30 c2.85 0.15 5.35 0.30 5.55 0.35 0.20 0.05 0.50 -0.10 0.65 -0.40z m-45.25 -0.80 c0 -0.65 -5.20 -6.70 -5.70 -6.65 -0.55 0 -5.80 6.10 -5.80 6.65 0 0.15 2.60 0.30 5.75 0.30 3.15 0 5.75 -0.15 5.75 -0.30z m64.45 -1.55 c2.40 -3 -1.60 -6.50 -4.45 -3.90 -1.30 1.15 -1.25 3 0 4.25 1.40 1.40 3.20 1.25 4.45 -0.35z m-46.70 -0.65 c1.75 -1.95 -0.30 -4.95 -2.95 -4.30 -0.75 0.20 -1.60 0.85 -1.90 1.55 -1.30 2.85 2.75 5.10 4.85 2.75z"/>
  <path d="M76.15 101.20 c-0.20 -0.55 0.25 -1.25 1.40 -2.15 3.90 -3.05 4 -3.20 4.10 -5.80 l0.10 -2.50 -2.95 -0.15 c-2.80 -0.15 -3.05 -0.05 -4.85 1.70 -1 1 -2.10 1.65 -2.40 1.50 -0.60 -0.40 -0.75 -9.70 -0.25 -11.65 0.45 -1.60 1 -1.45 3.50 0.85 1.65 1.55 2.60 2 3.90 2 2.80 0 3.30 -0.40 3.30 -2.55 0 -1.55 -0.45 -2.45 -2.25 -4.65 -1.25 -1.55 -2.25 -3 -2.25 -3.30 0 -0.70 13.35 -0.70 13.75 0 0.20 0.30 -0.70 1.65 -1.90 3 -2.30 2.55 -3.40 5.65 -2.40 6.65 0.30 0.30 1.60 0.50 2.90 0.40 1.95 -0.10 2.70 -0.40 4.15 -1.85 1 -0.90 2.05 -1.70 2.40 -1.70 0.45 0 0.60 1.85 0.60 7 0 4.95 -0.15 7 -0.55 7 -0.35 0 -1.70 -1.05 -3.05 -2.30 -2.20 -2.05 -2.60 -2.25 -4.55 -2.10 l-2.10 0.15 -0.15 2.60 c-0.15 2.55 -0.10 2.70 2.15 4.90 1.30 1.25 2.25 2.55 2.15 2.85 -0.15 0.50 -2.20 0.70 -7.35 0.80 -6.15 0.10 -7.10 0 -7.40 -0.70z"/>
  <path d="M34.15 100.70 c-0.20 -0.55 0.45 -1.55 2.05 -3.10 2.25 -2.15 2.35 -2.30 2.20 -4.80 l-0.15 -2.55 -2.15 -0.15 c-2 -0.15 -2.40 0.05 -4.70 2.20 -1.35 1.25 -2.65 2.10 -2.85 1.90 -0.55 -0.65 -0.05 -14.20 0.55 -14.20 0.25 0 1.30 0.90 2.25 2 1.70 1.85 2 2 4.50 2 l2.65 0 0 -2.15 c0 -1.85 -0.35 -2.55 -2.30 -4.85 -1.30 -1.55 -2.05 -2.85 -1.80 -3.10 0.65 -0.65 13.35 -0.30 13.35 0.40 0 0.30 -0.95 1.65 -2.15 3 -1.90 2.20 -2.10 2.65 -2 4.70 l0.15 2.25 2.35 0.15 c2.10 0.15 2.55 -0.05 4.30 -1.60 3.35 -3.05 3.60 -2.75 3.60 4.40 0 3.60 -0.20 6.35 -0.50 6.55 -0.25 0.15 -1.40 -0.60 -2.45 -1.70 -1.85 -1.90 -2.20 -2.05 -4.80 -2.05 l-2.75 0 0 2.70 c0 2.65 0.05 2.80 2.50 4.85 1.40 1.15 2.50 2.50 2.50 3.05 0 0.85 -0.55 0.90 -7 0.90 -6.05 0 -7.10 -0.10 -7.35 -0.80z"/>
 </g>
 <g fill="none">
  <path d="M0 67 l0 -67 85 0 85 0 0 67 0 67 -85 0 -85 0 0 -67z m134.40 65 c2.95 -1.35 7.30 -5.60 8.85 -8.65 2.40 -4.85 1.15 -12.60 -2.95 -18.60 -6.35 -9.15 -20.50 -17.95 -32.90 -20.50 -1.35 -0.25 -1.40 -0.35 -1.40 -3.75 l0 -3.50 13.90 0 c7.60 0 14.10 0.20 14.40 0.40 0.30 0.20 1.15 2.65 1.85 5.40 2.50 10.10 7.45 20.70 10.40 22.45 2.40 1.40 7 1.35 9.80 -0.15 2.55 -1.35 3.50 -2.65 3.95 -5.45 0.45 -2.95 -1.60 -7.20 -4 -8.35 -4.45 -2.10 -8.80 0.20 -8.80 4.70 0 2.45 0.65 3.50 2.10 3.50 1.10 0 1.90 -1.50 1.90 -3.65 0 -3.20 2.10 -3.60 4.95 -0.85 2.15 1.95 2.05 3.65 -0.40 6.05 -2.15 2.15 -4.40 2.55 -6.95 1.25 -5.30 -2.75 -8.85 -13.40 -9.20 -27.55 l-0.15 -5.50 1.50 -0.15 c0.85 -0.10 3.60 -0.05 6.15 0.15 l4.60 0.35 0 5.45 c0 4.95 -0.10 5.45 -1.05 5.95 -0.70 0.40 -0.95 0.95 -0.85 1.90 0.15 1.35 0.15 1.35 5 1.50 5.40 0.15 7.55 -0.55 10.20 -3.25 2.65 -2.80 3.40 -5.30 3.60 -12.70 0.25 -8.80 -0.45 -11.55 -3.80 -14.90 -2.85 -2.85 -5.35 -3.65 -10.55 -3.45 -3.30 0.15 -3.75 0.25 -4.10 1.25 -0.30 0.85 -0.15 1.40 0.60 2.10 0.90 0.80 0.95 1.45 0.85 6.35 l-0.15 5.45 -5.50 0.15 c-3 0.05 -5.80 -0.10 -6.15 -0.30 -1.60 -1.05 1.40 -19.95 4.15 -26.05 2.50 -5.50 6.90 -8.35 10.50 -6.85 3.05 1.30 4.50 4.40 3.25 6.85 -0.60 1.10 -3.05 2.45 -4.50 2.45 -0.80 0 -1 -0.30 -1 -1.70 0 -2.25 -0.80 -4.25 -1.80 -4.65 -1.95 -0.75 -3.55 3.85 -2.20 6.40 0.80 1.40 3.15 2.45 5.70 2.45 3.90 0 6.80 -3.45 6.80 -8.10 0 -4.50 -3.55 -7.35 -9.15 -7.40 -5.25 0 -6.55 1.30 -11.25 11.75 -1.45 3.30 -3.30 8.35 -4.05 11.25 l-1.40 5.25 -10.70 0.15 c-5.90 0.05 -12.40 -0.05 -14.45 -0.25 l-3.75 -0.40 0 -3.25 0 -3.20 3 -0.60 c4.60 -0.95 7.50 -2.05 13.50 -5.05 8.10 -4.05 15.15 -9.70 18.85 -15 4.05 -5.95 5.25 -13.70 2.75 -18.45 -1.70 -3.40 -5.20 -6.80 -8.60 -8.45 -2.40 -1.20 -3.20 -1.35 -6.40 -1.15 -3.15 0.15 -4 0.40 -5.55 1.60 -2.90 2.20 -3.80 4.05 -3.80 7.75 0 7.40 5 11.10 10.95 8.10 2.25 -1.15 5.05 -4.20 5.05 -5.50 0 -2.10 -3.60 -5.05 -6.15 -5.05 -1.75 0 -3.95 1.85 -3.75 3.20 0.10 0.85 0.55 1.10 2.30 1.20 3.45 0.25 3.35 2.65 -0.15 3.40 -1.95 0.35 -4.05 -1.20 -4.50 -3.35 -1.05 -4.65 5.25 -8.45 10.40 -6.25 2.70 1.15 5.70 4.15 6.65 6.60 0.85 2.25 0.85 2.50 0 5.90 -0.50 1.95 -1.85 5.35 -2.95 7.55 -3.50 6.80 -10.90 13.10 -18.95 16.20 -4 1.55 -10.75 2.90 -12 2.40 -0.65 -0.25 -0.75 -1.30 -0.55 -7.20 0.10 -3.80 0.30 -7.20 0.45 -7.55 0.15 -0.50 1.75 -0.65 6.80 -0.55 4.35 0.05 6.65 -0.10 6.80 -0.50 0.25 -0.70 -12.85 -17.05 -13.70 -17.05 -0.35 0 -3.30 3.05 -6.55 6.70 -5.65 6.45 -6 6.75 -7.85 6.75 -1.75 0.05 -1.90 -0.05 -1.55 -1.05 0.20 -0.65 0.50 -2.20 0.60 -3.55 0.25 -2.25 0.15 -2.50 -1.75 -4.35 -1.70 -1.75 -2.30 -2 -4.20 -2 -3.05 0 -5.40 1.65 -6.40 4.40 -0.60 1.75 -0.60 2.40 -0.10 3.75 1 2.50 0.95 2.60 -1.25 2.75 -1.70 0.15 -2.30 -0.05 -3.10 -1 -0.50 -0.65 -3 -3.70 -5.55 -6.80 -2.50 -3.10 -4.95 -5.80 -5.40 -5.95 -0.85 -0.35 -1.50 0.35 -8.70 8.75 l-4 4.60 -3.50 0 c-3.40 0 -3.50 -0.05 -3.15 -1.15 0.20 -0.60 0.50 -2.15 0.60 -3.50 0.25 -2.25 0.15 -2.50 -1.75 -4.35 -1.75 -1.75 -2.25 -2 -4.35 -2 -5 0 -8.20 4.75 -6 8.95 0.85 1.65 0.60 2.05 -1.35 2.05 -1.65 0 -2.15 -0.45 -8.55 -8.35 -2.55 -3.20 -4.90 -5.65 -5.40 -5.65 -1.20 0 -15.20 16.20 -14.70 17.05 0.20 0.25 2.45 0.45 5.05 0.45 l4.70 0 -0.05 14.65 c-0.05 8 -0.25 23.40 -0.40 34.10 l-0.30 19.50 -3 0 c-5.05 0 -7.75 2.70 -7.75 7.65 0 2.25 0.20 2.85 1.65 4.40 1.15 1.25 2.40 2 4.10 2.45 2.40 0.60 2.50 0.70 2.75 2.55 0.55 3.80 3.30 6.20 7.15 6.20 4.85 0 7.55 -2.95 7.25 -7.90 l-0.15 -2.85 7.75 0 c14.10 0 49.65 0.50 55.95 0.75 l6.25 0.25 -0.15 3.30 c-0.10 3.10 0 3.45 1.45 5.15 2.05 2.30 4.75 3.20 7.45 2.35 2.65 -0.75 4.90 -3.40 5.30 -6.30 0.35 -2.10 0.45 -2.25 1.95 -2.25 0.85 0 2.30 -0.40 3.25 -0.90 5 -2.55 5.30 -9.30 0.55 -12.50 -1.45 -0.95 -2.25 -1.15 -4.75 -1 l-3 0.15 -0.15 -4.25 c-0.15 -5.90 -0.15 -5.95 5.20 -4.85 8 1.65 15.05 5.45 20.45 11.10 3.90 4.05 6.40 8.35 7.75 13.40 1.85 6.75 0.90 9.70 -4.15 13.10 -4.05 2.70 -8.20 2.35 -11.30 -0.95 -2.20 -2.35 -1.15 -6.90 1.80 -7.60 1.85 -0.50 3.90 0.75 3.90 2.30 0 1.10 -0.20 1.25 -1.95 1.25 -2.80 0 -3.55 1.40 -1.65 3.05 2.20 1.90 5 1.55 7.75 -0.95 3.20 -2.95 -1.30 -8.75 -7.15 -9.25 -3.30 -0.25 -5.60 1.25 -6.85 4.40 -0.95 2.60 -1.15 6.30 -0.35 8.35 0.70 1.85 2.85 4.10 4.70 4.95 2.30 1 8.10 0.85 10.65 -0.30z"/>
  <path d="M99 117.65 c-1.60 -0.60 -2.50 -1.85 -2.50 -3.50 0 -2.30 0.70 -3.45 2.50 -4.10 1.85 -0.60 3.60 -0.05 4.70 1.55 2.25 3.15 -1.05 7.40 -4.70 6.05z"/>
  <path d="M14.35 116 c-2.45 -1.95 -2.15 -5.30 0.60 -6.75 2.65 -1.35 5.25 0 5.85 3.15 0.25 1.30 0.05 1.80 -1.20 3.10 -1.75 1.75 -3.45 1.90 -5.25 0.50z"/>
  <path d="M108.20 109 c-2.30 -0.90 -3.45 -4.25 -2.05 -6.05 2.45 -3.20 7.35 -1.80 7.35 2.10 0 2.05 -0.50 2.90 -2.05 3.70 -1.60 0.85 -1.80 0.85 -3.25 0.25z"/>
  <path d="M5.10 106.85 c-1.60 -1.70 -1.50 -4.45 0.20 -5.80 1.80 -1.40 3.95 -1.35 5.45 0.20 1.55 1.50 1.60 3.65 0.20 5.45 -1.35 1.75 -4.30 1.80 -5.85 0.15z"/>
  <path d="M99.40 106.25 c-0.10 -0.10 -17.35 -0.30 -38.40 -0.50 -21.05 -0.20 -39.80 -0.50 -41.75 -0.70 l-3.50 -0.30 0.15 -13 c0.50 -51.90 0.75 -62.85 1.45 -63.10 0.40 -0.15 10.40 -0.10 22.30 0.15 l21.60 0.45 -0.20 9 c-0.10 4.95 -0.30 9.15 -0.50 9.40 -0.20 0.20 -3.80 0.20 -8 0 l-7.65 -0.30 -2.20 -2.05 c-1.55 -1.40 -2.60 -3 -3.35 -5.05 -1.15 -2.95 -1.20 -3 -3.15 -3 l-1.95 0 -0.15 13.05 c-0.10 11.60 -0.05 13.10 0.70 13.40 1.90 0.75 3 -0.25 5 -4.30 1.05 -2.25 2.55 -4.95 3.35 -6 l1.35 -1.90 7.45 0 c4.10 0 7.80 0.15 8.25 0.30 0.70 0.25 0.80 1.55 0.80 9.15 0 4.90 -0.15 13.65 -0.35 19.50 l-0.30 10.60 -1.35 0.80 c-1.95 1.15 -3 3.20 -3 5.90 0 2 0.25 2.60 1.65 4 2.95 2.95 6.75 2.95 9.70 0 1.45 -1.45 1.65 -1.95 1.65 -4.30 0 -2.45 -0.15 -2.75 -2.25 -4.80 l-2.25 -2.15 0 -10.90 c0 -6 0.15 -14.70 0.35 -19.25 l0.30 -8.35 8.10 0 8.15 0 1.20 1.65 c1.40 1.80 3.55 5.95 4.15 7.85 0.55 1.90 1.75 3 3.30 3 0.75 0 1.50 -0.15 1.60 -0.35 0.15 -0.25 0.30 -6.10 0.40 -13.10 0.20 -11.20 0.10 -12.75 -0.60 -13.20 -1.70 -1.10 -3.15 -0.05 -4.85 3.60 -1.25 2.70 -2.10 3.85 -3.85 5.05 l-2.20 1.55 -7.65 -0.15 -7.65 -0.15 -0.10 -8.75 c-0.10 -4.80 0.05 -9.05 0.30 -9.40 0.35 -0.60 3.55 -0.65 18.60 -0.25 l18.20 0.40 -0.15 33.50 c-0.15 39.05 -0.30 42.55 -1.60 42.90 -0.50 0.15 -1 0.20 -1.10 0.10z m-8.50 -5.15 c0.10 -0.30 -0.85 -1.60 -2.15 -2.85 -2.25 -2.20 -2.30 -2.35 -2.15 -4.90 l0.15 -2.60 2.10 -0.15 c1.95 -0.15 2.35 0.05 4.55 2.10 1.35 1.25 2.70 2.30 3.05 2.30 0.40 0 0.55 -2.05 0.55 -7 0 -5.15 -0.15 -7 -0.60 -7 -0.35 0 -1.40 0.80 -2.40 1.70 -1.45 1.45 -2.20 1.75 -4.15 1.85 -1.30 0.10 -2.60 -0.10 -2.90 -0.40 -1 -1 0.10 -4.10 2.40 -6.65 1.20 -1.35 2.10 -2.70 1.90 -3 -0.40 -0.70 -13.75 -0.70 -13.75 0 0 0.30 1 1.75 2.25 3.30 1.80 2.20 2.25 3.10 2.25 4.65 0 2.15 -0.50 2.55 -3.30 2.55 -1.30 0 -2.25 -0.45 -3.90 -2 -2.50 -2.30 -3.05 -2.45 -3.50 -0.85 -0.50 1.95 -0.35 11.25 0.25 11.65 0.30 0.15 1.40 -0.50 2.40 -1.50 1.80 -1.75 2.05 -1.85 4.85 -1.70 l2.95 0.15 -0.10 2.50 c-0.10 2.60 -0.20 2.75 -4.10 5.80 -1.15 0.90 -1.60 1.60 -1.40 2.15 0.30 0.70 1.25 0.80 7.40 0.70 5.15 -0.10 7.20 -0.30 7.35 -0.80z m-42.40 -0.50 c0 -0.55 -1.10 -1.90 -2.50 -3.05 -2.45 -2.05 -2.50 -2.20 -2.50 -4.85 l0 -2.70 2.75 0 c2.60 0 2.95 0.15 4.80 2.05 1.05 1.10 2.20 1.85 2.45 1.70 0.30 -0.20 0.50 -2.95 0.50 -6.55 0 -7.15 -0.25 -7.45 -3.60 -4.40 -1.75 1.55 -2.20 1.75 -4.30 1.60 l-2.35 -0.15 -0.15 -2.25 c-0.10 -2.05 0.10 -2.50 2 -4.70 1.20 -1.35 2.15 -2.70 2.15 -3 0 -0.70 -12.70 -1.05 -13.35 -0.40 -0.25 0.25 0.50 1.55 1.80 3.10 1.95 2.30 2.30 3 2.30 4.85 l0 2.15 -2.65 0 c-2.50 0 -2.80 -0.15 -4.50 -2 -0.95 -1.10 -2 -2 -2.25 -2 -0.60 0 -1.10 13.55 -0.55 14.20 0.20 0.20 1.50 -0.65 2.85 -1.90 2.30 -2.15 2.70 -2.35 4.70 -2.20 l2.15 0.15 0.15 2.55 c0.15 2.50 0.05 2.65 -2.20 4.80 -3.70 3.55 -3.20 3.90 5.30 3.90 6.45 0 7 -0.05 7 -0.90z"/>
  <path d="M60.35 99.90 c-2.35 -1.85 -0.95 -5.55 2.10 -5.55 2.05 0 3.20 1.15 3.20 3.20 0 2.55 -3.15 3.95 -5.30 2.35z"/>
  <path d="M156.25 80.50 c-0.50 -0.80 -0.30 -25.65 0.20 -26.15 0.70 -0.70 3.45 0.10 5.10 1.50 0.80 0.70 2.10 2.40 2.80 3.80 1.20 2.40 1.25 2.90 1.05 8.35 -0.20 5.55 -0.30 6 -1.75 8.30 -0.90 1.35 -2.25 2.80 -3 3.25 -1.95 1.15 -4 1.55 -4.40 0.95z"/>
  <path d="M117.65 73.15 l-11.65 -0.15 0 -2 0 -2 13.95 0 c15.10 0 14.55 -0.10 14.55 2.75 0 1.35 -0.90 1.80 -3.40 1.65 -1 -0.10 -7.10 -0.20 -13.45 -0.25z"/>
  <path d="M106.35 64.65 c-0.60 -0.55 -0.40 -3.65 0.30 -3.90 0.30 -0.10 6.70 -0.05 14.10 0.15 l13.50 0.35 0 1.75 0 1.75 -13.80 0.15 c-7.55 0.05 -13.90 -0.05 -14.10 -0.25z"/>
  <path d="M103.55 25.55 l-3.20 -0.30 2.90 -3.35 c1.55 -1.90 3.05 -3.40 3.25 -3.40 0.60 0 5.50 6.60 5.20 7.10 -0.25 0.45 -2.90 0.40 -8.15 -0.05z"/>
  <path d="M62.05 25.05 l-5.15 -0.30 2.65 -3.10 c1.50 -1.70 3.05 -3.10 3.45 -3.10 0.95 -0.05 5.65 5.80 5.25 6.45 -0.15 0.30 -0.45 0.45 -0.65 0.40 -0.20 -0.05 -2.70 -0.20 -5.55 -0.35z"/>
  <path d="M11.50 24.20 c0 -0.55 5.25 -6.65 5.80 -6.65 0.50 -0.05 5.70 6 5.70 6.65 0 0.15 -2.60 0.30 -5.75 0.30 -3.15 0 -5.75 -0.15 -5.75 -0.30z"/>
  <path d="M83 23 c-1.25 -1.25 -1.30 -3.10 0 -4.25 2.85 -2.60 6.85 0.90 4.45 3.90 -1.25 1.60 -3.05 1.75 -4.45 0.35z"/>
  <path d="M36.20 21.75 c-1.10 -1.65 -0.30 -3.60 1.60 -4.05 1.65 -0.40 2.80 0.25 3.40 1.95 1.05 2.90 -3.30 4.70 -5 2.10z"/>
 </g>
</svg>
