<?xml version="1.0" encoding="utf-8"?>
<!DOCTYPE svg PUBLIC "-//W3C//DTD SVG 1.0//EN" "http://www.w3.org/TR/2001/REC-SVG-20010904/DTD/svg10.dtd">
<svg version="1.0" xmlns="http://www.w3.org/2000/svg" width="176px" height="99px" viewBox="0 0 176 99" preserveAspectRatio="xMidYMid meet">
 <g fill="#000000">
  <path d="M127.55 97.55 c-0.60 -0.40 -0.65 -2.20 -0.35 -10.90 0.20 -5.75 0.20 -10.80 0 -11.30 -0.25 -0.70 -1.05 -0.85 -5 -0.85 l-4.70 0 0 3.75 c0 3.45 0.10 3.75 1 3.75 0.55 0 2 -0.90 3.20 -2 3.60 -3.35 3.85 -3.05 3.70 4.35 -0.10 4.10 -0.35 6.40 -0.70 6.50 -0.30 0.10 -1.55 -0.85 -2.75 -2.10 -1.35 -1.40 -2.60 -2.25 -3.30 -2.25 -1.05 0 -1.15 0.20 -1.15 2.70 0 2.55 0.10 2.75 2.25 4.50 3.65 3 3.30 3.30 -4.50 3.30 -6.35 0 -6.75 -0.05 -6.75 -0.95 0 -0.55 0.75 -1.50 1.65 -2.10 2.40 -1.65 2.85 -2.40 2.85 -5.05 0 -2.15 -0.10 -2.40 -1.10 -2.40 -0.65 0 -2.05 0.90 -3.20 2.05 -3.30 3.20 -3.70 2.70 -3.70 -4.45 0 -7.75 0.40 -8.25 3.95 -4.60 1.40 1.45 2.80 2.50 3.15 2.40 0.35 -0.15 0.85 -1.60 1.10 -3.30 0.65 -4.45 0.35 -4.65 -5.65 -4.50 l-4.80 0.15 -0.25 11.10 c-0.15 6.10 -0.35 11.20 -0.50 11.30 -0.15 0.15 -8.10 0.10 -17.75 -0.05 l-17.50 -0.35 -0.15 -11.35 -0.10 -11.40 -8 0 c-4.35 0 -8.05 0.20 -8.20 0.40 -0.10 0.20 -0.30 4.30 -0.35 9.10 -0.05 4.80 -0.25 9.70 -0.35 10.90 l-0.20 2.10 -13.65 0 c-10.50 0 -13.70 -0.15 -13.90 -0.60 -0.15 -0.35 -0.15 -6.15 0 -12.90 l0.25 -12.25 -10.55 -10.60 c-6.10 -6.10 -10.55 -10.95 -10.55 -11.50 0 -0.50 4.50 -5.40 10.65 -11.55 l10.70 -10.70 0.30 -12.25 c0.15 -6.75 0.50 -12.45 0.70 -12.70 0.20 -0.20 6.55 -0.25 14.05 -0.10 l13.60 0.30 -0.30 10.85 c-0.35 10.75 -0.35 10.90 0.70 11.45 0.70 0.40 3.60 0.55 8.45 0.45 l7.40 -0.15 0.25 -11.25 0.25 -11.25 1.75 -0.15 c0.95 -0.10 9.05 -0.05 17.95 0.15 l16.20 0.35 -0.25 10.95 c-0.15 8.25 -0.05 11.10 0.40 11.50 0.35 0.25 2.65 0.45 5.25 0.35 l4.70 -0.15 0.15 -3.90 0.15 -3.90 -2 -1.95 c-3.40 -3.30 -3.20 -7.95 0.40 -10.35 3.45 -2.35 7.75 -1.10 9.65 2.75 0.90 1.95 0.95 2.40 0.45 4.20 -0.55 1.85 -1.40 2.85 -3.75 4.80 -0.70 0.55 -0.80 1.45 -0.70 4.50 l0.15 3.85 4.75 0 4.75 0 0.25 -11.25 c0.15 -6.20 0.35 -11.35 0.40 -11.45 0.25 -0.45 7.65 0.50 11.10 1.45 5.45 1.50 13.15 5.50 17.75 9.20 13.60 11 20.05 28.40 17 45.85 -3.05 17.65 -15.85 32.25 -33 37.60 -2.20 0.70 -5.35 1.40 -7 1.55 -1.65 0.20 -3.65 0.45 -4.50 0.55 -0.80 0.15 -1.80 0.05 -2.20 -0.20z m-29.35 -8.90 c0.15 -2.10 0.30 -7.15 0.30 -11.25 l0 -7.40 7.20 0 c6.45 0 7.25 -0.10 7.50 -0.85 0.50 -1.85 0.55 -39.60 0.05 -40.10 -0.30 -0.30 -3.55 -0.60 -7.25 -0.65 l-6.75 -0.15 -0.10 -11.15 c-0.05 -6.15 -0.15 -11.25 -0.25 -11.35 -0.05 -0.05 -6.10 -0.20 -13.40 -0.30 l-13.25 -0.20 -0.35 2.50 c-0.15 1.40 -0.35 6.50 -0.35 11.40 l-0.05 8.85 -5.70 0 c-3.15 0 -5.85 0.15 -5.95 0.40 -0.15 0.20 -0.30 9.45 -0.40 20.60 l-0.20 20.25 5.75 0.25 5.75 0.25 0.15 10.75 c0.05 5.90 0.20 11.05 0.35 11.40 0.15 0.45 3.30 0.60 13.40 0.60 l13.20 0 0.35 -3.85z m-52.65 -4.25 c0.05 -4.20 0.20 -9.35 0.40 -11.40 l0.30 -3.75 3.75 0 c2.05 0 4.05 -0.20 4.40 -0.40 0.45 -0.30 0.60 -2.70 0.60 -9.10 l0 -8.65 -7.80 -0.35 c-4.35 -0.20 -7.95 -0.20 -8.15 0.05 -0.25 0.25 -0.55 5 -0.75 10.55 l-0.30 10.05 1.55 1.30 c4.30 3.65 3.75 9.55 -1.05 11.50 -2.50 1 -3.20 1 -5.30 0 -4.60 -2.20 -4.90 -9.60 -0.45 -11.60 l1.25 -0.60 0 -10.70 0 -10.75 -11.80 -0.15 c-6.50 -0.10 -11.90 0 -12 0.15 -0.10 0.20 1.10 1.70 2.70 3.30 1.55 1.65 5.30 5.45 8.25 8.55 l5.40 5.55 -0.35 11.55 c-0.30 9.70 -0.25 11.65 0.35 12.05 0.40 0.25 4.80 0.45 9.85 0.45 l9.10 0 0.05 -7.60z m95 5.75 l4.20 -1.40 0.30 -12.50 c0.20 -6.85 0.50 -24.35 0.65 -38.80 l0.35 -26.35 -3.40 -1.30 c-4.55 -1.75 -9.55 -2.85 -9.95 -2.20 -0.20 0.25 -0.45 5.05 -0.55 10.55 -0.20 6 -0.50 10.25 -0.80 10.40 -0.25 0.20 -3.10 0.25 -6.30 0.10 -3.20 -0.10 -6.05 -0.05 -6.40 0.20 -0.40 0.30 -0.60 5.95 -0.75 20.65 l-0.15 20.25 5.75 0.10 c8.95 0.20 8 -1.15 8 11.50 l0 10.80 2.45 -0.30 c1.30 -0.15 4.30 -0.90 6.60 -1.70z m13.05 -7.05 c4.25 -3.40 7 -6.50 10.15 -11.60 3.25 -5.35 3.20 -5.55 -1.85 -5.40 l-4.15 0.15 -0.15 2.35 c-0.15 2.15 0 2.40 1.60 3.65 1 0.75 1.80 1.55 1.80 1.80 0 0.60 -9.85 0.60 -10.25 0 -0.15 -0.25 0.50 -1.10 1.50 -1.85 1.60 -1.20 1.75 -1.55 1.75 -3.75 l0 -2.45 -2.25 0 -2.25 0 0 10 c0 5.50 0.10 10 0.20 10 0.15 0 1.90 -1.30 3.90 -2.90z m-115.10 -2.60 c2.05 -2.05 0.50 -5.50 -2.50 -5.50 -2.90 0 -4.40 3 -2.70 5.40 1 1.45 3.80 1.50 5.20 0.10z m114.80 -18.90 c0.35 -0.20 0.65 -4.25 0.85 -11.40 0.35 -12.15 0.30 -12.45 -2.50 -12.10 -1.30 0.15 -1.40 0.30 -1.70 3.15 -0.20 1.65 -0.35 6.85 -0.40 11.60 -0.05 7.75 0.05 8.60 0.85 8.80 1.40 0.35 2.30 0.35 2.90 -0.05z m10.70 -11.65 c0 -9 -0.15 -11.50 -0.60 -11.35 -0.50 0.20 -0.70 2.95 -0.80 11.20 -0.10 11.05 0 12.50 0.90 11.95 0.30 -0.20 0.50 -4.65 0.50 -11.80z m-4.85 0.45 c0.25 -7.35 0.15 -11.30 -0.20 -11.65 -1.10 -1.10 -1.45 1.40 -1.45 11.90 0 8.75 0.15 10.85 0.65 10.85 0.55 0 0.75 -2.30 1 -11.10z m10.35 3.65 c0.55 -4.30 0.10 -11.90 -0.80 -14.30 -0.90 -2.30 -1.20 0.35 -1.15 10.65 0.05 10.15 0.10 11.20 0.75 9.75 0.35 -0.85 0.90 -3.60 1.20 -6.10z m-135.65 -8.15 c0.30 -0.40 0.55 -4.90 0.60 -10.60 l0.10 -9.90 -2 -1.85 c-1.35 -1.25 -2.05 -2.40 -2.30 -3.70 -1.40 -7.50 9 -11.10 12.50 -4.35 1.55 3 0.70 6.05 -2.45 8.85 l-1.80 1.55 0 10 c0 8.65 0.10 10.05 0.80 10.30 0.45 0.15 4.10 0.30 8.15 0.30 l7.40 0 0.35 -8.80 c0.20 -4.85 0.15 -9.05 -0.05 -9.25 -0.20 -0.20 -2.20 -0.45 -4.40 -0.55 l-4 -0.15 -0.15 -11.30 -0.10 -11.35 -8.15 -0.35 c-4.45 -0.20 -8.75 -0.25 -9.60 -0.20 l-1.50 0.20 -0.25 11.75 c-0.15 6.45 -0.45 12.10 -0.75 12.50 -0.25 0.40 -4 4.20 -8.35 8.45 -4.35 4.25 -7.90 7.90 -7.90 8.10 0 0.25 4.55 0.50 10.15 0.60 5.55 0.05 10.80 0.15 11.65 0.25 0.85 0.05 1.80 -0.20 2.05 -0.50z m120.55 -14.80 c0.15 -2.50 0.10 -2.65 -1.60 -3.65 -3.20 -1.90 -2.45 -2.45 3.45 -2.45 5.85 0 6.65 0.55 3.50 2.45 -1.65 0.95 -1.75 1.15 -1.75 3.80 l0 2.75 4.25 0 c2.60 0 4.25 -0.20 4.25 -0.50 0 -1.60 -4.35 -8.70 -7.60 -12.45 -2.40 -2.80 -7.85 -7.15 -8.45 -6.80 -0.55 0.35 -0.60 18.90 -0.10 19.45 0.20 0.20 1.15 0.30 2.15 0.20 1.75 -0.15 1.75 -0.15 1.90 -2.80z m-114.70 -10.20 c1.85 -2.60 0.25 -5.90 -2.80 -5.90 -3.30 0 -5.05 3.60 -2.90 5.90 1.45 1.55 4.65 1.55 5.70 0z m78.80 -8.90 c2.05 -2.05 0.60 -6 -2.20 -6 -1.90 0 -3.45 1.60 -3.45 3.50 0 3.05 3.55 4.60 5.65 2.50z"/>
  <path d="M84.25 81.30 c-0.80 -0.35 -2.05 -1.30 -2.75 -2.05 -1.05 -1.10 -1.25 -1.80 -1.25 -4.35 0 -2.70 0.15 -3.10 1.55 -4.40 0.85 -0.75 1.80 -1.45 2.10 -1.55 0.35 -0.15 0.60 -3.40 0.70 -8.95 l0.15 -8.75 -5.45 -0.15 -5.45 -0.15 -1.40 1.70 c-3.75 4.55 -10.35 3.30 -12.05 -2.25 -1.05 -3.50 1.80 -7.60 5.75 -8.25 2.10 -0.30 5.35 1.25 6.30 3.05 0.85 1.60 2.40 1.90 8.05 1.70 l4.25 -0.15 0.15 -8.50 0.15 -8.50 -1.55 -1.25 c-1.80 -1.45 -2.90 -4.35 -2.60 -6.55 0.15 -0.85 0.95 -2.30 1.95 -3.25 1.45 -1.50 2 -1.70 4.20 -1.70 3.20 0 5.10 1.25 6.20 4.20 0.75 2 0.75 2.30 0.05 4.10 -0.45 1.05 -1.50 2.50 -2.25 3.20 l-1.45 1.25 -0.20 8.50 -0.15 8.50 5.10 0.15 5.05 0.15 0.90 -1.50 c2.40 -4.05 8.75 -4 11.20 0.10 2.55 4.15 -0.65 10.35 -5.40 10.35 -1.65 0 -4.15 -1.35 -5.60 -3.05 -1.20 -1.35 -1.45 -1.40 -5.75 -1.45 -2.45 -0.05 -4.80 -0.05 -5.10 -0.05 -0.50 0.05 -0.65 2.10 -0.65 8.55 l0 8.55 1.70 1.50 c4.10 3.60 3.15 9.55 -1.85 11.40 -1.80 0.70 -2.75 0.65 -4.60 -0.15z m5.10 -3.40 c1.65 -1.55 1.60 -4.50 -0.15 -5.85 -1.80 -1.40 -3.95 -1.35 -5.45 0.20 -1.55 1.50 -1.60 3.65 -0.20 5.45 1.35 1.70 4.10 1.80 5.80 0.20z m-20.35 -25.65 c2.80 -1.45 2.65 -5.35 -0.25 -6.55 -2.85 -1.15 -5.25 0.35 -5.25 3.30 0 1.80 0.85 3.05 2.50 3.65 1.20 0.45 1.45 0.40 3 -0.40z m39.50 -0.25 c1.50 -1.50 1.35 -4.15 -0.30 -5.45 -0.75 -0.60 -1.85 -1.05 -2.45 -1.05 -1.90 0 -3.75 1.85 -3.75 3.80 0 2.25 1.45 3.70 3.75 3.70 1.10 0 2.15 -0.40 2.75 -1z m-18.90 -26.35 c1.10 -1 1.15 -3.50 0.05 -4.75 -1 -1.10 -3.50 -1.15 -4.75 -0.05 -1.30 1.15 -1.20 3.90 0.20 4.85 1.45 1.05 3.35 1 4.50 -0.05z"/>
  <path d="M124.85 56.10 c-3.20 -3.20 -5.85 -6.20 -5.85 -6.60 0 -1 11.55 -12.50 12.55 -12.50 0.95 0 12.45 11.60 12.45 12.55 0 0.95 -11.60 12.45 -12.55 12.45 -0.40 0 -3.35 -2.65 -6.60 -5.90z m9.70 -3.20 c1.60 -1.45 2.95 -2.85 2.95 -3.15 0 -0.30 -1.30 -1.85 -2.90 -3.40 l-2.90 -2.90 -3.25 3 -3.20 2.95 3 3.05 c1.65 1.70 3.05 3.05 3.15 3.05 0.10 0 1.50 -1.20 3.15 -2.60z"/>
 </g>
 <g fill="none">
  <path d="M0 49.50 l0 -49.50 88 0 88 0 0 49.50 0 49.50 -88 0 -88 0 0 -49.50z m134.25 47.70 c1.65 -0.15 4.80 -0.85 7 -1.55 17.15 -5.35 29.95 -19.95 33 -37.60 3.05 -17.45 -3.40 -34.85 -17 -45.85 -4.60 -3.70 -12.30 -7.70 -17.75 -9.20 -3.45 -0.95 -10.85 -1.90 -11.10 -1.45 -0.05 0.10 -0.25 5.25 -0.40 11.45 l-0.25 11.25 -4.75 0 -4.75 0 -0.15 -3.85 c-0.10 -3.05 0 -3.95 0.70 -4.50 2.35 -1.95 3.20 -2.95 3.75 -4.80 0.50 -1.80 0.45 -2.25 -0.45 -4.20 -1.90 -3.85 -6.20 -5.10 -9.65 -2.75 -3.60 2.40 -3.80 7.05 -0.40 10.35 l2 1.95 -0.15 3.90 -0.15 3.90 -4.70 0.15 c-2.60 0.10 -4.90 -0.10 -5.25 -0.35 -0.45 -0.40 -0.55 -3.25 -0.40 -11.50 l0.25 -10.95 -16.20 -0.35 c-8.90 -0.20 -17 -0.25 -17.95 -0.15 l-1.75 0.15 -0.25 11.25 -0.25 11.25 -7.40 0.15 c-4.85 0.10 -7.75 -0.05 -8.45 -0.45 -1.05 -0.55 -1.05 -0.70 -0.70 -11.45 l0.30 -10.85 -13.60 -0.30 c-7.50 -0.15 -13.85 -0.10 -14.05 0.10 -0.20 0.25 -0.55 5.95 -0.70 12.70 l-0.30 12.25 -10.70 10.70 c-6.15 6.15 -10.65 11.05 -10.65 11.55 0 0.55 4.45 5.40 10.55 11.50 l10.55 10.60 -0.25 12.25 c-0.15 6.75 -0.15 12.55 0 12.90 0.20 0.45 3.40 0.60 13.90 0.60 l13.65 0 0.20 -2.10 c0.10 -1.20 0.30 -6.10 0.35 -10.90 0.05 -4.80 0.25 -8.90 0.35 -9.10 0.15 -0.20 3.85 -0.40 8.20 -0.40 l8 0 0.10 11.40 0.15 11.35 17.50 0.35 c9.65 0.15 17.60 0.20 17.75 0.05 0.15 -0.10 0.35 -5.20 0.50 -11.30 l0.25 -11.10 4.80 -0.15 c6 -0.15 6.30 0.05 5.65 4.50 -0.25 1.70 -0.75 3.15 -1.10 3.30 -0.35 0.10 -1.75 -0.95 -3.15 -2.40 -3.55 -3.65 -3.95 -3.15 -3.95 4.60 0 7.15 0.40 7.65 3.70 4.45 1.15 -1.15 2.55 -2.05 3.20 -2.05 1 0 1.10 0.25 1.10 2.40 0 2.65 -0.45 3.40 -2.85 5.05 -0.90 0.60 -1.65 1.55 -1.65 2.10 0 0.90 0.40 0.95 6.75 0.95 7.80 0 8.15 -0.30 4.50 -3.30 -2.15 -1.75 -2.25 -1.95 -2.25 -4.50 0 -2.50 0.10 -2.70 1.15 -2.70 0.70 0 1.95 0.85 3.30 2.25 1.20 1.25 2.45 2.20 2.75 2.10 0.35 -0.10 0.60 -2.40 0.70 -6.50 0.15 -7.40 -0.10 -7.70 -3.70 -4.35 -1.20 1.10 -2.65 2 -3.20 2 -0.90 0 -1 -0.30 -1 -3.75 l0 -3.75 4.70 0 c3.95 0 4.75 0.15 5 0.85 0.20 0.50 0.20 5.55 0 11.30 -0.40 11.50 -0.35 11.55 2.55 11.10 0.85 -0.10 2.85 -0.35 4.50 -0.55z"/>
  <path d="M71.25 91.90 c-0.15 -0.35 -0.30 -5.50 -0.35 -11.40 l-0.15 -10.75 -5.75 -0.25 -5.75 -0.25 0.20 -20.25 c0.10 -11.15 0.25 -20.40 0.40 -20.60 0.10 -0.25 2.80 -0.40 5.95 -0.40 l5.70 0 0.05 -8.85 c0 -4.90 0.20 -10 0.35 -11.40 l0.35 -2.50 13.25 0.20 c7.30 0.10 13.35 0.25 13.40 0.30 0.10 0.10 0.20 5.20 0.25 11.35 l0.10 11.15 6.75 0.15 c3.70 0.05 6.95 0.35 7.25 0.65 0.50 0.50 0.45 38.25 -0.05 40.10 -0.25 0.75 -1.05 0.85 -7.50 0.85 l-7.20 0 0 7.40 c0 4.10 -0.15 9.15 -0.30 11.25 l-0.35 3.85 -13.20 0 c-10.10 0 -13.25 -0.15 -13.40 -0.60z m17.60 -10.45 c2.10 -0.80 3.60 -2.40 4.20 -4.55 0.70 -2.60 -0.10 -4.90 -2.35 -6.85 l-1.70 -1.50 0 -8.55 c0 -6.45 0.15 -8.50 0.65 -8.55 0.30 0 2.65 0 5.10 0.05 4.30 0.05 4.55 0.10 5.75 1.45 1.45 1.70 3.95 3.05 5.60 3.05 4.75 0 7.95 -6.20 5.40 -10.35 -2.45 -4.10 -8.80 -4.15 -11.20 -0.10 l-0.90 1.50 -5.05 -0.15 -5.10 -0.15 0.15 -8.50 0.20 -8.50 1.45 -1.25 c0.75 -0.70 1.80 -2.15 2.25 -3.20 0.70 -1.80 0.70 -2.10 -0.05 -4.10 -1.10 -2.95 -3 -4.20 -6.20 -4.20 -2.20 0 -2.75 0.20 -4.20 1.70 -1 0.95 -1.80 2.40 -1.95 3.25 -0.30 2.20 0.80 5.10 2.60 6.55 l1.55 1.25 -0.15 8.50 -0.15 8.50 -4.25 0.15 c-5.65 0.20 -7.20 -0.10 -8.05 -1.70 -0.35 -0.70 -1.55 -1.75 -2.65 -2.30 -3.50 -1.80 -7.30 -0.30 -9.05 3.55 -0.75 1.75 -0.80 2.35 -0.35 3.95 1.70 5.55 8.30 6.80 12.05 2.25 l1.40 -1.70 5.45 0.15 5.45 0.15 -0.15 8.75 c-0.10 5.55 -0.35 8.80 -0.70 8.95 -0.30 0.10 -1.25 0.80 -2.10 1.55 -1.40 1.30 -1.55 1.70 -1.55 4.40 0 2.55 0.20 3.25 1.25 4.35 1.30 1.45 3.65 2.70 5.10 2.75 0.45 0 1.45 -0.25 2.25 -0.55z"/>
  <path d="M83.55 77.70 c-1.40 -1.80 -1.35 -3.95 0.20 -5.45 2.50 -2.55 6.75 -0.85 6.75 2.70 0 3.80 -4.70 5.60 -6.95 2.75z"/>
  <path d="M66 52.65 c-1.65 -0.60 -2.50 -1.85 -2.50 -3.65 0 -2.95 2.40 -4.45 5.25 -3.30 2.90 1.20 3.05 5.10 0.25 6.55 -1.55 0.80 -1.80 0.85 -3 0.40z"/>
  <path d="M103 52 c-1.50 -1.50 -1.35 -4.15 0.30 -5.45 0.75 -0.60 1.85 -1.05 2.45 -1.05 1.90 0 3.75 1.85 3.75 3.80 0 2.25 -1.45 3.70 -3.75 3.70 -1.10 0 -2.15 -0.40 -2.75 -1z"/>
  <path d="M85.10 25.70 c-1.40 -0.95 -1.50 -3.70 -0.20 -4.85 1.25 -1.10 3.75 -1.05 4.75 0.05 0.50 0.50 0.85 1.60 0.85 2.45 0 2.75 -2.95 4.05 -5.40 2.35z"/>
  <path d="M26.55 91.55 c-0.60 -0.40 -0.65 -2.35 -0.35 -12.05 l0.35 -11.55 -5.40 -5.55 c-2.95 -3.10 -6.70 -6.90 -8.25 -8.55 -1.60 -1.60 -2.80 -3.10 -2.70 -3.30 0.10 -0.15 5.50 -0.25 12 -0.15 l11.80 0.15 0 10.75 0 10.70 -1.25 0.60 c-4.45 2 -4.15 9.40 0.45 11.60 2.10 1 2.80 1 5.30 0 4.80 -1.95 5.35 -7.85 1.05 -11.50 l-1.55 -1.30 0.30 -10.05 c0.20 -5.55 0.50 -10.30 0.75 -10.55 0.20 -0.25 3.80 -0.25 8.15 -0.05 l7.80 0.35 0 8.65 c0 6.40 -0.15 8.80 -0.60 9.10 -0.35 0.20 -2.35 0.40 -4.40 0.40 l-3.75 0 -0.30 3.75 c-0.20 2.05 -0.35 7.20 -0.40 11.40 l-0.05 7.60 -9.10 0 c-5.05 0 -9.45 -0.20 -9.85 -0.45z"/>
  <path d="M131.50 81.35 c0 -12.65 0.95 -11.30 -8 -11.50 l-5.75 -0.10 0.15 -20.25 c0.15 -14.70 0.35 -20.35 0.75 -20.65 0.35 -0.25 3.20 -0.30 6.40 -0.20 3.20 0.15 6.05 0.10 6.30 -0.10 0.30 -0.15 0.60 -4.40 0.80 -10.40 0.10 -5.50 0.35 -10.30 0.55 -10.55 0.40 -0.65 5.40 0.45 9.95 2.20 l3.40 1.30 -0.35 26.35 c-0.15 14.45 -0.45 31.95 -0.65 38.80 l-0.30 12.50 -4.20 1.40 c-2.30 0.80 -5.30 1.55 -6.60 1.70 l-2.45 0.30 0 -10.80z m6.60 -25.20 c3.25 -3.20 5.90 -6.20 5.90 -6.60 0 -0.95 -11.50 -12.55 -12.45 -12.55 -1 0 -12.55 11.50 -12.55 12.50 0 0.95 11.50 12.50 12.45 12.50 0.40 0 3.35 -2.65 6.65 -5.85z"/>
  <path d="M128.25 52.45 l-3 -3.05 3.20 -2.95 3.25 -3 2.90 2.90 c1.60 1.55 2.90 3.10 2.90 3.40 0 0.45 -5.60 5.75 -6.10 5.75 -0.10 0 -1.50 -1.35 -3.15 -3.05z"/>
  <path d="M149.50 76 l0 -10 2.25 0 2.25 0 0 2.45 c0 2.20 -0.15 2.55 -1.75 3.75 -1 0.75 -1.65 1.60 -1.50 1.85 0.40 0.60 10.25 0.60 10.25 0 0 -0.25 -0.80 -1.05 -1.80 -1.80 -1.60 -1.25 -1.75 -1.50 -1.60 -3.65 l0.15 -2.35 4.15 -0.15 c3.70 -0.15 4.10 -0.05 4.10 0.80 0 1.15 -3.90 7.50 -6.65 10.75 -1.75 2.15 -8.95 8.35 -9.65 8.35 -0.10 0 -0.20 -4.50 -0.20 -10z"/>
  <path d="M33.30 80.40 c-1.10 -1.55 -1 -3.20 0.20 -4.40 2.05 -2.05 6 -0.60 6 2.25 0 2.95 -4.55 4.50 -6.20 2.15z"/>
  <path d="M150.40 61.65 c-0.80 -0.20 -0.90 -1.05 -0.85 -8.80 0.05 -4.75 0.20 -9.95 0.40 -11.60 0.30 -2.85 0.40 -3 1.70 -3.15 2.80 -0.35 2.85 -0.05 2.50 12.10 -0.20 7.15 -0.50 11.20 -0.85 11.40 -0.60 0.40 -1.50 0.40 -2.90 0.05z"/>
  <path d="M162.75 61.40 c-0.15 -0.35 -0.20 -5.60 -0.15 -11.60 0.10 -8.25 0.30 -11 0.80 -11.20 0.75 -0.25 0.90 22.65 0.10 23.15 -0.30 0.15 -0.60 0 -0.75 -0.35z"/>
  <path d="M157.50 50.65 c0 -10.50 0.35 -13 1.45 -11.90 0.85 0.85 0.10 22.75 -0.80 22.75 -0.50 0 -0.65 -2.10 -0.65 -10.85z"/>
  <path d="M167.55 50.40 c-0.05 -10.30 0.25 -12.95 1.15 -10.65 0.15 0.45 0.55 2.80 0.85 5.25 0.60 4.95 -0.05 12.30 -1.25 15.15 -0.65 1.45 -0.70 0.40 -0.75 -9.75z"/>
  <path d="M20.15 46.15 c-5.60 -0.10 -10.15 -0.35 -10.15 -0.60 0 -0.20 3.55 -3.85 7.90 -8.10 4.35 -4.25 8.10 -8.05 8.35 -8.45 0.30 -0.40 0.60 -6.05 0.75 -12.50 l0.25 -11.75 1.50 -0.20 c0.85 -0.05 5.15 0 9.60 0.20 l8.15 0.35 0.10 11.35 0.15 11.30 4 0.15 c2.20 0.10 4.20 0.35 4.40 0.55 0.20 0.20 0.25 4.40 0.05 9.25 l-0.35 8.80 -7.40 0 c-4.05 0 -7.70 -0.15 -8.15 -0.30 -0.70 -0.25 -0.80 -1.65 -0.80 -10.30 l0 -10 1.80 -1.55 c3.15 -2.80 4 -5.85 2.45 -8.85 -1.20 -2.35 -3.10 -3.50 -5.75 -3.50 -6.55 0 -9.25 7.10 -4.45 11.55 l2 1.85 -0.10 9.90 c-0.05 5.70 -0.30 10.20 -0.60 10.60 -0.25 0.30 -1.20 0.55 -2.05 0.50 -0.85 -0.10 -6.10 -0.20 -11.65 -0.25z"/>
  <path d="M150.35 33.70 c-0.50 -0.55 -0.45 -19.10 0.10 -19.45 0.60 -0.35 6.05 4 8.45 6.80 3.25 3.75 7.60 10.85 7.60 12.45 0 0.30 -1.65 0.50 -4.25 0.50 l-4.25 0 0 -2.75 c0 -2.65 0.10 -2.85 1.75 -3.80 3.15 -1.90 2.35 -2.45 -3.50 -2.45 -5.90 0 -6.65 0.55 -3.45 2.45 1.70 1 1.75 1.15 1.60 3.65 -0.15 2.65 -0.15 2.65 -1.90 2.80 -1 0.10 -1.95 0 -2.15 -0.20z"/>
  <path d="M34 20.90 c-2.15 -2.30 -0.40 -5.90 2.90 -5.90 3.05 0 4.65 3.30 2.80 5.90 -1.05 1.55 -4.25 1.55 -5.70 0z"/>
  <path d="M113.95 12.10 c-2.35 -1.95 -0.80 -6.10 2.35 -6.10 1.65 0 3.20 1.70 3.20 3.50 0 3 -3.20 4.50 -5.55 2.60z"/>
 </g>
</svg>
