<?xml version="1.0" encoding="utf-8"?>
<!DOCTYPE svg PUBLIC "-//W3C//DTD SVG 1.0//EN" "http://www.w3.org/TR/2001/REC-SVG-20010904/DTD/svg10.dtd">
<svg version="1.0" xmlns="http://www.w3.org/2000/svg" width="164px" height="150px" viewBox="0 0 164 150" preserveAspectRatio="xMidYMid meet">
 <g fill="#000000">
  <path d="M50.70 148.30 c-1.75 -0.75 -3.45 -2.95 -3.95 -4.95 -0.50 -1.95 0.70 -4.90 2.80 -6.85 l1.85 -1.75 0.35 -17.35 0.35 -17.30 -2.15 -0.35 c-1.25 -0.20 -6.70 -0.25 -12.20 -0.15 -11.30 0.15 -11.50 0.25 -15.40 4.15 -2.40 2.40 -4.85 6.85 -4.85 8.85 0 1.85 1.15 3.05 3.80 3.90 1.85 0.55 2.45 1 2.45 1.75 0 2.25 -5.80 1.30 -7.95 -1.30 -1.05 -1.25 -1.30 -2.05 -1.30 -4.40 0 -5.50 4.40 -11.70 10.40 -14.75 2.55 -1.30 2.65 -1.30 14.80 -1.30 13.65 0 12.80 0.25 12.80 -3.75 0 -1.25 -0.30 -2.35 -0.70 -2.75 -0.55 -0.40 -4.05 -0.55 -13.15 -0.40 l-12.40 0.15 -4.90 2.20 c-3.40 1.50 -5.65 2.90 -7.30 4.50 -3.15 3.05 -3.45 4.30 -1.50 6.10 0.85 0.80 1.40 1.65 1.20 1.95 -0.60 0.95 -2.65 0.50 -3.70 -0.80 -3 -3.80 0.85 -9.90 8.70 -13.85 6 -3 8.30 -3.35 21.55 -3.35 l12.20 0 0 -4.70 c0 -3.80 -0.15 -4.75 -0.80 -5 -0.45 -0.15 -7.75 -0.30 -16.30 -0.30 -15.30 0 -15.50 0 -19.30 1.30 -4.70 1.55 -8.25 4.20 -9.65 7.05 -1.30 2.65 -1 4.25 1.15 6.50 1.75 1.80 1.60 3.15 -0.25 3.15 -3.05 0 -5.20 -3.75 -4.60 -7.90 0.70 -4.70 3.15 -7.85 8.25 -10.55 5 -2.65 7.65 -2.95 25.40 -2.65 l15.95 0.25 0.35 -4.95 c0.30 -4.30 0.25 -5 -0.50 -5.55 -0.60 -0.45 -5.15 -0.60 -16.85 -0.65 l-16 0 -4.70 1.55 c-5.75 1.90 -10.25 5 -11.15 7.65 -0.65 2.05 -0.10 3.55 1.55 4.05 1.30 0.45 1.05 1.95 -0.35 2.15 -0.60 0.10 -1.75 -0.45 -2.70 -1.20 -1.50 -1.30 -1.60 -1.55 -1.40 -3.95 0.15 -1.65 0.65 -3.20 1.40 -4.25 1.65 -2.35 6.40 -5.65 10.85 -7.55 l3.90 -1.70 18 -0.05 18 -0.05 0.15 -1.75 0.15 -1.75 -4.15 -0.30 c-2.30 -0.20 -11.10 -0.35 -19.65 -0.35 -18.25 0 -17.90 -0.05 -23.25 5.50 -2.75 2.85 -3.50 3.40 -3.95 2.80 -0.45 -0.50 -0.10 -1.35 1.45 -3.70 1.10 -1.65 2.85 -3.75 3.85 -4.65 3.75 -3.25 3.30 -3.20 25.45 -3 l20.05 0.15 0.35 -8.60 c0.30 -6.20 0.25 -8.75 -0.20 -9.20 -0.35 -0.35 -3.80 -0.60 -9.70 -0.75 l-9.20 -0.15 -0.85 1.50 c-1.20 2 -3.25 3.10 -5.85 3.10 -3.95 0 -6.90 -2.85 -6.90 -6.75 0 -7.10 9.35 -9.30 13 -3.05 l1 1.65 7.60 0.30 c4.15 0.20 12.45 0.35 18.40 0.35 l10.90 0 0.60 -1.45 c1.95 -4.80 7.95 -5.75 11.45 -1.80 2.85 3.25 1.75 8.60 -2.10 10.40 -3.20 1.55 -6.70 0.70 -8.80 -2.15 l-1.10 -1.50 -6.90 0 -6.90 0 -0.25 8.90 c-0.15 4.85 -0.15 8.95 -0.05 9.10 0.10 0.10 8.85 0.30 19.45 0.40 l19.20 0.20 0.05 -8.90 c0.10 -13.75 0.10 -13.70 -1.30 -17.70 -2.90 -8.10 -6 -11.65 -12.55 -14.50 l-3.80 -1.65 -1.20 1.50 c-2.65 3.40 -7.45 3.75 -10.35 0.75 -4.85 -5.05 -0.10 -13.15 6.60 -11.20 2.45 0.75 4.45 2.75 4.85 4.90 0.25 1.30 0.65 1.80 1.65 2.05 3.40 0.80 8.65 3.70 11 6.05 3.05 3.05 4.80 6.40 7.85 15.10 0.15 0.50 0.90 -0.30 2.20 -2.30 2 -3.15 6.60 -7.55 10.40 -9.90 1.45 -0.90 2.10 -1.65 2.10 -2.45 0 -1.50 1.65 -4.10 3.30 -5.15 1.75 -1.20 5.55 -1.15 7.35 0.05 1.65 1.05 3.35 4.15 3.35 6 0 3 -2.85 6.20 -5.90 6.60 -2.65 0.35 -4.20 -0.05 -6.10 -1.65 -1.55 -1.35 -1.55 -1.35 -3.50 -0.45 -1.10 0.50 -2.95 1.85 -4.15 3 -2.95 2.80 -7.55 9.10 -8.30 11.20 -0.30 1 -0.55 5.15 -0.55 10.05 l0 8.40 2.40 0.25 c1.30 0.10 8.15 0.25 15.20 0.30 12.20 0.10 12.95 0 15.10 -1 2.30 -1.05 3.90 -2.65 5.95 -5.90 0.75 -1.15 1.80 -1.95 3.20 -2.40 2.35 -0.80 5.95 -4.35 6.45 -6.35 0.80 -3.20 -1.75 -5.70 -5.10 -5.05 -1.85 0.30 -3.40 2.10 -3.10 3.60 0.30 1.55 1.90 1.35 3.35 -0.40 1.45 -1.70 2.55 -1.65 2.55 0.15 0 1.40 -3.10 4.40 -4.65 4.40 -0.65 0 -1.80 -0.45 -2.45 -1 -2.80 -2.15 -1.80 -6.75 1.80 -8.50 4.30 -2.05 8.55 -0.70 10.05 3.25 0.80 2.05 0.80 2.25 -0.15 4.35 -0.50 1.20 -2 3.40 -3.30 4.80 l-2.30 2.65 0.80 1.85 c2.90 6.60 4.20 12.90 4.20 20.15 0 1.80 0.10 3.40 0.25 3.55 0.15 0.15 1.10 -0.15 2.15 -0.65 2.40 -1.25 4.90 -1.20 7.30 0.20 2.55 1.40 3.90 3.75 3.95 6.75 0.05 4.80 -2.95 7.85 -7.75 7.85 -2.15 0 -3.20 -0.25 -4.35 -1.10 -0.80 -0.65 -1.60 -0.95 -1.70 -0.75 -0.15 0.20 -0.40 1.70 -0.55 3.35 -0.55 4.50 -2.10 9.30 -5.10 15.65 l-2.70 5.70 2.20 2.45 c2.55 2.85 4.05 6.30 3.60 8.15 -0.50 1.95 -3.50 4.70 -5.60 5.10 -2.85 0.55 -5.25 -0.30 -6.55 -2.25 -2.45 -3.60 -0.85 -7.55 3.05 -7.55 2.20 0 4.30 1.80 4.30 3.75 0 1.70 -1.70 1.70 -2.80 0 -1.65 -2.50 -4.30 -0.85 -2.90 1.80 0.80 1.60 2.90 2.20 4.95 1.45 1.90 -0.70 2.70 -1.90 2.75 -3.90 0 -1.40 -0.70 -2.35 -4.60 -6.50 -7.25 -7.55 -8.15 -8.35 -10.05 -9.25 -1.55 -0.75 -3.50 -0.85 -16.20 -0.75 l-14.40 0.15 -0.15 4.25 c-0.40 11.35 3.65 19.10 12.30 23.45 3.40 1.75 4.40 1.85 5.80 0.80 0.55 -0.40 2.05 -0.75 3.40 -0.75 1.95 0 2.70 0.30 4.15 1.55 3.30 2.95 3.45 7.15 0.25 10.20 -2.05 1.95 -5.75 2.30 -8.15 0.80 -2.25 -1.35 -3.55 -4.10 -3.20 -6.60 l0.25 -1.90 -4.25 -2.35 c-5.15 -2.90 -9 -6.90 -11 -11.50 -0.75 -1.75 -1.50 -3.20 -1.65 -3.20 -0.15 0 -1.05 1.40 -2 3.10 -0.95 1.70 -3.05 4.50 -4.70 6.25 -2.40 2.60 -3.80 3.60 -8.35 5.75 -4.50 2.20 -5.40 2.85 -5.45 3.80 0 0.60 -0.90 2 -2 3.10 -1.85 1.85 -2.20 2 -4.75 2 -2.30 0 -2.95 -0.20 -4.50 -1.55 -4.90 -4.35 -2 -11.95 4.60 -11.95 2.15 0 4.80 1.40 5.65 2.95 0.75 1.45 1.85 1.30 5.85 -0.70 8.70 -4.35 15.15 -14.55 15.15 -24 l0 -3.60 -3.35 -0.30 c-4.75 -0.45 -35.55 -0.45 -35.80 0.05 -0.15 0.20 -0.40 8.15 -0.60 17.65 -0.40 16.95 -0.35 17.35 0.60 17.65 3.55 1.15 5.35 6.75 3.10 10 -0.60 0.90 -1.55 1.95 -2.05 2.25 -1.50 0.95 -5 1.15 -6.70 0.35z m6.35 -2.70 c1.25 -1.15 1.60 -1.80 1.65 -3.55 0.05 -1.80 -0.20 -2.35 -1.60 -3.60 -3.35 -3 -8.60 -0.80 -8.60 3.55 0 1.40 1.30 3.85 2.35 4.45 1.75 1 4.55 0.65 6.20 -0.85z m64.15 -5.80 c3.35 -1.40 4.35 -5 2.05 -7.70 -1.55 -1.85 -3.80 -2.35 -6 -1.30 -3 1.40 -3.75 5.60 -1.35 7.80 2.15 2 2.95 2.20 5.30 1.20z m-49.15 -3.10 c4.05 -3.65 0.25 -10.35 -4.90 -8.65 -4.40 1.45 -4.65 7.65 -0.40 9.50 1.40 0.60 4.20 0.15 5.30 -0.85z m66.95 -33.55 c2 -3.40 5.60 -12.80 6.30 -16.60 1.20 -6.15 0.85 -22.90 -0.60 -30.30 -0.55 -2.75 -3.30 -8.75 -4 -8.75 -0.35 0 -1.10 0.85 -1.65 1.95 -1.15 2.15 -3.25 4.15 -6.10 5.55 -1.65 0.85 -2.95 1 -9.90 1 -4.40 0 -8.10 0.15 -8.20 0.40 -0.15 0.20 -0.30 4.30 -0.40 9.10 l-0.20 8.75 4.50 0 4.50 0 0.15 -2.80 c0.10 -2.25 -0.05 -2.90 -0.90 -3.70 -0.55 -0.50 -1 -1.30 -1 -1.85 0 -0.80 0.40 -0.90 3.20 -0.90 1.80 0 3.40 0.25 3.55 0.50 0.15 0.30 -0.15 1.10 -0.70 1.80 -0.80 1 -1.05 2.05 -1.05 4.25 l0 2.95 2.65 0 c2.20 0 2.90 -0.20 3.85 -1.25 0.60 -0.65 1.35 -1.10 1.55 -0.95 0.65 0.40 0.55 7.10 -0.10 7.50 -0.30 0.15 -1.15 -0.30 -1.95 -1.05 -1.15 -1.10 -1.75 -1.30 -3.55 -1.15 l-2.20 0.15 -0.15 3.65 c-0.15 3.30 -0.05 3.80 1.15 5.20 1 1.20 1.15 1.65 0.65 1.95 -1.30 0.85 -7.40 0.40 -7.40 -0.55 0 -0.20 0.55 -0.95 1.25 -1.75 1.15 -1.20 1.30 -1.70 1.15 -4.90 l-0.15 -3.60 -4.50 0 -4.50 0 -0.15 9.90 -0.10 9.85 7.20 0 c6.90 0 7.30 0.05 9.85 1.40 1.70 0.85 3.35 2.25 4.45 3.75 0.95 1.30 1.90 2.35 2.05 2.35 0.20 0 0.85 -0.85 1.45 -1.85z m-28.60 -6.30 c0.45 -0.55 0.60 -3.35 0.50 -9.90 l-0.15 -9.20 -6.15 -0.15 -6.15 -0.15 0.15 1.90 c0.15 1.75 0.30 1.90 1.75 2.05 0.85 0.10 2.25 -0.20 3.05 -0.60 0.80 -0.40 1.60 -0.60 1.80 -0.45 0.45 0.50 0.35 5.05 -0.15 5.35 -0.20 0.15 -0.85 -0.05 -1.35 -0.45 -0.50 -0.40 -1.90 -0.75 -3.05 -0.75 l-2.10 0 -0.15 5.40 c-0.10 2.95 -0.05 5.75 0.05 6.20 0.20 1.05 0.70 1.15 6.60 1.35 3.70 0.10 4.90 -0.05 5.35 -0.60z m-15 -3.15 l0.15 -3.05 -8.35 -0.30 c-4.60 -0.20 -13.35 -0.35 -19.45 -0.35 l-11.10 0 -0.30 2.50 c-0.15 1.40 -0.20 2.85 -0.05 3.25 0.40 0.95 2.90 1.05 22.45 1.05 l16.50 -0.05 0.15 -3.05z m0.10 -8 c0 -1.25 0 -1.30 -3.35 -1.05 -1.90 0.10 -3.90 0.35 -4.50 0.60 -1.10 0.35 -1.15 0.25 -1.15 -2.45 0 -3.05 0.25 -3.20 2.55 -2 0.90 0.45 2.45 0.70 3.85 0.60 2.30 -0.15 2.35 -0.15 2.50 -2 0.15 -1.60 0 -1.90 -1 -2.15 -0.65 -0.15 -9.35 -0.20 -19.40 -0.15 l-18.25 0.15 -0.15 4.60 -0.15 4.60 3.15 0.20 c1.75 0.10 10.50 0.20 19.55 0.25 l16.35 0.10 0 -1.30z m63.65 -4.70 c1.30 -1.45 1.45 -1.90 1.20 -3.95 -0.35 -3.05 -2.45 -5.05 -5.40 -5.05 -1.65 0 -2.35 0.30 -3.75 1.70 -1.40 1.40 -1.70 2.10 -1.70 3.80 0 1.75 0.30 2.40 1.75 3.85 1.65 1.65 1.95 1.75 4.10 1.50 1.85 -0.20 2.70 -0.60 3.80 -1.85z m-48.80 -6.90 c0.40 -0.25 0.60 -2.85 0.65 -8.60 0.05 -4.55 0.05 -8.55 0.05 -8.90 -0.05 -0.50 -1.45 -0.60 -6.15 -0.50 l-6.15 0.15 0 5.50 0 5.50 2.45 0.15 c1.35 0.10 2.70 -0.10 2.95 -0.35 1.25 -1.25 1.85 -0.55 1.85 2 0 2.55 0 2.55 -1.35 2.20 -0.80 -0.20 -2.40 -0.40 -3.65 -0.45 -2.20 -0.05 -2.25 0 -2.25 1.45 l0 1.50 3.75 0.30 c6.05 0.45 7.20 0.45 7.85 0.05z m-14.70 -1.15 c0.55 -2.10 -0.05 -2.55 -3.35 -2.30 -1.65 0.15 -3.50 0.30 -4.05 0.40 -0.85 0.15 -1 -0.10 -1.15 -1.95 -0.15 -2.25 0.85 -3.35 2.05 -2.15 0.90 0.90 6.20 0.70 6.55 -0.25 0.55 -1.45 0.30 -2.65 -0.60 -3.15 -0.55 -0.30 -8.60 -0.50 -19.50 -0.55 l-18.60 -0.05 -0.10 2.40 c0 1.30 -0.10 3.65 -0.10 5.15 l-0.05 2.75 4 0.30 c2.20 0.15 10.90 0.30 19.30 0.35 15.20 0.10 15.35 0.10 15.60 -0.95z m0.25 -15 l0.15 -1.80 -3.85 -0.30 c-2.10 -0.20 -10.90 -0.35 -19.55 -0.35 l-15.70 0 0.15 1.90 0.15 1.85 16.50 0.25 c9.10 0.15 17.75 0.30 19.25 0.25 l2.75 0 0.15 -1.80z m-64.75 -23.45 c2.35 -2.60 1.60 -6.05 -1.70 -7.80 -3.15 -1.60 -6.95 0.80 -6.95 4.40 0 2.45 0.65 3.65 2.40 4.65 2 1.10 4.55 0.60 6.25 -1.25z m49.95 1.45 c1.60 -0.85 2.55 -3.70 1.90 -5.75 -1.10 -3.25 -4 -4.50 -7 -2.95 -4.40 2.30 -2.80 9.25 2.15 9.25 1.05 0 2.35 -0.25 2.95 -0.55z m43.05 -17.45 c2.20 -2.40 1.65 -6 -1.15 -7.65 -1.75 -1.05 -3.10 -1.05 -5 -0.10 -1.85 0.95 -2.50 2.15 -2.50 4.60 0 1.50 0.35 2.25 1.40 3.25 0.75 0.70 1.70 1.40 2.10 1.55 1.45 0.60 3.75 -0.15 5.15 -1.65z m-50.15 -6.75 c4.45 -2.30 2.70 -9.25 -2.35 -9.25 -4.50 0.05 -6.75 5.40 -3.50 8.35 1.95 1.80 3.65 2.05 5.85 0.90z"/>
  <path d="M123.10 95.20 c-2.10 -1.45 -0.80 -5.20 1.80 -5.20 1.15 0 3.10 2.35 2.75 3.35 -0.90 2.55 -2.60 3.25 -4.55 1.85z"/>
  <path d="M138.45 78.45 c-1.30 -1.30 -1.05 -2.85 0.60 -4.10 1.20 -0.85 1.50 -0.90 2.75 -0.30 1 0.50 1.50 1.15 1.60 2.10 0.35 2.90 -2.85 4.40 -4.95 2.30z"/>
  <path d="M123 62.50 c-0.55 -0.55 -1 -1.45 -1 -2 0 -0.55 0.45 -1.45 1 -2 0.55 -0.55 1.45 -1 2 -1 0.55 0 1.45 0.45 2 1 0.55 0.55 1 1.45 1 2 0 0.55 -0.45 1.45 -1 2 -0.55 0.55 -1.45 1 -2 1 -0.55 0 -1.45 -0.45 -2 -1z"/>
 </g>
 <g fill="none">
  <path d="M0 75 l0 -75 82 0 82 0 0 75 0 75 -82 0 -82 0 0 -75z m57.40 72.95 c0.50 -0.30 1.45 -1.35 2.05 -2.25 2.25 -3.25 0.45 -8.85 -3.10 -10 -0.95 -0.30 -1 -0.70 -0.60 -17.65 0.20 -9.50 0.45 -17.45 0.60 -17.65 0.25 -0.50 31.05 -0.50 35.80 -0.05 l3.35 0.30 0 3.60 c0 9.45 -6.45 19.65 -15.15 24 -4 2 -5.10 2.15 -5.85 0.70 -0.85 -1.55 -3.50 -2.95 -5.65 -2.95 -6.60 0 -9.50 7.60 -4.60 11.95 1.55 1.35 2.20 1.55 4.50 1.55 2.55 0 2.90 -0.15 4.75 -2 1.10 -1.10 2 -2.50 2 -3.10 0.05 -0.95 0.95 -1.60 5.45 -3.80 4.55 -2.15 5.95 -3.15 8.35 -5.75 1.65 -1.75 3.75 -4.55 4.70 -6.25 0.95 -1.70 1.85 -3.10 2 -3.10 0.15 0 0.90 1.45 1.65 3.20 2 4.60 5.85 8.60 11 11.50 l4.25 2.35 -0.25 1.90 c-0.35 2.50 0.95 5.25 3.20 6.60 2.40 1.50 6.10 1.15 8.15 -0.80 3.20 -3.05 3.05 -7.25 -0.25 -10.20 -1.45 -1.25 -2.20 -1.55 -4.15 -1.55 -1.35 0 -2.85 0.35 -3.40 0.75 -1.40 1.05 -2.40 0.95 -5.80 -0.80 -8.65 -4.35 -12.70 -12.10 -12.30 -23.45 l0.15 -4.25 14.40 -0.15 c12.70 -0.10 14.65 0 16.20 0.75 1.90 0.90 2.80 1.70 10.05 9.25 3.90 4.15 4.60 5.10 4.60 6.50 -0.05 2 -0.85 3.20 -2.75 3.90 -2.05 0.75 -4.15 0.15 -4.95 -1.45 -1.40 -2.65 1.25 -4.30 2.90 -1.80 1.10 1.70 2.80 1.70 2.80 0 0 -1.95 -2.10 -3.75 -4.30 -3.75 -3.90 0 -5.50 3.95 -3.05 7.55 1.30 1.95 3.70 2.80 6.55 2.25 2.10 -0.40 5.10 -3.15 5.60 -5.10 0.45 -1.85 -1.05 -5.30 -3.60 -8.15 l-2.20 -2.45 2.70 -5.70 c3 -6.35 4.55 -11.15 5.10 -15.65 0.15 -1.65 0.40 -3.15 0.55 -3.35 0.10 -0.20 0.90 0.10 1.70 0.75 1.15 0.85 2.20 1.10 4.35 1.10 4.80 0 7.80 -3.05 7.75 -7.85 -0.05 -3 -1.40 -5.35 -3.95 -6.75 -2.40 -1.40 -4.90 -1.45 -7.30 -0.20 -1.05 0.50 -2 0.80 -2.15 0.65 -0.15 -0.15 -0.25 -1.75 -0.25 -3.55 0 -7.25 -1.30 -13.55 -4.20 -20.15 l-0.80 -1.85 2.30 -2.65 c1.30 -1.40 2.80 -3.60 3.30 -4.80 0.95 -2.10 0.95 -2.30 0.15 -4.35 -1.50 -3.95 -5.75 -5.30 -10.05 -3.25 -3.60 1.75 -4.60 6.35 -1.80 8.50 0.65 0.55 1.80 1 2.45 1 1.55 0 4.65 -3 4.65 -4.40 0 -1.80 -1.10 -1.85 -2.55 -0.15 -1.45 1.75 -3.05 1.95 -3.35 0.40 -0.30 -1.50 1.25 -3.30 3.10 -3.60 3.35 -0.65 5.90 1.85 5.10 5.05 -0.50 2 -4.10 5.55 -6.45 6.35 -1.40 0.45 -2.45 1.25 -3.20 2.40 -2.05 3.25 -3.65 4.85 -5.95 5.90 -2.15 1 -2.90 1.10 -15.10 1 -7.05 -0.05 -13.90 -0.20 -15.20 -0.30 l-2.40 -0.25 0 -8.40 c0 -4.90 0.25 -9.05 0.55 -10.05 0.75 -2.10 5.35 -8.40 8.30 -11.20 1.20 -1.15 3.05 -2.50 4.15 -3 1.95 -0.90 1.95 -0.90 3.50 0.45 1.90 1.60 3.45 2 6.10 1.65 3.05 -0.40 5.90 -3.60 5.90 -6.60 0 -1.85 -1.70 -4.95 -3.35 -6 -1.80 -1.20 -5.60 -1.25 -7.35 -0.05 -1.65 1.05 -3.30 3.65 -3.30 5.15 0 0.80 -0.65 1.55 -2.10 2.45 -3.80 2.35 -8.40 6.75 -10.40 9.90 -1.30 2 -2.05 2.80 -2.20 2.30 -3.05 -8.70 -4.80 -12.05 -7.85 -15.10 -2.35 -2.35 -7.60 -5.25 -11 -6.05 -1 -0.25 -1.40 -0.75 -1.65 -2.05 -0.40 -2.15 -2.40 -4.15 -4.85 -4.90 -6.70 -1.95 -11.45 6.15 -6.60 11.20 2.90 3 7.70 2.65 10.35 -0.75 l1.20 -1.50 3.80 1.65 c6.55 2.85 9.65 6.40 12.55 14.50 1.40 4 1.40 3.95 1.30 17.70 l-0.05 8.90 -19.20 -0.20 c-10.60 -0.10 -19.35 -0.30 -19.45 -0.40 -0.10 -0.15 -0.10 -4.25 0.05 -9.10 l0.25 -8.90 6.90 0 6.90 0 1.10 1.50 c2.10 2.85 5.60 3.70 8.80 2.15 2.35 -1.10 3.65 -3.30 3.65 -6.25 0 -1.95 -0.30 -2.70 -1.55 -4.15 -3.50 -3.95 -9.50 -3 -11.45 1.80 l-0.60 1.45 -10.90 0 c-5.95 0 -14.25 -0.15 -18.40 -0.35 l-7.60 -0.30 -1 -1.65 c-3.65 -6.25 -13 -4.05 -13 3.05 0 6.75 9.30 9.45 12.75 3.65 l0.85 -1.50 9.20 0.15 c5.90 0.15 9.35 0.40 9.70 0.75 0.45 0.45 0.50 3 0.20 9.20 l-0.35 8.60 -20.05 -0.15 c-22.15 -0.20 -21.70 -0.25 -25.45 3 -1 0.90 -2.75 3 -3.85 4.65 -1.55 2.35 -1.90 3.20 -1.45 3.70 0.45 0.60 1.20 0.05 3.95 -2.80 5.35 -5.55 5 -5.50 23.25 -5.50 8.55 0 17.35 0.15 19.65 0.35 l4.15 0.30 -0.15 1.75 -0.15 1.75 -18 0.05 -18 0.05 -3.90 1.70 c-4.45 1.90 -9.20 5.20 -10.85 7.55 -0.75 1.05 -1.25 2.60 -1.40 4.25 -0.20 2.40 -0.10 2.65 1.40 3.95 0.95 0.75 2.10 1.30 2.70 1.20 1.40 -0.20 1.65 -1.70 0.35 -2.15 -1.65 -0.50 -2.20 -2 -1.55 -4.05 0.90 -2.65 5.40 -5.75 11.15 -7.65 l4.70 -1.55 16 0 c11.70 0.05 16.25 0.20 16.85 0.65 0.75 0.55 0.80 1.25 0.50 5.55 l-0.35 4.95 -15.95 -0.25 c-17.75 -0.30 -20.40 0 -25.40 2.65 -5.10 2.70 -7.55 5.85 -8.25 10.55 -0.60 4.15 1.55 7.90 4.60 7.90 1.85 0 2 -1.35 0.25 -3.15 -2.15 -2.25 -2.45 -3.85 -1.15 -6.50 1.40 -2.85 4.95 -5.50 9.65 -7.05 3.80 -1.30 4 -1.30 19.30 -1.30 8.55 0 15.85 0.15 16.30 0.30 0.65 0.25 0.80 1.20 0.80 5 l0 4.70 -12.20 0 c-13.25 0 -15.55 0.35 -21.55 3.35 -5.95 3 -9.75 7.30 -9.75 11.05 0 1.90 1.75 4.10 3.25 4.10 1.85 0 1.95 -0.90 0.30 -2.45 -1.95 -1.80 -1.65 -3.05 1.50 -6.10 1.65 -1.60 3.90 -3 7.30 -4.50 l4.90 -2.20 12.40 -0.15 c9.10 -0.15 12.60 0 13.15 0.40 0.40 0.40 0.70 1.50 0.70 2.75 0 4 0.85 3.75 -12.80 3.75 -12.15 0 -12.25 0 -14.80 1.30 -6 3.05 -10.40 9.25 -10.40 14.75 0 2.35 0.25 3.15 1.30 4.40 2.15 2.60 7.95 3.55 7.95 1.30 0 -0.75 -0.60 -1.20 -2.45 -1.75 -2.65 -0.85 -3.80 -2.05 -3.80 -3.90 0 -2 2.45 -6.45 4.85 -8.85 3.90 -3.90 4.10 -4 15.40 -4.15 5.50 -0.10 10.95 -0.05 12.20 0.15 l2.15 0.35 -0.35 17.30 -0.35 17.35 -1.85 1.75 c-2.10 1.95 -3.30 4.90 -2.80 6.85 0.50 2 2.20 4.20 3.95 4.95 1.70 0.80 5.20 0.60 6.70 -0.35z"/>
  <path d="M50.85 146.45 c-0.45 -0.25 -1.20 -1.15 -1.60 -1.95 -2.70 -5.25 3.45 -10 7.85 -6.05 1.40 1.25 1.65 1.80 1.60 3.60 -0.05 1.75 -0.40 2.40 -1.65 3.55 -1.65 1.50 -4.45 1.85 -6.20 0.85z"/>
  <path d="M118 140.15 c-0.40 -0.15 -1.35 -0.85 -2.10 -1.55 -2.40 -2.20 -1.65 -6.40 1.35 -7.80 2.20 -1.05 4.45 -0.55 6 1.30 2.30 2.70 1.30 6.30 -2.05 7.70 -1.80 0.75 -2.05 0.75 -3.20 0.35z"/>
  <path d="M66.75 137.55 c-4.25 -1.85 -4 -8.05 0.40 -9.50 5.15 -1.70 8.95 5 4.90 8.65 -1.10 1 -3.90 1.45 -5.30 0.85z"/>
  <path d="M135.50 102.65 c-1.10 -1.50 -2.75 -2.90 -4.45 -3.75 -2.55 -1.35 -2.95 -1.40 -9.85 -1.40 l-7.20 0 0.10 -9.85 0.15 -9.90 4.50 0 4.50 0 0.15 3.60 c0.15 3.20 0 3.70 -1.15 4.90 -0.70 0.80 -1.25 1.55 -1.25 1.75 0 0.95 6.10 1.40 7.40 0.55 0.50 -0.30 0.35 -0.75 -0.65 -1.95 -1.20 -1.40 -1.30 -1.90 -1.15 -5.20 l0.15 -3.65 2.20 -0.15 c1.80 -0.15 2.40 0.05 3.55 1.15 0.80 0.75 1.65 1.20 1.95 1.05 0.65 -0.40 0.75 -7.10 0.10 -7.50 -0.20 -0.15 -0.95 0.30 -1.55 0.95 -0.95 1.05 -1.65 1.25 -3.85 1.25 l-2.65 0 0 -2.95 c0 -2.20 0.25 -3.25 1.05 -4.25 0.55 -0.70 0.85 -1.50 0.70 -1.80 -0.15 -0.25 -1.75 -0.50 -3.55 -0.50 -2.80 0 -3.20 0.10 -3.20 0.90 0 0.55 0.45 1.35 1 1.85 0.85 0.80 1 1.45 0.90 3.70 l-0.15 2.80 -4.50 0 -4.50 0 0.20 -8.75 c0.10 -4.80 0.25 -8.90 0.40 -9.10 0.10 -0.25 3.80 -0.40 8.20 -0.40 6.95 0 8.25 -0.15 9.90 -1 2.85 -1.40 4.95 -3.40 6.10 -5.55 0.55 -1.10 1.30 -1.95 1.65 -1.95 0.70 0 3.45 6 4 8.75 1.45 7.40 1.80 24.15 0.60 30.30 -1 5.35 -6.50 18.45 -7.75 18.45 -0.15 0 -1.10 -1.05 -2.05 -2.35z m-8.90 -7.50 c1.40 -1.65 1.45 -2.65 0.15 -3.95 -1.40 -1.40 -2.10 -1.50 -3.65 -0.40 -2.15 1.50 -0.80 5.20 1.95 5.20 0.45 0 1.15 -0.40 1.55 -0.85z m16.10 -16.60 c1.30 -1.45 0.85 -3.65 -0.90 -4.50 -1.25 -0.60 -1.55 -0.55 -2.75 0.30 -1.65 1.25 -1.90 2.80 -0.60 4.10 1.30 1.30 3.15 1.35 4.25 0.10z m-15.70 -16.05 c0.55 -0.55 1 -1.45 1 -2 0 -0.55 -0.45 -1.45 -1 -2 -0.55 -0.55 -1.45 -1 -2 -1 -0.55 0 -1.45 0.45 -2 1 -0.55 0.55 -1 1.45 -1 2 0 0.55 0.45 1.45 1 2 0.55 0.55 1.45 1 2 1 0.55 0 1.45 -0.45 2 -1z"/>
  <path d="M99.45 97.10 c-1.10 -0.20 -1.25 -0.95 -1.05 -7.20 l0.15 -5.40 2.10 0 c1.15 0 2.55 0.35 3.05 0.75 0.50 0.40 1.15 0.60 1.35 0.45 0.50 -0.30 0.60 -4.85 0.15 -5.35 -0.20 -0.15 -1 0.05 -1.80 0.45 -0.80 0.40 -2.20 0.70 -3.05 0.60 -1.45 -0.15 -1.60 -0.30 -1.75 -2.05 l-0.15 -1.90 6.15 0.15 6.15 0.15 0.15 9.20 c0.10 6.55 -0.05 9.35 -0.50 9.90 -0.45 0.55 -1.65 0.70 -5.35 0.60 -2.65 -0.10 -5.15 -0.25 -5.60 -0.35z"/>
  <path d="M59.40 96.65 c-3.25 -0.25 -3.50 -0.55 -3.05 -4.15 l0.30 -2.50 11.10 0 c6.10 0 14.85 0.15 19.45 0.35 l8.35 0.30 -0.15 3.05 -0.15 3.05 -16.50 0.05 c-9.05 0 -17.75 -0.05 -19.35 -0.15z"/>
  <path d="M59.60 86.65 l-3.15 -0.20 0.15 -4.60 0.15 -4.60 18.25 -0.15 c10.05 -0.05 18.75 0 19.40 0.15 1 0.25 1.15 0.55 1 2.15 -0.15 1.85 -0.20 1.85 -2.50 2 -1.40 0.10 -2.95 -0.15 -3.85 -0.60 -2.30 -1.20 -2.55 -1.05 -2.55 2 0 2.70 0.05 2.80 1.15 2.45 0.60 -0.25 2.60 -0.50 4.50 -0.60 3.35 -0.25 3.35 -0.20 3.35 1.05 l0 1.30 -16.35 -0.10 c-9.05 -0.05 -17.80 -0.15 -19.55 -0.25z"/>
  <path d="M151.25 81.35 c-1.45 -1.45 -1.75 -2.10 -1.75 -3.85 0 -1.70 0.30 -2.40 1.70 -3.80 1.40 -1.40 2.10 -1.70 3.75 -1.70 2.95 0 5.05 2 5.40 5.05 0.25 2.05 0.10 2.50 -1.20 3.95 -1.10 1.25 -1.95 1.65 -3.80 1.85 -2.15 0.25 -2.45 0.15 -4.10 -1.50z"/>
  <path d="M102.50 74.05 l-3.75 -0.30 0 -1.50 c0 -1.45 0.05 -1.50 2.25 -1.45 1.25 0.05 2.85 0.25 3.65 0.45 1.35 0.35 1.35 0.35 1.35 -2.20 0 -2.55 -0.60 -3.25 -1.85 -2 -0.25 0.25 -1.60 0.45 -2.95 0.35 l-2.45 -0.15 0 -5.50 0 -5.50 6.15 -0.15 c4.70 -0.10 6.10 0 6.15 0.50 0 0.35 0 4.35 -0.05 8.90 -0.05 5.75 -0.25 8.35 -0.65 8.60 -0.65 0.40 -1.80 0.40 -7.85 -0.05z"/>
  <path d="M60.75 73.55 l-4 -0.30 0.05 -2.75 c0 -1.50 0.10 -3.85 0.10 -5.15 l0.10 -2.40 18.60 0.05 c10.90 0.05 18.95 0.25 19.50 0.55 0.90 0.50 1.15 1.70 0.60 3.15 -0.35 0.95 -5.65 1.15 -6.55 0.25 -1.20 -1.20 -2.20 -0.10 -2.05 2.15 0.15 1.85 0.30 2.10 1.15 1.95 0.55 -0.10 2.40 -0.25 4.05 -0.40 3.30 -0.25 3.90 0.20 3.35 2.30 -0.25 1.05 -0.40 1.05 -15.60 0.95 -8.40 -0.05 -17.10 -0.20 -19.30 -0.35z"/>
  <path d="M73.75 59.50 l-16.50 -0.25 -0.15 -1.85 -0.15 -1.90 15.70 0 c8.65 0 17.45 0.15 19.55 0.35 l3.85 0.30 -0.15 1.80 -0.15 1.80 -2.75 0 c-1.50 0.05 -10.15 -0.10 -19.25 -0.25z"/>
  <path d="M24.90 35.75 c-1.75 -1 -2.40 -2.20 -2.40 -4.65 0 -4.95 6.30 -6.65 9.20 -2.50 2.85 4.05 -2.45 9.60 -6.80 7.15z"/>
  <path d="M74.85 35.10 c-1.45 -1.50 -1.80 -4.30 -0.85 -6.15 0.65 -1.15 3.05 -2.45 4.65 -2.45 1.70 0 3.65 1.70 4.35 3.70 0.65 2.05 -0.30 4.90 -1.90 5.75 -2 1.05 -4.80 0.65 -6.25 -0.85z"/>
  <path d="M119 20.15 c-0.40 -0.15 -1.35 -0.85 -2.10 -1.55 -1.05 -1 -1.40 -1.75 -1.40 -3.25 0 -2.45 0.65 -3.65 2.50 -4.60 3.65 -1.90 7.50 0.55 7.50 4.75 0 2.80 -3.95 5.65 -6.50 4.65z"/>
  <path d="M70 12.15 c-1.50 -0.55 -3 -2.35 -3.30 -3.95 -0.55 -3 1.75 -5.65 4.95 -5.70 5.05 0 6.80 6.95 2.35 9.25 -1.50 0.75 -2.65 0.90 -4 0.40z"/>
 </g>
</svg>
