<?xml version="1.0" encoding="utf-8"?>
<!DOCTYPE svg PUBLIC "-//W3C//DTD SVG 1.0//EN" "http://www.w3.org/TR/2001/REC-SVG-20010904/DTD/svg10.dtd">
<svg version="1.0" xmlns="http://www.w3.org/2000/svg" width="163px" height="119px" viewBox="0 0 163 119" preserveAspectRatio="xMidYMid meet">
 <g fill="#000000">
  <path d="M17 117.30 c-4.95 -1.40 -8.30 -4.20 -10.40 -8.70 -2.40 -5.30 -1.25 -12.70 3.65 -23.65 2.15 -4.75 2.25 -5.15 2.30 -10.05 0.05 -2.85 -0.20 -7.35 -0.55 -10.05 -0.35 -2.70 -0.55 -7.30 -0.40 -10.25 0.30 -6.85 1.10 -8.70 6.45 -14 l3.95 -4 0 -3.90 c0 -3.15 -0.25 -4.50 -1.25 -6.65 -1.50 -3.20 -6 -7.75 -9.70 -9.75 -2.40 -1.30 -3 -1.40 -6.10 -1.20 -4.25 0.30 -4.60 -0.50 -1 -2.05 2.85 -1.20 5.25 -1.30 8.80 -0.35 5.30 1.40 9.25 4.30 13.60 9.95 l2.20 2.85 1.40 -0.80 c0.80 -0.45 1.80 -1.50 2.30 -2.30 0.85 -1.45 0.80 -1.50 -0.85 -4.25 -2.15 -3.65 -8.75 -10.60 -11.90 -12.65 -1.60 -1 -3.45 -1.75 -5.10 -1.95 -2.95 -0.35 -3.60 -1.15 -1.55 -1.95 2.50 -0.95 4.70 -1.20 7.45 -0.85 5.35 0.65 12.60 7 18.30 16.05 3.10 4.95 3.80 5.70 5.90 6.70 2.60 1.25 2.75 1.20 7.25 -0.70 2.85 -1.20 3.45 -1.30 12.10 -1.30 8.60 0 9.20 -0.05 11.75 -1.25 4.55 -2.15 11.05 -1.60 22.10 1.80 3.90 1.20 5.05 1.40 5.35 0.90 0.20 -0.35 0.90 -2.65 1.50 -5.05 0.95 -3.90 1.20 -4.40 2.20 -4.40 1.30 0 2.25 1 3.70 3.90 2.50 4.90 7.20 8.35 13.25 9.60 3.55 0.75 4.10 0.35 3.05 -2.20 -2.20 -5.25 3.90 -9.60 8.25 -5.95 1.50 1.25 1.70 1.30 2.90 0.60 1.20 -0.65 1.30 -0.95 1.15 -3.35 -0.10 -2.30 0.05 -2.75 1.35 -4.10 1.25 -1.25 1.95 -1.50 3.85 -1.50 1.95 0 2.60 0.25 3.85 1.55 1.45 1.40 1.50 1.70 1.25 4.25 -0.25 2.50 -0.20 2.80 0.95 3.50 1.15 0.80 1.30 0.75 2.50 -0.50 2.60 -2.55 6.80 -2 8.45 1.20 1.55 3.05 0.35 6.05 -3.05 7.55 -2.10 0.95 -2.20 1.10 -2.25 3.10 -0.05 1.15 -0.20 2.65 -0.40 3.35 -0.30 0.90 0 2 1 4 2 4.10 2.45 7.30 1.90 14.25 -0.75 10.50 -2 16 -4.60 20.05 -2.90 4.55 -5.45 6 -10.05 5.60 -2 -0.15 -3.35 -0.70 -6.05 -2.45 -1.95 -1.25 -3.80 -2.65 -4.20 -3.10 -0.45 -0.60 -1.45 -0.85 -3.15 -0.85 -3.30 0 -4.30 0.60 -4.65 2.90 -0.75 4.30 -4.05 14.65 -5.80 18.15 -2.80 5.60 -5 6.95 -8.40 5.25 -3.05 -1.60 -7.85 -9.25 -10.05 -15.95 -0.60 -1.90 -1.60 -6.70 -2.20 -10.70 -0.60 -4.05 -1.30 -7.40 -1.60 -7.50 -1.30 -0.45 -3.05 33.75 -1.75 34.55 1 0.65 2.80 -0.10 5.50 -2.20 1.40 -1.10 2.75 -2 3.05 -2 0.30 0 0.50 2.45 0.50 6.75 0 8.30 -0.30 8.65 -4.20 4.80 -2.05 -2 -2.90 -2.55 -4.20 -2.55 l-1.60 0 0 2.75 0 2.70 3.65 3.10 c6.45 5.55 6.55 5.45 -5.50 5.45 -5.95 0 -10.20 -0.20 -10.65 -0.55 -0.60 -0.40 -0.30 -0.85 1.70 -2.60 5.75 -4.85 5.75 -4.90 6.10 -7.95 0.30 -2.40 0.20 -2.95 -0.50 -3.20 -1.35 -0.50 -3.05 0.20 -5.75 2.30 -2.60 2.05 -3.35 2.35 -3.65 1.50 -0.05 -0.25 -0.10 -3.30 0 -6.75 0.15 -4.95 0.30 -6.25 0.85 -6.25 0.40 0 1.95 1 3.45 2.25 1.90 1.50 3.25 2.25 4.25 2.25 l1.45 0 0.30 -4.10 c0.55 -8.10 0.65 -12.40 0.25 -12.40 -0.25 0 -1.95 1.40 -3.80 3.15 -5 4.60 -14.95 13.30 -22.80 19.85 -10.55 8.80 -14.15 10.70 -22.80 12.20 -5.75 1 -21.10 1.05 -24.55 0.10z m23.80 -4.55 c9.45 -2.70 14.90 -6.30 34.90 -22.95 10.95 -9.15 17.60 -15.70 17.15 -17 -0.10 -0.30 -0.90 -0.65 -1.80 -0.85 -2.05 -0.45 -3.45 -1.70 -3.95 -3.65 -0.45 -1.60 -1.35 -2.10 -2.55 -1.35 -0.55 0.35 -0.55 0.75 -0.05 2.15 0.80 2.20 0.35 4.15 -1.35 5.70 -1.35 1.25 -4.20 1.60 -5.65 0.70 -0.50 -0.30 -1.20 0.05 -2.55 1.55 -1.50 1.65 -2.10 1.95 -3.80 1.95 -2.75 0 -4.55 -1.50 -4.95 -4.05 -0.25 -1.35 -0.55 -1.95 -1.15 -1.90 -1.70 0.05 -5.80 1.80 -5.95 2.55 -0.10 0.40 1.25 2.20 2.90 3.95 3.30 3.45 5.95 8.20 5.10 9.05 -0.25 0.25 -5.45 0.75 -11.50 1.05 -12.75 0.60 -13.10 0.55 -11.80 -2.55 0.40 -1.05 1.50 -3.15 2.45 -4.75 2.30 -3.90 2.30 -4.60 -0.10 -4.15 -4.95 0.85 -12.10 1.80 -13.75 1.80 -1.70 0 -1.90 0.15 -2.15 1.65 -0.45 2.30 -0.10 5 0.60 5.20 0.35 0.15 1.40 -0.60 2.35 -1.65 0.95 -1 1.95 -1.70 2.25 -1.50 0.80 0.50 0.70 8.35 -0.10 9.50 -0.60 0.85 -0.75 0.75 -2.05 -0.90 -0.90 -1.20 -1.75 -1.80 -2.60 -1.80 -1.10 0 -1.20 0.20 -1.20 2.50 0 2.05 0.25 2.75 1.50 4.15 0.80 0.95 1.50 1.85 1.50 2.05 0 0.55 -10.40 0.35 -10.75 -0.25 -0.20 -0.25 0.50 -1.25 1.50 -2.10 1.35 -1.20 1.95 -2.15 2.25 -3.75 0.55 -3 -0.50 -3.30 -2.95 -0.90 -1 1 -2.25 1.80 -2.75 1.80 -0.80 0 -0.85 -0.35 -0.55 -3.85 0.45 -5.60 0.70 -7.15 1.35 -7.15 0.30 0 1.40 0.90 2.45 2.05 1.05 1.15 2.20 1.95 2.55 1.85 0.40 -0.15 0.70 -1.30 0.80 -3.05 l0.15 -2.85 -2.40 0 c-1.30 0 -3.55 0.15 -5 0.30 l-2.60 0.35 -2.30 5.25 c-3.45 7.85 -4.75 12.25 -4.75 15.95 0 3.85 0.80 6 3.05 7.90 3.50 2.95 4.85 3.25 14.75 3.25 8.25 0 9.50 -0.10 13.50 -1.25z m76.40 -20.90 c2.45 -3.20 2.95 -5.45 3.15 -14.60 0.15 -6.50 0.05 -8.95 -0.50 -10.50 -1.05 -3 -1.95 -2.80 -3.65 0.85 -1.35 2.95 -1.45 3.55 -1.50 9.90 0 9.40 -0.95 10.85 -4.45 6.90 -3.40 -3.75 -7.15 -13.40 -5.20 -13.40 0.25 0 1.50 0.25 2.75 0.55 2.90 0.75 3.05 0.60 5.75 -6.05 2.05 -5.20 3.20 -11.50 2.15 -12.15 -0.40 -0.25 -12.85 6.60 -13.85 7.60 -0.25 0.25 -0.15 3.05 0.15 6.30 0.40 4.45 1 7.40 2.55 12.20 2.40 7.40 3.70 9.80 6.55 12.25 2.70 2.35 4.40 2.40 6.10 0.15z m-57.30 -6.15 c3 -0.35 2.75 -1.40 -1.15 -5.15 -4.35 -4.20 -5.10 -4.10 -8.30 0.95 -1.30 2.05 -2.40 4.05 -2.40 4.40 -0.05 0.50 1.05 0.55 4.85 0.35 2.65 -0.15 5.80 -0.40 7 -0.55z m-26.80 -9 c8.35 -0.80 15.75 -2.50 17.90 -4.10 0.85 -0.65 1.50 -1.95 2.10 -4.15 0.50 -1.75 0.70 -3.30 0.50 -3.50 -0.20 -0.20 -1.05 -0.50 -1.90 -0.65 -1.35 -0.30 -1.70 -0.15 -2.85 1.40 -2.50 3.25 -6.45 3.50 -9.70 0.65 l-1.75 -1.55 -1.20 1.60 c-1.85 2.30 -4.55 3 -7.50 1.85 -1.80 -0.70 -2.55 -0.75 -3.50 -0.30 -3.05 1.40 -6.70 0.25 -8.80 -2.75 l-1 -1.45 0.35 2 c0.15 1.10 0.45 3.80 0.60 6 0.40 5.70 0.45 5.75 5 5.75 2.05 0 7.35 -0.35 11.75 -0.80z m39.90 -0.70 c1.95 -1.95 0.70 -5 -2.05 -5 -1.50 0 -2.95 1.55 -2.95 3.10 0 1.20 1.75 2.90 3 2.90 0.55 0 1.45 -0.45 2 -1z m72.35 -2.05 c0.75 -0.25 2.35 -1.45 3.55 -2.60 1.70 -1.65 2.40 -2.90 3.35 -5.90 1.20 -3.90 2.25 -11.65 2.25 -16.90 0 -3.35 -1.25 -8 -2.25 -8.35 -0.40 -0.15 -1.90 0.35 -3.35 1.15 l-2.65 1.40 -0.15 5.75 c-0.05 3.15 0 6.05 0.15 6.40 0.15 0.45 0.75 0.30 2.25 -0.45 2.65 -1.40 3.60 -0.70 2.05 1.40 -0.60 0.75 -2.15 4.45 -3.45 8.15 -3.40 9.45 -3.60 9.40 -7.85 -3 -2.20 -6.35 -2.50 -8 -1.65 -8 0.40 0 1.35 0.70 2.15 1.50 0.80 0.85 1.65 1.50 1.85 1.50 0.25 0 0.35 -3.05 0.30 -6.80 l-0.15 -6.80 -2.15 -0.75 c-1.20 -0.40 -2.30 -0.60 -2.50 -0.45 -0.70 0.75 -2.75 20.50 -2.35 22.75 0.50 2.60 2.60 6.55 4.65 8.70 1.90 1.95 3.35 2.30 5.95 1.30z m-64.20 -0.50 c1.35 -0.75 1.85 -1.40 1.85 -2.65 0 -2.60 -3.75 -3.80 -5.20 -1.70 -1.15 1.60 -1 2.70 0.50 3.85 1.55 1.25 1.45 1.20 2.85 0.50z m-11.70 -4.40 c3.65 -1.10 6.90 -2.20 7.15 -2.45 0.30 -0.30 0.30 -0.85 -0.05 -1.50 -0.30 -0.55 -0.55 -1.60 -0.55 -2.30 0 -1.30 -0.05 -1.30 -4.10 -1.30 -5.55 0 -6.25 -0.50 -3.75 -2.55 1.70 -1.40 1.90 -1.75 1.75 -3.65 -0.15 -1.80 -0.30 -2.05 -1.50 -2.20 -0.90 -0.10 -1.85 0.30 -3.05 1.35 -0.95 0.85 -1.85 1.40 -2.05 1.20 -0.15 -0.15 -0.30 -1.30 -0.30 -2.50 0 -1.15 -0.20 -2.15 -0.40 -2.15 -0.55 0 -2.55 4.65 -4.60 10.60 -1.45 4.20 -1.95 8.75 -1.10 9.60 0.65 0.75 5.80 -0.15 12.55 -2.15z m24.50 -0.40 c2.30 -2.85 -1.35 -6.25 -4.05 -3.80 -1.20 1.05 -1.15 2.90 0.10 4.15 1.35 1.35 2.75 1.25 3.95 -0.35z m35 -0.60 c0.45 -0.30 1.15 -3.60 2.05 -10.15 2.05 -14.70 2.15 -15.90 1.35 -15.90 -0.35 0 -2.80 1.40 -5.40 3.15 -5.75 3.80 -7.40 6.30 -7.45 11.05 0 2.45 0.20 3.15 1.35 4.50 0.70 0.85 1.95 2.95 2.70 4.70 1.30 2.90 1.50 3.10 3.05 3.10 0.90 0 1.95 -0.20 2.35 -0.45z m-104.30 -3.45 c1.35 -1.20 1.10 -3.80 -0.45 -5.05 -0.75 -0.60 -1.70 -1.05 -2.20 -1.05 -1.45 0 -3.50 1.95 -3.50 3.30 0 3.60 3.45 5.15 6.15 2.80z m9.05 0.35 c0.95 -0.75 1.30 -1.50 1.30 -2.70 0 -1.80 -1.80 -3.75 -3.50 -3.75 -0.50 0 -1.45 0.45 -2.20 1.05 -1.70 1.35 -1.80 3.95 -0.20 5.45 1.40 1.30 2.90 1.30 4.60 -0.05z m12.55 -0.20 c0.80 -0.75 1.25 -1.80 1.25 -2.75 0 -0.95 -0.45 -2 -1.25 -2.75 -0.75 -0.80 -1.80 -1.25 -2.75 -1.25 -1.80 0 -4 1.90 -4 3.50 0 1.30 1.25 3.85 2.10 4.15 1.60 0.65 3.50 0.30 4.65 -0.90z m36.85 -0.10 c0.90 -0.80 1.15 -2.45 0.50 -3.45 -0.40 -0.65 -2.30 -1.70 -3.05 -1.70 -1 0 -2.55 2 -2.55 3.20 0 2.50 3.15 3.75 5.10 1.95z m9.90 -4.05 l4.75 -2.35 0 -4.75 c0 -4.15 -0.10 -4.75 -0.90 -4.90 -0.55 -0.10 -1.60 0.55 -2.60 1.60 -0.90 1 -1.95 1.80 -2.25 1.80 -0.35 0 -0.50 -1.65 -0.40 -5.10 0.15 -5.70 0.60 -6.25 2.50 -3.40 0.80 1.15 1.65 1.80 2.55 1.90 1.90 0.25 1.75 -0.85 -0.40 -2.90 -3.10 -3 -2.20 -3.70 4.10 -3.20 2.30 0.20 4.30 0.50 4.40 0.70 0.10 0.20 -0.35 1.10 -1.05 2.05 -1.25 1.70 -1.45 3.45 -0.40 3.80 0.30 0.10 1.35 -0.40 2.40 -1.10 1.05 -0.70 2.10 -1.15 2.35 -1 0.65 0.45 0.55 7.45 -0.15 8.15 -0.45 0.45 -1 0.15 -2.50 -1.15 -1.05 -0.95 -2.15 -1.75 -2.40 -1.75 -0.30 0 -0.50 1.55 -0.50 3.55 l0 3.60 2 -0.35 c6.70 -1.05 13.50 -7.05 13.50 -11.95 0 -1.60 -0.30 -1.80 -4.30 -2.65 -4.10 -0.85 -9 -3 -10.15 -4.55 -0.55 -0.60 -1.40 -1.15 -2 -1.15 -0.55 0 -4.10 0.80 -7.90 1.80 -5.45 1.40 -8.20 1.85 -13.15 2.05 -3.75 0.15 -6.40 0.50 -6.60 0.85 -0.55 0.80 -0.50 6 0.10 7.50 0.70 1.85 1.65 1.60 3.65 -0.75 1 -1.25 1.95 -1.95 2.30 -1.75 0.75 0.50 0.75 10.80 0 10.80 -0.30 0 -1 -0.55 -1.50 -1.20 -1.95 -2.50 -4.45 -2.05 -4.45 0.80 0 3.20 1.65 4.40 4.15 2.90 0.85 -0.55 2.10 -1 2.75 -1 2.40 0 5.05 2.25 5.10 4.40 0 1.65 1.55 1.40 7 -1.30z m-76.55 -0.90 c0.90 -2.45 3.15 -3.80 6.05 -3.55 1.25 0.10 2.65 0.35 3.10 0.55 0.70 0.30 1.20 -0.30 2.65 -3.20 3.05 -6.10 5.80 -12.60 5.55 -13.25 -0.35 -0.90 -5 -1.35 -7.30 -0.75 -5.65 1.50 -11.50 10.95 -11.50 18.50 0 1.95 0.20 3.50 0.40 3.50 0.20 0 0.70 -0.80 1.05 -1.80z m38.75 0 c0.45 -0.40 0.80 -1 0.80 -1.30 0 -0.50 1.65 -4.40 5.60 -13.25 1.40 -3.10 2.40 -5.95 2.25 -6.40 -0.30 -0.65 -1.70 -0.75 -9.80 -0.75 -13.50 0 -15.50 0.85 -19.20 8.25 -2.75 5.45 -4.30 9.20 -3.95 9.40 0.20 0.15 1.20 0.50 2.20 0.80 1.05 0.35 2.30 1.15 2.85 1.85 0.50 0.65 1.10 1.20 1.25 1.20 0.20 0 1 -0.75 1.85 -1.70 2.65 -3.05 7.65 -2.75 9.75 0.55 0.50 0.75 1.15 1.55 1.45 1.75 0.90 0.70 4.15 0.40 4.95 -0.40z m14.05 -15.05 c0 -2.25 -0.15 -4.25 -0.35 -4.45 -0.85 -0.80 -3.90 3.20 -3.90 5.10 0 1.20 2.50 3.75 3.50 3.60 0.60 -0.15 0.75 -1 0.75 -4.25z m78.40 -6.35 c4.80 -1.95 6.65 -8.55 3.65 -12.90 -1.75 -2.60 -3.50 -3.55 -6.75 -3.80 -2.40 -0.15 -3.35 0 -4.90 0.85 -7.85 4.45 -4.95 16.55 4 16.55 1.30 0 3.10 -0.30 4 -0.70z m-28.55 -2.10 c0.10 -1.30 0.05 -3.40 -0.10 -4.75 l-0.25 -2.45 -3.25 -1.55 c-1.75 -0.80 -4.30 -2.30 -5.60 -3.25 -2.05 -1.45 -3.40 -2.10 -3.40 -1.55 0 0.05 -0.25 1.45 -0.50 3.10 -0.65 3.85 -0.15 7.50 1.20 9.05 1.45 1.70 6.55 3.65 9.35 3.70 l2.35 0 0.20 -2.30z m8.30 1.50 c4.15 -1.70 5.80 -5 3.60 -7.20 -0.80 -0.80 -1.65 -1 -4.75 -1 l-3.75 0 0 4.20 c0 2.90 0.20 4.30 0.65 4.45 1.15 0.50 2.35 0.35 4.25 -0.45z m-31.70 -3.20 c3.25 -0.80 6 -1.50 6.15 -1.50 0.10 0 0.15 -1.40 0.05 -3.10 l-0.15 -3.05 -2.75 -0.95 c-9.10 -3.10 -17.55 -4.30 -20.85 -2.95 -1.80 0.75 -3.15 3.35 -3.25 6.30 -0.10 3 0.45 4.15 2.75 5.85 2.10 1.50 2.10 1.50 7.10 1.20 3.05 -0.15 7.30 -0.85 10.95 -1.80z m-53.15 0.95 c4.95 -1.05 6 -4.20 2.35 -6.90 -1.20 -0.85 -3.05 -1.80 -4.15 -2.10 -4.05 -1.10 -10.30 0.65 -10.65 3.05 -0.25 1.75 1.35 5.50 2.60 6 1.50 0.60 6.80 0.60 9.85 -0.05z m25.85 -1.55 c0.90 -0.90 0.70 -2.30 -0.45 -2.90 -0.60 -0.35 -3.10 -0.50 -6.35 -0.40 -5.10 0.15 -5.35 0.10 -5.50 -0.90 -0.25 -1.65 1.15 -2.35 5.10 -2.60 2.85 -0.15 3.95 -0.05 4.85 0.55 1.40 1 2.95 0.30 2.95 -1.35 0 -2.05 -0.90 -2.30 -5.85 -1.85 -5.35 0.50 -8 1.75 -9.60 4.55 -1.25 2.25 -1.35 3.65 -0.25 4.70 0.60 0.65 2.05 0.80 7.65 0.80 4.65 0 7.05 -0.20 7.45 -0.60z m91.40 -9.70 c0.80 -3.15 -1.65 -5.60 -4.15 -4.20 -1.90 1.10 -2.45 2.20 -1.85 3.85 0.95 2.80 5.30 3.10 6 0.35z m-25.90 0.40 c1.30 -1.65 0.40 -4.20 -1.70 -4.80 -1.40 -0.40 -3.70 1.40 -3.70 2.95 0 1.55 2.30 3.35 3.70 2.95 0.60 -0.15 1.35 -0.65 1.70 -1.10z m12.30 -6.65 c1.65 -1.30 1.70 -3.10 0.05 -4.70 -1.45 -1.50 -2.75 -1.60 -4.30 -0.35 -2.25 1.85 -0.80 6.10 2.05 6.10 0.45 0 1.45 -0.45 2.20 -1.05z"/>
  <path d="M139.75 35.45 c-0.20 -0.25 0.05 -0.95 0.55 -1.50 1.75 -1.95 7.20 -0.90 7.20 1.45 0 0.75 -7.30 0.80 -7.75 0.05z"/>
  <path d="M138.10 30.20 c-1.50 -1.05 -1.45 -2.95 0.15 -4 1.15 -0.75 1.35 -0.75 2.50 0 1.55 1.05 1.75 3.50 0.30 4.30 -1.30 0.65 -1.65 0.65 -2.95 -0.30z"/>
  <path d="M145.75 29.80 c-0.95 -1.45 -0.30 -3.55 1.25 -4.05 1.60 -0.50 3.50 0.95 3.50 2.75 0 2.50 -3.35 3.45 -4.75 1.30z"/>
  <path d="M115.20 37.30 c-0.55 -1.45 0 -2.55 1.30 -2.55 1.05 0 1.25 0.25 1.25 1.50 0 1.20 -0.25 1.55 -1.15 1.65 -0.65 0.10 -1.20 -0.15 -1.40 -0.60z"/>
  <path d="M115.60 33.40 c-1.50 -1.50 0.05 -3.65 1.80 -2.55 1.15 0.70 1.25 1.45 0.35 2.35 -1 0.95 -1.35 1 -2.15 0.20z"/>
  <path d="M124 35.05 c-0.65 -1.25 -0.20 -2.40 1.05 -2.80 1.90 -0.60 3.25 1.75 1.85 3.15 -0.90 0.90 -2.30 0.70 -2.90 -0.35z"/>
  <path d="M80.15 31.15 c-1.05 -0.40 -0.75 -2.60 0.60 -3.90 1.50 -1.55 2.15 -1.55 11.10 -0.15 4.90 0.75 7.15 1.30 7.15 1.75 0 0.75 -0.75 0.95 -6.50 1.60 -5.70 0.65 -11.60 1 -12.35 0.70z"/>
  <path d="M33.75 33.25 c-1.50 -1.45 -1.60 -2.55 -0.35 -3.20 1.30 -0.70 10.05 0.20 10.95 1.10 1.15 1.15 -0.30 2.15 -4 2.80 -4.50 0.80 -5.25 0.70 -6.60 -0.70z"/>
 </g>
 <g fill="none">
  <path d="M0 59.50 l0 -59.50 81.50 0 81.50 0 0 59.50 0 59.50 -81.50 0 -81.50 0 0 -59.50z m41.55 57.70 c8.65 -1.50 12.25 -3.40 22.80 -12.20 7.85 -6.55 17.80 -15.25 22.80 -19.85 1.85 -1.75 3.55 -3.15 3.80 -3.15 0.40 0 0.30 4.30 -0.25 12.40 l-0.30 4.10 -1.45 0 c-1 0 -2.35 -0.75 -4.25 -2.25 -1.50 -1.25 -3.05 -2.25 -3.45 -2.25 -0.55 0 -0.70 1.30 -0.85 6.25 -0.10 3.45 -0.05 6.50 0 6.75 0.30 0.85 1.05 0.55 3.65 -1.50 2.70 -2.10 4.40 -2.80 5.75 -2.30 0.70 0.25 0.80 0.80 0.50 3.20 -0.35 3.05 -0.35 3.10 -6.10 7.95 -2 1.75 -2.30 2.20 -1.70 2.60 0.45 0.35 4.70 0.55 10.65 0.55 12.05 0 11.95 0.10 5.50 -5.45 l-3.65 -3.10 0 -2.70 0 -2.75 1.60 0 c1.30 0 2.15 0.55 4.20 2.55 3.90 3.85 4.20 3.50 4.20 -4.80 0 -4.30 -0.20 -6.75 -0.50 -6.75 -0.30 0 -1.65 0.90 -3.05 2 -2.70 2.10 -4.50 2.85 -5.50 2.20 -1.30 -0.80 0.45 -35 1.75 -34.55 0.30 0.10 1 3.45 1.60 7.50 0.60 4 1.60 8.80 2.20 10.70 2.20 6.70 7 14.35 10.05 15.95 3.40 1.70 5.60 0.35 8.40 -5.25 1.75 -3.50 5.05 -13.85 5.80 -18.15 0.35 -2.30 1.35 -2.90 4.65 -2.90 1.70 0 2.70 0.25 3.15 0.85 0.40 0.45 2.25 1.85 4.20 3.10 2.70 1.75 4.05 2.30 6.05 2.45 4.60 0.40 7.15 -1.05 10.05 -5.60 2.60 -4.05 3.85 -9.55 4.60 -20.05 0.55 -6.95 0.10 -10.15 -1.90 -14.25 -1 -2 -1.30 -3.10 -1 -4 0.20 -0.70 0.35 -2.20 0.40 -3.35 0.05 -2 0.15 -2.15 2.25 -3.10 3.40 -1.50 4.60 -4.50 3.05 -7.55 -1.65 -3.20 -5.85 -3.75 -8.45 -1.20 -1.20 1.25 -1.35 1.30 -2.50 0.50 -1.15 -0.70 -1.20 -1 -0.95 -3.50 0.25 -2.55 0.20 -2.85 -1.25 -4.25 -1.25 -1.30 -1.90 -1.55 -3.85 -1.55 -1.90 0 -2.60 0.25 -3.85 1.50 -1.30 1.35 -1.45 1.80 -1.35 4.10 0.15 2.40 0.05 2.70 -1.15 3.35 -1.20 0.70 -1.40 0.65 -2.90 -0.60 -4.35 -3.65 -10.45 0.70 -8.25 5.95 1.05 2.55 0.50 2.95 -3.05 2.20 -6.05 -1.25 -10.75 -4.70 -13.25 -9.60 -1.45 -2.90 -2.40 -3.90 -3.70 -3.90 -1 0 -1.25 0.50 -2.20 4.40 -0.60 2.40 -1.30 4.70 -1.50 5.05 -0.30 0.50 -1.45 0.30 -5.35 -0.90 -11.05 -3.40 -17.55 -3.95 -22.10 -1.80 -2.55 1.20 -3.15 1.25 -11.75 1.25 -8.65 0 -9.25 0.10 -12.10 1.30 -4.50 1.90 -4.65 1.95 -7.25 0.70 -2.10 -1 -2.80 -1.75 -5.90 -6.70 -5.70 -9.05 -12.95 -15.40 -18.30 -16.05 -2.75 -0.35 -4.95 -0.10 -7.45 0.85 -2.05 0.80 -1.40 1.60 1.55 1.95 1.65 0.20 3.50 0.95 5.10 1.95 3.15 2.05 9.75 9 11.90 12.65 1.65 2.75 1.70 2.80 0.85 4.25 -0.50 0.80 -1.50 1.85 -2.30 2.30 l-1.40 0.80 -2.20 -2.85 c-4.35 -5.65 -8.30 -8.55 -13.60 -9.95 -3.55 -0.95 -5.95 -0.85 -8.80 0.35 -3.60 1.55 -3.25 2.35 1 2.05 3.10 -0.20 3.70 -0.10 6.10 1.20 3.70 2 8.20 6.55 9.70 9.75 1 2.15 1.25 3.50 1.25 6.65 l0 3.90 -3.95 4 c-5.35 5.30 -6.15 7.15 -6.45 14 -0.15 2.95 0.05 7.55 0.40 10.25 0.35 2.70 0.60 7.20 0.55 10.05 -0.05 4.90 -0.15 5.30 -2.30 10.05 -4.90 10.95 -6.05 18.35 -3.65 23.65 2.10 4.50 5.45 7.30 10.40 8.70 3.45 0.95 18.80 0.90 24.55 -0.10z"/>
  <path d="M16.25 113.05 c-8.45 -3.85 -8.95 -10.30 -2 -26.15 l2.30 -5.25 2.60 -0.35 c1.45 -0.15 3.70 -0.30 5 -0.30 l2.40 0 -0.15 2.85 c-0.10 1.75 -0.40 2.90 -0.80 3.05 -0.35 0.10 -1.50 -0.70 -2.55 -1.85 -3 -3.25 -3.15 -3 -3.80 5.10 -0.30 3.50 -0.25 3.85 0.55 3.85 0.50 0 1.75 -0.80 2.75 -1.80 2.45 -2.40 3.50 -2.10 2.95 0.90 -0.30 1.60 -0.90 2.55 -2.25 3.75 -1 0.85 -1.70 1.85 -1.50 2.10 0.35 0.60 10.75 0.80 10.75 0.25 0 -0.20 -0.70 -1.10 -1.50 -2.05 -1.25 -1.40 -1.50 -2.10 -1.50 -4.15 0 -2.30 0.10 -2.50 1.20 -2.50 0.85 0 1.70 0.60 2.60 1.80 1.30 1.65 1.45 1.75 2.05 0.90 0.80 -1.15 0.90 -9 0.10 -9.50 -0.30 -0.20 -1.30 0.50 -2.25 1.50 -0.95 1.05 -2 1.80 -2.35 1.65 -0.70 -0.20 -1.05 -2.90 -0.60 -5.20 0.25 -1.50 0.45 -1.65 2.15 -1.65 1.65 0 8.80 -0.95 13.75 -1.80 2.40 -0.45 2.40 0.25 0.10 4.15 -0.95 1.60 -2.05 3.70 -2.45 4.75 -1.30 3.10 -0.95 3.15 11.80 2.55 6.05 -0.30 11.25 -0.80 11.50 -1.05 0.85 -0.85 -1.80 -5.60 -5.10 -9.05 -1.65 -1.75 -3 -3.55 -2.90 -3.95 0.15 -0.75 4.25 -2.50 5.95 -2.55 0.60 -0.05 0.90 0.55 1.15 1.90 0.40 2.55 2.20 4.05 4.95 4.05 1.70 0 2.30 -0.30 3.80 -1.95 1.35 -1.50 2.05 -1.85 2.55 -1.55 1.45 0.90 4.30 0.55 5.65 -0.70 1.70 -1.55 2.15 -3.50 1.35 -5.70 -0.50 -1.40 -0.50 -1.80 0.05 -2.15 1.20 -0.75 2.10 -0.25 2.55 1.35 0.50 1.95 1.90 3.20 3.95 3.65 0.90 0.20 1.70 0.55 1.80 0.85 0.45 1.30 -6.20 7.85 -17.15 17 -20 16.65 -25.45 20.25 -34.90 22.95 -4 1.15 -5.25 1.25 -13.50 1.25 -7.70 0 -9.35 -0.15 -11.05 -0.95z"/>
  <path d="M111.10 91.70 c-2.85 -2.45 -4.15 -4.85 -6.55 -12.25 -1.55 -4.80 -2.15 -7.75 -2.55 -12.20 -0.30 -3.25 -0.40 -6.05 -0.15 -6.30 1 -1 13.45 -7.85 13.85 -7.60 1.05 0.65 -0.10 6.95 -2.15 12.15 -2.70 6.65 -2.85 6.80 -5.75 6.05 -1.25 -0.30 -2.50 -0.55 -2.75 -0.55 -1.95 0 1.80 9.65 5.20 13.40 3.50 3.95 4.45 2.50 4.45 -6.90 0.05 -6.35 0.15 -6.95 1.50 -9.90 1.70 -3.65 2.60 -3.85 3.65 -0.85 0.55 1.55 0.65 4 0.50 10.50 -0.20 9.15 -0.70 11.40 -3.15 14.60 -1.70 2.25 -3.40 2.20 -6.10 -0.15z"/>
  <path d="M48.05 85.90 c0 -0.35 1.10 -2.35 2.40 -4.40 3.20 -5.05 3.95 -5.15 8.30 -0.95 1.80 1.70 3.25 3.50 3.25 4 0 1 -1.15 1.25 -9.10 1.70 -3.80 0.20 -4.90 0.15 -4.85 -0.35z"/>
  <path d="M17.10 76.65 c-0.25 -0.50 -0.60 -2.70 -0.75 -4.90 -0.15 -2.20 -0.45 -4.90 -0.60 -6 l-0.35 -2 1 1.45 c2.10 3 5.75 4.15 8.80 2.75 0.95 -0.45 1.70 -0.40 3.50 0.30 2.95 1.15 5.65 0.45 7.50 -1.85 l1.20 -1.60 1.75 1.55 c3.25 2.85 7.20 2.60 9.70 -0.65 1.15 -1.55 1.50 -1.70 2.85 -1.40 0.85 0.15 1.70 0.45 1.90 0.65 0.20 0.20 0 1.75 -0.50 3.50 -1.05 3.95 -2 4.70 -7.75 6.30 -4.55 1.25 -17.65 2.75 -24 2.75 -3.15 0 -3.90 -0.15 -4.25 -0.85z"/>
  <path d="M69 76 c-1.20 -1.20 -1.25 -2.40 -0.20 -3.90 1.50 -2.15 5.20 -0.85 5.20 1.80 0 1.40 -1.70 3.10 -3 3.10 -0.55 0 -1.45 -0.45 -2 -1z"/>
  <path d="M139.40 72.65 c-2.05 -2.15 -4.15 -6.10 -4.65 -8.70 -0.40 -2.25 1.65 -22 2.35 -22.75 0.20 -0.15 1.30 0.05 2.50 0.45 l2.15 0.75 0.15 6.80 c0.05 3.75 -0.05 6.80 -0.30 6.80 -0.20 0 -1.05 -0.65 -1.85 -1.50 -0.80 -0.80 -1.75 -1.50 -2.15 -1.50 -0.85 0 -0.55 1.65 1.65 8 4.25 12.40 4.45 12.45 7.85 3 1.30 -3.70 2.85 -7.40 3.45 -8.15 1.55 -2.10 0.60 -2.80 -2.05 -1.40 -1.50 0.75 -2.10 0.90 -2.25 0.45 -0.15 -0.35 -0.20 -3.25 -0.15 -6.40 l0.15 -5.75 2.65 -1.40 c1.45 -0.80 2.95 -1.30 3.35 -1.15 1 0.35 2.25 5 2.25 8.35 0 5.25 -1.05 13 -2.25 16.90 -0.95 3 -1.65 4.25 -3.35 5.90 -3.85 3.75 -6.75 4.15 -9.50 1.30z"/>
  <path d="M78.30 72.95 c-1.50 -1.15 -1.65 -2.25 -0.50 -3.85 1.45 -2.10 5.20 -0.90 5.20 1.70 0 1.25 -0.50 1.90 -1.85 2.65 -1.40 0.70 -1.30 0.75 -2.85 -0.50z"/>
  <path d="M56.90 71.20 c-0.85 -0.85 -0.35 -5.40 1.10 -9.60 2.05 -5.95 4.05 -10.60 4.60 -10.60 0.20 0 0.40 1 0.40 2.15 0 1.20 0.15 2.35 0.30 2.50 0.20 0.20 1.10 -0.35 2.05 -1.20 1.20 -1.05 2.15 -1.45 3.05 -1.35 1.20 0.15 1.35 0.40 1.50 2.20 0.15 1.90 -0.05 2.25 -1.75 3.65 -2.50 2.05 -1.80 2.55 3.75 2.55 4.05 0 4.10 0 4.10 1.30 0 0.70 0.25 1.75 0.55 2.30 0.35 0.65 0.35 1.20 0.05 1.50 -0.25 0.25 -3.50 1.35 -7.15 2.45 -6.75 2 -11.90 2.90 -12.55 2.15z"/>
  <path d="M90 69 c-1.25 -1.25 -1.30 -3.10 -0.10 -4.15 2.70 -2.45 6.35 0.95 4.05 3.80 -1.20 1.60 -2.60 1.70 -3.95 0.35z"/>
  <path d="M123.55 65.40 c-0.75 -1.75 -2 -3.85 -2.70 -4.70 -1.15 -1.35 -1.35 -2.05 -1.35 -4.50 0.05 -4.75 1.70 -7.25 7.45 -11.05 2.60 -1.75 5.05 -3.15 5.40 -3.15 0.80 0 0.70 1.20 -1.35 15.90 -0.90 6.55 -1.60 9.85 -2.05 10.15 -0.40 0.25 -1.45 0.45 -2.35 0.45 -1.55 0 -1.75 -0.20 -3.05 -3.10z"/>
  <path d="M20.65 65.50 c-1.30 -0.55 -2.15 -2 -2.15 -3.70 0 -1.35 2.05 -3.30 3.50 -3.30 0.50 0 1.45 0.45 2.20 1.05 3.15 2.45 0.20 7.45 -3.55 5.95z"/>
  <path d="M29.10 65 c-1.60 -1.50 -1.50 -4.10 0.20 -5.45 0.75 -0.60 1.70 -1.05 2.20 -1.05 1.70 0 3.50 1.95 3.50 3.75 0 1.20 -0.35 1.95 -1.30 2.70 -1.70 1.35 -3.20 1.35 -4.60 0.05z"/>
  <path d="M41.60 65.65 c-0.85 -0.30 -2.10 -2.85 -2.10 -4.15 0 -1.60 2.20 -3.50 4 -3.50 0.95 0 2 0.45 2.75 1.25 3.15 3.10 -0.45 8.10 -4.65 6.40z"/>
  <path d="M78.80 64.70 c-1.10 -1.05 -1 -3 0.20 -4.20 1.15 -1.15 1.65 -1.20 3.15 -0.45 1.40 0.75 1.85 1.40 1.85 2.75 0 2.30 -3.55 3.60 -5.20 1.90z"/>
  <path d="M86 61.90 c-0.05 -2.15 -2.70 -4.40 -5.10 -4.40 -0.65 0 -1.90 0.45 -2.75 1 -2.50 1.50 -4.15 0.30 -4.15 -2.90 0 -2.85 2.50 -3.30 4.45 -0.80 0.50 0.65 1.20 1.20 1.50 1.20 0.75 0 0.75 -10.30 0 -10.80 -0.35 -0.20 -1.30 0.50 -2.30 1.75 -2 2.35 -2.95 2.60 -3.65 0.75 -0.60 -1.50 -0.65 -6.70 -0.10 -7.50 0.20 -0.35 2.85 -0.70 6.60 -0.85 4.95 -0.20 7.70 -0.65 13.15 -2.05 3.80 -1 7.35 -1.80 7.90 -1.80 0.60 0 1.45 0.55 2 1.15 1.15 1.55 6.05 3.70 10.15 4.55 4 0.85 4.30 1.05 4.30 2.65 0 4.90 -6.80 10.90 -13.50 11.95 l-2 0.35 0 -3.60 c0 -2 0.20 -3.55 0.50 -3.55 0.25 0 1.35 0.80 2.40 1.75 1.50 1.30 2.05 1.60 2.50 1.15 0.70 -0.70 0.80 -7.70 0.15 -8.15 -0.25 -0.15 -1.30 0.30 -2.35 1 -1.05 0.70 -2.10 1.20 -2.40 1.10 -1.05 -0.35 -0.85 -2.10 0.40 -3.80 0.70 -0.95 1.15 -1.85 1.05 -2.05 -0.10 -0.20 -2.10 -0.50 -4.40 -0.70 -6.30 -0.50 -7.20 0.20 -4.10 3.20 2.15 2.05 2.30 3.15 0.40 2.90 -0.90 -0.10 -1.75 -0.75 -2.55 -1.90 -1.90 -2.85 -2.35 -2.30 -2.50 3.40 -0.10 3.45 0.05 5.10 0.40 5.10 0.30 0 1.35 -0.80 2.25 -1.80 1 -1.05 2.05 -1.70 2.60 -1.60 0.80 0.15 0.90 0.75 0.90 4.90 l0 4.75 -4.75 2.35 c-5.45 2.70 -7 2.95 -7 1.30z"/>
  <path d="M15 58 c0 -7.55 5.85 -17 11.50 -18.50 2.30 -0.60 6.95 -0.15 7.30 0.75 0.25 0.65 -2.50 7.15 -5.55 13.25 -1.45 2.90 -1.95 3.50 -2.65 3.20 -0.45 -0.20 -1.85 -0.45 -3.10 -0.55 -2.90 -0.25 -5.15 1.10 -6.05 3.55 -0.35 1 -0.85 1.80 -1.05 1.80 -0.20 0 -0.40 -1.55 -0.40 -3.50z"/>
  <path d="M50.25 60.10 c-0.30 -0.20 -0.95 -1 -1.45 -1.75 -2.10 -3.30 -7.10 -3.60 -9.75 -0.55 -0.85 0.95 -1.65 1.70 -1.85 1.70 -0.15 0 -0.75 -0.55 -1.25 -1.20 -0.55 -0.70 -1.80 -1.50 -2.85 -1.85 -1 -0.30 -2 -0.65 -2.20 -0.80 -0.35 -0.20 1.20 -3.95 3.95 -9.40 3.70 -7.40 5.70 -8.25 19.20 -8.25 8.10 0 9.50 0.10 9.80 0.75 0.15 0.45 -0.85 3.30 -2.25 6.40 -3.95 8.85 -5.60 12.75 -5.60 13.25 0 1.65 -4.15 2.85 -5.75 1.70z"/>
  <path d="M66.35 47.60 c-0.75 -0.75 -1.35 -1.80 -1.35 -2.30 0 -1.90 3.05 -5.90 3.90 -5.10 0.20 0.20 0.35 2.20 0.35 4.45 0 4.70 -0.60 5.35 -2.90 2.95z"/>
  <path d="M139.15 37.75 c-5.65 -3.40 -5.40 -11.95 0.50 -15.30 2.45 -1.35 7.15 -1.20 9.25 0.40 4.40 3.25 5.15 9.10 1.75 13.20 -2.70 3.20 -7.75 3.95 -11.50 1.70z m8.35 -2.35 c0 -2.35 -5.45 -3.40 -7.20 -1.45 -0.50 0.55 -0.75 1.25 -0.55 1.50 0.45 0.75 7.75 0.70 7.75 -0.05z m-6.45 -4.90 c1.45 -0.80 1.25 -3.25 -0.30 -4.30 -1.15 -0.75 -1.35 -0.75 -2.50 0 -1.60 1.05 -1.65 2.95 -0.15 4 1.30 0.95 1.65 0.95 2.95 0.30z m8.50 0 c1.40 -0.80 1.25 -3.25 -0.30 -4.30 -2.50 -1.60 -5.15 1.10 -3.50 3.60 0.85 1.30 2.20 1.50 3.80 0.70z"/>
  <path d="M111.25 37.25 c-1.65 -0.65 -3.45 -1.75 -4.05 -2.45 -1.35 -1.55 -1.85 -5.20 -1.20 -9.05 0.25 -1.65 0.50 -3.05 0.50 -3.10 0 -0.55 1.35 0.10 3.40 1.55 1.30 0.95 3.85 2.45 5.60 3.25 l3.25 1.55 0.25 2.45 c0.15 1.35 0.20 3.45 0.10 4.75 l-0.20 2.30 -2.35 0 c-1.25 0 -3.65 -0.55 -5.30 -1.25z m6.50 -1 c0 -1.25 -0.20 -1.50 -1.25 -1.50 -0.80 0 -1.30 0.30 -1.40 0.90 -0.30 1.50 0.30 2.45 1.50 2.25 0.90 -0.10 1.15 -0.45 1.15 -1.65z m0 -3.05 c0.90 -0.90 0.80 -1.65 -0.35 -2.35 -1.75 -1.10 -3.30 1.05 -1.80 2.55 0.80 0.80 1.15 0.75 2.15 -0.20z"/>
  <path d="M123.15 38.15 c-0.45 -0.15 -0.65 -1.55 -0.65 -4.45 l0 -4.20 3.75 0 c4.25 0 5.75 0.90 5.75 3.40 0 2.95 -5.90 6.45 -8.85 5.25z m3.75 -2.75 c1.40 -1.40 0.05 -3.75 -1.85 -3.15 -1.25 0.40 -1.70 1.55 -1.05 2.80 0.60 1.05 2 1.25 2.90 0.35z"/>
  <path d="M77.65 35.10 c-2.30 -1.70 -2.85 -2.85 -2.75 -5.85 0.10 -2.95 1.45 -5.55 3.25 -6.30 3.30 -1.35 11.75 -0.15 20.85 2.95 l2.75 0.95 0.15 3.05 c0.10 1.70 0.05 3.10 -0.05 3.10 -0.15 0 -2.90 0.70 -6.15 1.50 -3.65 0.95 -7.90 1.65 -10.95 1.80 -5 0.30 -5 0.30 -7.10 -1.20z m14.85 -4.65 c5.75 -0.65 6.50 -0.85 6.50 -1.60 0 -0.45 -2.25 -1 -7.15 -1.75 -8.95 -1.40 -9.60 -1.40 -11.10 0.15 -1.35 1.30 -1.65 3.50 -0.60 3.90 0.75 0.30 6.65 -0.05 12.35 -0.70z"/>
  <path d="M32.70 35.50 c-1.25 -0.50 -2.85 -4.25 -2.60 -6 0.35 -2.40 6.60 -4.15 10.65 -3.05 1.10 0.30 2.95 1.25 4.15 2.10 3.65 2.70 2.60 5.85 -2.35 6.90 -3.05 0.65 -8.35 0.65 -9.85 0.05z m7.65 -1.55 c3.70 -0.65 5.15 -1.65 4 -2.80 -0.90 -0.90 -9.65 -1.80 -10.95 -1.10 -1.25 0.65 -1.15 1.75 0.35 3.20 1.35 1.40 2.10 1.50 6.60 0.70z"/>
  <path d="M53.30 33.70 c-1.10 -1.05 -1 -2.45 0.25 -4.70 1.60 -2.80 4.25 -4.05 9.60 -4.55 4.95 -0.45 5.85 -0.20 5.85 1.85 0 1.65 -1.55 2.35 -2.95 1.35 -0.90 -0.60 -2 -0.70 -4.85 -0.55 -3.95 0.25 -5.35 0.95 -5.10 2.60 0.15 1 0.40 1.05 5.50 0.90 5.60 -0.20 7.40 0.25 7.40 1.80 0 1.85 -1 2.10 -8.05 2.10 -5.60 0 -7.05 -0.15 -7.65 -0.80z"/>
  <path d="M155.45 25.80 c-1.50 -0.70 -2.35 -3 -1.65 -4.20 2.35 -3.75 7.10 -1.70 6 2.60 -0.40 1.55 -2.70 2.45 -4.35 1.60z"/>
  <path d="M129.85 24.95 c-0.80 -0.60 -1.35 -1.50 -1.35 -2.20 0 -1.55 2.30 -3.35 3.70 -2.95 1.35 0.40 2.30 1.60 2.30 2.95 0 2.55 -2.65 3.80 -4.65 2.20z"/>
  <path d="M141.95 18.10 c-2.25 -1.90 -0.80 -6.10 2.15 -6.10 1.35 0 3.40 2.20 3.40 3.70 0 1.35 -2.05 3.30 -3.50 3.30 -0.50 0 -1.40 -0.40 -2.05 -0.90z"/>
 </g>
</svg>
