<?xml version="1.0" encoding="utf-8"?>
<!DOCTYPE svg PUBLIC "-//W3C//DTD SVG 1.0//EN" "http://www.w3.org/TR/2001/REC-SVG-20010904/DTD/svg10.dtd">
<svg version="1.0" xmlns="http://www.w3.org/2000/svg" width="157px" height="146px" viewBox="0 0 157 146" preserveAspectRatio="xMidYMid meet">
 <g fill="#000000">
  <path d="M80 145.55 c0 -0.20 -1.10 -0.55 -2.45 -0.70 -4.75 -0.55 -10.85 -4.55 -12.85 -8.40 -0.75 -1.50 -2.20 -5.75 -2.20 -6.65 0 -0.20 0.85 0.30 1.85 1.20 4.35 3.85 10.45 5.05 15.95 3.15 3.30 -1.10 7.25 -5.05 8.35 -8.35 3.75 -10.95 -5.70 -21.40 -16.75 -18.55 -3.40 0.85 -5.70 2.10 -8.50 4.65 -2.25 2.05 -2.40 1.50 -0.80 -2.75 1.95 -5.20 8.10 -10.15 14.45 -11.60 3.70 -0.90 10 -0.65 13.60 0.45 6.70 2.10 12.85 7.85 15.40 14.50 1.55 4 1.85 11.05 0.70 15.35 -2.25 8.20 -10.35 15.95 -17.70 16.95 -1.40 0.20 -2.55 0.50 -2.55 0.75 0 0.25 -1.45 0.45 -3.25 0.45 -1.80 0 -3.25 -0.20 -3.25 -0.45z m8.25 -3.80 c10.60 -2.80 17.55 -13.25 15.75 -23.70 -2 -11.70 -12.80 -19.60 -24.10 -17.65 -3.85 0.70 -8.25 2.55 -9.70 4.15 l-0.95 1.05 2 -0.45 c6.35 -1.30 11.85 0.40 16.10 5.05 7.05 7.70 4.90 20 -4.40 25.05 -3.35 1.80 -9.10 2.30 -12.65 1.10 -1.25 -0.45 -2.30 -0.60 -2.30 -0.40 0 0.60 4.25 3.50 6.75 4.60 4.45 1.95 8.95 2.35 13.50 1.20z"/>
  <path d="M135 143.55 c-7.35 -2.25 -10.70 -9.50 -8 -17.30 l1 -2.90 -2.60 -2.80 c-2.35 -2.55 -24.80 -25.75 -37.85 -39.15 -3.35 -3.45 -5.45 -5.25 -5.85 -5 -0.55 0.30 -11.85 11.25 -40.15 38.90 l-6.25 6.05 0.95 1.95 c2.85 5.95 0.40 12.75 -5.50 15.50 -4.55 2.15 -9.70 1.40 -13.15 -1.95 -5.10 -4.90 -5.15 -12.05 -0.15 -16.90 2.80 -2.70 5.85 -3.75 9.45 -3.20 5.15 0.75 3.80 1.65 19.45 -13.55 7.90 -7.75 18.30 -17.90 23.10 -22.60 l8.75 -8.50 -6.50 -6.85 c-3.55 -3.80 -10.75 -11.30 -16 -16.70 -5.25 -5.40 -12.25 -12.60 -15.55 -16 l-5.95 -6.20 -1.90 0.65 c-5.30 1.75 -11.40 -0.65 -13.90 -5.45 -5.55 -10.60 6.15 -21.45 16.25 -15.05 3.35 2.10 5.05 5.30 5.05 9.45 0 2.25 -0.25 3.85 -0.85 4.95 l-0.90 1.65 11.40 11.85 c19 19.70 31.85 32.85 32.55 33.25 0.45 0.30 4.65 -3.45 13.95 -12.50 7.35 -7.10 18.10 -17.50 23.95 -23.15 10.15 -9.75 10.60 -10.30 10.30 -11.75 -0.15 -0.80 -0.30 -2.85 -0.30 -4.50 0 -3.70 1.30 -6.40 4.25 -8.95 2.70 -2.30 4.80 -2.95 8.70 -2.70 4.10 0.25 7.35 2.20 9.50 5.65 1.30 2.15 1.50 2.85 1.50 6.20 0 3.25 -0.20 4.15 -1.40 6.20 -1.75 3 -4.65 5.10 -7.85 5.80 -2.90 0.65 -4.90 0.35 -8.10 -1.05 l-2.40 -1.05 -3.10 2.90 c-1.75 1.60 -6.85 6.55 -11.40 10.95 -4.55 4.45 -13.85 13.40 -20.65 20 -6.80 6.55 -12.35 12.15 -12.35 12.45 0 0.55 2.10 2.75 20.95 22.10 23.35 23.95 25.25 25.80 26.05 25.45 1.60 -0.65 6.85 -0.80 8.95 -0.20 2.85 0.75 7.10 4.90 7.95 7.80 1.95 6.60 -0.95 12.95 -7.15 15.75 -2.05 0.95 -6 1.15 -8.25 0.50z m7.20 -4.75 c4.95 -2.05 6.10 -9.10 2.10 -13.10 -3.25 -3.25 -7.95 -3.30 -11.55 -0.15 -5.45 4.80 -1.90 13.95 5.40 13.95 1.30 0 3.10 -0.30 4.05 -0.70z m-112.90 -4.55 c4.30 -2.80 4.15 -9.70 -0.25 -12 -5.20 -2.65 -11.15 1.30 -10.40 6.95 0.70 5.10 6.40 7.85 10.65 5.05z m115.35 -111.30 c6.55 -3.40 6 -11.65 -0.90 -13.95 -2.65 -0.90 -5 -0.25 -7.25 2 -2.50 2.50 -3 5 -1.60 8.20 1.60 3.50 6.50 5.40 9.75 3.75z m-113.15 -1.05 c1.80 -0.95 2.45 -1.60 3.20 -3.50 1 -2.40 1 -2.40 0 -4.75 -2.35 -5.65 -9.05 -6.20 -12.20 -1.05 -2.25 3.70 -0.30 8.65 3.80 9.90 2.25 0.65 2.85 0.60 5.20 -0.60z"/>
  <path d="M127.15 99.65 c-8.55 -0.15 -11.65 -0.35 -11.65 -0.75 0 -0.35 2.50 -3.10 5.50 -6.20 l5.55 -5.60 -0.15 -6.15 -0.15 -6.20 -6.20 -0.15 c-4.85 -0.10 -6.45 0.05 -7.35 0.60 -0.60 0.45 -2.65 3 -4.55 5.80 -1.85 2.75 -3.60 5 -3.80 5 -0.20 0 -0.35 -4.80 -0.30 -10.60 0.15 -11.95 0.40 -16.90 0.85 -16.90 0.20 0 1.40 1.65 2.75 3.65 4.95 7.55 5.45 7.85 12.95 7.85 3.25 0 5.90 -0.15 5.95 -0.35 0 -0.25 0.10 -2.25 0.25 -4.55 l0.25 -4.15 -3.90 -4.10 c-2.15 -2.25 -4.65 -4.85 -5.60 -5.75 -0.90 -0.90 -1.55 -1.75 -1.40 -1.90 0.40 -0.40 23.90 -0.20 24.70 0.20 0.50 0.30 -0.65 1.70 -4.35 5.40 l-5 4.95 -0.30 4.80 c-0.20 3.10 -0.15 4.90 0.15 5.10 0.30 0.20 3.15 0.40 6.30 0.45 l5.80 0.15 2.30 -2.25 c1.25 -1.25 3.80 -4.35 5.60 -6.90 1.80 -2.55 3.55 -4.55 3.85 -4.45 0.65 0.20 0.80 29 0.15 29.65 -0.20 0.20 -1.45 -0.85 -2.75 -2.35 -1.25 -1.45 -3.80 -4.10 -5.60 -5.80 l-3.25 -3.10 -6.35 -0.05 -6.40 0 0 6.45 c0 3.55 0.15 6.85 0.30 7.30 0.20 0.45 3 2.85 6.25 5.30 3.30 2.45 5.95 4.65 5.95 4.90 0 0.65 -1.40 1.05 -3.15 0.95 -0.90 -0.10 -6.85 -0.20 -13.20 -0.25z"/>
  <path d="M14.25 91.30 c-6.90 -2.20 -10.95 -6.20 -12.10 -12.05 l-0.30 -1.50 1.65 1.40 c3.05 2.55 5.15 3.35 9.10 3.35 4.55 0 7 -1.05 9.70 -4.15 5.45 -6.15 3.85 -15.15 -3.35 -19.10 -4.80 -2.60 -10.65 -1.65 -15.80 2.55 -1.85 1.50 -2.15 1.65 -2.15 0.80 0 -0.50 0.70 -2.35 1.55 -4.05 1.75 -3.50 4.95 -6.25 9.45 -8.10 2.25 -0.95 3.70 -1.15 8 -1.15 4.90 -0.05 5.50 0.05 8.65 1.55 6.15 2.95 10.45 8.10 12.30 14.80 l0.80 3.10 6.50 0.15 c4.25 0.10 6.95 -0.10 7.95 -0.45 1.55 -0.70 5.30 -5.95 5.30 -7.55 0 -0.60 0.35 -0.90 1.20 -0.90 0.65 0 1.30 0.20 1.40 0.50 0.10 0.25 0.05 5.70 -0.10 12.10 -0.20 10.40 -0.35 11.65 -1.10 11.80 -0.60 0.10 -1 -0.35 -1.35 -1.75 -0.75 -2.80 -2.80 -5.50 -5 -6.65 -1.45 -0.75 -3.45 -1.05 -8.45 -1.30 l-6.55 -0.35 -0.60 1.45 c-2.55 6.60 -5.20 10.05 -9.75 13 -4.55 2.90 -12.10 4.05 -16.95 2.50z m13.35 -3.90 c3.95 -1.85 7.10 -4.90 9.05 -8.85 1.45 -3 1.60 -3.70 1.60 -8.05 0 -4.10 -0.20 -5.15 -1.30 -7.50 -1.95 -4.10 -4.95 -7.20 -8.85 -9.10 -3.10 -1.55 -3.70 -1.65 -8.35 -1.65 -4.45 0 -5.25 0.15 -7.50 1.35 -4.80 2.55 -4.80 2.65 0.35 2.65 4.25 0 4.85 0.15 7.40 1.55 3.40 1.90 5.75 4.85 6.80 8.55 3.05 10.50 -6.90 20.55 -17.45 17.60 -1.10 -0.30 -2.05 -0.40 -2.20 -0.25 -0.45 0.40 4.25 3.50 6.75 4.40 3.65 1.35 10.05 1 13.70 -0.70z"/>
  <path d="M79.15 49.25 c-9 -1.95 -16.90 -10.10 -18.65 -19.20 -2.10 -11.10 3.60 -22.15 13.85 -26.90 3.40 -1.60 4.50 -1.85 8.80 -2.05 4.35 -0.20 5.35 -0.10 9.15 1.15 5.35 1.75 9.35 4.60 11.55 8.35 1.70 2.85 3 6.70 2.50 7.25 -0.20 0.15 -1.45 -0.75 -2.85 -2.05 -8 -7.45 -19.45 -5.80 -24.05 3.50 -1.65 3.30 -1.60 8.40 0 11.85 1.45 3 5.35 6.50 8.40 7.55 4.60 1.60 10.40 0.55 14.45 -2.50 1.25 -1 2.40 -1.70 2.50 -1.60 0.30 0.35 -1.60 5.25 -2.80 7.10 -2.10 3.45 -6.60 6.25 -12.10 7.55 -3.80 0.90 -6.65 0.90 -10.75 0z m14.55 -4.90 c2 -1 4.05 -2.30 4.60 -2.90 l0.95 -1.10 -2 0.45 c-3.60 0.80 -8.80 0.50 -11.35 -0.65 -3.30 -1.50 -6.65 -4.80 -8.25 -8.10 -1.15 -2.35 -1.35 -3.45 -1.35 -6.80 0.05 -4.80 1.10 -7.60 4.30 -11.05 3.25 -3.50 6.30 -4.85 11.15 -4.90 2.20 -0.05 4.80 0.15 5.75 0.40 l1.75 0.40 -1.50 -1.30 c-4.05 -3.45 -11.65 -5.45 -16.80 -4.35 -6.85 1.45 -12.50 5.75 -15.55 11.90 -1.55 3.20 -1.65 3.65 -1.65 8.90 0 5.15 0.10 5.70 1.55 8.75 2.80 5.80 6.65 9.30 12.65 11.35 2.75 1 4 1.15 7.70 1 3.80 -0.20 4.90 -0.45 8.05 -2z"/>
 </g>
 <g fill="none">
  <path d="M0 73 l0 -73 78.50 0 78.50 0 0 73 0 73 -35.25 0 c-19.70 0 -35.25 -0.20 -35.25 -0.45 0 -0.25 1.15 -0.55 2.55 -0.75 7.35 -1 15.45 -8.75 17.70 -16.95 1.15 -4.30 0.85 -11.35 -0.70 -15.35 -2.55 -6.65 -8.70 -12.40 -15.40 -14.50 -3.60 -1.10 -9.90 -1.35 -13.60 -0.45 -6.35 1.45 -12.50 6.40 -14.45 11.60 -1.60 4.25 -1.45 4.80 0.80 2.75 2.80 -2.55 5.10 -3.80 8.50 -4.65 13.90 -3.60 23.55 13.40 13.40 23.55 -5.65 5.60 -14.70 5.70 -20.95 0.20 -1 -0.90 -1.85 -1.40 -1.85 -1.20 0 0.90 1.45 5.15 2.20 6.65 2 3.85 8.10 7.85 12.85 8.40 7.40 0.90 -1.50 1.15 -37.55 1.15 l-40 0 0 -73z m143.25 70.05 c6.20 -2.80 9.10 -9.15 7.15 -15.75 -0.85 -2.90 -5.10 -7.05 -7.95 -7.80 -2.10 -0.60 -7.35 -0.45 -8.95 0.20 -0.80 0.35 -2.70 -1.50 -26.05 -25.45 -18.85 -19.35 -20.95 -21.55 -20.95 -22.10 0 -0.30 5.55 -5.90 12.35 -12.45 6.80 -6.60 16.10 -15.55 20.65 -20 4.55 -4.40 9.65 -9.35 11.40 -10.95 l3.10 -2.90 2.40 1.05 c3.20 1.40 5.20 1.70 8.10 1.05 3.20 -0.70 6.10 -2.80 7.85 -5.80 1.20 -2.05 1.40 -2.95 1.40 -6.20 0 -3.35 -0.20 -4.05 -1.50 -6.20 -2.15 -3.45 -5.40 -5.40 -9.50 -5.65 -3.90 -0.25 -6 0.40 -8.70 2.70 -2.95 2.55 -4.25 5.25 -4.25 8.95 0 1.65 0.15 3.70 0.30 4.50 0.30 1.45 -0.15 2 -10.30 11.75 -5.85 5.65 -16.60 16.05 -23.95 23.15 -9.30 9.05 -13.50 12.80 -13.95 12.50 -0.70 -0.40 -13.55 -13.55 -32.55 -33.25 l-11.40 -11.85 0.90 -1.65 c0.60 -1.10 0.85 -2.70 0.85 -4.95 0 -4.15 -1.70 -7.35 -5.05 -9.45 -10.10 -6.40 -21.80 4.45 -16.25 15.05 2.50 4.80 8.60 7.20 13.90 5.45 l1.90 -0.65 5.95 6.20 c3.30 3.40 10.30 10.60 15.55 16 5.25 5.40 12.45 12.90 16 16.70 l6.50 6.85 -8.75 8.50 c-4.80 4.70 -15.20 14.85 -23.10 22.60 -15.65 15.20 -14.30 14.30 -19.45 13.55 -3.60 -0.55 -6.65 0.50 -9.45 3.20 -9.60 9.30 1.15 24.55 13.30 18.85 5.90 -2.75 8.35 -9.55 5.50 -15.50 l-0.95 -1.95 6.25 -6.05 c28.30 -27.65 39.60 -38.60 40.15 -38.90 0.40 -0.25 2.50 1.55 5.85 5 13.05 13.40 35.50 36.60 37.85 39.15 l2.60 2.80 -1 2.90 c-2.70 7.80 0.65 15.05 8 17.30 2.25 0.65 6.20 0.45 8.25 -0.50z m-0.55 -43.35 c0.45 -0.15 0.80 -0.50 0.80 -0.75 0 -0.25 -2.65 -2.45 -5.95 -4.90 -3.25 -2.45 -6.05 -4.85 -6.25 -5.30 -0.15 -0.45 -0.30 -3.75 -0.30 -7.30 l0 -6.45 6.40 0 6.35 0.05 3.25 3.10 c1.80 1.70 4.35 4.35 5.60 5.80 1.30 1.50 2.55 2.55 2.75 2.35 0.65 -0.65 0.50 -29.45 -0.15 -29.65 -0.30 -0.10 -2.05 1.90 -3.85 4.45 -1.80 2.55 -4.35 5.65 -5.60 6.90 l-2.30 2.25 -5.80 -0.15 c-3.15 -0.05 -6 -0.25 -6.30 -0.45 -0.30 -0.20 -0.35 -2 -0.15 -5.10 l0.30 -4.80 5 -4.95 c3.70 -3.70 4.85 -5.10 4.35 -5.40 -0.80 -0.40 -24.30 -0.60 -24.70 -0.20 -0.15 0.15 0.50 1 1.40 1.90 0.95 0.90 3.45 3.50 5.60 5.75 l3.90 4.10 -0.25 4.15 c-0.15 2.30 -0.25 4.30 -0.25 4.55 -0.05 0.20 -2.70 0.35 -5.95 0.35 -7.50 0 -8 -0.30 -12.95 -7.85 -1.35 -2 -2.55 -3.65 -2.75 -3.65 -0.45 0 -0.70 4.95 -0.85 16.90 -0.05 5.80 0.10 10.60 0.30 10.60 0.20 0 1.95 -2.25 3.80 -5 1.90 -2.80 3.95 -5.35 4.55 -5.80 0.90 -0.55 2.50 -0.70 7.35 -0.60 l6.20 0.15 0.15 6.20 0.15 6.15 -5.55 5.60 c-3 3.10 -5.50 5.85 -5.50 6.20 0 0.40 3.10 0.60 11.65 0.75 6.35 0.05 12.30 0.15 13.20 0.25 0.85 0.05 1.90 -0.05 2.35 -0.20z m-117.05 -8.50 c7.05 -1.80 11.90 -6.65 15.30 -15.40 l0.60 -1.45 6.55 0.35 c5 0.25 7 0.55 8.45 1.30 2.20 1.15 4.25 3.85 5 6.65 0.35 1.40 0.75 1.85 1.35 1.75 0.75 -0.15 0.90 -1.40 1.10 -11.80 0.15 -6.40 0.20 -11.85 0.10 -12.10 -0.10 -0.30 -0.75 -0.50 -1.40 -0.50 -0.85 0 -1.20 0.30 -1.20 0.90 0 1.60 -3.75 6.85 -5.30 7.55 -1 0.35 -3.70 0.55 -7.95 0.45 l-6.50 -0.15 -0.80 -3.10 c-1.85 -6.70 -6.15 -11.85 -12.30 -14.80 -3.15 -1.50 -3.75 -1.60 -8.65 -1.55 -4.30 0 -5.75 0.20 -8 1.15 -4.50 1.85 -7.70 4.60 -9.45 8.10 -0.85 1.70 -1.55 3.55 -1.55 4.05 0 0.85 0.30 0.70 2.15 -0.80 5.15 -4.20 11 -5.15 15.80 -2.55 7.20 3.95 8.80 12.95 3.35 19.10 -2.70 3.10 -5.15 4.15 -9.70 4.15 -3.95 0 -6.05 -0.80 -9.10 -3.35 l-1.65 -1.40 0.30 1.50 c1.15 5.85 5.20 9.85 12.10 12.05 2.80 0.90 7.80 0.85 11.40 -0.10z m64.25 -41.95 c5.50 -1.30 10 -4.10 12.10 -7.55 1.20 -1.85 3.10 -6.75 2.80 -7.10 -0.10 -0.10 -1.25 0.60 -2.50 1.60 -4.05 3.05 -9.85 4.10 -14.45 2.50 -3.05 -1.05 -6.95 -4.55 -8.40 -7.55 -1.60 -3.45 -1.65 -8.55 0 -11.85 4.60 -9.30 16.05 -10.95 24.05 -3.50 1.40 1.30 2.65 2.20 2.85 2.05 0.50 -0.55 -0.80 -4.40 -2.50 -7.25 -2.20 -3.75 -6.20 -6.60 -11.55 -8.35 -3.80 -1.25 -4.80 -1.35 -9.15 -1.15 -6.55 0.35 -11.25 2.40 -15.85 7 -9.55 9.60 -9.70 24.35 -0.30 34.10 6.20 6.45 14.55 9 22.90 7.05z"/>
  <path d="M134.10 138.50 c-1.90 -1.15 -3.45 -3.55 -3.90 -5.90 -1.05 -5.50 4.75 -10.60 10.30 -9.10 5.80 1.55 8.15 8.50 4.40 13.25 -2.20 2.80 -7.65 3.65 -10.80 1.75z"/>
  <path d="M22.55 134.65 c-3.45 -1.80 -4.85 -5.70 -3.40 -9.30 2.05 -4.80 9.60 -5.25 12.35 -0.70 3.55 5.80 -3 13.15 -8.95 10z"/>
  <path d="M137.85 22.45 c-2.55 -1.35 -4.10 -4.60 -3.60 -7.55 0.45 -2.55 3.45 -5.70 5.95 -6.15 3.60 -0.70 7.90 1.90 8.80 5.30 1.75 6.45 -5.10 11.60 -11.15 8.40z"/>
  <path d="M26.30 22.50 c-4.10 -1.25 -6.05 -6.20 -3.80 -9.90 3.15 -5.15 9.85 -4.60 12.20 1.05 1 2.35 1 2.35 0 4.75 -0.75 1.90 -1.40 2.55 -3.20 3.50 -2.35 1.20 -2.95 1.25 -5.20 0.60z"/>
  <path d="M13.90 88.10 c-2.50 -0.90 -7.20 -4 -6.75 -4.40 0.15 -0.15 1.10 -0.05 2.20 0.25 4.75 1.35 10.15 -0.10 13.70 -3.60 6.85 -6.80 5.35 -17.80 -3.05 -22.55 -2.55 -1.40 -3.15 -1.55 -7.40 -1.55 -5.15 0 -5.15 -0.10 -0.35 -2.65 2.25 -1.20 3.05 -1.35 7.50 -1.35 4.65 0 5.25 0.10 8.35 1.65 3.90 1.90 6.90 5 8.85 9.10 1.10 2.35 1.30 3.40 1.30 7.50 0 4.35 -0.15 5.05 -1.60 8.05 -1.95 3.95 -5.10 7 -9.05 8.85 -3.65 1.70 -10.05 2.05 -13.70 0.70z"/>
  <path d="M77.95 45.35 c-6 -2.05 -9.85 -5.55 -12.65 -11.35 -1.45 -3.05 -1.55 -3.60 -1.55 -8.75 0 -5.25 0.10 -5.70 1.65 -8.90 3.05 -6.15 8.70 -10.45 15.55 -11.90 5.15 -1.10 12.75 0.90 16.80 4.35 l1.50 1.30 -1.75 -0.40 c-0.95 -0.25 -3.55 -0.45 -5.75 -0.40 -4.85 0.05 -7.90 1.40 -11.15 4.90 -3.20 3.45 -4.25 6.25 -4.30 11.05 0 3.35 0.20 4.45 1.35 6.80 1.60 3.30 4.95 6.60 8.25 8.10 2.55 1.15 7.75 1.45 11.35 0.65 l2 -0.45 -0.95 1.10 c-0.55 0.60 -2.60 1.90 -4.60 2.90 -3.15 1.55 -4.25 1.80 -8.05 2 -3.70 0.15 -4.95 0 -7.70 -1z"/>
  <path d="M79.15 141.95 c-1.20 -0.20 -3.15 -0.85 -4.40 -1.40 -2.50 -1.10 -6.75 -4 -6.75 -4.60 0 -0.20 1.05 -0.05 2.30 0.40 3.55 1.20 9.30 0.70 12.65 -1.10 9.30 -5.05 11.45 -17.35 4.40 -25.05 -4.25 -4.65 -9.75 -6.35 -16.10 -5.05 l-2 0.45 0.95 -1.05 c1.45 -1.60 5.85 -3.45 9.70 -4.15 13.85 -2.35 26.60 10.40 24.10 24.15 -2.20 12 -13.20 19.75 -24.85 17.40z"/>
 </g>
</svg>
