<?xml version="1.0" encoding="utf-8"?>
<!DOCTYPE svg PUBLIC "-//W3C//DTD SVG 1.0//EN" "http://www.w3.org/TR/2001/REC-SVG-20010904/DTD/svg10.dtd">
<svg version="1.0" xmlns="http://www.w3.org/2000/svg" width="108px" height="137px" viewBox="0 0 108 137" preserveAspectRatio="xMidYMid meet">
 <g fill="#000000">
  <path d="M47.20 135.05 c-1.30 -0.60 -2.55 -1.75 -3.55 -3.25 -2.70 -4.05 -2.75 -8.35 -0.15 -12.30 0.80 -1.20 1.35 -2.35 1.20 -2.60 -0.15 -0.20 -3.70 -0.40 -7.90 -0.40 -5.25 0 -7.80 -0.20 -8.20 -0.60 -0.40 -0.40 -0.60 -2.75 -0.60 -7.25 0 -5.45 -0.15 -6.60 -0.65 -6.30 -0.35 0.20 -2.85 2.75 -5.45 5.65 l-4.80 5.30 0.20 2.95 c0.30 3.85 -1.05 6.40 -4.25 8.10 -3.90 2.05 -8.65 1.05 -11.05 -2.35 -1.50 -2.15 -1.90 -6.30 -0.75 -8.70 1.80 -3.75 6.70 -5.80 10.65 -4.40 1.40 0.50 1.65 0.30 8.80 -6.85 l7.30 -7.30 0 -3.90 0 -3.85 -7.85 -0.05 c-4.35 -0.05 -8.10 -0.10 -8.40 -0.20 -0.25 -0.05 -1.10 -0.15 -1.90 -0.15 l-1.35 -0.10 0.10 -8.60 0.15 -8.65 9.90 -0.15 9.90 -0.10 -0.15 -10.75 -0.15 -10.75 -6 -6 c-5.20 -5.25 -6.15 -6 -7.25 -5.75 -3.80 0.85 -4.90 0.85 -7.10 -0.15 -5.55 -2.45 -7.20 -9.45 -3.25 -13.95 4.05 -4.60 11.10 -4.05 14.20 1.20 1.15 2 1.25 2.55 1 5.90 l-0.25 3.70 4.85 4.70 4.90 4.70 4.20 0.30 c2.30 0.20 7.40 0.35 11.35 0.35 l7.10 0 0 -5.50 0 -5.50 -1.70 -0.70 c-2.65 -1.10 -5.60 -4.05 -6.80 -6.90 -0.90 -2.10 -1.05 -3.25 -0.85 -5.75 0.25 -3.15 1.60 -6.15 2.35 -5.35 0.20 0.25 0.65 1.65 0.95 3.15 0.75 3.50 1.85 5.85 3.45 7.05 2.15 1.70 2.60 1.35 2.60 -2.15 0 -3.15 -0.05 -3.20 -1.85 -4.40 -2.25 -1.40 -4.15 -4.90 -4.15 -7.45 0 -2.25 1.85 -5.90 3.60 -7.20 1.85 -1.30 2.20 -0.80 1.20 1.70 -2.10 5.20 0.20 10.50 4.60 10.50 2.05 0 3.80 -1.65 4.55 -4.30 0.70 -2.60 0.70 -3.25 -0.25 -6 -0.40 -1.25 -0.65 -2.40 -0.55 -2.55 0.55 -0.55 3 1.65 3.95 3.55 1.25 2.45 1.35 5.95 0.25 8.15 -0.75 1.45 -3.70 4.35 -4.80 4.70 -0.50 0.20 -0.95 6.25 -0.45 6.70 0.15 0.15 1 -0.25 1.95 -0.90 1.90 -1.25 3.10 -3.35 4.10 -7.35 0.85 -3.20 1.80 -3.55 2.70 -1 2.10 6.20 -1.25 13.35 -7.40 15.80 l-1.95 0.80 0 5.40 c0 3 0.20 5.55 0.40 5.70 0.20 0.15 5.35 0.10 11.40 -0.05 l11 -0.30 5.10 -4.80 5.10 -4.80 -0.60 -2 c-1.10 -4.05 0.75 -8.20 4.60 -10.10 2.75 -1.45 5.05 -1.45 7.85 -0.10 3.30 1.60 4.65 3.95 4.65 7.95 0 4.05 -1.35 6.35 -4.75 8 -2.30 1.10 -3.60 1.15 -7.75 0.25 -1.05 -0.20 -2.15 0.60 -7.30 5.65 l-6.10 5.90 -0.35 8.70 c-0.20 4.80 -0.25 9.65 -0.15 10.75 l0.15 2 9.50 0.25 9.50 0.25 0 8.75 0 8.75 -9.75 0 -9.75 0 -0.15 3.65 -0.15 3.70 2.35 2.55 c1.35 1.45 4.60 4.90 7.25 7.70 4.60 4.85 4.95 5.10 6.20 4.65 2.15 -0.80 4.85 -0.55 6.95 0.65 2.95 1.65 3.95 3.35 4.20 7 0.15 2.65 0 3.35 -1 4.85 -3.75 5.55 -11.35 5.40 -14.70 -0.30 -1.20 -2 -1.30 -2.60 -1 -5.25 l0.30 -3 -5.05 -5.75 c-2.80 -3.15 -5.20 -5.60 -5.40 -5.40 -0.15 0.15 -0.40 3.35 -0.55 7.10 l-0.25 6.85 -8.35 0.15 -8.40 0.10 1.50 2.70 c1.20 2.15 1.50 3.20 1.50 5.75 0 5.50 -3.40 10 -7.95 10.45 -3.20 0.30 -3.70 -0.60 -1.80 -3.10 2.85 -3.75 3.40 -7.55 1.70 -12.05 -1.80 -4.90 -4.60 -5.30 -7 -1.05 -1 1.70 -1.20 2.75 -1.20 6.10 0 3.85 0.10 4.25 1.65 6.40 0.95 1.30 1.55 2.65 1.40 3.05 -0.35 1 -2.65 0.90 -5.10 -0.20z m13.10 -3.15 c3.75 -4.10 3.50 -10.35 -0.45 -13.15 -1.70 -1.20 -1.90 -0.90 -1 1.40 0.55 1.25 0.90 3.45 0.90 5.40 0 2.85 -0.20 3.65 -1.60 5.90 -0.90 1.45 -1.65 2.70 -1.65 2.85 0 0.50 2.80 -1.25 3.80 -2.40z m-11.20 -0.50 c-1.70 -3.30 -1.85 -8.05 -0.40 -11.30 0.55 -1.15 0.85 -2.25 0.70 -2.40 -0.15 -0.10 -1 0.40 -1.90 1.15 -1.80 1.50 -3.50 4.70 -3.50 6.65 0 1.95 1.90 5.60 3.65 7.10 2.50 2.10 2.95 1.70 1.45 -1.20z m53.20 -9.60 c1.35 -1.35 1.70 -2.10 1.70 -3.65 0 -4.95 -5.75 -7.35 -9.10 -3.75 -1.60 1.70 -1.95 3.15 -1.35 5.40 0.60 2.10 2.90 3.70 5.40 3.70 1.20 0 2.10 -0.45 3.35 -1.70z m-90.50 -0.25 c4.45 -2.70 2.35 -10.05 -2.85 -10.05 -0.70 0 -2.05 0.50 -3 1.15 -3.25 2.15 -3.10 6.85 0.25 8.90 1.95 1.20 3.65 1.20 5.60 0z m63.70 -11.80 l0 -2.75 -15.75 -0.10 c-8.65 -0.10 -18.40 -0.15 -21.60 -0.15 l-5.90 0 0 2.50 0 2.50 6.25 0.25 c3.45 0.15 13.15 0.35 21.65 0.40 l15.35 0.10 0 -2.75z m-0.10 -7.45 c0.40 -0.25 0.60 -2.90 0.60 -8.50 0 -5.70 0.20 -8.35 0.65 -8.95 0.50 -0.70 1.80 -0.90 6.75 -1.20 l6.15 -0.30 -0.15 -4.80 -0.15 -4.80 -6.50 -0.25 -6.50 -0.25 0.15 -6.50 c0.05 -3.55 0.25 -9.10 0.40 -12.30 l0.30 -5.80 -2.65 -0.30 c-1.50 -0.20 -5.90 -0.35 -9.80 -0.35 l-7.10 0 -0.15 13.15 c-0.10 7.20 -0.05 13.35 0.10 13.70 0.15 0.30 1 1.10 1.95 1.75 2.75 1.85 3.70 3.55 3.95 6.85 0.25 3.75 -1.15 6.55 -4.20 8.35 -3.95 2.30 -10.20 1.25 -12.60 -2.15 -3.35 -4.70 -2.10 -10.25 2.95 -13.45 l1.95 -1.20 0 -13.45 c0 -10.50 -0.15 -13.50 -0.65 -13.70 -1 -0.40 -12.95 -0.45 -15.80 -0.05 l-2.55 0.35 -0.10 12.30 -0.15 12.30 -6.65 0.15 -6.65 0.15 0.15 4.85 0.15 4.85 2.25 0.10 c1.25 0.10 4.10 0.25 6.40 0.45 l4.10 0.30 0 8.90 c0 6.60 0.15 9.05 0.65 9.35 1.15 0.75 41.60 1.15 42.75 0.45z m-18 -13.30 c6.25 -3.80 1.20 -13.15 -5.55 -10.30 -3.70 1.50 -4.95 5.95 -2.50 8.80 2.25 2.70 5.20 3.25 8.05 1.50z m38.60 -10.25 c0 -3.90 -0.15 -4.85 -0.80 -5.10 -1.25 -0.45 -1.60 0.35 -2 4.45 -0.40 4.55 -0.15 5.40 1.55 5.40 l1.25 0 0 -4.75z m-80.75 -1.25 c0 -4.75 0 -4.75 -1.25 -4.75 -1.25 0 -1.25 0.05 -1.40 4.90 l-0.15 4.90 1.40 -0.15 1.40 -0.15 0 -4.75z m86.25 -43.75 c4.25 -2.20 3.70 -8.65 -0.85 -10.60 -4.65 -1.90 -9.30 2.65 -7.65 7.55 1.05 3.25 5.25 4.75 8.50 3.05z m-87.50 -1 c2 -1.05 3 -2.65 3 -4.90 0 -2.65 -1.30 -4.65 -3.65 -5.60 -4.05 -1.60 -7.85 1.05 -7.85 5.50 0 2.35 0.70 3.55 2.65 4.75 1.90 1.20 3.90 1.25 5.85 0.25z"/>
 </g>
 <g fill="none">
  <path d="M0 68.50 l0 -68.50 54 0 54 0 0 68.50 0 68.50 -54 0 -54 0 0 -68.50z m52.30 66.75 c0.15 -0.40 -0.45 -1.75 -1.40 -3.05 -1.55 -2.15 -1.65 -2.55 -1.65 -6.40 0 -3.35 0.20 -4.40 1.20 -6.10 2.40 -4.25 5.20 -3.85 7 1.05 1.70 4.50 1.15 8.30 -1.70 12.05 -1.90 2.50 -1.40 3.40 1.80 3.10 4.55 -0.45 7.95 -4.95 7.95 -10.45 0 -2.55 -0.30 -3.60 -1.50 -5.75 l-1.50 -2.70 8.40 -0.10 8.35 -0.15 0.25 -6.85 c0.15 -3.75 0.40 -6.95 0.55 -7.10 0.20 -0.20 2.60 2.25 5.40 5.40 l5.05 5.75 -0.30 3 c-0.30 2.65 -0.20 3.25 1 5.25 3.35 5.70 10.95 5.85 14.70 0.30 1 -1.50 1.15 -2.20 1 -4.85 -0.25 -3.65 -1.25 -5.35 -4.20 -7 -2.10 -1.20 -4.80 -1.45 -6.95 -0.65 -1.25 0.45 -1.60 0.20 -6.20 -4.65 -2.65 -2.80 -5.90 -6.25 -7.25 -7.70 l-2.35 -2.55 0.15 -3.70 0.15 -3.65 9.75 0 9.75 0 0 -8.75 0 -8.75 -9.50 -0.25 -9.50 -0.25 -0.15 -2 c-0.10 -1.10 -0.05 -5.95 0.15 -10.75 l0.35 -8.70 6.10 -5.90 c5.15 -5.05 6.25 -5.85 7.30 -5.65 4.15 0.90 5.45 0.85 7.75 -0.25 3.40 -1.65 4.75 -3.95 4.75 -8 0 -4 -1.35 -6.35 -4.65 -7.95 -2.80 -1.35 -5.10 -1.35 -7.85 0.10 -3.85 1.90 -5.70 6.05 -4.60 10.10 l0.60 2 -5.10 4.80 -5.10 4.80 -11 0.30 c-6.05 0.15 -11.20 0.20 -11.40 0.05 -0.20 -0.15 -0.40 -2.70 -0.40 -5.70 l0 -5.40 1.95 -0.80 c6.15 -2.45 9.50 -9.60 7.40 -15.80 -0.90 -2.55 -1.85 -2.20 -2.70 1 -1 4 -2.20 6.10 -4.10 7.35 -0.95 0.65 -1.80 1.05 -1.95 0.90 -0.50 -0.45 -0.05 -6.50 0.45 -6.70 1.10 -0.35 4.05 -3.25 4.80 -4.70 1.10 -2.20 1 -5.70 -0.25 -8.15 -0.95 -1.90 -3.40 -4.10 -3.95 -3.55 -0.10 0.15 0.15 1.30 0.55 2.55 0.95 2.75 0.95 3.40 0.25 6 -0.75 2.65 -2.50 4.30 -4.55 4.30 -4.40 0 -6.70 -5.30 -4.60 -10.50 1 -2.50 0.65 -3 -1.20 -1.70 -1.75 1.30 -3.60 4.95 -3.60 7.20 0 2.55 1.90 6.05 4.15 7.45 1.80 1.20 1.85 1.25 1.85 4.40 0 3.50 -0.45 3.85 -2.60 2.15 -1.60 -1.20 -2.70 -3.55 -3.45 -7.05 -0.30 -1.50 -0.75 -2.90 -0.95 -3.15 -0.75 -0.80 -2.10 2.20 -2.35 5.35 -0.20 2.50 -0.05 3.65 0.85 5.75 1.20 2.85 4.15 5.80 6.80 6.90 l1.70 0.70 0 5.50 0 5.50 -7.10 0 c-3.95 0 -9.05 -0.15 -11.35 -0.35 l-4.20 -0.30 -4.90 -4.70 -4.85 -4.70 0.25 -3.70 c0.25 -3.35 0.15 -3.90 -1 -5.90 -3.10 -5.25 -10.15 -5.80 -14.20 -1.20 -3.95 4.50 -2.30 11.50 3.25 13.95 2.20 1 3.30 1 7.10 0.15 1.10 -0.25 2.05 0.50 7.25 5.75 l6 6 0.15 10.75 0.15 10.75 -9.90 0.10 -9.90 0.15 -0.15 8.65 -0.10 8.60 1.35 0.10 c0.80 0 1.65 0.10 1.90 0.15 0.30 0.10 4.05 0.15 8.40 0.20 l7.85 0.05 0 3.85 0 3.90 -7.30 7.30 c-7.15 7.15 -7.40 7.35 -8.80 6.85 -3.95 -1.40 -8.85 0.65 -10.65 4.40 -1.15 2.40 -0.75 6.55 0.75 8.70 2.40 3.40 7.15 4.40 11.05 2.35 3.20 -1.70 4.55 -4.25 4.25 -8.10 l-0.20 -2.95 4.80 -5.30 c2.60 -2.90 5.10 -5.45 5.45 -5.65 0.50 -0.30 0.65 0.85 0.65 6.30 0 4.50 0.20 6.85 0.60 7.25 0.40 0.40 2.95 0.60 8.20 0.60 4.20 0 7.75 0.20 7.90 0.40 0.15 0.25 -0.40 1.40 -1.20 2.60 -2.60 3.95 -2.55 8.25 0.15 12.30 1 1.50 2.25 2.65 3.55 3.25 2.45 1.10 4.75 1.20 5.10 0.20z"/>
  <path d="M56.50 134.30 c0 -0.15 0.75 -1.40 1.65 -2.85 1.40 -2.25 1.60 -3.05 1.60 -5.90 0 -1.95 -0.35 -4.15 -0.90 -5.40 -0.90 -2.30 -0.70 -2.60 1 -1.40 3.95 2.80 4.20 9.05 0.45 13.15 -1 1.15 -3.80 2.90 -3.80 2.40z"/>
  <path d="M47.65 132.60 c-1.75 -1.50 -3.65 -5.15 -3.65 -7.10 0 -1.95 1.70 -5.15 3.50 -6.65 0.90 -0.75 1.75 -1.25 1.90 -1.15 0.15 0.15 -0.15 1.25 -0.70 2.40 -1.45 3.25 -1.30 8 0.40 11.30 1.50 2.90 1.05 3.30 -1.45 1.20z"/>
  <path d="M95.65 122.50 c-1.70 -1 -2.75 -3.60 -2.30 -5.60 0.15 -0.65 0.85 -1.75 1.55 -2.50 3.35 -3.60 9.10 -1.20 9.10 3.75 0 1.55 -0.35 2.30 -1.70 3.65 -2 2 -4.15 2.25 -6.65 0.70z"/>
  <path d="M6.20 121.55 c-3.35 -2.05 -3.50 -6.75 -0.25 -8.90 2.05 -1.40 3.80 -1.45 5.85 -0.20 4.45 2.70 2.35 10.05 -2.80 10.05 -0.70 0 -1.95 -0.45 -2.80 -0.95z"/>
  <path d="M38.50 112 l-6.25 -0.25 0 -2.50 0 -2.50 5.90 0 c3.20 0 12.95 0.05 21.60 0.15 l15.75 0.10 0 2.75 0 2.75 -15.35 -0.10 c-8.50 -0.05 -18.20 -0.25 -21.65 -0.40z"/>
  <path d="M48.25 102.50 c-8.25 -0.15 -15.30 -0.45 -15.60 -0.65 -0.50 -0.30 -0.65 -2.75 -0.65 -9.35 l0 -8.90 -4.10 -0.30 c-2.30 -0.20 -5.15 -0.35 -6.40 -0.45 l-2.25 -0.10 -0.15 -4.85 -0.15 -4.85 6.65 -0.15 6.65 -0.15 0.15 -12.30 0.10 -12.30 2.55 -0.35 c2.85 -0.40 14.80 -0.35 15.80 0.05 0.50 0.20 0.65 3.20 0.65 13.70 l0 13.45 -1.95 1.20 c-5.05 3.20 -6.30 8.75 -2.95 13.45 2.40 3.40 8.65 4.45 12.60 2.15 3.05 -1.80 4.45 -4.60 4.20 -8.35 -0.25 -3.30 -1.20 -5 -3.95 -6.85 -0.95 -0.65 -1.80 -1.45 -1.95 -1.75 -0.15 -0.35 -0.20 -6.50 -0.10 -13.70 l0.15 -13.15 7.10 0 c3.90 0 8.30 0.15 9.80 0.35 l2.65 0.30 -0.30 5.80 c-0.15 3.20 -0.35 8.75 -0.40 12.30 l-0.15 6.50 6.50 0.25 6.50 0.25 0.15 4.80 0.15 4.80 -6.15 0.30 c-4.95 0.30 -6.25 0.50 -6.75 1.20 -0.45 0.60 -0.65 3.25 -0.65 8.95 0 5.60 -0.20 8.25 -0.60 8.50 -0.75 0.45 -8.80 0.55 -27.15 0.20z"/>
  <path d="M51.70 89.50 c-1.75 -0.70 -3.70 -3.45 -3.70 -5.15 0 -3.55 3.80 -6.80 7.15 -6.15 2.30 0.45 4.25 2.20 4.90 4.20 1.40 4.70 -3.70 9 -8.35 7.10z"/>
  <path d="M93.15 82.70 c-0.40 -1.05 0.30 -8.35 0.85 -8.90 0.25 -0.25 0.80 -0.30 1.20 -0.15 0.65 0.25 0.80 1.20 0.80 5.10 l0 4.75 -1.25 0 c-0.70 0 -1.40 -0.35 -1.60 -0.80z"/>
  <path d="M12.60 77.65 c0.15 -4.85 0.15 -4.90 1.40 -4.90 1.25 0 1.25 0 1.25 4.75 l0 4.75 -1.40 0.15 -1.40 0.15 0.15 -4.90z"/>
  <path d="M95.15 33.45 c-4.05 -2.60 -2.95 -9.05 1.80 -10.50 2.45 -0.75 5.15 0.35 6.55 2.65 3.35 5.50 -2.90 11.35 -8.35 7.85z"/>
  <path d="M8.15 32.50 c-1.95 -1.20 -2.65 -2.40 -2.65 -4.75 0 -4.45 3.80 -7.10 7.85 -5.50 2.35 0.95 3.65 2.95 3.65 5.60 0 4.50 -4.90 7.10 -8.85 4.65z"/>
 </g>
</svg>
