<?xml version="1.0" encoding="utf-8"?>
<!DOCTYPE svg PUBLIC "-//W3C//DTD SVG 1.0//EN" "http://www.w3.org/TR/2001/REC-SVG-20010904/DTD/svg10.dtd">
<svg version="1.0" xmlns="http://www.w3.org/2000/svg" width="170px" height="143px" viewBox="0 0 170 143" preserveAspectRatio="xMidYMid meet">
 <g fill="#000000">
  <path d="M62.30 141.60 c-0.15 -0.25 0.50 -1.20 1.45 -2.10 1.70 -1.65 1.75 -1.80 1.75 -5.55 0 -2.15 -0.20 -4 -0.40 -4.15 -0.25 -0.15 -2.05 -0.30 -4 -0.40 -3.45 -0.10 -3.65 -0.05 -5.25 1.50 -2.60 2.55 -2.85 2.25 -2.85 -3.65 0 -3.05 0.20 -5.25 0.50 -5.25 0.25 0 1.25 0.70 2.20 1.50 1.65 1.45 1.95 1.55 5.40 1.40 l3.65 -0.15 0.35 -14.20 c0.40 -15.15 0.45 -15.05 -1.95 -15.05 -1.40 0 -1.50 0.60 -1.80 7.25 -0.45 9.95 -3.85 16.45 -10.20 19.60 -2.55 1.20 -3.25 1.35 -7.60 1.25 -6 -0.15 -8.05 -0.75 -10.85 -3.25 -2.50 -2.20 -3 -3.05 -5.65 -9.55 -3.50 -8.75 -7.35 -14.30 -9.90 -14.30 -0.75 0 -1.50 0.60 -2.35 1.90 -0.65 1 -2.10 2.75 -3.25 3.80 -1.80 1.75 -2.35 2 -4.90 2.20 -2.70 0.20 -3 0.10 -4.30 -1.30 -2 -2.10 -2.30 -4.85 -0.75 -7.05 1.80 -2.65 4 -3.55 8.50 -3.55 3.50 0 3.95 -0.10 4.50 -1.10 0.50 -0.90 0.70 -10.50 0.80 -45.40 0.10 -24.55 0.35 -44.45 0.60 -44.75 0.55 -0.65 21.80 -1 28.50 -0.45 l4.50 0.35 0 11.40 0 11.45 9.40 0 9.45 0 0.30 -7.60 c0.20 -4.15 0.35 -9.35 0.35 -11.50 l0 -3.90 18.15 0.10 18.10 0.15 -0.05 11.40 c-0.05 11.15 -0.05 11.35 1 11.65 0.60 0.10 4.90 0.15 9.55 0.10 l8.50 -0.15 0.30 -9.75 c0.20 -5.35 0.35 -10.60 0.40 -11.60 l0.05 -1.90 2.95 0 c8.40 0 16.10 2.30 22.15 6.65 6.15 4.40 9.20 9.60 9.75 16.60 l0.30 3.50 3.35 3.25 c2.60 2.50 3.60 3.90 4.45 6.25 2.20 5.85 1.30 12.25 -2.50 17.50 l-1.50 2.10 0.80 2.50 c1.45 4.50 -0.35 8.60 -4.85 10.85 -3 1.50 -6.20 1.70 -10.40 0.55 -5.70 -1.50 -10.15 -0.65 -12 2.35 -2 3.35 -0.75 6.65 3.20 8.45 4.05 1.85 10.35 0.70 12.65 -2.25 2.15 -2.70 2.80 -1.10 1.10 2.65 -0.55 1.25 -1.20 3.20 -1.45 4.30 -0.70 3.20 -2.90 19 -3.25 23.50 l-0.35 4 1.55 0.85 c3.40 1.85 4.60 6.90 2.55 10.30 -1.30 2.10 -4.95 3.85 -7.15 3.40 -4.10 -0.85 -6.65 -4.20 -6.20 -8.20 0.30 -2.65 1.50 -4.40 3.85 -5.65 0.95 -0.50 2 -1.10 2.25 -1.35 0.65 -0.55 2.55 -19.45 2.05 -20 -0.20 -0.20 -1.10 0.55 -1.90 1.65 -2.50 3.25 -10.85 11.20 -15.15 14.40 -5.40 4.05 -10.30 6.45 -12.65 6.25 l-1.85 -0.15 -0.15 -9.65 -0.10 -9.65 -5.40 0.15 -5.35 0.15 -0.15 12 c-0.10 8.80 -0.30 12.05 -0.75 12.35 -0.85 0.55 -13.50 0.50 -17 -0.10 -1.60 -0.25 -3.55 -0.95 -4.35 -1.50 -2.75 -1.95 -3.05 -3.25 -3.40 -13.70 l-0.35 -9.55 -4.50 0 -4.50 0 0 14.75 0 14.75 3.85 0.15 c3.85 0.15 3.90 0.15 5.65 -1.65 1 -0.95 2 -1.65 2.30 -1.50 0.25 0.20 0.45 2.55 0.45 5.30 0 4.45 -0.10 4.95 -0.90 4.95 -0.50 0 -1.55 -0.70 -2.35 -1.50 -1.45 -1.50 -1.60 -1.55 -5.50 -1.40 l-4 0.15 -0.15 3.85 c-0.15 3.80 -0.10 3.90 1.60 5.80 1 1.05 1.65 2.10 1.45 2.30 -0.45 0.45 -10.05 0.35 -10.35 -0.10z m86.45 -16.30 c0.90 -0.40 1.90 -1.15 2.20 -1.70 0.95 -1.80 0.65 -4.45 -0.65 -5.95 -1 -1.15 -1.60 -1.40 -3.55 -1.40 -1.95 0 -2.55 0.25 -3.55 1.40 -2.20 2.55 -1.25 6.60 1.80 7.80 1.70 0.65 1.80 0.65 3.75 -0.15z m-100.90 -6.05 c0.90 -0.15 2.65 -1.25 4.10 -2.55 2.20 -2 2.70 -2.80 3.80 -6.25 1.10 -3.50 1.25 -4.90 1.25 -11.40 0 -5.05 0.20 -7.55 0.60 -7.95 0.65 -0.65 23.50 -0.90 25.80 -0.30 1.10 0.30 1.10 0.35 1.10 11.30 l0 11 1.50 1.45 1.45 1.50 6.15 -0.15 6.15 -0.15 0.25 -12.25 c0.15 -6.75 0.35 -12.30 0.40 -12.35 0.05 -0.10 4.70 -0.15 10.30 -0.15 8.85 0 10.25 0.10 10.50 0.80 0.15 0.45 0.30 4.70 0.30 9.50 0 4.80 0.10 8.70 0.25 8.70 1.95 0 13.85 -9.25 18.65 -14.45 4.05 -4.45 7.20 -8.65 6.80 -9 -0.25 -0.25 -2.20 -0.55 -4.30 -0.65 -3.40 -0.15 -4.05 -0.35 -5.75 -1.70 -4.90 -3.95 -6.20 -8.55 -3.55 -12.60 1.60 -2.35 5.05 -4.60 7.80 -4.95 1.05 -0.15 4.40 0.25 7.45 0.80 5 1 5.75 1.05 7.30 0.40 2.70 -1.15 4.40 -3.30 4.25 -5.35 -0.15 -1.55 -0.30 -1.75 -1.40 -1.60 -8.10 0.95 -10.05 0.65 -12.25 -2 -0.95 -1.10 -1.25 -2.05 -1.25 -3.85 0 -6.75 8.75 -8.85 14.35 -3.45 2.05 2 2.90 1.65 4.40 -1.85 2.05 -4.60 1.35 -11.25 -1.55 -14.70 -2.10 -2.50 -2.95 -2.45 -5.35 0.25 -2.15 2.45 -5.20 4.20 -7.35 4.20 -2.10 0 -5.35 -1.80 -6.20 -3.45 -0.45 -0.80 -0.80 -2.50 -0.80 -3.75 0 -1.80 0.30 -2.60 1.55 -4.05 2.20 -2.50 3.20 -2.95 7.20 -3.25 3.30 -0.25 3.50 -0.30 3.65 -1.55 0.25 -2.25 -1.80 -6.80 -4.40 -9.65 -4.05 -4.35 -12.25 -8.10 -18.55 -8.40 l-3.20 -0.15 -0.15 11.60 c-0.10 10.45 -0.20 11.65 -1 12.05 -0.45 0.25 -7 0.30 -14.45 0.20 l-13.65 -0.20 -0.10 -11.60 -0.15 -11.55 -13.10 -0.15 c-7.25 -0.05 -13.20 -0.05 -13.25 0 -0.05 0.10 -0.20 5.35 -0.35 11.65 l-0.30 11.50 -13.25 0.15 c-7.30 0.05 -13.75 0 -14.35 -0.15 -1.10 -0.25 -1.15 -0.35 -1.25 -11.65 l-0.15 -11.35 -4.40 -0.15 -4.40 -0.15 0.15 5.40 c0.20 6.50 0.65 6.90 4.30 3.45 1.35 -1.25 2.70 -2.30 3.05 -2.30 0.75 0 0.80 12.80 0 13.30 -0.30 0.15 -1.60 -0.75 -2.95 -2.05 -1.75 -1.70 -2.70 -2.30 -3.55 -2.15 -1.05 0.15 -1.20 0.45 -1.35 2.35 -0.15 2 0 2.30 2.15 4.35 1.40 1.30 2.20 2.40 2 2.75 -0.40 0.65 -12.45 0.40 -13.15 -0.25 -0.20 -0.25 0.60 -1.25 1.80 -2.30 1.90 -1.70 2.10 -2.10 2.10 -4.15 0 -3.55 -1.95 -3.70 -4.90 -0.25 -2.85 3.25 -3.10 2.80 -3.10 -4.80 0 -4.65 0.20 -6.85 0.60 -7.10 0.35 -0.25 1.35 0.55 2.60 1.95 1.50 1.75 2.40 2.35 3.40 2.35 1.75 0 2 -0.90 1.80 -6.25 l-0.15 -4 -4.30 -0.15 -4.30 -0.15 -0.30 2.65 c-0.20 1.45 -0.35 11.10 -0.35 21.45 l0 18.85 19.60 0.35 c10.80 0.15 25.05 0.25 31.65 0.15 l12 -0.15 0.15 -12.30 0.10 -12.35 -1.70 -1 c-1.95 -1.15 -3.80 -4.35 -3.80 -6.45 0.05 -3.55 3 -7.15 6.55 -7.90 3.55 -0.80 7.95 2.05 8.95 5.80 0.80 3 -0.05 5.50 -2.75 7.85 l-2.25 2 0 12.25 0 12.25 18.15 0.20 18.10 0.20 2.50 -2.55 c1.80 -1.85 3.05 -2.70 4.35 -2.95 7.35 -1.35 12.45 7.05 7.85 12.90 -3.15 4.05 -10.35 3.70 -12.80 -0.65 l-0.85 -1.40 -9.25 -0.30 c-5.10 -0.20 -22.20 -0.35 -37.90 -0.35 l-28.65 0 0 17.40 c0 9.55 -0.15 18.50 -0.30 19.95 -0.35 2.55 -0.30 2.55 2 4.75 3.90 3.60 4.10 8.35 0.50 11.75 -5.40 5.10 -14.35 0.15 -12.95 -7.20 0.25 -1.40 1 -2.55 2.80 -4.25 l2.50 -2.35 0.10 -19.90 0.10 -19.90 -11.90 -0.25 c-6.60 -0.15 -12.15 -0.15 -12.35 0 -0.25 0.15 -0.50 8 -0.65 17.50 -0.10 10.95 -0.40 17.85 -0.75 18.95 -0.55 1.70 -0.50 1.75 2.60 5.05 3.65 3.85 5.65 7.25 8.05 13.30 1.90 4.85 3.75 7.75 5.85 9.25 2.25 1.60 6.80 2.05 11.75 1.20z m2.10 -13 c4.35 -2.20 2.50 -8.75 -2.50 -8.75 -2.95 0 -4.70 1.80 -4.70 4.75 0 1.95 0.25 2.55 1.40 3.55 1.60 1.35 3.75 1.55 5.80 0.45z m-39.85 -6.25 c2.30 -2.45 2.55 -4.30 0.60 -4.80 -3 -0.75 -6.75 0.95 -7.35 3.35 -0.40 1.50 1.45 3.45 3.25 3.45 1.15 0 2.05 -0.50 3.50 -2z m147.30 -42.80 c1.30 -0.85 1.40 -1.55 0.30 -3.10 -2.55 -3.65 -8.20 -3.25 -8.20 0.60 0 3.35 4.30 4.70 7.90 2.50z m-20.35 -2.15 c3.15 -3.20 1.15 -8.05 -3.30 -8.05 -4.30 0 -6.35 5 -3.30 8.05 2.05 2 4.55 2 6.60 0z m16.25 -20.90 c1.25 -0.80 2.45 -3.30 2.05 -4.30 -0.35 -0.90 -3.65 -1.45 -5.60 -0.95 -0.80 0.25 -1.85 1 -2.40 1.70 -0.85 1.15 -0.90 1.45 -0.30 2.70 1.05 2.15 3.70 2.50 6.25 0.85z m-65.10 -13.85 c4.25 -1.80 2.75 -8.30 -1.95 -8.30 -1.80 0 -4.25 2.50 -4.25 4.35 0 1.70 1.20 3.55 2.70 4.15 1.45 0.60 1.60 0.60 3.50 -0.20z"/>
 </g>
 <g fill="none">
  <path d="M0 71.50 l0 -71.50 85 0 85 0 0 71.50 0 71.50 -85 0 -85 0 0 -71.50z m72.65 70.20 c0.20 -0.20 -0.45 -1.25 -1.45 -2.30 -1.70 -1.90 -1.75 -2 -1.60 -5.80 l0.15 -3.85 4 -0.15 c3.90 -0.15 4.05 -0.10 5.50 1.40 0.80 0.80 1.85 1.50 2.35 1.50 0.80 0 0.90 -0.50 0.90 -4.95 0 -2.75 -0.20 -5.10 -0.45 -5.30 -0.30 -0.15 -1.30 0.55 -2.30 1.50 -1.75 1.80 -1.80 1.80 -5.65 1.65 l-3.85 -0.15 0 -14.75 0 -14.75 4.50 0 4.50 0 0.35 9.55 c0.35 10.45 0.65 11.75 3.40 13.70 0.80 0.55 2.75 1.25 4.35 1.50 3.50 0.60 16.15 0.65 17 0.10 0.45 -0.30 0.65 -3.55 0.75 -12.35 l0.15 -12 5.35 -0.15 5.40 -0.15 0.10 9.65 0.15 9.65 1.85 0.15 c2.35 0.20 7.25 -2.20 12.65 -6.25 4.30 -3.20 12.65 -11.15 15.15 -14.40 0.80 -1.10 1.70 -1.85 1.90 -1.65 0.50 0.55 -1.40 19.45 -2.05 20 -0.25 0.25 -1.30 0.85 -2.25 1.35 -2.35 1.25 -3.55 3 -3.85 5.65 -0.45 4 2.10 7.35 6.20 8.20 2.20 0.45 5.85 -1.30 7.15 -3.40 2.05 -3.40 0.85 -8.45 -2.55 -10.30 l-1.55 -0.85 0.35 -4 c0.35 -4.50 2.55 -20.30 3.25 -23.50 0.25 -1.10 0.90 -3.05 1.45 -4.30 1.70 -3.75 1.05 -5.35 -1.10 -2.65 -2.30 2.95 -8.60 4.10 -12.65 2.25 -3.95 -1.80 -5.20 -5.10 -3.20 -8.45 1.85 -3 6.30 -3.85 12 -2.35 4.20 1.15 7.40 0.95 10.40 -0.55 4.50 -2.25 6.30 -6.35 4.85 -10.85 l-0.80 -2.50 1.50 -2.10 c3.80 -5.25 4.70 -11.65 2.50 -17.50 -0.85 -2.35 -1.85 -3.75 -4.45 -6.25 l-3.35 -3.25 -0.30 -3.50 c-0.55 -7 -3.60 -12.20 -9.75 -16.60 -6.05 -4.35 -13.75 -6.65 -22.15 -6.65 l-2.95 0 -0.05 1.90 c-0.05 1 -0.20 6.25 -0.40 11.60 l-0.30 9.75 -8.50 0.15 c-4.65 0.05 -8.95 0 -9.55 -0.10 -1.05 -0.30 -1.05 -0.50 -1 -11.65 l0.05 -11.40 -18.10 -0.15 -18.15 -0.10 0 3.90 c0 2.15 -0.15 7.35 -0.35 11.50 l-0.30 7.60 -9.45 0 -9.40 0 0 -11.45 0 -11.40 -4.50 -0.35 c-6.70 -0.55 -27.95 -0.20 -28.50 0.45 -0.25 0.30 -0.50 20.20 -0.60 44.75 -0.10 34.90 -0.30 44.50 -0.80 45.40 -0.55 1 -1 1.10 -4.50 1.10 -4.50 0 -6.70 0.90 -8.50 3.55 -1.55 2.20 -1.25 4.95 0.75 7.05 1.30 1.40 1.60 1.50 4.30 1.30 2.55 -0.20 3.10 -0.45 4.90 -2.20 1.15 -1.05 2.60 -2.80 3.25 -3.80 0.85 -1.30 1.60 -1.90 2.35 -1.90 2.55 0 6.40 5.55 9.90 14.30 2.65 6.50 3.15 7.35 5.65 9.55 2.80 2.50 4.85 3.10 10.85 3.25 4.35 0.10 5.05 -0.05 7.60 -1.25 6.35 -3.15 9.75 -9.65 10.20 -19.60 0.30 -6.65 0.40 -7.25 1.80 -7.25 2.40 0 2.35 -0.10 1.95 15.05 l-0.35 14.20 -3.65 0.15 c-3.45 0.15 -3.75 0.05 -5.40 -1.40 -0.95 -0.80 -1.95 -1.50 -2.20 -1.50 -0.30 0 -0.50 2.20 -0.50 5.25 0 5.90 0.25 6.20 2.85 3.65 1.60 -1.55 1.80 -1.60 5.25 -1.50 1.95 0.10 3.75 0.25 4 0.40 0.20 0.15 0.40 2 0.40 4.15 0 3.75 -0.05 3.90 -1.75 5.55 -0.95 0.90 -1.60 1.85 -1.45 2.10 0.30 0.45 9.90 0.55 10.35 0.10z"/>
  <path d="M145 125.45 c-3.05 -1.20 -4 -5.25 -1.80 -7.80 1 -1.15 1.60 -1.40 3.55 -1.40 1.95 0 2.55 0.25 3.55 1.40 1.30 1.50 1.60 4.15 0.65 5.95 -0.30 0.55 -1.30 1.30 -2.20 1.70 -1.95 0.80 -2.05 0.80 -3.75 0.15z"/>
  <path d="M39.90 119.45 c-4.35 -0.65 -6.80 -3.35 -9.65 -10.65 -2.40 -6.05 -4.40 -9.45 -8.05 -13.30 -3.10 -3.30 -3.15 -3.35 -2.60 -5.05 0.35 -1.10 0.65 -8 0.75 -18.95 0.15 -9.50 0.40 -17.35 0.65 -17.50 0.20 -0.15 5.75 -0.15 12.35 0 l11.90 0.25 -0.10 19.90 -0.10 19.90 -2.50 2.35 c-1.80 1.70 -2.55 2.85 -2.80 4.25 -1.40 7.35 7.55 12.30 12.95 7.20 3.60 -3.40 3.40 -8.15 -0.50 -11.75 -2.30 -2.20 -2.35 -2.20 -2 -4.75 0.15 -1.45 0.30 -10.40 0.30 -19.95 l0 -17.40 28.65 0 c15.70 0 32.80 0.15 37.90 0.35 l9.25 0.30 0.85 1.40 c2.45 4.35 9.65 4.70 12.80 0.65 4.60 -5.85 -0.50 -14.25 -7.85 -12.90 -1.30 0.25 -2.55 1.10 -4.35 2.95 l-2.50 2.55 -18.10 -0.20 -18.15 -0.20 0 -12.25 0 -12.25 2.25 -2 c2.70 -2.35 3.55 -4.85 2.75 -7.85 -1 -3.75 -5.40 -6.60 -8.95 -5.80 -3.55 0.75 -6.50 4.35 -6.55 7.90 0 2.10 1.85 5.30 3.80 6.45 l1.70 1 -0.10 12.35 -0.15 12.30 -12 0.15 c-6.60 0.10 -20.85 0 -31.65 -0.15 l-19.60 -0.35 0 -18.85 c0 -10.35 0.15 -20 0.35 -21.45 l0.30 -2.65 4.30 0.15 4.30 0.15 0.15 4 c0.20 5.35 -0.05 6.25 -1.80 6.25 -1 0 -1.90 -0.60 -3.40 -2.35 -1.25 -1.40 -2.25 -2.20 -2.60 -1.95 -0.40 0.25 -0.60 2.45 -0.60 7.10 0 7.60 0.25 8.05 3.10 4.80 2.95 -3.45 4.90 -3.30 4.90 0.25 0 2.05 -0.20 2.45 -2.10 4.15 -1.20 1.05 -2 2.05 -1.80 2.30 0.70 0.65 12.75 0.90 13.15 0.25 0.20 -0.35 -0.60 -1.45 -2 -2.75 -2.15 -2.05 -2.30 -2.35 -2.15 -4.35 0.15 -1.90 0.30 -2.20 1.35 -2.35 0.85 -0.15 1.80 0.45 3.55 2.15 1.35 1.30 2.65 2.20 2.95 2.05 0.80 -0.50 0.75 -13.30 0 -13.30 -0.35 0 -1.70 1.05 -3.05 2.30 -3.65 3.45 -4.10 3.05 -4.30 -3.45 l-0.15 -5.40 4.40 0.15 4.40 0.15 0.15 11.35 c0.10 11.30 0.15 11.40 1.25 11.65 0.60 0.15 7.05 0.20 14.35 0.15 l13.25 -0.15 0.30 -11.50 c0.15 -6.30 0.30 -11.55 0.35 -11.65 0.05 -0.05 6 -0.05 13.25 0 l13.10 0.15 0.15 11.55 0.10 11.60 13.65 0.20 c7.45 0.10 14 0.05 14.45 -0.20 0.80 -0.40 0.90 -1.60 1 -12.05 l0.15 -11.60 3.20 0.15 c6.30 0.30 14.50 4.05 18.55 8.40 2.60 2.85 4.65 7.40 4.40 9.65 -0.15 1.25 -0.35 1.30 -3.65 1.55 -4 0.30 -5 0.75 -7.20 3.25 -2.90 3.30 -1.85 8.50 2.10 10.30 1.15 0.50 2.65 0.95 3.35 0.95 2.15 0 5.20 -1.75 7.35 -4.20 2.40 -2.70 3.25 -2.75 5.35 -0.25 2.90 3.45 3.60 10.10 1.55 14.70 -1.50 3.50 -2.35 3.85 -4.40 1.85 -5.60 -5.40 -14.35 -3.30 -14.35 3.45 0 1.80 0.30 2.75 1.25 3.85 2.20 2.65 4.15 2.95 12.25 2 1.10 -0.15 1.25 0.05 1.40 1.60 0.15 2.05 -1.55 4.20 -4.25 5.35 -1.55 0.65 -2.30 0.60 -7.30 -0.40 -3.05 -0.55 -6.40 -0.95 -7.45 -0.80 -2.75 0.35 -6.20 2.60 -7.80 4.95 -2.65 4.05 -1.35 8.65 3.55 12.60 1.70 1.35 2.35 1.55 5.75 1.70 2.10 0.10 4.05 0.40 4.30 0.65 0.40 0.35 -2.75 4.55 -6.80 9 -4.80 5.20 -16.70 14.45 -18.65 14.45 -0.15 0 -0.25 -3.90 -0.25 -8.70 0 -4.80 -0.15 -9.05 -0.30 -9.50 -0.25 -0.70 -1.65 -0.80 -10.50 -0.80 -5.60 0 -10.25 0.05 -10.30 0.15 -0.05 0.05 -0.25 5.60 -0.40 12.35 l-0.25 12.25 -6.15 0.15 -6.15 0.15 -1.45 -1.50 -1.50 -1.45 0 -11 c0 -10.95 0 -11 -1.10 -11.30 -2.30 -0.60 -25.15 -0.35 -25.80 0.30 -0.40 0.40 -0.60 2.90 -0.60 7.95 0 6.50 -0.15 7.90 -1.25 11.40 -1.10 3.45 -1.60 4.25 -3.80 6.25 -1.45 1.30 -3.20 2.40 -4.10 2.55 -2.90 0.50 -5.55 0.60 -7.95 0.20z"/>
  <path d="M44.15 105.80 c-1.15 -1 -1.40 -1.60 -1.40 -3.55 0 -1.95 0.25 -2.55 1.40 -3.55 2.75 -2.40 7.35 -1.05 8.10 2.35 1 4.55 -4.55 7.80 -8.10 4.75z"/>
  <path d="M4.10 100.75 c-0.55 -0.70 -0.90 -1.70 -0.75 -2.20 0.60 -2.40 4.35 -4.10 7.35 -3.35 1.95 0.50 1.70 2.35 -0.60 4.80 -2.35 2.45 -4.45 2.70 -6 0.75z"/>
  <path d="M152.25 58.10 c-1.70 -0.35 -2.75 -1.65 -2.75 -3.40 0 -2.85 2.95 -4.05 6 -2.45 1.55 0.80 3 2.55 3 3.60 0 1.35 -3.95 2.80 -6.25 2.25z"/>
  <path d="M130.45 55.05 c-1.90 -1.95 -1.95 -4.35 -0.15 -6.50 1.05 -1.30 1.65 -1.55 3.45 -1.55 4.45 0 6.45 4.85 3.30 8.05 -2.05 2 -4.55 2 -6.60 0z"/>
  <path d="M149 35 c-0.70 -0.15 -1.55 -0.90 -1.95 -1.70 -0.60 -1.25 -0.55 -1.55 0.30 -2.70 1.15 -1.55 3.20 -2.20 5.80 -1.75 2.25 0.35 2.70 1.10 1.85 3.15 -0.95 2.30 -3.55 3.60 -6 3z"/>
  <path d="M84.70 20.50 c-2.90 -1.15 -3.50 -4.75 -1.25 -7.05 2.40 -2.40 5.55 -1.80 6.85 1.30 0.95 2.35 0.10 4.65 -2.10 5.55 -1.90 0.80 -2.05 0.80 -3.50 0.20z"/>
 </g>
</svg>
