<?xml version="1.0" encoding="utf-8"?>
<!DOCTYPE svg PUBLIC "-//W3C//DTD SVG 1.0//EN" "http://www.w3.org/TR/2001/REC-SVG-20010904/DTD/svg10.dtd">
<svg version="1.0" xmlns="http://www.w3.org/2000/svg" width="142px" height="140px" viewBox="0 0 142 140" preserveAspectRatio="xMidYMid meet">
 <g fill="#000000">
  <path d="M68.85 139 c-2.35 -0.45 -4.20 -2.15 -4.85 -4.40 -0.85 -3.15 -0.05 -4.75 3.95 -8.20 0.95 -0.80 1.05 -1.45 1.05 -6.85 0 -3.30 -0.15 -6.10 -0.35 -6.20 -0.25 -0.15 -3.60 -0.40 -7.45 -0.60 -6.35 -0.30 -7.15 -0.25 -7.75 0.50 -1.90 2.35 -3.70 3.75 -5.20 4.05 -2 0.35 -4.80 -0.45 -6 -1.80 -0.65 -0.70 -1.45 -0.90 -3.50 -0.85 -2.30 0.10 -2.90 -0.10 -4.10 -1.25 l-1.45 -1.40 -1.95 1 c-2.50 1.25 -3.80 1.25 -5.45 -0.05 -1.20 -0.95 -1.35 -0.95 -2.40 -0.25 -1.80 1.30 -3.70 1 -5 -0.70 -0.85 -1.20 -1.45 -1.50 -2.95 -1.50 -2.20 0 -3.95 -1.80 -3.95 -4 0 -1.45 -0.75 -2 -2.70 -2 -2.20 0 -2.90 -1.55 -2.85 -5.95 l0.05 -4.05 -1.95 -0.95 c-2.50 -1.30 -2.90 -3.05 -1.60 -6.95 l0.95 -2.80 -1.25 -1.50 c-1.50 -1.80 -1.40 -4.35 0.35 -6.85 1.10 -1.50 1.10 -1.60 0.30 -3.05 -1.20 -1.95 -0.75 -4.15 1.50 -7.45 1.35 -2 1.60 -2.70 1.10 -3 -0.35 -0.25 -0.80 -0.45 -1 -0.45 -0.20 0 -0.60 -0.45 -0.90 -1 -0.40 -0.75 -0.25 -1.50 0.75 -3.45 0.70 -1.40 1.25 -2.65 1.25 -2.80 0 -0.15 -0.55 -0.50 -1.25 -0.75 -1.35 -0.50 -2.05 -2.35 -1.55 -4.20 0.15 -0.65 1.55 -2.95 3.10 -5.05 l2.75 -3.90 -1.25 -1.20 c-2 -1.85 -1.65 -3.05 1.95 -6.65 3.40 -3.40 3.70 -4 2.50 -5 -1.45 -1.20 -0.85 -2.80 2 -5.40 1.50 -1.40 2.75 -2.65 2.75 -2.85 0 -0.15 -0.60 -0.50 -1.30 -0.75 -1.15 -0.45 -1.30 -0.70 -1 -2.10 0.15 -0.90 0.65 -2.15 1.10 -2.80 1.60 -2.45 8.15 -5.60 11.70 -5.60 0.75 0 2.45 -0.85 4.05 -2.05 3.30 -2.50 5.55 -3.65 8.35 -4.40 3.35 -0.95 7.05 0.35 10.15 3.45 2.25 2.25 2.45 2.65 2.45 4.85 0 4.35 -3.15 7.65 -7.40 7.65 -5.30 0 -8.05 -3.85 -5.60 -7.85 1.20 -1.95 3.15 -2.60 4.95 -1.60 1.35 0.80 1.80 2.30 0.60 2.05 -1.40 -0.30 -3 0.40 -3.30 1.45 -0.45 1.30 1 2.95 2.50 2.95 2.45 0 5 -3.60 4.35 -6.10 -0.35 -1.40 -2.55 -2.50 -5.65 -2.75 -2.50 -0.25 -3.35 -0.10 -5.65 1.05 -7.95 3.90 -10.65 13.75 -6.85 24.80 4.75 13.70 16.45 26.40 29.25 31.90 2.50 1.05 5.20 1.80 7.10 1.95 l3.10 0.30 0.35 -15.20 c0.15 -8.35 0.25 -17.20 0.15 -19.70 l-0.15 -4.50 -4.75 0 c-7.15 0 -8.90 1.05 -9.50 5.70 -0.25 2.15 -1.15 3.25 -1.60 1.95 -0.10 -0.35 -0.10 -4.80 0.05 -9.85 0.20 -6.70 0.45 -9.30 0.95 -9.45 0.40 -0.10 0.60 0.35 0.60 1.50 0 0.90 0.45 2.35 1 3.25 1.50 2.50 3.60 3.30 8.75 3.35 l4.50 0.05 0.35 -5 c0.25 -3.15 0.20 -5.60 -0.15 -6.60 -0.70 -2.15 -3.60 -4.65 -5.40 -4.65 -1.45 0 -2.85 -1.05 -2.20 -1.65 0.15 -0.20 4.65 -0.35 10 -0.35 9.30 0 9.65 0.05 9.65 1 0 0.75 -0.35 1 -1.30 1 -2 0 -4.60 1.45 -5.65 3.20 -0.65 1.15 -1 2.95 -1.20 6.70 -0.20 2.80 -0.20 5.45 -0.05 5.85 0.25 0.60 1.30 0.75 4.80 0.75 6.60 0 9.10 -1.40 9.80 -5.50 0.20 -1.20 0.65 -2.25 1 -2.40 0.50 -0.15 0.60 1.95 0.50 9.70 -0.10 6.70 -0.35 9.95 -0.70 10.05 -0.35 0.10 -0.65 -0.75 -0.85 -2.15 -0.25 -2.55 -1.55 -4.60 -3.40 -5.55 -0.70 -0.40 -3.25 -0.65 -6.30 -0.65 l-5.15 0 -0.10 17.50 c-0.05 9.65 -0.10 18.30 -0.10 19.30 -0.05 2.65 0.85 3.05 4.90 2.05 10.75 -2.65 20.85 -9.70 28.40 -19.85 3.80 -5.10 5.55 -8.40 7.45 -14 3.15 -9.25 1.85 -16.80 -3.70 -21.80 -4.30 -3.85 -10.05 -4.60 -13.15 -1.65 -1.45 1.35 -1.50 2.70 -0.20 4.80 1.80 2.95 5.15 3.50 5.80 0.90 0.50 -2.05 -0.05 -2.75 -2.30 -2.75 -2.25 0 -2.55 -0.55 -0.90 -1.70 3.45 -2.40 7.85 1.50 6.20 5.45 -0.90 2.15 -2.75 3.35 -5.70 3.60 -1.90 0.20 -2.70 0 -4.05 -0.95 -3.85 -2.65 -5.10 -6.75 -2.95 -9.90 1.50 -2.25 4.55 -4.30 7.45 -5.05 1.95 -0.50 2.70 -0.50 4.95 0.25 2.50 0.80 6.05 2.90 9 5.30 0.70 0.55 2.45 1.20 3.90 1.50 3.20 0.60 7.30 2.55 9.25 4.40 0.75 0.70 1.65 2.20 1.95 3.25 0.55 1.75 0.50 2.05 -0.30 2.65 -0.55 0.35 -1.20 0.75 -1.50 0.85 -0.30 0.10 0.75 1.40 2.35 2.90 1.55 1.50 2.85 3.15 2.85 3.65 0 0.50 -0.45 1.50 -1 2.20 l-1.05 1.30 3.30 3.30 c3.70 3.70 4.15 5.35 2 6.80 -1.60 1.05 -1.55 1.40 0.15 3.65 2.45 3.10 4.10 6.30 4.10 7.95 0 1.55 -0.30 2 -2.20 3.30 -0.90 0.60 -0.90 0.70 0.15 2.70 1.45 2.80 1.35 3.95 -0.45 5.05 -1.30 0.75 -1.40 1 -0.80 1.50 1.20 1 3.30 5.60 3.30 7.25 0 0.80 -0.40 1.90 -0.85 2.40 -0.75 0.85 -0.75 1.05 0.30 2.95 1.55 2.70 1.55 5.10 0.10 6.65 l-1.15 1.20 0.85 3.45 c1.10 4.25 0.60 5.90 -1.85 6.55 l-1.65 0.40 -0.25 4.35 c-0.30 4.95 -0.85 5.80 -3.85 6.30 -1.65 0.25 -1.90 0.50 -2.05 1.80 -0.25 2.20 -1.90 3.75 -4 3.75 -1.25 0 -2.05 0.40 -3.10 1.50 -1.60 1.70 -3.20 1.90 -4.60 0.65 -0.95 -0.85 -1.05 -0.85 -2.50 0 -1.95 1.10 -3.50 1.10 -5.85 -0.15 l-1.90 -0.95 -1.15 1.20 c-1.40 1.50 -3.40 1.95 -5.25 1.25 -1.15 -0.45 -1.60 -0.35 -2.45 0.40 -1.60 1.50 -3.05 2.10 -4.90 2.10 -2.05 0 -4.75 -1.60 -5.50 -3.25 -0.75 -1.70 -1.50 -1.80 -9.40 -1.65 l-6.75 0.15 -0.15 6.65 -0.15 6.60 1.30 0.60 c1.80 0.80 3.25 3.40 3.25 5.70 0 4.50 -3.40 7.10 -8.15 6.20z m3.45 -3.40 c2.90 -1.95 0.80 -6.75 -2.60 -5.90 -2.50 0.65 -3.25 3.65 -1.40 5.55 0.80 0.80 3.05 1 4 0.35z m24.30 -21.95 c0.50 -0.45 0.90 -1.40 0.90 -2.15 0 -2.85 -3.80 -4.20 -5.60 -2 -1.10 1.35 -1.15 2.45 -0.10 3.90 0.90 1.35 3.45 1.50 4.80 0.25z m8.80 0.25 c0.35 -0.35 0.60 -1.40 0.60 -2.40 0 -1 0.15 -2 0.35 -2.15 0.15 -0.20 1.30 0.55 2.45 1.65 3.10 2.85 6.05 2.65 5.60 -0.45 -0.30 -1.95 0.35 -1.95 2.60 -0.05 2.55 2.20 4.15 1.85 4.60 -1 0.10 -0.80 0.45 -1.20 0.90 -1.05 0.40 0.10 1.50 0.30 2.45 0.45 2 0.25 2.55 -0.40 2.55 -3 0 -1.90 0 -1.90 2 -1.90 3.90 0 5.35 -3.05 4.05 -8.60 -0.40 -1.75 -0.35 -1.85 1.10 -2.40 3.60 -1.20 4.20 -3.25 2.10 -6.95 -0.70 -1.20 -1.20 -2.20 -1.15 -2.25 1.60 -0.60 3.20 -1.75 3.30 -2.35 0.05 -0.45 -0.90 -2.15 -2.15 -3.85 -1.25 -1.70 -2.25 -3.20 -2.25 -3.30 0 -0.10 0.70 -0.30 1.50 -0.50 2.85 -0.55 2.65 -2.70 -0.75 -7.20 -1.25 -1.65 -2.25 -3.25 -2.25 -3.55 0 -0.30 0.65 -0.70 1.50 -0.85 3.25 -0.65 3 -3 -0.75 -7.10 -0.95 -1.10 -1.75 -2.10 -1.75 -2.25 0 -0.15 0.95 -0.05 2.10 0.20 2.45 0.60 3.40 0.30 3.40 -0.90 -0.05 -1.55 -1.85 -5.05 -4.25 -8.15 -2.30 -3 -2.50 -4 -0.80 -4 1.30 0 2.20 -1.25 1.80 -2.50 -0.20 -0.60 -1.70 -2.55 -3.40 -4.35 -2.85 -3 -3 -3.35 -2.15 -3.85 2.10 -1.25 2.85 -2.10 2.55 -2.85 -0.15 -0.40 -2.20 -2.20 -4.50 -3.90 -2.35 -1.75 -4.25 -3.35 -4.25 -3.60 0 -0.25 0.90 -0.45 1.95 -0.45 3.55 0 3.15 -1.60 -1.20 -4.65 -2.45 -1.70 -4.15 -2.25 -4.85 -1.55 -0.20 0.15 0.10 1.80 0.65 3.60 3.95 13.90 -3.60 32.20 -18.50 44.70 l-2.70 2.25 5.40 7.90 c3 4.30 5.70 7.95 6.05 8.10 0.35 0.10 1.75 -0.50 3.10 -1.45 2.30 -1.50 2.50 -1.80 2.75 -4 0.50 -4.10 2.85 -6.40 6.60 -6.40 2.75 0 4.70 1.25 5.85 3.80 1.10 2.55 0.90 4.40 -0.70 6.45 -2.05 2.60 -5.20 3.40 -7.95 2 -1.45 -0.75 -1.55 -0.75 -4.20 1.10 -1.50 1.05 -2.75 2.20 -2.75 2.55 0 0.35 0.80 1.85 1.80 3.35 1.75 2.60 1.95 2.75 3.90 2.75 4 0 6.80 2.90 6.80 7.05 0 1.75 -0.30 2.40 -1.95 4 -3.25 3.25 -7.70 2.75 -10.05 -1.20 -1.15 -1.80 -1.25 -3.80 -0.40 -6.15 0.50 -1.45 0.40 -1.85 -1.05 -4.10 -2.40 -3.80 -2.45 -3.80 -5.70 -1.70 -2.60 1.70 -2.85 2 -2.85 3.75 0 2.70 -1.20 4.70 -3.50 5.85 -2.30 1.20 -3.55 1.25 -5.40 0.30 -2.75 -1.45 -3.85 -3.15 -3.85 -6.05 0 -2.30 0.20 -2.90 1.45 -4.20 2.10 -2.15 4.25 -2.70 7.25 -1.70 l2.40 0.75 2.60 -1.85 c1.40 -1 2.55 -2.05 2.55 -2.25 0 -0.85 -11.10 -16.50 -11.70 -16.50 -0.35 0 -2.35 0.75 -4.35 1.70 -4.05 1.90 -9.70 3.50 -14.05 4.05 l-2.75 0.35 -0.35 18.75 c-0.20 10.35 -0.15 18.95 0.05 19.15 0.55 0.55 14.30 1.10 14.90 0.65 0.30 -0.20 0.90 -1 1.40 -1.75 1.30 -2.05 3.60 -3.05 6.25 -2.75 3.10 0.35 5 2.30 5.55 5.80 0.25 1.45 0.75 2.85 1.10 3.10 1 0.60 2.65 0.55 3.35 -0.15z m-55.90 -0.90 c1.40 -1.40 1.25 -3.20 -0.35 -4.50 -2.30 -1.80 -5.15 -0.40 -5.15 2.55 0 2.65 3.55 3.90 5.50 1.95z m-9.50 -0.45 c0.25 -0.55 0.50 -1.60 0.50 -2.40 0 -2.45 2.05 -4.80 4.90 -5.60 2.50 -0.75 4.80 0.15 6.95 2.75 l1.90 2.25 7.25 -0.15 7.25 -0.15 0.40 -18.95 c0.35 -14.50 0.30 -19 -0.15 -19.30 -0.35 -0.20 -1.90 -0.50 -3.45 -0.65 -3.40 -0.35 -10.75 -2.85 -14.40 -4.90 -1.45 -0.80 -2.75 -1.45 -2.85 -1.45 -0.40 0 -11.80 15.95 -11.80 16.45 0 0.30 1.05 1.30 2.35 2.30 1.85 1.40 2.65 1.75 3.65 1.50 0.70 -0.20 2.05 -0.45 3.05 -0.60 5.15 -0.70 8.80 5.45 5.80 9.90 -3.75 5.55 -11.80 2.95 -11.85 -3.90 -0.05 -1.75 -0.30 -2.05 -2.80 -3.80 -1.50 -1.05 -2.90 -1.80 -3.10 -1.65 -0.20 0.10 -1.25 1.50 -2.30 3.05 -1.90 2.70 -1.95 2.85 -1.30 4.70 0.85 2.55 0.30 5.05 -1.40 6.70 -4.50 4.25 -11.10 1.65 -11.10 -4.40 0 -3.80 2.55 -6.30 6.45 -6.50 2.15 -0.05 2.45 -0.25 4.40 -2.80 1.15 -1.50 2.10 -2.95 2.15 -3.20 0 -0.30 -1.15 -1.40 -2.55 -2.45 -2.50 -1.85 -2.60 -1.90 -4.75 -1.30 -3.05 0.85 -5.30 0.30 -7.15 -1.80 -1.30 -1.45 -1.55 -2.15 -1.55 -4.30 0 -2.25 0.20 -2.70 1.95 -4.45 1.65 -1.65 2.25 -1.95 4.10 -1.95 3.85 0 6.30 2.35 6.80 6.50 0.25 2.30 0.50 2.70 2.65 4.25 1.30 0.95 2.60 1.75 2.85 1.75 0.60 0 11.20 -14.35 11.50 -15.50 0.10 -0.45 -1.30 -2.10 -3.55 -4.15 -7.10 -6.40 -13.60 -16.90 -15.85 -25.60 -1.45 -5.60 -1.45 -12.30 -0.05 -17.40 0.60 -2.10 1.10 -4.10 1.10 -4.35 0 -1.60 -5.30 0.90 -7.95 3.70 -1.50 1.55 -1 2.30 1.50 2.30 1.40 0 1.95 0.20 1.95 0.75 0 0.40 -0.20 0.75 -0.40 0.75 -0.90 0 -8.60 6.05 -8.60 6.75 0 0.45 0.80 1.25 1.75 1.80 l1.75 1.05 -1.05 1.30 c-0.55 0.75 -1.80 2 -2.75 2.75 -1.65 1.40 -3.20 3.70 -3.20 4.85 0 0.30 0.80 0.90 1.75 1.30 0.95 0.40 1.75 0.80 1.75 0.90 0 0.10 -1.15 1.60 -2.55 3.35 -2.90 3.55 -4.70 7.10 -4.25 8.30 0.25 0.65 0.85 0.70 3.15 0.45 l2.80 -0.35 -2.55 2.75 c-2.95 3.15 -3.70 5.10 -2.35 6.15 0.55 0.35 1.45 0.65 2.10 0.65 1.70 0 1.45 1.10 -0.90 3.80 -4.05 4.70 -4.30 6.80 -1 7.95 l1.60 0.50 -1.55 1.50 c-3.60 3.40 -4.30 6.40 -1.70 7.05 1.50 0.40 1.50 0.40 -0.05 3.40 -0.70 1.35 -1.25 2.85 -1.25 3.30 0 1.10 1.95 2.85 3.65 3.25 1.05 0.30 1.30 0.55 1.05 1.20 -0.20 0.45 -0.45 2.40 -0.60 4.35 -0.20 3.40 -0.15 3.60 1.20 4.65 1 0.75 1.95 1.05 3.20 0.95 l1.75 -0.15 -0.15 2.05 c-0.20 2.70 0.65 3.40 3.65 3 2 -0.35 2.25 -0.25 2.25 0.65 0 2.95 1.75 3.35 4.90 1 2.15 -1.60 2.25 -1.55 2.10 0.60 -0.15 3 2.75 3.10 5.95 0.20 1.05 -0.95 2.05 -1.60 2.25 -1.40 0.15 0.15 0.30 1.15 0.30 2.15 0 1 0.25 2.05 0.60 2.40 0.95 0.95 3.30 0.75 3.90 -0.35z m80.50 -14.55 c2.55 -2.55 -0.40 -6.95 -3.70 -5.45 -1.60 0.75 -2.40 2.60 -1.80 4.15 0.85 2.35 3.75 3.05 5.50 1.30z m-94.40 -1.35 c1.10 -1 1.15 -3.50 0.05 -4.75 -1 -1.10 -3.50 -1.15 -4.75 -0.05 -1.10 1 -1.15 3.50 -0.05 4.75 1 1.10 3.50 1.15 4.75 0.05z m72.85 -4.20 c0.95 -1.70 0.40 -3.65 -1.20 -4.35 -1.80 -0.85 -2.60 -0.75 -3.75 0.40 -1.20 1.20 -1.30 3.35 -0.15 4.60 1.25 1.40 4.15 1.05 5.10 -0.65z m-51.05 0.25 c1.35 -0.90 1.50 -3.45 0.25 -4.80 -1.70 -1.90 -5.65 -0.40 -5.65 2.20 0 1.40 1.90 3.40 3.25 3.40 0.55 0 1.55 -0.35 2.15 -0.80z m76.35 -16.95 c1.50 -1.50 1.55 -2.70 0.20 -4.45 -2 -2.50 -5.95 -1.20 -5.95 2 0 3.40 3.40 4.85 5.75 2.45z m-101.35 -1.05 c1.55 -1.05 1.55 -4.35 0 -5.40 -2.45 -1.75 -5.55 -0.20 -5.55 2.70 0 2.90 3.10 4.45 5.55 2.70z"/>
 </g>
 <g fill="none">
  <path d="M0 70 l0 -70 71 0 71 0 0 70 0 70 -71 0 -71 0 0 -70z m74.50 68.05 c3.60 -2.55 3.15 -9.20 -0.75 -10.95 l-1.30 -0.60 0.15 -6.60 0.15 -6.65 6.75 -0.15 c7.90 -0.15 8.65 -0.05 9.40 1.65 0.75 1.65 3.45 3.25 5.50 3.25 1.85 0 3.30 -0.60 4.90 -2.10 0.85 -0.75 1.30 -0.85 2.45 -0.40 1.85 0.70 3.85 0.25 5.25 -1.25 l1.15 -1.20 1.90 0.95 c2.35 1.25 3.90 1.25 5.85 0.15 1.45 -0.85 1.55 -0.85 2.50 0 1.40 1.25 3 1.05 4.60 -0.65 1.05 -1.10 1.85 -1.50 3.10 -1.50 2.10 0 3.75 -1.55 4 -3.75 0.15 -1.30 0.40 -1.55 2.05 -1.80 3 -0.50 3.55 -1.35 3.85 -6.30 l0.25 -4.35 1.65 -0.40 c2.45 -0.65 2.95 -2.30 1.85 -6.55 l-0.85 -3.45 1.15 -1.20 c1.45 -1.55 1.45 -3.95 -0.10 -6.65 -1.05 -1.90 -1.05 -2.10 -0.30 -2.95 0.45 -0.50 0.85 -1.60 0.85 -2.40 0 -1.65 -2.10 -6.25 -3.30 -7.25 -0.60 -0.50 -0.50 -0.75 0.80 -1.50 1.80 -1.10 1.90 -2.25 0.45 -5.05 -1.05 -2 -1.05 -2.10 -0.15 -2.70 1.90 -1.30 2.20 -1.75 2.20 -3.30 0 -1.65 -1.65 -4.85 -4.10 -7.95 -1.70 -2.25 -1.75 -2.60 -0.15 -3.65 2.15 -1.45 1.70 -3.10 -2 -6.80 l-3.30 -3.30 1.05 -1.30 c0.55 -0.70 1 -1.70 1 -2.20 0 -0.50 -1.30 -2.15 -2.85 -3.65 -1.60 -1.50 -2.65 -2.80 -2.35 -2.90 0.30 -0.10 0.95 -0.50 1.50 -0.85 0.80 -0.60 0.85 -0.90 0.30 -2.65 -0.30 -1.05 -1.20 -2.55 -1.95 -3.25 -1.95 -1.85 -6.05 -3.80 -9.25 -4.40 -1.45 -0.30 -3.20 -0.95 -3.90 -1.50 -2.95 -2.40 -6.50 -4.50 -9 -5.30 -2.25 -0.75 -3 -0.75 -4.95 -0.25 -2.90 0.75 -5.95 2.80 -7.45 5.05 -2.15 3.15 -0.90 7.25 2.95 9.90 3.20 2.20 8.30 0.80 9.75 -2.65 1.65 -3.95 -2.75 -7.85 -6.20 -5.45 -1.65 1.15 -1.35 1.70 0.90 1.70 2.25 0 2.80 0.70 2.30 2.75 -0.65 2.60 -4 2.05 -5.80 -0.90 -1.30 -2.10 -1.25 -3.45 0.20 -4.80 3.10 -2.95 8.85 -2.20 13.15 1.65 8.35 7.50 6.85 21.55 -3.75 35.80 -7.55 10.15 -17.65 17.20 -28.40 19.85 -4.05 1 -4.95 0.60 -4.90 -2.05 0 -1 0.05 -9.65 0.10 -19.30 l0.10 -17.50 5.15 0 c3.05 0 5.60 0.25 6.30 0.65 1.85 0.95 3.15 3 3.40 5.55 0.20 1.40 0.50 2.25 0.85 2.15 0.35 -0.10 0.60 -3.35 0.70 -10.05 0.10 -7.75 0 -9.85 -0.50 -9.70 -0.35 0.15 -0.80 1.20 -1 2.40 -0.70 4.10 -3.20 5.50 -9.80 5.50 -3.50 0 -4.55 -0.15 -4.80 -0.75 -0.15 -0.40 -0.15 -3.05 0.05 -5.85 0.20 -3.75 0.55 -5.55 1.20 -6.70 1.05 -1.75 3.65 -3.20 5.65 -3.20 0.95 0 1.30 -0.25 1.30 -1 0 -0.95 -0.35 -1 -9.65 -1 -5.35 0 -9.85 0.15 -10 0.35 -0.65 0.60 0.75 1.65 2.20 1.65 1.80 0 4.70 2.50 5.40 4.65 0.35 1 0.40 3.45 0.15 6.60 l-0.35 5 -4.50 -0.05 c-5.15 -0.05 -7.25 -0.85 -8.75 -3.35 -0.55 -0.90 -1 -2.35 -1 -3.25 0 -1.15 -0.20 -1.60 -0.60 -1.50 -0.50 0.15 -0.75 2.75 -0.95 9.45 -0.15 5.05 -0.15 9.50 -0.05 9.85 0.45 1.30 1.35 0.20 1.60 -1.95 0.60 -4.65 2.35 -5.70 9.50 -5.70 l4.75 0 0.15 4.50 c0.10 2.50 0 11.35 -0.15 19.70 l-0.35 15.20 -3.10 -0.30 c-1.90 -0.15 -4.60 -0.90 -7.10 -1.95 -12.80 -5.50 -24.50 -18.20 -29.25 -31.90 -3.80 -11.05 -1.10 -20.90 6.85 -24.80 2.30 -1.15 3.15 -1.30 5.65 -1.05 3.10 0.25 5.30 1.35 5.65 2.75 0.65 2.50 -1.90 6.10 -4.35 6.10 -1.50 0 -2.95 -1.65 -2.50 -2.95 0.30 -1.05 1.90 -1.75 3.30 -1.45 1.20 0.25 0.75 -1.25 -0.60 -2.05 -1.80 -1 -3.75 -0.35 -4.95 1.60 -2.45 4 0.30 7.85 5.60 7.85 4.25 0 7.40 -3.30 7.40 -7.65 0 -2.20 -0.20 -2.60 -2.45 -4.85 -3.10 -3.10 -6.80 -4.40 -10.15 -3.45 -2.80 0.75 -5.05 1.90 -8.35 4.40 -1.60 1.20 -3.30 2.05 -4.05 2.05 -3.55 0 -10.10 3.15 -11.70 5.60 -0.45 0.65 -0.95 1.90 -1.10 2.80 -0.30 1.40 -0.15 1.65 1 2.10 0.70 0.25 1.30 0.60 1.30 0.75 0 0.20 -1.25 1.45 -2.75 2.85 -2.85 2.60 -3.45 4.20 -2 5.40 1.20 1 0.90 1.60 -2.50 5 -3.60 3.60 -3.95 4.80 -1.95 6.65 l1.25 1.20 -2.75 3.90 c-1.55 2.10 -2.95 4.40 -3.10 5.05 -0.50 1.85 0.20 3.70 1.55 4.20 0.70 0.25 1.25 0.60 1.25 0.75 0 0.15 -0.55 1.40 -1.25 2.80 -1 1.95 -1.15 2.70 -0.75 3.45 0.30 0.55 0.70 1 0.90 1 0.20 0 0.65 0.20 1 0.45 0.50 0.30 0.25 1 -1.10 3 -2.25 3.30 -2.70 5.50 -1.50 7.45 0.80 1.45 0.80 1.55 -0.30 3.05 -1.75 2.50 -1.85 5.05 -0.35 6.85 l1.25 1.50 -0.95 2.80 c-1.30 3.90 -0.90 5.65 1.60 6.95 l1.95 0.95 -0.05 4.05 c-0.05 4.40 0.65 5.95 2.85 5.95 1.95 0 2.70 0.55 2.70 2 0 2.20 1.75 4 3.95 4 1.50 0 2.10 0.30 2.95 1.50 1.30 1.70 3.20 2 5 0.70 1.05 -0.70 1.20 -0.70 2.40 0.25 1.65 1.30 2.95 1.30 5.45 0.05 l1.95 -1 1.45 1.40 c1.20 1.15 1.80 1.35 4.10 1.25 2.05 -0.05 2.85 0.15 3.50 0.85 1.20 1.35 4 2.15 6 1.80 1.50 -0.30 3.30 -1.70 5.20 -4.05 0.60 -0.75 1.40 -0.80 7.75 -0.50 3.85 0.20 7.20 0.45 7.45 0.60 0.20 0.10 0.35 2.90 0.35 6.20 0 5.40 -0.10 6.05 -1.05 6.85 -4 3.45 -4.80 5.05 -3.95 8.20 1.20 4.20 6.75 6.05 10.50 3.45z"/>
  <path d="M68.30 135.25 c-1.85 -1.90 -1.10 -4.90 1.40 -5.55 3.40 -0.85 5.50 3.95 2.60 5.90 -0.95 0.65 -3.20 0.45 -4 -0.35z"/>
  <path d="M91.80 113.40 c-1.05 -1.45 -1 -2.55 0.10 -3.90 1.80 -2.20 5.60 -0.85 5.60 2 0 2.80 -4.10 4.15 -5.70 1.90z"/>
  <path d="M102.05 114.05 c-0.35 -0.25 -0.85 -1.65 -1.10 -3.10 -0.55 -3.50 -2.45 -5.45 -5.55 -5.80 -2.65 -0.30 -4.95 0.70 -6.25 2.75 -0.50 0.75 -1.10 1.55 -1.40 1.75 -0.60 0.45 -14.35 -0.10 -14.90 -0.65 -0.20 -0.20 -0.25 -8.80 -0.05 -19.15 l0.35 -18.75 2.75 -0.35 c4.35 -0.55 10 -2.15 14.05 -4.05 2 -0.95 4 -1.70 4.35 -1.70 0.60 0 11.70 15.65 11.70 16.50 0 0.20 -1.15 1.25 -2.55 2.25 l-2.60 1.85 -2.40 -0.75 c-3 -1 -5.15 -0.45 -7.25 1.70 -1.25 1.30 -1.45 1.90 -1.45 4.20 0 2.90 1.10 4.60 3.85 6.05 1.85 0.95 3.10 0.90 5.40 -0.30 2.30 -1.15 3.50 -3.15 3.50 -5.85 0 -1.75 0.25 -2.05 2.85 -3.75 3.25 -2.10 3.30 -2.10 5.70 1.70 1.45 2.25 1.55 2.65 1.05 4.10 -0.85 2.35 -0.75 4.35 0.40 6.15 2.35 3.95 6.80 4.45 10.05 1.20 1.65 -1.60 1.95 -2.25 1.95 -4 0 -4.15 -2.80 -7.05 -6.80 -7.05 -1.95 0 -2.15 -0.15 -3.90 -2.75 -1 -1.50 -1.80 -3 -1.80 -3.35 0 -0.35 1.25 -1.50 2.75 -2.55 2.65 -1.85 2.75 -1.85 4.20 -1.10 2.75 1.40 5.90 0.60 7.95 -2 1.60 -2.05 1.80 -3.90 0.70 -6.45 -1.15 -2.55 -3.10 -3.80 -5.85 -3.80 -3.75 0 -6.10 2.30 -6.60 6.40 -0.25 2.20 -0.45 2.50 -2.75 4 -1.35 0.95 -2.75 1.55 -3.10 1.45 -0.35 -0.15 -3.05 -3.80 -6.05 -8.10 l-5.40 -7.90 2.70 -2.25 c14.90 -12.50 22.45 -30.80 18.50 -44.70 -0.55 -1.80 -0.85 -3.45 -0.65 -3.60 0.70 -0.70 2.40 -0.15 4.85 1.55 4.35 3.05 4.75 4.65 1.20 4.65 -1.05 0 -1.95 0.20 -1.95 0.45 0 0.25 1.90 1.85 4.25 3.60 2.30 1.70 4.35 3.50 4.50 3.90 0.30 0.75 -0.45 1.60 -2.55 2.85 -0.85 0.50 -0.70 0.85 2.15 3.85 1.70 1.80 3.20 3.75 3.40 4.35 0.40 1.25 -0.50 2.50 -1.80 2.50 -1.70 0 -1.50 1 0.80 4 2.40 3.10 4.20 6.60 4.25 8.15 0 1.20 -0.95 1.50 -3.40 0.90 -1.15 -0.25 -2.10 -0.35 -2.10 -0.20 0 0.15 0.80 1.15 1.75 2.25 3.75 4.10 4 6.45 0.75 7.10 -0.85 0.15 -1.50 0.55 -1.50 0.85 0 0.30 1 1.90 2.25 3.55 3.40 4.50 3.60 6.65 0.75 7.20 -0.80 0.20 -1.50 0.40 -1.50 0.50 0 0.10 1 1.60 2.25 3.30 1.25 1.70 2.20 3.40 2.15 3.85 -0.10 0.60 -1.70 1.75 -3.30 2.35 -0.05 0.05 0.45 1.05 1.15 2.25 2.10 3.70 1.50 5.75 -2.10 6.95 -1.45 0.55 -1.50 0.65 -1.10 2.40 1.30 5.55 -0.15 8.60 -4.05 8.60 -2 0 -2 0 -2 1.90 0 2.60 -0.55 3.25 -2.55 3 -0.95 -0.15 -2.05 -0.35 -2.45 -0.45 -0.45 -0.15 -0.80 0.25 -0.90 1.05 -0.45 2.85 -2.05 3.20 -4.60 1 -2.25 -1.90 -2.90 -1.90 -2.60 0.05 0.45 3.10 -2.50 3.30 -5.60 0.45 -1.15 -1.10 -2.30 -1.85 -2.45 -1.65 -0.20 0.15 -0.35 1.15 -0.35 2.15 0 1 -0.25 2.05 -0.60 2.40 -0.70 0.70 -2.35 0.75 -3.35 0.15z"/>
  <path d="M45.10 113.20 c-0.70 -0.45 -1.10 -1.30 -1.10 -2.15 0 -2.95 2.85 -4.35 5.15 -2.55 3.40 2.70 -0.50 7.20 -4.05 4.70z"/>
  <path d="M36.10 112.90 c-0.35 -0.35 -0.60 -1.40 -0.60 -2.40 0 -1 -0.15 -2 -0.30 -2.15 -0.20 -0.20 -1.20 0.45 -2.25 1.40 -3.20 2.90 -6.10 2.80 -5.95 -0.20 0.15 -2.15 0.05 -2.20 -2.10 -0.60 -3.15 2.35 -4.90 1.95 -4.90 -1 0 -0.90 -0.25 -1 -2.25 -0.65 -3 0.40 -3.85 -0.30 -3.65 -3 l0.15 -2.05 -1.75 0.15 c-1.25 0.10 -2.20 -0.20 -3.20 -0.95 -1.35 -1.05 -1.40 -1.25 -1.20 -4.65 0.15 -1.95 0.40 -3.90 0.60 -4.35 0.25 -0.65 0 -0.90 -1.05 -1.20 -1.70 -0.40 -3.65 -2.15 -3.65 -3.25 0 -0.45 0.55 -1.95 1.25 -3.30 1.55 -3 1.55 -3 0.05 -3.40 -2.60 -0.65 -1.90 -3.65 1.70 -7.05 l1.55 -1.50 -1.60 -0.50 c-3.30 -1.15 -3.05 -3.25 1 -7.95 2.35 -2.70 2.60 -3.80 0.90 -3.80 -0.65 0 -1.55 -0.30 -2.10 -0.65 -1.35 -1.05 -0.60 -3 2.35 -6.15 l2.55 -2.75 -2.80 0.35 c-2.30 0.25 -2.90 0.20 -3.15 -0.45 -0.45 -1.20 1.35 -4.75 4.25 -8.30 1.40 -1.75 2.55 -3.25 2.55 -3.35 0 -0.10 -0.80 -0.50 -1.75 -0.90 -0.95 -0.40 -1.75 -1 -1.75 -1.30 0 -1.15 1.55 -3.45 3.20 -4.85 0.95 -0.75 2.20 -2 2.75 -2.75 l1.05 -1.30 -1.75 -1.05 c-0.95 -0.55 -1.75 -1.35 -1.75 -1.80 0 -0.70 7.70 -6.75 8.60 -6.75 0.20 0 0.40 -0.35 0.40 -0.75 0 -0.55 -0.55 -0.75 -1.95 -0.75 -2.50 0 -3 -0.75 -1.50 -2.30 2.65 -2.80 7.95 -5.30 7.95 -3.70 0 0.25 -0.50 2.25 -1.10 4.35 -1.40 5.10 -1.40 11.80 0.05 17.40 2.25 8.70 8.75 19.20 15.85 25.60 2.25 2.05 3.65 3.70 3.55 4.15 -0.30 1.15 -10.90 15.50 -11.50 15.50 -0.25 0 -1.55 -0.80 -2.85 -1.75 -2.15 -1.55 -2.40 -1.95 -2.65 -4.25 -0.50 -4.15 -2.95 -6.50 -6.80 -6.50 -1.85 0 -2.45 0.30 -4.10 1.95 -1.75 1.75 -1.95 2.20 -1.95 4.45 0 2.15 0.25 2.85 1.55 4.30 1.85 2.10 4.10 2.65 7.15 1.80 2.15 -0.60 2.25 -0.55 4.75 1.30 1.40 1.05 2.55 2.15 2.55 2.45 -0.05 0.25 -1 1.70 -2.15 3.20 -1.95 2.55 -2.25 2.75 -4.40 2.80 -3.90 0.20 -6.45 2.70 -6.45 6.50 0 6.05 6.60 8.65 11.10 4.40 1.70 -1.65 2.25 -4.15 1.40 -6.70 -0.65 -1.85 -0.60 -2 1.30 -4.70 1.05 -1.55 2.10 -2.95 2.30 -3.05 0.20 -0.15 1.60 0.60 3.10 1.65 2.50 1.75 2.75 2.05 2.80 3.80 0.05 5.20 5.05 8.45 9.50 6.20 3.15 -1.60 4.40 -6.10 2.50 -9.20 -1.75 -2.90 -4.35 -3.60 -9 -2.40 -1 0.25 -1.80 -0.10 -3.65 -1.50 -1.30 -1 -2.35 -2 -2.35 -2.30 0 -0.50 11.40 -16.45 11.80 -16.45 0.10 0 1.40 0.65 2.85 1.45 3.65 2.05 11 4.55 14.40 4.90 1.55 0.15 3.10 0.45 3.45 0.65 0.45 0.30 0.50 4.80 0.15 19.30 l-0.40 18.95 -7.25 0.15 -7.25 0.15 -1.90 -2.25 c-2.15 -2.60 -4.45 -3.50 -6.95 -2.75 -2.85 0.80 -4.90 3.15 -4.90 5.60 0 2.15 -0.85 3.35 -2.40 3.35 -0.80 0 -1.65 -0.25 -2 -0.60z"/>
  <path d="M116.35 98.45 c-2.25 -1.30 -1.95 -4.80 0.45 -5.90 2.10 -0.95 4.70 0.70 4.70 3.05 0 2.65 -2.80 4.20 -5.15 2.85z"/>
  <path d="M21.35 96.60 c-1.10 -1.25 -1.05 -3.75 0.05 -4.75 1.25 -1.10 3.75 -1.05 4.75 0.05 1.10 1.25 1.05 3.75 -0.05 4.75 -1.25 1.10 -3.75 1.05 -4.75 -0.05z"/>
  <path d="M93.85 93.10 c-1.15 -1.25 -1.05 -3.40 0.15 -4.60 1.15 -1.15 1.95 -1.25 3.75 -0.40 1.60 0.70 2.15 2.65 1.20 4.35 -0.95 1.70 -3.85 2.05 -5.10 0.65z"/>
  <path d="M43.60 92.35 c-1.35 -1.45 -1.40 -3.05 -0.10 -4.35 2.15 -2.15 5.50 -0.70 5.50 2.40 0 2.85 -3.40 4.10 -5.40 1.95z"/>
  <path d="M119.50 76 c-1.40 -1.40 -1.35 -4.20 0.10 -5.20 1.70 -1.20 3.65 -1 4.85 0.50 1.35 1.75 1.30 2.95 -0.20 4.45 -1.45 1.50 -3.40 1.60 -4.75 0.25z"/>
  <path d="M18.45 74.60 c-2.30 -1.90 -0.80 -6.10 2.25 -6.10 2 0 3.30 1.35 3.30 3.50 0 3.15 -3.05 4.55 -5.55 2.60z"/>
 </g>
</svg>
