<?xml version="1.0" encoding="utf-8"?>
<!DOCTYPE svg PUBLIC "-//W3C//DTD SVG 1.0//EN" "http://www.w3.org/TR/2001/REC-SVG-20010904/DTD/svg10.dtd">
<svg version="1.0" xmlns="http://www.w3.org/2000/svg" width="153px" height="140px" viewBox="0 0 153 140" preserveAspectRatio="xMidYMid meet">
 <g fill="#000000">
  <path d="M54.25 138.70 c-0.30 -0.10 4.70 -5.45 11.10 -11.85 l11.65 -11.60 0 -16.90 0 -16.85 -4.25 0 c-3.95 0 -4.35 0.10 -5.80 1.40 -1 0.90 -1.75 2.25 -2.20 3.85 -0.40 1.60 -0.90 2.55 -1.45 2.65 -0.75 0.15 -0.80 -0.65 -0.50 -9.50 0.15 -5.30 0.40 -9.95 0.50 -10.30 0.30 -1.05 1.20 -0.15 1.20 1.15 0 0.70 0.35 2.10 0.80 3.20 1 2.45 3 3.50 7.60 3.90 4.60 0.40 4.65 0.30 4.50 -7.40 l-0.15 -6.20 -19.15 -0.15 c-20.90 -0.10 -20.45 -0.20 -19 2.70 0.40 0.85 1.35 1.60 2.40 1.95 1.20 0.40 1.75 0.90 1.75 1.55 0 0.90 -0.50 0.95 -6.40 1.10 -5.35 0.10 -6.40 0 -6.65 -0.65 -0.45 -1.05 0.70 -2.25 2.10 -2.25 1.40 0 2.85 -1.95 2.60 -3.60 -0.15 -1.10 -0.35 -1.15 -4.40 -1.15 l-4.25 0 -0.15 10.20 c-0.15 11.55 1.10 23.35 2.95 28.35 1.30 3.50 4.20 6.50 6.70 7 5.50 1 11.60 -1.75 13.20 -5.95 0.70 -1.85 0.70 -13.20 0.05 -13.60 -0.90 -0.55 -1.70 0.55 -2.70 3.45 -1.25 3.65 -1.95 4.25 -3.10 2.55 -1.40 -2.15 -1 -6.15 1.65 -16.40 2.85 -11.10 3 -11.20 6.70 -5.60 3.90 5.90 8.40 19.80 6.95 21.50 -0.80 0.95 -1.60 0.35 -3.10 -2.30 -1.85 -3.30 -2.05 -2.90 -2.85 5.35 -0.55 5.75 -2 9.40 -4.55 11.20 -2.25 1.60 -6.65 3 -9.35 3 -4.55 0 -10.05 -4.40 -12.80 -10.20 -2.75 -5.75 -3.05 -7.95 -3.35 -23.80 l-0.25 -14.75 -3.75 -0.15 c-3.70 -0.10 -3.75 -0.10 -4.60 1.35 -3.40 6.10 -12.90 3.60 -12.90 -3.45 0 -2.70 1.25 -4.85 3.60 -6.05 3.60 -1.85 7.40 -0.70 9.50 2.85 l1 1.75 3.60 -0.15 3.55 -0.15 0.15 -9.60 0.10 -9.55 -3.25 -0.20 c-4 -0.20 -4.10 -0.15 -5.05 1.65 -1.65 3.25 -6.35 4.45 -9.60 2.45 -2.15 -1.30 -3.80 -4.90 -3.30 -7.15 0.70 -3.35 3.55 -5.85 6.70 -5.85 2.45 0 4.90 1.30 6.05 3.20 1.20 2 1.35 2.10 5 2.25 1.90 0.10 2.95 -0.10 3.40 -0.60 0.40 -0.50 0.55 -2.85 0.45 -7.90 l-0.15 -7.20 -1.85 -0.15 c-1.60 -0.15 -1.95 0.05 -2.60 1.30 -0.70 1.35 -3.40 3.10 -4.75 3.10 -0.30 0 -1.45 -0.35 -2.55 -0.80 -2.40 -0.95 -3.50 -2.75 -3.50 -5.75 0 -1.65 0.30 -2.35 1.70 -3.75 1.45 -1.45 2.05 -1.70 4 -1.70 2 0 2.60 0.25 4.50 2 1.40 1.30 2.65 2 3.50 2 1.60 0 1.60 -0.20 0.20 -2.10 -1.30 -1.85 -1.75 -5.85 -0.90 -7.90 1.70 -4.10 6.65 -6 10.70 -4 4.75 2.25 6 7.35 3 11.75 -0.70 1.05 -1.20 1.95 -1.10 2.05 0.15 0.10 28.70 0.35 30.75 0.25 0.45 -0.05 0.65 -2.20 0.75 -8.15 l0.15 -8.15 15 0 15 0 0.15 8.30 0.10 8.30 6.40 0.30 c8.05 0.45 24.35 0.45 24.75 0.05 0.15 -0.20 -0.15 -0.95 -0.75 -1.70 -3.80 -5.20 -0.05 -12.65 6.35 -12.65 6.20 0 10 7.20 6.50 12.35 -0.70 1 -1.25 1.95 -1.25 2.05 0 0.15 0.70 0.25 1.55 0.25 1.15 0 2.05 -0.45 3.25 -1.70 1.95 -2 4.15 -2.55 6.40 -1.60 2.45 1 3.80 3.05 3.80 5.65 0 1.90 -0.25 2.50 -1.70 3.95 -1.40 1.40 -2.10 1.70 -3.80 1.70 -2.35 0 -4.85 -1.25 -5.30 -2.60 -0.40 -1.25 -1.95 -2 -3.45 -1.60 l-1.25 0.30 0 7.65 0 7.60 2.40 0.35 c1.30 0.20 3.45 0.95 4.85 1.70 2 1.10 2.75 1.90 4 4.30 1.35 2.65 1.50 3.45 1.50 7.25 -0.05 8.10 -3.25 12.10 -10.50 13 l-2.50 0.30 -0.35 13 c-0.45 18 -1.45 22.50 -6.60 29.20 -4.50 5.85 -8.70 7.45 -14.80 5.60 -6.65 -2.05 -8.80 -5.40 -9.55 -15 -0.20 -3.20 -0.45 -5.85 -0.45 -5.90 -0.05 -0.70 -1.10 0.25 -2.30 2.10 -1.45 2.30 -2.50 2.85 -3 1.50 -0.45 -1.15 1.50 -8.45 3.60 -13.45 2.65 -6.30 6.90 -12.25 8 -11.20 0.80 0.85 4.70 18.35 4.70 21.40 0 3.30 -0.95 5.75 -2.10 5.40 -0.30 -0.10 -1.15 -1.75 -1.90 -3.70 -2 -5.30 -2.70 -4.75 -3.05 2.55 -0.30 7.05 0 8.50 2.15 10.60 3.30 3.20 9.65 4.55 12.90 2.75 2.35 -1.30 4.30 -3.85 5.50 -7.15 1.75 -5.10 3.10 -16.75 3.20 -27.70 l0.05 -10 -4.25 0 c-4.05 0 -4.25 0.05 -4.40 1.15 -0.25 1.70 1.10 3.40 2.90 3.80 1.30 0.25 1.55 0.50 1.40 1.40 -0.15 1.10 -0.35 1.15 -5.65 1.30 -4.10 0.10 -5.75 -0.05 -6.45 -0.55 -1.25 -0.95 -0.70 -2.35 0.90 -2.35 1.95 0 4.35 -3.85 2.95 -4.65 -0.25 -0.15 -8.95 -0.30 -19.40 -0.40 l-19 -0.20 -0.15 6.90 -0.15 6.85 3.65 0 c6 0 8.45 -1.70 9.20 -6.50 0.20 -1.25 0.60 -2 1 -2 0.60 0 0.70 1.75 0.60 10.15 -0.15 8.50 -0.25 10.10 -0.90 10.10 -0.45 0 -0.85 -0.75 -1.10 -2.10 -0.75 -4.55 -3 -6.15 -8.55 -6.15 l-3.70 0 -0.30 3.40 c-0.20 1.85 -0.35 9.50 -0.35 17 l0 13.70 10.85 11.05 c5.95 6.10 11 11.20 11.25 11.25 0.20 0.10 0.40 0.40 0.40 0.65 0 0.45 -47.70 0.60 -48.75 0.15z m40.05 -3.25 c0.35 -0.65 -14.65 -15.95 -15.65 -15.95 -1 0 -16.25 15.10 -15.75 15.60 0.20 0.20 6.80 0.45 14.60 0.55 7.85 0.05 14.75 0.15 15.35 0.25 0.60 0.05 1.25 -0.15 1.45 -0.45z m-83.85 -71.75 c1.30 -1.70 1.30 -2.70 0 -4.40 -1.20 -1.50 -3.15 -1.70 -4.85 -0.50 -1.35 0.95 -1.50 3.90 -0.25 5.30 1.25 1.40 3.85 1.20 5.10 -0.40z m71.05 -3.45 c5.05 -2.60 1.75 -10.05 -3.65 -8.25 -2.90 0.95 -4.05 4.60 -2.20 7.05 1.50 1.95 3.55 2.40 5.85 1.20z m38.40 -3.45 c0.15 -4.45 -0.45 -5.95 -2.75 -6.55 -1.65 -0.40 -2.30 -1.25 -1.55 -2.10 0.80 -1 11.55 -0.90 12.40 0.10 0.75 0.90 -0.10 2.25 -1.45 2.25 -0.50 0 -1.35 0.55 -2 1.20 -0.95 1.05 -1.10 1.60 -0.95 5.10 l0.15 3.95 4.25 0 4.25 0 0.15 -9.60 0.10 -9.55 -13.85 -0.20 c-7.70 -0.10 -14.20 0.05 -14.50 0.30 -0.75 0.50 -0.85 4.10 -0.15 4.55 1 0.60 2.60 -0.40 3.30 -2.10 0.50 -1.15 1 -1.65 1.60 -1.55 0.75 0.15 0.85 0.85 0.85 5.40 0 4.95 -0.05 5.25 -1.05 5.40 -0.80 0.10 -1.15 -0.20 -1.40 -1.10 -0.35 -1.40 -2 -2.55 -3.10 -2.10 -0.45 0.20 -0.70 1.05 -0.70 2.65 0 2.85 0.30 3.40 2.15 4.10 0.95 0.35 1.35 0.85 1.25 1.45 -0.15 0.75 -0.90 0.85 -5.35 1 -3.65 0.10 -5.35 -0.05 -5.60 -0.45 -0.50 -0.85 0 -1.95 0.90 -1.95 1.45 0 3.15 -2.35 3.15 -4.45 0 -2.25 -0.50 -2.80 -2.30 -2.35 -0.80 0.20 -1.45 0.90 -1.80 1.85 -0.40 1.15 -0.80 1.45 -1.60 1.35 -1 -0.15 -1.05 -0.40 -1.05 -5.40 0 -5.25 0 -5.25 1.25 -5.25 0.85 0 1.30 0.35 1.50 1.25 0.15 0.70 0.90 1.60 1.65 2 1.20 0.65 1.45 0.65 1.85 0 0.30 -0.40 0.45 -1.65 0.40 -2.75 l-0.15 -2 -20.40 -0.15 -20.40 -0.10 0.15 2.35 c0.10 1.85 0.35 2.45 1.05 2.55 1.15 0.25 2.75 -1.15 2.95 -2.60 0.10 -0.75 0.50 -1.05 1.40 -1.05 1.25 0 1.25 0.05 1.30 4.70 0.10 5.60 0 6.05 -1.60 6.05 -0.85 0 -1.20 -0.30 -1.20 -1 0 -1.15 -2.15 -2.75 -3.20 -2.35 -1 0.40 -1.45 2.90 -0.80 4.55 0.30 0.80 1.20 1.65 2.30 2.10 1.20 0.50 1.70 1 1.60 1.60 -0.15 0.75 -0.85 0.85 -5.65 0.85 -4.80 0 -5.50 -0.10 -5.65 -0.85 -0.10 -0.60 0.30 -1.10 1.25 -1.45 0.75 -0.25 1.55 -0.80 1.75 -1.10 0.60 -0.95 0.50 -5.85 -0.15 -5.85 -1.10 0 -2.50 1.10 -2.95 2.30 -0.30 0.70 -0.85 1.20 -1.50 1.20 -0.95 0 -1 -0.30 -1 -5.45 0 -3.05 0.20 -5.60 0.45 -5.75 0.85 -0.55 2.05 0.30 2.05 1.50 0 1.60 2.20 3.10 3.25 2.20 0.90 -0.75 1 -3.55 0.15 -4.40 -0.45 -0.45 -4.35 -0.60 -14.50 -0.60 l-13.90 0 -0.10 4.15 c0 2.25 -0.10 6.60 -0.10 9.60 l-0.05 5.50 4.40 0.15 4.35 0.15 0 -4.45 c0 -4.85 -0.25 -5.35 -2.85 -6.05 -1.05 -0.30 -1.40 -0.70 -1.40 -1.60 l0 -1.20 6.25 0 6.25 0 0 1.25 c0 1 -0.30 1.30 -1.30 1.40 -2.25 0.25 -3 1.60 -3.30 6.05 -0.25 3.20 -0.15 4.05 0.40 4.25 0.40 0.10 7.95 0.35 16.80 0.50 l16.15 0.35 -0.30 -2.95 c-0.60 -5.35 2.10 -8.65 7.25 -9 2.30 -0.15 3.10 0 4.50 1 3.10 2.10 4.25 5.25 3.35 9.25 l-0.35 1.60 5.65 0.15 c3.10 0.10 10.60 0.15 16.65 0.15 l11 0 0.15 -3.95z m22.15 3.10 c2.70 -1.50 3.95 -4.25 3.95 -8.70 0 -4.45 -1.30 -7 -4.50 -8.55 -2.60 -1.35 -4.75 -1.50 -5.20 -0.35 -0.40 1.05 -0.40 17.95 0.05 18.35 0.70 0.70 3.85 0.30 5.70 -0.75z m-131.55 -18.80 c2.45 -2 0.75 -6.10 -2.50 -6.10 -1.55 0 -3.50 1.95 -3.50 3.50 0 0.50 0.45 1.45 1.05 2.20 1.25 1.55 3.30 1.75 4.95 0.40z m122.20 -4.95 c0.55 -3.40 0.35 -12.90 -0.30 -13.55 -0.45 -0.45 -4 -0.60 -13 -0.60 -6.80 0 -12.40 0.10 -12.40 0.25 0 0.15 0.50 0.80 1.05 1.40 1.45 1.50 2.45 4 2.45 6.10 0 1.90 -1.40 5.15 -2.70 6.20 -1.95 1.65 -0.75 1.80 14.75 1.95 l9.80 0.10 0.35 -1.85z m-36.85 0 c-3.55 -3.75 -3.75 -8.85 -0.50 -12.25 0.75 -0.75 1.20 -1.50 1.10 -1.60 -0.20 -0.20 -2.30 -0.55 -4.55 -0.75 -0.25 -0.05 -0.40 -3.85 -0.40 -8.55 l0 -8.50 -9.85 -0.05 c-5.45 -0.05 -10.50 -0.10 -11.25 -0.15 -0.75 -0.10 -1.60 0 -1.85 0.20 -0.30 0.15 -0.60 3.55 -0.65 8.50 l-0.15 8.25 -2.35 0.15 c-2.30 0.15 -3 0.65 -1.90 1.35 1.15 0.70 2.50 4.30 2.50 6.70 0 1.95 -0.35 2.95 -1.70 4.95 -0.95 1.40 -1.55 2.65 -1.40 2.80 0.15 0.15 7.90 0.30 17.30 0.30 l17 0 -1.35 -1.35z m-43.85 0.40 c0 -0.25 -0.35 -0.70 -0.80 -1.10 -3.20 -2.65 -3.30 -8.60 -0.20 -12.15 l1.50 -1.70 -10.60 -0.35 c-5.85 -0.20 -11.65 -0.25 -12.90 -0.15 l-2.25 0.15 -0.15 7.45 c-0.10 5.65 0.05 7.55 0.50 7.90 0.90 0.55 24.90 0.50 24.90 -0.05z m48.60 -4.15 c0.90 -3 1.90 -2.70 2.65 0.75 0.65 3.10 3.75 0.20 3.75 -3.50 0 -1.80 -0.30 -2.50 -1.45 -3.70 -3.20 -3.20 -9.05 -1.05 -9.05 3.30 0 2.65 1.40 5 3.10 5.20 0.15 0.05 0.60 -0.90 1 -2.05z m-44.55 -0.25 c0.65 -3.35 1.70 -3.50 2.55 -0.40 0.35 1.25 0.80 2.25 1.05 2.25 0.75 0 2.80 -2.40 3.15 -3.70 0.75 -3.05 -2.05 -6.30 -5.40 -6.30 -1.60 0 -2.35 0.35 -3.70 1.70 -2.15 2.15 -2.30 4.50 -0.40 6.80 1.55 1.80 2.30 1.75 2.75 -0.35z m91.95 -9.65 c0.55 -0.55 1 -1.30 1 -1.65 0 -1.20 -1.55 -2.85 -2.75 -2.85 -2.45 0 -3.60 2.75 -1.90 4.60 1.05 1.20 2.40 1.15 3.65 -0.10z m-132.90 -1.35 c2.15 -1.95 -0.20 -5.45 -2.85 -4.25 -1.65 0.75 -2.15 2.85 -1 4.10 1.10 1.20 2.60 1.30 3.85 0.15z m119.75 -6.25 c1.65 -1.55 1.60 -4.80 -0.10 -6.40 -4.05 -3.85 -10.05 2.25 -6.20 6.30 1.50 1.60 4.65 1.65 6.30 0.10z m-104.20 -0.90 c3.40 -2.70 1.25 -8 -3.20 -8 -0.55 0 -1.70 0.65 -2.50 1.45 -4.05 4.05 1.20 10.10 5.70 6.55z"/>
 </g>
 <g fill="none">
  <path d="M0 70 l0 -70 76.50 0 76.50 0 0 70 0 70 -76.50 0 -76.50 0 0 -70z m103 68.55 c0 -0.25 -0.20 -0.55 -0.40 -0.65 -0.25 -0.05 -5.30 -5.15 -11.25 -11.25 l-10.85 -11.05 0 -13.70 c0 -7.50 0.15 -15.15 0.35 -17 l0.30 -3.40 3.70 0 c5.55 0 7.80 1.60 8.55 6.15 0.25 1.35 0.65 2.10 1.10 2.10 0.65 0 0.75 -1.60 0.90 -10.10 0.10 -8.40 0 -10.15 -0.60 -10.15 -0.40 0 -0.80 0.75 -1 2 -0.75 4.80 -3.20 6.50 -9.20 6.50 l-3.65 0 0.15 -6.85 0.15 -6.90 19 0.20 c10.45 0.10 19.15 0.25 19.40 0.40 1.40 0.80 -1 4.65 -2.95 4.65 -1.60 0 -2.15 1.40 -0.90 2.35 0.70 0.50 2.35 0.65 6.45 0.55 5.30 -0.15 5.50 -0.20 5.65 -1.30 0.15 -0.90 -0.10 -1.15 -1.40 -1.40 -1.80 -0.40 -3.15 -2.10 -2.90 -3.80 0.15 -1.10 0.35 -1.15 4.40 -1.15 l4.25 0 -0.05 10 c-0.10 10.95 -1.45 22.60 -3.20 27.70 -1.20 3.30 -3.15 5.85 -5.50 7.15 -3.25 1.80 -9.60 0.45 -12.90 -2.75 -2.15 -2.10 -2.45 -3.55 -2.15 -10.60 0.35 -7.30 1.05 -7.85 3.05 -2.55 0.75 1.95 1.60 3.60 1.90 3.70 1.15 0.35 2.10 -2.10 2.10 -5.40 0 -3.05 -3.90 -20.55 -4.70 -21.40 -1.10 -1.05 -5.35 4.90 -8 11.20 -2.10 5 -4.05 12.30 -3.60 13.45 0.50 1.35 1.55 0.80 3 -1.50 1.20 -1.85 2.25 -2.80 2.30 -2.10 0 0.05 0.25 2.70 0.45 5.90 0.75 9.60 2.90 12.95 9.55 15 6.10 1.85 10.30 0.25 14.80 -5.60 5.15 -6.70 6.15 -11.20 6.60 -29.20 l0.35 -13 2.50 -0.30 c7.25 -0.90 10.45 -4.90 10.50 -13 0 -3.80 -0.15 -4.60 -1.50 -7.25 -1.25 -2.40 -2 -3.20 -4 -4.30 -1.40 -0.75 -3.55 -1.50 -4.85 -1.70 l-2.40 -0.35 0 -7.60 0 -7.65 1.25 -0.30 c1.50 -0.40 3.05 0.35 3.45 1.60 0.45 1.35 2.95 2.60 5.30 2.60 1.70 0 2.40 -0.30 3.80 -1.70 1.45 -1.45 1.70 -2.05 1.70 -3.95 0 -2.60 -1.35 -4.65 -3.80 -5.65 -2.25 -0.95 -4.45 -0.40 -6.40 1.60 -1.20 1.25 -2.10 1.70 -3.25 1.70 -0.85 0 -1.55 -0.10 -1.55 -0.25 0 -0.10 0.55 -1.05 1.25 -2.05 3.50 -5.15 -0.30 -12.35 -6.50 -12.35 -6.40 0 -10.15 7.45 -6.35 12.65 0.60 0.75 0.90 1.50 0.75 1.70 -0.40 0.40 -16.70 0.40 -24.75 -0.05 l-6.40 -0.30 -0.10 -8.30 -0.15 -8.30 -15 0 -15 0 -0.15 8.15 c-0.10 5.95 -0.30 8.10 -0.75 8.15 -2.05 0.10 -30.60 -0.15 -30.75 -0.25 -0.10 -0.10 0.40 -1 1.10 -2.05 3 -4.40 1.75 -9.50 -3 -11.75 -4.05 -2 -9 -0.10 -10.70 4 -0.85 2.05 -0.40 6.05 0.90 7.90 1.40 1.90 1.40 2.10 -0.20 2.10 -0.85 0 -2.10 -0.70 -3.50 -2 -1.90 -1.75 -2.50 -2 -4.50 -2 -1.95 0 -2.55 0.25 -4 1.70 -1.40 1.40 -1.70 2.10 -1.70 3.75 0 3 1.10 4.80 3.50 5.75 1.10 0.45 2.25 0.80 2.55 0.80 1.35 0 4.05 -1.75 4.75 -3.10 0.65 -1.25 1 -1.45 2.60 -1.30 l1.85 0.15 0.15 7.20 c0.10 5.05 -0.05 7.40 -0.45 7.90 -0.45 0.50 -1.50 0.70 -3.40 0.60 -3.65 -0.15 -3.80 -0.25 -5 -2.25 -1.15 -1.90 -3.60 -3.20 -6.05 -3.20 -3.15 0 -6 2.50 -6.70 5.85 -0.50 2.25 1.15 5.85 3.30 7.15 3.25 2 7.95 0.80 9.60 -2.45 0.95 -1.80 1.05 -1.85 5.05 -1.65 l3.25 0.20 -0.10 9.55 -0.15 9.60 -3.55 0.15 -3.60 0.15 -1 -1.75 c-2.10 -3.55 -5.90 -4.70 -9.50 -2.85 -2.35 1.20 -3.60 3.35 -3.60 6.05 0 7.05 9.50 9.55 12.90 3.45 0.85 -1.45 0.90 -1.45 4.60 -1.35 l3.75 0.15 0.25 14.75 c0.30 15.85 0.60 18.05 3.35 23.80 2.75 5.80 8.25 10.20 12.80 10.20 2.70 0 7.10 -1.40 9.35 -3 2.55 -1.80 4 -5.45 4.55 -11.20 0.80 -8.25 1 -8.65 2.85 -5.35 1.50 2.65 2.30 3.25 3.10 2.30 1.45 -1.70 -3.05 -15.60 -6.95 -21.50 -3.70 -5.60 -3.85 -5.50 -6.70 5.60 -2.65 10.25 -3.05 14.25 -1.65 16.40 1.15 1.70 1.85 1.10 3.10 -2.55 1 -2.90 1.80 -4 2.70 -3.45 0.65 0.40 0.65 11.75 -0.05 13.60 -1.60 4.20 -7.70 6.95 -13.20 5.95 -2.50 -0.50 -5.40 -3.50 -6.70 -7 -1.85 -5 -3.10 -16.80 -2.95 -28.35 l0.15 -10.20 4.25 0 c4.05 0 4.25 0.05 4.40 1.15 0.25 1.65 -1.20 3.60 -2.60 3.60 -1.40 0 -2.55 1.20 -2.10 2.25 0.25 0.65 1.30 0.75 6.65 0.65 5.90 -0.15 6.40 -0.20 6.40 -1.10 0 -0.65 -0.55 -1.15 -1.75 -1.55 -1.05 -0.35 -2 -1.10 -2.40 -1.95 -1.45 -2.90 -1.90 -2.80 19 -2.70 l19.15 0.15 0.15 6.20 c0.15 7.70 0.10 7.80 -4.50 7.40 -4.60 -0.40 -6.60 -1.45 -7.60 -3.90 -0.45 -1.10 -0.80 -2.50 -0.80 -3.20 0 -1.30 -0.90 -2.20 -1.20 -1.15 -0.10 0.35 -0.35 5 -0.50 10.30 -0.30 8.85 -0.25 9.65 0.50 9.50 0.55 -0.10 1.05 -1.05 1.45 -2.65 0.45 -1.60 1.20 -2.95 2.20 -3.85 1.45 -1.30 1.85 -1.40 5.80 -1.40 l4.25 0 0 16.85 0 16.90 -11.65 11.60 c-6.40 6.40 -11.40 11.75 -11.10 11.85 1.05 0.45 48.75 0.30 48.75 -0.15z"/>
  <path d="M77.50 135.65 c-7.80 -0.10 -14.40 -0.35 -14.60 -0.55 -0.50 -0.50 14.75 -15.60 15.75 -15.60 1 0 16 15.30 15.65 15.95 -0.20 0.30 -0.85 0.50 -1.45 0.45 -0.60 -0.10 -7.50 -0.20 -15.35 -0.25z"/>
  <path d="M5.35 64.10 c-1.25 -1.40 -1.10 -4.35 0.25 -5.30 1.70 -1.20 3.65 -1 4.85 0.50 1.30 1.70 1.30 2.70 0 4.40 -1.25 1.60 -3.85 1.80 -5.10 0.40z"/>
  <path d="M77.25 60.40 c-3.55 -2.05 -3.20 -7.15 0.60 -8.40 5.40 -1.80 8.70 5.65 3.65 8.25 -1.70 0.90 -2.90 0.95 -4.25 0.15z"/>
  <path d="M92.10 60.60 l-5.65 -0.15 0.35 -1.60 c0.90 -4 -0.25 -7.15 -3.35 -9.25 -1.40 -1 -2.20 -1.15 -4.50 -1 -5.15 0.35 -7.85 3.65 -7.25 9 l0.30 2.95 -16.15 -0.35 c-8.85 -0.15 -16.40 -0.40 -16.80 -0.50 -0.55 -0.20 -0.65 -1.05 -0.40 -4.25 0.30 -4.45 1.05 -5.80 3.30 -6.05 1 -0.10 1.30 -0.40 1.30 -1.40 l0 -1.25 -6.25 0 -6.25 0 0 1.20 c0 0.90 0.35 1.30 1.40 1.60 2.60 0.70 2.85 1.20 2.85 6.05 l0 4.45 -4.35 -0.15 -4.40 -0.15 0.05 -5.50 c0 -3 0.10 -7.35 0.10 -9.60 l0.10 -4.15 13.90 0 c10.15 0 14.05 0.15 14.50 0.60 0.85 0.85 0.75 3.65 -0.15 4.40 -1.05 0.90 -3.25 -0.60 -3.25 -2.20 0 -1.20 -1.20 -2.05 -2.05 -1.50 -0.25 0.15 -0.45 2.70 -0.45 5.75 0 5.15 0.05 5.45 1 5.45 0.65 0 1.20 -0.50 1.50 -1.20 0.45 -1.20 1.85 -2.30 2.95 -2.30 0.65 0 0.75 4.90 0.15 5.85 -0.20 0.30 -1 0.85 -1.75 1.10 -0.95 0.35 -1.35 0.85 -1.25 1.45 0.15 0.75 0.85 0.85 5.65 0.85 4.80 0 5.50 -0.10 5.65 -0.85 0.10 -0.60 -0.40 -1.10 -1.60 -1.60 -1.10 -0.45 -2 -1.30 -2.30 -2.10 -0.65 -1.65 -0.20 -4.15 0.80 -4.55 1.05 -0.40 3.20 1.20 3.20 2.35 0 0.70 0.35 1 1.20 1 1.60 0 1.70 -0.45 1.60 -6.05 -0.05 -4.65 -0.05 -4.70 -1.30 -4.70 -0.90 0 -1.30 0.30 -1.40 1.05 -0.20 1.45 -1.80 2.85 -2.95 2.60 -0.70 -0.10 -0.95 -0.70 -1.05 -2.55 l-0.15 -2.35 20.40 0.10 20.40 0.15 0.15 2 c0.05 1.10 -0.10 2.35 -0.40 2.75 -0.40 0.65 -0.65 0.65 -1.85 0 -0.75 -0.40 -1.50 -1.30 -1.65 -2 -0.20 -0.90 -0.65 -1.25 -1.50 -1.25 -1.25 0 -1.25 0 -1.25 5.25 0 5 0.05 5.25 1.05 5.40 0.80 0.10 1.20 -0.20 1.60 -1.35 0.35 -0.95 1 -1.65 1.80 -1.85 1.80 -0.45 2.30 0.10 2.30 2.35 0 2.10 -1.70 4.45 -3.15 4.45 -0.90 0 -1.40 1.10 -0.90 1.95 0.25 0.40 1.95 0.55 5.60 0.45 4.45 -0.15 5.20 -0.25 5.35 -1 0.10 -0.60 -0.30 -1.10 -1.25 -1.45 -1.85 -0.70 -2.15 -1.25 -2.15 -4.10 0 -1.60 0.25 -2.45 0.70 -2.65 1.10 -0.45 2.75 0.70 3.10 2.10 0.25 0.90 0.60 1.20 1.40 1.10 1 -0.15 1.05 -0.45 1.05 -5.40 0 -4.55 -0.10 -5.25 -0.85 -5.40 -0.60 -0.10 -1.10 0.40 -1.60 1.55 -0.70 1.70 -2.30 2.70 -3.30 2.10 -0.70 -0.45 -0.60 -4.05 0.15 -4.55 0.30 -0.25 6.80 -0.40 14.50 -0.30 l13.85 0.20 -0.10 9.55 -0.15 9.60 -4.25 0 -4.25 0 -0.15 -3.95 c-0.15 -3.50 0 -4.05 0.95 -5.10 0.65 -0.65 1.50 -1.20 2 -1.20 1.35 0 2.20 -1.35 1.45 -2.25 -0.85 -1 -11.60 -1.10 -12.40 -0.10 -0.75 0.85 -0.10 1.70 1.55 2.10 2.30 0.60 2.90 2.10 2.75 6.55 l-0.15 3.95 -11 0 c-6.05 0 -13.55 -0.05 -16.65 -0.15z"/>
  <path d="M136.35 60.65 c-0.45 -0.40 -0.45 -17.30 -0.05 -18.35 0.45 -1.15 2.60 -1 5.20 0.35 3.20 1.55 4.50 4.10 4.50 8.55 0 4.45 -1.25 7.20 -3.95 8.70 -1.85 1.05 -5 1.45 -5.70 0.75z"/>
  <path d="M5.55 40.70 c-0.60 -0.75 -1.05 -1.70 -1.05 -2.20 0 -0.50 0.45 -1.45 1.05 -2.20 2 -2.55 5.95 -1.15 6.05 2.15 0.10 3.30 -4 4.85 -6.05 2.25z"/>
  <path d="M109.90 37.65 c-3 -0.20 -3.45 -0.55 -2.10 -1.70 1.30 -1.05 2.70 -4.30 2.70 -6.20 0 -2.10 -1 -4.60 -2.45 -6.10 -0.55 -0.60 -1.05 -1.25 -1.05 -1.40 0 -0.15 5.60 -0.25 12.40 -0.25 9 0 12.55 0.15 13 0.60 0.65 0.65 0.85 10.15 0.30 13.55 l-0.35 1.85 -9.80 -0.10 c-5.40 -0.05 -11.10 -0.15 -12.65 -0.25z"/>
  <path d="M62.90 37.20 c-0.15 -0.15 0.45 -1.40 1.40 -2.80 1.35 -2 1.70 -3 1.70 -4.95 0 -2.40 -1.35 -6 -2.50 -6.70 -1.10 -0.70 -0.40 -1.20 1.90 -1.35 l2.35 -0.15 0.15 -8.25 c0.05 -4.95 0.35 -8.35 0.65 -8.50 0.25 -0.20 1.10 -0.30 1.85 -0.20 0.75 0.05 5.80 0.10 11.25 0.15 l9.85 0.05 0 8.50 c0 4.70 0.15 8.50 0.40 8.55 2.25 0.20 4.35 0.55 4.55 0.75 0.10 0.10 -0.35 0.85 -1.10 1.60 -3.25 3.40 -3.05 8.50 0.50 12.25 l1.35 1.35 -17 0 c-9.40 0 -17.15 -0.15 -17.30 -0.30z"/>
  <path d="M27.10 36.60 c-0.45 -0.35 -0.60 -2.25 -0.50 -7.90 l0.15 -7.45 2.25 -0.15 c1.25 -0.10 7.05 -0.05 12.90 0.15 l10.60 0.35 -1.50 1.70 c-3.10 3.55 -3 9.50 0.20 12.15 0.45 0.40 0.80 0.85 0.80 1.10 0 0.55 -24 0.60 -24.90 0.05z"/>
  <path d="M98.60 34.15 c-0.35 -0.15 -0.95 -0.90 -1.35 -1.65 -2.05 -4 0.20 -8 4.50 -8 1.90 0 2.60 0.25 3.80 1.45 1.15 1.20 1.45 1.90 1.45 3.70 0 3.70 -3.10 6.60 -3.75 3.50 -0.75 -3.45 -1.75 -3.75 -2.65 -0.75 -0.70 2.10 -0.85 2.25 -2 1.75z"/>
  <path d="M53.30 32.50 c-1.90 -2.30 -1.75 -4.65 0.40 -6.80 1.35 -1.35 2.10 -1.70 3.70 -1.70 3.35 0 6.15 3.25 5.40 6.30 -0.35 1.30 -2.40 3.70 -3.15 3.70 -0.25 0 -0.70 -1 -1.05 -2.25 -0.85 -3.10 -1.90 -2.95 -2.55 0.40 -0.45 2.10 -1.20 2.15 -2.75 0.35z"/>
  <path d="M144.35 22.60 c-1.70 -1.85 -0.55 -4.60 1.90 -4.60 1.20 0 2.75 1.65 2.75 2.85 0 0.95 -1.85 2.65 -2.90 2.65 -0.55 0 -1.30 -0.40 -1.75 -0.90z"/>
  <path d="M11.25 21 c-1.15 -1.25 -0.65 -3.35 1 -4.10 2.65 -1.20 5 2.30 2.85 4.25 -1.25 1.15 -2.75 1.05 -3.85 -0.15z"/>
  <path d="M128.55 14.80 c-3.85 -4.05 2.15 -10.15 6.20 -6.30 1.70 1.60 1.75 4.85 0.10 6.40 -1.65 1.55 -4.80 1.50 -6.30 -0.10z"/>
  <path d="M24.75 13.75 c-1.80 -1.75 -1.70 -4.40 0.20 -6.30 2.25 -2.20 5.35 -1.75 6.80 1.05 2.30 4.45 -3.50 8.80 -7 5.25z"/>
 </g>
</svg>
