<?xml version="1.0" encoding="utf-8"?>
<!DOCTYPE svg PUBLIC "-//W3C//DTD SVG 1.0//EN" "http://www.w3.org/TR/2001/REC-SVG-20010904/DTD/svg10.dtd">
<svg version="1.0" xmlns="http://www.w3.org/2000/svg" width="166px" height="148px" viewBox="0 0 166 148" preserveAspectRatio="xMidYMid meet">
 <g fill="#000000">
  <path d="M125.90 146.95 c-1.15 -0.65 -1.10 -2.30 0.10 -6.95 1.05 -3.95 1.30 -7.25 0.60 -7.70 -0.45 -0.25 -1.20 0.25 -6.65 4.40 -5.70 4.35 -14.30 7.80 -19.50 7.80 -2.50 0 -2.95 -0.45 -2.95 -2.90 0 -1 2.10 -3.40 10 -11.30 13.75 -13.80 16.90 -18.80 16.35 -25.70 -0.35 -4.70 -0.80 -4.80 -4.70 -1 -5.05 4.85 -7.15 5.70 -10.20 4.15 -3.35 -1.75 -4.40 -6.05 -2.15 -8.70 1.70 -2.05 7.70 -4.85 11.90 -5.60 3.65 -0.60 3.75 -0.70 5.35 -5.35 2.55 -7.40 4.65 -23.35 3.75 -28.25 -0.40 -2.05 -3.95 -6.35 -5.30 -6.35 -1 0 -1.50 0.95 -1.50 3.05 0 2.20 -1.45 5.55 -3.15 7.15 -1.30 1.25 -1.80 1.40 -3.70 1.15 -5.35 -0.60 -7.80 -6.65 -4.50 -11 2.45 -3.25 9.15 -5.65 13 -4.65 3.10 0.75 6.35 4.95 7.60 9.70 1.15 4.15 1.55 14.70 0.75 19.40 -0.60 3.75 -3.30 12.45 -4.80 15.25 -0.60 1.20 -0.55 1.75 0.60 5.05 1.05 2.95 1.25 4.40 1.10 7.65 -0.20 5.85 -1.55 8.25 -8.80 15.60 -5.15 5.25 -14.10 16.20 -14.10 17.30 0 1.25 2.05 0.85 5.95 -1.20 5.50 -2.85 12.85 -9.75 17.20 -16.15 2.90 -4.25 4.40 -5.50 5.35 -4.45 0.25 0.20 0.25 1.40 0 2.65 -1.75 8.90 -3 15.70 -3 16.30 0 1.35 1.45 0.70 3.15 -1.40 2 -2.55 7.05 -10.85 9.30 -15.25 2.45 -4.85 3.70 -4.15 4.90 2.70 1.35 8 2.55 9.25 4.65 4.75 1.80 -3.80 1.60 -8.75 -0.50 -14.35 -1.60 -4.25 -2.65 -11.25 -1.70 -11.25 0.20 0 1.80 1.35 3.50 3.05 2.75 2.60 3.40 3 4.80 2.85 1.05 -0.10 1.70 -0.45 1.80 -0.95 0.10 -0.45 -1.20 -2.80 -2.90 -5.25 -1.65 -2.45 -3 -4.85 -3 -5.30 0 -0.75 0.25 -0.75 2.30 0.35 2.70 1.45 4.20 1.60 4.20 0.50 0 -1.55 -1.55 -4.45 -3.45 -6.50 -2.15 -2.30 -2.95 -3.65 -3.55 -5.85 -0.45 -1.40 -0.40 -1.45 1.30 -1.10 2.05 0.40 3.20 -0.40 3.20 -2.15 0 -1.40 -1 -2.95 -4.95 -7.60 l-2.70 -3.20 1.85 0.35 c2.50 0.50 4.30 -1.25 4.30 -4.15 0 -1.90 -0.20 -2.15 -3.85 -4.90 -2.10 -1.60 -4.15 -3.45 -4.55 -4.05 l-0.80 -1.20 2.85 0.35 c2.80 0.35 2.85 0.35 2.85 -0.85 0 -2.10 -1.80 -3.80 -4.90 -4.70 -3.20 -0.95 -5.80 -3.15 -5.30 -4.45 0.30 -0.65 0.75 -0.80 2.15 -0.55 2.25 0.35 3.55 -0.75 3.55 -3.05 0 -2.85 -1.35 -3.65 -6 -3.65 -4.60 0 -5.10 -0.60 -2.30 -2.75 2.10 -1.60 2.55 -2.70 1.60 -3.65 -0.65 -0.70 -1.20 -0.65 -4.50 0.35 -2.10 0.60 -4 1 -4.30 0.80 -0.95 -0.60 -0.50 -2.25 1.15 -4.10 2.20 -2.50 2.55 -3.55 1.60 -4.95 -1.10 -1.70 -2.60 -1.55 -3.45 0.40 -1.20 2.90 -3.45 4.55 -6.40 4.75 -3.70 0.30 -5.75 -0.90 -7.40 -4.25 l-1.25 -2.60 -5.50 0 c-5.80 0 -12 1.05 -13.15 2.20 -0.55 0.55 -0.40 1.40 1.25 5.35 1.80 4.50 2 4.70 3.65 4.95 2.70 0.45 4.90 2 6 4.25 1.25 2.55 1.25 4.50 0.05 6.75 -1.95 3.70 -6.40 5.05 -10.35 3.20 -3.85 -1.80 -5 -7.10 -2.45 -10.90 l1.25 -1.85 -1.85 -4.55 c-1.05 -2.45 -2.15 -4.60 -2.45 -4.75 -1.05 -0.40 -8.40 3.65 -12.25 6.75 -4.20 3.35 -8.25 7.85 -8.70 9.70 -0.45 1.75 0.95 6.90 2.45 9.35 1.35 2.10 3.25 3.75 9.85 8.45 4.75 3.40 7.15 5.80 9.20 9.30 0.75 1.25 1.60 2.30 1.85 2.30 0.90 0 3.80 -2 4.10 -2.85 0.20 -0.45 0.10 -1.55 -0.20 -2.45 -0.60 -1.80 -0.35 -2.70 0.75 -2.70 0.95 0 7.90 10.40 7.55 11.30 -0.40 1 -1.65 0.85 -3.15 -0.30 -0.70 -0.55 -1.75 -1 -2.30 -1 -1.10 0 -4.85 2.35 -4.85 3.05 0 0.25 0.55 2.40 1.25 4.75 2.55 8.70 1.40 16.15 -3.20 20.75 -3.20 3.25 -8.25 4.75 -11.25 3.40 -3 -1.40 -3.65 -8.35 -0.95 -10.45 1.60 -1.25 5.95 -1.35 9.40 -0.20 2.30 0.80 2.45 0.80 3.10 -0.05 1.50 -2.10 0.50 -14 -1.35 -15.90 -0.40 -0.45 -10.20 5.85 -11.40 7.30 -0.40 0.45 -0.60 1.75 -0.50 3.20 0.15 2 0 2.40 -0.75 2.40 -1.05 0 -7.90 -10 -7.55 -11 0.50 -1.20 1.60 -1.20 3.05 0.05 0.75 0.65 1.90 1.20 2.45 1.20 1.30 0 12.70 -7.35 12.70 -8.20 0 -1 -2.75 -4.90 -5.25 -7.50 -2.50 -2.50 -6.65 -4.80 -9.10 -4.95 -1.25 -0.10 -1.40 0.05 -1.55 1.65 -0.80 11.50 -7.50 26.95 -14.35 33.15 -4.65 4.20 -5.30 7.20 -2.25 10.10 1.80 1.70 5.40 2.25 7.15 1.10 2.75 -1.80 2.90 -6.35 0.20 -6.35 -0.85 0 -1.40 0.50 -2 1.80 -0.70 1.45 -1.10 1.75 -2.25 1.60 -1.15 -0.15 -1.35 -0.40 -1.50 -2.05 -0.15 -1.65 0.10 -2.15 1.80 -3.90 3 -2.95 5.75 -2.60 7.60 1.05 1.45 2.85 1.35 6.50 -0.25 8.45 -2.35 2.80 -6.15 3.15 -10.35 1 -2.45 -1.25 -3.60 -3.05 -3.90 -6.15 l-0.25 -2.55 -3.50 0.15 c-2.80 0.10 -3.80 -0.05 -5.15 -0.85 -3.40 -2.15 -4.95 -7.05 -3.25 -10.40 2.50 -4.85 10.60 -5.55 12.90 -1.15 1.10 2.15 0.95 3.40 -0.75 5.05 -1.15 1.20 -1.85 1.50 -3.10 1.35 -1.25 -0.10 -1.65 -0.40 -1.65 -1.15 0 -0.65 0.40 -1.05 1.15 -1.15 0.60 -0.10 1.35 -0.65 1.65 -1.25 0.50 -0.90 0.40 -1.20 -0.80 -2.25 -1.80 -1.55 -3.95 -1.20 -5.85 0.90 -1.60 1.75 -1.80 3.75 -0.65 6 0.95 1.85 2.15 2.50 4.75 2.50 2.75 0 5 -1.10 8.30 -4.15 5.45 -4.95 12.20 -21.80 12.20 -30.35 0 -2.45 -0.20 -3.05 -1.10 -3.70 -1.90 -1.35 -11.20 -0.85 -12.15 0.65 -0.10 0.25 0.20 2.20 0.75 4.30 0.55 2.15 1 4.65 1 5.55 0 2.70 -3.70 6.20 -6.55 6.20 -2.20 0 -5.15 -1.95 -7.20 -4.75 -1.10 -1.50 -2.25 -2.70 -2.50 -2.75 -0.55 0 -3.70 5.25 -4.65 7.75 -1.10 2.85 -2.10 8 -2.10 10.75 0 3.65 1.15 6 5.90 12.15 10.75 13.95 15.85 24.40 14.80 30.20 -1.10 6.20 -6.75 11.65 -11.95 11.65 -3.40 0 -5.65 -1.20 -8.90 -4.65 -2.70 -2.85 -3 -3.05 -3.50 -2.15 -1.40 2.30 -3.50 4.25 -4.90 4.55 -2.10 0.50 -5.30 -1.25 -8.40 -4.50 -5 -5.25 -5.50 -8.55 -3.25 -21.70 l0.35 -2.20 -1.55 0.30 c-0.90 0.20 -2.25 0.50 -3.10 0.65 -2.15 0.45 -4.50 -1.95 -4.50 -4.70 0 -1.75 -0.20 -2.05 -1.55 -2.65 -1 -0.40 -1.85 -1.25 -2.25 -2.25 -0.60 -1.45 -0.60 -1.95 0.10 -3.70 l0.80 -2 -1.55 -1.45 c-1.30 -1.20 -1.55 -1.85 -1.55 -3.65 0 -1.25 0.45 -3 1.05 -4.15 0.60 -1.05 0.85 -2.05 0.65 -2.10 -5.35 -1.80 -5.95 -5.05 -2.10 -10.90 1.45 -2.20 1.65 -2.90 1.65 -6 0 -2.90 0.25 -3.90 1.40 -5.80 1.20 -2.05 1.25 -2.35 0.60 -3.25 -1.25 -1.65 -0.90 -4.25 1 -7.40 0.95 -1.60 1.75 -3.10 1.75 -3.30 0 -0.20 -0.45 -0.75 -1 -1.25 -2.25 -2 -0.55 -7.35 3.35 -10.70 l2.25 -1.90 -0.80 -1.55 c-1.15 -2.20 -0.60 -3.85 2.20 -6.85 3.85 -4.10 5 -6.05 5 -8.75 0 -6 6.65 -9.85 12.35 -7.15 2.05 0.95 3.95 3.65 4.40 6.25 0.35 1.85 0.45 1.90 3.95 2.90 1.95 0.60 4.95 1.60 6.70 2.30 1.70 0.65 3.40 1.20 3.75 1.20 0.35 0 1.45 -0.85 2.40 -1.85 3 -3.25 3.05 -3.35 2.45 -5.60 -0.75 -2.80 0.05 -5.40 2.20 -7.55 3.30 -3.15 9.50 -2.50 11.80 1.30 1.60 2.55 1.75 4.70 0.60 7.35 -1.60 3.65 -5.75 5.60 -9.20 4.40 -1.60 -0.55 -1.70 -0.50 -3.75 1.80 -1.15 1.30 -2.05 2.55 -2 2.70 0.05 0.20 1.90 1.70 4.10 3.30 2.20 1.65 5.20 4.05 6.65 5.30 1.45 1.30 2.75 2.35 2.85 2.35 0.15 0 1.80 -1.45 3.75 -3.20 3.85 -3.55 8.20 -6.55 14.10 -9.75 2.10 -1.15 3.90 -2.35 4.05 -2.70 0.20 -0.60 -1.30 -4.70 -2.25 -6.15 -0.20 -0.30 -1.15 -0.70 -2.15 -0.85 -2.50 -0.40 -4.50 -2 -5.45 -4.35 -1.05 -2.65 -1 -4.35 0.15 -6.50 2.50 -4.80 8.65 -5.40 12.50 -1.30 0.95 1 1.30 2 1.45 4.20 0.15 2.45 0 3.10 -1.10 4.75 -0.70 1.05 -1.30 2.10 -1.30 2.30 0 0.25 0.55 1.70 1.25 3.30 1.20 2.60 1.40 2.85 2.65 2.60 0.75 -0.15 3.25 -0.60 5.60 -1.05 2.35 -0.45 6.75 -0.80 9.85 -0.80 4.90 0 5.70 -0.10 6.25 -0.95 1.15 -1.60 4.05 -3.05 6.20 -3.05 2.40 0 5 1.55 6.45 3.85 0.70 1.15 1.40 1.60 2.35 1.65 3.45 0.05 5.25 1.85 5.80 5.85 0.35 2.30 0.40 2.40 2.35 2.70 2.50 0.40 4.25 2.35 4.25 4.70 0 1.50 0.25 1.85 1.95 2.70 4.50 2.30 6.05 6.55 4.30 11.90 -0.30 0.90 0 1.30 1.70 2.35 3.15 2 4.25 4.90 3.05 8.05 -0.40 1.10 -0.30 1.70 0.50 3 1.30 2.10 1.30 5.90 0.05 9.45 l-0.95 2.65 2.20 3.40 c2.35 3.65 2.75 5.90 1.65 9 -0.50 1.35 -0.40 2.05 0.80 5.05 1.95 4.90 2.20 7.40 0.75 8.95 -1.10 1.15 -1.10 1.20 -0.25 3.45 1.05 2.80 0.70 5.50 -0.95 6.55 -1 0.65 -1.45 0.65 -3.45 0.05 -1.25 -0.35 -2.40 -0.55 -2.55 -0.45 -0.15 0.15 -0.10 3.70 0.05 7.85 0.30 7.45 0.25 7.70 -0.95 10.40 -1.25 2.65 -4.85 6.90 -5.90 6.90 -0.85 0 -2.55 -2.20 -3.60 -4.60 -0.55 -1.35 -1.30 -2.40 -1.60 -2.40 -0.30 0 -1.45 1.20 -2.55 2.65 -4.25 5.75 -11.30 14.30 -12.55 15.30 -1.50 1.20 -1.60 1.20 -2.80 0.50z m-73.65 -8.55 c1.70 -1.35 3.20 -4.55 3.25 -6.90 0.05 -5.85 -5.80 -17.95 -13.60 -28.15 -4.40 -5.80 -5.60 -8.40 -5.80 -12.80 -0.30 -4.80 0.50 -8.35 2.95 -13.30 3.05 -6.20 6.95 -11.30 10.70 -14.10 1.80 -1.30 3.25 -2.55 3.25 -2.80 0 -0.20 -0.65 -1.30 -1.50 -2.45 -1.20 -1.60 -1.50 -2.55 -1.50 -4.55 0 -2.10 0.25 -2.70 1.65 -4.10 2.15 -2.15 5.70 -2.70 9.35 -1.50 1.35 0.45 2.60 1.05 2.80 1.30 0.35 0.60 -0.20 3.95 -0.75 4.90 -0.35 0.55 -0.80 0.30 -2.05 -1.15 -1.65 -1.85 -3.20 -2.25 -5.05 -1.30 -2.40 1.30 0.75 8.15 3.40 7.30 0.50 -0.15 3.55 -0.60 6.80 -1 3.25 -0.40 6.05 -0.80 6.15 -0.95 0.10 -0.10 -0.30 -1.40 -1 -2.90 -0.65 -1.50 -1.55 -4.05 -2.05 -5.70 -1.20 -4.15 -2.85 -7.20 -5.10 -9.35 -2.45 -2.35 -9.55 -7.40 -10.40 -7.40 -0.35 0 -2.45 2 -4.65 4.40 l-4.05 4.45 0.25 3.45 c0.25 2.90 0.10 3.70 -0.75 5.10 -3.20 5.05 -10.90 4.80 -13.55 -0.45 -0.55 -1.05 -1 -2.60 -1 -3.45 0 -5.10 5.10 -9.05 9.85 -7.60 1.70 0.50 1.80 0.45 4.15 -2.05 3.60 -3.90 5 -5.70 5 -6.30 0 -0.95 -6.20 -3.60 -9.20 -3.90 -2.55 -0.25 -2.85 -0.20 -4.25 1.25 -3.20 3.15 -8.10 3.40 -11.65 0.60 -2.40 -1.95 -2.65 -1.85 -5.75 1.95 -1.65 1.95 -2.15 3 -2.15 4.40 0 1.65 0.10 1.75 1.40 1.50 0.75 -0.15 1.85 -0.40 2.50 -0.60 2.90 -0.95 -0.05 3.30 -3.55 5.05 -4.35 2.20 -6.35 4.60 -6.35 7.70 0 2.15 1.10 2.35 4.30 0.75 2.05 -1.05 2.90 -1.25 3.30 -0.85 0.45 0.45 -0.55 1.70 -3.75 4.90 -4.65 4.75 -5.90 6.70 -4.85 7.95 0.80 0.95 2.15 0.95 4 0 1.35 -0.70 1.50 -0.70 1.50 0 0 0.40 -1.35 1.80 -3.05 3.10 -3.20 2.50 -4.45 4.30 -4.45 6.40 0 1.90 1.25 2.05 4.05 0.55 2.20 -1.20 2.50 -1.25 2.75 -0.55 0.25 0.60 -0.60 1.65 -2.90 3.75 -4.20 3.80 -7.05 7.90 -6.80 9.80 0.15 1.30 0.35 1.45 1.90 1.45 0.95 -0.05 2.45 -0.20 3.30 -0.40 2.65 -0.65 2.55 0.80 -0.25 4.60 -2.95 3.95 -3.70 5.70 -2.90 6.50 0.85 0.85 2.05 0.65 5.05 -0.90 1.50 -0.85 2.90 -1.35 3 -1.15 0.10 0.20 -0.90 2 -2.25 4 -2.55 3.80 -3.05 5.90 -1.65 6.45 0.75 0.30 1.45 0.10 4.30 -1.10 1.45 -0.60 1.10 1 -0.85 3.80 -1.95 2.85 -2.10 3.70 -0.95 5.35 1.55 2.25 4.85 0.95 9.45 -3.85 3.65 -3.80 4.10 -2.60 1.55 3.90 -3.35 8.50 -4.35 16.85 -2.45 21.05 1.85 4.25 6.10 6.80 9 5.40 2.10 -1 3.15 -3.55 3.15 -7.75 0 -1.95 0.20 -3.70 0.45 -3.90 0.30 -0.15 1.20 1.20 2.05 2.95 3.65 7.65 12.10 12.45 16.25 9.20z m38.40 -32.35 c1.90 -0.75 4.85 -3.55 4.85 -4.65 0 -1.20 -2.70 -2.40 -6.30 -2.75 -2.15 -0.25 -2.75 -0.10 -3.65 0.80 -1.15 1.15 -1.30 2.20 -0.50 4.40 0.75 2.25 3.05 3.15 5.60 2.20z m23.75 -2.30 c1.40 -1 4.10 -4.95 4.10 -6 0 -0.55 -0.30 -0.75 -0.85 -0.55 -0.50 0.15 -1.90 0.50 -3.10 0.80 -2.30 0.60 -4.55 2.45 -4.55 3.75 0 0.90 1.75 2.75 2.65 2.75 0.35 0 1.10 -0.35 1.75 -0.75z m-55.75 -29.80 c0.45 -0.55 0.85 -1.75 0.85 -2.65 0 -1.90 -1.50 -5.25 -2.90 -6.45 -0.95 -0.90 -1.05 -0.90 -3.05 0.15 -2.30 1.15 -6.05 4.35 -6.05 5.10 0 1.10 2.85 4.10 4.65 4.90 2.35 1.05 5.15 0.60 6.50 -1.05z m57.45 -12 c0.55 -0.30 1.40 -1.45 1.95 -2.60 1 -2.20 1.30 -6.60 0.45 -7.10 -0.55 -0.35 -5.35 2 -6.85 3.40 -1.15 1.05 -1.55 3.45 -0.75 4.70 0.40 0.60 3.05 2.15 3.75 2.15 0.25 0 0.85 -0.25 1.45 -0.55z m-76.30 -12.70 c1.95 -0.80 3.40 -3.50 2.90 -5.45 -0.45 -1.80 -2.35 -3.35 -4.55 -3.65 -1.60 -0.20 -2.25 -0.05 -3.35 0.90 -1.95 1.70 -2.30 4.70 -0.80 6.60 1 1.30 2.50 2.25 3.65 2.30 0.20 0.05 1.15 -0.30 2.15 -0.70z m66.60 -3.05 c3.55 -4 -2.30 -9.20 -6.10 -5.40 -1.50 1.55 -1.70 3.45 -0.50 5.10 1.65 2.40 4.60 2.50 6.60 0.30z m22.45 -19.90 c1.10 -0.95 1.40 -1.60 1.40 -3.30 0 -4.20 -4.75 -6.05 -7.80 -3.05 -1.85 1.85 -1.90 3.95 -0.15 6 1.65 2 4.45 2.15 6.55 0.35z m-97.30 -1.60 c1.80 -0.90 2.95 -3.35 2.60 -5.35 -0.35 -1.90 -2.85 -3.85 -4.90 -3.85 -2.35 0 -4.75 2.35 -4.75 4.60 0.05 2.05 1 3.85 2.55 4.70 1.60 0.90 2.70 0.85 4.50 -0.10z m36.10 -5.10 c1.50 -1.35 1.95 -3 1.35 -4.90 -1.10 -3.35 -4.70 -4.25 -7.45 -1.90 -2.50 2.10 -2.05 5.85 0.85 7.45 1.60 0.90 3.85 0.60 5.25 -0.65z m24.55 -7.35 c2.85 -2.60 0.85 -7.75 -3 -7.75 -2.55 0 -4.45 1.90 -4.45 4.50 0 1.70 0.30 2.35 1.40 3.30 1.85 1.60 4.30 1.60 6.05 -0.05z"/>
 </g>
 <g fill="none">
  <path d="M0 74 l0 -74 83 0 83 0 0 74 0 74 -83 0 -83 0 0 -74z m128.70 72.45 c1.25 -1 8.30 -9.55 12.55 -15.30 1.10 -1.45 2.25 -2.65 2.55 -2.65 0.30 0 1.05 1.05 1.60 2.40 1.05 2.40 2.75 4.60 3.60 4.60 1.05 0 4.65 -4.25 5.90 -6.90 1.20 -2.70 1.25 -2.95 0.95 -10.40 -0.15 -4.15 -0.20 -7.70 -0.05 -7.85 0.15 -0.10 1.30 0.10 2.55 0.45 2 0.60 2.45 0.60 3.45 -0.05 1.65 -1.05 2 -3.75 0.95 -6.55 -0.85 -2.25 -0.85 -2.30 0.25 -3.45 1.45 -1.55 1.20 -4.05 -0.75 -8.95 -1.20 -3 -1.30 -3.70 -0.80 -5.05 1.10 -3.10 0.70 -5.35 -1.65 -9 l-2.20 -3.40 0.95 -2.65 c1.25 -3.55 1.25 -7.35 -0.05 -9.45 -0.80 -1.30 -0.90 -1.90 -0.50 -3 1.20 -3.15 0.10 -6.05 -3.05 -8.05 -1.70 -1.05 -2 -1.45 -1.70 -2.35 1.75 -5.35 0.20 -9.60 -4.30 -11.90 -1.70 -0.85 -1.95 -1.20 -1.95 -2.70 0 -2.35 -1.75 -4.30 -4.25 -4.70 -1.95 -0.30 -2 -0.40 -2.35 -2.70 -0.55 -4 -2.35 -5.80 -5.80 -5.85 -0.95 -0.05 -1.65 -0.50 -2.35 -1.65 -1.45 -2.30 -4.05 -3.85 -6.45 -3.85 -2.15 0 -5.05 1.45 -6.20 3.05 -0.55 0.85 -1.35 0.95 -6.25 0.95 -3.10 0 -7.50 0.35 -9.85 0.80 -2.35 0.45 -4.85 0.90 -5.60 1.05 -1.25 0.25 -1.45 0 -2.65 -2.60 -0.70 -1.60 -1.25 -3.05 -1.25 -3.30 0 -0.20 0.60 -1.25 1.30 -2.30 1.10 -1.65 1.25 -2.30 1.10 -4.75 -0.15 -2.20 -0.50 -3.20 -1.45 -4.20 -3.85 -4.10 -10 -3.50 -12.50 1.30 -2.35 4.40 0.40 10.05 5.30 10.85 1 0.15 1.95 0.55 2.15 0.85 0.95 1.45 2.45 5.55 2.25 6.15 -0.15 0.35 -1.95 1.55 -4.05 2.70 -5.90 3.20 -10.25 6.20 -14.10 9.75 -1.95 1.75 -3.60 3.20 -3.75 3.20 -0.10 0 -1.40 -1.05 -2.85 -2.35 -1.45 -1.25 -4.45 -3.65 -6.65 -5.30 -2.20 -1.60 -4.05 -3.10 -4.10 -3.30 -0.05 -0.15 0.85 -1.40 2 -2.70 2.05 -2.30 2.15 -2.35 3.75 -1.80 3.45 1.20 7.60 -0.75 9.20 -4.40 2.50 -5.65 -1.55 -11.05 -7.95 -10.55 -2.20 0.20 -3 0.55 -4.45 1.90 -2.15 2.15 -2.95 4.75 -2.20 7.55 0.60 2.25 0.55 2.35 -2.45 5.60 -0.95 1 -2.05 1.85 -2.40 1.85 -0.35 0 -2.05 -0.55 -3.75 -1.20 -1.75 -0.70 -4.75 -1.70 -6.70 -2.30 -3.50 -1 -3.60 -1.05 -3.95 -2.90 -0.45 -2.60 -2.35 -5.30 -4.40 -6.25 -5.70 -2.70 -12.35 1.15 -12.35 7.15 0 2.70 -1.15 4.65 -5 8.75 -2.80 3 -3.35 4.65 -2.20 6.85 l0.80 1.55 -2.25 1.90 c-3.90 3.35 -5.60 8.70 -3.35 10.70 0.55 0.50 1 1.05 1 1.25 0 0.20 -0.80 1.70 -1.75 3.30 -1.90 3.15 -2.25 5.75 -1 7.40 0.65 0.90 0.60 1.20 -0.60 3.25 -1.15 1.90 -1.40 2.90 -1.40 5.80 0 3.10 -0.20 3.80 -1.65 6 -3.85 5.85 -3.25 9.10 2.10 10.90 0.20 0.05 -0.05 1.05 -0.65 2.10 -0.60 1.15 -1.05 2.90 -1.05 4.15 0 1.80 0.25 2.45 1.55 3.65 l1.55 1.45 -0.80 2 c-0.70 1.75 -0.70 2.25 -0.10 3.70 0.40 1 1.25 1.85 2.25 2.25 1.35 0.60 1.55 0.90 1.55 2.65 0 2.75 2.35 5.15 4.50 4.70 0.85 -0.15 2.20 -0.45 3.10 -0.65 l1.55 -0.30 -0.35 2.20 c-2.25 13.15 -1.75 16.45 3.25 21.70 3.10 3.25 6.30 5 8.40 4.50 1.40 -0.30 3.50 -2.25 4.90 -4.55 0.50 -0.90 0.80 -0.70 3.50 2.15 3.25 3.45 5.50 4.65 8.90 4.65 5.20 0 10.85 -5.45 11.95 -11.65 1.05 -5.80 -4.05 -16.25 -14.80 -30.20 -4.75 -6.15 -5.90 -8.50 -5.90 -12.15 0 -2.75 1 -7.90 2.10 -10.75 0.95 -2.50 4.10 -7.75 4.65 -7.75 0.25 0.05 1.40 1.25 2.50 2.75 2.05 2.80 5 4.75 7.20 4.75 2.85 0 6.55 -3.50 6.55 -6.20 0 -0.90 -0.45 -3.40 -1 -5.55 -0.55 -2.10 -0.85 -4.05 -0.75 -4.30 0.95 -1.50 10.25 -2 12.15 -0.65 0.90 0.65 1.10 1.25 1.10 3.70 0 8.55 -6.75 25.40 -12.20 30.35 -3.30 3.05 -5.55 4.15 -8.30 4.15 -2.60 0 -3.80 -0.65 -4.75 -2.50 -1.15 -2.25 -0.95 -4.25 0.65 -6 1.90 -2.10 4.05 -2.45 5.85 -0.90 1.20 1.05 1.30 1.35 0.80 2.25 -0.30 0.60 -1.05 1.15 -1.65 1.25 -0.75 0.10 -1.15 0.50 -1.15 1.15 0 0.75 0.40 1.05 1.65 1.15 1.25 0.15 1.95 -0.15 3.10 -1.35 1.70 -1.65 1.85 -2.90 0.75 -5.05 -2.30 -4.40 -10.40 -3.70 -12.90 1.15 -1.70 3.35 -0.15 8.25 3.25 10.40 1.35 0.80 2.35 0.95 5.15 0.85 l3.50 -0.15 0.25 2.55 c0.30 3.10 1.45 4.90 3.90 6.15 4.20 2.15 8 1.80 10.35 -1 1.60 -1.95 1.70 -5.60 0.25 -8.45 -1.85 -3.65 -4.60 -4 -7.60 -1.05 -1.70 1.75 -1.95 2.25 -1.80 3.90 0.15 1.65 0.35 1.90 1.50 2.05 1.15 0.15 1.55 -0.15 2.25 -1.60 0.60 -1.30 1.15 -1.80 2 -1.80 2.70 0 2.55 4.55 -0.20 6.35 -1.75 1.15 -5.35 0.60 -7.15 -1.10 -3.05 -2.90 -2.40 -5.90 2.25 -10.10 6.85 -6.20 13.55 -21.65 14.35 -33.15 0.15 -1.60 0.30 -1.75 1.55 -1.65 2.45 0.15 6.60 2.45 9.10 4.95 2.50 2.60 5.25 6.50 5.25 7.50 0 0.85 -11.40 8.20 -12.70 8.20 -0.55 0 -1.70 -0.55 -2.45 -1.20 -1.45 -1.25 -2.55 -1.25 -3.05 -0.05 -0.35 1 6.50 11 7.55 11 0.75 0 0.90 -0.40 0.75 -2.40 -0.10 -1.45 0.10 -2.75 0.50 -3.20 1.20 -1.45 11 -7.75 11.40 -7.30 1.85 1.90 2.85 13.80 1.35 15.90 -0.65 0.85 -0.80 0.85 -3.10 0.05 -3.45 -1.15 -7.80 -1.05 -9.40 0.20 -2.70 2.10 -2.05 9.05 0.95 10.45 3 1.35 8.05 -0.15 11.25 -3.40 4.60 -4.60 5.75 -12.05 3.20 -20.75 -0.70 -2.35 -1.25 -4.50 -1.25 -4.75 0 -0.70 3.75 -3.05 4.85 -3.05 0.55 0 1.60 0.45 2.30 1 1.50 1.15 2.75 1.30 3.15 0.30 0.35 -0.90 -6.60 -11.30 -7.55 -11.30 -1.10 0 -1.35 0.90 -0.75 2.70 0.30 0.90 0.40 2 0.20 2.45 -0.30 0.85 -3.20 2.85 -4.10 2.85 -0.25 0 -1.10 -1.05 -1.85 -2.30 -2.05 -3.50 -4.45 -5.90 -9.20 -9.30 -6.60 -4.70 -8.50 -6.35 -9.85 -8.45 -1.50 -2.45 -2.90 -7.60 -2.45 -9.35 0.45 -1.85 4.50 -6.35 8.70 -9.70 3.85 -3.10 11.20 -7.15 12.25 -6.75 0.30 0.15 1.40 2.30 2.45 4.75 l1.85 4.55 -1.25 1.85 c-2.55 3.80 -1.40 9.10 2.45 10.90 3.95 1.85 8.40 0.50 10.35 -3.20 2.45 -4.55 -0.60 -10.10 -6.05 -11 -1.65 -0.25 -1.85 -0.45 -3.65 -4.95 -1.65 -3.95 -1.80 -4.80 -1.25 -5.35 1.15 -1.15 7.35 -2.20 13.15 -2.20 l5.50 0 1.25 2.60 c1.65 3.35 3.70 4.55 7.40 4.25 2.95 -0.20 5.20 -1.85 6.40 -4.75 0.85 -1.95 2.35 -2.10 3.45 -0.40 0.95 1.40 0.60 2.45 -1.60 4.95 -1.65 1.85 -2.10 3.50 -1.15 4.10 0.30 0.20 2.20 -0.20 4.30 -0.80 3.30 -1 3.85 -1.05 4.50 -0.35 0.95 0.95 0.50 2.05 -1.60 3.65 -2.80 2.15 -2.30 2.75 2.30 2.75 4.65 0 6 0.80 6 3.65 0 2.30 -1.30 3.40 -3.55 3.05 -1.40 -0.25 -1.85 -0.10 -2.15 0.55 -0.50 1.30 2.10 3.50 5.30 4.45 3.10 0.90 4.90 2.60 4.90 4.70 0 1.20 -0.05 1.20 -2.85 0.85 l-2.85 -0.35 0.80 1.20 c0.40 0.60 2.45 2.45 4.55 4.05 3.65 2.75 3.85 3 3.85 4.90 0 2.90 -1.80 4.65 -4.30 4.15 l-1.85 -0.35 2.70 3.20 c3.95 4.65 4.95 6.20 4.95 7.60 0 1.75 -1.15 2.55 -3.20 2.15 -1.70 -0.35 -1.75 -0.30 -1.30 1.10 0.60 2.20 1.40 3.55 3.55 5.85 1.90 2.05 3.45 4.95 3.45 6.50 0 1.10 -1.50 0.95 -4.20 -0.50 -2.05 -1.10 -2.30 -1.10 -2.30 -0.35 0 0.45 1.35 2.85 3 5.30 1.70 2.45 3 4.80 2.90 5.25 -0.10 0.50 -0.75 0.85 -1.80 0.95 -1.40 0.15 -2.05 -0.25 -4.80 -2.85 -1.70 -1.70 -3.30 -3.05 -3.50 -3.05 -0.95 0 0.10 7 1.70 11.25 2.10 5.60 2.30 10.55 0.50 14.35 -2.10 4.50 -3.30 3.25 -4.65 -4.75 -1.20 -6.85 -2.45 -7.55 -4.90 -2.70 -2.25 4.40 -7.30 12.70 -9.30 15.25 -1.70 2.10 -3.15 2.75 -3.15 1.40 0 -0.60 1.25 -7.40 3 -16.30 0.25 -1.25 0.25 -2.45 0 -2.65 -0.95 -1.05 -2.45 0.20 -5.35 4.45 -4.35 6.40 -11.70 13.30 -17.20 16.15 -3.90 2.05 -5.95 2.45 -5.95 1.20 0 -1.10 8.95 -12.05 14.10 -17.30 7.25 -7.35 8.60 -9.75 8.80 -15.60 0.15 -3.25 -0.05 -4.70 -1.10 -7.65 -1.15 -3.30 -1.20 -3.85 -0.60 -5.05 1.50 -2.80 4.20 -11.50 4.80 -15.25 0.80 -4.70 0.40 -15.25 -0.75 -19.40 -1.25 -4.75 -4.50 -8.95 -7.60 -9.70 -3.85 -1 -10.55 1.40 -13 4.65 -3.30 4.35 -0.85 10.40 4.50 11 1.90 0.25 2.40 0.10 3.70 -1.15 1.70 -1.60 3.15 -4.95 3.15 -7.15 0 -2.10 0.50 -3.05 1.50 -3.05 1.35 0 4.90 4.30 5.30 6.35 0.90 4.90 -1.20 20.85 -3.75 28.25 -1.60 4.65 -1.70 4.75 -5.35 5.35 -4.20 0.75 -10.20 3.55 -11.90 5.60 -2.25 2.65 -1.20 6.95 2.15 8.70 3.05 1.55 5.15 0.70 10.20 -4.15 3.90 -3.80 4.35 -3.70 4.70 1 0.55 6.90 -2.60 11.90 -16.35 25.70 -7.90 7.90 -10 10.30 -10 11.30 0 2.45 0.45 2.90 2.95 2.90 5.20 0 13.80 -3.45 19.50 -7.80 5.45 -4.15 6.20 -4.65 6.65 -4.40 0.70 0.45 0.45 3.75 -0.60 7.70 -1.20 4.65 -1.25 6.30 -0.10 6.95 1.20 0.70 1.30 0.70 2.80 -0.50z"/>
  <path d="M44.65 138.25 c-3.40 -1.55 -6.75 -5.05 -8.65 -9.05 -0.85 -1.75 -1.75 -3.10 -2.05 -2.95 -0.25 0.20 -0.45 1.95 -0.45 3.90 0 4.20 -1.05 6.75 -3.15 7.75 -2.90 1.40 -7.15 -1.15 -9 -5.40 -1.90 -4.20 -0.90 -12.55 2.45 -21.05 2.55 -6.50 2.10 -7.70 -1.55 -3.90 -4.60 4.80 -7.90 6.10 -9.45 3.85 -1.15 -1.65 -1 -2.50 0.95 -5.35 1.95 -2.80 2.30 -4.40 0.85 -3.80 -2.85 1.20 -3.55 1.40 -4.30 1.10 -1.40 -0.55 -0.90 -2.65 1.65 -6.45 1.35 -2 2.35 -3.80 2.25 -4 -0.10 -0.20 -1.50 0.30 -3 1.15 -3 1.55 -4.20 1.75 -5.05 0.90 -0.80 -0.80 -0.05 -2.55 2.90 -6.50 2.80 -3.80 2.90 -5.25 0.25 -4.60 -0.85 0.20 -2.35 0.35 -3.30 0.40 -1.55 0 -1.75 -0.15 -1.90 -1.45 -0.25 -1.90 2.60 -6 6.80 -9.80 2.30 -2.10 3.15 -3.15 2.90 -3.75 -0.25 -0.70 -0.55 -0.65 -2.75 0.55 -2.80 1.50 -4.05 1.35 -4.05 -0.55 0 -2.10 1.25 -3.90 4.45 -6.40 1.70 -1.30 3.05 -2.70 3.05 -3.10 0 -0.70 -0.15 -0.70 -1.50 0 -1.85 0.95 -3.20 0.95 -4 0 -1.05 -1.25 0.20 -3.20 4.85 -7.95 3.20 -3.20 4.20 -4.45 3.75 -4.90 -0.40 -0.40 -1.25 -0.20 -3.30 0.85 -3.20 1.60 -4.30 1.40 -4.30 -0.75 0 -3.10 2 -5.50 6.35 -7.70 3.50 -1.75 6.45 -6 3.55 -5.05 -0.65 0.20 -1.75 0.45 -2.50 0.60 -1.30 0.25 -1.40 0.15 -1.40 -1.50 0 -1.40 0.50 -2.45 2.15 -4.40 3.10 -3.80 3.35 -3.90 5.75 -1.95 3.55 2.80 8.45 2.55 11.65 -0.60 1.40 -1.45 1.70 -1.50 4.25 -1.25 3 0.30 9.20 2.95 9.20 3.90 0 0.60 -1.40 2.40 -5 6.30 -2.35 2.50 -2.45 2.55 -4.15 2.05 -4.75 -1.45 -9.85 2.50 -9.85 7.60 0 0.85 0.45 2.40 1 3.45 2.65 5.25 10.35 5.50 13.55 0.45 0.85 -1.40 1 -2.20 0.75 -5.10 l-0.25 -3.45 4.05 -4.45 c2.20 -2.40 4.30 -4.40 4.65 -4.40 0.85 0 7.95 5.05 10.40 7.40 2.25 2.15 3.90 5.20 5.10 9.35 0.50 1.65 1.40 4.20 2.05 5.70 0.70 1.50 1.10 2.80 1 2.90 -0.10 0.15 -2.90 0.55 -6.15 0.95 -3.25 0.40 -6.30 0.85 -6.80 1 -2.65 0.85 -5.80 -6 -3.40 -7.30 1.85 -0.95 3.40 -0.55 5.05 1.30 1.25 1.45 1.70 1.70 2.05 1.15 0.55 -0.95 1.10 -4.30 0.75 -4.90 -0.20 -0.25 -1.45 -0.85 -2.80 -1.30 -3.65 -1.20 -7.20 -0.65 -9.35 1.50 -1.40 1.40 -1.65 2 -1.65 4.10 0 2 0.30 2.95 1.50 4.55 0.85 1.15 1.50 2.25 1.50 2.45 0 0.25 -1.45 1.50 -3.25 2.80 -3.75 2.80 -7.65 7.90 -10.70 14.10 -2.45 4.95 -3.25 8.50 -2.95 13.30 0.20 4.40 1.40 7 5.80 12.80 5.95 7.80 10.80 16.65 12.60 22.95 1.25 4.25 1.25 6.35 0.05 9 -1.95 4.25 -5.05 5.15 -9.90 2.95z"/>
  <path d="M86.65 105.90 c-1.10 -0.55 -2.15 -2.70 -2.15 -4.45 0 -0.55 0.50 -1.45 1.05 -2 0.90 -0.90 1.50 -1.05 3.65 -0.80 3.60 0.35 6.30 1.55 6.30 2.75 0 1.10 -2.95 3.90 -4.85 4.65 -1.50 0.55 -2.60 0.55 -4 -0.15z"/>
  <path d="M111 103.50 c-0.55 -0.55 -1 -1.35 -1 -1.75 0 -1.30 2.25 -3.15 4.55 -3.75 1.20 -0.30 2.60 -0.65 3.10 -0.80 1.30 -0.40 1.05 1.05 -0.65 3.55 -1.60 2.30 -3.25 3.75 -4.35 3.75 -0.35 0 -1.10 -0.45 -1.65 -1z"/>
  <path d="M52.15 75 c-1.80 -0.80 -4.65 -3.80 -4.65 -4.90 0 -0.75 3.75 -3.95 6.05 -5.10 2 -1.05 2.10 -1.05 3.05 -0.15 1.40 1.20 2.90 4.55 2.90 6.45 0 3.45 -3.75 5.35 -7.35 3.70z"/>
  <path d="M112.75 61.70 c-1.85 -0.95 -2.25 -1.55 -2.25 -3.50 0 -0.95 0.40 -1.90 1.15 -2.55 1.50 -1.40 6.30 -3.75 6.85 -3.40 0.85 0.50 0.55 4.90 -0.45 7.10 -0.85 1.85 -2.25 3.15 -3.40 3.15 -0.20 0 -1.05 -0.35 -1.90 -0.80z"/>
  <path d="M36.20 49.50 c-0.60 -0.20 -1.55 -1.05 -2.20 -1.85 -1.50 -1.90 -1.15 -4.90 0.80 -6.60 1.10 -0.95 1.75 -1.10 3.35 -0.90 2.20 0.30 4.10 1.85 4.55 3.65 0.50 1.95 -0.95 4.65 -2.90 5.45 -2 0.85 -2.15 0.85 -3.60 0.25z"/>
  <path d="M101.70 47.50 c-2.80 -1.15 -3.50 -4.60 -1.40 -6.70 3.80 -3.80 9.65 1.40 6.10 5.40 -1.30 1.45 -3.15 1.95 -4.70 1.30z"/>
  <path d="M122.30 25.95 c-1.75 -2.05 -1.70 -4.15 0.15 -6 3.05 -3 7.80 -1.15 7.80 3.05 0 2.75 -1.85 4.50 -4.75 4.50 -1.50 0 -2.15 -0.30 -3.20 -1.55z"/>
  <path d="M27.05 24.80 c-1.55 -0.85 -2.50 -2.65 -2.55 -4.70 0 -2.25 2.40 -4.60 4.75 -4.60 2.05 0 4.55 1.95 4.90 3.85 0.35 2 -0.80 4.45 -2.60 5.35 -1.80 0.95 -2.90 1 -4.50 0.10z"/>
  <path d="M62.40 20.25 c-2.90 -1.60 -3.35 -5.35 -0.85 -7.45 2.75 -2.35 6.35 -1.45 7.45 1.90 1.30 3.95 -3 7.55 -6.60 5.55z"/>
  <path d="M86.15 12.30 c-3.05 -2.65 -1.05 -7.80 3.05 -7.80 3.85 0 5.85 5.15 3 7.75 -1.75 1.65 -4.20 1.65 -6.05 0.05z"/>
 </g>
</svg>
