<?xml version="1.0" encoding="utf-8"?>
<!DOCTYPE svg PUBLIC "-//W3C//DTD SVG 1.0//EN" "http://www.w3.org/TR/2001/REC-SVG-20010904/DTD/svg10.dtd">
<svg version="1.0" xmlns="http://www.w3.org/2000/svg" width="153px" height="148px" viewBox="0 0 153 148" preserveAspectRatio="xMidYMid meet">
 <g fill="#000000">
  <path d="M69.85 146.65 c-4.25 -0.15 -4.90 -0.30 -4.75 -1 0.10 -0.55 0.90 -1 2.10 -1.25 4.90 -1.05 6.35 -3 6.95 -9.70 0.30 -2.80 0.35 -5.50 0.15 -5.95 -0.25 -0.75 -0.90 -0.85 -4.60 -0.70 -4.20 0.20 -4.30 0.25 -5.95 2.05 -1.15 1.25 -1.80 2.50 -2 4.15 -0.30 2 -0.50 2.30 -1.45 2.15 -0.95 -0.15 -1.05 -0.50 -1.20 -4.90 -0.25 -7.75 0.40 -17 1.20 -17 0.85 0 1.70 1.55 1.70 3.10 0 3.55 4 6.05 9.25 5.80 l3 -0.15 0.15 -7.70 c0.05 -4.25 -0.05 -7.90 -0.25 -8.10 -0.25 -0.20 -4.20 -0.45 -8.90 -0.50 l-8.45 -0.15 -0.05 3.80 c0 3.05 -0.20 4.10 -1.05 5.20 -2 2.75 -3.50 3.45 -7.10 3.45 -4 0 -6.05 -1.15 -7.65 -4.40 -1 -1.90 -1.15 -4.45 -0.40 -7.35 0.15 -0.60 -0.45 -0.80 -3.15 -0.90 -3.25 -0.15 -3.40 -0.10 -5.35 1.70 -1.15 1 -2.05 2.15 -2.05 2.60 0 0.45 0.60 2.85 1.35 5.40 1.30 4.55 1.30 4.65 0.45 6.85 -1 2.60 -4.25 6.55 -6.35 7.60 -2.75 1.45 -7.15 0.65 -10.25 -1.90 -2.30 -1.95 -3.20 -4.05 -3.20 -7.75 l0 -2.95 -2.60 -0.25 c-4.65 -0.45 -6.75 -4.40 -4.40 -8.30 1.30 -2.15 1.25 -2.45 -0.50 -3.95 -1.80 -1.50 -1.95 -3.10 -0.45 -5.50 l1.10 -1.75 -1.85 -1.50 c-1.50 -1.20 -1.80 -1.80 -1.80 -3.35 0 -2.25 1.30 -6.25 2.55 -8.15 1.25 -1.70 1.25 -1.70 -0.75 -3.60 -3.10 -2.90 -3 -5.60 0.30 -8.75 l2.05 -2 -1.30 -1.25 c-0.70 -0.65 -1.45 -1.80 -1.65 -2.50 -0.35 -1.45 1 -5.95 2.10 -6.80 0.95 -0.85 0.90 -1.30 -0.55 -3.20 -2.10 -2.75 -1.55 -7 1.20 -9.50 l1.05 -0.95 -2 -1.85 c-1.25 -1.20 -2 -2.30 -2 -3.05 0 -1.45 2.10 -4.70 3.55 -5.50 1.15 -0.60 1.10 -1 -0.30 -5.05 -1.85 -5.10 0.35 -10.65 5.25 -13.35 4.70 -2.60 11.55 -3.25 16.35 -1.55 3.20 1.10 5.15 2.75 7 5.85 l1.25 2.15 10.80 0.10 10.85 0.15 0.25 13.25 0.25 13.25 8.45 0.15 c6.45 0.10 8.55 -0.05 8.90 -0.50 0.50 -0.80 0.50 -8.95 0 -9.70 -0.20 -0.30 -1.60 -1.30 -3.10 -2.30 -8.05 -5.10 -12.45 -13.85 -12.55 -24.95 -0.05 -3.90 0.10 -4.80 1.30 -7.25 2.95 -6 10.35 -7.50 14.75 -2.95 2.05 2.10 2.45 2.15 4.05 0.45 2.05 -2.20 3.80 -2.85 7.20 -2.60 3.85 0.25 6.10 1.75 7.80 5.25 1.05 2.05 1.20 3.10 1.15 7.15 -0.15 11.20 -4.20 19 -12.95 24.95 l-3.50 2.35 0 5 0 4.95 8.25 0.25 c4.55 0.15 8.55 0.05 8.85 -0.15 0.45 -0.35 0.65 -3.80 0.75 -13.30 l0.15 -12.80 10.80 0.20 c8.65 0.10 10.95 0 11.40 -0.50 0.30 -0.40 1.25 -1.70 2.15 -2.95 1.05 -1.40 2.60 -2.70 4.15 -3.50 2.25 -1.10 3.10 -1.25 8 -1.20 4.50 0 5.95 0.20 7.90 1.10 3.60 1.60 5.20 2.90 6.70 5.50 1.80 3.05 1.95 8 0.25 10.70 -0.60 0.95 -1.10 1.90 -1.10 2.05 0 0.20 1 1.45 2.25 2.85 2.90 3.25 2.90 4.50 0.20 7.10 l-2.05 1.95 1.50 1.70 c2.55 2.90 2.70 6.25 0.30 9 -0.65 0.80 -1.15 1.55 -1.05 1.70 2.90 5.10 3.30 8.55 1.20 10.35 -0.75 0.60 -1.35 1.35 -1.35 1.60 0 0.20 0.70 1.05 1.55 1.90 0.85 0.80 1.85 2.15 2.25 3 0.65 1.30 0.65 1.70 -0.05 3.05 -0.45 0.85 -1.45 2.25 -2.30 3.05 l-1.55 1.55 1 1.65 c1.20 1.95 2.60 6.50 2.60 8.45 0 1.05 -0.55 1.85 -2 3 l-1.95 1.60 0.95 1.90 c1.40 2.75 1.30 4.20 -0.50 5.55 -1.50 1.05 -1.95 2.55 -1 3.15 1 0.60 1.50 3.80 0.80 5.45 -0.95 2.25 -2.10 3 -5 3.30 l-2.55 0.25 -0.15 2.25 c-0.20 3.95 -0.60 5.45 -1.95 7 -1.60 1.95 -4.25 3.30 -7.15 3.75 -4.20 0.60 -8.65 -2.90 -10.80 -8.50 -0.85 -2.35 -0.85 -2.35 0.55 -6.65 0.75 -2.40 1.50 -4.60 1.60 -4.95 0.15 -0.30 -0.70 -1.60 -1.85 -2.85 -2.10 -2.25 -2.20 -2.30 -5.30 -2.30 -1.70 0 -3.25 0.20 -3.40 0.45 -0.15 0.20 -0.05 1.15 0.20 2.05 0.95 3.35 -0.80 7.35 -4.05 9.25 -2.10 1.20 -6.10 1.25 -8.35 0.10 -3.25 -1.75 -4.95 -6.05 -3.95 -10.15 l0.40 -1.60 -5.15 -0.35 c-2.85 -0.15 -6.85 -0.25 -8.90 -0.15 l-3.75 0.15 -0.40 7.40 c-0.25 4.10 -0.30 7.75 -0.15 8.15 0.20 0.50 1.15 0.70 3.55 0.70 5.60 0 8.40 -1.95 9.05 -6.30 0.25 -1.95 0.45 -2.25 1.40 -2.10 0.95 0.15 1.05 0.50 1.20 4.90 0.05 2.60 -0.05 7.45 -0.25 10.75 -0.35 5.55 -0.50 6 -1.40 6 -0.80 0 -1.05 -0.40 -1.25 -2.05 -0.65 -4.55 -3.05 -6.40 -8.45 -6.45 l-3.80 0 -0.15 4.95 c-0.10 4.15 0.05 5.25 0.90 7.05 1.05 2.15 3.55 3.85 6.65 4.50 1.40 0.30 1.85 1.45 0.70 1.90 -0.70 0.25 -8.80 0.25 -16.50 0z m64.15 -17.40 c2.90 -1.50 5.40 -6.30 4.75 -9.20 -0.40 -1.95 -1.80 -3.10 -4.10 -3.40 -2.25 -0.30 -3.85 1 -3.55 2.95 0.10 0.90 0.60 1.25 2.25 1.65 2.85 0.70 3.60 1.50 2.15 2.25 -1.45 0.75 -4.85 0.15 -6.10 -1.10 -1.95 -1.95 0.05 -7.50 3 -8.25 0.95 -0.20 2.15 0.10 4.35 1.25 3.50 1.85 5.35 2 7.65 0.60 1.30 -0.80 1.60 -1.30 1.60 -2.70 0 -1.35 -0.40 -2.05 -1.90 -3.35 -1.05 -0.95 -2.30 -1.90 -2.80 -2.20 -0.50 -0.25 -0.90 -0.95 -0.95 -1.50 -0.10 -0.90 0.15 -1 2.80 -0.85 2.75 0.20 2.85 0.15 2.85 -1.10 0 -0.80 -0.90 -2.30 -2.50 -4.10 -2.40 -2.75 -2.95 -4.20 -1.45 -3.75 0.40 0.10 1.75 0.30 3 0.40 2.05 0.25 2.40 0.10 3.35 -1.10 1.90 -2.40 1.20 -4.55 -2.95 -9.20 -1.35 -1.50 -2.45 -3 -2.45 -3.25 0 -0.30 1.10 -0.55 2.55 -0.55 2.95 0 3.95 -0.90 3.95 -3.55 0 -1.85 -2.20 -4.40 -5.95 -6.85 -2.50 -1.65 -2.65 -3.15 -0.30 -3.05 2.30 0.15 4.65 -0.75 5 -1.85 0.55 -1.60 -1.35 -4.55 -4.50 -7.10 -4.25 -3.40 -4.20 -3.85 0.45 -3.85 3.40 0 3.80 -0.10 3.80 -0.95 0 -0.60 -1.10 -1.85 -2.85 -3.15 -2.55 -1.95 -5.15 -4.90 -5.15 -5.90 0 -0.15 1.70 -0.65 3.85 -1.05 2.35 -0.40 4 -1 4.30 -1.50 0.95 -1.50 -0.05 -3.25 -2.90 -5.15 -1.50 -1 -2.75 -2.10 -2.75 -2.45 0 -0.35 0.80 -1.35 1.75 -2.30 3.30 -3.10 3.05 -6.60 -0.70 -10.15 -4.40 -4.05 -11.15 -5.35 -15.40 -2.90 -2.10 1.15 -4.15 3.60 -5.05 6 -0.25 0.70 -0.65 17.65 -0.85 38.60 l-0.40 37.35 3.40 3.50 3.35 3.50 -2.25 3.60 c-3.45 5.30 -3.65 8.70 -0.95 12.65 2.40 3.55 5.55 4.65 8.60 3.05z m-108.55 -2.50 c3.85 -3.50 4.60 -7.65 2.15 -12.30 -0.80 -1.50 -1.85 -3.45 -2.40 -4.35 l-0.95 -1.65 3.10 -2.85 c1.65 -1.55 3.25 -3.30 3.55 -3.85 0.30 -0.60 0.60 -15.75 0.85 -38.30 0.35 -34.75 0.30 -37.40 -0.50 -39 -2.75 -5.40 -8.20 -7.40 -14.60 -5.25 -5.80 1.95 -9.40 6.40 -8.20 10.30 0.30 1 1.20 2.45 2.05 3.15 0.80 0.75 1.50 1.70 1.50 2.05 0 0.40 -1.30 1.60 -2.90 2.65 -2.35 1.60 -2.90 2.15 -3 3.55 -0.15 1.35 0.05 1.70 1.25 2.15 0.75 0.30 2.20 0.65 3.15 0.80 3.65 0.45 3.90 0.60 3.65 1.65 -0.25 0.90 -2.70 3.30 -6.70 6.55 -2.55 2.05 -1.80 2.95 2.50 2.95 1.90 0 3.60 0.20 3.80 0.50 0.15 0.25 -1.25 1.60 -3.15 3 -6.35 4.55 -6.85 9 -1.05 9 2.20 0 2.45 0.10 2.45 1.15 0 0.80 -0.80 1.60 -3.05 3.05 -1.70 1.10 -3.50 2.70 -4 3.50 -2.05 3.40 -0.60 6 3.30 5.90 2.75 0 2.85 0.60 0.45 2.95 -2.60 2.45 -4.70 5.90 -4.70 7.70 0 2.35 1.90 3.95 4.35 3.60 1.05 -0.15 2.30 -0.40 2.80 -0.60 1.70 -0.70 0.85 1.30 -1.70 4 -1.80 1.95 -2.50 3 -2.35 3.85 0.15 1.05 0.35 1.15 2.80 1.05 2.25 -0.10 2.60 0 2.60 0.85 0 0.55 -0.90 1.55 -2.25 2.50 -3.85 2.65 -4.60 4.50 -2.60 6.75 1.80 2.10 4.25 2.20 8.10 0.30 2.65 -1.30 3.55 -1.55 4.65 -1.15 1.85 0.60 3.60 3.30 3.60 5.60 0 2.60 -1.35 3.70 -4.65 3.75 -2.25 0 -2.60 -0.15 -2.60 -1 0 -0.80 0.40 -1.05 1.75 -1.15 2.15 -0.20 3 -0.90 3 -2.35 0 -1.75 -1.65 -2.90 -3.60 -2.55 -4.05 0.75 -5.20 3.45 -3.40 7.75 2.45 5.65 7.10 7.25 10.95 3.80z m82.10 -11.70 c1.60 -1.65 1.85 -3.35 0.75 -5.50 -0.70 -1.30 -2.65 -2.55 -4.05 -2.55 -2.40 0 -4.75 2.60 -4.75 5.25 0 2 2.50 4.25 4.75 4.25 1.35 0 2.20 -0.40 3.30 -1.45z m-55.85 -0.45 c1.45 -1.35 1.90 -3.05 1.30 -4.90 -0.70 -2.15 -2.20 -3.20 -4.55 -3.20 -4.90 0 -6.30 6.80 -1.80 8.80 1.80 0.80 3.65 0.50 5.05 -0.70z m66.35 -21.60 c0.15 -5.65 0.40 -22.30 0.50 -37 l0.20 -26.75 -8.45 -0.15 c-4.65 -0.05 -8.65 0.05 -8.85 0.25 -0.20 0.25 -0.45 9.05 -0.55 19.65 l-0.15 19.25 1.15 1.90 c1.40 2.20 2.60 2.95 5.35 3.30 1.55 0.25 2 0.50 2 1.30 0 0.95 -0.35 1 -10.75 1 l-10.75 0 -0.15 -1.10 c-0.15 -0.95 0.05 -1.15 1.25 -1.15 2.10 -0.05 5.45 -1.75 6.50 -3.30 1.10 -1.70 1.90 -13.05 0.95 -14 -0.40 -0.40 -6.25 -0.65 -19.55 -0.75 l-19 -0.20 -0.30 4.75 c-0.20 2.60 -0.15 5.75 0.05 6.90 0.50 2.80 3 5.45 5.45 5.90 2.55 0.45 3.55 1.10 3.25 1.95 -0.35 0.80 -5.05 0.90 -16.20 0.30 -4.75 -0.25 -5.75 -0.45 -5.90 -1.10 -0.10 -0.65 0.40 -0.90 2.30 -1.15 2.80 -0.35 4.70 -1.65 6 -3.95 0.75 -1.40 0.85 -3.95 1.15 -20.60 0.15 -10.45 0.15 -19.15 0 -19.35 -0.15 -0.20 -4.10 -0.40 -8.80 -0.50 l-8.50 -0.15 -0.30 3.50 c-0.20 1.95 -0.50 18.65 -0.70 37.15 l-0.35 33.60 2.20 0.05 c6.95 0.25 54.85 0.75 66.65 0.75 l14 -0.05 0.30 -10.25z m-36.75 -56.75 c9.15 -4.60 13.30 -11.95 11.70 -20.75 -0.80 -4.35 -2.30 -7.75 -4.15 -9.30 -3.25 -2.70 -8.15 -0.50 -9.55 4.30 -0.90 3.15 -2.10 3.05 -3.40 -0.35 -1.30 -3.50 -3.30 -5.15 -6.25 -5.15 -1.95 0 -2.50 0.25 -3.95 1.75 -2.30 2.45 -3.80 7.35 -3.80 12.60 -0.05 3.50 0.15 4.50 1.35 6.90 0.75 1.60 2.05 3.65 2.90 4.60 2.40 2.70 9.20 7.05 11.15 7.15 0.30 0 2.10 -0.80 4 -1.75z"/>
 </g>
 <g fill="none">
  <path d="M0 74 l0 -74 76.50 0 76.50 0 0 39.30 c0 26.05 -0.15 39.15 -0.50 38.95 -0.25 -0.15 -0.50 -0.60 -0.50 -0.95 0 -0.30 -0.80 -1.35 -1.75 -2.30 -0.95 -0.95 -1.75 -1.90 -1.75 -2.10 0 -0.25 0.60 -1 1.35 -1.60 2.10 -1.80 1.70 -5.25 -1.20 -10.35 -0.10 -0.15 0.40 -0.90 1.05 -1.70 2.40 -2.75 2.25 -6.10 -0.30 -9 l-1.50 -1.70 2.05 -1.95 c2.70 -2.60 2.70 -3.85 -0.20 -7.10 -1.25 -1.40 -2.25 -2.65 -2.25 -2.85 0 -0.15 0.50 -1.10 1.10 -2.05 1.70 -2.70 1.55 -7.65 -0.25 -10.70 -1.50 -2.60 -3.10 -3.90 -6.70 -5.50 -1.95 -0.90 -3.40 -1.10 -7.90 -1.10 -4.90 -0.05 -5.75 0.10 -8 1.20 -1.55 0.80 -3.10 2.10 -4.15 3.50 -0.90 1.25 -1.85 2.55 -2.15 2.95 -0.45 0.50 -2.75 0.60 -11.40 0.50 l-10.80 -0.20 -0.15 12.80 c-0.10 9.50 -0.30 12.95 -0.75 13.30 -0.30 0.20 -4.30 0.30 -8.85 0.15 l-8.25 -0.25 0 -4.95 0 -5 3.50 -2.35 c8.75 -5.95 12.80 -13.75 12.95 -24.95 0.05 -4.05 -0.10 -5.10 -1.15 -7.15 -1.70 -3.50 -3.95 -5 -7.80 -5.25 -3.40 -0.25 -5.15 0.40 -7.20 2.60 -1.60 1.70 -2 1.65 -4.05 -0.45 -4.40 -4.55 -11.80 -3.05 -14.75 2.95 -1.20 2.45 -1.35 3.35 -1.30 7.25 0.10 11.10 4.50 19.85 12.55 24.95 1.50 1 2.90 2 3.10 2.30 0.50 0.75 0.50 8.90 0 9.70 -0.35 0.45 -2.45 0.60 -8.90 0.50 l-8.45 -0.15 -0.25 -13.25 -0.25 -13.25 -10.85 -0.15 -10.80 -0.10 -1.25 -2.15 c-1.85 -3.10 -3.80 -4.75 -7 -5.85 -4.80 -1.70 -11.65 -1.05 -16.35 1.55 -4.90 2.70 -7.10 8.25 -5.25 13.35 1.40 4.05 1.45 4.45 0.30 5.05 -1.45 0.80 -3.55 4.05 -3.55 5.50 0 0.75 0.75 1.85 2 3.05 l2 1.85 -1.05 0.95 c-2.75 2.50 -3.30 6.75 -1.20 9.50 1.45 1.90 1.50 2.35 0.55 3.20 -1.10 0.85 -2.45 5.35 -2.10 6.80 0.20 0.70 0.95 1.85 1.65 2.50 l1.30 1.25 -2.05 2 c-3.30 3.15 -3.40 5.85 -0.30 8.75 2 1.90 2 1.90 0.75 3.60 -1.25 1.90 -2.55 5.90 -2.55 8.15 0 1.55 0.30 2.15 1.80 3.35 l1.85 1.50 -1.10 1.75 c-1.50 2.40 -1.35 4 0.45 5.50 1.75 1.50 1.80 1.80 0.50 3.95 -1.45 2.35 -1.30 4.55 0.40 6.45 1.15 1.30 1.90 1.65 4 1.85 l2.60 0.25 0 2.95 c0 3.70 0.90 5.80 3.20 7.75 3.10 2.55 7.50 3.35 10.25 1.90 2.10 -1.05 5.35 -5 6.35 -7.60 0.85 -2.20 0.85 -2.30 -0.45 -6.85 -0.75 -2.55 -1.35 -4.95 -1.35 -5.40 0 -0.45 0.90 -1.60 2.05 -2.60 1.95 -1.80 2.10 -1.85 5.35 -1.70 2.70 0.10 3.30 0.30 3.15 0.90 -0.75 2.90 -0.60 5.45 0.40 7.35 1.60 3.25 3.65 4.40 7.65 4.40 3.60 0 5.10 -0.70 7.10 -3.45 0.85 -1.10 1.05 -2.15 1.05 -5.20 l0.05 -3.80 8.45 0.15 c4.70 0.05 8.65 0.30 8.90 0.50 0.20 0.20 0.30 3.85 0.25 8.10 l-0.15 7.70 -3 0.15 c-5.25 0.25 -9.25 -2.25 -9.25 -5.80 0 -1.55 -0.85 -3.10 -1.70 -3.10 -0.80 0 -1.45 9.25 -1.20 17 0.15 4.40 0.25 4.75 1.20 4.90 0.95 0.15 1.15 -0.15 1.45 -2.15 0.20 -1.65 0.85 -2.90 2 -4.15 1.65 -1.80 1.75 -1.85 5.95 -2.05 3.70 -0.15 4.35 -0.05 4.60 0.70 0.65 1.65 -0.55 11 -1.60 12.40 -1.10 1.50 -4.45 3.35 -6.10 3.35 -1 0 -2.05 1.20 -1.50 1.75 0.30 0.35 19.95 0.80 20.95 0.50 1.40 -0.45 1.15 -1.70 -0.40 -2 -3.10 -0.65 -5.60 -2.35 -6.65 -4.50 -0.85 -1.80 -1 -2.90 -0.90 -7.05 l0.15 -4.95 3.80 0 c5.40 0.05 7.80 1.90 8.45 6.45 0.20 1.65 0.45 2.05 1.25 2.05 0.90 0 1.05 -0.45 1.40 -6 0.20 -3.30 0.30 -8.15 0.25 -10.75 -0.15 -4.40 -0.25 -4.75 -1.20 -4.90 -0.95 -0.15 -1.15 0.15 -1.40 2.10 -0.65 4.35 -3.45 6.30 -9.05 6.30 -2.40 0 -3.35 -0.20 -3.55 -0.70 -0.15 -0.40 -0.10 -4.05 0.15 -8.15 l0.40 -7.40 3.75 -0.15 c2.05 -0.10 6.05 0 8.90 0.15 l5.15 0.35 -0.40 1.60 c-1 4.10 0.70 8.40 3.95 10.15 2.25 1.15 6.25 1.10 8.35 -0.10 3.25 -1.90 5 -5.90 4.05 -9.25 -0.25 -0.90 -0.35 -1.85 -0.20 -2.05 0.15 -0.25 1.70 -0.45 3.40 -0.45 3.10 0 3.20 0.05 5.30 2.30 1.15 1.25 2 2.55 1.85 2.85 -0.10 0.35 -0.85 2.55 -1.60 4.95 -1.40 4.30 -1.40 4.30 -0.55 6.65 2.15 5.60 6.60 9.10 10.80 8.50 2.90 -0.45 5.55 -1.80 7.15 -3.75 1.35 -1.55 1.75 -3.05 1.95 -7 l0.15 -2.25 2.55 -0.25 c2.90 -0.30 4.05 -1.05 5 -3.30 0.70 -1.65 0.20 -4.85 -0.80 -5.45 -0.95 -0.60 -0.50 -2.10 1 -3.15 1.80 -1.35 1.90 -2.80 0.50 -5.55 l-0.95 -1.90 1.95 -1.60 c1.45 -1.15 2 -1.95 2 -3 0 -1.90 -1.40 -6.50 -2.60 -8.45 l-1 -1.65 1.80 -1.80 c1 -1 1.80 -2.10 1.80 -2.45 0 -0.35 0.25 -0.80 0.50 -0.95 0.35 -0.20 0.50 11.15 0.50 33.70 l0 34.05 -76.50 0 -76.50 0 0 -74z"/>
  <path d="M128.25 129.10 c-1.75 -1.10 -4.05 -4.25 -4.50 -6.25 -0.65 -2.55 0.20 -5.60 2.60 -9.30 l2.25 -3.60 -3.35 -3.50 -3.40 -3.50 0.40 -37.35 c0.20 -20.95 0.60 -37.90 0.85 -38.60 0.90 -2.40 2.95 -4.85 5.05 -6 4.25 -2.45 11 -1.15 15.40 2.90 3.75 3.55 4 7.05 0.70 10.15 -0.95 0.95 -1.75 1.95 -1.75 2.30 0 0.35 1.25 1.45 2.75 2.45 2.85 1.90 3.85 3.65 2.90 5.15 -0.30 0.50 -1.95 1.10 -4.30 1.50 -2.15 0.40 -3.85 0.90 -3.85 1.05 0 1 2.60 3.95 5.15 5.90 1.75 1.30 2.85 2.55 2.85 3.15 0 0.85 -0.40 0.95 -3.80 0.95 -4.65 0 -4.70 0.45 -0.45 3.85 3.15 2.55 5.05 5.50 4.50 7.10 -0.35 1.10 -2.70 2 -5 1.85 -2.35 -0.10 -2.20 1.40 0.30 3.05 3.75 2.45 5.95 5 5.95 6.85 0 2.65 -1 3.55 -3.95 3.55 -1.45 0 -2.55 0.25 -2.55 0.55 0 0.25 1.10 1.75 2.45 3.25 4.15 4.65 4.85 6.80 2.95 9.20 -0.95 1.20 -1.30 1.35 -3.35 1.10 -1.25 -0.10 -2.60 -0.30 -3 -0.40 -1.50 -0.45 -0.95 1 1.45 3.75 1.60 1.80 2.50 3.30 2.50 4.10 0 1.25 -0.10 1.30 -2.85 1.10 -2.65 -0.15 -2.90 -0.05 -2.80 0.85 0.05 0.55 0.45 1.25 0.95 1.50 0.50 0.30 1.75 1.25 2.80 2.20 1.50 1.30 1.90 2 1.90 3.35 0 1.40 -0.30 1.90 -1.60 2.70 -2.30 1.40 -4.15 1.25 -7.65 -0.60 -2.20 -1.15 -3.40 -1.45 -4.35 -1.25 -2.95 0.75 -4.95 6.30 -3 8.25 1.25 1.25 4.65 1.85 6.10 1.10 1.45 -0.75 0.70 -1.55 -2.15 -2.25 -1.65 -0.40 -2.15 -0.75 -2.25 -1.65 -0.30 -1.95 1.30 -3.25 3.55 -2.95 3.50 0.50 5 3.10 3.85 6.70 -1.75 5.45 -6.45 8.05 -10.25 5.75z"/>
  <path d="M17.35 127 c-0.95 -0.80 -2.20 -2.65 -2.85 -4.05 -1.80 -4.30 -0.65 -7 3.40 -7.75 1.95 -0.35 3.60 0.80 3.60 2.55 0 1.45 -0.85 2.15 -3 2.35 -1.35 0.10 -1.75 0.35 -1.75 1.15 0 0.85 0.35 1 2.60 1 3.30 -0.05 4.65 -1.15 4.65 -3.75 0 -2.30 -1.75 -5 -3.60 -5.60 -1.10 -0.40 -2 -0.15 -4.65 1.15 -3.85 1.90 -6.30 1.80 -8.10 -0.30 -2 -2.25 -1.25 -4.10 2.60 -6.75 1.35 -0.95 2.25 -1.95 2.25 -2.50 0 -0.85 -0.35 -0.95 -2.60 -0.85 -2.45 0.10 -2.65 0 -2.80 -1.05 -0.15 -0.85 0.55 -1.90 2.35 -3.85 2.55 -2.70 3.40 -4.70 1.70 -4 -0.50 0.20 -1.75 0.45 -2.80 0.60 -2.45 0.35 -4.35 -1.25 -4.35 -3.60 0 -1.80 2.10 -5.25 4.70 -7.70 2.40 -2.35 2.30 -2.95 -0.45 -2.95 -3.90 0.10 -5.35 -2.50 -3.30 -5.90 0.50 -0.80 2.30 -2.40 4 -3.50 2.25 -1.45 3.05 -2.25 3.05 -3.05 0 -1.05 -0.25 -1.15 -2.45 -1.15 -5.80 0 -5.30 -4.45 1.05 -9 1.90 -1.40 3.30 -2.75 3.15 -3 -0.20 -0.30 -1.90 -0.50 -3.80 -0.50 -4.30 0 -5.05 -0.90 -2.50 -2.95 4 -3.25 6.45 -5.65 6.70 -6.55 0.25 -1.05 0 -1.20 -3.65 -1.65 -0.95 -0.15 -2.40 -0.50 -3.15 -0.80 -1.20 -0.45 -1.40 -0.80 -1.25 -2.15 0.10 -1.40 0.65 -1.95 3 -3.55 1.60 -1.05 2.90 -2.25 2.90 -2.65 0 -0.35 -0.70 -1.30 -1.50 -2.05 -4.70 -4.20 -1.65 -10.85 6.15 -13.45 6.40 -2.15 11.85 -0.15 14.60 5.25 0.80 1.60 0.85 4.25 0.50 39 -0.25 22.55 -0.55 37.70 -0.85 38.30 -0.30 0.55 -1.90 2.30 -3.55 3.85 l-3.10 2.85 0.95 1.65 c0.55 0.90 1.60 2.85 2.40 4.35 2.45 4.65 1.70 8.80 -2.15 12.30 -2.65 2.35 -5.60 2.45 -8.10 0.25z"/>
  <path d="M100.95 115.05 c-1.60 -1.65 -1.85 -3.35 -0.75 -5.50 0.70 -1.30 2.65 -2.55 4.05 -2.55 2.40 0 4.75 2.60 4.75 5.25 0 2 -2.50 4.25 -4.75 4.25 -1.35 0 -2.20 -0.40 -3.30 -1.45z"/>
  <path d="M46.65 115.30 c-4.50 -2 -3.10 -8.80 1.80 -8.80 2.35 0 3.85 1.05 4.55 3.20 1.25 3.90 -2.55 7.25 -6.35 5.60z"/>
  <path d="M64.50 103 c-13.90 -0.20 -26.25 -0.40 -27.40 -0.45 l-2.20 -0.05 0.35 -33.60 c0.20 -18.50 0.50 -35.20 0.70 -37.15 l0.30 -3.50 8.50 0.15 c4.70 0.10 8.65 0.30 8.80 0.50 0.15 0.20 0.15 8.90 0 19.35 -0.30 16.65 -0.40 19.20 -1.15 20.60 -1.30 2.30 -3.20 3.60 -6 3.95 -1.90 0.25 -2.40 0.50 -2.30 1.15 0.15 0.65 1.15 0.85 5.90 1.10 11.15 0.60 15.85 0.50 16.20 -0.30 0.30 -0.85 -0.70 -1.50 -3.25 -1.95 -2.45 -0.45 -4.95 -3.10 -5.45 -5.90 -0.20 -1.15 -0.25 -4.30 -0.05 -6.90 l0.30 -4.75 19 0.20 c13.30 0.10 19.15 0.35 19.55 0.75 0.95 0.95 0.15 12.30 -0.95 14 -1.05 1.55 -4.40 3.25 -6.50 3.30 -1.20 0 -1.40 0.20 -1.25 1.15 l0.15 1.10 10.75 0 c10.40 0 10.75 -0.05 10.75 -1 0 -0.80 -0.45 -1.05 -2 -1.30 -2.75 -0.35 -3.95 -1.10 -5.35 -3.30 l-1.15 -1.90 0.15 -19.25 c0.10 -10.60 0.35 -19.40 0.55 -19.65 0.20 -0.20 4.20 -0.30 8.85 -0.25 l8.45 0.15 -0.20 26.75 c-0.10 14.70 -0.35 31.35 -0.50 37 l-0.30 10.25 -14 0.05 c-7.70 0 -25.35 -0.15 -39.25 -0.30z"/>
  <path d="M75.15 37.25 c-2.55 -1.10 -7.35 -4.50 -9 -6.40 -0.85 -0.95 -2.15 -3 -2.90 -4.60 -1.20 -2.40 -1.40 -3.40 -1.35 -6.90 0 -5.25 1.50 -10.15 3.80 -12.60 1.45 -1.50 2 -1.75 3.95 -1.75 2.95 0 4.95 1.65 6.25 5.15 1.30 3.40 2.50 3.50 3.40 0.35 1.40 -4.80 6.30 -7 9.55 -4.30 1.85 1.55 3.35 4.95 4.15 9.30 1.60 8.80 -2.55 16.15 -11.70 20.75 -3.85 1.95 -3.95 2 -6.15 1z"/>
 </g>
</svg>
