<?xml version="1.0" encoding="utf-8"?>
<!DOCTYPE svg PUBLIC "-//W3C//DTD SVG 1.0//EN" "http://www.w3.org/TR/2001/REC-SVG-20010904/DTD/svg10.dtd">
<svg version="1.0" xmlns="http://www.w3.org/2000/svg" width="165px" height="135px" viewBox="0 0 165 135" preserveAspectRatio="xMidYMid meet">
 <g fill="#000000">
  <path d="M71.15 134.10 c-0.30 -0.50 -0.45 -1.50 -0.30 -2.25 0.20 -1.05 0.70 -1.45 2.15 -1.85 3.35 -0.90 3.70 -1.70 4.05 -9.65 0.20 -3.90 0.20 -7.40 0.10 -7.70 -0.20 -0.45 -1.45 -0.65 -3.90 -0.65 -4.50 0 -6.70 1.20 -7.55 4.25 -0.50 1.85 -0.70 2 -2.25 2 l-1.70 0 0 -8.50 0 -8.50 2 0 c1.60 0 2 0.20 2.15 1 0.65 3.95 2.80 5.35 7.95 5.15 l3.40 -0.15 0.35 -25.20 c0.20 -13.90 0.25 -25.35 0.15 -25.45 -0.10 -0.15 -3.10 -0.25 -6.60 -0.30 l-6.40 -0.05 -0.40 8.75 c-0.25 4.80 -0.60 8.90 -0.80 9.15 -0.20 0.20 -4.45 0.20 -9.45 0.05 l-9.10 -0.35 0 -8.95 0 -8.90 -2.10 -0.05 c-1.20 -0.05 -7.20 -0.20 -13.40 -0.40 l-11.25 -0.30 0.20 -22.40 0.15 -22.35 -2.05 0 c-1.65 0 -2.20 0.20 -2.60 1.10 -1 2.15 -2.95 3.15 -6.10 3.15 -2.75 0 -3.05 -0.10 -4.60 -1.85 -2 -2.15 -2.50 -3.70 -2 -6.25 0.40 -2.35 3.05 -4.90 5.45 -5.35 2.40 -0.45 5.90 1.10 7.05 3.05 l0.90 1.50 13.55 0.35 c7.45 0.20 13.70 0.50 13.95 0.65 0.20 0.15 0.25 4.35 0.05 9.40 l-0.35 9.20 1.20 0.30 c0.65 0.15 5.25 0.20 10.20 0.15 l9 -0.15 0.30 -9.50 c0.15 -5.20 0.30 -9.50 0.35 -9.55 0.35 -0.15 36.90 0.45 37.10 0.65 0.10 0.10 0.20 4.40 0.25 9.55 l0 9.35 10.50 0.25 c5.80 0.15 10.80 0.05 11.10 -0.20 0.45 -0.30 0.65 -3 0.75 -9.50 l0.15 -9.05 14.50 -0.15 c8 -0.10 16.15 0 18.15 0.15 l3.60 0.35 0 12.85 c0 7.10 -0.15 18.65 -0.35 25.70 l-0.30 12.85 -6.20 0 c-3.35 0 -6.15 0.05 -6.20 0.15 0 0.05 -0.15 2.80 -0.25 6.10 -0.10 3.30 -0.30 6.30 -0.45 6.60 -0.15 0.45 -1.35 0.65 -3.50 0.65 l-3.30 0 -0.95 2.30 c-0.55 1.25 -1 2.55 -1 2.85 0 0.85 8.45 9.85 9.25 9.85 0.35 0 1.35 -0.80 2.20 -1.75 1.40 -1.60 1.55 -2.10 1.55 -5 0 -1.95 0.25 -3.35 0.60 -3.55 0.65 -0.40 11.15 10.35 11.70 12 0.45 1.40 -0.70 1.80 -4.55 1.50 -3.10 -0.30 -3.65 -0.20 -4.85 0.80 -1.85 1.45 -1.75 2.45 0.50 4.65 1.85 1.85 1.95 1.85 6 1.85 6.20 0 6.10 0.45 -1.45 7.60 -3.40 3.25 -6.45 5.90 -6.80 5.90 -0.75 0 -0.75 0 -0.65 -5.85 0.05 -4.05 -0.05 -4.75 -1.05 -6.10 -1.45 -2 -2.85 -1.95 -4.85 0.10 -1.40 1.45 -1.55 1.90 -1.70 5.35 -0.10 3 -0.30 3.75 -0.90 3.75 -0.45 0 -3.25 -2.70 -6.25 -6 l-5.50 -6 3.55 -0.15 c3.50 -0.15 3.55 -0.15 5.90 -2.55 l2.35 -2.40 -3.70 -3.95 -3.70 -3.95 -1.10 2.15 c-1.70 3.30 -2.85 2.95 -6.30 -1.90 -1.60 -2.20 -3.10 -3.85 -3.30 -3.70 -0.25 0.15 -0.45 3.15 -0.45 6.70 0 4.65 -0.15 6.45 -0.60 6.60 -0.35 0.10 -5.45 0.10 -11.30 0 l-10.70 -0.20 0.15 -24.80 c0.10 -21.95 0.05 -24.85 -0.65 -25.25 -0.40 -0.30 -1.10 -0.40 -1.50 -0.25 -0.65 0.25 -0.80 3.90 -1.10 25 -0.20 13.55 -0.55 24.85 -0.75 25.05 -0.20 0.20 -2.85 0.30 -5.85 0.25 l-5.45 -0.15 0.20 -25.15 0.20 -25.10 -1.35 0 c-0.95 0 -1.35 0.30 -1.50 1.15 -0.15 0.60 -0.40 15 -0.55 32 l-0.35 30.85 4.25 0 c3.75 0 4.45 -0.15 5.60 -1.15 0.75 -0.60 1.50 -1.90 1.70 -2.85 0.30 -1.65 0.50 -1.75 2.45 -1.90 l2.10 -0.15 -0.10 8.40 -0.15 8.40 -2.10 0.15 c-1.90 0.15 -2.15 0.05 -2.15 -0.90 0 -1.70 -1.30 -3.75 -2.80 -4.45 -1.85 -0.85 -7.95 -1.35 -8.35 -0.70 -0.20 0.30 -0.35 3.70 -0.40 7.55 -0.10 8.20 0.20 9.10 3.65 10.15 1.90 0.60 2.15 0.90 2.20 2.20 0.05 2.80 0.20 2.75 -8.25 2.75 -7 0 -7.85 -0.10 -8.40 -0.90z m46.55 -44.40 c0.70 -0.25 0.80 -1.50 0.85 -8.15 0.05 -4.30 0.20 -8.35 0.40 -9.05 0.85 -3.15 4.25 -1.10 8.90 5.40 1.25 1.70 2.45 3.10 2.70 3.10 0.20 0 1.30 -2.75 2.35 -6.10 l1.95 -6.15 3.05 -0.15 3.10 -0.15 0 -5.95 c0 -3.25 0.15 -6.25 0.30 -6.70 0.25 -0.65 1.30 -0.80 6.50 -0.80 6 0 6.20 -0.05 6.45 -1.10 0.15 -0.65 0.20 -10.25 0.15 -21.40 l-0.15 -20.25 -13.55 -0.15 -13.55 -0.10 -0.40 9.50 -0.35 9.50 -14.65 0 c-8.05 0 -15 -0.15 -15.45 -0.30 -0.70 -0.25 -0.80 -1.60 -0.80 -9.75 l0 -9.50 -5.60 0.15 -5.65 0.15 0 3.25 0 3.25 1.65 0.15 c2.05 0.20 3.35 -0.80 4.10 -3.20 0.50 -1.40 0.85 -1.70 2 -1.70 0.75 0 1.50 0.30 1.60 0.65 0.10 0.30 0.10 3.65 -0.05 7.35 l-0.30 6.75 -1.50 0 c-1.25 0 -1.50 -0.25 -1.80 -1.75 -0.40 -1.80 -1.45 -2.85 -3.30 -3.35 -2.15 -0.50 -2.65 0.10 -2.65 3.10 0 2.30 0.20 3 1.25 4 0.65 0.70 1.65 1.25 2.20 1.25 1.30 0 1.70 0.75 1.35 2.30 -0.30 1.20 -0.35 1.20 -6.45 1.20 -7.60 0 -8.45 -0.20 -8.25 -1.90 0.10 -1 0.55 -1.40 1.75 -1.70 2.50 -0.65 3.70 -2.60 3.55 -5.60 l-0.15 -2.55 -1.90 -0.15 c-2.45 -0.20 -4.10 0.85 -4.85 3.15 -0.50 1.45 -0.80 1.75 -2.05 1.75 l-1.45 0 0 -7.25 c0 -6.30 0.10 -7.30 0.80 -7.60 1.20 -0.45 2.35 0.45 2.80 2.25 0.55 2.05 2.15 3.10 4.75 3.10 l2.15 0 0 -3.50 c0 -4.20 0.10 -4.10 -7.25 -3.90 l-5 0.15 -0.30 9.50 c-0.15 5.25 -0.30 9.60 -0.35 9.70 -0.15 0.35 -28.20 -0.45 -28.75 -0.80 -0.30 -0.20 -0.40 -3.35 -0.15 -9.15 0.30 -7.35 0.20 -8.95 -0.40 -9.45 -0.45 -0.40 -2.75 -0.55 -7.35 -0.45 l-6.70 0.15 -0.30 19.75 c-0.15 10.85 -0.15 20.05 -0.05 20.35 0.15 0.50 3.45 0.65 13.30 0.75 l13.05 0.15 0 8.60 c0 4.70 0.10 8.70 0.25 8.80 0.15 0.15 2.40 0.35 5 0.40 l4.75 0.20 0.35 -8.45 c0.20 -4.60 0.45 -8.65 0.55 -9 0.15 -0.40 2.80 -0.55 8.90 -0.55 l8.70 0 0.25 -6.25 0.25 -6.25 3.25 -0.15 c1.80 -0.10 4.45 0 5.90 0.15 l2.70 0.35 -0.20 24.80 -0.15 24.85 1.20 0.15 c0.65 0.10 1.40 -0.10 1.60 -0.50 0.25 -0.35 0.45 -8.75 0.45 -18.65 0 -9.90 0.15 -20.85 0.35 -24.35 l0.30 -6.40 5.75 0 5.75 0 -0.20 24.90 -0.20 24.85 6 0.25 c3.30 0.20 6.05 0.35 6.10 0.40 0.05 0.05 0.40 -0.05 0.85 -0.20z m-107.60 -79.55 c1.20 -1.05 1.15 -2.90 -0.10 -4.15 -1.25 -1.25 -2.75 -1.25 -4 0 -2.75 2.75 1.20 6.80 4.10 4.15z"/>
 </g>
 <g fill="none">
  <path d="M0 67.50 l0 -67.50 82.50 0 82.50 0 0 67.50 0 67.50 -38.70 0 -38.70 0 0.10 -2.10 c0.05 -2.10 0 -2.15 -2.10 -2.85 -3.45 -1.05 -3.75 -1.95 -3.65 -10.15 0.05 -3.85 0.20 -7.25 0.40 -7.55 0.40 -0.70 6.75 -0.10 8.50 0.85 1.50 0.75 2.65 2.65 2.65 4.35 0 0.90 0.30 1 2.15 0.85 l2.10 -0.15 0.15 -8.40 0.10 -8.40 -2.10 0.15 c-1.95 0.15 -2.15 0.25 -2.45 1.90 -0.20 0.95 -0.95 2.25 -1.70 2.85 -1.15 1 -1.85 1.15 -5.60 1.15 l-4.25 0 0.35 -30.85 c0.15 -17 0.40 -31.40 0.55 -32.05 0.15 -0.80 0.55 -1.10 1.50 -1.10 l1.35 0 -0.20 25.15 -0.20 25.10 5.45 0.15 c3 0.05 5.65 -0.05 5.85 -0.25 0.20 -0.20 0.55 -11.50 0.75 -25.05 0.30 -21.10 0.45 -24.75 1.10 -25 0.40 -0.15 1.10 -0.05 1.50 0.25 0.70 0.40 0.75 3.30 0.65 25.25 l-0.15 24.80 10.70 0.20 c5.85 0.10 10.95 0.10 11.30 0 0.45 -0.15 0.60 -1.95 0.60 -6.60 0 -3.55 0.20 -6.55 0.45 -6.70 0.20 -0.15 1.70 1.50 3.30 3.70 3.45 4.85 4.60 5.20 6.30 1.90 l1.10 -2.15 3.70 3.95 3.70 3.95 -2.35 2.40 c-2.35 2.40 -2.40 2.40 -5.90 2.55 l-3.55 0.15 5.50 6 c3 3.30 5.80 6 6.25 6 0.60 0 0.80 -0.75 0.90 -3.75 0.15 -3.45 0.30 -3.90 1.70 -5.35 2 -2.05 3.40 -2.10 4.85 -0.10 1 1.35 1.10 2.05 1.05 6.10 -0.10 5.85 -0.10 5.85 0.65 5.85 0.35 0 3.40 -2.65 6.80 -5.90 7.55 -7.15 7.65 -7.60 1.40 -7.60 -4.15 0 -4.15 0 -6 -1.90 -2.20 -2.25 -2.30 -3.15 -0.45 -4.60 1.20 -1 1.75 -1.10 4.85 -0.80 3.85 0.30 5 -0.10 4.55 -1.50 -0.55 -1.65 -11.05 -12.40 -11.70 -12 -0.35 0.20 -0.60 1.60 -0.60 3.55 0 2.90 -0.15 3.40 -1.55 5 -0.85 0.95 -1.85 1.75 -2.20 1.75 -0.80 0 -9.25 -9 -9.25 -9.85 0 -0.30 0.45 -1.60 1 -2.85 l0.95 -2.30 3.30 0 c2.15 0 3.35 -0.20 3.50 -0.60 0.15 -0.35 0.35 -3.35 0.45 -6.65 0.10 -3.30 0.25 -6.05 0.25 -6.10 0.05 -0.10 2.85 -0.15 6.20 -0.15 l6.20 0 0.30 -12.85 c0.20 -7.05 0.35 -18.60 0.35 -25.70 l0 -12.85 -3.60 -0.35 c-2 -0.15 -10.15 -0.25 -18.15 -0.15 l-14.50 0.15 -0.15 9.05 c-0.10 6.50 -0.30 9.20 -0.75 9.50 -0.30 0.25 -5.30 0.35 -11.10 0.20 l-10.50 -0.25 0 -9.35 c-0.05 -5.15 -0.15 -9.45 -0.25 -9.55 -0.20 -0.20 -36.75 -0.80 -37.10 -0.65 -0.05 0.05 -0.20 4.35 -0.35 9.55 l-0.30 9.50 -9 0.15 c-4.95 0.05 -9.55 0 -10.20 -0.15 l-1.20 -0.30 0.35 -9.20 c0.20 -5.05 0.15 -9.25 -0.05 -9.40 -0.25 -0.15 -6.50 -0.45 -13.95 -0.65 l-13.55 -0.35 -0.90 -1.50 c-1.15 -1.95 -4.65 -3.50 -7.05 -3.05 -2.40 0.45 -5.05 3 -5.45 5.35 -0.50 2.55 0 4.10 2 6.25 1.55 1.75 1.85 1.85 4.60 1.85 3.15 0 5.10 -1 6.10 -3.15 0.40 -0.90 0.95 -1.10 2.60 -1.10 l2.05 0 -0.15 22.40 -0.20 22.35 11.25 0.30 c6.20 0.20 12.20 0.35 13.40 0.40 l2.10 0.05 0 8.90 0 8.95 9.10 0.35 c5 0.15 9.25 0.15 9.45 -0.05 0.20 -0.25 0.55 -4.35 0.80 -9.15 l0.40 -8.75 6.40 0.05 c3.50 0.05 6.50 0.15 6.60 0.30 0.10 0.10 0.05 11.55 -0.15 25.45 l-0.35 25.20 -3.40 0.15 c-5.15 0.20 -7.30 -1.20 -7.95 -5.15 -0.15 -0.80 -0.55 -1 -2.15 -1 l-2 0 0 8.50 0 8.50 1.70 0 c1.55 0 1.75 -0.15 2.25 -2 0.85 -3.05 3.05 -4.25 7.55 -4.25 2.45 0 3.70 0.20 3.90 0.65 0.10 0.30 0.10 3.80 -0.10 7.70 -0.35 7.95 -0.70 8.75 -4.05 9.65 -1.50 0.40 -1.95 0.80 -2.15 1.90 -0.15 0.75 -0.05 1.55 0.20 1.80 0.25 0.30 0.45 0.70 0.45 0.90 0 0.20 -16.10 0.40 -35.75 0.40 l-35.75 0 0 -67.50z"/>
  <path d="M110.75 89.50 l-6 -0.25 0.20 -24.85 0.20 -24.90 -5.75 0 -5.75 0 -0.30 6.40 c-0.20 3.50 -0.35 14.45 -0.35 24.35 0 9.90 -0.20 18.30 -0.45 18.65 -0.20 0.40 -0.95 0.60 -1.60 0.50 l-1.20 -0.15 0.15 -24.85 0.20 -24.80 -2.70 -0.35 c-1.45 -0.15 -4.10 -0.25 -5.90 -0.15 l-3.25 0.15 -0.25 6.25 -0.25 6.25 -8.70 0 c-6.10 0 -8.75 0.15 -8.90 0.55 -0.10 0.35 -0.35 4.40 -0.55 9 l-0.35 8.45 -4.75 -0.20 c-2.60 -0.05 -4.85 -0.25 -5 -0.40 -0.15 -0.10 -0.25 -4.10 -0.25 -8.80 l0 -8.60 -13.05 -0.15 c-9.85 -0.10 -13.15 -0.25 -13.30 -0.75 -0.10 -0.30 -0.10 -9.50 0.05 -20.35 l0.30 -19.75 6.70 -0.15 c4.60 -0.10 6.90 0.05 7.35 0.45 0.60 0.50 0.70 2.10 0.40 9.45 -0.25 5.80 -0.15 8.95 0.15 9.15 0.55 0.35 28.60 1.15 28.75 0.80 0.05 -0.10 0.20 -4.45 0.35 -9.70 l0.30 -9.50 5 -0.15 c7.35 -0.20 7.25 -0.30 7.25 3.90 l0 3.50 -2.15 0 c-2.60 0 -4.20 -1.05 -4.75 -3.10 -0.45 -1.80 -1.60 -2.70 -2.80 -2.25 -0.70 0.30 -0.80 1.30 -0.80 7.60 l0 7.25 1.45 0 c1.25 0 1.55 -0.30 2.05 -1.75 0.75 -2.30 2.40 -3.35 4.85 -3.15 l1.90 0.15 0.15 2.55 c0.15 3 -1.05 4.95 -3.55 5.60 -1.20 0.30 -1.65 0.70 -1.75 1.70 -0.20 1.70 0.65 1.90 8.25 1.90 6.10 0 6.15 0 6.45 -1.20 0.35 -1.55 -0.05 -2.30 -1.35 -2.30 -0.55 0 -1.55 -0.55 -2.20 -1.25 -1.05 -1 -1.25 -1.70 -1.25 -4 0 -3 0.50 -3.60 2.65 -3.10 1.85 0.50 2.90 1.55 3.30 3.35 0.30 1.50 0.55 1.75 1.80 1.75 l1.50 0 0.30 -6.75 c0.15 -3.70 0.15 -7.05 0.05 -7.35 -0.10 -0.35 -0.85 -0.65 -1.60 -0.65 -1.15 0 -1.50 0.30 -2 1.70 -0.75 2.40 -2.05 3.40 -4.10 3.20 l-1.65 -0.15 0 -3.25 0 -3.25 5.65 -0.15 5.60 -0.15 0 9.50 c0 8.15 0.10 9.50 0.80 9.75 0.45 0.15 7.40 0.30 15.45 0.30 l14.65 0 0.35 -9.50 0.40 -9.50 13.55 0.10 13.55 0.15 0.15 20.25 c0.05 11.15 0 20.75 -0.15 21.40 -0.25 1.05 -0.45 1.10 -6.45 1.10 -5.20 0 -6.25 0.15 -6.50 0.80 -0.15 0.45 -0.30 3.45 -0.30 6.70 l0 5.95 -3.10 0.15 -3.05 0.15 -1.95 6.15 c-1.05 3.35 -2.15 6.10 -2.35 6.10 -0.25 0 -1.45 -1.40 -2.70 -3.10 -4.65 -6.50 -8.05 -8.55 -8.90 -5.40 -0.20 0.70 -0.35 4.75 -0.40 9.05 -0.05 6.65 -0.15 7.90 -0.85 8.15 -0.45 0.15 -0.80 0.25 -0.85 0.20 -0.05 -0.05 -2.80 -0.20 -6.10 -0.40z"/>
  <path d="M5.85 10.10 c-0.50 -0.50 -0.85 -1.40 -0.85 -2 0 -1.40 1.70 -3.10 3 -3.10 1.35 0 3 1.75 3 3.15 0 2.50 -3.50 3.80 -5.15 1.95z"/>
 </g>
</svg>
