<?xml version="1.0" encoding="utf-8"?>
<!DOCTYPE svg PUBLIC "-//W3C//DTD SVG 1.0//EN" "http://www.w3.org/TR/2001/REC-SVG-20010904/DTD/svg10.dtd">
<svg version="1.0" xmlns="http://www.w3.org/2000/svg" width="137px" height="150px" viewBox="0 0 137 150" preserveAspectRatio="xMidYMid meet">
 <g fill="#000000">
  <path d="M56.75 136.75 c-5.50 -6.70 -10.25 -12.35 -10.60 -12.45 -0.35 -0.15 -6.60 -0.30 -13.85 -0.30 l-13.25 -0.10 -1.80 1.40 c-2.15 1.60 -5.10 1.80 -7.60 0.50 -2.40 -1.20 -3.20 -3.20 -3.15 -7.45 0.10 -6.15 -0.30 -9.15 -1.45 -10.30 -1.35 -1.35 -1.35 -3.75 -0.05 -6.30 1.25 -2.45 1.25 -2.45 -0.25 -3.95 -1.55 -1.55 -1.60 -3.40 -0.20 -5.35 l1.05 -1.45 -1.55 -1.80 c-1.90 -2.10 -2.10 -4.85 -0.55 -6.85 1.35 -1.70 1.30 -1.85 -0.75 -3.50 -2.25 -1.80 -2.35 -3.70 -0.25 -6.35 1.75 -2.20 1.85 -2.80 0.55 -3.45 -1.45 -0.80 -1.55 -1.70 -0.65 -4.60 0.85 -2.55 0.80 -2.60 -0.30 -3.35 -1.35 -0.90 -1.40 -2 -0.05 -5.10 0.95 -2.25 1 -2.50 0.25 -3.60 -1.05 -1.50 -1 -2.65 0.30 -4.95 l1.05 -1.95 -1.30 -1.20 c-1.70 -1.60 -1.70 -2.15 0.20 -4.70 l1.55 -2.10 -1.05 -1.30 c-1.15 -1.50 -1.30 -2.75 -0.50 -4.25 0.40 -0.80 0.35 -1.25 -0.25 -1.90 -1.90 -2.10 -0.35 -6.60 3.35 -9.85 1.90 -1.65 2.25 -2.30 2.45 -4.35 0.60 -5.20 5.85 -7.35 10.75 -4.35 1.20 0.70 1.75 1.55 2.20 3.15 l0.55 2.20 7.05 0.30 c3.90 0.20 14.10 0.35 22.65 0.35 13.90 0 15.65 -0.10 15.90 -0.80 0.15 -0.45 0.15 -3 0 -5.65 -0.35 -5.35 -0.90 -6.35 -3.50 -6.85 -1.45 -0.25 -1.70 -0.50 -1.70 -1.75 l0 -1.50 7.15 0.15 c7.05 0.15 7.10 0.15 7.25 1.35 0.20 1.30 -0.60 2.05 -2.25 2.05 -2.05 0 -2.95 2 -3.30 7.35 -0.20 3.50 -0.10 5.05 0.30 5.45 0.40 0.40 7.30 0.70 22.85 0.95 l22.25 0.35 0.90 -2.50 c0.70 -2.10 1.20 -2.70 3 -3.55 2.65 -1.30 3.50 -1.30 6.20 -0.10 2.35 1.10 3.65 3.10 3.65 5.70 0 1.20 0.40 2.05 1.55 3.15 3.90 3.65 5.60 8.60 3.70 10.70 -0.65 0.75 -0.70 1.10 -0.15 2.25 0.50 1.15 0.45 1.65 -0.55 3.55 l-1.15 2.15 1.30 1.55 c1.70 2.05 1.65 3.65 -0.05 4.90 l-1.40 1 1.15 2 c1.30 2.35 1.35 3.25 0.25 5.10 -0.75 1.30 -0.75 1.55 0 3.45 1.20 2.95 1.10 4.85 -0.20 5.20 -0.90 0.25 -1 0.55 -0.75 1.70 0.95 4.20 0.95 5.05 -0.15 5.75 -1.40 0.85 -1.30 1.75 0.45 4.10 2.05 2.70 1.90 3.85 -0.55 5.95 l-2 1.75 1 1.65 c1.70 2.75 1.25 5.55 -1.15 7.55 -1 0.80 -1.05 0.90 -0.15 2.40 1.25 2.25 1.10 4.30 -0.45 5.85 -1.30 1.30 -1.30 1.30 -0.45 3.20 1.25 2.75 1.20 5.65 -0.10 7.05 -1.20 1.35 -1.75 4.45 -1.70 9.90 0.10 4.40 -0.85 6.35 -3.60 7.65 -2.85 1.35 -4.60 1 -8.45 -1.75 -1 -0.75 -2.80 -0.85 -14.15 -0.90 -7.15 -0.05 -13.25 -0.05 -13.60 -0.05 -0.30 0.05 -5.20 5.45 -10.90 12.05 -5.70 6.60 -10.50 12 -10.70 12 -0.20 0 -4.85 -5.50 -10.30 -12.25z m8.75 -4.25 l0 -8 -6.80 0 c-5.25 0 -6.70 0.15 -6.40 0.65 1 1.65 12.40 15.35 12.75 15.35 0.25 0 0.45 -3.60 0.45 -8z m7.80 3.90 c1.90 -2.25 4.75 -5.55 6.35 -7.35 1.55 -1.80 2.85 -3.55 2.85 -3.90 0 -0.55 -1.40 -0.65 -6.60 -0.55 l-6.65 0.15 -0.15 7.90 c-0.05 4.30 0.05 7.85 0.30 7.85 0.25 0 2 -1.85 3.90 -4.10z m50.70 -12.40 c1 -1 1.30 -3.25 0.60 -4.30 -1.70 -2.60 -6.10 -1.25 -6.10 1.90 0 1.75 1.60 3.40 3.25 3.40 0.70 0 1.70 -0.45 2.25 -1z m-108.75 -1.75 c0.70 -0.65 1.25 -1.65 1.25 -2.25 0 -1.25 -2.10 -3.50 -3.25 -3.50 -3.50 0 -4.80 5.20 -1.65 6.50 1.80 0.70 2.35 0.60 3.65 -0.75z m99.25 -1.15 c0 -0.60 -43.50 -45.60 -44 -45.60 -0.65 0 -1.05 7.70 -0.90 16.25 l0.15 8 3.20 0.15 c1.75 0.10 3.85 -0.10 4.65 -0.45 2.10 -0.85 4.25 -3.60 4.65 -5.95 0.55 -3.30 1.50 -2.15 1.65 2.05 0.15 5.45 -0.55 16.45 -1.15 16.60 -0.25 0.05 -0.65 -0.85 -0.85 -2.05 -0.75 -4.50 -3.65 -6.60 -9.10 -6.60 l-3.30 0 0 3.25 c0 5 1.45 7.20 5.50 8.25 5.40 1.45 3.75 1.75 -7.70 1.60 -7.75 -0.10 -9.80 -0.30 -9.80 -0.80 0 -0.40 0.85 -0.80 2.10 -0.95 4.15 -0.55 6.50 -3.70 6.30 -8.35 l-0.15 -2.75 -3.50 -0.15 c-2.60 -0.15 -3.90 0.05 -5.15 0.70 -1.55 0.85 -3.60 3.45 -3.60 4.60 0 0.30 -0.25 1.15 -0.50 1.90 -0.40 1 -0.70 1.20 -1.10 0.80 -0.75 -0.75 0 -20.70 0.80 -20.45 0.30 0.10 0.60 0.70 0.70 1.40 0.25 2.35 1.65 4.70 3.45 5.95 1.50 1.05 2.40 1.25 5.35 1.25 l3.55 0 0.35 -11.75 c0.25 -7.20 0.20 -11.90 -0.10 -12.20 -0.30 -0.30 -5.75 4.70 -14.80 13.50 -7.85 7.65 -18.05 17.60 -22.60 22 -4.60 4.45 -8.20 8.25 -7.95 8.50 0.30 0.30 13.10 0.60 61.60 1.30 27 0.45 32.25 0.40 32.25 0z m3.50 -5.20 c1.45 -1.05 2.45 -1.15 7.25 -0.75 1.50 0.10 1.50 0.10 1.50 -2.40 -0.05 -1.35 -0.25 -2.90 -0.45 -3.35 -0.35 -0.75 -0.15 -0.90 0.90 -0.90 1.50 0 2.50 -1.55 2.10 -3.20 -0.15 -0.65 -1.20 -2.15 -2.30 -3.40 -1.10 -1.30 -2 -2.45 -2 -2.60 0 -0.15 0.90 -0.30 1.95 -0.30 2.10 0 3.55 -1 3.55 -2.45 0 -0.45 -0.90 -1.80 -2 -2.95 -2.60 -2.70 -2.65 -4 -0.20 -4.20 3.15 -0.25 3.20 -1.30 0.55 -5.65 -3.05 -5 -3.05 -5.25 -0.05 -4.15 1.35 0.45 1.85 0.45 2.90 -0.30 0.80 -0.50 1.30 -1.30 1.30 -2 0 -1.15 -2.10 -4.45 -3.65 -5.75 -0.45 -0.35 -0.85 -1.25 -0.85 -1.90 0 -1 0.20 -1.20 0.90 -0.90 0.45 0.20 1.30 0.40 1.85 0.45 1.50 0.10 1.25 -3.15 -0.45 -5.70 -0.70 -1.10 -1.30 -2.10 -1.30 -2.20 0 -0.10 1.05 -0.20 2.40 -0.15 2.05 0.10 2.35 -0.05 2.50 -0.95 0.10 -0.70 -0.65 -2 -2.10 -3.70 -2.65 -3.10 -2.85 -3.70 -1 -3 1.45 0.55 2.70 -0.05 2.70 -1.30 0 -0.35 -1 -1.90 -2.25 -3.40 -1.25 -1.55 -2.25 -2.90 -2.25 -3.05 0 -0.15 0.65 -0.25 1.45 -0.25 1.80 0 3.05 -1.15 2.70 -2.50 -0.15 -0.50 -1.25 -1.80 -2.45 -2.75 -1.20 -1 -2.20 -2.05 -2.20 -2.30 0 -0.25 0.90 -0.45 1.95 -0.45 2 0 2.80 -0.80 2.25 -2.20 -0.15 -0.35 -1.25 -1.40 -2.50 -2.25 -1.20 -0.90 -2.20 -1.80 -2.20 -2.10 0 -0.25 0.75 -0.45 1.70 -0.45 0.90 0 1.95 -0.35 2.35 -0.80 0.85 -1.05 -0.45 -3.50 -2.75 -5.10 -1.55 -1.05 -1.70 -1.05 -3.25 -0.30 -1.10 0.55 -2.30 0.70 -3.95 0.50 -1.30 -0.15 -2.80 -0.35 -3.40 -0.45 -0.75 -0.05 -6.85 5.55 -23.35 21.55 -12.30 11.95 -22.35 21.85 -22.35 22.05 0 0.20 5.55 0.55 12.35 0.75 9.85 0.30 12.40 0.20 12.70 -0.30 0.25 -0.35 0.45 -1.80 0.45 -3.20 0 -3 -1.35 -5.20 -3.25 -5.20 -1.20 0 -2.10 -1.35 -1.35 -2.10 0.25 -0.25 3.25 -0.35 6.65 -0.30 5.75 0.15 6.20 0.20 6.20 1.10 0 0.70 -0.50 1.10 -1.60 1.40 -2.40 0.60 -3.25 2.25 -3.05 5.75 l0.15 2.90 3.60 0.15 3.55 0.15 1.20 -2.10 c4.95 -8.90 18.45 -1.50 13.80 7.55 -3 5.90 -11.40 5.70 -14.25 -0.30 l-0.85 -1.70 -3.65 0 -3.65 0 0 3.40 c0 3.70 0.35 4.30 3.15 5.50 0.95 0.40 1.35 0.90 1.25 1.50 -0.15 0.75 -0.85 0.85 -6.40 0.85 -6 0 -6.25 -0.05 -6.40 -1.10 -0.10 -0.80 0.20 -1.20 1.65 -1.65 2.25 -0.75 2.75 -1.75 2.75 -5.40 l0 -2.95 -4.60 -0.35 c-7 -0.50 -20.40 -0.35 -20.40 0.20 0 0.25 7.15 7.85 15.90 16.85 8.75 9 18.35 18.95 21.30 22.05 3 3.05 5.50 5.60 5.65 5.60 0.10 0 0.85 -0.50 1.65 -1.10z m-87.40 -11.75 c6.40 -6.30 16.35 -15.95 22.10 -21.55 5.75 -5.55 10.30 -10.25 10.15 -10.40 -0.10 -0.15 -5.85 -0.30 -12.65 -0.35 l-12.45 -0.10 -0.15 2.45 c-0.20 3.20 0.60 5.05 2.55 5.85 1.85 0.75 2.35 1.35 2 2.30 -0.20 0.55 -1.60 0.65 -6.60 0.55 -6.10 -0.15 -6.30 -0.20 -6.45 -1.30 -0.15 -0.90 0.10 -1.15 1.35 -1.40 2.45 -0.50 3.30 -1.85 3.30 -5.35 l0 -3.10 -3.60 -0.15 -3.60 -0.15 -1.30 2.05 c-1.40 2.20 -4.40 3.95 -6.75 4 -1.80 0 -5.50 -2 -6.70 -3.60 -0.55 -0.80 -1.05 -2.45 -1.20 -4 -0.15 -2.20 0 -2.95 1 -4.40 3.80 -5.55 10.15 -5.40 14.05 0.40 l1.45 2.15 3.30 -0.15 3.35 -0.15 0.15 -3.10 c0.20 -3.75 -0.40 -5 -2.55 -5.55 -1.10 -0.30 -1.65 -0.75 -1.75 -1.50 -0.15 -1.10 -0.05 -1.10 6.35 -1.10 l6.55 0 0 1.25 c0 1 -0.25 1.25 -1.25 1.25 -2.50 0 -4.05 3 -3.65 7.05 l0.15 1.70 12.25 0.35 c7.20 0.20 12.45 0.15 12.70 -0.10 0.30 -0.30 -2.55 -3.55 -7.25 -8.35 -4.25 -4.35 -14.10 -14.50 -21.95 -22.55 -11.60 -11.95 -14.40 -14.60 -15.25 -14.35 -2.80 0.85 -4.85 0.85 -6.75 0 -1.95 -0.90 -2 -0.90 -3.75 0.30 -2.10 1.45 -3.45 3.85 -2.65 4.80 0.30 0.35 1.15 0.65 1.95 0.65 0.75 0 1.50 0.20 1.65 0.45 0.30 0.45 -1.40 2.15 -3.05 3 -2.50 1.30 -1.55 4.40 1.20 3.75 1.85 -0.50 1.40 1 -0.85 2.80 -3.30 2.60 -3.20 4.95 0.15 5 0.75 0 1.35 0.20 1.35 0.50 0 0.25 -1 1.60 -2.25 3 -1.25 1.40 -2.25 2.85 -2.25 3.20 0 1.15 1.30 1.85 2.80 1.50 l1.40 -0.35 -1.05 1.45 c-0.60 0.80 -1.55 1.90 -2.15 2.45 -2.75 2.50 -2.45 4.25 0.80 4.25 1.20 0 2.20 0.10 2.20 0.25 0 0.10 -0.55 1.05 -1.25 2.05 -1.45 2.15 -2 3.85 -1.55 4.95 0.20 0.60 0.70 0.70 2.05 0.45 1.50 -0.25 1.75 -0.20 1.75 0.65 0 0.55 -0.70 1.60 -1.55 2.45 -0.85 0.80 -1.95 2.20 -2.50 3.05 -1.80 2.90 -0.05 5.05 3.60 4.45 2.30 -0.35 2.45 0.15 0.80 2.40 -3.95 5.25 -4.15 7.10 -0.80 7.60 2.55 0.40 2.50 1.20 -0.30 4.10 -2.45 2.50 -2.50 2.70 -1.75 4.15 0.40 0.70 1.05 0.95 2.50 0.95 1.05 0 2.10 0.25 2.25 0.55 0.20 0.25 -0.70 1.60 -2 3 -1.90 2.05 -2.30 2.75 -2.15 4.10 0.15 1.35 0.40 1.65 1.55 1.75 1.25 0.15 1.40 0.35 1.10 1.25 -0.60 1.85 -0.80 5.05 -0.35 5.75 0.40 0.55 0.85 0.55 2.55 0.05 2.30 -0.70 5.40 -0.05 6.55 1.30 0.35 0.40 0.80 0.75 1.05 0.75 0.20 0 5.65 -5.10 12.05 -11.35z m89.10 -29.35 c3.05 -1.30 3.50 -5.55 0.70 -7.50 -1.75 -1.25 -3.80 -1 -5.45 0.65 -2.35 2.35 -1.80 5.50 1.20 6.80 2 0.90 1.60 0.85 3.55 0.05z m-99.75 -1.35 c3.15 -1.10 3.85 -5.35 1.20 -7.45 -1.85 -1.45 -3.95 -1.30 -5.70 0.45 -2.75 2.80 -1.65 5.80 2.85 7.55 0.05 0 0.75 -0.25 1.65 -0.55z m71.30 -28.25 c12.40 -11.95 22.55 -22.05 22.65 -22.40 0.10 -0.55 -4 -0.75 -21.15 -1.05 -12.20 -0.20 -21.55 -0.15 -21.80 0.10 -0.20 0.20 -0.45 5.35 -0.45 11.40 -0.05 10.10 0 11.05 0.85 11.50 6.10 3.40 6.45 11.30 0.65 14.25 -2.55 1.30 -4.25 1.25 -7 -0.10 -2.65 -1.35 -4.15 -3.70 -4.20 -6.60 -0.05 -2.80 1.05 -4.75 3.85 -6.80 l2.35 -1.75 0 -11.05 0 -11.05 -8.35 -0.30 c-11.50 -0.45 -35.15 -0.45 -35.15 0.05 0 0.20 1.60 1.95 3.55 3.85 1.95 1.95 11.85 12.10 22.05 22.65 10.20 10.50 18.80 19.10 19.10 19.10 0.30 0 10.70 -9.80 23.05 -21.80z m-19.95 10.10 c3.50 -2.95 0.05 -8.75 -4.30 -7.25 -3.10 1.10 -3.80 5.35 -1.15 7.45 1.70 1.35 3.80 1.25 5.45 -0.20z m54.45 -34.55 c1.50 -1.50 1.55 -2.70 0.20 -4.45 -1.95 -2.50 -5.95 -1.10 -5.95 2.15 0 1 0.45 1.80 1.30 2.50 1.75 1.35 2.95 1.30 4.45 -0.20z m-108.60 -1.85 c1.05 -1.25 1.10 -2.85 0.05 -4.30 -1.55 -2.25 -6.20 -0.80 -6.20 1.95 0 3.45 3.85 4.95 6.15 2.35z"/>
  <path d="M91.65 119.95 c-5.15 -1.50 -6.95 -8.80 -3.10 -12.75 3.75 -3.85 9.85 -3.20 12.40 1.30 2.20 3.95 0.70 9.10 -3.20 11 -2.20 1.05 -3.60 1.20 -6.10 0.45z m5.30 -4.25 c2.10 -1.75 2.15 -4.20 0.10 -6.25 -1.55 -1.55 -2.95 -1.80 -4.70 -0.85 -1.65 0.85 -2.30 1.95 -2.35 3.95 0 3.95 3.90 5.75 6.95 3.15z"/>
  <path d="M36.90 118.45 c-5.10 -2.70 -5.05 -10.80 0.10 -13.45 6.40 -3.25 13.20 1.95 11.45 8.75 -1.30 5 -6.80 7.25 -11.55 4.70z m7.10 -3.70 c3.40 -3.65 -1.05 -9.15 -5.45 -6.75 -1.25 0.65 -2.25 3.20 -1.85 4.75 0.85 3.30 5 4.45 7.30 2z"/>
 </g>
 <g fill="none">
  <path d="M0 75 l0 -75 68.50 0 68.50 0 0 75 0 75 -68.50 0 -68.50 0 0 -75z m77.75 62 c5.70 -6.60 10.60 -12 10.90 -12.05 0.35 0 6.45 0 13.60 0.05 11.35 0.05 13.15 0.15 14.15 0.90 3.85 2.75 5.60 3.10 8.45 1.75 2.75 -1.30 3.70 -3.25 3.60 -7.65 -0.05 -5.45 0.50 -8.55 1.70 -9.90 1.30 -1.40 1.35 -4.30 0.10 -7.05 -0.85 -1.90 -0.85 -1.90 0.45 -3.20 1.55 -1.55 1.70 -3.60 0.45 -5.85 -0.90 -1.50 -0.85 -1.60 0.15 -2.40 2.40 -2 2.85 -4.80 1.15 -7.55 l-1 -1.65 2 -1.75 c2.45 -2.10 2.60 -3.25 0.55 -5.95 -1.75 -2.35 -1.85 -3.25 -0.45 -4.10 1.10 -0.70 1.10 -1.55 0.15 -5.75 -0.25 -1.15 -0.15 -1.45 0.75 -1.70 1.30 -0.35 1.40 -2.25 0.20 -5.20 -0.75 -1.90 -0.75 -2.15 0 -3.45 1.10 -1.85 1.05 -2.75 -0.25 -5.10 l-1.15 -2 1.40 -1 c1.70 -1.25 1.75 -2.85 0.05 -4.90 l-1.30 -1.55 1.15 -2.15 c1 -1.90 1.05 -2.40 0.55 -3.55 -0.55 -1.15 -0.50 -1.50 0.15 -2.25 1.90 -2.10 0.20 -7.05 -3.70 -10.70 -1.15 -1.10 -1.55 -1.95 -1.55 -3.15 0 -2.60 -1.30 -4.60 -3.65 -5.70 -2.70 -1.20 -3.55 -1.20 -6.20 0.10 -1.80 0.85 -2.30 1.45 -3 3.55 l-0.90 2.50 -22.25 -0.35 c-15.55 -0.25 -22.45 -0.55 -22.85 -0.95 -0.40 -0.40 -0.50 -1.95 -0.30 -5.45 0.35 -5.35 1.25 -7.35 3.30 -7.35 1.65 0 2.45 -0.75 2.25 -2.05 -0.15 -1.20 -0.20 -1.20 -7.25 -1.35 l-7.15 -0.15 0 1.50 c0 1.25 0.25 1.50 1.70 1.75 2.60 0.50 3.15 1.50 3.50 6.85 0.15 2.65 0.15 5.20 0 5.65 -0.25 0.70 -2 0.80 -15.90 0.80 -8.55 0 -18.75 -0.15 -22.65 -0.35 l-7.05 -0.30 -0.55 -2.20 c-0.45 -1.60 -1 -2.45 -2.20 -3.15 -4.90 -3 -10.15 -0.85 -10.75 4.35 -0.20 2.05 -0.55 2.70 -2.45 4.35 -3.70 3.25 -5.25 7.75 -3.35 9.85 0.60 0.65 0.65 1.10 0.25 1.90 -0.80 1.50 -0.65 2.75 0.50 4.25 l1.05 1.30 -1.55 2.10 c-1.90 2.55 -1.90 3.10 -0.20 4.70 l1.30 1.20 -1.05 1.95 c-1.30 2.30 -1.35 3.45 -0.30 4.95 0.75 1.10 0.70 1.35 -0.25 3.60 -1.35 3.10 -1.30 4.20 0.05 5.10 1.10 0.75 1.15 0.80 0.30 3.35 -0.90 2.90 -0.80 3.80 0.65 4.60 1.30 0.65 1.20 1.25 -0.55 3.45 -2.10 2.65 -2 4.55 0.25 6.35 2.05 1.65 2.10 1.80 0.75 3.50 -1.55 2 -1.35 4.75 0.55 6.85 l1.55 1.80 -1.05 1.45 c-1.40 1.95 -1.35 3.80 0.20 5.35 1.50 1.50 1.50 1.50 0.25 3.95 -1.30 2.55 -1.30 4.95 0.05 6.30 1.15 1.15 1.55 4.15 1.45 10.30 -0.05 4.25 0.75 6.25 3.15 7.45 2.50 1.30 5.45 1.10 7.60 -0.50 l1.80 -1.40 13.25 0.10 c7.25 0 13.50 0.15 13.85 0.30 0.35 0.10 5.10 5.75 10.60 12.45 5.45 6.75 10.10 12.25 10.30 12.25 0.20 0 5 -5.40 10.70 -12z"/>
  <path d="M58.65 133.15 c-3.25 -4.10 -6.15 -7.70 -6.35 -8 -0.30 -0.50 1.15 -0.65 6.40 -0.65 l6.80 0 0 8 c0 4.40 -0.20 8 -0.45 8 -0.20 0 -3.10 -3.30 -6.40 -7.35z"/>
  <path d="M69.10 132.65 l0.15 -7.90 6.65 -0.15 c5.20 -0.10 6.60 0 6.60 0.55 0 0.35 -1.30 2.10 -2.85 3.90 -1.60 1.80 -4.45 5.10 -6.35 7.35 -1.90 2.25 -3.65 4.10 -3.90 4.10 -0.25 0 -0.35 -3.55 -0.30 -7.85z"/>
  <path d="M119.50 124 c-1.85 -1.85 -1.05 -4.70 1.65 -5.65 0.95 -0.35 2.80 0.40 3.45 1.35 1.30 1.95 -0.50 5.30 -2.85 5.30 -0.70 0 -1.70 -0.45 -2.25 -1z"/>
  <path d="M11.60 123 c-3.15 -1.30 -1.85 -6.50 1.65 -6.50 1.15 0 3.25 2.25 3.25 3.50 0 1.15 -2.10 3.50 -3.10 3.45 -0.35 0 -1.15 -0.20 -1.80 -0.45z"/>
  <path d="M82.25 121.10 c-48.50 -0.70 -61.30 -1 -61.60 -1.30 -0.25 -0.25 3.35 -4.05 7.95 -8.50 4.55 -4.40 14.75 -14.35 22.60 -22 9.05 -8.80 14.50 -13.80 14.80 -13.50 0.30 0.30 0.35 5 0.10 12.20 l-0.35 11.75 -3.55 0 c-2.95 0 -3.85 -0.20 -5.35 -1.25 -1.80 -1.25 -3.20 -3.60 -3.45 -5.95 -0.10 -0.70 -0.40 -1.30 -0.70 -1.40 -0.80 -0.25 -1.55 19.70 -0.80 20.45 0.40 0.40 0.70 0.20 1.10 -0.80 0.25 -0.75 0.50 -1.60 0.50 -1.90 0 -1.15 2.05 -3.75 3.60 -4.60 1.25 -0.65 2.55 -0.85 5.15 -0.70 l3.50 0.15 0.15 2.75 c0.20 4.65 -2.15 7.80 -6.30 8.35 -1.25 0.15 -2.10 0.55 -2.10 0.95 0 0.50 2.05 0.70 9.80 0.80 11.45 0.15 13.10 -0.15 7.70 -1.60 -4.05 -1.05 -5.50 -3.25 -5.50 -8.25 l0 -3.25 3.30 0 c5.45 0 8.35 2.10 9.10 6.60 0.20 1.20 0.60 2.10 0.85 2.05 0.60 -0.15 1.30 -11.15 1.15 -16.60 -0.15 -4.20 -1.10 -5.35 -1.65 -2.05 -0.40 2.35 -2.55 5.10 -4.65 5.95 -0.80 0.35 -2.90 0.55 -4.65 0.45 l-3.20 -0.15 -0.15 -8 c-0.15 -8.55 0.25 -16.25 0.90 -16.25 0.50 0 44 45 44 45.60 0 0.40 -5.25 0.45 -32.25 0z m15.50 -1.60 c3.90 -1.90 5.40 -7.05 3.20 -11 -2.55 -4.50 -8.65 -5.15 -12.40 -1.30 -2.75 2.85 -2.75 8 0 10.75 2.55 2.60 5.95 3.15 9.20 1.55z m-53.35 -0.70 c5.75 -3 5.75 -11.10 0 -14.10 -3.40 -1.80 -8.65 -0.15 -10.40 3.30 -2.75 5.45 0.80 11.40 6.90 11.50 1.20 0 2.75 -0.30 3.50 -0.70z"/>
  <path d="M92.25 116.40 c-1.60 -0.85 -2.25 -1.95 -2.25 -3.85 0.05 -2.65 1.95 -4.55 4.50 -4.55 1.75 0 4 2.65 4 4.65 0 3.10 -3.60 5.25 -6.25 3.75z"/>
  <path d="M38 115 c-1.35 -1.35 -1.75 -3.25 -1 -5.05 1.75 -4.20 8.20 -2.80 8.20 1.80 0 3.65 -4.70 5.75 -7.20 3.25z"/>
  <path d="M110.70 111.40 c-2.95 -3.10 -12.55 -13.05 -21.30 -22.05 -8.75 -9 -15.90 -16.60 -15.90 -16.85 0 -0.55 13.40 -0.70 20.40 -0.20 l4.60 0.35 0 2.95 c0 3.65 -0.50 4.65 -2.75 5.40 -1.45 0.45 -1.75 0.85 -1.65 1.65 0.15 1.05 0.40 1.10 6.40 1.10 5.55 0 6.25 -0.10 6.40 -0.85 0.10 -0.60 -0.30 -1.10 -1.25 -1.50 -2.80 -1.20 -3.15 -1.80 -3.15 -5.50 l0 -3.40 3.65 0 3.65 0 0.85 1.70 c2.85 6 11.25 6.20 14.25 0.30 4.65 -9.05 -8.85 -16.45 -13.80 -7.55 l-1.20 2.10 -3.55 -0.15 -3.60 -0.15 -0.15 -2.90 c-0.20 -3.50 0.65 -5.15 3.05 -5.75 1.10 -0.30 1.60 -0.70 1.60 -1.40 0 -0.90 -0.45 -0.95 -6.20 -1.10 -3.40 -0.05 -6.40 0.05 -6.65 0.30 -0.75 0.75 0.15 2.10 1.35 2.10 1.90 0 3.25 2.20 3.25 5.20 0 1.40 -0.20 2.85 -0.45 3.20 -0.30 0.50 -2.85 0.60 -12.70 0.30 -6.80 -0.20 -12.35 -0.55 -12.35 -0.75 0 -0.20 10.05 -10.10 22.35 -22.05 16.50 -16 22.60 -21.60 23.35 -21.55 0.60 0.10 2.10 0.30 3.40 0.45 1.65 0.20 2.85 0.05 3.95 -0.50 1.55 -0.75 1.70 -0.75 3.25 0.30 2.30 1.60 3.60 4.05 2.75 5.10 -0.40 0.45 -1.45 0.80 -2.35 0.80 -0.95 0 -1.70 0.20 -1.70 0.45 0 0.30 1 1.20 2.20 2.10 1.25 0.85 2.35 1.90 2.50 2.25 0.55 1.40 -0.25 2.20 -2.25 2.20 -1.05 0 -1.95 0.20 -1.95 0.45 0 0.25 1 1.30 2.20 2.30 1.20 0.95 2.30 2.25 2.45 2.75 0.35 1.35 -0.90 2.50 -2.70 2.50 -0.80 0 -1.45 0.10 -1.45 0.25 0 0.15 1 1.50 2.25 3.05 1.25 1.50 2.25 3.05 2.25 3.40 0 1.25 -1.25 1.85 -2.70 1.30 -1.85 -0.70 -1.65 -0.10 1 3 1.45 1.70 2.20 3 2.10 3.70 -0.15 0.90 -0.45 1.05 -2.50 0.95 -1.35 -0.05 -2.40 0.05 -2.40 0.15 0 0.10 0.60 1.10 1.30 2.20 1.70 2.55 1.95 5.80 0.45 5.70 -0.55 -0.05 -1.40 -0.25 -1.85 -0.45 -0.70 -0.30 -0.90 -0.10 -0.90 0.90 0 0.65 0.40 1.55 0.85 1.90 1.55 1.30 3.65 4.60 3.65 5.75 0 0.70 -0.50 1.50 -1.30 2 -1.05 0.75 -1.55 0.75 -2.90 0.30 -3 -1.10 -3 -0.85 0.05 4.15 2.65 4.35 2.60 5.40 -0.55 5.65 -2.45 0.20 -2.40 1.50 0.20 4.20 1.10 1.15 2 2.50 2 2.95 0 1.45 -1.45 2.45 -3.55 2.45 -1.05 0 -1.95 0.15 -1.95 0.30 0 0.15 0.90 1.30 2 2.60 1.10 1.25 2.15 2.75 2.30 3.40 0.40 1.65 -0.60 3.20 -2.10 3.20 -1.05 0 -1.25 0.15 -0.90 0.90 0.20 0.45 0.40 2 0.45 3.35 0 2.50 0 2.50 -1.50 2.40 -4.80 -0.40 -5.80 -0.30 -7.25 0.75 -0.80 0.60 -1.55 1.10 -1.65 1.10 -0.15 0 -2.65 -2.55 -5.65 -5.60z"/>
  <path d="M17.50 114.75 c-1.15 -1.35 -4.25 -2 -6.55 -1.30 -1.70 0.50 -2.15 0.50 -2.55 -0.05 -0.45 -0.70 -0.25 -3.90 0.35 -5.75 0.30 -0.90 0.15 -1.10 -1.10 -1.25 -1.15 -0.10 -1.40 -0.40 -1.55 -1.75 -0.15 -1.35 0.25 -2.05 2.15 -4.10 1.30 -1.40 2.20 -2.75 2 -3 -0.15 -0.30 -1.20 -0.55 -2.25 -0.55 -1.45 0 -2.10 -0.25 -2.50 -0.95 -0.75 -1.45 -0.70 -1.65 1.75 -4.15 2.80 -2.90 2.85 -3.70 0.30 -4.10 -3.35 -0.50 -3.15 -2.35 0.80 -7.60 1.65 -2.25 1.50 -2.75 -0.80 -2.40 -3.65 0.60 -5.40 -1.55 -3.60 -4.45 0.55 -0.85 1.65 -2.25 2.50 -3.05 0.85 -0.85 1.55 -1.90 1.55 -2.45 0 -0.85 -0.25 -0.90 -1.75 -0.65 -1.35 0.25 -1.85 0.15 -2.05 -0.45 -0.45 -1.10 0.10 -2.80 1.55 -4.95 0.70 -1 1.25 -1.95 1.25 -2.05 0 -0.15 -1 -0.25 -2.20 -0.25 -3.25 0 -3.55 -1.75 -0.80 -4.25 0.60 -0.55 1.55 -1.65 2.15 -2.45 l1.05 -1.45 -1.40 0.35 c-1.50 0.35 -2.80 -0.35 -2.80 -1.50 0 -0.35 1 -1.80 2.25 -3.20 1.25 -1.40 2.25 -2.75 2.25 -3 0 -0.30 -0.60 -0.50 -1.35 -0.50 -3.35 -0.05 -3.45 -2.40 -0.15 -5 2.25 -1.80 2.70 -3.30 0.85 -2.80 -2.75 0.65 -3.70 -2.45 -1.20 -3.75 1.65 -0.85 3.35 -2.55 3.05 -3 -0.15 -0.25 -0.90 -0.45 -1.65 -0.45 -0.80 0 -1.65 -0.30 -1.95 -0.65 -0.80 -0.95 0.55 -3.35 2.65 -4.80 1.75 -1.20 1.80 -1.20 3.75 -0.30 1.90 0.85 3.95 0.85 6.75 0 0.85 -0.25 3.65 2.40 15.25 14.35 7.85 8.05 17.70 18.20 21.95 22.55 4.70 4.80 7.55 8.05 7.25 8.35 -0.25 0.25 -5.50 0.30 -12.70 0.10 l-12.25 -0.35 -0.15 -1.70 c-0.40 -4.05 1.15 -7.05 3.65 -7.05 1 0 1.25 -0.25 1.25 -1.25 l0 -1.25 -6.55 0 c-6.40 0 -6.50 0 -6.35 1.10 0.10 0.75 0.65 1.20 1.75 1.50 2.15 0.55 2.75 1.80 2.55 5.55 l-0.15 3.10 -3.35 0.15 -3.30 0.15 -1.45 -2.15 c-3.90 -5.80 -10.25 -5.95 -14.05 -0.40 -1 1.45 -1.15 2.20 -1 4.40 0.15 1.55 0.65 3.20 1.20 4 1.20 1.60 4.90 3.60 6.70 3.60 2.35 -0.05 5.35 -1.80 6.75 -4 l1.30 -2.05 3.60 0.15 3.60 0.15 0 3.10 c0 3.50 -0.85 4.85 -3.30 5.35 -1.25 0.25 -1.50 0.50 -1.35 1.40 0.15 1.10 0.35 1.15 6.45 1.30 5 0.10 6.40 0 6.60 -0.55 0.35 -0.95 -0.15 -1.55 -2 -2.30 -1.95 -0.80 -2.75 -2.65 -2.55 -5.85 l0.15 -2.45 12.45 0.10 c6.80 0.05 12.55 0.20 12.65 0.35 0.15 0.15 -4.40 4.85 -10.15 10.40 -5.75 5.60 -15.70 15.25 -22.10 21.55 -6.40 6.25 -11.85 11.35 -12.05 11.35 -0.25 0 -0.70 -0.35 -1.05 -0.75z"/>
  <path d="M116.15 74.75 c-3 -1.30 -3.55 -4.45 -1.20 -6.80 1.65 -1.65 3.70 -1.90 5.45 -0.65 2.80 1.95 2.35 6.20 -0.70 7.50 -1.95 0.80 -1.55 0.85 -3.55 -0.05z"/>
  <path d="M16.60 73.25 c-2.85 -1.25 -3.40 -4.50 -1.15 -6.80 1.75 -1.75 3.85 -1.90 5.70 -0.45 2.65 2.10 1.95 6.35 -1.20 7.45 -0.90 0.30 -1.60 0.55 -1.65 0.55 -0.05 -0.05 -0.80 -0.35 -1.70 -0.75z"/>
  <path d="M49.10 47.90 c-10.20 -10.55 -20.10 -20.70 -22.05 -22.65 -1.95 -1.90 -3.55 -3.65 -3.55 -3.85 0 -0.50 23.65 -0.50 35.15 -0.05 l8.35 0.30 0 11.05 0 11.05 -2.35 1.75 c-2.80 2.05 -3.90 4 -3.85 6.80 0.05 2.90 1.55 5.25 4.20 6.60 2.75 1.35 4.45 1.40 7 0.10 4.70 -2.40 5.60 -8.55 1.80 -12.25 -0.85 -0.80 -2 -1.70 -2.45 -2 -0.85 -0.45 -0.90 -1.40 -0.85 -11.50 0 -6.05 0.25 -11.20 0.45 -11.40 0.25 -0.25 9.60 -0.30 21.80 -0.10 17.15 0.30 21.25 0.50 21.15 1.05 -0.20 0.85 -45 44.20 -45.70 44.20 -0.30 0 -8.90 -8.60 -19.10 -19.10z"/>
  <path d="M65.85 55.50 c-2.65 -2.10 -1.95 -6.35 1.15 -7.45 4.35 -1.50 7.80 4.30 4.30 7.25 -1.65 1.45 -3.75 1.55 -5.45 0.20z"/>
  <path d="M121.30 20.95 c-2.50 -1.95 -1.10 -5.95 2.15 -5.95 1.65 0 3.55 1.95 3.55 3.60 0 1.20 -2.20 3.40 -3.40 3.40 -0.55 0 -1.55 -0.45 -2.30 -1.05z"/>
  <path d="M13.15 20 c-1.25 -0.50 -2.15 -1.95 -2.15 -3.45 0 -2.75 4.65 -4.20 6.20 -1.95 2.05 2.90 -0.80 6.70 -4.05 5.40z"/>
 </g>
</svg>
