<?xml version="1.0" encoding="utf-8"?>
<!DOCTYPE svg PUBLIC "-//W3C//DTD SVG 1.0//EN" "http://www.w3.org/TR/2001/REC-SVG-20010904/DTD/svg10.dtd">
<svg version="1.0" xmlns="http://www.w3.org/2000/svg" width="145px" height="116px" viewBox="0 0 145 116" preserveAspectRatio="xMidYMid meet">
 <g fill="#000000">
  <path d="M27.50 115.50 c0 -0.30 -3.35 -0.50 -9 -0.50 -4.95 0 -9 -0.15 -9 -0.35 0 -0.15 2.15 -2.50 4.75 -5.20 4.75 -4.85 4.75 -4.90 4.75 -7.40 l0 -2.55 -5 0 -5 0 -3.55 4.50 c-1.95 2.50 -3.75 4.50 -4 4.50 -0.30 0 -0.40 -5.70 -0.35 -13.60 0.10 -10.55 0.30 -13.65 0.80 -13.65 0.30 0 2.45 2.80 4.75 6.25 l4.10 6.25 4.15 0.15 4.10 0.15 0 -3.90 0 -3.90 -4.75 -4.75 c-2.60 -2.60 -4.75 -5 -4.75 -5.35 0 -0.55 2.40 -0.65 11.60 -0.55 7.15 0.10 11.65 0.35 11.70 0.65 0.10 0.30 -1.70 2.85 -4.05 5.75 l-4.25 5.25 0 3.30 0 3.30 9.40 0.30 c13.20 0.50 52.05 0.55 52.45 0.15 0.20 -0.20 0.50 -4.35 0.70 -9.20 0.20 -4.85 0.50 -12.60 0.70 -17.15 l0.40 -8.35 -2 -1.30 c-3.55 -2.35 -5.15 -7.15 -3.65 -11 l0.50 -1.30 -5.05 0 c-4.60 0 -5.05 0.10 -4.70 0.85 1.75 4.25 1.40 7.40 -1.05 10.10 -4.15 4.65 -11.15 3.55 -13.75 -2.20 -1.25 -2.70 -1.20 -4.10 0.30 -7 0.65 -1.35 1.10 -2.55 1 -2.70 -0.35 -0.30 -7.75 -0.90 -8.05 -0.60 -0.10 0.10 -0.20 1.55 -0.20 3.20 0 5.55 -3.55 9.35 -8.75 9.35 -4.25 0 -7.45 -2.30 -8.75 -6.25 -0.75 -2.25 -0.25 -5.75 1 -7.40 1.60 -2 1.40 -2.35 -1.75 -3.40 -1.65 -0.50 -3.25 -0.95 -3.55 -0.95 -0.30 0 -0.70 1 -0.80 2.25 -0.45 3.75 -3.90 7.30 -7.80 8.05 -2.55 0.50 -6.05 -0.75 -8.10 -2.80 -3.90 -3.90 -3.65 -10.20 0.50 -13.65 0.80 -0.70 1.50 -1.45 1.50 -1.60 0 -0.20 -0.70 -1.05 -1.60 -1.90 -5.25 -5.30 -5.35 -14.10 -0.10 -18.10 5.55 -4.20 19.95 -8.40 33.65 -9.75 11.20 -1.10 36.10 -0.25 44 1.55 7.90 1.75 13.55 7.40 13.55 13.50 0 3.15 -2.15 7.20 -4.95 9.30 -2.05 1.60 -2.30 1.65 -6.80 1.65 -2.60 0 -4.80 0.15 -4.90 0.40 -0.15 0.20 -0.40 3.35 -0.60 7 l-0.35 6.60 2.50 0 c6.40 0 18.95 -3.20 26.50 -6.75 l4.60 -2.20 0 -3.20 c0 -4.15 1.85 -7.90 4.95 -10.10 1.85 -1.30 2.55 -1.50 5.50 -1.50 2.95 0 3.65 0.20 5.50 1.45 4.10 2.85 5.80 8.10 3.50 10.95 -1.35 1.75 -4.35 2.65 -6.40 1.95 -2.85 -1 -5.65 1.30 -2.90 2.35 0.60 0.25 2.15 0.85 3.50 1.30 2.95 1.05 8.15 4.90 9.10 6.80 2.20 4.25 -0.70 9.35 -7 12.30 -2.65 1.25 -3.60 1.40 -7.75 1.40 -4.15 0 -5.05 -0.15 -6.90 -1.25 -3.05 -1.75 -4.35 -4 -4.35 -7.80 0 -3.90 1.75 -6.80 5.05 -8.25 3.05 -1.35 5.20 -0.90 7.45 1.60 1.40 1.55 1.75 2.35 1.75 4 0 2.85 -2.10 4.95 -4.95 4.95 -2.30 0 -2.65 -0.80 -1.05 -2.25 1.35 -1.20 1.30 -3.50 -0.10 -4.45 -1.45 -1 -1.70 -1 -2.90 0.20 -1.20 1.20 -1.30 3.95 -0.25 6 0.95 1.85 4.10 3.50 6.60 3.50 2.75 0 6.95 -2.10 8.15 -4.10 2.30 -3.75 0.75 -6 -7 -10 l-5.70 -3 -6.55 3.30 c-5 2.55 -7.75 3.65 -12 4.60 -3 0.75 -6 1.50 -6.65 1.75 -1.10 0.40 -1.10 0.50 -0.35 1.90 1 1.95 0.95 5.70 -0.10 7.95 -0.50 1.05 -1.70 2.30 -3 3.05 -1.20 0.70 -2.25 1.75 -2.35 2.30 -0.35 1.65 -1.70 33.95 -1.45 34.40 0.10 0.20 3.45 0.35 7.40 0.35 l7.15 0 1.30 -2.20 c1.90 -3.25 6.35 -7.05 10.95 -9.30 11.10 -5.40 20.55 -3.10 21.25 5.20 0.20 2.30 0 3.25 -1.10 5.50 -2.55 5.25 -7.65 7.60 -15.20 7.10 -2.40 -0.15 -6.50 -0.45 -9.15 -0.60 l-4.85 -0.30 -1.10 3.35 c-1.30 3.95 -5 9 -7.50 10.35 -2.40 1.25 -7.70 1.25 -9.80 -0.05 -3.40 -2.05 -5.70 -6.75 -5.70 -11.55 l0 -2.40 -28.10 -0.35 c-15.50 -0.20 -29.25 -0.25 -30.65 -0.15 l-2.50 0.15 -0.15 3.60 -0.15 3.60 3.75 3.95 c2.90 3 3.65 4.05 3.20 4.50 -0.75 0.75 -3.40 0.80 -3.40 0.10z m71.20 -6.30 c1.35 -0.95 5.30 -6.70 5.30 -7.75 0 -0.70 -0.70 -0.90 -4.10 -1.20 -2.30 -0.20 -4.95 -0.25 -5.90 -0.15 -1.60 0.15 -1.80 0.30 -2.20 2.25 -0.35 1.65 -0.25 2.65 0.40 4.40 1.35 3.45 3.75 4.35 6.50 2.45z m33.15 -14.45 c0.65 -0.45 1.35 -1.70 1.70 -2.85 0.45 -1.75 0.40 -2.40 -0.25 -3.80 -1.70 -3.55 -6.60 -4 -12.40 -1.15 -3.30 1.65 -8.90 6.30 -8.90 7.45 0 0.40 2.25 0.60 8.15 0.75 4.45 0.05 8.65 0.20 9.35 0.25 0.70 0.05 1.75 -0.25 2.35 -0.65z m-62.40 -39.05 c2.85 -2.35 2.50 -6.85 -0.65 -8.75 -2 -1.20 -3.65 -1.20 -5.70 0.05 -1.95 1.20 -2.80 3.10 -2.40 5.45 0.65 4.15 5.55 6 8.75 3.25z m24.50 -0.50 c1.55 -1.10 2.60 -3.75 2.25 -5.70 -0.45 -2.15 -2.80 -4 -5.10 -4 -2.60 0 -4.20 0.95 -5.20 3 -1.10 2.25 -0.50 4.95 1.45 6.50 1.60 1.25 4.95 1.35 6.60 0.20z m-48.45 -1.60 c2.30 -1.25 3.65 -3.95 3.20 -6.35 -0.45 -2.60 -1.65 -3.75 -4.65 -4.55 -2.35 -0.60 -2.90 -0.60 -4.25 0.05 -2.05 0.95 -3.30 3.15 -3.30 5.60 0 2.25 1 3.85 3.20 5.20 1.95 1.20 3.60 1.20 5.80 0.05z m-23.05 -7.80 c2.95 -1.55 4 -4.95 2.55 -8.15 -2.15 -4.85 -8.80 -4.95 -11.25 -0.15 -1.40 2.75 -0.60 5.85 2.05 7.95 1.60 1.25 4.60 1.40 6.65 0.35z m59.75 -6.85 c0.15 -1.70 0.30 -4.95 0.30 -7.20 l0 -4.10 -2.60 -0.35 c-1.45 -0.15 -4.50 -0.30 -6.70 -0.30 -3.35 0 -4.15 0.15 -4.40 0.80 -0.45 1.20 0.10 2.60 2.05 5.40 1.10 1.55 1.55 2.60 1.25 2.90 -0.55 0.55 -12.30 0.35 -12.90 -0.25 -0.20 -0.20 0.80 -1.55 2.20 -3 2 -2.05 2.60 -3 2.60 -4.20 l0 -1.55 -3.45 -0.35 c-4 -0.40 -5.25 0.10 -8.30 3.20 -2.80 2.90 -3.40 2.75 -3.05 -0.80 0.15 -1.60 0.40 -5.45 0.60 -8.50 0.15 -3.10 0.45 -5.65 0.65 -5.65 0.20 0 2 1.70 4.05 3.75 l3.70 3.75 2.90 0 c3.70 0 3.75 -0.60 0.40 -5.20 -3.55 -4.85 -3.50 -5 2.10 -4.60 2.50 0.15 5.65 0.30 7 0.30 1.65 0 2.50 0.25 2.70 0.70 0.15 0.40 -0.80 2.30 -2.10 4.25 -1.35 2.05 -2.20 3.85 -2.05 4.30 0.25 0.60 1.45 0.75 7 0.75 l6.70 0 0.35 -4.60 c0.55 -8.35 0.40 -11.80 -0.55 -12.10 -3.80 -1.15 -28.90 -1.65 -37.95 -0.75 -9.60 0.95 -21.95 4.80 -26.40 8.20 -8.90 6.75 -1.60 16.30 17.30 22.50 11.75 3.85 23.25 5.55 37.95 5.70 l8.30 0.05 0.35 -3.05z m45.20 -10.55 c0.35 -0.35 0.60 -1.05 0.60 -1.65 0 -1.75 1.45 -3.35 2.90 -3.15 1.15 0.10 1.45 0.55 2.05 2.55 0.80 2.55 1.40 2.90 2.75 1.40 2.25 -2.50 -0.50 -5.80 -4.80 -5.80 -2.25 0 -2.65 0.20 -4.20 1.85 -2.10 2.35 -2.40 5.40 -0.45 5.40 0.30 0 0.80 -0.25 1.15 -0.60z m-31.95 -6.45 c3.55 -2.55 4.30 -5.80 2.05 -8.95 -1.20 -1.65 -7.90 -5.30 -8.55 -4.65 -0.25 0.25 -0.60 3.75 -0.80 7.80 l-0.30 7.35 2.75 0 c2.25 0 3.10 -0.25 4.85 -1.55z"/>
 </g>
 <g fill="none">
  <path d="M0 58 l0 -58 72.50 0 72.50 0 0 58 0 58 -57.35 0 c-43.80 0 -57.20 -0.15 -56.75 -0.60 0.45 -0.45 -0.30 -1.50 -3.20 -4.50 l-3.75 -3.95 0.15 -3.60 0.15 -3.60 2.50 -0.15 c1.40 -0.10 15.15 -0.05 30.60 0.15 l28.15 0.35 0 2.40 c0 4.80 2.30 9.50 5.70 11.55 2.10 1.30 7.40 1.30 9.80 0.05 2.50 -1.35 6.20 -6.40 7.50 -10.35 l1.10 -3.35 4.85 0.30 c2.65 0.15 6.75 0.45 9.15 0.60 7.55 0.50 12.65 -1.85 15.20 -7.10 3.05 -6.25 -0.05 -12.50 -6.70 -13.50 -7.85 -1.20 -20.20 4.95 -24.40 12.10 l-1.30 2.20 -7.15 0 c-3.95 0 -7.30 -0.15 -7.40 -0.35 -0.25 -0.45 1.10 -32.75 1.45 -34.40 0.10 -0.55 1.15 -1.60 2.35 -2.30 1.30 -0.75 2.50 -2 3 -3.05 1.05 -2.25 1.10 -6 0.10 -7.95 -0.75 -1.40 -0.75 -1.50 0.35 -1.90 0.65 -0.25 3.65 -1 6.65 -1.75 4.25 -0.95 7 -2.05 12 -4.60 l6.55 -3.30 5.70 3 c7.75 4 9.30 6.25 7 10 -1.20 2 -5.40 4.10 -8.15 4.10 -2.50 0 -5.65 -1.65 -6.60 -3.50 -1.05 -2.05 -0.95 -4.80 0.25 -6 1.20 -1.20 1.45 -1.20 2.90 -0.20 1.40 0.95 1.45 3.25 0.10 4.45 -1.60 1.45 -1.25 2.25 1.05 2.25 2.85 0 4.95 -2.10 4.95 -4.95 0 -1.65 -0.35 -2.45 -1.75 -4 -2.25 -2.50 -4.40 -2.95 -7.45 -1.60 -3.30 1.45 -5.05 4.35 -5.05 8.25 0 3.80 1.30 6.05 4.35 7.80 1.85 1.10 2.75 1.25 6.90 1.25 4.15 0 5.10 -0.15 7.75 -1.40 6.30 -2.95 9.20 -8.05 7 -12.30 -0.95 -1.90 -6.15 -5.75 -9.10 -6.80 -1.35 -0.45 -2.90 -1.05 -3.50 -1.30 -2.75 -1.05 0.05 -3.35 2.90 -2.35 2.05 0.70 5.05 -0.20 6.40 -1.95 2.30 -2.85 0.60 -8.10 -3.50 -10.95 -1.85 -1.25 -2.55 -1.45 -5.50 -1.45 -2.95 0 -3.65 0.20 -5.50 1.50 -3.10 2.20 -4.95 5.95 -4.95 10.10 l0 3.20 -4.60 2.20 c-7.55 3.55 -20.10 6.75 -26.50 6.75 l-2.50 0 0.35 -6.60 c0.20 -3.65 0.45 -6.80 0.60 -7.05 0.10 -0.20 2.30 -0.35 4.90 -0.35 4.50 0 4.75 -0.05 6.80 -1.65 2.80 -2.10 4.95 -6.15 4.95 -9.30 0 -6.10 -5.65 -11.75 -13.55 -13.50 -7.90 -1.80 -32.80 -2.65 -44 -1.55 -13.70 1.35 -28.10 5.55 -33.65 9.75 -5.25 4 -5.15 12.80 0.10 18.10 0.90 0.85 1.60 1.70 1.60 1.90 0 0.15 -0.70 0.90 -1.50 1.60 -4.15 3.45 -4.40 9.75 -0.50 13.65 2.05 2.05 5.55 3.30 8.10 2.80 3.90 -0.75 7.35 -4.30 7.80 -8.05 0.10 -1.25 0.50 -2.25 0.80 -2.25 0.30 0 1.90 0.45 3.55 0.95 3.15 1.05 3.35 1.40 1.75 3.40 -1.25 1.65 -1.75 5.15 -1 7.40 1.30 3.95 4.50 6.25 8.75 6.25 5.20 0 8.75 -3.80 8.75 -9.35 0 -1.65 0.10 -3.10 0.20 -3.20 0.30 -0.30 7.70 0.30 8.05 0.60 0.10 0.15 -0.35 1.35 -1 2.70 -1.50 2.90 -1.55 4.30 -0.30 7 2.60 5.75 9.60 6.85 13.75 2.20 2.45 -2.70 2.80 -5.85 1.05 -10.05 -0.35 -0.80 0.10 -0.90 4.70 -0.90 l5.05 0 -0.50 1.30 c-1.50 3.85 0.10 8.65 3.65 11 l2 1.30 -0.40 8.35 c-0.20 4.55 -0.50 12.30 -0.70 17.15 -0.20 4.85 -0.50 9 -0.70 9.20 -0.40 0.40 -39.25 0.35 -52.45 -0.15 l-9.40 -0.30 0 -3.30 0 -3.30 4.25 -5.25 c2.35 -2.90 4.15 -5.45 4.05 -5.75 -0.05 -0.30 -4.55 -0.55 -11.70 -0.65 -9.20 -0.10 -11.60 0 -11.60 0.55 0 0.35 2.15 2.75 4.75 5.35 l4.75 4.75 0 3.90 0 3.90 -4.10 -0.15 -4.15 -0.15 -4.10 -6.25 c-2.30 -3.45 -4.45 -6.25 -4.75 -6.25 -0.50 0 -0.70 3.10 -0.80 13.65 -0.05 7.90 0.05 13.60 0.35 13.60 0.25 0 2.05 -2 4 -4.50 l3.55 -4.50 5 0 5 0 0 2.55 c0 2.50 0 2.55 -4.75 7.40 -2.60 2.70 -4.75 5.05 -4.75 5.20 0 0.20 4.05 0.35 9 0.35 5.65 0 9 0.20 9 0.50 0 0.30 -4.90 0.50 -13.75 0.50 l-13.75 0 0 -58z"/>
  <path d="M94.40 109.75 c-1.90 -1.05 -3.15 -4.65 -2.60 -7.40 0.40 -1.95 0.60 -2.10 2.20 -2.25 0.95 -0.10 3.60 -0.05 5.90 0.15 4.95 0.40 5.05 0.70 1.95 5.20 -3.10 4.45 -5.05 5.55 -7.45 4.30z"/>
  <path d="M120.15 95.15 c-5.90 -0.15 -8.15 -0.35 -8.15 -0.75 0 -1.15 5.60 -5.80 8.90 -7.45 5.80 -2.85 10.70 -2.40 12.40 1.15 1.55 3.25 -0.70 7.55 -3.80 7.30 -0.70 -0.05 -4.90 -0.20 -9.35 -0.25z"/>
  <path d="M63.75 56.55 c-2.50 -1.05 -3.85 -4.45 -2.80 -7.15 0.60 -1.65 3.25 -3.40 5.05 -3.40 1.85 0 4.25 1.65 4.95 3.45 1.90 4.55 -2.60 8.95 -7.20 7.10z"/>
  <path d="M87.35 55 c-1.95 -1.55 -2.55 -4.25 -1.45 -6.50 3 -6.15 12.55 -2.10 9.90 4.20 -0.40 0.95 -1.20 2.05 -1.85 2.50 -1.65 1.15 -5 1.05 -6.60 -0.20z"/>
  <path d="M39.70 53.55 c-2.20 -1.35 -3.20 -2.95 -3.20 -5.20 0 -2.45 1.25 -4.65 3.30 -5.60 1.35 -0.65 1.90 -0.65 4.25 -0.05 3 0.80 4.20 1.95 4.65 4.55 0.45 2.40 -0.90 5.10 -3.20 6.35 -2.20 1.15 -3.85 1.15 -5.80 -0.05z"/>
  <path d="M15.80 45.45 c-2.65 -2.10 -3.45 -5.20 -2.05 -7.95 2.45 -4.80 9.10 -4.70 11.25 0.15 1 2.20 0.85 4.30 -0.40 6.25 -1.70 2.65 -6.35 3.45 -8.80 1.55z"/>
  <path d="M60.75 41.45 c-7.75 -0.75 -17.95 -2.85 -25.15 -5.20 -18.90 -6.20 -26.20 -15.75 -17.30 -22.50 4.45 -3.40 16.80 -7.25 26.40 -8.20 9.05 -0.90 34.15 -0.40 37.95 0.75 0.95 0.30 1.10 3.75 0.55 12.10 l-0.35 4.60 -6.70 0 c-5.55 0 -6.75 -0.15 -7 -0.75 -0.15 -0.45 0.70 -2.25 2.05 -4.30 1.30 -1.95 2.25 -3.85 2.10 -4.25 -0.20 -0.45 -1.05 -0.70 -2.70 -0.70 -1.35 0 -4.50 -0.15 -7 -0.30 -5.60 -0.40 -5.65 -0.25 -2.10 4.60 3.35 4.60 3.30 5.20 -0.40 5.20 l-2.90 0 -3.70 -3.75 c-2.05 -2.05 -3.85 -3.75 -4.05 -3.75 -0.20 0 -0.50 2.55 -0.65 5.65 -0.20 3.05 -0.45 6.90 -0.60 8.50 -0.35 3.55 0.25 3.70 3.05 0.80 3.05 -3.10 4.30 -3.60 8.30 -3.20 l3.45 0.35 0 1.55 c0 1.20 -0.60 2.15 -2.60 4.20 -1.40 1.45 -2.40 2.80 -2.20 3 0.60 0.60 12.35 0.80 12.90 0.25 0.30 -0.30 -0.15 -1.35 -1.25 -2.90 -1.95 -2.80 -2.50 -4.20 -2.05 -5.40 0.25 -0.65 1.05 -0.80 4.40 -0.80 2.20 0 5.25 0.15 6.70 0.30 l2.60 0.35 0 4.10 c0 2.25 -0.15 5.50 -0.30 7.20 l-0.35 3.05 -8.30 -0.05 c-4.55 -0.05 -10.30 -0.30 -12.80 -0.50z"/>
  <path d="M125.35 28.65 c-0.90 -0.85 -0.25 -3.25 1.35 -5.05 1.55 -1.65 1.95 -1.85 4.20 -1.85 4.30 0 7.05 3.30 4.80 5.80 -1.35 1.50 -1.95 1.15 -2.75 -1.40 -0.60 -2 -0.90 -2.45 -2.05 -2.55 -1.45 -0.20 -2.90 1.40 -2.90 3.15 0 1.65 -1.70 2.90 -2.65 1.90z"/>
  <path d="M88.15 16.15 c0.20 -4.05 0.55 -7.55 0.80 -7.80 0.65 -0.65 7.35 3 8.55 4.65 2.25 3.15 1.50 6.40 -2.05 8.95 -1.75 1.30 -2.60 1.55 -4.85 1.55 l-2.75 0 0.30 -7.35z"/>
 </g>
</svg>
