<?xml version="1.0" encoding="utf-8"?>
<!DOCTYPE svg PUBLIC "-//W3C//DTD SVG 1.0//EN" "http://www.w3.org/TR/2001/REC-SVG-20010904/DTD/svg10.dtd">
<svg version="1.0" xmlns="http://www.w3.org/2000/svg" width="173px" height="106px" viewBox="0 0 173 106" preserveAspectRatio="xMidYMid meet">
 <g fill="#000000">
  <path d="M60.75 104.25 c-4.50 -0.70 -14.65 -4.40 -20.05 -7.25 -5.20 -2.75 -10.20 -6.55 -12.65 -9.65 -3 -3.70 -9.25 -14.75 -11.05 -19.45 -2 -5.20 -4.30 -13.70 -5.95 -22.05 l-1.35 -6.95 -2.60 -0.85 c-3.05 -1.05 -4.35 -2.10 -5.65 -4.65 -2.75 -5.40 0.80 -12.20 6.85 -13.20 4.10 -0.65 8.40 2 10 6.05 l0.85 2.25 4.90 0 c2.75 0 4.95 -0.15 4.95 -0.35 0 -0.25 -0.35 -1.40 -0.80 -2.65 -3 -8.55 7.35 -15.55 14.35 -9.65 3.05 2.55 4.05 7.20 2.30 10.60 -0.45 0.95 -0.85 1.80 -0.85 1.90 0 0.05 3.85 0.15 8.50 0.15 l8.55 0 -1.75 -2.30 c-2.70 -3.55 -4.35 -7.30 -4.65 -10.60 -0.30 -2.95 -0.30 -3 -5.20 -8.15 -2.70 -2.85 -4.75 -5.35 -4.55 -5.55 0.65 -0.65 24.25 -0.25 24.45 0.40 0.10 0.30 -2.20 2.55 -5.15 5 l-5.30 4.45 0.25 2.95 c0.20 2 0.80 4.05 1.95 6.25 1.55 3.15 1.85 3.40 5.40 5.20 3.70 1.85 3.85 1.90 8.85 1.75 4.75 -0.15 5.20 -0.25 7.25 -1.70 3.55 -2.55 5.05 -5.40 5.75 -10.75 l0.25 -2.30 -4.30 -4.70 c-2.35 -2.60 -4.30 -5 -4.30 -5.30 0 -0.50 2.50 -0.65 10.75 -0.65 6.75 0 10.75 0.20 10.75 0.50 0 0.25 -1.95 3.10 -4.30 6.30 -3.70 5 -4.40 6.30 -5.25 9.60 -1.15 4.25 -2.20 6.25 -4.30 8.10 l-1.40 1.25 8 0.15 c4.35 0.05 8.25 0 8.60 -0.10 0.40 -0.20 0.65 -1.20 0.65 -2.90 0 -2.60 0 -2.70 -3.05 -5.45 -1.90 -1.70 -2.95 -3 -2.75 -3.35 0.55 -0.95 18.30 -0.85 18.30 0.10 0 0.35 -1.25 2.05 -2.75 3.75 -2.55 2.85 -2.75 3.30 -2.75 5.50 0 2.95 0.20 3.05 5.40 3.05 4.25 0 4.80 -0.20 5.35 -1.90 0.50 -1.75 3.15 -4.55 5.30 -5.65 2.05 -1.05 6.05 -1.25 8.15 -0.45 1.90 0.70 5.10 3.80 5.85 5.65 0.35 0.85 0.90 1.75 1.15 1.95 0.50 0.35 5.30 0 5.75 -0.40 0.10 -0.10 -0.70 -1.15 -1.85 -2.40 -2.20 -2.35 -3.40 -5.50 -2.95 -7.40 0.70 -2.65 6.75 -7.30 8.55 -6.60 1.20 0.45 0.95 1.45 -0.45 2.10 -1.50 0.70 -1.70 2.95 -0.55 5.65 1.70 4 4.70 5.65 12.75 6.95 7.40 1.20 8.45 1.60 8.85 3.30 0.30 1.10 0.10 1.60 -1 2.50 -0.70 0.65 -2.05 1.25 -2.95 1.40 -16.05 2.45 -16.85 2.80 -16.85 6.90 0 2 0.30 2.80 1.55 4.40 2.10 2.55 1.90 4.30 -0.50 4.15 -1.30 -0.05 -2.30 -0.65 -4.35 -2.70 -4.05 -4 -5 -8.25 -2.50 -10.90 1.60 -1.65 1.30 -2.05 -1.55 -2.05 -2.05 0 -2.25 0.10 -3.70 2.45 -0.90 1.55 -2.40 3.05 -3.85 3.95 -2.30 1.40 -2.40 1.55 -3.55 5.90 -3.40 12.80 -4.30 15.85 -5.90 20.45 -3.15 9.05 -8.10 16.55 -16.55 25.15 -5.15 5.20 -6.40 6.20 -10.50 8.30 -3.05 1.55 -6.75 2.90 -10.45 3.85 -5.40 1.35 -6.35 1.45 -15.10 1.40 -5.10 -0.05 -11.10 -0.35 -13.30 -0.70z m7.10 -5.50 l2.65 -1.30 0.10 -5.60 c0.20 -10.70 0.25 -18.60 0.05 -19.40 -0.15 -0.70 -1.65 -0.85 -10.40 -1.15 -5.65 -0.15 -10.55 -0.45 -11 -0.60 -0.45 -0.20 -0.75 -0.95 -0.75 -1.90 0 -1.20 1.85 -4.55 7.55 -13.60 12 -18.95 12.95 -20.50 12.95 -21.10 0 -0.45 -3.40 -0.60 -12.75 -0.60 l-12.75 0 0.50 1.30 c1.35 3.50 -0.30 8.40 -3.55 10.55 -4.75 3.15 -10.95 1.55 -13.50 -3.50 -0.85 -1.65 -1 -2.65 -0.80 -5.20 0.15 -2.15 0.05 -3.15 -0.35 -3.20 -0.30 0 -2.10 -0.05 -4 -0.05 -3.35 0 -3.50 0.05 -5.50 2.05 l-2 2 0.65 3.90 c1.65 9.95 4.20 19.20 7.50 27 1.80 4.35 2.05 4.85 4.95 9.80 2.50 4.20 3.45 4.70 4.85 2.50 4.50 -6.85 14.05 -6.70 17.65 0.35 2.05 4.05 1.30 8.25 -2.10 11.45 -1 0.95 -1.80 1.90 -1.80 2.15 0 0.95 7.55 4 12.60 5.15 3.85 0.90 5.80 0.65 9.25 -1z m20.65 1 c3.75 -0.80 6.50 -1.95 6.50 -2.75 0 -0.30 -0.85 -1.35 -1.90 -2.40 -3.45 -3.45 -3.95 -8.45 -1.25 -12.30 4.25 -6 13.15 -5.25 16.45 1.45 1.30 2.70 1.35 2.75 2.30 1.90 1.40 -1.25 7.95 -11.25 9.90 -15.15 2.40 -4.80 3.80 -8.80 5.50 -15.60 2 -8.30 2.80 -13.55 2.15 -13.75 -2 -0.70 -5.20 -3.35 -6.20 -5.20 l-1.20 -2.20 -5.25 0 -5.25 0 -0.15 2.15 c-0.15 2 0 2.30 2.85 5.30 1.70 1.70 3.05 3.30 3.05 3.45 0 0.60 -18.40 0.40 -18.75 -0.20 -0.20 -0.25 1 -1.95 2.70 -3.70 2.70 -2.80 3.05 -3.40 3.05 -5.20 l0 -2.05 -11.50 0 c-6.30 0 -11.50 0.10 -11.50 0.25 0 0.15 3.90 7.90 8.70 17.20 4.80 9.30 8.85 17.35 9 17.90 0.65 2.05 -0.70 2.40 -11.40 2.65 l-10.05 0.25 -0.15 12.60 -0.10 12.55 1.55 1.15 c1.80 1.30 4.70 2.40 6.30 2.45 0.60 0 2.70 -0.35 4.65 -0.75z m15 -6.65 c0.70 -0.50 1.65 -1.75 2.20 -2.80 3.10 -6.30 -5.60 -12.30 -10.65 -7.30 -3.45 3.50 -2.20 9 2.45 10.95 1.65 0.70 4.40 0.30 6 -0.85z m-58.70 -2.10 c1.05 -0.70 1.95 -1.80 2.50 -3.25 0.80 -2.15 0.80 -2.40 -0.05 -4.55 -1.10 -2.85 -3.10 -4.20 -6.40 -4.20 -2 0 -2.65 0.25 -4.25 1.70 -1.75 1.65 -1.85 1.90 -1.85 4.80 0 2.90 0.10 3.15 1.85 4.80 1.60 1.40 2.25 1.70 4.20 1.70 1.45 0 2.95 -0.40 4 -1z m46.20 -24.65 c0 -0.90 -16.10 -31.15 -16.60 -31.20 -0.75 -0.15 -20.05 30.20 -19.65 30.90 0.30 0.40 36.25 0.70 36.25 0.30z m-51.95 -24.80 c2.85 -2.85 1.55 -7.95 -2.30 -9 -3.65 -0.95 -7 1.55 -7 5.30 0 1.90 0.25 2.45 1.65 3.70 2.30 2.05 5.55 2.05 7.65 0z m95.35 -5.85 c2 -1.30 1.05 -1.95 -3.15 -2.10 -4.75 -0.20 -5.65 0.05 -4.70 1.25 1.80 2.10 5.30 2.50 7.85 0.85z m-122.20 -1.20 c1.60 -0.60 3.30 -3.25 3.30 -5.15 0 -5.25 -6.60 -7.80 -10.10 -3.85 -1.10 1.20 -1.40 2 -1.40 3.80 0 1.95 0.25 2.55 1.70 4 1.80 1.80 3.90 2.20 6.50 1.20z m123.70 -7.10 c-1.10 -1.70 -4.10 -3.05 -5.85 -2.65 -1.85 0.40 -4.05 2.05 -4.05 3.05 0 0.55 1.05 0.70 5.30 0.70 l5.30 0 -0.70 -1.10z m-95.35 -0.85 c1.15 -1.20 1.45 -1.90 1.45 -3.65 0 -2.60 -1.05 -4.25 -3.30 -5.20 -4.20 -1.75 -8.30 2.10 -7.10 6.65 1 3.75 6.10 5 8.95 2.20z"/>
 </g>
 <g fill="none">
  <path d="M0 53 l0 -53 86.50 0 86.50 0 0 53 0 53 -86.50 0 -86.50 0 0 -53z m89.15 50.55 c3.70 -0.95 7.40 -2.30 10.45 -3.85 4.10 -2.10 5.35 -3.10 10.50 -8.30 8.45 -8.60 13.40 -16.10 16.55 -25.15 1.60 -4.60 2.50 -7.65 5.90 -20.45 1.15 -4.35 1.25 -4.50 3.55 -5.90 1.45 -0.90 2.95 -2.40 3.85 -3.95 1.45 -2.35 1.65 -2.45 3.70 -2.45 2.85 0 3.15 0.40 1.55 2.05 -2.50 2.65 -1.55 6.90 2.50 10.90 2.05 2.05 3.05 2.65 4.35 2.70 2.40 0.15 2.60 -1.60 0.50 -4.15 -1.25 -1.60 -1.55 -2.40 -1.55 -4.40 0 -4.10 0.80 -4.45 16.85 -6.90 0.90 -0.15 2.25 -0.75 2.95 -1.40 1.10 -0.90 1.30 -1.40 1 -2.50 -0.40 -1.70 -1.45 -2.10 -8.85 -3.30 -8.05 -1.30 -11.05 -2.95 -12.75 -6.95 -1.15 -2.70 -0.95 -4.95 0.55 -5.65 1.40 -0.65 1.65 -1.65 0.45 -2.10 -1.80 -0.70 -7.85 3.95 -8.55 6.60 -0.45 1.90 0.75 5.05 2.95 7.40 1.15 1.25 1.95 2.30 1.85 2.40 -0.45 0.40 -5.25 0.75 -5.75 0.40 -0.25 -0.20 -0.80 -1.10 -1.15 -1.95 -0.75 -1.85 -3.95 -4.95 -5.85 -5.65 -2.10 -0.80 -6.10 -0.60 -8.15 0.45 -2.15 1.10 -4.80 3.90 -5.30 5.65 -0.55 1.70 -1.10 1.90 -5.35 1.90 -5.20 0 -5.40 -0.10 -5.40 -3.05 0 -2.20 0.20 -2.65 2.75 -5.50 1.50 -1.70 2.75 -3.40 2.75 -3.75 0 -0.95 -17.75 -1.05 -18.30 -0.10 -0.20 0.35 0.85 1.65 2.75 3.35 3.05 2.75 3.05 2.85 3.05 5.45 0 1.70 -0.25 2.70 -0.65 2.90 -0.35 0.10 -4.25 0.15 -8.60 0.10 l-8 -0.15 1.40 -1.25 c2.10 -1.85 3.15 -3.85 4.30 -8.10 0.85 -3.30 1.55 -4.60 5.25 -9.60 2.35 -3.20 4.30 -6.05 4.30 -6.30 0 -0.30 -4 -0.50 -10.75 -0.50 -8.25 0 -10.75 0.15 -10.75 0.65 0 0.30 1.95 2.70 4.30 5.30 l4.30 4.70 -0.25 2.30 c-0.70 5.35 -2.20 8.20 -5.75 10.75 -2.05 1.45 -2.50 1.55 -7.25 1.70 -5 0.15 -5.15 0.10 -8.85 -1.75 -3.55 -1.80 -3.85 -2.05 -5.40 -5.20 -1.15 -2.20 -1.75 -4.25 -1.95 -6.25 l-0.25 -2.95 5.30 -4.45 c2.95 -2.45 5.25 -4.70 5.15 -5 -0.20 -0.65 -23.80 -1.05 -24.45 -0.40 -0.20 0.20 1.85 2.70 4.55 5.55 4.90 5.15 4.90 5.20 5.20 8.15 0.30 3.30 1.95 7.05 4.65 10.60 l1.75 2.30 -8.55 0 c-4.65 0 -8.50 -0.10 -8.50 -0.15 0 -0.10 0.40 -0.95 0.85 -1.90 1.75 -3.40 0.75 -8.05 -2.30 -10.60 -7 -5.90 -17.35 1.10 -14.35 9.65 0.45 1.25 0.80 2.40 0.80 2.65 0 0.20 -2.20 0.35 -4.95 0.35 l-4.90 0 -0.85 -2.25 c-1.60 -4.05 -5.90 -6.70 -10 -6.05 -6.05 1 -9.60 7.80 -6.85 13.20 1.30 2.55 2.60 3.60 5.65 4.65 l2.60 0.85 1.35 6.95 c1.65 8.35 3.95 16.85 5.95 22.05 1.80 4.70 8.05 15.75 11.05 19.45 4.05 5.10 11.70 9.85 22.45 13.90 7.90 3 11.95 3.65 23.55 3.70 8.75 0.05 9.70 -0.05 15.10 -1.40z"/>
  <path d="M58.60 99.75 c-5.05 -1.15 -12.60 -4.20 -12.60 -5.15 0 -0.25 0.80 -1.20 1.80 -2.15 3.40 -3.20 4.15 -7.40 2.10 -11.45 -3.60 -7.05 -13.15 -7.20 -17.65 -0.35 -1.40 2.20 -2.35 1.70 -4.85 -2.50 -2.90 -4.95 -3.15 -5.45 -4.95 -9.80 -3.30 -7.80 -5.85 -17.05 -7.50 -27 l-0.65 -3.90 2 -2 c2 -2 2.15 -2.05 5.50 -2.05 1.90 0 3.70 0.05 4 0.05 0.40 0.05 0.50 1.05 0.35 3.20 -0.20 2.55 -0.05 3.55 0.80 5.20 2.55 5.05 8.75 6.65 13.50 3.50 3.25 -2.15 4.90 -7.05 3.55 -10.55 l-0.50 -1.30 12.75 0 c9.35 0 12.75 0.15 12.75 0.60 0 0.60 -0.95 2.15 -12.95 21.10 -5.70 9.05 -7.55 12.40 -7.55 13.60 0 0.95 0.30 1.70 0.75 1.90 0.45 0.15 5.35 0.45 11 0.60 8.75 0.30 10.25 0.45 10.40 1.15 0.20 0.80 0.15 8.70 -0.05 19.40 l-0.10 5.60 -2.65 1.30 c-3.45 1.65 -5.40 1.90 -9.25 1z"/>
  <path d="M80.95 99.80 c-1 -0.35 -2.50 -1.15 -3.40 -1.75 l-1.55 -1.15 0.10 -12.55 0.15 -12.60 10.05 -0.25 c10.70 -0.25 12.05 -0.60 11.40 -2.65 -0.15 -0.55 -4.20 -8.60 -9 -17.90 -4.80 -9.30 -8.70 -17.05 -8.70 -17.20 0 -0.15 5.20 -0.25 11.50 -0.25 l11.50 0 0 2.05 c0 1.80 -0.35 2.40 -3.05 5.20 -1.70 1.75 -2.90 3.45 -2.70 3.70 0.35 0.60 18.75 0.80 18.75 0.20 0 -0.15 -1.35 -1.75 -3.05 -3.45 -2.85 -3 -3 -3.30 -2.85 -5.30 l0.15 -2.15 5.25 0 5.25 0 1.20 2.20 c1 1.85 4.20 4.50 6.20 5.20 0.65 0.20 -0.15 5.45 -2.15 13.75 -1.70 6.80 -3.10 10.80 -5.50 15.60 -1.95 3.90 -8.50 13.90 -9.90 15.15 -0.95 0.85 -1 0.80 -2.30 -1.90 -3.30 -6.70 -12.20 -7.45 -16.45 -1.45 -2.70 3.85 -2.20 8.85 1.25 12.30 1.05 1.05 1.90 2.10 1.90 2.40 0 0.80 -2.75 1.95 -6.50 2.75 -4.25 0.90 -5.20 0.90 -7.55 0.05z"/>
  <path d="M97.50 93.95 c-4.65 -1.95 -5.90 -7.45 -2.45 -10.95 5.05 -5 13.75 1 10.65 7.30 -1.65 3.25 -5.25 4.90 -8.20 3.65z"/>
  <path d="M36.60 90.30 c-1.75 -1.65 -1.85 -1.90 -1.85 -4.80 0 -2.90 0.10 -3.15 1.85 -4.80 1.60 -1.45 2.25 -1.70 4.25 -1.70 3.30 0 5.30 1.35 6.40 4.20 0.85 2.15 0.85 2.40 0.05 4.55 -1.10 2.80 -3.30 4.25 -6.50 4.25 -1.95 0 -2.60 -0.30 -4.20 -1.70z"/>
  <path d="M54.75 66.05 c-0.40 -0.70 18.90 -31.05 19.65 -30.90 0.50 0.05 16.60 30.30 16.60 31.20 0 0.40 -35.95 0.10 -36.25 -0.30z"/>
  <path d="M31.40 41.55 c-4.20 -3.75 -0.15 -10.50 5.35 -9 3.85 1.05 5.15 6.15 2.30 9 -2.10 2.05 -5.35 2.05 -7.65 0z"/>
  <path d="M128.75 36.35 c-0.85 -0.40 -1.80 -1.05 -2.20 -1.50 -0.95 -1.20 -0.05 -1.45 4.70 -1.25 4.20 0.15 5.15 0.80 3.15 2.10 -1.75 1.15 -3.95 1.40 -5.65 0.65z"/>
  <path d="M5.70 33.30 c-1.45 -1.45 -1.70 -2.05 -1.70 -4 0 -3.05 1.85 -5.25 4.80 -5.65 5.05 -0.65 8.35 4.35 5.70 8.75 -1.10 1.80 -2.70 2.60 -5.35 2.60 -1.35 0 -2.15 -0.40 -3.45 -1.70z"/>
  <path d="M126 27.80 c0 -1 2.20 -2.65 4.05 -3.05 1.75 -0.40 4.75 0.95 5.85 2.65 l0.70 1.10 -5.30 0 c-4.25 0 -5.30 -0.15 -5.30 -0.70z"/>
  <path d="M33.30 26.95 c-4.75 -3.75 -0.20 -11.60 5.40 -9.25 2.25 0.95 3.30 2.60 3.30 5.20 0 1.75 -0.30 2.45 -1.45 3.65 -1.85 1.85 -5.20 2.05 -7.25 0.40z"/>
 </g>
</svg>
