<?xml version="1.0" encoding="utf-8"?>
<!DOCTYPE svg PUBLIC "-//W3C//DTD SVG 1.0//EN" "http://www.w3.org/TR/2001/REC-SVG-20010904/DTD/svg10.dtd">
<svg version="1.0" xmlns="http://www.w3.org/2000/svg" width="164px" height="137px" viewBox="0 0 164 137" preserveAspectRatio="xMidYMid meet">
 <g fill="#000000">
  <path d="M47.20 135.40 c-0.25 -0.35 0.45 -1.25 1.85 -2.35 1.20 -0.95 3.95 -3.45 6.10 -5.55 3.80 -3.80 3.85 -3.85 3.85 -6.40 l0 -2.60 -3.50 0 c-3.40 0 -3.60 0.05 -5.70 2 -1.20 1.10 -2.80 2.90 -3.55 4 -0.75 1.10 -1.55 1.90 -1.75 1.75 -0.35 -0.25 -0.05 -17.30 0.30 -17.70 0.10 -0.10 1.65 1.15 3.40 2.85 l3.20 3.10 3.80 0 3.80 0 -0.10 -17.35 -0.15 -17.40 -2 0 -2 0 -0.25 10 -0.25 10 -9.20 0.15 c-6.35 0.10 -9.40 -0.05 -9.85 -0.45 -0.55 -0.45 -0.70 -2.55 -0.70 -9.75 l0 -9.25 -7.10 0.15 -7.05 0.15 0.10 10.25 c0.05 8.75 0.20 10.30 0.90 10.75 3.15 2 4 2.70 5 4.20 2.15 3.20 1.30 8.55 -1.80 11.20 -3.95 3.30 -9.70 2.70 -12.80 -1.40 -3.40 -4.40 -1.65 -11 3.55 -13.50 l1.85 -0.85 -0.35 -8.35 c-0.15 -4.55 -0.30 -18.10 -0.35 -30.05 -0.05 -11.95 -0.20 -23.15 -0.35 -24.85 l-0.25 -3.10 -4.30 -0.15 -4.30 -0.15 -0.15 -10.55 -0.10 -10.55 -2.85 -2.70 -2.85 -2.70 6.95 -0.15 c3.80 -0.05 7 0 7.15 0.15 0.15 0.10 -0.90 1.45 -2.30 2.95 l-2.60 2.75 0 8.70 0 8.75 5.15 0.35 c2.80 0.15 6.80 0.25 8.85 0.15 l3.75 -0.15 0.15 -11.70 c0.05 -7.60 0.30 -11.95 0.65 -12.40 0.45 -0.50 5.30 -0.65 25.20 -0.65 21.50 0 24.70 0.10 25.25 0.75 0.50 0.60 0.60 3.35 0.40 11.90 -0.15 6.10 -0.15 11.40 -0.05 11.75 0.15 0.45 2 0.60 6.70 0.60 l6.45 0 0 -7 0 -7 -2.65 0 c-3.10 0 -4.10 0.60 -6.60 4 -1 1.40 -2.05 2.40 -2.30 2.20 -0.55 -0.30 -0.60 -14.20 -0.05 -15.05 0.25 -0.45 1.30 0.20 3.30 2.10 2.80 2.65 3.05 2.75 5.60 2.75 2.40 0 2.70 -0.10 2.70 -1 0 -0.65 -1.80 -2.90 -4.50 -5.70 -2.45 -2.55 -4.50 -4.90 -4.50 -5.20 0 -0.45 3.05 -0.60 11 -0.60 9.70 0 11.05 0.10 11.35 0.80 0.20 0.55 -0.25 1.25 -1.40 2.10 -3.05 2.30 -8.45 7.90 -8.45 8.75 0 0.80 2.10 1.20 5.25 0.95 1 -0.10 3.40 -2.40 5.60 -5.35 l1.10 -1.50 0 7.90 c0.05 4.30 -0.05 7.85 -0.15 7.85 -0.15 0 -1.40 -1.10 -2.80 -2.50 -2.55 -2.45 -2.60 -2.50 -5.80 -2.50 l-3.20 0 0 6.95 c0 8.05 -0.60 7.35 6.65 7.50 5.35 0.10 5.40 0.10 8.25 -4.10 3.95 -5.70 11.90 -10.85 20.15 -13.10 6.80 -1.80 11.20 -1.55 17.05 0.90 3.40 1.45 6.85 5.20 9.25 10.10 3.80 7.80 4.35 10.35 4.40 19.50 0 7.75 -0.05 8.15 -1.65 13.10 -1.90 5.80 -4.60 10.75 -9 16.60 -1.70 2.25 -3.10 4.20 -3.10 4.35 0 0.15 1.10 1.65 2.45 3.40 2.85 3.70 3.80 6.95 3.40 11.35 -0.50 5.55 -5.05 11.75 -10.60 14.45 -1.95 1 -3.30 1.25 -6.10 1.25 -3.15 0 -3.80 -0.15 -5.70 -1.50 -1.20 -0.85 -3.15 -2.80 -4.35 -4.35 l-2.15 -2.85 -2.50 0.95 c-3 1.20 -4.55 1.25 -7.65 0.20 -2.65 -0.90 -5.80 -3.60 -5.80 -5 0 -1.50 1.85 -4.10 3.60 -5.20 3.35 -2 7.30 -1 11.15 2.80 1.20 1.20 2.50 2.20 2.90 2.20 3.10 0 17.65 -15.35 15.70 -16.60 -0.30 -0.20 -12.35 -0.40 -26.70 -0.40 l-26.15 0 -0.10 10.15 -0.15 10.10 -9.70 0.15 c-7.15 0.10 -9.85 -0.05 -10.40 -0.50 -0.65 -0.55 -0.75 -2.15 -0.60 -10.40 l0.20 -9.75 -2.85 -0.25 c-1.60 -0.15 -3.10 -0.20 -3.40 -0.10 -0.30 0.10 -0.50 5.95 -0.50 17.10 0 19.20 -0.25 18 4.10 18 2 0 2.35 -0.20 5.75 -3.70 1.95 -2.05 3.70 -3.60 3.85 -3.45 0.40 0.40 0.40 6.85 -0.05 12.60 l-0.30 4.55 -3.10 -2.95 c-3.35 -3.25 -4.40 -3.70 -7.80 -3.45 -2.20 0.15 -2.20 0.15 -2.35 2.15 -0.20 2.65 1.80 5.70 7.05 10.80 2.15 2.05 3.70 3.90 3.55 4.10 -0.65 0.65 -25.60 0.40 -26 -0.25z m-25.15 -20.05 c4.85 -3.25 2.55 -10.85 -3.30 -10.85 -4.25 0 -7.20 4.30 -5.60 8.15 1.50 3.55 5.70 4.85 8.90 2.70z m121.75 -8.90 c2.85 -1.50 6.85 -6.35 7.65 -9.30 0.80 -2.90 0.65 -6.65 -0.45 -9.05 -1.30 -2.90 -3.45 -5.60 -4.45 -5.60 -0.45 0 -1.90 1.55 -3.30 3.40 -3.70 4.95 -7.05 8.40 -11.10 11.45 -2 1.50 -3.65 3 -3.65 3.35 0 1.60 4.05 5.95 6.50 6.95 1.65 0.70 6.35 0.05 8.80 -1.20z m-21.55 -6.15 c0.95 -0.40 1.75 -0.90 1.75 -1.05 0 -0.90 -1.30 -2.45 -3.10 -3.75 -2.65 -1.95 -5.40 -2.05 -7.15 -0.25 -1.55 1.50 -1.55 2.30 -0.10 3.65 2.25 2.10 5.55 2.65 8.60 1.40z m-35.90 -2.90 c0.20 -0.35 0.45 -4.90 0.50 -10.15 0.10 -5.20 0.25 -9.80 0.40 -10.15 0.20 -0.50 6.05 -0.55 29.85 -0.35 16.30 0.20 29.90 0.15 30.15 -0.10 1 -0.75 5.10 -6.40 7.10 -9.75 1.10 -1.85 2.75 -5.55 3.70 -8.25 1.65 -4.75 1.70 -5.15 1.70 -12.90 0 -7.15 -0.15 -8.40 -1.20 -11.50 -3.15 -9.20 -6.30 -13.50 -11.95 -16.15 -2.55 -1.20 -3.40 -1.35 -8.10 -1.30 -4.65 0 -5.75 0.20 -9.60 1.65 -4.70 1.75 -7.45 3.40 -11.15 6.65 -2.50 2.20 -6.25 6.65 -6.25 7.45 0 0.25 5.10 6 11.30 12.80 l11.35 12.40 3.55 0 c2.90 0 3.85 0.20 5.20 1.15 2.20 1.60 3.10 3.55 3.10 6.75 0 4.70 -3.20 7.85 -7.90 7.85 -5.45 0 -9.20 -5.05 -7.65 -10.25 0.30 -1.10 0.65 -2.25 0.70 -2.55 0.10 -0.50 -10.60 -12.45 -19.35 -21.55 l-3.45 -3.65 -16.05 -0.10 -16.05 -0.15 -0.15 -12 c-0.05 -6.60 -0.20 -12.30 -0.35 -12.60 -0.15 -0.50 -4.95 -0.65 -21.70 -0.65 -19.10 0 -21.50 0.10 -21.75 0.80 -0.15 0.45 -0.30 3 -0.30 5.70 0 4 0.15 4.95 0.80 5.20 0.45 0.15 5.90 0.30 12.20 0.30 11.05 0 11.45 -0.05 11.75 -1 0.65 -2.10 -0.25 -3.95 -3 -6.15 -1.50 -1.15 -2.65 -2.30 -2.55 -2.60 0.15 -0.55 12.45 -1 13.75 -0.50 0.55 0.20 0.15 0.90 -1.60 2.65 -1.25 1.30 -2.55 3 -2.85 3.85 -0.65 1.70 -0.25 3.75 0.70 3.75 0.95 0 4.20 -2.60 6.65 -5.40 1.80 -2 2.25 -2.25 3 -1.80 0.75 0.45 0.95 1.40 1.05 5.75 0.25 7.65 -0.30 13.45 -1.30 13.80 -0.50 0.25 -1.15 -0.15 -1.80 -1.15 -0.60 -0.80 -2.35 -2.75 -3.90 -4.35 -3.35 -3.45 -4.55 -3.65 -4.80 -0.65 -0.15 1.85 0.05 2.15 2.95 4.90 l3.10 2.90 -7.05 0 c-3.90 0 -7.10 -0.15 -7.10 -0.35 0 -0.15 1.15 -1.50 2.50 -2.95 2.05 -2.15 2.50 -2.95 2.50 -4.45 0 -1.45 -0.25 -1.85 -1.30 -2.25 -0.70 -0.30 -6 -0.45 -12.35 -0.40 l-11.10 0.15 -0.25 4.50 -0.25 4.50 -5.85 0.15 -5.90 0.15 0 20.95 0 21 4.40 0.10 c2.40 0.10 6.25 0.15 8.60 0.20 2.35 0 4.55 0.05 4.90 0.10 0.50 0.10 0.60 2.15 0.55 9.40 -0.05 5.45 0.10 9.45 0.40 9.75 0.25 0.25 2.95 0.40 6.20 0.35 l5.70 -0.15 0.25 -10 0.25 -10 10.50 0 10.50 0 0.15 10.25 c0.10 7.40 0.30 10.30 0.75 10.60 1.05 0.70 12.75 0.50 13.20 -0.20z m53.90 -27.10 c2.65 -1.15 3.95 -4.45 2.70 -6.95 -0.95 -1.90 -2.55 -2.85 -4.85 -2.85 -5.70 0 -7.15 7.50 -1.90 9.80 1.95 0.85 2 0.85 4.05 0z"/>
 </g>
 <g fill="none">
  <path d="M0 68.50 l0 -68.50 82 0 82 0 0 68.50 0 68.50 -82 0 -82 0 0 -68.50z m73.20 67.15 c0.15 -0.20 -1.40 -2.05 -3.55 -4.10 -5.25 -5.10 -7.25 -8.15 -7.05 -10.80 0.15 -2 0.15 -2 2.35 -2.15 3.40 -0.25 4.45 0.20 7.80 3.45 l3.10 2.95 0.30 -4.55 c0.45 -5.75 0.45 -12.20 0.05 -12.60 -0.15 -0.15 -1.90 1.40 -3.85 3.45 -3.40 3.50 -3.75 3.70 -5.75 3.70 -4.35 0 -4.10 1.20 -4.10 -18 0 -11.15 0.20 -17 0.50 -17.10 0.30 -0.10 1.80 -0.05 3.40 0.10 l2.85 0.25 -0.20 9.75 c-0.15 8.25 -0.05 9.85 0.60 10.40 0.55 0.45 3.25 0.60 10.40 0.50 l9.70 -0.15 0.15 -10.10 0.10 -10.15 26.15 0 c14.35 0 26.40 0.20 26.70 0.40 1.95 1.25 -12.60 16.60 -15.70 16.60 -0.40 0 -1.70 -1 -2.90 -2.20 -3.85 -3.80 -7.80 -4.80 -11.15 -2.80 -1.75 1.10 -3.60 3.70 -3.60 5.20 0 1.40 3.15 4.10 5.80 5 3.10 1.05 4.65 1 7.65 -0.20 l2.50 -0.95 2.15 2.85 c1.20 1.55 3.15 3.50 4.35 4.35 1.90 1.35 2.55 1.50 5.70 1.50 2.80 0 4.15 -0.25 6.10 -1.25 5.55 -2.70 10.10 -8.90 10.60 -14.45 0.40 -4.40 -0.55 -7.65 -3.40 -11.35 -1.35 -1.75 -2.45 -3.25 -2.45 -3.40 0 -0.15 1.40 -2.10 3.10 -4.35 4.40 -5.85 7.10 -10.80 9 -16.60 1.60 -4.95 1.65 -5.35 1.65 -13.10 -0.05 -9.15 -0.60 -11.70 -4.40 -19.50 -2.40 -4.90 -5.85 -8.65 -9.25 -10.10 -5.85 -2.45 -10.25 -2.70 -17.05 -0.90 -8.25 2.25 -16.20 7.40 -20.15 13.10 -2.85 4.20 -2.90 4.20 -8.25 4.10 -7.25 -0.15 -6.65 0.55 -6.65 -7.50 l0 -6.95 3.20 0 c3.20 0 3.25 0.05 5.80 2.50 1.40 1.40 2.65 2.50 2.80 2.50 0.10 0 0.20 -3.55 0.15 -7.85 l0 -7.90 -1.10 1.50 c-2.20 2.95 -4.60 5.25 -5.60 5.35 -3.15 0.25 -5.25 -0.15 -5.25 -0.95 0 -0.85 5.40 -6.45 8.45 -8.75 1.15 -0.85 1.60 -1.55 1.40 -2.10 -0.30 -0.70 -1.65 -0.80 -11.35 -0.80 -7.95 0 -11 0.15 -11 0.60 0 0.30 2.05 2.65 4.50 5.20 2.70 2.80 4.50 5.05 4.50 5.70 0 0.90 -0.30 1 -2.70 1 -2.55 0 -2.80 -0.10 -5.60 -2.75 -2 -1.90 -3.05 -2.55 -3.30 -2.10 -0.55 0.85 -0.50 14.75 0.05 15.05 0.25 0.20 1.30 -0.80 2.30 -2.20 2.50 -3.40 3.50 -4 6.60 -4 l2.65 0 0 7 0 7 -6.45 0 c-4.70 0 -6.55 -0.15 -6.70 -0.60 -0.10 -0.35 -0.10 -5.65 0.05 -11.75 0.20 -8.55 0.10 -11.30 -0.40 -11.90 -0.55 -0.65 -3.75 -0.75 -25.25 -0.75 -19.90 0 -24.75 0.15 -25.20 0.65 -0.35 0.45 -0.60 4.80 -0.65 12.40 l-0.15 11.70 -3.75 0.15 c-2.05 0.10 -6.05 0 -8.85 -0.15 l-5.15 -0.35 0 -8.75 0 -8.70 2.60 -2.75 c1.40 -1.50 2.45 -2.85 2.30 -2.95 -0.15 -0.15 -3.35 -0.20 -7.15 -0.15 l-6.95 0.15 2.85 2.70 2.85 2.70 0.10 10.55 0.15 10.55 4.30 0.15 4.30 0.15 0.25 3.10 c0.15 1.70 0.30 12.90 0.35 24.85 0.05 11.95 0.20 25.50 0.35 30.05 l0.35 8.35 -1.85 0.85 c-2.40 1.15 -4.65 3.80 -5.10 6 -1.30 6.90 4.35 12.50 10.85 10.75 7.25 -1.95 8.85 -11.65 2.60 -15.75 -0.85 -0.55 -1.90 -1.20 -2.30 -1.50 -0.70 -0.45 -0.85 -2 -0.90 -10.75 l-0.10 -10.25 7.05 -0.15 7.10 -0.15 0 9.25 c0 7.20 0.15 9.30 0.70 9.75 0.45 0.40 3.50 0.55 9.85 0.45 l9.20 -0.15 0.25 -10 0.25 -10 2 0 2 0 0.15 17.40 0.10 17.35 -3.80 0 -3.80 0 -3.20 -3.10 c-1.75 -1.70 -3.30 -2.95 -3.40 -2.85 -0.35 0.40 -0.65 17.45 -0.30 17.70 0.20 0.15 1 -0.65 1.75 -1.75 0.75 -1.10 2.35 -2.90 3.55 -4 2.10 -1.95 2.30 -2 5.70 -2 l3.50 0 0 2.60 c0 2.55 -0.05 2.60 -3.85 6.40 -2.15 2.10 -4.90 4.60 -6.10 5.55 -1.40 1.10 -2.10 2 -1.85 2.35 0.40 0.65 25.35 0.90 26 0.25z"/>
  <path d="M15.60 115.50 c-2.30 -1.40 -3.40 -4.10 -2.65 -6.55 1.25 -4.20 6.25 -5.90 9.50 -3.15 3.10 2.60 2.90 7.35 -0.40 9.55 -2.10 1.40 -4.30 1.45 -6.45 0.15z"/>
  <path d="M135 107.65 c-2.45 -1 -6.50 -5.35 -6.50 -6.95 0 -0.35 1.65 -1.85 3.65 -3.35 4.05 -3.05 7.40 -6.50 11.10 -11.45 1.40 -1.85 2.85 -3.40 3.30 -3.40 1 0 3.15 2.70 4.45 5.60 1.10 2.40 1.25 6.15 0.45 9.05 -0.80 2.95 -4.80 7.80 -7.65 9.30 -2.45 1.25 -7.15 1.90 -8.80 1.20z"/>
  <path d="M116 100.45 c-1.60 -0.65 -3.50 -2.45 -3.50 -3.30 0 -1.45 2.40 -3.15 4.40 -3.15 2.70 0 7.10 3.25 7.10 5.25 0 0.60 -3.45 1.75 -5.10 1.70 -0.90 0 -2.20 -0.25 -2.90 -0.50z"/>
  <path d="M73.15 97.60 c-0.45 -0.30 -0.65 -3.20 -0.75 -10.60 l-0.15 -10.25 -10.50 0 -10.50 0 -0.25 10 -0.25 10 -5.70 0.15 c-3.25 0.05 -5.95 -0.10 -6.20 -0.35 -0.30 -0.30 -0.45 -4.30 -0.40 -9.75 0.05 -7.25 -0.05 -9.30 -0.55 -9.40 -0.35 -0.05 -2.55 -0.10 -4.90 -0.10 -2.35 -0.05 -6.20 -0.10 -8.60 -0.20 l-4.40 -0.10 0 -21 0 -20.95 5.90 -0.15 5.85 -0.15 0.25 -4.50 0.25 -4.50 11.10 -0.15 c6.35 -0.05 11.65 0.10 12.35 0.40 1.05 0.40 1.30 0.80 1.30 2.25 0 1.50 -0.45 2.30 -2.50 4.45 -1.35 1.45 -2.50 2.80 -2.50 2.95 0 0.20 3.20 0.35 7.10 0.35 l7.05 0 -3.10 -2.90 c-2.90 -2.75 -3.10 -3.05 -2.95 -4.90 0.25 -3 1.45 -2.80 4.80 0.65 1.55 1.60 3.30 3.55 3.90 4.35 0.65 1 1.30 1.40 1.80 1.15 1 -0.35 1.55 -6.15 1.30 -13.80 -0.10 -4.35 -0.30 -5.30 -1.05 -5.75 -0.75 -0.45 -1.20 -0.20 -3 1.80 -2.45 2.80 -5.70 5.40 -6.65 5.40 -0.95 0 -1.35 -2.05 -0.70 -3.75 0.30 -0.85 1.60 -2.55 2.85 -3.85 1.75 -1.75 2.15 -2.45 1.60 -2.65 -1.30 -0.50 -13.60 -0.05 -13.75 0.50 -0.10 0.30 1.05 1.45 2.55 2.60 2.75 2.20 3.65 4.05 3 6.15 -0.30 0.95 -0.70 1 -11.75 1 -6.30 0 -11.75 -0.15 -12.20 -0.30 -0.65 -0.25 -0.80 -1.20 -0.80 -5.20 0 -2.70 0.15 -5.25 0.30 -5.70 0.25 -0.70 2.65 -0.80 21.75 -0.80 16.75 0 21.55 0.15 21.70 0.65 0.15 0.30 0.30 6 0.35 12.60 l0.15 12 16.05 0.15 16.05 0.10 3.45 3.65 c8.75 9.10 19.45 21.05 19.35 21.55 -0.05 0.30 -0.40 1.45 -0.70 2.55 -1.55 5.20 2.20 10.25 7.65 10.25 4.70 0 7.90 -3.15 7.90 -7.85 0 -3.20 -0.90 -5.15 -3.10 -6.75 -1.35 -0.95 -2.30 -1.15 -5.20 -1.15 l-3.55 0 -11.35 -12.40 c-6.20 -6.80 -11.30 -12.55 -11.30 -12.80 0 -0.80 3.75 -5.25 6.25 -7.45 3.70 -3.25 6.45 -4.90 11.15 -6.65 3.85 -1.45 4.95 -1.65 9.60 -1.65 4.70 -0.05 5.55 0.10 8.10 1.30 5.65 2.65 8.80 6.95 11.95 16.15 1.05 3.10 1.20 4.35 1.20 11.50 0 7.75 -0.05 8.15 -1.70 12.90 -0.95 2.70 -2.60 6.40 -3.70 8.25 -2 3.35 -6.10 9 -7.10 9.75 -0.25 0.25 -13.85 0.30 -30.15 0.10 -23.80 -0.20 -29.65 -0.15 -29.85 0.35 -0.15 0.35 -0.30 4.95 -0.40 10.15 -0.05 5.25 -0.30 9.80 -0.50 10.15 -0.45 0.70 -12.15 0.90 -13.20 0.20z"/>
  <path d="M136.20 70.30 c-2.10 -0.95 -3.20 -2.60 -3.20 -4.95 0 -5.25 7.50 -6.80 9.95 -2 1.25 2.50 -0.05 5.80 -2.70 6.95 -2.05 0.85 -2.10 0.85 -4.05 0z"/>
 </g>
</svg>
