<?xml version="1.0" encoding="utf-8"?>
<!DOCTYPE svg PUBLIC "-//W3C//DTD SVG 1.0//EN" "http://www.w3.org/TR/2001/REC-SVG-20010904/DTD/svg10.dtd">
<svg version="1.0" xmlns="http://www.w3.org/2000/svg" width="176px" height="136px" viewBox="0 0 176 136" preserveAspectRatio="xMidYMid meet">
 <g fill="#000000">
  <path d="M122.15 134.50 c-4.40 -0.90 -8.60 -4.25 -10.45 -8.25 -2.05 -4.35 -1.35 -7.80 2.20 -10.80 1.60 -1.30 2.95 -3.40 5.80 -9.15 2.05 -4.10 3.65 -7.65 3.50 -7.90 -0.15 -0.25 -2.30 -1.45 -4.80 -2.70 -3.70 -1.85 -4.65 -2.15 -5.10 -1.60 -0.35 0.35 -4.30 8.25 -8.85 17.50 -5.80 11.90 -8.45 16.85 -9.05 16.85 -1.25 0.05 -30.40 -14.30 -30.40 -14.95 0 -0.30 4.30 -9.35 9.55 -20.05 5.25 -10.70 9.45 -19.70 9.35 -19.95 -0.20 -0.65 -23.25 -12 -24.35 -12 -0.55 0 -2.50 3.50 -6.70 12.15 -3.20 6.65 -6.35 13.15 -6.95 14.50 -0.60 1.30 -1.35 2.35 -1.60 2.35 -0.30 0 -4.20 -1.70 -8.65 -3.85 -4.50 -2.10 -8.25 -3.75 -8.35 -3.60 -0.10 0.10 -2 3.95 -4.20 8.55 -2.90 6 -3.85 8.50 -3.45 8.80 4.40 3.35 19.55 10.60 22.20 10.60 0.90 0 5.65 -9.90 5.65 -11.75 0 -0.70 -0.55 -1.85 -1.25 -2.55 -0.70 -0.70 -1.25 -1.60 -1.25 -2 0 -1.65 1.80 -1.30 7.35 1.50 4.95 2.45 5.70 3 5.55 3.95 -0.15 0.95 -0.45 1.10 -2.45 1.10 -1.55 0 -2.70 0.30 -3.35 0.90 -0.55 0.50 -2.40 3.95 -4.15 7.65 -1.75 3.65 -3.40 6.70 -3.70 6.70 -1.25 0 -12.40 -4.55 -17.50 -7.15 -6.40 -3.20 -12.40 -7.25 -12.65 -8.45 -0.10 -0.45 1.90 -4.85 4.35 -9.85 2.50 -4.95 4.55 -9.40 4.55 -9.80 0 -0.75 -4.35 -3.25 -5.70 -3.25 -0.35 0 -0.85 0.60 -1.05 1.35 -1.15 4.70 -7 7.15 -11.15 4.65 -4.95 -3.05 -4.80 -9.95 0.30 -13.20 1.65 -1 3.50 -3.75 10.90 -15.90 4.90 -8.05 11.45 -18.80 14.55 -23.85 6.35 -10.40 6.35 -10.50 1.70 -10.95 -3.20 -0.30 -5.05 0.45 -7.30 2.95 -1.85 2.05 -2.75 2.40 -3.70 1.25 -0.40 -0.50 0.50 -2.80 4.15 -10.20 2.60 -5.20 4.95 -9.65 5.20 -9.80 0.25 -0.15 0.90 0.05 1.40 0.40 0.85 0.65 0.85 0.90 0.30 2.40 -1.30 3.60 -0.35 6.80 2.70 9.30 2.75 2.30 3.65 2.10 6.30 -1.30 3.75 -4.70 11.15 -11.95 13.45 -13.10 2.70 -1.40 6.35 -1.50 8.20 -0.30 1.70 1.15 3.20 4.45 3.25 7.20 0 2.50 0.75 2.70 2.55 0.80 2.25 -2.45 5.45 -4.20 7.80 -4.20 l2.15 0 0 2 c0 2.35 0.35 2.45 4.70 1 3.95 -1.35 4 -1.30 3.65 0.90 -0.65 4 -0.70 3.85 1 4 0.90 0.10 3.80 -0.30 6.50 -0.85 7 -1.50 6.75 -1.65 4.95 2.55 -1.30 2.95 -0.25 3.15 4.65 0.85 4.15 -1.95 5.55 -2.35 5.55 -1.55 0 0.25 -0.70 2.40 -1.50 4.85 -0.90 2.65 -1.30 4.65 -1.05 4.90 0.25 0.25 2.80 -0.40 6.30 -1.60 8.60 -3.05 9.40 -2.80 7 1.95 -1.45 2.90 -1.60 4.35 -0.35 4.70 0.45 0.15 3.45 -0.15 6.60 -0.70 3.15 -0.55 5.90 -1 6.15 -1 0.70 0 0.35 1.55 -0.90 3.50 -0.70 1.10 -1.30 2.50 -1.40 3.10 -0.10 1.05 0.10 1.15 1.90 1.10 1.10 0 3.95 -0.35 6.35 -0.70 2.40 -0.40 4.55 -0.55 4.70 -0.35 0.20 0.20 -0.65 2.30 -1.85 4.70 -2.25 4.45 -3.05 5.30 -10.95 12.25 -7.10 6.20 -9.05 10.95 -6.25 15.15 1.90 2.85 3.55 3.90 6.50 4.15 3.30 0.25 6.45 -1.25 10.70 -5.20 4.30 -3.95 7.50 -8.45 10.80 -15.05 4.35 -8.75 5.30 -11.95 5.60 -18.45 0.30 -6 -0.40 -9.35 -2.40 -11.90 -1.95 -2.50 -6 -1.45 -8.70 2.20 -2.55 3.45 -0.95 6.20 3.35 5.90 1.90 -0.15 2.15 -0.30 2.15 -1.40 0 -1.05 -0.25 -1.30 -1.65 -1.40 -3.30 -0.35 -2.25 -3.10 1.20 -3.10 2.20 0 3.70 1.90 3.70 4.75 0 3 -1.25 4 -4.90 3.85 -4.20 -0.15 -5.45 -0.55 -6.60 -1.95 -2.45 -3.15 -0.25 -9.05 4.70 -12.35 2.30 -1.55 4.15 -1.65 6.70 -0.35 2.55 1.30 3.60 2.60 4.65 5.65 0.50 1.50 1.20 2.60 1.55 2.55 0.35 -0.05 1.75 -0.30 3.10 -0.55 6.55 -1.35 11.30 4.05 9.25 10.50 -1.55 4.85 -8.55 6.05 -10.85 1.90 -0.65 -1.15 -0.60 -1.55 0.40 -3.90 0.80 -1.85 1.50 -2.70 2.30 -2.90 1.50 -0.40 2.70 0.55 2.70 2.10 0 0.90 -0.35 1.25 -1.60 1.60 -1.90 0.45 -2.35 1.60 -1.15 2.80 1.05 1 3.20 1.05 4.60 0.05 2.35 -1.65 1.90 -8 -0.65 -9.20 -4.50 -2 -7.90 1.30 -10.45 10.20 -0.45 1.65 -2.30 7.50 -4.10 13 -4 12.45 -4.60 15 -5.20 22.25 -2.35 29.80 -4.90 42.35 -10.60 51.60 -5.40 8.75 -11.10 12.30 -17.70 10.90z m7.15 -4.20 c0.95 -0.95 1.70 -2.20 1.70 -2.75 0 -3.10 -2.90 -6.45 -7.65 -8.90 -5.45 -2.75 -9.35 -1.25 -9.35 3.65 0 2.10 0.25 2.50 2.75 5 3.05 3.10 6.10 4.65 8.95 4.70 1.50 0 2.25 -0.35 3.60 -1.70z m7.10 -7.55 c1.50 -1.90 3.40 -7.05 5.05 -13.60 1.35 -5.45 2.10 -9.85 3.50 -20.40 0.30 -2.20 1 -7.20 1.55 -11.15 0.95 -6.80 1.30 -12.10 0.75 -12.10 -0.10 0 -1.25 1.05 -2.50 2.30 -2.80 2.80 -6.35 4.45 -11.10 5.25 -4.50 0.75 -7.20 0.10 -10.10 -2.35 -1.50 -1.30 -2.10 -2.30 -2.55 -4.25 -1.25 -5.15 0.85 -10.45 6.15 -15.45 9.85 -9.25 9.35 -8.65 9.35 -10.90 0 -1.60 -0.20 -2.10 -0.80 -2.10 -0.45 0 -3.75 1.25 -7.30 2.80 -4.40 1.90 -6.65 2.65 -7 2.30 -0.75 -0.75 0.35 -2.45 3.45 -5.35 2.65 -2.55 3.45 -4.70 2.05 -5.55 -1.20 -0.75 -5.45 -0.10 -10.45 1.60 -7.50 2.55 -7.45 2.55 -7.45 1.05 0 -0.90 0.50 -1.55 1.75 -2.35 2.45 -1.50 5.75 -5.40 5.75 -6.80 0 -1.90 -1.55 -1.55 -9.05 2.05 -7.85 3.75 -9.95 4.35 -9.95 2.90 0 -0.50 0.95 -1.85 2.05 -2.90 2.25 -2.20 3.60 -4.75 3.15 -5.95 -0.15 -0.45 -0.45 -0.80 -0.65 -0.80 -0.15 0 -2.90 1.10 -6.05 2.45 -3.15 1.30 -6.25 2.55 -6.85 2.75 -1.85 0.60 -1.40 -0.95 0.85 -3 1.05 -0.95 2.65 -2.80 3.45 -4.05 2.60 -3.90 0.70 -4.45 -6.85 -2.10 -3.35 1.05 -4.30 0.90 -3.85 -0.55 0.15 -0.45 0.05 -1.45 -0.20 -2.20 -0.60 -1.55 -2.25 -1.70 -4.85 -0.50 -2.05 1 -2.45 0.70 -2.30 -1.55 0.30 -3 -1.20 -2.70 -5.45 1.10 -1.50 1.35 -1.95 2.15 -1.95 3.40 0 2.35 -1.75 7.70 -3.25 9.90 -0.95 1.40 -1.65 1.85 -2.70 1.85 -3.60 0 -3.20 -7.85 0.60 -11.90 0.90 -0.95 1.15 -1.90 1.30 -5.10 0.15 -3.85 0.10 -4 -1.35 -5.50 -2 -1.95 -3.80 -1.95 -7.95 0.10 -3.35 1.65 -7.60 5.80 -10.70 10.45 -1.85 2.80 -1.85 3.85 -0.05 4.25 0.75 0.15 1.65 0.40 2.05 0.50 1.60 0.50 4.85 -0.95 6.85 -3.10 2.25 -2.35 2.75 -2.60 3.65 -1.50 0.50 0.55 -0.35 2.65 -4.15 10.20 -2.60 5.25 -5 9.70 -5.35 9.85 -0.30 0.20 -0.85 0.05 -1.25 -0.35 -0.60 -0.55 -0.60 -1.05 -0.20 -2.10 0.25 -0.75 0.50 -2.40 0.50 -3.65 0 -2.05 -0.25 -2.50 -2.45 -4.70 -1.30 -1.35 -2.70 -2.45 -3.10 -2.45 -0.40 0 -2.65 3.35 -5 7.40 -2.35 4.05 -7.80 13.30 -12.05 20.60 -11.45 19.65 -11 18.80 -10.30 19.40 1.15 0.90 10.85 5.60 11.65 5.60 0.70 0 5.75 -9.25 5.75 -10.50 0 -0.80 -3.85 -2.50 -5.70 -2.50 -1.25 0 -2 0.35 -2.70 1.25 -1.15 1.40 -1.55 1.50 -2.75 0.60 -0.80 -0.55 -0.70 -1.05 1.90 -6.50 2.60 -5.60 2.85 -5.90 4.15 -5.75 1.20 0.15 1.35 0.30 1.20 1.85 -0.30 2.95 0.25 3.95 2.90 5.30 1.35 0.70 2.70 1.25 2.95 1.25 0.60 0 5.05 -9.30 5.05 -10.60 0 -0.50 -0.60 -1.55 -1.30 -2.25 -0.95 -0.95 -1.20 -1.60 -1 -2.45 0.20 -0.65 0.55 -1.20 0.90 -1.20 0.30 0 3.10 1.25 6.25 2.75 4.95 2.40 5.70 2.95 5.55 3.90 -0.15 0.95 -0.45 1.10 -2.45 1.10 -1.25 0 -2.70 0.30 -3.15 0.70 -0.90 0.75 -5.30 9.10 -5.30 10.05 0 0.60 5.80 3.50 6.90 3.50 0.40 0 1.35 -0.65 2.20 -1.50 1.65 -1.65 2.75 -1.90 3.25 -0.75 0.15 0.45 -0.95 3.35 -2.40 6.55 -2.45 5.25 -2.80 5.70 -3.95 5.60 -1.10 -0.15 -1.25 -0.35 -1.10 -1.90 0.25 -3 -0.20 -3.75 -3.35 -5.45 -1.60 -0.85 -3.15 -1.55 -3.45 -1.55 -0.40 0 -5.60 10.05 -5.60 10.80 0 0.30 11.95 6.20 12.55 6.20 0.45 0 13.45 -25.90 13.45 -26.90 0 -0.20 0.45 -0.90 0.95 -1.55 l0.95 -1.25 3.70 1.70 c7.90 3.60 27.65 13.55 28.35 14.20 0.60 0.65 0.15 1.85 -3.40 9.05 -2.20 4.60 -4.05 8.50 -4.05 8.70 0 0.65 11.70 6.05 13.15 6.05 2 0 4.95 -1.65 6.10 -3.45 0.95 -1.50 2.40 -2 2.95 -1.10 0.20 0.25 -1.80 4.90 -4.45 10.30 -3.80 7.90 -4.90 9.80 -5.60 9.65 -0.65 -0.15 -0.85 -0.55 -0.75 -1.40 0.05 -0.70 0.20 -2.55 0.25 -4.10 0.10 -2.65 -0.05 -3 -1.65 -4.65 -1.10 -1.15 -3.75 -2.80 -6.95 -4.30 -2.85 -1.35 -5.25 -2.45 -5.35 -2.45 -0.35 0 -8.70 17.10 -8.70 17.80 0 0.65 21.25 11.70 22.55 11.70 0.25 0 4.35 -7.80 9 -17.30 4.70 -9.50 8.80 -17.35 9.20 -17.50 0.50 -0.20 16.25 7.25 17.20 8.10 0.10 0.10 -1.55 3.90 -3.70 8.40 -2.15 4.55 -3.75 8.55 -3.60 8.95 0.15 0.40 1.05 0.85 1.95 1.05 3 0.55 6.10 2.95 8.10 6.25 2.10 3.40 3.15 3.80 4.70 1.80z m-124.45 -42.55 c2.90 -3.65 -1.30 -8.45 -5.40 -6.20 -1.55 0.80 -2.30 3.25 -1.55 5 0.80 1.90 1.75 2.45 4.10 2.50 1.40 0 2.05 -0.30 2.85 -1.30z"/>
 </g>
 <g fill="none">
  <path d="M0 68 l0 -68 88 0 88 0 0 68 0 68 -88 0 -88 0 0 -68z m130.90 65.20 c8.05 -4.70 14.25 -17.15 16.55 -32.95 1.05 -7.50 2.30 -18.85 3 -28.25 0.60 -7.25 1.20 -9.80 5.20 -22.25 1.80 -5.50 3.65 -11.35 4.10 -13 2.55 -8.90 5.95 -12.20 10.45 -10.20 2.55 1.20 3 7.55 0.65 9.20 -1.40 1 -3.55 0.95 -4.60 -0.05 -1.20 -1.20 -0.75 -2.35 1.15 -2.80 1.25 -0.35 1.60 -0.70 1.60 -1.60 0 -1.55 -1.20 -2.50 -2.70 -2.10 -0.80 0.20 -1.50 1.05 -2.30 2.90 -1 2.35 -1.05 2.75 -0.40 3.90 2.30 4.15 9.30 2.95 10.85 -1.90 2.05 -6.45 -2.70 -11.85 -9.25 -10.50 -1.35 0.25 -2.75 0.50 -3.10 0.55 -0.35 0.05 -1.05 -1.05 -1.55 -2.55 -1.05 -3.05 -2.10 -4.35 -4.65 -5.65 -2.55 -1.30 -4.40 -1.20 -6.70 0.35 -4.95 3.30 -7.15 9.20 -4.70 12.35 1.15 1.40 2.40 1.80 6.60 1.95 3.65 0.15 4.90 -0.85 4.90 -3.85 0 -2.85 -1.50 -4.75 -3.70 -4.75 -3.45 0 -4.50 2.75 -1.20 3.10 1.40 0.10 1.65 0.35 1.65 1.40 0 1.10 -0.25 1.25 -2.15 1.40 -4.30 0.30 -5.90 -2.45 -3.35 -5.90 2.70 -3.65 6.75 -4.70 8.70 -2.20 2 2.55 2.70 5.90 2.40 11.90 -0.30 6.50 -1.25 9.70 -5.60 18.45 -3.30 6.60 -6.50 11.10 -10.80 15.05 -4.25 3.95 -7.40 5.45 -10.70 5.20 -2.95 -0.25 -4.60 -1.30 -6.50 -4.15 -2.80 -4.20 -0.85 -8.95 6.25 -15.15 7.90 -6.95 8.70 -7.80 10.95 -12.25 1.20 -2.40 2.05 -4.50 1.85 -4.70 -0.15 -0.20 -2.30 -0.05 -4.70 0.35 -2.40 0.35 -5.25 0.70 -6.35 0.70 -1.80 0.05 -2 -0.05 -1.90 -1.10 0.10 -0.60 0.70 -2 1.40 -3.10 1.25 -1.95 1.60 -3.50 0.90 -3.50 -0.25 0 -3 0.45 -6.15 1 -3.15 0.55 -6.15 0.85 -6.60 0.70 -1.25 -0.35 -1.10 -1.80 0.35 -4.70 2.40 -4.75 1.60 -5 -7 -1.95 -3.50 1.20 -6.05 1.85 -6.30 1.60 -0.25 -0.25 0.15 -2.25 1.05 -4.90 0.80 -2.45 1.50 -4.60 1.50 -4.85 0 -0.80 -1.40 -0.40 -5.55 1.55 -4.90 2.30 -5.95 2.10 -4.65 -0.85 1.80 -4.20 2.05 -4.05 -4.95 -2.55 -2.70 0.55 -5.60 0.95 -6.50 0.85 -1.70 -0.15 -1.65 0 -1 -4 0.35 -2.20 0.30 -2.25 -3.65 -0.90 -4.35 1.45 -4.70 1.35 -4.70 -1 l0 -2 -2.15 0 c-2.35 0 -5.55 1.75 -7.80 4.20 -1.80 1.90 -2.55 1.70 -2.55 -0.80 -0.05 -2.75 -1.55 -6.05 -3.25 -7.20 -1.85 -1.20 -5.50 -1.10 -8.20 0.30 -2.30 1.15 -9.70 8.40 -13.45 13.10 -2.65 3.40 -3.55 3.60 -6.30 1.30 -3.05 -2.50 -4 -5.70 -2.70 -9.30 0.55 -1.50 0.55 -1.75 -0.30 -2.40 -0.50 -0.35 -1.15 -0.55 -1.40 -0.40 -0.25 0.15 -2.60 4.60 -5.20 9.80 -3.65 7.40 -4.55 9.70 -4.15 10.20 0.95 1.15 1.85 0.80 3.70 -1.25 2.25 -2.50 4.10 -3.25 7.30 -2.95 4.65 0.45 4.65 0.55 -1.70 10.95 -3.10 5.05 -9.65 15.80 -14.55 23.85 -7.40 12.15 -9.25 14.90 -10.90 15.90 -5.10 3.25 -5.25 10.15 -0.30 13.20 4.15 2.50 10 0.05 11.15 -4.65 0.20 -0.75 0.70 -1.35 1.05 -1.35 1.35 0 5.70 2.50 5.70 3.25 0 0.40 -2.05 4.85 -4.55 9.80 -2.45 5 -4.45 9.40 -4.35 9.85 0.25 1.20 6.25 5.25 12.65 8.45 5.10 2.60 16.25 7.15 17.50 7.15 0.30 0 1.95 -3.05 3.70 -6.70 1.75 -3.70 3.60 -7.15 4.15 -7.65 0.65 -0.60 1.80 -0.90 3.35 -0.90 2 0 2.30 -0.15 2.45 -1.10 0.15 -0.95 -0.60 -1.50 -5.55 -3.95 -5.55 -2.80 -7.35 -3.15 -7.35 -1.50 0 0.40 0.55 1.30 1.25 2 0.70 0.70 1.25 1.85 1.25 2.55 0 1.85 -4.75 11.75 -5.65 11.75 -2.65 0 -17.80 -7.25 -22.20 -10.60 -0.40 -0.30 0.55 -2.80 3.45 -8.80 2.20 -4.60 4.10 -8.45 4.20 -8.55 0.10 -0.15 3.85 1.50 8.35 3.60 4.45 2.15 8.35 3.85 8.65 3.85 0.25 0 1 -1.05 1.60 -2.35 0.60 -1.35 3.75 -7.85 6.95 -14.50 4.20 -8.65 6.15 -12.15 6.70 -12.15 1.10 0 24.15 11.35 24.35 12 0.10 0.25 -4.10 9.25 -9.35 19.95 -5.25 10.70 -9.55 19.75 -9.55 20.05 0 0.65 29.15 15 30.40 14.95 0.60 0 3.25 -4.95 9.05 -16.85 4.55 -9.25 8.50 -17.15 8.85 -17.50 0.45 -0.55 1.40 -0.25 5.10 1.60 2.50 1.25 4.65 2.45 4.80 2.70 0.15 0.25 -1.45 3.80 -3.50 7.90 -2.85 5.75 -4.20 7.85 -5.80 9.15 -3.55 3 -4.25 6.45 -2.20 10.80 3.40 7.35 12.75 10.70 19.20 6.95z"/>
  <path d="M121.60 131 c-1.15 -0.55 -3.35 -2.20 -4.85 -3.70 -2.50 -2.50 -2.75 -2.90 -2.75 -5 0 -4.90 3.90 -6.40 9.35 -3.65 4.75 2.45 7.65 5.80 7.65 8.90 0 0.55 -0.75 1.80 -1.70 2.75 -2 2 -4.30 2.25 -7.70 0.70z"/>
  <path d="M131.70 120.95 c-2 -3.30 -5.10 -5.70 -8.10 -6.25 -0.90 -0.20 -1.80 -0.65 -1.95 -1.05 -0.15 -0.40 1.45 -4.40 3.60 -8.95 2.15 -4.50 3.80 -8.30 3.70 -8.40 -0.95 -0.85 -16.70 -8.30 -17.20 -8.10 -0.40 0.15 -4.50 8 -9.20 17.50 -4.65 9.50 -8.75 17.30 -9 17.30 -1.30 0 -22.55 -11.05 -22.55 -11.70 0 -0.70 8.35 -17.80 8.70 -17.80 0.10 0 2.50 1.10 5.35 2.45 3.20 1.50 5.85 3.15 6.95 4.30 1.60 1.65 1.75 2 1.65 4.65 -0.05 1.55 -0.20 3.40 -0.25 4.10 -0.10 0.85 0.10 1.25 0.75 1.40 0.70 0.15 1.80 -1.75 5.60 -9.65 2.65 -5.40 4.65 -10.05 4.45 -10.30 -0.55 -0.90 -2 -0.40 -2.95 1.10 -1.15 1.80 -4.10 3.45 -6.10 3.45 -1.45 0 -13.15 -5.40 -13.15 -6.05 0 -0.20 1.85 -4.10 4.05 -8.70 3.55 -7.20 4 -8.40 3.40 -9.05 -0.70 -0.65 -20.45 -10.60 -28.35 -14.20 l-3.70 -1.70 -0.95 1.25 c-0.50 0.65 -0.95 1.35 -0.95 1.55 0 1 -13 26.90 -13.45 26.90 -0.60 0 -12.55 -5.90 -12.55 -6.20 0 -0.75 5.20 -10.80 5.60 -10.80 0.30 0 1.85 0.70 3.45 1.55 3.15 1.70 3.60 2.45 3.35 5.45 -0.15 1.55 0 1.75 1.10 1.90 1.15 0.10 1.50 -0.35 3.95 -5.60 1.45 -3.20 2.55 -6.10 2.40 -6.55 -0.50 -1.15 -1.60 -0.90 -3.25 0.75 -0.85 0.85 -1.80 1.50 -2.20 1.50 -1.10 0 -6.90 -2.90 -6.90 -3.50 0 -0.95 4.40 -9.30 5.30 -10.05 0.45 -0.40 1.90 -0.70 3.15 -0.70 2 0 2.30 -0.15 2.45 -1.10 0.15 -0.95 -0.60 -1.50 -5.55 -3.90 -3.15 -1.50 -5.95 -2.75 -6.25 -2.75 -0.35 0 -0.70 0.55 -0.90 1.20 -0.20 0.85 0.05 1.50 1 2.45 0.70 0.70 1.30 1.75 1.30 2.25 0 1.30 -4.45 10.60 -5.05 10.60 -0.25 0 -1.60 -0.55 -2.95 -1.25 -2.65 -1.35 -3.20 -2.35 -2.90 -5.30 0.15 -1.55 0 -1.70 -1.20 -1.85 -1.30 -0.15 -1.55 0.15 -4.15 5.75 -2.60 5.45 -2.70 5.95 -1.90 6.50 1.20 0.90 1.60 0.80 2.75 -0.60 0.70 -0.90 1.45 -1.25 2.70 -1.25 1.85 0 5.70 1.70 5.70 2.50 0 1.25 -5.05 10.50 -5.75 10.50 -0.80 0 -10.50 -4.70 -11.65 -5.60 -0.70 -0.60 -1.15 0.25 10.30 -19.40 4.25 -7.30 9.70 -16.55 12.05 -20.60 2.35 -4.05 4.60 -7.40 5 -7.40 0.40 0 1.80 1.10 3.10 2.45 2.20 2.20 2.45 2.65 2.45 4.70 0 1.25 -0.25 2.90 -0.50 3.65 -0.40 1.05 -0.40 1.55 0.20 2.10 0.40 0.40 0.95 0.55 1.25 0.35 0.35 -0.15 2.75 -4.60 5.35 -9.85 3.80 -7.55 4.65 -9.65 4.15 -10.20 -0.90 -1.10 -1.40 -0.85 -3.65 1.50 -2 2.15 -5.25 3.60 -6.85 3.10 -0.40 -0.10 -1.30 -0.35 -2.05 -0.50 -1.80 -0.40 -1.80 -1.45 0.05 -4.25 3.10 -4.65 7.35 -8.80 10.70 -10.45 4.15 -2.05 5.95 -2.05 7.95 -0.10 1.45 1.50 1.50 1.65 1.35 5.50 -0.15 3.20 -0.40 4.15 -1.30 5.10 -3.80 4.05 -4.20 11.90 -0.60 11.90 1.05 0 1.75 -0.45 2.70 -1.85 1.50 -2.20 3.25 -7.55 3.25 -9.90 0 -1.25 0.45 -2.05 1.95 -3.40 4.25 -3.80 5.75 -4.10 5.45 -1.10 -0.15 2.25 0.25 2.55 2.30 1.55 2.60 -1.20 4.25 -1.05 4.85 0.50 0.25 0.75 0.35 1.75 0.20 2.20 -0.45 1.45 0.50 1.60 3.85 0.55 7.55 -2.35 9.45 -1.80 6.85 2.10 -0.80 1.25 -2.40 3.10 -3.45 4.05 -2.25 2.05 -2.70 3.60 -0.85 3 0.60 -0.20 3.70 -1.45 6.85 -2.75 3.15 -1.35 5.90 -2.45 6.05 -2.45 0.20 0 0.50 0.35 0.65 0.80 0.45 1.20 -0.90 3.75 -3.15 5.95 -1.10 1.05 -2.05 2.40 -2.05 2.90 0 1.45 2.10 0.85 9.95 -2.90 7.50 -3.60 9.05 -3.95 9.05 -2.05 0 1.40 -3.30 5.30 -5.75 6.80 -1.25 0.80 -1.75 1.45 -1.75 2.35 0 1.50 -0.05 1.50 7.45 -1.05 5 -1.70 9.25 -2.35 10.45 -1.60 1.40 0.85 0.60 3 -2.05 5.55 -3.10 2.90 -4.20 4.60 -3.45 5.35 0.35 0.35 2.60 -0.40 7 -2.30 3.55 -1.55 6.85 -2.80 7.30 -2.80 0.60 0 0.80 0.50 0.80 2.10 0 2.25 0.50 1.65 -9.35 10.90 -5.30 5 -7.40 10.30 -6.15 15.45 0.45 1.95 1.05 2.95 2.55 4.25 2.90 2.45 5.60 3.10 10.10 2.35 4.75 -0.80 8.30 -2.45 11.10 -5.25 1.25 -1.25 2.40 -2.30 2.50 -2.30 0.55 0 0.20 5.30 -0.75 12.10 -0.55 3.95 -1.25 8.95 -1.55 11.15 -1.40 10.55 -2.15 14.95 -3.50 20.40 -2.40 9.60 -4.85 14.85 -6.95 14.85 -0.60 0 -1.60 -1.10 -2.80 -3.05z"/>
  <path d="M6.45 81 c-1.45 -0.85 -2.15 -3.30 -1.45 -5 1.15 -2.80 4.60 -3.45 6.75 -1.25 2.55 2.50 0.85 6.75 -2.65 6.75 -1 0 -2.20 -0.25 -2.65 -0.50z"/>
 </g>
</svg>
