<?xml version="1.0" encoding="utf-8"?>
<!DOCTYPE svg PUBLIC "-//W3C//DTD SVG 1.0//EN" "http://www.w3.org/TR/2001/REC-SVG-20010904/DTD/svg10.dtd">
<svg version="1.0" xmlns="http://www.w3.org/2000/svg" width="133px" height="113px" viewBox="0 0 133 113" preserveAspectRatio="xMidYMid meet">
 <g fill="#000000">
  <path d="M61 110.90 c-4.25 -2.15 -6.45 -7.30 -5 -11.65 0.75 -2.30 3.50 -5.40 5.50 -6.25 l1.50 -0.60 -0.05 -17.60 c-0.05 -9.65 -0.20 -21 -0.40 -25.20 l-0.30 -7.70 -11.95 17.20 c-6.60 9.40 -13.80 19.75 -16.05 22.90 -2.25 3.15 -4.70 6.65 -5.45 7.80 l-1.35 2.05 1.55 2.85 c2.20 4.20 1.85 7.75 -1.10 11.10 -2.80 3.15 -6.20 4.15 -10.20 2.95 -7 -2.05 -9.20 -10.80 -4 -15.95 2.15 -2.20 5.85 -3.65 7.75 -3.15 0.55 0.15 1.30 0 1.70 -0.35 0.40 -0.30 3.90 -5.15 7.85 -10.80 3.95 -5.65 10.05 -14.40 13.60 -19.45 3.55 -5.05 6.40 -9.45 6.30 -9.80 -0.15 -0.70 -22.65 -18.75 -23.30 -18.75 -0.25 0 -1.50 1.35 -2.85 3 l-2.35 3.05 1.10 6.10 c0.60 3.35 1.15 6.35 1.25 6.65 0.10 0.30 0 0.85 -0.25 1.20 -0.30 0.45 -2.95 -1.30 -9.80 -6.50 -5.20 -3.95 -9.55 -7.25 -9.65 -7.30 -0.50 -0.45 0.65 -0.80 6.90 -2.15 3.65 -0.80 6.80 -1.65 7 -1.90 2.50 -3 4.05 -5.15 4.05 -5.60 0 -0.25 -1.25 -1.50 -2.80 -2.75 l-2.80 -2.30 -8.20 0 c-5.50 0 -8.20 -0.20 -8.20 -0.55 0 -0.70 14.50 -19.45 15.05 -19.45 0.50 0 0.60 0.45 1.90 7.25 1.65 8.70 1.70 8.85 5.10 11.50 l3.10 2.40 1.45 -1.70 c2.15 -2.50 2.30 -3.20 2.70 -10.65 0.20 -3.75 0.50 -6.95 0.70 -7.05 0.55 -0.35 16.80 15.55 16.40 16.05 -0.25 0.20 -3.55 1 -7.40 1.75 -6.15 1.20 -7.10 1.50 -8.20 2.75 -0.70 0.80 -1.25 1.70 -1.15 2 0.05 0.35 5.25 4.70 11.50 9.75 8.90 7.10 11.60 9.05 12.20 8.65 0.45 -0.25 2.15 -2.45 3.80 -4.85 l3 -4.40 -2.15 -2.05 c-2.55 -2.45 -3.50 -4.55 -3.50 -7.75 0.05 -10.75 14.35 -14.65 19.75 -5.40 2.65 4.50 2.15 8.80 -1.50 12.60 -1.25 1.30 -2.25 2.55 -2.25 2.85 0 0.30 1.45 2.65 3.30 5.20 2.30 3.30 3.45 4.50 3.95 4.25 1.50 -0.85 23.25 -18.40 23.25 -18.75 0 -0.20 -0.60 -1.10 -1.40 -1.95 -1.20 -1.35 -2.05 -1.65 -7.35 -2.75 -8.30 -1.65 -8.35 -1.65 -8.15 -2.35 0.30 -1.10 16 -15.95 16.40 -15.55 0.25 0.25 0.60 3.60 0.75 7.45 0.40 6.95 0.40 7 2.10 9.40 0.95 1.30 1.85 2.35 2 2.35 0.40 0 5.45 -3.90 6.10 -4.70 0.45 -0.55 2.05 -7.65 3.25 -14.40 0.20 -1.05 0.60 -1.90 0.95 -1.90 0.70 0 15.10 18.70 15.10 19.60 0 0.50 -1.85 0.60 -8.10 0.50 l-8.15 -0.20 -3 2.40 c-1.65 1.30 -3 2.55 -3 2.75 0 0.25 1 1.75 2.25 3.35 l2.30 2.95 6.70 1.40 c3.80 0.80 6.75 1.65 6.70 1.95 0 0.80 -19.05 14.90 -19.50 14.45 -0.20 -0.25 0.20 -3.55 0.90 -7.40 l1.30 -7.05 -2.40 -3.10 c-1.35 -1.70 -2.60 -3.10 -2.80 -3.10 -0.20 0 -1 0.55 -1.80 1.20 -0.75 0.65 -6 4.80 -11.65 9.25 -5.65 4.45 -10.30 8.25 -10.40 8.45 -0.05 0.25 4.75 7.35 10.70 15.85 5.90 8.55 12.25 17.65 14.10 20.30 l3.35 4.85 3.05 0.20 c6.60 0.40 10.75 6.15 8.95 12.30 -1.50 5 -4.85 7.35 -10 7 -3.60 -0.20 -5.85 -1.50 -7.80 -4.30 -1 -1.50 -1.20 -2.40 -1.20 -5.35 0 -3.15 0.20 -3.90 1.35 -5.50 1.60 -2.25 1.80 -1.75 -3.60 -9.45 -4.45 -6.35 -15.90 -22.80 -24.25 -34.80 l-6 -8.65 -0.30 11.45 c-0.20 6.30 -0.35 17.75 -0.40 25.50 l-0.05 14.05 1.85 1.20 c6.35 4.15 5.45 13.75 -1.60 17 -2.70 1.25 -5.55 1.20 -8.25 -0.15z m7.45 -2.90 c4.60 -2.30 4.60 -9.10 0 -11.60 -4.55 -2.45 -9.70 0.60 -9.70 5.70 0 2.75 1.25 4.75 3.80 6 2.20 1.15 3.55 1.15 5.90 -0.10z m48.15 -2.85 c1.95 -1.95 2.45 -5.60 1.20 -8.10 -2.35 -4.50 -9.15 -4.75 -11.80 -0.40 -1.95 3.15 -0.95 7.45 2.15 9.40 2.45 1.55 6.40 1.10 8.45 -0.90z m-92.50 0.05 c2.45 -1.25 3.90 -4.65 3.20 -7.40 -0.50 -2.05 -2.75 -4.25 -4.90 -4.85 -4.40 -1.15 -8.40 1.95 -8.40 6.45 0 5.45 5.05 8.35 10.10 5.80z m45.45 -73.45 c4.80 -2.50 4.55 -10.50 -0.40 -12.60 -3.40 -1.40 -7.25 -0.15 -9.15 3 -1.25 2 -1.25 4 -0.05 6.65 1.50 3.35 6.10 4.75 9.60 2.95z"/>
 </g>
 <g fill="none">
  <path d="M0 56.50 l0 -56.50 66.50 0 66.50 0 0 56.50 0 56.50 -66.50 0 -66.50 0 0 -56.50z m69.25 54.55 c7.05 -3.25 7.95 -12.85 1.60 -17 l-1.85 -1.20 0.05 -14.05 c0.05 -7.75 0.20 -19.20 0.40 -25.50 l0.30 -11.45 6 8.65 c8.35 12 19.80 28.45 24.25 34.80 5.40 7.70 5.20 7.20 3.60 9.45 -1.15 1.60 -1.35 2.35 -1.35 5.50 0 2.95 0.20 3.85 1.20 5.35 1.95 2.80 4.20 4.10 7.80 4.30 5.15 0.35 8.50 -2 10 -7 1.80 -6.15 -2.35 -11.90 -8.95 -12.30 l-3.05 -0.20 -3.35 -4.85 c-1.85 -2.65 -8.20 -11.75 -14.10 -20.30 -5.95 -8.50 -10.75 -15.60 -10.70 -15.85 0.10 -0.20 4.75 -4 10.40 -8.45 5.65 -4.45 10.90 -8.60 11.65 -9.25 0.80 -0.65 1.60 -1.20 1.80 -1.20 0.20 0 1.45 1.40 2.80 3.10 l2.40 3.10 -1.30 7.05 c-0.70 3.85 -1.10 7.15 -0.90 7.40 0.45 0.45 19.50 -13.65 19.50 -14.45 0.05 -0.30 -2.90 -1.15 -6.70 -1.95 l-6.70 -1.40 -2.30 -2.95 c-1.25 -1.60 -2.25 -3.10 -2.25 -3.35 0 -0.20 1.35 -1.45 3 -2.75 l3 -2.40 8.15 0.20 c6.25 0.10 8.10 0 8.10 -0.50 0 -0.90 -14.40 -19.60 -15.10 -19.60 -0.35 0 -0.75 0.85 -0.95 1.90 -1.20 6.75 -2.80 13.85 -3.25 14.40 -0.65 0.80 -5.70 4.70 -6.10 4.70 -0.15 0 -1.05 -1.05 -2 -2.35 -1.70 -2.40 -1.70 -2.45 -2.10 -9.40 -0.15 -3.85 -0.50 -7.20 -0.75 -7.45 -0.40 -0.40 -16.10 14.45 -16.40 15.55 -0.20 0.70 -0.15 0.70 8.15 2.35 5.30 1.10 6.15 1.40 7.35 2.75 0.80 0.85 1.40 1.75 1.40 1.95 0 0.35 -21.75 17.90 -23.25 18.75 -0.50 0.25 -1.65 -0.95 -3.95 -4.25 -1.85 -2.55 -3.30 -4.90 -3.30 -5.20 0 -0.30 1 -1.55 2.25 -2.85 3.65 -3.80 4.15 -8.10 1.50 -12.60 -5.40 -9.25 -19.70 -5.35 -19.75 5.40 0 3.20 0.95 5.30 3.50 7.75 l2.15 2.05 -3 4.40 c-1.65 2.40 -3.35 4.60 -3.80 4.85 -0.60 0.40 -3.30 -1.55 -12.20 -8.65 -6.25 -5.05 -11.45 -9.40 -11.50 -9.75 -0.10 -0.30 0.45 -1.20 1.15 -2 1.10 -1.25 2.05 -1.55 8.20 -2.75 3.85 -0.75 7.15 -1.55 7.40 -1.75 0.40 -0.50 -15.85 -16.40 -16.40 -16.05 -0.20 0.10 -0.50 3.30 -0.70 7.05 -0.40 7.45 -0.55 8.15 -2.70 10.65 l-1.45 1.70 -3.10 -2.40 c-3.40 -2.65 -3.45 -2.80 -5.10 -11.50 -1.30 -6.80 -1.40 -7.25 -1.90 -7.25 -0.55 0 -15.05 18.75 -15.05 19.45 0 0.35 2.70 0.55 8.20 0.55 l8.20 0 2.80 2.30 c1.55 1.25 2.80 2.50 2.80 2.75 0 0.45 -1.55 2.60 -4.05 5.60 -0.20 0.25 -3.35 1.10 -7 1.90 -6.25 1.35 -7.40 1.70 -6.90 2.15 0.10 0.05 4.45 3.35 9.65 7.30 6.85 5.20 9.50 6.95 9.80 6.50 0.25 -0.35 0.35 -0.90 0.25 -1.20 -0.10 -0.30 -0.65 -3.30 -1.25 -6.65 l-1.10 -6.10 2.35 -3.05 c1.35 -1.65 2.60 -3 2.85 -3 0.65 0 23.15 18.05 23.30 18.75 0.10 0.35 -2.75 4.75 -6.30 9.80 -3.55 5.05 -9.65 13.80 -13.60 19.45 -3.95 5.65 -7.45 10.50 -7.85 10.80 -0.40 0.35 -1.15 0.50 -1.70 0.35 -1.90 -0.50 -5.60 0.95 -7.75 3.15 -7.75 7.70 1.55 20.35 11.35 15.40 3 -1.50 5.45 -5.65 5.45 -9.25 0 -0.75 -0.70 -2.65 -1.50 -4.25 l-1.55 -2.85 1.35 -2.05 c0.75 -1.15 3.20 -4.65 5.45 -7.80 2.25 -3.15 9.45 -13.50 16.05 -22.90 l11.95 -17.20 0.30 7.70 c0.20 4.20 0.35 15.55 0.40 25.20 l0.05 17.60 -1.50 0.60 c-2 0.85 -4.75 3.95 -5.50 6.25 -2.55 7.80 5.80 15.25 13.25 11.80z"/>
  <path d="M62.55 108.10 c-2.55 -1.25 -3.80 -3.25 -3.80 -6 0 -5.10 5.15 -8.15 9.70 -5.70 4.60 2.50 4.60 9.30 0 11.60 -2.35 1.25 -3.70 1.25 -5.90 0.10z"/>
  <path d="M108.15 106.05 c-3.10 -1.95 -4.10 -6.25 -2.15 -9.40 2.65 -4.35 9.45 -4.10 11.80 0.40 1.25 2.50 0.75 6.15 -1.20 8.10 -2.05 2 -6 2.45 -8.45 0.90z"/>
  <path d="M17.75 105.50 c-2.50 -1.25 -3.75 -3.25 -3.75 -6.10 0 -3 1.40 -5.10 4.15 -6.15 5.05 -1.90 10.15 2.15 9.15 7.40 -0.85 4.40 -5.60 6.85 -9.55 4.85z"/>
  <path d="M62.55 31.65 c-1.85 -0.95 -3.50 -3.90 -3.55 -6.40 0 -3.15 2.85 -6.15 6.35 -6.60 4.25 -0.55 7.65 2.50 7.65 6.85 0 5.50 -5.35 8.65 -10.45 6.15z"/>
 </g>
</svg>
