<?xml version="1.0" encoding="utf-8"?>
<!DOCTYPE svg PUBLIC "-//W3C//DTD SVG 1.0//EN" "http://www.w3.org/TR/2001/REC-SVG-20010904/DTD/svg10.dtd">
<svg version="1.0" xmlns="http://www.w3.org/2000/svg" width="165px" height="140px" viewBox="0 0 165 140" preserveAspectRatio="xMidYMid meet">
 <g fill="#000000">
  <path d="M56.65 135.65 c-4.95 -5.80 -13.15 -16.15 -13.15 -16.65 0 -0.30 2.80 -0.50 7.25 -0.50 8.40 0 7.90 0.35 7.65 -5.75 l-0.15 -3.50 -2.90 -0.15 c-3.35 -0.15 -5.20 0.70 -5.45 2.50 -0.10 0.75 -0.55 1.20 -1.25 1.30 -1.15 0.15 -1.15 0.10 -1.15 -5.60 0 -5.70 0 -5.80 1.15 -5.80 0.80 0 1.30 0.45 1.70 1.50 0.70 1.80 2.50 2.60 5.60 2.40 l2.30 -0.15 0 -3.45 0 -3.45 -3.35 -1.15 c-10.50 -3.55 -17.70 -10 -20.10 -18 -1.45 -4.90 -1.60 -5.10 -3.90 -5.75 -3.20 -0.85 -10.55 -0.35 -13.90 0.95 -3.60 1.45 -8.65 5.30 -10.55 8.10 -1.35 2 -1.50 2.60 -1.35 5.10 0.40 5.20 4.85 9.90 9.45 9.90 2 0 2.75 -0.25 4.25 -1.60 2.40 -2.10 3.70 -5 3.65 -8.15 0 -2.70 -0.50 -3.70 -2.40 -4.70 -1.75 -0.95 -2.35 -0.05 -1.65 2.35 0.85 2.80 0.75 4.80 -0.25 5.75 -2.30 2.05 -6.55 1.35 -8.20 -1.35 -2 -3.30 -0.75 -7.65 2.90 -9.65 3.05 -1.65 4.80 -1.85 7.35 -0.75 4.90 2.20 6.80 8.80 4.10 14.35 -2.15 4.35 -6.70 7.75 -10.40 7.75 -5.55 0 -12.90 -7.65 -12.90 -13.30 0.05 -3.05 1.55 -5.65 5.30 -9.20 5.60 -5.25 12.15 -7.95 20.20 -8.25 2.35 -0.10 4.45 -0.20 4.65 -0.20 0.25 -0.05 -0.80 -1.50 -2.30 -3.25 -3.50 -4.15 -5.55 -9.30 -6.85 -17.65 -1.20 -7.30 -1.40 -9.70 -1.45 -16.30 l-0.05 -4.90 -2.35 0.15 -2.40 0.15 -0.15 5.95 c-0.15 6.45 0.35 8.10 2.50 8.40 0.75 0.10 1.20 0.55 1.30 1.25 l0.15 1.15 -7.75 0 c-7.75 0 -7.80 0 -7.80 -1.10 0 -0.80 0.55 -1.40 1.65 -1.90 1.60 -0.75 1.60 -0.75 1.90 -5.50 0.20 -2.60 0.35 -7.90 0.40 -11.80 0.05 -7.55 -0.20 -8.30 -2.70 -8.80 -0.75 -0.10 -1 -0.55 -1 -1.90 l0 -1.75 7.75 0 7.75 0 0.15 1.55 c0.15 1.40 -0.05 1.70 -1.75 2.50 -2 1 -2.50 2.05 -2.60 5.55 -0.05 1.85 0.10 2.15 1.15 2.45 0.65 0.15 1.85 0.20 2.60 0.10 l1.45 -0.15 0.55 -5.80 c0.75 -7.65 1.60 -11.05 3.25 -13.70 1.85 -2.90 3.90 -3.95 7.70 -4 5.15 0 6.75 1.75 6.75 7.30 0 4.10 1.40 6.80 4.05 7.85 1.05 0.40 1.95 0.95 1.95 1.20 0 0.60 -16.50 0.30 -16.55 -0.30 0 -0.30 1.05 -0.75 2.30 -1.10 3.05 -0.75 3.70 -1.50 4.55 -5 1.35 -5.70 0.70 -7.20 -3.05 -7.20 -5.20 0 -8.70 6.90 -8.75 17.15 l0 3.85 12.50 0 12.50 0 0.10 -9.85 0.15 -9.90 13.75 -0.10 c7.55 -0.10 19.70 0.05 27 0.25 l13.25 0.35 0 10 0 10 9.70 0.25 c5.30 0.15 9.85 0.10 10.10 -0.05 0.30 -0.15 0.65 -4.60 0.80 -9.85 l0.30 -9.60 3.05 0 c7.15 0 16.10 2.95 22.60 7.40 8.65 5.80 14.70 16.05 14.70 24.75 0 1.80 0.20 2.80 0.50 2.60 0.30 -0.20 0.50 0.35 0.50 1.35 0 1.10 -0.15 1.40 -0.45 1 -0.25 -0.40 -0.50 1.30 -0.65 4.25 -0.60 10.50 -6.35 21.95 -15.50 30.95 -4.20 4.10 -10.80 9.30 -15.10 11.80 l-2.35 1.40 0.15 7.10 0.15 7.15 3 0.15 c3.90 0.15 5.95 -1 6.80 -3.90 0.35 -1.10 0.90 -2 1.30 -2 0.95 0 0.75 15.05 -0.20 15.40 -0.35 0.10 -0.80 -0.25 -0.95 -0.75 -1 -3.15 -1.70 -4.10 -3.55 -4.60 -1.05 -0.30 -2.85 -0.55 -4 -0.55 -2.75 0 -3.35 1.05 -3 5.35 0.20 2.60 0.50 3.50 1.60 4.65 0.75 0.75 2 1.55 2.85 1.70 2.65 0.55 1.35 1.55 -1.90 1.50 -1.60 -0.05 -5.05 -0.10 -7.55 -0.10 -3.75 -0.10 -4.65 -0.25 -4.65 -0.85 0 -0.45 0.45 -0.75 1.25 -0.75 0.70 0 1.95 -0.65 2.85 -1.45 1.60 -1.45 1.65 -1.55 1.65 -5.65 l0 -4.15 -2.80 -0.15 c-2.45 -0.15 -3.05 0.05 -4.35 1.15 -0.95 0.80 -1.70 2 -1.90 3.05 -0.20 1 -0.60 1.70 -1 1.70 -0.60 0 -0.70 -1.35 -0.60 -7.85 0.15 -6.55 0.30 -7.90 0.90 -7.90 0.40 0 0.85 0.70 1.05 1.75 0.50 2.40 2.30 3.80 5.45 4.15 1.45 0.20 2.85 0.20 3.05 0.05 0.65 -0.40 0.55 -11.70 -0.05 -11.70 -0.30 0 -1.35 0.40 -2.40 0.95 -3.65 1.85 -13.95 5 -19.70 6 -7.05 1.25 -17 1.40 -20.60 0.35 -1.35 -0.40 -3.25 -1.35 -4.35 -2.10 -1.90 -1.30 -1.95 -1.30 -6.05 -0.70 -2.25 0.30 -5.55 0.50 -7.35 0.40 l-3.30 -0.15 -0.25 2.25 c-0.45 3.75 -0.25 4 2.85 4 3.35 0 4.40 -0.50 5.10 -2.55 0.40 -1.20 0.75 -1.50 1.65 -1.35 1.10 0.15 1.15 0.35 1.30 5.35 0.15 5.20 -0.20 6.55 -1.70 6.55 -0.40 0 -1 -0.80 -1.40 -1.75 -0.85 -1.95 -2.35 -2.75 -5.25 -2.75 -2.70 0 -3.10 0.75 -2.95 5.35 l0.15 3.90 7.10 0.25 c3.90 0.15 7.25 0.45 7.45 0.65 0.20 0.20 -0.10 0.85 -0.65 1.50 -0.55 0.60 -4.20 4.80 -8.15 9.35 -3.95 4.55 -7.55 8.30 -8 8.40 -0.55 0.10 -1.80 -0.95 -3.35 -2.75z m7.35 -7.75 c2.20 -2.55 4 -4.75 4 -4.95 0 -0.45 -15.20 -0.95 -15.65 -0.45 -0.35 0.30 6.95 10 7.50 10 0.05 0 1.95 -2.05 4.15 -4.60z m36.10 -28.60 c5.75 -1.05 22 -6.70 26.15 -9.15 0.95 -0.55 1 -1.20 1.15 -12.80 0.15 -12.15 0.15 -12.25 -1 -13.55 -0.85 -1 -1.80 -1.40 -3.80 -1.65 -2.85 -0.30 -3.25 -0.60 -2.80 -1.85 0.25 -0.70 1.45 -0.80 8.45 -0.80 9.85 0 11.35 0.25 11.15 1.70 -0.15 0.90 -0.60 1.10 -2.85 1.30 -2.05 0.25 -2.95 0.60 -3.80 1.60 -1.05 1.20 -1.10 1.90 -1.45 11.65 -0.25 6.95 -0.20 10.55 0.15 10.90 0.65 0.65 6.05 -2.90 11.15 -7.30 15.95 -13.95 21.70 -32.65 15.45 -50.55 -1.55 -4.40 -3.15 -6.80 -6.70 -10.10 -5.50 -5.15 -13 -8.55 -19.90 -9.05 l-3.80 -0.30 -0.30 2.70 c-0.20 1.50 -0.35 6.15 -0.35 10.35 l0 7.60 -7.60 0 c-4.20 0 -10.50 -0.15 -14 -0.35 l-6.40 -0.30 0 -9.85 0 -9.85 -9.90 -0.35 c-5.50 -0.15 -10.30 -0.20 -10.75 0 -0.75 0.25 -0.85 1.40 -0.85 9.15 0 4.90 -0.15 13.65 -0.35 19.45 l-0.30 10.55 1.30 0.30 c0.70 0.20 2.10 0.10 3.05 -0.25 2.30 -0.75 5.30 -4.10 5.30 -5.90 0 -1.90 0.80 -3 1.55 -2.25 0.85 0.85 0.10 21.65 -0.80 21.65 -0.35 0 -0.75 -0.95 -0.95 -2.10 -0.70 -4.25 -3.30 -6.80 -7.20 -7.05 l-1.85 -0.10 -0.15 3.75 c-0.30 6.60 1.60 9.75 6.20 10.40 1.75 0.25 2.50 0.60 2.60 1.25 0.15 0.80 -0.60 0.85 -10.05 0.85 -5.65 0 -10.60 -0.15 -11.05 -0.30 -1.40 -0.55 -0.90 -1.70 0.70 -1.70 2.20 0 5.40 -1.80 6.50 -3.65 0.80 -1.30 1 -2.50 1 -6.20 l0 -4.65 -1.55 0 c-3.65 0 -6.95 2.95 -7.45 6.70 -0.20 1.65 -0.45 2.10 -1.40 2.20 l-1.10 0.15 0.10 -10.40 c0.15 -10.15 0.15 -10.40 1.20 -10.55 0.90 -0.15 1.10 0.20 1.40 1.80 0.35 2.30 1.80 4.30 3.80 5.35 1.90 0.95 4.80 1 5.15 0 0.25 -0.50 0.55 -33.70 0.35 -38.10 0 -0.50 -2.45 -0.65 -10.45 -0.65 l-10.40 0 -0.30 4.15 c-0.20 2.25 -0.35 8.80 -0.35 14.50 l0 10.40 1.70 1 c1.85 1.10 3.80 4.40 3.80 6.50 0 0.70 -0.50 2.25 -1.10 3.45 -3.60 6.95 -13.90 4.30 -13.90 -3.55 0 -2.85 1.50 -5.30 4.15 -6.70 l1.85 -1 0 -4.10 c0 -2.25 -0.20 -4.20 -0.45 -4.40 -0.25 -0.15 -5.80 -0.40 -12.30 -0.60 -9.35 -0.25 -11.90 -0.20 -12.25 0.35 -1.70 2.75 1.40 26.60 4.30 32.75 1.35 2.90 4.80 6.50 5.80 6.10 0.40 -0.10 1 -1.15 1.40 -2.30 0.85 -2.65 4.55 -6.50 7.75 -8.05 3.10 -1.55 6.25 -1.55 9.05 -0.10 3.20 1.60 4.70 3.75 4.70 6.45 0 2.05 -0.25 2.55 -1.95 4.20 -2.50 2.30 -8.15 5.20 -11.90 6 -3.75 0.80 -4.30 1.25 -3.95 3.15 2 10.05 14.85 17.80 29.40 17.80 5.60 0 5.70 -0.10 5 -4.35 -1.10 -7.05 1 -13.35 4.80 -14.30 2.80 -0.65 8 2.65 9.40 6 1.55 3.70 0.05 9 -3.50 12 -1.65 1.45 -1.65 2.40 0 3.50 3.25 2.10 9.45 2.65 16.30 1.45z m-18.75 -7.55 c3.65 -3.10 4.55 -6.70 2.45 -9.50 -3.95 -5.15 -8.75 -2.20 -8.15 5 0.25 3.40 1.60 6.25 2.85 6.25 0.45 0 1.75 -0.80 2.85 -1.75z m-65.05 -3.05 c0.45 -1.75 -0.35 -4.70 -1.45 -5.40 -1.35 -0.85 -3.55 0.60 -3.75 2.50 -0.35 3.40 4.40 6.05 5.20 2.90z m25.80 -17.75 c4.40 -0.95 9.70 -3.60 10.60 -5.40 0.75 -1.40 0.75 -1.70 0.05 -3 -2.20 -4.25 -7.70 -4 -12.25 0.55 -3.25 3.20 -4.45 8.40 -2 8.40 0.50 0 2.15 -0.25 3.60 -0.55z m10.60 -23.05 c1.85 -2.65 0.25 -5.90 -2.90 -5.90 -1.85 0 -3.80 1.80 -3.80 3.50 0 0.50 0.45 1.45 1.05 2.20 1.35 1.75 4.50 1.85 5.65 0.20z"/>
 </g>
 <g fill="none">
  <path d="M0 70 l0 -70 82.50 0 82.50 0 0 20.45 c0 13.15 -0.20 20.60 -0.50 20.80 -0.30 0.20 -0.50 -0.80 -0.50 -2.60 0 -8.70 -6.05 -18.95 -14.70 -24.75 -6.50 -4.45 -15.45 -7.40 -22.60 -7.40 l-3.05 0 -0.30 9.60 c-0.15 5.25 -0.50 9.70 -0.80 9.85 -0.25 0.15 -4.80 0.20 -10.10 0.05 l-9.70 -0.25 0 -10 0 -10 -13.25 -0.35 c-7.30 -0.20 -19.45 -0.35 -27 -0.25 l-13.75 0.10 -0.15 9.90 -0.10 9.85 -12.50 0 -12.50 0 0 -3.85 c0.05 -10.25 3.55 -17.15 8.75 -17.15 3.75 0 4.40 1.50 3.05 7.20 -0.85 3.50 -1.50 4.25 -4.55 5 -4.25 1.10 -2.70 1.55 5.90 1.70 4.60 0.05 8.35 -0.05 8.35 -0.30 0 -0.25 -0.90 -0.80 -1.95 -1.20 -2.65 -1.05 -4.05 -3.75 -4.05 -7.85 0 -5.55 -1.60 -7.30 -6.75 -7.30 -7.10 0.05 -9.60 4.05 -10.95 17.70 l-0.55 5.80 -1.45 0.15 c-0.75 0.10 -1.95 0.05 -2.60 -0.10 -1.05 -0.30 -1.20 -0.60 -1.15 -2.45 0.10 -3.50 0.60 -4.55 2.60 -5.55 1.70 -0.80 1.90 -1.10 1.75 -2.50 l-0.15 -1.55 -7.75 0 -7.75 0 0 1.75 c0 1.35 0.25 1.80 1 1.90 2.50 0.50 2.75 1.25 2.70 8.80 -0.05 3.90 -0.20 9.20 -0.40 11.80 -0.30 4.75 -0.30 4.75 -1.90 5.50 -1.10 0.50 -1.65 1.10 -1.65 1.90 0 1.10 0.05 1.10 7.80 1.10 l7.75 0 -0.15 -1.15 c-0.10 -0.70 -0.55 -1.15 -1.30 -1.25 -2.15 -0.30 -2.65 -1.95 -2.50 -8.40 l0.15 -5.95 2.40 -0.15 2.35 -0.15 0.05 4.90 c0.05 6.60 0.25 9 1.45 16.30 1.30 8.35 3.35 13.50 6.85 17.65 1.50 1.75 2.55 3.20 2.30 3.25 -0.20 0 -2.30 0.10 -4.65 0.20 -8.05 0.30 -14.60 3 -20.20 8.25 -3.75 3.55 -5.25 6.15 -5.30 9.20 0 5.65 7.35 13.30 12.90 13.30 3.70 0 8.25 -3.40 10.40 -7.75 2.70 -5.55 0.80 -12.15 -4.10 -14.35 -4.90 -2.15 -11.20 1.75 -11.20 6.90 0 3.90 3.45 6.85 6.90 5.95 3 -0.75 3.75 -2.75 2.50 -6.85 -0.70 -2.40 -0.10 -3.30 1.65 -2.35 1.90 1 2.40 2 2.40 4.70 0.05 3.15 -1.25 6.05 -3.65 8.15 -1.50 1.35 -2.25 1.60 -4.25 1.60 -4.60 0 -9.05 -4.70 -9.45 -9.90 -0.15 -2.50 0 -3.10 1.35 -5.10 1.90 -2.80 6.95 -6.65 10.55 -8.10 3.35 -1.30 10.70 -1.80 13.90 -0.95 2.30 0.65 2.45 0.85 3.90 5.75 2.40 8 9.60 14.45 20.10 18 l3.35 1.15 0 3.45 0 3.45 -2.30 0.15 c-3.10 0.20 -4.90 -0.60 -5.60 -2.40 -0.40 -1.05 -0.90 -1.50 -1.70 -1.50 -1.15 0 -1.15 0.10 -1.15 5.80 0 5.70 0 5.75 1.15 5.60 0.70 -0.10 1.15 -0.55 1.25 -1.30 0.25 -1.80 2.10 -2.65 5.45 -2.50 l2.90 0.15 0.15 3.50 c0.25 6.10 0.75 5.75 -7.65 5.75 -4.45 0 -7.25 0.20 -7.25 0.50 0 0.50 8.20 10.85 13.15 16.65 1.55 1.80 2.80 2.85 3.35 2.75 0.45 -0.10 4.05 -3.85 8 -8.40 3.95 -4.55 7.60 -8.75 8.15 -9.35 0.55 -0.65 0.85 -1.30 0.65 -1.50 -0.20 -0.20 -3.55 -0.50 -7.45 -0.65 l-7.10 -0.25 -0.15 -3.90 c-0.15 -4.60 0.25 -5.35 2.95 -5.35 2.90 0 4.40 0.80 5.25 2.75 0.40 0.95 1 1.75 1.40 1.75 1.50 0 1.85 -1.35 1.70 -6.55 -0.15 -5 -0.20 -5.20 -1.30 -5.35 -0.90 -0.15 -1.25 0.15 -1.65 1.35 -0.70 2.05 -1.75 2.55 -5.10 2.55 -3.10 0 -3.30 -0.25 -2.85 -4 l0.25 -2.25 3.30 0.15 c1.80 0.10 5.10 -0.10 7.35 -0.40 4.10 -0.60 4.15 -0.60 6.05 0.70 1.10 0.75 3 1.70 4.35 2.10 3.60 1.05 13.55 0.90 20.60 -0.35 5.75 -1 16.05 -4.15 19.70 -6 1.05 -0.55 2.10 -0.95 2.40 -0.95 0.60 0 0.70 11.30 0.05 11.70 -0.20 0.15 -1.60 0.15 -3.05 -0.05 -3.15 -0.35 -4.95 -1.75 -5.45 -4.15 -0.20 -1.05 -0.65 -1.75 -1.05 -1.75 -0.60 0 -0.75 1.35 -0.90 7.90 -0.10 6.50 0 7.85 0.60 7.85 0.40 0 0.80 -0.70 1 -1.70 0.20 -1.05 0.95 -2.25 1.90 -3.05 1.30 -1.10 1.90 -1.30 4.35 -1.15 l2.80 0.15 0 4.15 c0 4.10 -0.05 4.20 -1.65 5.65 -0.90 0.80 -2.15 1.45 -2.85 1.45 -0.80 0 -1.25 0.30 -1.25 0.75 0 0.60 0.90 0.75 4.65 0.85 2.50 0 5.95 0.05 7.55 0.10 3.25 0.05 4.55 -0.95 1.90 -1.50 -0.85 -0.15 -2.10 -0.95 -2.85 -1.70 -1.10 -1.15 -1.40 -2.05 -1.60 -4.65 -0.35 -4.30 0.25 -5.35 3 -5.35 1.15 0 2.95 0.25 4 0.55 1.85 0.50 2.55 1.45 3.55 4.60 0.15 0.50 0.60 0.85 0.95 0.75 0.95 -0.35 1.15 -15.40 0.20 -15.40 -0.40 0 -0.95 0.90 -1.30 2 -0.85 2.90 -2.90 4.05 -6.80 3.90 l-3 -0.15 -0.15 -7.15 -0.15 -7.10 2.35 -1.40 c4.30 -2.50 10.90 -7.70 15.10 -11.80 9.15 -9 14.90 -20.45 15.50 -30.95 0.15 -2.95 0.40 -4.65 0.65 -4.25 0.25 0.35 0.45 22.20 0.45 48.55 l0 47.85 -82.50 0 -82.50 0 0 -70z"/>
  <path d="M55.80 127.70 c-2.15 -2.65 -3.70 -5 -3.45 -5.20 0.45 -0.50 15.65 0 15.65 0.45 0 0.35 -7.90 9.55 -8.15 9.55 -0.10 0 -1.90 -2.15 -4.05 -4.80z"/>
  <path d="M87.40 99.30 c-2.80 -0.75 -4.90 -2.05 -4.90 -3.05 0 -0.40 0.60 -1.25 1.30 -1.90 3.55 -3 5.05 -8.30 3.50 -12 -1.40 -3.35 -6.60 -6.65 -9.40 -6 -3.80 0.95 -5.90 7.25 -4.80 14.30 0.70 4.25 0.60 4.35 -5 4.35 -14.55 0 -27.40 -7.75 -29.40 -17.80 -0.35 -1.90 0.20 -2.35 3.95 -3.15 3.75 -0.80 9.40 -3.70 11.90 -6 1.70 -1.65 1.95 -2.15 1.95 -4.20 0 -2.70 -1.50 -4.85 -4.70 -6.45 -2.80 -1.45 -5.95 -1.45 -9.05 0.10 -3.20 1.55 -6.90 5.40 -7.75 8.05 -0.40 1.15 -1 2.20 -1.40 2.30 -1 0.40 -4.45 -3.20 -5.80 -6.10 -2.90 -6.15 -6 -30 -4.30 -32.75 0.35 -0.55 2.90 -0.60 12.25 -0.35 6.50 0.20 12.05 0.45 12.30 0.60 0.25 0.20 0.45 2.15 0.45 4.40 l0 4.10 -1.85 1 c-2.65 1.40 -4.15 3.85 -4.15 6.70 0 7.85 10.30 10.50 13.90 3.55 0.60 -1.20 1.10 -2.75 1.10 -3.45 0 -2.10 -1.95 -5.40 -3.80 -6.50 l-1.70 -1 0 -10.40 c0 -5.70 0.15 -12.25 0.35 -14.50 l0.30 -4.15 10.40 0 c8 0 10.45 0.15 10.45 0.65 0.20 4.40 -0.10 37.60 -0.35 38.10 -0.35 1 -3.25 0.95 -5.15 0 -2 -1.05 -3.45 -3.05 -3.80 -5.35 -0.30 -1.60 -0.50 -1.95 -1.40 -1.80 -1.05 0.15 -1.05 0.40 -1.20 10.55 l-0.10 10.40 1.10 -0.15 c0.95 -0.10 1.20 -0.55 1.40 -2.20 0.50 -3.75 3.80 -6.70 7.45 -6.70 l1.55 0 0 4.65 c0 3.70 -0.20 4.90 -1 6.20 -1.10 1.85 -4.30 3.65 -6.50 3.65 -1.60 0 -2.10 1.15 -0.70 1.70 0.45 0.15 5.40 0.30 11.05 0.30 9.45 0 10.20 -0.05 10.05 -0.85 -0.10 -0.65 -0.85 -1 -2.60 -1.25 -4.60 -0.65 -6.50 -3.80 -6.20 -10.40 l0.15 -3.75 1.85 0.10 c3.90 0.25 6.50 2.80 7.20 7.05 0.20 1.15 0.60 2.10 0.95 2.10 0.90 0 1.65 -20.80 0.80 -21.65 -0.75 -0.75 -1.55 0.35 -1.55 2.25 0 1.80 -3 5.15 -5.30 5.90 -0.95 0.35 -2.35 0.45 -3.05 0.25 l-1.30 -0.30 0.30 -10.55 c0.20 -5.80 0.35 -14.55 0.35 -19.45 0 -7.75 0.10 -8.90 0.85 -9.15 0.45 -0.20 5.25 -0.15 10.75 0 l9.90 0.35 0 9.85 0 9.85 6.40 0.30 c3.50 0.20 9.80 0.35 14 0.35 l7.60 0 0 -7.60 c0 -4.20 0.15 -8.85 0.35 -10.35 l0.30 -2.70 3.80 0.30 c6.90 0.50 14.40 3.90 19.90 9.05 3.55 3.30 5.15 5.70 6.70 10.10 6.25 17.90 0.50 36.60 -15.45 50.55 -5.10 4.40 -10.50 7.95 -11.15 7.30 -0.35 -0.35 -0.40 -3.95 -0.15 -10.90 0.35 -9.75 0.40 -10.45 1.45 -11.65 0.85 -1 1.75 -1.35 3.80 -1.60 2.25 -0.20 2.70 -0.40 2.85 -1.30 0.20 -1.45 -1.30 -1.70 -11.15 -1.70 -7 0 -8.20 0.10 -8.45 0.80 -0.45 1.25 -0.05 1.55 2.80 1.85 2 0.25 2.95 0.65 3.80 1.65 1.15 1.30 1.15 1.40 1 13.55 -0.15 11.60 -0.20 12.25 -1.15 12.80 -4.15 2.45 -20.40 8.10 -26.15 9.15 -4.75 0.80 -9.60 0.85 -12.70 0z"/>
  <path d="M76.80 91.95 c-1.35 -2.30 -1.65 -7.35 -0.55 -9.65 1.15 -2.45 2.70 -3.15 4.75 -2.30 2 0.85 4 3.45 4 5.20 0 2.10 -1.40 4.65 -3.65 6.55 -2.50 2.15 -3.40 2.20 -4.55 0.20z"/>
  <path d="M12 88.65 c-1.45 -1.85 -1.20 -4.15 0.60 -5.15 1.05 -0.55 1.60 -0.60 2.25 -0.20 1.10 0.70 1.90 3.65 1.45 5.40 -0.45 1.85 -2.80 1.80 -4.30 -0.05z"/>
  <path d="M37.20 70.30 c-0.40 -1.60 1.20 -5.15 3.30 -7.20 4.55 -4.55 10.05 -4.80 12.25 -0.55 0.70 1.30 0.70 1.60 -0.05 3 -0.90 1.80 -6.20 4.45 -10.60 5.40 -3.90 0.80 -4.55 0.70 -4.90 -0.65z"/>
  <path d="M47.05 47.70 c-0.60 -0.75 -1.05 -1.70 -1.05 -2.20 0 -1.70 1.95 -3.50 3.80 -3.50 3.15 0 4.75 3.25 2.90 5.90 -1.15 1.65 -4.30 1.55 -5.65 -0.20z"/>
 </g>
</svg>
