<?xml version="1.0" encoding="utf-8"?>
<!DOCTYPE svg PUBLIC "-//W3C//DTD SVG 1.0//EN" "http://www.w3.org/TR/2001/REC-SVG-20010904/DTD/svg10.dtd">
<svg version="1.0" xmlns="http://www.w3.org/2000/svg" width="147px" height="143px" viewBox="0 0 147 143" preserveAspectRatio="xMidYMid meet">
 <g fill="#000000">
  <path d="M56 140.75 c0 -0.40 1.20 -1.60 2.65 -2.70 3.55 -2.70 4.50 -4.50 4.55 -8.55 l0.05 -3.25 -1.70 -0.15 c-2.75 -0.25 -4.15 0.35 -6.40 2.75 -1.50 1.60 -2.40 2.15 -2.95 1.95 -0.75 -0.30 -0.80 -0.85 -0.55 -4.45 0.20 -2.25 0.35 -5.60 0.35 -7.45 0 -1.90 0.20 -3.40 0.40 -3.40 0.25 0 1.75 1.35 3.40 2.95 2.90 2.90 5.50 4.10 7.35 3.40 0.80 -0.30 1.35 -13.30 1.35 -30.90 l0 -10.30 -2.35 -0.30 c-1.35 -0.15 -2.70 -0.05 -3 0.25 -0.45 0.35 -0.65 2.50 -0.65 7.45 l0 7 -7.60 -0.15 -7.65 -0.15 -0.25 -7.25 -0.25 -7.25 -11 -0.25 c-6.05 -0.20 -11.10 -0.35 -11.15 -0.40 -0.10 -0.05 0 -14.35 0.20 -31.70 0.25 -17.40 0.45 -33 0.45 -34.65 l0 -3 -3.05 -0.15 c-3 -0.15 -3.10 -0.10 -4.05 1.55 -1.75 2.90 -5.50 4.05 -8.85 2.65 -3.50 -1.45 -5 -5.25 -3.60 -9.05 1.15 -2.90 3.25 -4.25 6.80 -4.25 2.35 0 2.80 0.20 4.50 1.90 1 1 1.95 2.10 2.05 2.45 0.15 0.40 3.70 0.70 12.55 0.95 l12.30 0.35 -0.05 22.05 -0.10 22.05 8.25 0 8.25 0 0.25 -16.35 c0.15 -8.95 0.40 -16.45 0.55 -16.60 0.15 -0.15 10.50 -0.15 23 0.05 l22.70 0.40 0.05 15.50 c0.05 8.55 0.10 15.80 0.15 16.15 0.05 0.45 1.75 0.60 6.75 0.60 l6.65 0 0.35 -3.85 c0.15 -2.10 0.30 -5.60 0.30 -7.80 l0 -4 14.10 0.40 c7.80 0.20 14.35 0.45 14.60 0.60 0.45 0.30 -0.05 38.45 -0.50 39.25 -0.15 0.20 -2.95 0.40 -6.25 0.40 l-5.95 0 0 6.45 c0 3.55 -0.15 6.80 -0.30 7.25 -0.25 0.65 -1.10 0.80 -4.25 0.80 -2.85 0 -4.05 0.20 -4.25 0.65 -0.15 0.40 -0.30 4.60 -0.35 9.40 l-0.10 8.70 1.50 0 c1.20 0 1.65 -0.30 2.20 -1.60 0.55 -1.20 1.05 -1.65 1.90 -1.65 1.15 0 1.15 0.05 1.15 5.80 l0 5.75 -1.35 -0.15 c-0.95 -0.10 -1.45 -0.50 -1.55 -1.15 -0.30 -1.50 -1.65 -2.80 -2.80 -2.65 -0.85 0.10 -1.10 0.55 -1.20 2.50 -0.15 2.45 0 2.75 2.90 4.85 1.05 0.80 1.15 1.05 0.55 1.75 -0.60 0.70 -1.55 0.80 -5.75 0.70 -4.75 -0.15 -5.05 -0.20 -5.20 -1.25 -0.10 -0.80 0.25 -1.30 1.35 -1.90 1.85 -0.95 2.55 -2.15 2.55 -4.50 0 -2.05 -0.95 -2.65 -2.80 -1.80 -0.75 0.35 -1.35 1.10 -1.55 2.05 -0.20 1.20 -0.50 1.50 -1.35 1.40 -1 -0.15 -1.05 -0.50 -1.20 -5.60 -0.05 -3 0.05 -5.65 0.30 -5.90 0.65 -0.65 1.75 0 2.85 1.75 0.70 1.10 1.40 1.60 2.25 1.60 l1.25 0 0 -9.25 0 -9.25 -4 -0.25 -4 -0.25 -0.25 -5.25 -0.25 -5.25 -2.85 -0.15 c-1.60 -0.10 -2.95 -0.10 -3 0 -0.05 0.10 -0.25 6.70 -0.40 14.65 l-0.25 14.50 -7.20 0.15 -7.20 0.15 0.20 -24.65 0.20 -24.65 -2 0 -2 0 -0.15 5.75 c-0.05 3.15 -0.30 14.20 -0.50 24.50 l-0.35 18.75 -6 0 -6 0 0.10 -24.60 0.10 -24.65 -1.20 -0.30 c-0.60 -0.15 -1.70 -0.20 -2.30 -0.10 -1.15 0.15 -1.20 0.40 -1.50 4.65 -0.20 2.50 -0.40 16.65 -0.50 31.50 l-0.20 27 1.20 0.15 c2.25 0.35 3.30 -0.35 5.20 -3.40 1.80 -2.90 3.40 -3.90 3.95 -2.35 0.15 0.30 0.15 3.80 0 7.75 -0.25 8.30 -0.60 8.70 -4.05 4.60 -1.95 -2.30 -2.30 -2.50 -4.30 -2.50 -2.65 0 -3 0.75 -2.50 4.95 0.30 2.65 0.50 2.95 3.80 6.15 1.90 1.85 3.45 3.60 3.45 3.90 0 0.30 -3.30 0.50 -9.50 0.50 -8 0 -9.50 -0.10 -9.50 -0.75z m45.05 -39 c0.20 -1.65 0.35 -8.20 0.40 -14.55 0.05 -8.80 0.20 -11.65 0.70 -11.85 0.30 -0.10 3.35 -0.10 6.75 0.05 l6.10 0.25 0 5.10 c0 4.25 0.15 5.20 0.80 5.45 1.55 0.60 12.60 0.35 13.05 -0.30 0.20 -0.35 0.50 -3.70 0.65 -7.40 l0.25 -6.75 5.85 0 c3.20 0 5.90 -0.10 6.05 -0.25 0.15 -0.15 0.30 -7.45 0.40 -16.25 l0.20 -16 -10.25 -0.25 c-5.65 -0.15 -10.55 -0.15 -10.85 -0.05 -0.50 0.10 -0.65 2 -0.65 7.25 0 3.85 -0.20 7.35 -0.40 7.70 -0.35 0.45 -2.80 0.60 -10.65 0.50 l-10.20 -0.15 -0.25 -16.25 -0.25 -16.25 -8.25 0 -8.25 0 -0.15 5.10 -0.15 5.15 2.30 0 c2.70 0 4.30 -0.95 5.80 -3.35 0.75 -1.20 1.35 -1.65 2.15 -1.55 1 0.15 1.05 0.35 1.05 7.90 0 7.55 -0.05 7.75 -1.10 7.90 -0.80 0.10 -1.45 -0.40 -2.60 -2.05 -1.90 -2.75 -3.50 -3.85 -5.80 -3.85 l-1.75 0 0 3.20 c0 3.55 0.75 4.95 3.70 6.75 2 1.25 2.55 2.40 1.70 3.40 -0.50 0.60 -1.85 0.70 -7.15 0.60 -3.55 -0.10 -6.90 -0.35 -7.35 -0.55 -1.50 -0.70 -1.10 -2.35 0.75 -3.15 0.85 -0.35 2.20 -1.15 3 -1.75 1.25 -1 1.35 -1.35 1.35 -4.80 l0 -3.70 -2.45 0 c-1.95 0 -2.80 0.30 -4 1.30 -0.85 0.70 -1.55 1.60 -1.55 2 0 0.80 -1.50 1.65 -2.35 1.35 -0.70 -0.25 -0.90 -7.35 -0.35 -12 0.40 -3.15 1.60 -3.60 3.05 -1.10 1.20 2 3.60 3.45 5.80 3.45 l1.80 0 0.15 -4.60 c0.10 -2.55 0.10 -4.90 0 -5.25 -0.15 -0.45 -2.55 -0.65 -8.45 -0.75 -4.55 -0.10 -8.45 -0.05 -8.65 0.10 -0.20 0.15 -0.55 7.60 -0.75 16.65 l-0.40 16.35 -12.05 -0.10 -12.05 -0.15 0 -22 0 -22 -5.30 -0.15 -5.30 -0.15 -0.30 17.35 c-0.35 16.90 -0.50 48.60 -0.20 48.80 0.05 0.05 5.05 0.20 11.10 0.40 l11 0.25 -0.10 7.10 c-0.10 8.20 -0.40 7.85 5.10 7.55 l3 -0.15 0.15 -7.10 c0.15 -8.25 -0.40 -7.55 6.10 -7.75 l3.75 -0.15 0.25 -10.50 0.25 -10.50 6.25 0 6.25 0 -0.05 3 c-0.05 3.50 -0.25 44.70 -0.20 45.65 0 0.40 0.80 0.60 2.25 0.60 1.90 0 2.25 -0.15 2.45 -1.10 0.15 -0.65 0.35 -11.55 0.45 -24.30 0.10 -15.45 0.35 -23.30 0.70 -23.65 0.40 -0.40 2.30 -0.45 5.90 -0.20 l5.35 0.40 -0.35 24.35 c-0.40 27.70 -0.85 25 4 24.85 l2.50 -0.10 0.30 -3z m-90.50 -91.15 c2.45 -2.05 0.70 -6.25 -2.60 -6.25 -3.15 0 -4.50 3.60 -2.20 5.90 1.45 1.50 3.20 1.60 4.80 0.35z"/>
 </g>
 <g fill="none">
  <path d="M0 71.50 l0 -71.50 73.50 0 73.50 0 0 71.50 0 71.50 -73.50 0 -73.50 0 0 -71.50z m75 69.50 c0 -0.30 -1.55 -2.05 -3.45 -3.90 -3.30 -3.20 -3.50 -3.50 -3.80 -6.15 -0.50 -4.20 -0.15 -4.95 2.50 -4.95 2 0 2.35 0.20 4.30 2.50 3.45 4.10 3.80 3.70 4.05 -4.60 0.15 -3.95 0.15 -7.45 0 -7.75 -0.55 -1.55 -2.15 -0.55 -3.95 2.35 -1.90 3.05 -2.95 3.75 -5.20 3.40 l-1.20 -0.15 0.20 -27 c0.10 -14.85 0.30 -29 0.50 -31.50 0.30 -4.25 0.35 -4.50 1.50 -4.65 0.60 -0.10 1.70 -0.05 2.30 0.10 l1.20 0.30 -0.10 24.65 -0.10 24.60 6 0 6 0 0.35 -18.75 c0.20 -10.30 0.45 -21.35 0.50 -24.50 l0.15 -5.75 2 0 2 0 -0.20 24.65 -0.20 24.65 7.20 -0.15 7.20 -0.15 0.25 -14.50 c0.15 -7.95 0.35 -14.55 0.40 -14.65 0.05 -0.10 1.40 -0.10 3 0 l2.85 0.15 0.25 5.25 0.25 5.25 4 0.25 4 0.25 0 9.25 0 9.25 -1.25 0 c-0.85 0 -1.55 -0.50 -2.25 -1.60 -1.10 -1.75 -2.20 -2.40 -2.85 -1.75 -0.25 0.25 -0.35 2.90 -0.30 5.90 0.15 5.10 0.20 5.45 1.20 5.60 0.85 0.10 1.15 -0.20 1.35 -1.40 0.20 -0.95 0.80 -1.70 1.55 -2.05 1.85 -0.85 2.80 -0.25 2.80 1.80 0 2.35 -0.70 3.55 -2.55 4.50 -1.10 0.60 -1.45 1.10 -1.35 1.90 0.15 1.05 0.45 1.10 5.20 1.25 4.20 0.10 5.15 0 5.75 -0.70 0.60 -0.70 0.50 -0.95 -0.55 -1.75 -2.90 -2.10 -3.05 -2.40 -2.90 -4.85 0.10 -1.95 0.35 -2.40 1.20 -2.50 1.15 -0.15 2.50 1.15 2.80 2.65 0.10 0.65 0.60 1.05 1.55 1.15 l1.35 0.15 0 -5.75 c0 -5.75 0 -5.80 -1.15 -5.80 -0.85 0 -1.35 0.45 -1.90 1.65 -0.55 1.30 -1 1.60 -2.20 1.60 l-1.50 0 0.10 -8.70 c0.05 -4.80 0.20 -9 0.35 -9.40 0.20 -0.45 1.40 -0.65 4.25 -0.65 3.15 0 4 -0.15 4.25 -0.80 0.15 -0.45 0.30 -3.70 0.30 -7.25 l0 -6.45 5.95 0 c3.30 0 6.10 -0.20 6.25 -0.40 0.45 -0.80 0.95 -38.95 0.50 -39.25 -0.25 -0.15 -6.80 -0.40 -14.60 -0.60 l-14.10 -0.40 0 4 c0 2.20 -0.15 5.70 -0.30 7.80 l-0.35 3.85 -6.65 0 c-5 0 -6.70 -0.15 -6.75 -0.60 -0.05 -0.35 -0.10 -7.60 -0.15 -16.15 l-0.05 -15.50 -22.70 -0.40 c-12.50 -0.20 -22.85 -0.20 -23 -0.05 -0.15 0.15 -0.40 7.65 -0.55 16.60 l-0.25 16.35 -8.25 0 -8.25 0 0.10 -22.05 0.05 -22.05 -12.30 -0.35 c-8.85 -0.25 -12.40 -0.55 -12.55 -0.95 -0.10 -0.35 -1.05 -1.45 -2.05 -2.45 -1.70 -1.70 -2.15 -1.90 -4.50 -1.90 -3.55 0 -5.65 1.35 -6.80 4.25 -1.40 3.80 0.10 7.60 3.60 9.05 3.35 1.40 7.10 0.25 8.85 -2.65 0.95 -1.65 1.05 -1.70 4.05 -1.55 l3.05 0.15 0 3 c0 1.65 -0.20 17.25 -0.45 34.65 -0.20 17.35 -0.30 31.65 -0.20 31.70 0.05 0.05 5.10 0.20 11.15 0.40 l11 0.25 0.25 7.25 0.25 7.25 7.65 0.15 7.60 0.15 0 -7 c0 -4.95 0.20 -7.10 0.65 -7.45 0.30 -0.30 1.65 -0.40 3 -0.25 l2.35 0.30 0 10.30 c0 17.60 -0.55 30.60 -1.35 30.90 -1.85 0.70 -4.45 -0.50 -7.35 -3.40 -1.65 -1.60 -3.15 -2.95 -3.40 -2.95 -0.20 0 -0.40 1.50 -0.40 3.40 0 1.85 -0.15 5.20 -0.35 7.45 -0.25 3.60 -0.20 4.15 0.55 4.45 0.55 0.20 1.45 -0.35 2.95 -1.95 2.25 -2.40 3.65 -3 6.40 -2.75 l1.70 0.15 -0.05 3.25 c-0.05 4.05 -1 5.85 -4.55 8.55 -4.40 3.30 -4.05 3.45 6.85 3.45 6.20 0 9.50 -0.20 9.50 -0.50z"/>
  <path d="M94.80 104.65 c-0.90 -0.25 -0.90 -1.05 -0.55 -24.65 l0.35 -24.35 -5.35 -0.40 c-3.60 -0.25 -5.50 -0.20 -5.90 0.20 -0.35 0.35 -0.60 8.20 -0.70 23.65 -0.10 12.75 -0.30 23.65 -0.45 24.30 -0.20 0.95 -0.55 1.10 -2.45 1.10 -1.45 0 -2.25 -0.20 -2.25 -0.60 -0.05 -0.95 0.15 -42.15 0.20 -45.65 l0.05 -3 -6.25 0 -6.25 0 -0.25 10.50 -0.25 10.50 -3.75 0.15 c-6.50 0.20 -5.95 -0.50 -6.10 7.75 l-0.15 7.10 -3 0.15 c-5.50 0.30 -5.20 0.65 -5.10 -7.55 l0.10 -7.10 -11 -0.25 c-6.05 -0.20 -11.05 -0.35 -11.10 -0.40 -0.30 -0.20 -0.15 -31.90 0.20 -48.80 l0.30 -17.35 5.30 0.15 5.30 0.15 0 22 0 22 12.05 0.15 12.05 0.10 0.40 -16.35 c0.20 -9.05 0.55 -16.50 0.75 -16.65 0.20 -0.15 4.10 -0.20 8.65 -0.10 5.90 0.10 8.30 0.30 8.45 0.75 0.10 0.35 0.10 2.70 0 5.25 l-0.15 4.60 -1.80 0 c-2.20 0 -4.60 -1.45 -5.80 -3.45 -1.45 -2.50 -2.65 -2.05 -3.05 1.10 -0.55 4.65 -0.35 11.75 0.35 12 0.85 0.30 2.35 -0.55 2.35 -1.35 0 -0.40 0.70 -1.30 1.55 -2 1.20 -1 2.05 -1.30 4 -1.30 l2.45 0 0 3.70 c0 3.45 -0.10 3.80 -1.35 4.80 -0.80 0.60 -2.15 1.40 -3 1.75 -1.85 0.80 -2.25 2.45 -0.75 3.15 0.45 0.20 3.80 0.45 7.35 0.55 5.30 0.10 6.65 0 7.15 -0.60 0.85 -1 0.30 -2.15 -1.70 -3.40 -2.95 -1.80 -3.70 -3.20 -3.70 -6.75 l0 -3.20 1.75 0 c2.30 0 3.90 1.10 5.80 3.85 1.15 1.65 1.80 2.15 2.60 2.05 1.05 -0.15 1.10 -0.35 1.10 -7.90 0 -7.55 -0.05 -7.75 -1.05 -7.90 -0.80 -0.10 -1.40 0.35 -2.15 1.55 -1.50 2.40 -3.10 3.35 -5.80 3.35 l-2.30 0 0.15 -5.15 0.15 -5.10 8.25 0 8.25 0 0.25 16.25 0.25 16.25 10.20 0.15 c7.85 0.10 10.30 -0.05 10.65 -0.50 0.20 -0.35 0.40 -3.85 0.40 -7.70 0 -5.25 0.15 -7.15 0.65 -7.25 0.30 -0.10 5.20 -0.10 10.85 0.05 l10.25 0.25 -0.20 16 c-0.10 8.80 -0.25 16.10 -0.40 16.25 -0.15 0.15 -2.85 0.25 -6.05 0.25 l-5.85 0 -0.25 6.75 c-0.15 3.70 -0.45 7.05 -0.65 7.40 -0.45 0.65 -11.50 0.90 -13.05 0.30 -0.65 -0.25 -0.80 -1.20 -0.80 -5.45 l0 -5.10 -6.10 -0.25 c-3.40 -0.15 -6.45 -0.15 -6.75 -0.05 -0.50 0.20 -0.65 3.05 -0.70 11.85 -0.05 6.35 -0.20 12.90 -0.40 14.55 l-0.30 3 -2.50 0.10 c-1.35 0 -2.90 -0.05 -3.45 -0.20z"/>
  <path d="M5.75 10.25 c-1.50 -1.45 -1.60 -3.20 -0.35 -4.80 2.05 -2.45 6.25 -0.70 6.25 2.60 0 3.15 -3.60 4.50 -5.90 2.20z"/>
 </g>
</svg>
