<?xml version="1.0" encoding="utf-8"?>
<!DOCTYPE svg PUBLIC "-//W3C//DTD SVG 1.0//EN" "http://www.w3.org/TR/2001/REC-SVG-20010904/DTD/svg10.dtd">
<svg version="1.0" xmlns="http://www.w3.org/2000/svg" width="159px" height="134px" viewBox="0 0 159 134" preserveAspectRatio="xMidYMid meet">
 <g fill="#000000">
  <path d="M75.10 132.45 c-2.35 -0.70 -5.45 -4 -6.10 -6.55 -0.65 -2.35 -0.35 -5.25 0.80 -7.50 0.45 -0.80 0.70 -1.60 0.55 -1.70 -0.10 -0.10 -1.95 -0.65 -4.15 -1.20 -13.60 -3.40 -26.15 -14.60 -31.45 -28.05 -2.50 -6.20 -2.90 -9 -3.20 -21.45 l-0.30 -11.75 -7.30 -0.15 -7.25 -0.15 -1.25 1.90 c-3.20 4.95 -9 5.60 -12.90 1.45 -1.45 -1.55 -2 -5.95 -1.05 -8.30 1.35 -3.20 5 -5 8.75 -4.30 2.10 0.40 5.15 2.90 5.55 4.60 0.30 1.20 0.40 1.20 7.25 1.30 3.80 0 7.25 0.05 7.60 0.10 0.40 0.05 0.65 -0.80 0.75 -2.35 l0.15 -2.35 -3.50 0 c-1.90 0 -3.65 -0.25 -3.80 -0.50 -0.20 -0.30 1.50 -2.65 3.70 -5.20 l4.05 -4.70 0 -4.30 c0 -4.15 -0.05 -4.30 -1.30 -4.60 -2.55 -0.65 -4.55 0.15 -9.10 3.75 -2.45 1.95 -4.70 3.55 -5.05 3.55 -0.40 0 -0.55 -2.65 -0.55 -9.25 0 -8 0.10 -9.25 0.80 -9.25 0.40 0 2.50 1.35 4.60 3 3.85 3 3.90 3 7.25 3 l3.35 0 0 -4 c0 -3.95 0 -4 -2.40 -7.35 -3.40 -4.80 -4.65 -6.95 -4.25 -7.30 0.50 -0.55 20.15 -0.40 20.15 0.10 0 0.30 -1.80 2.65 -4 5.35 l-4 4.80 0 4.20 0 4.20 3.30 0 3.35 0 4.15 -3.50 c2.25 -1.90 4.40 -3.50 4.65 -3.50 0.40 0 0.55 3.45 0.55 10.50 0 8.65 -0.10 10.50 -0.70 10.50 -0.40 0 -2.30 -1.90 -4.25 -4.25 l-3.60 -4.25 -3.75 0 -3.70 0 0 1.40 c0 0.75 -0.15 2.85 -0.30 4.65 l-0.35 3.30 4.10 4.55 c2.20 2.50 4.05 4.65 4.05 4.80 0 0.15 -2.20 0.35 -4.85 0.40 l-4.90 0.15 0 2.25 0 2.25 20.75 0.30 c11.40 0.20 20.90 0.25 21.15 0.10 0.20 -0.10 0.35 -1.20 0.35 -2.40 0 -2.55 -0.35 -2.75 -4.55 -2.75 -2.50 0 -2.95 -0.15 -2.95 -0.85 0 -0.50 1.70 -3.15 3.75 -5.90 l3.75 -5 0 -3.30 0 -3.35 -2.60 -0.20 c-1.45 -0.15 -3 -0.05 -3.45 0.15 -0.40 0.20 -2.65 2.10 -4.95 4.20 -2.30 2.05 -4.40 3.70 -4.70 3.60 -0.60 -0.20 -0.40 -19.95 0.25 -20.60 0.30 -0.30 1.80 0.85 4.10 3.15 l3.65 3.65 4 -0.15 3.95 -0.15 0.15 -4.15 0.15 -4.20 -4.05 -5.35 c-2.20 -3 -4 -5.55 -4 -5.75 0 -0.50 19.90 -0.35 20.20 0.15 0.20 0.25 -1.45 2.65 -3.55 5.35 l-3.90 4.95 -0.30 4 c-0.15 2.20 -0.15 4.30 -0.05 4.60 0.15 0.45 1.45 0.65 4.30 0.65 l4.10 0 3.20 -3.25 c1.75 -1.80 3.50 -3.25 3.85 -3.25 0.50 0 0.65 2.30 0.65 10.50 0 7.75 -0.15 10.50 -0.60 10.50 -0.30 0 -2.55 -1.90 -4.95 -4.25 l-4.30 -4.25 -3.10 0 -3.05 0 0 3.65 0 3.65 3.50 4.85 c1.95 2.65 3.50 5.20 3.50 5.60 0 0.55 -0.60 0.75 -2.10 0.85 -2 0.05 -3.20 0.15 -4.75 0.35 -0.40 0 -0.65 0.85 -0.65 2.30 0 1.40 0.25 2.35 0.65 2.45 0.30 0.15 9.75 0.35 20.95 0.50 l20.40 0.25 0.30 -1.20 c0.15 -0.70 0.15 -1.80 0 -2.50 -0.30 -1.20 -0.40 -1.25 -5.05 -1.25 -2.60 0 -4.75 -0.20 -4.75 -0.45 0 -0.20 1.80 -2.30 4 -4.60 l4 -4.20 0 -4.85 0 -4.90 -3.85 0 -3.90 0 -3.70 4.30 c-2.50 2.90 -3.85 4.10 -4.20 3.75 -0.60 -0.60 -0.50 -20.10 0.10 -20.70 0.25 -0.25 2.40 1.30 4.75 3.35 l4.35 3.80 3.25 0 3.20 0 0 -4.30 0 -4.30 -3.50 -4.45 c-3.85 -4.90 -4.45 -5.90 -3.45 -6 1.75 -0.10 10.15 0.10 14.60 0.35 3.25 0.25 4.85 0.55 4.85 0.95 0 0.30 -1.55 2.80 -3.50 5.50 l-3.50 4.95 0 3.65 0 3.65 3.70 0 3.70 0 3.50 -2.75 c1.95 -1.50 3.90 -2.75 4.30 -2.75 0.75 0 0.80 1.05 0.70 9.10 -0.10 6.35 -0.30 9.15 -0.75 9.25 -0.30 0.10 -2 -1 -3.75 -2.45 -5.75 -4.85 -5.80 -4.90 -8.65 -4.90 -3.05 0 -3.25 0.30 -3.25 5.35 l0 3.10 3.80 4.70 c2.10 2.65 3.85 4.95 3.90 5.20 0 0.20 -1.65 0.50 -3.70 0.65 l-3.75 0.25 0 2.25 0 2.25 7.60 0.15 7.60 0.15 0.75 -1.40 c3.35 -6.50 13 -5.45 14.25 1.50 0.85 4.65 -1.15 8.35 -5.05 9.40 -3.75 1 -6.85 -0.40 -9.20 -4.15 l-1.25 -1.95 -7.35 0.15 -7.35 0.15 -0.30 11 c-0.30 9.70 -0.50 11.55 -1.65 15.60 -3.50 12.65 -12.70 24.05 -23.90 29.70 -3.15 1.60 -10 3.95 -11.45 3.95 -0.50 0 -1.45 0.20 -2.15 0.50 l-1.25 0.45 1.05 2.35 c1.90 4.35 0.40 9.35 -3.65 12.05 -2.15 1.40 -6.60 1.95 -9.35 1.10z m7.65 -3.75 c4.60 -3 3.50 -10.20 -1.75 -11.75 -7 -2.10 -12.25 5.75 -7.20 10.80 0.90 0.95 2.15 1.80 2.80 1.90 1.80 0.40 4.85 -0.10 6.15 -0.95z m9.40 -16.50 c6.75 -1.80 15.75 -7.40 20.60 -12.80 3.35 -3.70 6.75 -9.05 8.30 -13.10 2.35 -6.15 2.95 -10.25 2.95 -21.05 0 -8.95 -0.05 -9.75 -0.85 -9.75 -0.50 0 -3.90 -0.15 -7.60 -0.35 l-6.70 -0.30 0.35 1.20 c1.35 4.25 1.50 5.85 0.60 8.10 -2.55 6.65 -9.95 8.45 -15.20 3.65 -2.80 -2.50 -3.65 -7.45 -1.90 -10.70 0.50 -0.95 0.80 -1.75 0.70 -1.85 -0.10 -0.10 -6.30 -0.30 -13.85 -0.50 l-13.70 -0.40 0.30 1.20 c0.15 0.65 0.55 2.10 0.90 3.20 1.55 5.25 -3.30 11.25 -9.05 11.25 -5.85 0 -10.50 -5.80 -9 -11.20 1.35 -4.75 1.80 -4.30 -4.05 -4.30 -2.85 0 -6 -0.15 -6.95 -0.25 -0.95 -0.15 -2 -0.10 -2.35 0.10 -0.45 0.30 -0.65 3.45 -0.70 10.90 -0.15 11.70 0.55 15.90 3.50 22.45 5.30 11.70 16.40 21.25 28.55 24.55 3.80 1.05 14.35 1.65 18.90 1.15 1.75 -0.20 4.55 -0.75 6.25 -1.20z m11.70 -45.05 c6.15 -2.90 3.95 -12.65 -2.85 -12.65 -6.75 0 -9 9.65 -2.95 12.65 2.15 1.05 3.60 1.05 5.80 0z m-42 -1 c3.85 -2.50 3.35 -9.25 -0.80 -11.40 -5.75 -2.95 -11.80 3.45 -8.75 9.30 1.55 3.05 6.45 4.15 9.55 2.10z m90.80 -7.70 c5.50 -2.80 2 -11.30 -3.70 -8.95 -1.95 0.85 -2.95 2.30 -2.95 4.50 0 3.70 3.50 6.05 6.65 4.45z m-141 -2.45 c1.70 -1.35 2.20 -3.90 1.15 -5.90 -2.85 -5.50 -11 -1.65 -8.60 4.05 0.40 0.95 1.10 2 1.65 2.30 1.50 0.85 4.40 0.65 5.80 -0.45z"/>
 </g>
 <g fill="none">
  <path d="M0 67 l0 -67 79.50 0 79.50 0 0 67 0 67 -79.50 0 -79.50 0 0 -67z m84.45 64.35 c4.05 -2.70 5.55 -7.70 3.65 -12.05 l-1.05 -2.35 1.25 -0.45 c0.70 -0.30 1.65 -0.50 2.15 -0.50 1.45 0 8.30 -2.35 11.45 -3.95 11.20 -5.65 20.40 -17.05 23.90 -29.70 1.15 -4.05 1.35 -5.90 1.65 -15.60 l0.30 -11 7.35 -0.15 7.35 -0.15 1.25 1.95 c2.35 3.75 5.45 5.15 9.20 4.15 3.90 -1.05 5.90 -4.75 5.05 -9.40 -1.25 -6.95 -10.90 -8 -14.25 -1.50 l-0.75 1.40 -7.60 -0.15 -7.60 -0.15 0 -2.25 0 -2.25 3.75 -0.25 c2.05 -0.15 3.70 -0.45 3.70 -0.65 -0.05 -0.25 -1.80 -2.55 -3.90 -5.20 l-3.80 -4.70 0 -3.10 c0 -5.05 0.20 -5.35 3.25 -5.35 2.85 0 2.90 0.05 8.65 4.90 1.75 1.45 3.45 2.55 3.75 2.45 0.45 -0.10 0.65 -2.90 0.75 -9.25 0.10 -8.05 0.05 -9.10 -0.70 -9.10 -0.40 0 -2.35 1.25 -4.30 2.75 l-3.50 2.75 -3.70 0 -3.70 0 0 -3.65 0 -3.65 3.50 -4.95 c1.95 -2.70 3.50 -5.20 3.50 -5.50 0 -0.40 -1.60 -0.70 -4.85 -0.95 -4.45 -0.25 -12.85 -0.45 -14.60 -0.35 -1 0.10 -0.40 1.10 3.45 6 l3.50 4.45 0 4.30 0 4.30 -3.20 0 -3.25 0 -4.35 -3.80 c-2.35 -2.05 -4.50 -3.60 -4.75 -3.35 -0.60 0.60 -0.70 20.10 -0.10 20.70 0.35 0.35 1.70 -0.85 4.20 -3.75 l3.70 -4.30 3.90 0 3.85 0 0 4.90 0 4.85 -4 4.20 c-2.20 2.30 -4 4.40 -4 4.60 0 0.25 2.15 0.45 4.75 0.45 4.65 0 4.75 0.05 5.05 1.25 0.15 0.70 0.15 1.80 0 2.50 l-0.30 1.20 -20.40 -0.25 c-11.20 -0.15 -20.65 -0.35 -20.95 -0.50 -0.40 -0.10 -0.65 -1.05 -0.65 -2.45 0 -1.45 0.25 -2.30 0.65 -2.30 1.55 -0.20 2.75 -0.30 4.75 -0.35 1.50 -0.10 2.10 -0.30 2.10 -0.85 0 -0.40 -1.55 -2.95 -3.50 -5.60 l-3.50 -4.85 0 -3.65 0 -3.65 3.05 0 3.10 0 4.30 4.25 c2.40 2.35 4.65 4.25 4.95 4.25 0.45 0 0.60 -2.75 0.60 -10.50 0 -8.20 -0.15 -10.50 -0.65 -10.50 -0.35 0 -2.10 1.45 -3.85 3.25 l-3.20 3.25 -4.10 0 c-2.85 0 -4.15 -0.20 -4.30 -0.65 -0.10 -0.30 -0.10 -2.40 0.05 -4.60 l0.30 -4 3.90 -4.95 c2.10 -2.70 3.75 -5.10 3.55 -5.35 -0.30 -0.50 -20.20 -0.65 -20.20 -0.15 0 0.20 1.80 2.75 4 5.75 l4.05 5.35 -0.15 4.20 -0.15 4.15 -3.95 0.15 -4 0.15 -3.65 -3.65 c-2.30 -2.30 -3.80 -3.45 -4.10 -3.15 -0.65 0.65 -0.85 20.40 -0.25 20.60 0.30 0.10 2.40 -1.55 4.70 -3.60 2.30 -2.10 4.55 -4 4.95 -4.20 0.45 -0.20 2 -0.30 3.45 -0.15 l2.60 0.20 0 3.35 0 3.30 -3.75 5 c-2.05 2.75 -3.75 5.40 -3.75 5.90 0 0.70 0.45 0.85 2.95 0.85 4.20 0 4.55 0.20 4.55 2.75 0 1.20 -0.15 2.30 -0.35 2.40 -0.25 0.15 -9.75 0.10 -21.15 -0.10 l-20.75 -0.30 0 -2.25 0 -2.25 4.90 -0.15 c2.65 -0.05 4.85 -0.25 4.85 -0.40 0 -0.15 -1.85 -2.30 -4.05 -4.80 l-4.10 -4.55 0.35 -3.30 c0.15 -1.80 0.30 -3.90 0.30 -4.65 l0 -1.40 3.70 0 3.75 0 3.60 4.25 c1.95 2.35 3.85 4.25 4.25 4.25 0.60 0 0.70 -1.85 0.70 -10.50 0 -7.05 -0.15 -10.50 -0.55 -10.50 -0.25 0 -2.40 1.60 -4.65 3.50 l-4.15 3.50 -3.35 0 -3.30 0 0 -4.20 0 -4.20 4 -4.80 c2.20 -2.70 4 -5.05 4 -5.35 0 -0.50 -19.65 -0.65 -20.15 -0.10 -0.40 0.35 0.85 2.50 4.25 7.30 2.40 3.35 2.40 3.40 2.40 7.35 l0 4 -3.35 0 c-3.35 0 -3.40 0 -7.25 -3 -2.10 -1.65 -4.20 -3 -4.60 -3 -0.70 0 -0.80 1.25 -0.80 9.25 0 6.60 0.15 9.25 0.55 9.25 0.35 0 2.60 -1.60 5.05 -3.55 4.55 -3.60 6.55 -4.40 9.10 -3.75 1.25 0.30 1.30 0.45 1.30 4.60 l0 4.30 -4.05 4.70 c-2.20 2.55 -3.90 4.90 -3.70 5.20 0.15 0.25 1.90 0.50 3.80 0.50 l3.50 0 -0.15 2.35 c-0.10 1.55 -0.35 2.40 -0.75 2.35 -0.35 -0.05 -3.80 -0.10 -7.60 -0.10 -6.85 -0.10 -6.95 -0.10 -7.25 -1.30 -0.40 -1.70 -3.45 -4.20 -5.55 -4.60 -3.75 -0.70 -7.40 1.10 -8.75 4.30 -0.95 2.35 -0.40 6.75 1.05 8.30 3.90 4.15 9.70 3.50 12.90 -1.45 l1.25 -1.90 7.25 0.15 7.30 0.15 0.30 11.75 c0.30 12.45 0.70 15.25 3.20 21.45 5.30 13.45 17.85 24.65 31.45 28.05 2.20 0.55 4.05 1.10 4.15 1.20 0.15 0.10 -0.10 0.90 -0.55 1.70 -1.15 2.25 -1.45 5.15 -0.80 7.50 0.65 2.55 3.75 5.85 6.10 6.55 2.75 0.85 7.20 0.30 9.35 -1.10z"/>
  <path d="M76.60 129.65 c-0.65 -0.10 -1.90 -0.95 -2.80 -1.90 -5.05 -5.05 0.20 -12.90 7.20 -10.80 5.25 1.55 6.35 8.75 1.75 11.75 -1.30 0.85 -4.35 1.35 -6.15 0.95z"/>
  <path d="M76.50 113.45 c-3.45 -0.20 -7.70 -0.70 -9.50 -1.20 -12.15 -3.30 -23.25 -12.85 -28.55 -24.55 -2.95 -6.55 -3.65 -10.75 -3.50 -22.45 0.05 -7.45 0.25 -10.60 0.70 -10.90 0.35 -0.20 1.40 -0.25 2.35 -0.10 0.95 0.10 4.10 0.25 6.95 0.25 5.85 0 5.40 -0.45 4.05 4.30 -1.10 3.85 1.50 8.90 5.35 10.50 6.75 2.85 14.70 -3.75 12.70 -10.55 -0.35 -1.10 -0.75 -2.55 -0.90 -3.20 l-0.30 -1.20 13.70 0.40 c7.55 0.20 13.75 0.40 13.85 0.50 0.10 0.10 -0.20 0.90 -0.70 1.85 -1.75 3.25 -0.90 8.20 1.90 10.70 5.25 4.80 12.65 3 15.20 -3.65 0.90 -2.25 0.75 -3.85 -0.60 -8.10 l-0.35 -1.20 6.70 0.30 c3.70 0.20 7.10 0.35 7.60 0.35 0.80 0 0.85 0.80 0.85 9.75 0 7 -0.25 10.90 -0.80 13.65 -2.70 13.20 -11.40 24.25 -23.95 30.50 -7.15 3.55 -12.75 4.55 -22.75 4.05z"/>
  <path d="M98.05 67.15 c-6.05 -3 -3.80 -12.65 2.95 -12.65 6.80 0 9 9.75 2.85 12.65 -2.20 1.05 -3.65 1.05 -5.80 0z"/>
  <path d="M55.15 66.55 c-6.20 -2.85 -4 -12.55 2.85 -12.55 3.50 0 6.50 3.05 6.50 6.65 0 5.10 -4.70 8.05 -9.35 5.90z"/>
  <path d="M148.70 58.50 c-2.50 -1 -3.55 -5.05 -1.95 -7.30 0.95 -1.40 3.45 -2.40 5.05 -2 2.05 0.55 3.70 2.65 3.70 4.75 -0.05 3.60 -3.50 5.90 -6.80 4.55z"/>
  <path d="M5.85 56.45 c-1.60 -0.90 -2.50 -3.75 -1.85 -5.70 0.90 -2.80 4.40 -4.15 7.05 -2.75 2.65 1.45 3.05 6.05 0.60 8 -1.40 1.10 -4.30 1.30 -5.80 0.45z"/>
 </g>
</svg>
