<?xml version="1.0" encoding="utf-8"?>
<!DOCTYPE svg PUBLIC "-//W3C//DTD SVG 1.0//EN" "http://www.w3.org/TR/2001/REC-SVG-20010904/DTD/svg10.dtd">
<svg version="1.0" xmlns="http://www.w3.org/2000/svg" width="164px" height="139px" viewBox="0 0 164 139" preserveAspectRatio="xMidYMid meet">
 <g fill="#000000">
  <path d="M71.35 137 c-11.35 -1.40 -24.25 -8.65 -30.70 -17.25 -3.65 -4.85 -5.70 -9 -8.05 -16.25 -3.55 -10.90 -3.80 -12.80 -3.85 -30 l0 -15.25 -2.70 0 -2.70 0 -2.65 6.25 c-1.50 3.45 -2.70 6.90 -2.70 7.65 0 1.40 0.05 1.45 1.95 1.10 4.05 -0.70 7.35 2.10 7.20 6.05 -0.15 4.05 -2.70 6.05 -7.10 5.55 l-2.45 -0.30 -0.30 3.10 c-0.45 3.70 -1.80 7.05 -3.20 7.80 -0.60 0.30 -2.20 0.55 -3.60 0.55 -2.25 0 -2.80 -0.20 -4.05 -1.55 -2.55 -2.75 -3.70 -10 -2.25 -14.25 0.75 -2.30 0.75 -2.50 -0.05 -3.05 -0.45 -0.35 -1.40 -0.65 -2.10 -0.65 -1.65 0 -1.15 -0.40 2.85 -2.50 3.05 -1.60 3.50 -2 5 -5 0.95 -1.80 1.70 -3.30 1.75 -3.35 0.05 -0.05 0.10 3.60 0.10 8.10 0 4.50 -0.15 8.35 -0.40 8.55 -0.20 0.20 -1.05 -0.35 -1.85 -1.20 -2.65 -2.95 -4.15 -1.60 -4.05 3.70 0.05 4 1.05 6.40 3.15 7.70 2.15 1.30 3.70 1.25 5.15 -0.20 1.15 -1.15 1.15 -1.25 1.10 -11.60 l-0.05 -10.45 2.40 -5.65 c1.35 -3.10 2.30 -5.80 2.10 -6 -0.20 -0.20 -0.55 0 -0.80 0.40 -1.20 2.10 -1.95 2.60 -4.10 2.85 -5.15 0.60 -8.65 -4.50 -6.10 -8.85 2.45 -4.05 8.10 -3.95 10.70 0.25 1.90 3.05 2.55 2.20 3.65 -4.75 1.40 -8.35 3.15 -16.20 4.20 -18.55 2.70 -6.10 9.15 -9.75 12.45 -7.05 3.70 3 3.85 7.05 0.60 16.35 -1.25 3.60 -2.75 7.70 -3.35 9.15 -0.55 1.45 -1.05 3.40 -1.05 4.35 l0 1.75 4.50 0 4.50 0 0.10 -16 c0.05 -8.80 0.15 -17.85 0.15 -20.10 l0 -4.15 -2.70 -0.15 c-2.45 -0.15 -2.80 0 -3.80 1.20 -0.75 0.95 -1.35 1.25 -1.95 1.05 -0.70 -0.30 -0.80 -0.95 -0.70 -4.45 0.15 -3.70 0.25 -4.15 1.15 -4.30 0.75 -0.10 1.20 0.30 1.60 1.40 0.55 1.50 0.65 1.55 3.50 1.40 l2.90 -0.15 0.15 -2.50 c0.15 -2.25 0.05 -2.60 -1.45 -3.80 -0.95 -0.75 -1.45 -1.55 -1.25 -1.85 0.35 -0.60 8.35 -0.85 8.95 -0.30 0.50 0.55 -0.25 1.75 -1.45 2.20 -0.85 0.35 -1.20 1 -1.45 2.70 -0.50 3.35 -0.20 3.80 2.70 3.80 2.45 0 2.85 -0.20 4.25 -2.20 0.40 -0.60 0.95 -0.85 1.50 -0.65 0.70 0.30 0.80 0.95 0.70 4.45 -0.15 3.75 -0.25 4.15 -1.20 4.30 -0.70 0.10 -1.20 -0.25 -1.60 -1.15 -0.55 -1.20 -0.80 -1.30 -3.50 -1.15 l-2.85 0.15 -0.15 19.75 c-0.05 10.85 0 20.05 0.15 20.35 0.10 0.35 0.55 0.50 1 0.35 0.60 -0.25 0.75 -1.20 0.75 -4.40 0 -14.65 2.90 -25.30 7.70 -28.30 3.35 -2.05 9.50 -0.95 11 1.95 1.65 3.15 0.95 7.95 -3.20 22.10 -1.20 4 -2 7.65 -1.85 8.15 0.30 0.70 0.90 0.80 3.70 0.70 l3.40 -0.15 0.35 -8 c0.25 -4.40 0.35 -13.50 0.25 -20.25 l-0.10 -12.25 -2.90 -0.15 c-2.65 -0.15 -2.90 -0.05 -3.35 1.10 -0.30 0.80 -0.85 1.30 -1.50 1.30 -1 0 -1.05 -0.25 -0.90 -4.35 0.10 -3.50 0.30 -4.40 0.90 -4.40 0.40 0 1.05 0.60 1.40 1.40 0.60 1.25 0.90 1.35 3.65 1.35 l2.95 0 0 -3 c0 -2.75 -0.10 -3.05 -1.25 -3.50 -1.30 -0.50 -1.75 -2.20 -0.60 -2.60 0.30 -0.15 2.30 -0.10 4.35 0.05 2.95 0.25 3.75 0.50 3.90 1.15 0.10 0.50 -0.40 1.10 -1.25 1.50 -1.25 0.60 -1.40 0.95 -1.55 3.50 -0.15 2.70 -0.10 2.90 1.15 3.20 2.15 0.55 4.55 -0.20 5.15 -1.55 0.35 -0.75 1 -1.25 1.60 -1.25 1 0 1.05 0.25 0.90 4.35 -0.15 3.70 -0.30 4.40 -1 4.55 -0.60 0.10 -1.05 -0.30 -1.40 -1.10 -0.50 -1.40 -2 -1.95 -4.55 -1.70 l-1.70 0.15 -0.35 9.75 c-0.25 5.35 -0.35 14.45 -0.25 20.25 l0.10 10.50 1.40 0.15 c0.75 0.10 1.35 0.10 1.35 0 0 -0.10 0.15 -2.50 0.30 -5.40 0.80 -17.30 2.40 -22.70 7.80 -26.40 6.85 -4.70 10.25 -2.80 10.90 6.15 0.55 7.25 -0.05 9.35 -4.95 17.55 -1.50 2.55 -2.15 4.20 -2.20 5.75 l-0.10 2.20 4.45 0.15 c3.25 0.10 4.60 -0.05 4.90 -0.50 0.20 -0.35 0.40 -9.50 0.40 -20.25 l0 -19.65 -3 0 c-2.80 0 -3.05 0.10 -3.50 1.30 -0.35 0.80 -0.80 1.20 -1.40 1.10 -0.75 -0.15 -0.85 -0.75 -0.85 -4.40 0 -3.65 0.10 -4.25 0.85 -4.40 0.60 -0.10 1.05 0.25 1.35 1.05 0.55 1.45 1.45 1.85 4.35 1.85 l2.20 0 0 -3.15 c0 -2.75 -0.15 -3.15 -1.10 -3.60 -0.65 -0.30 -1.15 -0.95 -1.15 -1.50 0 -0.90 0.35 -1 4.25 -1 3.60 0 4.25 0.15 4.40 0.85 0.10 0.55 -0.40 1.15 -1.40 1.65 -1.50 0.75 -1.55 0.90 -1.40 3.65 l0.15 2.85 1.95 0.15 c2.90 0.25 4.15 -0.20 4.50 -1.70 0.25 -0.85 0.60 -1.20 1.20 -1.10 0.70 0.15 0.85 0.85 1 4.55 0.15 4.10 0.10 4.35 -0.85 4.35 -0.70 0 -1.15 -0.45 -1.35 -1.25 -0.30 -1.15 -0.50 -1.25 -3.50 -1.25 l-3.15 0 -0.15 17.90 c-0.15 16.30 0 19.35 0.90 18.50 0.15 -0.20 1.80 -4.80 3.65 -10.30 2.80 -8.25 3.80 -10.55 5.75 -13.30 4.35 -6.15 8.35 -7.35 12.10 -3.75 2.25 2.20 2.75 4.20 2.20 8.70 -0.55 4.30 -1.95 8.15 -5.45 15.10 -1.40 2.85 -2.55 5.75 -2.55 6.50 l0.05 1.40 0.85 -1.20 c2.90 -4.05 5.95 -5.55 9.50 -4.60 1.85 0.55 4.70 3 5.25 4.70 0.55 1.50 1.15 0.95 2.05 -2 0.50 -1.60 1.25 -3.50 1.65 -4.30 0.65 -1.25 0.60 -1.50 -0.60 -3.05 -1.80 -2.35 -1.70 -4.90 0.20 -6.85 2.90 -2.85 7.80 -1.10 8.15 2.90 0.20 2.60 1.20 2.60 1.55 0.05 0.35 -2.70 2.15 -4.40 4.65 -4.40 4.55 0 6.70 5 3.60 8.35 -0.95 1 -1 1.30 -0.40 2.50 0.35 0.80 0.80 2.40 0.95 3.60 0.25 1.95 0.50 2.30 2 2.80 2.40 0.80 3.10 2 3.05 5.50 -0.05 3.10 0.20 6.40 0.80 10.15 0.65 4.30 -2.35 8.60 -6 8.60 l-1.30 0 0 -5.90 c0 -3.25 -0.15 -6.10 -0.30 -6.25 -0.20 -0.20 -1.40 0.80 -2.65 2.15 -2.40 2.55 -3.10 2.80 -6.80 2.55 -0.80 -0.05 -2.35 -0.80 -3.35 -1.60 -1 -0.80 -1.95 -1.45 -2.10 -1.45 -0.15 0 -0.30 1.95 -0.30 4.40 0 4.30 -0.55 11.45 -1.55 19.55 -1.50 12.20 -7.45 23.20 -18.05 33.40 -3.65 3.45 -5.20 4.50 -10.45 7.10 -9.75 4.85 -11.30 5.15 -23.95 5.35 -5.90 0.05 -12.30 -0.05 -14.15 -0.30z m27.10 -4.80 c7.05 -1.55 12.55 -4.10 17.10 -7.90 11.85 -9.80 19.55 -28.70 20.75 -50.85 0.40 -7.25 0.15 -7.75 -2.70 -5.75 -2 1.35 -7.20 2.80 -10.30 2.80 -4.05 0 -7.65 -3.70 -8.55 -8.75 -0.55 -2.85 -1 -3.25 -4 -3.25 -1.95 0 -2.70 0.20 -2.95 0.80 -0.15 0.45 -0.30 4.85 -0.30 9.85 l0 9.10 1.75 1.40 c1.05 0.80 1.95 2.15 2.30 3.30 0.50 1.70 0.45 2.25 -0.40 4 -0.55 1.10 -0.90 2.15 -0.75 2.30 0.15 0.15 1.35 0.25 2.70 0.25 2.20 0 2.65 -0.20 4.35 -2 1.70 -1.75 2.15 -2 4.20 -2 1.85 0 2.65 0.30 3.90 1.40 3 2.65 2.15 8.25 -1.45 9.65 -2.90 1.15 -7.05 -0.50 -7.90 -3.15 -0.25 -0.85 -0.75 -0.90 -4.35 -0.80 l-4.10 0.15 -0.15 7.90 -0.15 7.85 2.20 0 c3.45 0 5.35 2.70 5.35 7.55 0 4.15 -2.35 7.45 -5.35 7.45 -0.45 0 -1.50 -0.45 -2.40 -1 l-1.60 -1 -2.05 1.10 c-1.60 0.90 -2.30 1.05 -3.40 0.65 -4.20 -1.50 -5.35 -9.75 -1.90 -13.50 0.90 -1 1.65 -1.25 3.45 -1.25 l2.30 0 -0.15 -7.85 -0.15 -7.90 -8.55 -0.15 -8.55 -0.10 -0.35 2.30 c-0.15 1.30 -0.30 5.15 -0.30 8.55 0 5.15 0.15 6.25 0.80 6.50 1.30 0.50 3.20 -0.75 3.95 -2.55 0.70 -1.65 1.95 -2.55 2.80 -2 0.25 0.15 0.45 2.85 0.45 6 0 4.90 -0.10 5.80 -0.85 6.05 -0.55 0.20 -1.05 0 -1.35 -0.60 -1.50 -2.50 -2.95 -3.75 -4.35 -3.75 l-1.45 0 0 3.70 c0 4.05 1 6.10 3.15 6.40 0.60 0.10 1.15 0.55 1.25 1.05 0.15 0.80 -0.30 0.85 -6 0.75 -4.95 -0.10 -6.15 -0.30 -6.15 -0.85 0 -0.40 0.75 -0.90 1.60 -1.15 2.15 -0.55 2.55 -1.50 2.75 -5.90 0.20 -4.90 -0.65 -5.20 -4.10 -1.50 -1.35 1.45 -2.65 2.45 -2.95 2.30 -0.85 -0.55 -0.75 -11.05 0.15 -11.75 0.55 -0.45 0.85 -0.45 1.25 0.05 0.30 0.35 1.10 1.40 1.85 2.30 1.55 1.95 3.55 2.20 3.95 0.50 0.15 -0.65 0.20 -4.50 0.15 -8.65 l-0.15 -7.50 -8.85 -0.15 -8.90 -0.10 0 7.65 0 7.70 1.95 -0.05 c3.75 -0.10 5.90 3.45 5.40 8.80 -0.50 5.45 -3.65 7.95 -7.40 5.80 -1.90 -1.05 -2.05 -1.05 -3.40 -0.25 -2.25 1.35 -4.25 1.10 -5.75 -0.65 -4.35 -5.20 -1.40 -15 4.15 -13.75 l1.55 0.35 0 -7.80 0 -7.80 -3.10 0 c-1.75 0 -3.95 -0.15 -4.95 -0.30 -1.35 -0.25 -2 -0.10 -2.50 0.55 -2.75 3.40 -3.30 3.75 -5.95 3.75 -2.30 0 -2.80 -0.20 -4.30 -1.70 -1.45 -1.45 -1.70 -2.05 -1.70 -4 0 -6.40 7.25 -8.60 11 -3.30 1.05 1.45 1.15 1.50 5.30 1.50 2.30 0 4.20 -0.15 4.20 -0.35 0 -0.25 -0.35 -0.85 -0.75 -1.35 -0.40 -0.55 -0.75 -2 -0.75 -3.20 0 -1.85 0.30 -2.45 2 -4.20 l2 -2.05 0 -4.85 c0 -4.65 -0.05 -4.95 -1.50 -6.75 -0.95 -1.15 -1.70 -2.90 -2.05 -4.80 -0.40 -2.15 -0.85 -3 -1.55 -3.25 -1.70 -0.55 -3.10 0.20 -4.30 2.35 -1.50 2.65 -4.40 5.85 -6.05 6.65 -4 2 -7.35 1.10 -11 -3.05 -2.05 -2.25 -2.50 -2.60 -2.70 -1.80 -0.15 0.50 -0.45 5.40 -0.65 10.90 -0.30 9.30 -0.25 10.30 0.75 14.20 2.80 10.80 8.60 23.35 13.85 30 4 5.05 7.20 7.60 13.45 10.65 5.95 2.85 12 4.35 20.25 4.85 10 0.70 11.90 0.60 17.95 -0.75z m13.45 -12.20 c2.15 -2.05 2.10 -6.40 -0.15 -8.35 -0.70 -0.65 -1.50 -1.15 -1.75 -1.15 -1.10 0 -3.05 2.40 -3.35 4.10 -0.35 2.35 0.05 3.85 1.35 5.30 1.30 1.35 2.50 1.40 3.90 0.10z m-7.95 -0.80 c1.55 -1.95 1.45 -5.85 -0.20 -7.45 -1.50 -1.55 -2.90 -1.60 -4.20 -0.15 -1.85 1.95 -1.95 5.10 -0.25 7.80 1 1.60 3.35 1.50 4.65 -0.20z m-42.25 -1.35 c1.60 -3.30 0 -7.35 -2.95 -7.35 -2.70 0 -4.20 6.10 -2.05 8.45 1.60 1.75 3.85 1.25 5 -1.10z m7.10 1.75 c2.50 -1.65 2.05 -7.75 -0.60 -8.40 -2.65 -0.65 -4.60 2.55 -3.65 6.05 0.65 2.30 2.65 3.45 4.25 2.35z m55.90 -26.75 c0.80 -1.10 0.85 -1.50 0.35 -2.80 -0.80 -1.90 -2.90 -2.80 -4.70 -2 -2.65 1.20 -2.60 4.95 0.10 6.25 1.50 0.75 2.95 0.25 4.25 -1.45z m-77.50 0.60 c1.65 -1.30 1.80 -3.95 0.30 -5.45 -1.50 -1.50 -4.15 -1.35 -5.45 0.30 -1.40 1.75 -1.30 3.45 0.20 4.95 1.50 1.50 3.20 1.60 4.95 0.20z m41 -5.25 c1.05 -1.05 1.30 -1.80 1.30 -3.70 0 -2.10 -0.20 -2.60 -1.55 -3.70 -3.80 -3.20 -9.15 0 -8.25 4.90 0.70 3.70 5.75 5.20 8.50 2.50z m13 0.85 c0.15 -0.25 -0.05 -1.10 -0.45 -1.85 -0.40 -0.80 -0.75 -2.10 -0.75 -2.95 0 -1.85 1.60 -4.55 2.90 -4.95 0.90 -0.30 1 -1.05 1.30 -10.10 0.25 -6.15 0.20 -10 -0.10 -10.30 -0.30 -0.30 -1.20 0.25 -2.50 1.60 -4.75 4.75 -10.05 4.65 -13.80 -0.25 -1.30 -1.65 -1.50 -1.75 -4.50 -1.75 -3.10 0 -3.10 0 -4.25 2 -2.15 3.85 -6.10 6.30 -11.65 7.30 l-1.90 0.30 0 4.15 c0 2.30 -0.15 4.50 -0.30 4.90 -0.15 0.40 0.10 1.05 0.55 1.40 3.65 3 4.45 5.25 2.85 8.45 l-0.95 2 5.20 0 c4.80 0 5.25 -0.05 4.90 -0.85 -2.15 -5.25 0.80 -10.50 6.25 -11.05 5.30 -0.50 9.35 4.35 7.95 9.55 -0.25 1 -0.35 2.10 -0.20 2.35 0.40 0.60 9.10 0.65 9.45 0.05z m-35.50 -2.10 c2.45 -1.95 1.10 -6.45 -2 -6.45 -1.85 0 -3.70 1.85 -3.70 3.75 0 1.80 1.80 3.75 3.50 3.75 0.50 0 1.45 -0.45 2.20 -1.05z m42.80 -0.25 c1.05 -1.25 0.80 -3.75 -0.45 -4.80 -1.55 -1.20 -3 -1.15 -4.40 0.20 -2.30 2.15 -0.90 5.40 2.30 5.40 1.15 0 2.20 -0.30 2.55 -0.80z m-84.10 -5 c1.50 -1.70 1.40 -3.50 -0.35 -5.25 -1.75 -1.70 -3.40 -1.85 -5.25 -0.40 -1 0.80 -1.30 1.45 -1.30 2.90 0 4.15 4.15 5.85 6.90 2.75z m135.50 -7.70 c2.15 -3.15 1.05 -7.25 -1.85 -6.90 -1.30 0.15 -1.30 0.15 -1.45 5.10 l-0.15 4.95 1.15 -0.75 c0.65 -0.40 1.65 -1.50 2.30 -2.40z m-30.90 -7.25 c1.20 -0.65 3.95 -3.25 3.40 -3.25 -0.15 0 -1.15 0.35 -2.20 0.80 -3.65 1.50 -8.25 -0.30 -9.70 -3.75 -1.30 -3.15 -3.15 -0.75 -2.05 2.60 1.40 4.20 6.20 5.85 10.55 3.60z m20.85 -0.10 c1.80 -1.20 3.25 -3.90 3.05 -5.75 -0.10 -1.40 -0.35 -1.65 -1.40 -1.65 -0.85 0 -1.20 0.25 -1.10 0.75 0.50 2.30 0.20 3.75 -1.10 4.85 -1.80 1.55 -4 1.50 -5.65 -0.15 -1.10 -1.10 -1.25 -1.55 -0.95 -3.50 l0.30 -2.20 -1.75 0 c-2.20 0 -2.25 0.80 -0.35 4.55 2.10 4.20 5.50 5.35 8.95 3.10z m9 -1.45 c2.40 -0.65 1.90 -3.20 -0.65 -3.20 -1.55 0 -1.70 0.15 -1.70 1.40 0 2.05 0.35 2.35 2.35 1.80z m-113.55 -2.25 c1.90 -1.15 3.40 -3.25 3 -4.25 -0.20 -0.55 -1.50 -0.70 -6 -0.70 -3.15 0 -5.90 0.20 -6.05 0.50 -0.40 0.65 0.85 3 2.35 4.35 2 1.85 3.80 1.85 6.70 0.10z m103.10 0.95 c0.35 -0.35 0.60 -1.20 0.60 -1.90 0 -1.60 -0.85 -2.50 -2.30 -2.50 -1.45 0 -2.70 1.25 -2.70 2.70 0 1.45 0.90 2.30 2.50 2.30 0.70 0 1.55 -0.25 1.90 -0.60z m-77.40 -0.75 c2.05 -1.35 4 -3.30 4 -4 0 -0.50 -1.40 -0.65 -6 -0.65 -5.10 0 -6 0.10 -6 0.80 0 0.90 0.85 2.60 1.90 3.85 1 1.10 4.45 1.15 6.10 0z m58.95 -1.90 c3.35 -1.70 1.85 -2.75 -4 -2.75 -3.35 0 -3.85 0.75 -1.65 2.45 1.55 1.25 3.70 1.35 5.65 0.30z m-32.05 -1.85 c0.15 -0.80 -0.25 -0.90 -3.10 -0.90 -1.80 0 -3.35 0.20 -3.55 0.45 -0.50 0.85 1.45 1.55 4 1.40 1.90 -0.05 2.55 -0.30 2.65 -0.95z m-81.55 -0.50 c1.65 -1.55 1.60 -4.50 -0.15 -5.85 -1.80 -1.40 -3.95 -1.35 -5.45 0.20 -3.65 3.65 1.85 9.20 5.60 5.65z m143.55 -0.55 c0.20 -1.75 -0.65 -2.85 -2.20 -2.85 -1.10 0 -1.20 0.20 -1.20 2.30 0 2.25 0 2.25 1.65 2.10 1.35 -0.10 1.65 -0.40 1.75 -1.55z m-28.20 -3.30 c0.20 -0.25 -0.40 -1.05 -1.25 -1.75 -1.90 -1.60 -4.30 -1.70 -6.15 -0.25 -1.60 1.25 -1.65 1.80 -0.15 2.10 2.15 0.40 7.30 0.35 7.55 -0.10z m12.60 -1.25 c-2.10 -1.95 -2.30 -3.55 -0.75 -5.50 0.80 -1.05 1.45 -1.30 3.20 -1.30 1.75 0 2.40 0.25 3.20 1.30 1.50 1.95 1.30 3.55 -0.65 5.50 l-1.75 1.75 2.85 -0.15 2.85 -0.15 0.15 -3.10 c0.10 -1.75 -0.10 -3.60 -0.40 -4.15 -1.25 -2.30 -6.15 -3.40 -9.40 -2.05 -2.50 1.05 -5.50 7.20 -4.35 9 0.15 0.30 1.75 0.55 3.55 0.55 l3.25 0 -1.75 -1.70z m-85.85 0.50 c0.70 -0.85 5.25 -15.60 6.15 -19.80 0.70 -3.50 0 -5.65 -2.20 -6.80 -1.35 -0.70 -1.60 -0.70 -2.70 0 -2.80 1.85 -4.30 7.50 -5.25 19.50 -0.35 4.75 -0.30 6.60 0.10 7.10 0.75 0.90 3.15 0.90 3.90 0z m27.10 -1.85 c0.35 -2.45 1.40 -4.70 4.55 -9.85 2.65 -4.35 3.40 -6.60 3.40 -10.30 0 -4.20 -1.15 -6.50 -3.45 -6.70 -1.50 -0.15 -2 0.15 -4.50 2.75 -3.95 4.05 -4.55 6.30 -4.55 17.45 0 4.70 0.15 8.70 0.35 8.90 0.20 0.20 1.15 0.30 2.15 0.20 1.65 -0.15 1.75 -0.25 2.05 -2.45z m28.95 0.45 c0.30 -1.20 2 -6.30 3.80 -11.35 3.85 -10.65 4.25 -12.65 2.95 -14.05 -1.20 -1.30 -2.40 -0.95 -4.95 1.45 -2.30 2.15 -4.05 5.80 -6.55 13.75 -1 3.25 -2.40 7.15 -3.05 8.65 -0.65 1.45 -1.20 2.90 -1.20 3.15 0 0.30 1.85 0.50 4.25 0.50 l4.20 0 0.55 -2.10z m-81.40 -7.30 c4.25 -13.20 4.90 -15.50 4.90 -17.85 0 -2.65 -0.95 -3.65 -2.75 -2.85 -1.65 0.75 -5.15 8.25 -7.50 16.10 -2 6.65 -3.30 12.50 -2.90 13.15 0.10 0.20 1.40 0.35 2.80 0.35 l2.60 0 2.85 -8.90z m115.50 7.05 c0.50 -0.45 0.90 -1.25 0.90 -1.80 0 -1.30 -1.40 -2.85 -2.60 -2.85 -1.10 0 -2.90 1.70 -2.90 2.75 0 1 1.80 2.75 2.85 2.75 0.45 0 1.25 -0.35 1.75 -0.85z m-4.95 -9.25 c1.25 -1.45 1.05 -3.15 -0.45 -4.35 -1.65 -1.30 -2.90 -1.35 -4.20 -0.05 -1.45 1.45 -1.30 3.70 0.35 4.95 1.50 1.20 2.90 1 4.30 -0.55z m11.05 0.15 c1.30 -1.45 0.90 -4.10 -0.80 -5.05 -1.25 -0.65 -1.55 -0.65 -2.75 0 -3.15 1.75 -2.40 6 1.05 6 1 0 2 -0.40 2.50 -0.95z"/>
 </g>
 <g fill="none">
  <path d="M0 69.50 l0 -69.50 82 0 82 0 0 69.50 0 69.50 -82 0 -82 0 0 -69.50z m99.75 66.60 c1.95 -0.60 6.30 -2.45 9.70 -4.15 5.25 -2.60 6.80 -3.65 10.45 -7.10 10.60 -10.20 16.55 -21.20 18.05 -33.40 1 -8.10 1.55 -15.25 1.55 -19.55 0 -2.45 0.15 -4.40 0.30 -4.40 0.15 0 1.10 0.65 2.10 1.45 1 0.80 2.55 1.55 3.35 1.60 3.70 0.25 4.40 0 6.80 -2.55 1.25 -1.35 2.45 -2.35 2.65 -2.15 0.15 0.15 0.30 3 0.30 6.25 l0 5.90 1.30 0 c3.65 0 6.65 -4.30 6 -8.60 -0.60 -3.75 -0.85 -7.05 -0.80 -10.15 0.05 -3.50 -0.65 -4.70 -3.05 -5.50 -1.50 -0.50 -1.75 -0.85 -2 -2.80 -0.15 -1.20 -0.60 -2.80 -0.95 -3.60 -0.60 -1.20 -0.55 -1.50 0.40 -2.50 3.10 -3.35 0.95 -8.35 -3.60 -8.35 -2.50 0 -4.30 1.70 -4.65 4.40 -0.35 2.55 -1.35 2.55 -1.55 -0.05 -0.35 -4 -5.25 -5.75 -8.15 -2.90 -1.90 1.95 -2 4.50 -0.20 6.85 1.20 1.55 1.25 1.80 0.60 3.05 -0.40 0.80 -1.15 2.70 -1.65 4.30 -0.90 2.95 -1.50 3.50 -2.05 2 -0.55 -1.70 -3.40 -4.15 -5.25 -4.70 -3.55 -0.95 -6.60 0.55 -9.50 4.60 l-0.85 1.20 -0.05 -1.40 c0 -0.75 1.15 -3.65 2.55 -6.50 3.50 -6.95 4.90 -10.80 5.45 -15.10 0.55 -4.50 0.05 -6.50 -2.20 -8.70 -3.75 -3.60 -7.75 -2.40 -12.10 3.75 -1.95 2.75 -2.95 5.05 -5.75 13.30 -1.85 5.50 -3.50 10.10 -3.65 10.30 -0.90 0.85 -1.05 -2.20 -0.90 -18.50 l0.15 -17.90 3.15 0 c3 0 3.20 0.10 3.50 1.25 0.20 0.80 0.65 1.25 1.35 1.25 0.95 0 1 -0.25 0.85 -4.35 -0.15 -3.70 -0.30 -4.40 -1 -4.55 -0.60 -0.10 -0.95 0.25 -1.20 1.10 -0.35 1.50 -1.60 1.95 -4.50 1.70 l-1.95 -0.15 -0.15 -2.85 c-0.15 -2.75 -0.10 -2.90 1.40 -3.65 1 -0.50 1.50 -1.10 1.40 -1.65 -0.15 -0.70 -0.80 -0.85 -4.40 -0.85 -3.90 0 -4.25 0.10 -4.25 1 0 0.55 0.50 1.20 1.15 1.50 0.95 0.45 1.10 0.85 1.10 3.60 l0 3.15 -2.20 0 c-2.90 0 -3.80 -0.40 -4.35 -1.85 -0.30 -0.80 -0.75 -1.15 -1.35 -1.05 -0.75 0.15 -0.85 0.75 -0.85 4.40 0 3.65 0.10 4.25 0.85 4.40 0.60 0.10 1.05 -0.30 1.40 -1.10 0.45 -1.20 0.70 -1.30 3.50 -1.30 l3 0 0 19.65 c0 10.75 -0.20 19.90 -0.40 20.25 -0.30 0.45 -1.65 0.60 -4.90 0.50 l-4.45 -0.15 0.10 -2.20 c0.05 -1.55 0.70 -3.20 2.20 -5.75 4.90 -8.20 5.50 -10.30 4.95 -17.55 -0.65 -8.95 -4.05 -10.85 -10.90 -6.15 -5.40 3.70 -7 9.10 -7.80 26.40 -0.15 2.90 -0.30 5.30 -0.30 5.40 0 0.10 -0.60 0.10 -1.35 0 l-1.40 -0.15 -0.10 -10.50 c-0.10 -5.80 0 -14.90 0.25 -20.25 l0.35 -9.75 1.70 -0.15 c2.55 -0.25 4.05 0.30 4.55 1.70 0.35 0.80 0.80 1.20 1.40 1.10 0.70 -0.15 0.85 -0.85 1 -4.55 0.15 -4.10 0.10 -4.35 -0.90 -4.35 -0.60 0 -1.25 0.50 -1.60 1.25 -0.60 1.35 -3 2.10 -5.15 1.55 -1.25 -0.30 -1.30 -0.50 -1.15 -3.20 0.15 -2.55 0.30 -2.90 1.55 -3.50 0.85 -0.40 1.35 -1 1.25 -1.50 -0.15 -0.65 -0.95 -0.90 -3.90 -1.15 -2.05 -0.15 -4.05 -0.20 -4.35 -0.05 -1.15 0.40 -0.70 2.10 0.60 2.60 1.15 0.45 1.25 0.75 1.25 3.50 l0 3 -2.95 0 c-2.75 0 -3.05 -0.10 -3.65 -1.35 -0.35 -0.80 -1 -1.40 -1.40 -1.40 -0.60 0 -0.80 0.90 -0.90 4.40 -0.15 4.10 -0.10 4.35 0.90 4.35 0.65 0 1.20 -0.50 1.50 -1.30 0.45 -1.15 0.70 -1.25 3.35 -1.10 l2.90 0.15 0.10 12.25 c0.10 6.75 0 15.85 -0.25 20.25 l-0.35 8 -3.40 0.15 c-2.80 0.10 -3.40 0 -3.70 -0.70 -0.15 -0.50 0.65 -4.15 1.85 -8.15 4.15 -14.15 4.85 -18.95 3.20 -22.10 -1.50 -2.90 -7.65 -4 -11 -1.95 -4.80 3 -7.70 13.65 -7.70 28.30 0 3.20 -0.15 4.15 -0.75 4.40 -0.45 0.15 -0.90 0 -1 -0.35 -0.15 -0.30 -0.20 -9.50 -0.15 -20.35 l0.15 -19.75 2.85 -0.15 c2.70 -0.15 2.95 -0.05 3.50 1.15 0.40 0.90 0.90 1.25 1.60 1.15 0.95 -0.15 1.05 -0.55 1.20 -4.30 0.10 -3.50 0 -4.15 -0.70 -4.45 -0.55 -0.20 -1.10 0.05 -1.50 0.65 -1.40 2 -1.80 2.20 -4.25 2.20 -2.90 0 -3.20 -0.45 -2.70 -3.80 0.25 -1.70 0.60 -2.35 1.45 -2.70 1.20 -0.45 1.95 -1.65 1.45 -2.20 -0.60 -0.55 -8.60 -0.30 -8.95 0.30 -0.20 0.30 0.30 1.10 1.25 1.85 1.50 1.20 1.60 1.55 1.45 3.80 l-0.15 2.50 -2.90 0.15 c-2.85 0.15 -2.95 0.10 -3.50 -1.40 -0.40 -1.10 -0.85 -1.50 -1.60 -1.40 -0.90 0.15 -1 0.60 -1.15 4.30 -0.10 3.50 0 4.15 0.70 4.45 0.60 0.20 1.20 -0.10 1.95 -1.05 1 -1.20 1.35 -1.35 3.80 -1.20 l2.70 0.15 0 4.15 c0 2.25 -0.10 11.30 -0.15 20.10 l-0.10 16 -4.50 0 -4.50 0 0 -1.75 c0 -0.95 0.50 -2.90 1.05 -4.35 6.50 -16.25 7.15 -21.95 2.75 -25.50 -3.30 -2.70 -9.75 0.95 -12.45 7.05 -1.05 2.35 -2.80 10.20 -4.20 18.55 -1.10 6.95 -1.75 7.80 -3.65 4.75 -2.60 -4.20 -8.25 -4.30 -10.70 -0.25 -2.55 4.35 0.95 9.45 6.10 8.85 2.15 -0.25 2.90 -0.75 4.10 -2.85 0.25 -0.40 0.60 -0.60 0.80 -0.40 0.20 0.20 -0.75 2.90 -2.10 6 l-2.40 5.65 0.05 10.45 c0.05 10.35 0.05 10.45 -1.10 11.60 -1.45 1.45 -3 1.50 -5.15 0.20 -2.10 -1.30 -3.10 -3.70 -3.15 -7.70 -0.10 -5.30 1.40 -6.65 4.05 -3.70 0.80 0.85 1.65 1.40 1.85 1.20 0.25 -0.20 0.40 -4.05 0.40 -8.55 0 -4.50 -0.05 -8.15 -0.10 -8.10 -0.05 0.05 -0.80 1.55 -1.75 3.35 -1.50 3 -1.95 3.40 -5 5 -4 2.10 -4.50 2.50 -2.85 2.50 0.70 0 1.65 0.30 2.10 0.65 0.80 0.55 0.80 0.75 0.05 3.05 -1.45 4.25 -0.30 11.50 2.25 14.25 1.25 1.35 1.80 1.55 4.05 1.55 1.40 0 3 -0.25 3.60 -0.55 1.40 -0.75 2.75 -4.10 3.20 -7.80 l0.30 -3.10 2.45 0.30 c4.40 0.50 6.95 -1.50 7.10 -5.55 0.15 -3.95 -3.15 -6.75 -7.20 -6.05 -1.90 0.35 -1.95 0.30 -1.95 -1.10 0 -0.75 1.20 -4.20 2.70 -7.65 l2.65 -6.25 2.70 0 2.70 0 0 15.25 c0.05 17.20 0.30 19.10 3.85 30 2.35 7.25 4.40 11.40 8.05 16.25 6.45 8.60 19.35 15.85 30.70 17.25 1.85 0.25 8.25 0.35 14.15 0.30 9.25 -0.15 11.25 -0.30 14.25 -1.20z"/>
  <path d="M80.50 132.95 c-8.25 -0.50 -14.30 -2 -20.25 -4.85 -6.25 -3.05 -9.45 -5.60 -13.45 -10.65 -5.25 -6.65 -11.05 -19.20 -13.85 -30 -1 -3.90 -1.05 -4.90 -0.75 -14.20 0.20 -5.50 0.50 -10.40 0.65 -10.90 0.20 -0.80 0.65 -0.45 2.70 1.80 3.65 4.15 7 5.05 11 3.05 1.65 -0.80 4.55 -4 6.05 -6.65 1.20 -2.15 2.60 -2.90 4.30 -2.35 0.70 0.25 1.15 1.10 1.55 3.25 0.35 1.90 1.10 3.65 2.05 4.80 1.45 1.80 1.50 2.10 1.50 6.75 l0 4.85 -2 2.05 c-1.70 1.75 -2 2.35 -2 4.20 0 1.20 0.35 2.65 0.75 3.20 0.40 0.50 0.75 1.10 0.75 1.35 0 0.20 -1.90 0.35 -4.20 0.35 -4.15 0 -4.25 -0.05 -5.30 -1.50 -3.75 -5.30 -11 -3.10 -11 3.30 0 1.95 0.25 2.55 1.70 4 1.50 1.50 2 1.70 4.30 1.70 2.65 0 3.20 -0.35 5.95 -3.75 0.50 -0.65 1.15 -0.80 2.50 -0.55 1 0.15 3.20 0.30 4.95 0.30 l3.10 0 0 7.80 0 7.80 -1.55 -0.35 c-5.55 -1.25 -8.50 8.55 -4.15 13.75 1.50 1.75 3.50 2 5.75 0.65 1.35 -0.80 1.50 -0.80 3.40 0.25 3.75 2.15 6.90 -0.35 7.40 -5.80 0.50 -5.35 -1.65 -8.90 -5.40 -8.80 l-1.95 0.05 0 -7.70 0 -7.65 8.90 0.10 8.85 0.15 0.15 7.50 c0.05 4.15 0 8 -0.15 8.65 -0.40 1.70 -2.40 1.45 -3.95 -0.50 -0.75 -0.90 -1.55 -1.95 -1.85 -2.30 -0.40 -0.50 -0.70 -0.50 -1.25 -0.05 -0.90 0.70 -1 11.20 -0.15 11.75 0.30 0.15 1.60 -0.85 2.95 -2.30 3.45 -3.70 4.30 -3.40 4.10 1.50 -0.20 4.40 -0.60 5.35 -2.75 5.90 -0.85 0.25 -1.60 0.75 -1.60 1.15 0 0.55 1.20 0.75 6.15 0.85 5.70 0.10 6.15 0.05 6 -0.75 -0.10 -0.50 -0.65 -0.95 -1.25 -1.05 -2.15 -0.30 -3.15 -2.35 -3.15 -6.40 l0 -3.70 1.45 0 c1.40 0 2.85 1.25 4.35 3.75 0.30 0.60 0.80 0.80 1.35 0.60 0.75 -0.25 0.85 -1.15 0.85 -6.05 0 -3.15 -0.20 -5.85 -0.45 -6 -0.85 -0.55 -2.10 0.35 -2.80 2 -0.75 1.80 -2.65 3.05 -3.95 2.55 -0.65 -0.25 -0.80 -1.35 -0.80 -6.50 0 -3.40 0.15 -7.25 0.30 -8.55 l0.35 -2.30 8.55 0.10 8.55 0.15 0.15 7.90 0.15 7.85 -2.30 0 c-1.80 0 -2.55 0.25 -3.45 1.25 -3.45 3.75 -2.30 12 1.90 13.50 1.10 0.40 1.80 0.25 3.40 -0.65 l2.05 -1.10 1.60 1 c0.90 0.55 1.95 1 2.40 1 3 0 5.35 -3.30 5.35 -7.45 0 -4.85 -1.90 -7.55 -5.35 -7.55 l-2.20 0 0.15 -7.85 0.15 -7.90 4.10 -0.15 c3.60 -0.10 4.10 -0.05 4.35 0.80 0.85 2.65 5 4.30 7.90 3.15 3.60 -1.40 4.45 -7 1.45 -9.65 -1.25 -1.10 -2.05 -1.40 -3.90 -1.40 -2.05 0 -2.50 0.25 -4.20 2 -1.70 1.80 -2.15 2 -4.35 2 -1.35 0 -2.55 -0.10 -2.70 -0.25 -0.15 -0.15 0.20 -1.20 0.75 -2.30 0.85 -1.75 0.90 -2.30 0.40 -4 -0.35 -1.15 -1.25 -2.50 -2.30 -3.30 l-1.75 -1.40 0 -9.10 c0 -5 0.15 -9.40 0.30 -9.85 0.25 -0.60 1 -0.80 2.95 -0.80 3 0 3.45 0.40 4 3.25 0.90 5.05 4.50 8.75 8.55 8.75 3.10 0 8.30 -1.45 10.30 -2.80 2.85 -2 3.10 -1.50 2.70 5.75 -1.20 22.15 -8.90 41.05 -20.75 50.85 -4.55 3.80 -10.05 6.35 -17.10 7.90 -6.05 1.35 -7.95 1.45 -17.95 0.75z"/>
  <path d="M108 119.90 c-1.30 -1.45 -1.70 -2.95 -1.35 -5.30 0.30 -1.70 2.25 -4.10 3.35 -4.10 0.25 0 1.05 0.50 1.75 1.15 2.25 1.95 2.30 6.30 0.15 8.35 -1.40 1.30 -2.60 1.25 -3.90 -0.10z"/>
  <path d="M99.30 119.40 c-1.70 -2.70 -1.60 -5.85 0.25 -7.80 1.30 -1.45 2.70 -1.40 4.20 0.15 1.65 1.60 1.75 5.50 0.20 7.45 -1.30 1.70 -3.65 1.80 -4.65 0.20z"/>
  <path d="M56.70 118.95 c-2.15 -2.35 -0.65 -8.45 2.05 -8.45 2.95 0 4.55 4.05 2.95 7.35 -1.15 2.35 -3.40 2.85 -5 1.10z"/>
  <path d="M65.90 119.45 c-2.10 -1.20 -2 -6.85 0.15 -8 2.30 -1.20 4.45 0.75 4.45 4.10 0 3.45 -2.20 5.30 -4.60 3.90z"/>
  <path d="M120.45 94.30 c-2.70 -1.30 -2.75 -5.05 -0.10 -6.25 1.80 -0.80 3.90 0.10 4.70 2 0.50 1.30 0.45 1.70 -0.35 2.80 -1.30 1.70 -2.75 2.20 -4.25 1.45z"/>
  <path d="M42.25 93.25 c-1.50 -1.50 -1.60 -3.20 -0.20 -4.95 1.30 -1.65 3.95 -1.80 5.45 -0.30 1.50 1.50 1.35 4.15 -0.30 5.45 -1.75 1.40 -3.45 1.30 -4.95 -0.20z"/>
  <path d="M81.35 88.50 c-0.75 -0.60 -1.45 -1.80 -1.65 -2.80 -0.90 -4.90 4.45 -8.10 8.25 -4.90 1.35 1.10 1.55 1.60 1.55 3.70 0 1.90 -0.25 2.65 -1.30 3.70 -1.70 1.65 -4.90 1.80 -6.85 0.30z"/>
  <path d="M91.75 89 c-0.15 -0.25 -0.05 -1.35 0.20 -2.35 1.40 -5.20 -2.65 -10.05 -7.95 -9.55 -5.45 0.55 -8.40 5.80 -6.25 11.05 0.35 0.80 -0.10 0.85 -4.90 0.85 l-5.20 0 0.95 -2 c1.60 -3.20 0.80 -5.45 -2.85 -8.45 -0.45 -0.35 -0.70 -1 -0.55 -1.40 0.15 -0.40 0.30 -2.60 0.30 -4.90 l0 -4.15 1.90 -0.30 c5.55 -1 9.50 -3.45 11.65 -7.30 1.15 -2 1.15 -2 4.25 -2 3 0 3.20 0.10 4.50 1.75 3.75 4.90 9.05 5 13.80 0.25 1.30 -1.35 2.20 -1.90 2.50 -1.60 0.30 0.30 0.35 4.15 0.10 10.30 -0.30 9.05 -0.40 9.80 -1.30 10.10 -1.30 0.40 -2.90 3.10 -2.90 4.95 0 0.85 0.35 2.15 0.75 2.95 0.40 0.75 0.60 1.60 0.45 1.85 -0.35 0.60 -9.05 0.55 -9.45 -0.05z"/>
  <path d="M61.30 86.95 c-2.60 -2.05 -0.95 -6.45 2.40 -6.45 3.10 0 4.45 4.50 2 6.45 -0.75 0.60 -1.70 1.05 -2.20 1.05 -0.50 0 -1.45 -0.45 -2.20 -1.05z"/>
  <path d="M103.30 86.40 c-1.10 -1.60 -1 -3.05 0.35 -4.30 1.40 -1.35 2.85 -1.40 4.40 -0.20 1.25 1.05 1.50 3.55 0.45 4.80 -1 1.25 -4.30 1.05 -5.20 -0.30z"/>
  <path d="M19.75 82.95 c-1.65 -0.95 -2.25 -2.05 -2.25 -4 0 -2.15 1.75 -3.95 3.85 -3.95 1.60 0 4.15 2.55 4.15 4.20 0 2.60 -3.55 4.95 -5.75 3.75z"/>
  <path d="M156.60 72.20 c0.15 -4.95 0.15 -4.95 1.45 -5.10 4.15 -0.50 3.80 6.50 -0.45 9.30 l-1.15 0.75 0.15 -4.95z"/>
  <path d="M122.25 67.20 c-2.25 -1.15 -3.15 -2.15 -3.80 -4.05 -1.10 -3.35 0.75 -5.75 2.05 -2.60 1.45 3.45 6.05 5.25 9.70 3.75 2.55 -1.05 2.70 -1 1.25 0.50 -2.50 2.65 -6.65 3.75 -9.20 2.40z"/>
  <path d="M144 67.15 c-1.25 -0.65 -2.15 -1.70 -3.10 -3.60 -1.90 -3.75 -1.85 -4.55 0.35 -4.55 l1.75 0 -0.30 2.20 c-0.30 1.95 -0.15 2.40 0.95 3.50 1.65 1.65 3.85 1.70 5.65 0.15 1.30 -1.10 1.60 -2.55 1.10 -4.85 -0.10 -0.50 0.25 -0.75 1.10 -0.75 1.05 0 1.30 0.25 1.40 1.65 0.45 4.40 -4.95 8.20 -8.90 6.25z"/>
  <path d="M156.85 65.15 c-0.20 -0.15 -0.35 -0.95 -0.35 -1.75 0 -1.25 0.15 -1.40 1.70 -1.40 3.35 0 2.60 3.40 -0.75 3.50 -0.15 0 -0.45 -0.15 -0.60 -0.35z"/>
  <path d="M40.75 64.15 c-2 -0.50 -5.20 -4.50 -4.50 -5.65 0.15 -0.30 2.90 -0.50 6.05 -0.50 6.30 0 7 0.35 5.45 2.70 -1.45 2.20 -4.95 3.90 -7 3.45z"/>
  <path d="M144.60 63.90 c-1.50 -1.50 -0.10 -4.40 2.10 -4.40 1.45 0 2.30 0.90 2.30 2.50 0 1.65 -0.85 2.50 -2.50 2.50 -0.70 0 -1.55 -0.25 -1.90 -0.60z"/>
  <path d="M64.90 63.15 c-1.05 -1.25 -1.90 -2.95 -1.90 -3.85 0 -0.70 0.90 -0.80 6 -0.80 4.60 0 6 0.15 6 0.65 0 0.70 -1.95 2.65 -4 4 -1.65 1.15 -5.10 1.10 -6.10 0z"/>
  <path d="M124.30 60.95 c-2.20 -1.70 -1.70 -2.45 1.65 -2.45 5.85 0 7.35 1.05 4 2.75 -1.95 1.05 -4.10 0.95 -5.65 -0.30z"/>
  <path d="M91.85 59.95 c-1.50 -0.90 -0.40 -1.45 2.95 -1.45 2.85 0 3.25 0.10 3.10 0.90 -0.10 0.65 -0.75 0.90 -2.65 0.95 -1.40 0.10 -2.90 -0.10 -3.40 -0.40z"/>
  <path d="M10.75 58.75 c-3.65 -3.60 1.40 -8.90 5.45 -5.70 1 0.80 1.30 1.45 1.30 2.90 0 3.70 -4.15 5.45 -6.75 2.80z"/>
  <path d="M156.50 57.80 c0 -2.10 0.10 -2.30 1.20 -2.30 1.55 0 2.40 1.10 2.20 2.85 -0.10 1.15 -0.40 1.45 -1.75 1.55 -1.65 0.15 -1.65 0.15 -1.65 -2.10z"/>
  <path d="M124.15 55.15 c-1.50 -0.30 -1.45 -0.85 0.15 -2.10 1.85 -1.45 4.25 -1.35 6.15 0.25 0.85 0.70 1.45 1.50 1.25 1.75 -0.25 0.45 -5.40 0.50 -7.55 0.10z"/>
  <path d="M139.25 54.95 c-1.15 -1.80 1.85 -7.95 4.35 -9 3.25 -1.35 8.15 -0.25 9.40 2.05 0.30 0.55 0.50 2.40 0.40 4.15 l-0.15 3.10 -2.85 0.15 -2.85 0.15 1.75 -1.75 c1.95 -1.95 2.15 -3.55 0.65 -5.50 -0.80 -1.05 -1.45 -1.30 -3.20 -1.30 -1.75 0 -2.40 0.25 -3.20 1.30 -1.55 1.95 -1.35 3.55 0.75 5.50 l1.75 1.70 -3.25 0 c-1.80 0 -3.40 -0.25 -3.55 -0.55z"/>
  <path d="M54.55 54.30 c-0.40 -0.50 -0.45 -2.35 -0.10 -7.10 0.95 -12 2.45 -17.65 5.25 -19.50 1.10 -0.70 1.35 -0.70 2.70 0 2.20 1.15 2.90 3.30 2.20 6.80 -0.90 4.20 -5.45 18.95 -6.15 19.80 -0.75 0.90 -3.15 0.90 -3.90 0z"/>
  <path d="M81.35 54.70 c-0.20 -0.20 -0.35 -4.20 -0.35 -8.90 0 -11.15 0.60 -13.40 4.55 -17.45 2.50 -2.60 3 -2.90 4.50 -2.75 2.30 0.20 3.45 2.50 3.45 6.70 0 3.70 -0.75 5.95 -3.40 10.30 -3.15 5.15 -4.20 7.40 -4.55 9.85 -0.30 2.20 -0.40 2.30 -2.05 2.45 -1 0.10 -1.95 0 -2.15 -0.20z"/>
  <path d="M105.50 54.50 c0 -0.25 0.55 -1.70 1.20 -3.15 0.65 -1.50 2.05 -5.40 3.05 -8.65 2.50 -7.95 4.25 -11.60 6.55 -13.75 2.55 -2.40 3.75 -2.75 4.95 -1.45 1.30 1.40 0.90 3.40 -2.95 14.05 -1.80 5.05 -3.50 10.15 -3.80 11.35 l-0.55 2.10 -4.20 0 c-2.40 0 -4.25 -0.20 -4.25 -0.50z"/>
  <path d="M24.85 54.15 c-0.40 -0.65 0.90 -6.50 2.90 -13.15 2.35 -7.85 5.85 -15.35 7.50 -16.10 1.80 -0.80 2.75 0.20 2.75 2.85 0 2.35 -0.65 4.65 -4.90 17.85 l-2.85 8.90 -2.60 0 c-1.40 0 -2.70 -0.15 -2.80 -0.35z"/>
  <path d="M145 52.50 c-0.55 -0.55 -1 -1.35 -1 -1.75 0 -1.05 1.80 -2.75 2.90 -2.75 1.20 0 2.60 1.55 2.60 2.85 0 1.15 -1.50 2.65 -2.65 2.65 -0.45 0 -1.30 -0.45 -1.85 -1z"/>
  <path d="M139.35 43.95 c-2.30 -1.80 -1.20 -5.95 1.60 -5.95 1.40 0 3.55 1.95 3.55 3.25 0 2.75 -3.10 4.35 -5.15 2.70z"/>
  <path d="M149.70 43.20 c-1.10 -1.65 -0.50 -3.60 1.45 -4.70 1.20 -0.65 1.50 -0.65 2.75 0 1.70 0.95 2.10 3.60 0.80 5.05 -1.30 1.45 -3.95 1.25 -5 -0.35z"/>
 </g>
</svg>
