<?xml version="1.0" encoding="utf-8"?>
<!DOCTYPE svg PUBLIC "-//W3C//DTD SVG 1.0//EN" "http://www.w3.org/TR/2001/REC-SVG-20010904/DTD/svg10.dtd">
<svg version="1.0" xmlns="http://www.w3.org/2000/svg" width="126px" height="145px" viewBox="0 0 126 145" preserveAspectRatio="xMidYMid meet">
 <g fill="#000000">
  <path d="M37.70 143.30 c-0.15 -0.40 4.20 -6.85 10 -15 5.65 -7.85 10.30 -14.50 10.30 -14.75 0 -0.20 -1.40 -0.55 -3.15 -0.75 -13 -1.30 -25.55 -9.70 -30.85 -20.50 -3.25 -6.65 -3.50 -8.25 -4.05 -26.30 -0.40 -13.40 -0.70 -17.05 -1.55 -20.75 -1.15 -5.15 -2.65 -7.80 -4.85 -8.75 -2.80 -1.15 -5.25 0.35 -3.30 2 0.55 0.45 0.75 1.30 0.65 2.70 -0.15 2 -0.15 2 -3.40 3 -2.60 0.85 -3.30 1.25 -3.40 2.20 -0.15 1 0 1.10 2.55 1.10 4.40 0 4.55 0.85 0.65 4.65 -4.20 4 -4.25 4.85 -0.55 4.85 2.55 0 2.75 0.10 2.75 1.20 0 0.75 -0.90 2.05 -2.55 3.70 -3.15 3.05 -3.10 4.10 0.30 4.10 1.25 0 2.25 0.25 2.25 0.50 0 0.30 -0.90 1.85 -2 3.40 -1.05 1.55 -2.05 3.55 -2.10 4.35 -0.15 1.45 -0.05 1.50 1.95 1.65 3.55 0.25 3.95 2.30 0.90 4.30 -1.60 1.05 -3.25 3.70 -3.25 5.20 0 1.10 0.15 1.15 2.30 0.80 1.30 -0.20 2.70 -0.35 3.10 -0.40 1.65 -0.10 1.10 1.40 -1.35 3.70 -1.80 1.70 -2.55 2.75 -2.55 3.70 0 1.50 0.20 1.60 4.15 2.05 3.55 0.40 3.75 1.30 0.90 4.40 -2.30 2.50 -3.30 4.30 -2.70 4.85 0.20 0.20 1.85 0.20 3.60 -0.10 4.25 -0.65 4.95 0 2.40 2.35 -1.40 1.25 -1.85 2.10 -1.85 3.25 0 1.60 0 1.60 2.40 1.50 4.20 -0.20 4.40 0 2.30 2.75 -0.70 0.95 -1.20 2.10 -1.10 2.60 0.15 0.75 0.60 0.90 3.25 0.75 3.65 -0.20 4.20 0.35 2.45 2.40 -1.85 2.25 -1.25 3.10 1.90 2.90 2.45 -0.15 2.55 -0.10 2.55 1.10 0 0.85 0.25 1.20 0.75 1.10 1.50 -0.35 4.45 -0.15 5.45 0.40 2.10 1.10 1.95 4.90 -0.20 5.90 -1.80 0.85 -6 0.75 -7.75 -0.15 -0.80 -0.40 -2.20 -1.80 -3.05 -3.10 -0.90 -1.30 -3.05 -3.90 -4.80 -5.75 -2.05 -2.25 -3.30 -4.15 -3.65 -5.45 -0.30 -1.10 -1.30 -3 -2.20 -4.20 -0.90 -1.20 -1.80 -2.70 -1.95 -3.35 -0.20 -0.60 -1.10 -1.65 -2.10 -2.30 -2.10 -1.35 -2.30 -3.05 -0.75 -6.10 1.30 -2.55 1.25 -2.75 -0.45 -3.50 -1.75 -0.70 -2.45 -2.40 -2.25 -5.45 0.05 -1.50 -0.25 -2.85 -1.10 -4.50 -1.35 -2.50 -1.30 -4.90 0.15 -7.75 0.70 -1.40 0.70 -1.55 -0.20 -2.30 -1.85 -1.50 -2.25 -2.75 -1.20 -4.05 0.50 -0.65 1.15 -1.90 1.40 -2.75 0.50 -1.40 0.40 -1.80 -0.75 -3.40 l-1.30 -1.85 0.95 -2.70 c0.85 -2.55 0.85 -2.80 0.10 -3.65 -1.10 -1.20 -1.10 -3.25 0 -6.15 0.75 -2.20 0.75 -2.45 0 -4.10 -1.20 -2.50 -1.05 -4.50 0.40 -6.25 0.75 -0.90 1.40 -2.45 1.60 -3.85 0.35 -2.70 1.85 -4.75 4.30 -5.90 1.45 -0.70 2.05 -0.70 4.40 -0.15 9 2.10 11.10 7.20 11.70 28.05 0.15 6.05 0.65 14.25 1 18.25 0.70 6.80 0.85 7.50 2.80 11.45 2.10 4.25 6.85 9.90 7.30 8.70 0.15 -0.35 -0.45 -2.75 -1.30 -5.25 -3.40 -10.25 -3.20 -8.45 -3.40 -39.90 -0.10 -15.80 -0.15 -29.15 -0.15 -29.60 0 -0.70 -0.40 -0.90 -1.75 -0.90 -3.85 0 -6.75 -2.75 -6.75 -6.35 0 -5.20 4.60 -8.05 9.30 -5.85 1.95 0.90 3.85 4.35 3.60 6.55 l-0.15 1.40 5.50 0.15 5.55 0.15 8.65 -9.05 c4.85 -5.05 9 -9 9.45 -8.95 0.50 0.05 4.65 4.10 9.25 9 l8.45 8.95 5.60 0 5.65 0 0 -2.20 c0 -3.80 2.60 -6.45 6.35 -6.45 3.70 0 6.30 2.65 6.30 6.50 0 2.15 -1.35 4.50 -3.10 5.45 -0.65 0.40 -2.10 0.65 -3.25 0.70 -1.80 0 -2.15 0.20 -2.40 1.10 -0.10 0.65 -0.30 12.75 -0.40 26.90 -0.15 21.35 -0.35 26.65 -1.05 30.90 -0.80 4.85 -2.75 13.25 -3.55 15.25 -0.70 1.70 0.95 0.85 3.55 -1.85 3.15 -3.40 5.80 -8.60 7.40 -14.80 0.65 -2.60 2.35 -12.10 3.75 -21.05 2.75 -17.70 3.30 -19.55 6.50 -21.50 2.70 -1.65 5.65 -2.15 7.70 -1.30 2.90 1.25 3.50 2.65 4 9.90 0.40 6.10 0.35 6.60 -0.60 8.25 l-1.05 1.75 1 1.95 c1.25 2.45 1.25 4.05 0.05 5.60 -0.90 1.15 -0.95 1.40 -0.30 3.20 1.25 3.55 0.75 5.85 -1.55 6.70 -1.15 0.45 -1.20 0.65 -0.90 3.30 0.35 2.70 0.30 2.95 -1 3.95 -1.20 0.95 -1.30 1.25 -0.80 2.45 1.25 3.35 0.10 6.30 -2.45 6.30 -1.10 0 -1.15 0.15 -0.80 2.50 0.30 2.05 0.15 2.90 -0.75 4.60 -0.65 1.25 -0.95 2.50 -0.80 3.20 0.40 1.50 -0.35 3.35 -2 4.85 -1.05 0.95 -1.25 1.55 -1.05 2.65 0.35 1.85 -0.35 3.60 -2.20 5.45 -1.30 1.40 -1.40 1.70 -0.95 3.20 0.65 2.25 -0.10 3.55 -2 3.55 -1.35 0 -1.50 0.15 -1.50 1.50 0 1.85 -1.55 3.50 -3.25 3.50 -1.20 0 -1.25 0.15 -1.25 2.95 0 3.55 -0.90 4.90 -3.65 5.55 -5.05 1.10 -8.75 -3.10 -6.05 -6.95 0.70 -1 1.15 -1.15 2.90 -0.90 1.10 0.10 2.40 0.30 2.80 0.40 0.60 0.15 0.70 -0.30 0.60 -2.25 -0.10 -2.40 -0.10 -2.40 1.25 -2.05 3.05 0.80 3.35 0.45 2.35 -3.45 l-0.35 -1.40 2.10 0.35 c2.60 0.45 3.05 -0.45 1.85 -3.70 -0.45 -1.25 -0.80 -2.50 -0.80 -2.75 0 -0.20 1 -0.25 2.25 -0.10 2.05 0.35 2.30 0.25 2.80 -0.90 0.55 -1.20 0.25 -2.50 -1.45 -6.40 -0.10 -0.25 0.40 -0.40 1.05 -0.40 2.90 0 3.75 -1.50 1.85 -3.25 -0.55 -0.50 -1 -1.40 -1 -2 0 -0.95 0.35 -1.15 2.05 -1.40 3.10 -0.40 3.35 -0.90 2 -3.95 -0.65 -1.45 -1.25 -3.15 -1.40 -3.75 -0.25 -1.05 -0.10 -1.15 2.05 -1.15 1.95 0 2.40 -0.20 2.75 -1.10 0.50 -1.40 0.25 -2.15 -1.30 -4.30 -1.65 -2.20 -1.20 -3.20 1.20 -3 2.50 0.20 2.60 -0.65 0.40 -4.30 -0.95 -1.60 -1.60 -3.10 -1.45 -3.35 0.15 -0.25 1.35 -0.45 2.70 -0.45 1.30 0 2.75 -0.15 3.20 -0.30 1.40 -0.55 0.90 -2.60 -1.20 -4.90 -2.45 -2.65 -2.55 -3.70 -0.35 -3.90 2.30 -0.20 2.15 -1.80 -0.25 -3.35 -2.20 -1.40 -2.55 -3.20 -0.75 -4.10 2.20 -1.15 3.35 -2.60 3.35 -4.25 0 -1.40 -0.25 -1.70 -1.75 -2.20 -2.10 -0.70 -2.45 -1.65 -1.55 -4.65 0.40 -1.30 0.50 -2.45 0.25 -2.60 -0.75 -0.50 -4.55 0.80 -5.70 1.95 -0.85 0.85 -1.20 2.10 -1.70 5.80 -0.30 2.60 -1.45 10.50 -2.55 17.55 -3.10 20.05 -5.85 26.50 -15.45 35.95 -6.50 6.35 -13.05 9.75 -20.15 10.35 -1.80 0.15 -3.60 0.45 -3.95 0.70 -0.50 0.30 1.95 4.30 9.15 15 5.45 8.05 9.75 14.80 9.60 15.05 -0.15 0.20 -11.50 0.40 -25.25 0.40 -20.80 0 -25.05 -0.10 -25.25 -0.70z m44.60 -2.60 c-0.65 -1.65 -18.10 -26.70 -18.80 -26.95 -0.45 -0.20 -1.15 0.20 -1.75 0.90 -2.40 2.75 -19.25 25.85 -19.25 26.30 0 0.40 6.20 0.55 20.05 0.55 18.15 0 20.05 -0.10 19.75 -0.80z m14.60 -10.05 c0.20 -1.30 -1.35 -2.30 -3.30 -2.05 -2.85 0.35 -1.30 3.60 1.60 3.30 1.15 -0.10 1.60 -0.45 1.70 -1.25z m-65.85 -0.95 c1.75 -0.90 1.70 -1.70 -0.30 -2.65 -1.25 -0.60 -1.60 -0.60 -2.70 0 -1.55 0.90 -1.80 1.65 -0.80 2.65 1 1 1.90 1 3.80 0z m40.20 -21.45 c4.75 -1.25 7.25 -2.75 11 -6.50 3.75 -3.75 5.80 -7.30 7.65 -13.35 2.05 -6.60 2.65 -11.75 2.95 -24.45 l0.30 -12.30 -4.95 -0.30 c-2.75 -0.20 -8.95 -0.35 -13.80 -0.35 l-8.85 0 -0.30 1.65 c-0.15 0.85 -0.25 6.10 -0.15 11.60 l0.15 10 4.60 0.15 4.60 0.15 3.60 -4.80 c2.80 -3.75 3.80 -4.75 4.65 -4.65 1.05 0.15 1.05 0.35 1.05 10.15 0 12.20 0.05 12.15 -5.75 6.50 l-3.95 -3.80 -4.40 0.15 -4.40 0.15 0.15 2.75 c0.30 4.50 1.45 6.25 7 10.35 5.85 4.30 5.65 4.40 -8.65 4.40 l-12 0 0 -1.25 c0 -0.95 0.55 -1.55 2.75 -2.75 4.20 -2.35 7 -7.05 7 -11.85 l0 -1.90 -4.75 0 c-3.55 0 -4.80 0.15 -5.10 0.70 -0.85 1.50 -5.75 6.30 -6.45 6.30 -0.60 0 -0.70 -1.55 -0.70 -8.95 0 -6.15 0.20 -9.10 0.55 -9.35 0.35 -0.20 2.15 1.35 4.45 3.75 l3.85 4.10 3.95 -0.15 3.95 -0.15 0.15 -11.60 0.10 -11.65 -13.75 0 -13.75 0 0 10.80 c0 5.90 0.25 12.40 0.55 14.35 2.55 17.05 10.60 29.15 21.40 32.15 3.30 0.90 11.75 0.85 15.30 -0.05z m21.65 -66.55 l0.15 -5.60 -11.15 -0.35 c-6.15 -0.20 -12.25 -0.25 -13.65 -0.15 l-2.50 0.15 -0.15 5.20 c-0.05 2.90 0 5.55 0.10 5.90 0.25 0.55 2.85 0.65 13.65 0.55 l13.40 -0.15 0.15 -5.55z m-31.50 -0.30 l-0.15 -5.65 -13.50 0 -13.50 0 -0.15 4.95 c-0.05 2.75 0 5.30 0.10 5.65 0.20 0.50 3.05 0.65 13.80 0.65 l13.55 0 -0.15 -5.60z m0.30 -10.20 c0.40 -1 0.40 -6.40 0 -7.40 -0.25 -0.70 -1.95 -0.80 -13.70 -0.80 -15.20 0 -14 -0.40 -14 4.50 0 4.90 -1.20 4.50 14 4.50 11.75 0 13.45 -0.10 13.70 -0.80z m31.20 -3.55 l-0.15 -4.40 -13.50 0 -13.50 0 -0.15 4.40 -0.15 4.35 13.80 0 13.80 0 -0.15 -4.35z m-62.50 -7.95 c0.80 -0.55 1.10 -1.25 1.10 -2.70 0 -1.45 -0.30 -2.15 -1.10 -2.70 -2.45 -1.75 -5.40 -0.35 -5.40 2.50 0 3.10 2.90 4.70 5.40 2.90z m71 -0.20 c2.10 -2 0.85 -5.50 -2 -5.50 -3.10 0 -4.55 3.35 -2.40 5.50 1.30 1.30 3 1.25 4.40 0z m-26 -0.45 c-0.20 -0.65 -11.10 -12.55 -11.45 -12.55 -0.50 0 -11.95 11.90 -11.95 12.45 0 0.40 3.60 0.55 11.80 0.55 6.90 0 11.70 -0.20 11.60 -0.45z"/>
 </g>
 <g fill="none">
  <path d="M0 72.50 l0 -72.50 63 0 63 0 0 72.50 0 72.50 -63 0 -63 0 0 -72.50z m88.20 71.10 c0.15 -0.25 -4.15 -7 -9.60 -15.05 -7.20 -10.70 -9.65 -14.70 -9.15 -15 0.35 -0.25 2.15 -0.55 3.95 -0.70 7.10 -0.60 13.65 -4 20.15 -10.35 9.60 -9.45 12.35 -15.90 15.45 -35.95 1.10 -7.05 2.25 -14.95 2.55 -17.55 0.50 -3.70 0.85 -4.95 1.70 -5.80 1.15 -1.15 4.95 -2.45 5.70 -1.95 0.25 0.15 0.15 1.30 -0.25 2.60 -0.90 3 -0.55 3.95 1.55 4.65 1.50 0.50 1.75 0.80 1.75 2.20 0 1.65 -1.15 3.10 -3.35 4.25 -1.80 0.90 -1.45 2.70 0.75 4.10 2.40 1.55 2.55 3.15 0.25 3.35 -2.20 0.20 -2.10 1.25 0.35 3.90 2.10 2.30 2.60 4.35 1.20 4.90 -0.45 0.15 -1.90 0.30 -3.20 0.30 -1.35 0 -2.55 0.20 -2.70 0.45 -0.15 0.25 0.50 1.75 1.45 3.35 2.20 3.65 2.10 4.50 -0.40 4.30 -2.40 -0.20 -2.85 0.80 -1.20 3 1.55 2.15 1.80 2.90 1.30 4.30 -0.35 0.90 -0.80 1.10 -2.75 1.10 -2.15 0 -2.30 0.10 -2.05 1.15 0.15 0.60 0.75 2.30 1.40 3.75 1.35 3.05 1.10 3.55 -2 3.95 -1.70 0.25 -2.05 0.45 -2.05 1.40 0 0.60 0.45 1.50 1 2 1.90 1.75 1.05 3.25 -1.85 3.25 -0.65 0 -1.15 0.15 -1.05 0.40 1.70 3.90 2 5.20 1.45 6.40 -0.50 1.15 -0.75 1.25 -2.80 0.90 -1.25 -0.15 -2.25 -0.10 -2.25 0.10 0 0.25 0.35 1.50 0.80 2.75 1.20 3.25 0.75 4.15 -1.85 3.70 l-2.10 -0.35 0.35 1.40 c1 3.90 0.70 4.25 -2.35 3.45 -1.35 -0.35 -1.35 -0.35 -1.25 2.05 0.10 1.95 0 2.40 -0.60 2.25 -0.40 -0.10 -1.70 -0.30 -2.80 -0.40 -1.75 -0.25 -2.20 -0.10 -2.90 0.90 -2.70 3.85 1 8.05 6.05 6.95 2.75 -0.65 3.65 -2 3.65 -5.55 0 -2.80 0.05 -2.95 1.25 -2.95 1.70 0 3.25 -1.65 3.25 -3.50 0 -1.35 0.15 -1.50 1.50 -1.50 1.90 0 2.65 -1.30 2 -3.55 -0.45 -1.50 -0.35 -1.80 0.95 -3.20 1.85 -1.85 2.55 -3.60 2.20 -5.45 -0.20 -1.10 0 -1.70 1.05 -2.65 1.65 -1.50 2.40 -3.35 2 -4.85 -0.15 -0.70 0.15 -1.95 0.80 -3.20 0.90 -1.70 1.05 -2.55 0.75 -4.60 -0.35 -2.35 -0.30 -2.50 0.80 -2.50 2.55 0 3.70 -2.95 2.45 -6.30 -0.50 -1.20 -0.40 -1.50 0.80 -2.45 1.30 -1 1.35 -1.25 1 -3.95 -0.30 -2.65 -0.25 -2.85 0.90 -3.30 2.30 -0.85 2.80 -3.15 1.55 -6.70 -0.65 -1.80 -0.60 -2.05 0.30 -3.20 1.20 -1.55 1.20 -3.15 -0.05 -5.60 l-1 -1.95 1.05 -1.75 c0.95 -1.65 1 -2.15 0.60 -8.25 -0.50 -7.25 -1.10 -8.65 -4 -9.90 -2.05 -0.85 -5 -0.35 -7.70 1.30 -3.20 1.95 -3.75 3.80 -6.50 21.50 -1.40 8.95 -3.10 18.45 -3.75 21.05 -1.60 6.20 -4.25 11.40 -7.40 14.80 -2.60 2.70 -4.25 3.55 -3.55 1.85 0.80 -2 2.75 -10.40 3.55 -15.25 0.70 -4.25 0.90 -9.55 1.05 -30.90 0.10 -14.15 0.30 -26.25 0.40 -26.90 0.25 -0.90 0.60 -1.10 2.40 -1.10 1.15 -0.05 2.60 -0.30 3.25 -0.70 1.75 -0.95 3.10 -3.30 3.10 -5.45 0 -3.85 -2.60 -6.50 -6.30 -6.50 -3.75 0 -6.35 2.65 -6.35 6.45 l0 2.20 -5.65 0 -5.60 0 -8.45 -8.95 c-4.60 -4.90 -8.75 -8.95 -9.25 -9 -0.45 -0.05 -4.60 3.90 -9.45 8.95 l-8.65 9.05 -5.55 -0.15 -5.50 -0.15 0.15 -1.40 c0.25 -2.20 -1.65 -5.65 -3.60 -6.55 -4.70 -2.20 -9.30 0.65 -9.30 5.85 0 3.60 2.90 6.35 6.75 6.35 1.35 0 1.75 0.20 1.75 0.90 0 0.45 0.05 13.80 0.15 29.60 0.20 31.45 0 29.65 3.40 39.90 0.85 2.50 1.45 4.90 1.30 5.25 -0.45 1.20 -5.20 -4.45 -7.30 -8.70 -1.95 -3.95 -2.10 -4.65 -2.80 -11.45 -0.35 -4 -0.85 -12.20 -1 -18.25 -0.60 -20.85 -2.70 -25.95 -11.70 -28.05 -2.35 -0.55 -2.95 -0.55 -4.40 0.15 -2.45 1.15 -3.95 3.20 -4.30 5.90 -0.20 1.40 -0.85 2.95 -1.60 3.85 -1.45 1.75 -1.60 3.75 -0.40 6.25 0.75 1.65 0.75 1.90 0 4.10 -1.10 2.90 -1.10 4.95 0 6.15 0.75 0.85 0.75 1.10 -0.10 3.65 l-0.95 2.70 1.30 1.85 c1.15 1.60 1.25 2 0.75 3.40 -0.25 0.85 -0.90 2.10 -1.40 2.75 -1.05 1.30 -0.65 2.55 1.20 4.05 0.90 0.75 0.90 0.90 0.20 2.30 -1.45 2.85 -1.50 5.25 -0.15 7.75 0.85 1.65 1.15 3 1.10 4.50 -0.20 3.05 0.50 4.75 2.25 5.45 1.70 0.75 1.75 0.95 0.45 3.50 -1.55 3.05 -1.35 4.75 0.75 6.10 1 0.65 1.90 1.70 2.10 2.30 0.15 0.65 1.05 2.15 1.95 3.35 0.90 1.20 1.90 3.10 2.20 4.20 0.35 1.30 1.60 3.20 3.65 5.45 1.75 1.85 3.90 4.45 4.80 5.75 0.85 1.30 2.25 2.70 3.05 3.10 1.75 0.90 5.95 1 7.75 0.15 2.15 -1 2.30 -4.80 0.20 -5.90 -1 -0.55 -3.95 -0.75 -5.45 -0.40 -0.50 0.10 -0.75 -0.25 -0.75 -1.10 0 -1.20 -0.10 -1.25 -2.55 -1.10 -3.15 0.20 -3.75 -0.65 -1.90 -2.90 1.75 -2.05 1.20 -2.60 -2.45 -2.40 -2.65 0.15 -3.10 0 -3.25 -0.75 -0.10 -0.50 0.40 -1.65 1.10 -2.60 2.10 -2.75 1.90 -2.95 -2.30 -2.75 -2.40 0.10 -2.40 0.10 -2.40 -1.50 0 -1.15 0.45 -2 1.85 -3.25 2.55 -2.35 1.85 -3 -2.40 -2.35 -1.75 0.30 -3.40 0.30 -3.60 0.10 -0.60 -0.55 0.40 -2.35 2.70 -4.85 2.85 -3.10 2.65 -4 -0.90 -4.40 -3.95 -0.45 -4.15 -0.55 -4.15 -2.05 0 -0.95 0.75 -2 2.55 -3.70 2.45 -2.30 3 -3.80 1.35 -3.70 -0.40 0.05 -1.80 0.20 -3.10 0.40 -2.15 0.35 -2.30 0.30 -2.30 -0.80 0 -1.50 1.65 -4.15 3.25 -5.20 3.05 -2 2.65 -4.05 -0.90 -4.30 -2 -0.15 -2.10 -0.20 -1.95 -1.65 0.05 -0.80 1.05 -2.80 2.10 -4.35 1.10 -1.55 2 -3.10 2 -3.40 0 -0.25 -1 -0.50 -2.25 -0.50 -3.40 0 -3.45 -1.05 -0.30 -4.10 1.65 -1.65 2.55 -2.95 2.55 -3.70 0 -1.10 -0.20 -1.20 -2.75 -1.20 -3.70 0 -3.65 -0.85 0.55 -4.85 3.90 -3.80 3.75 -4.65 -0.65 -4.65 -2.55 0 -2.70 -0.10 -2.55 -1.10 0.10 -0.95 0.80 -1.35 3.40 -2.20 3.25 -1 3.25 -1 3.40 -3 0.10 -1.40 -0.10 -2.25 -0.65 -2.70 -1.95 -1.65 0.50 -3.15 3.30 -2 2.20 0.95 3.70 3.60 4.85 8.75 0.85 3.70 1.15 7.35 1.55 20.75 0.55 18.05 0.80 19.65 4.05 26.30 5.30 10.80 17.85 19.20 30.85 20.50 1.75 0.20 3.15 0.55 3.15 0.75 0 0.25 -4.65 6.90 -10.30 14.75 -5.80 8.15 -10.15 14.60 -10 15 0.20 0.60 4.45 0.70 25.25 0.70 13.75 0 25.10 -0.20 25.25 -0.40z"/>
  <path d="M42.50 140.95 c0 -0.45 16.85 -23.55 19.25 -26.30 0.60 -0.70 1.30 -1.10 1.75 -0.90 0.70 0.25 18.15 25.30 18.80 26.95 0.30 0.70 -1.60 0.80 -19.75 0.80 -13.85 0 -20.05 -0.15 -20.05 -0.55z"/>
  <path d="M92.80 131.20 c-1.20 -1.15 -0.80 -2.40 0.80 -2.60 1.95 -0.25 3.50 0.75 3.30 2.05 -0.20 1.45 -2.90 1.80 -4.10 0.55z"/>
  <path d="M27.25 129.70 c-1 -1 -0.75 -1.75 0.80 -2.65 1.10 -0.60 1.45 -0.60 2.70 0 2 0.95 2.05 1.75 0.30 2.65 -1.90 1 -2.80 1 -3.80 0z"/>
  <path d="M55.95 108.30 c-10.80 -3 -18.85 -15.10 -21.40 -32.15 -0.30 -1.95 -0.55 -8.45 -0.55 -14.35 l0 -10.80 13.75 0 13.75 0 -0.10 11.65 -0.15 11.60 -3.95 0.15 -3.95 0.15 -3.85 -4.10 c-2.30 -2.40 -4.10 -3.95 -4.45 -3.75 -0.35 0.25 -0.55 3.20 -0.55 9.35 0 7.40 0.10 8.95 0.70 8.95 0.70 0 5.60 -4.80 6.45 -6.30 0.30 -0.55 1.55 -0.70 5.10 -0.70 l4.75 0 0 1.90 c0 4.80 -2.80 9.50 -7 11.85 -2.20 1.20 -2.75 1.80 -2.75 2.75 l0 1.25 12 0 c14.30 0 14.50 -0.10 8.65 -4.40 -5.55 -4.10 -6.70 -5.85 -7 -10.35 l-0.15 -2.75 4.40 -0.15 4.40 -0.15 3.95 3.80 c5.80 5.65 5.75 5.70 5.75 -6.50 0 -9.80 0 -10 -1.05 -10.15 -0.85 -0.10 -1.85 0.90 -4.65 4.65 l-3.60 4.80 -4.60 -0.15 -4.60 -0.15 -0.15 -10 c-0.10 -5.50 0 -10.75 0.15 -11.60 l0.30 -1.65 8.85 0 c4.85 0 11.05 0.15 13.80 0.35 l4.95 0.30 -0.30 12.30 c-0.30 12.70 -0.90 17.85 -2.95 24.45 -1.85 6.05 -3.90 9.60 -7.65 13.35 -3.75 3.75 -6.25 5.25 -11 6.50 -3.55 0.90 -12 0.95 -15.30 0.05z"/>
  <path d="M65.70 46.85 c-0.10 -0.35 -0.15 -3 -0.10 -5.90 l0.15 -5.20 2.50 -0.15 c1.40 -0.10 7.50 -0.05 13.65 0.15 l11.15 0.35 -0.15 5.60 -0.15 5.55 -13.40 0.15 c-10.80 0.10 -13.40 0 -13.65 -0.55z"/>
  <path d="M34.20 46.35 c-0.10 -0.35 -0.15 -2.90 -0.10 -5.65 l0.15 -4.95 13.50 0 13.50 0 0.15 5.65 0.15 5.60 -13.55 0 c-10.75 0 -13.60 -0.15 -13.80 -0.65z"/>
  <path d="M34.30 31.20 c-0.40 -1 -0.40 -6.40 0 -7.40 0.25 -0.70 1.95 -0.80 13.70 -0.80 15.20 0 14 -0.40 14 4.50 0 4.90 1.20 4.50 -14 4.50 -11.75 0 -13.45 -0.10 -13.70 -0.80z"/>
  <path d="M65.60 27.65 l0.15 -4.40 13.50 0 13.50 0 0.15 4.40 0.15 4.35 -13.80 0 -13.80 0 0.15 -4.35z"/>
  <path d="M26 19.50 c-1.40 -1.40 -1.35 -4.20 0.10 -5.20 2.55 -1.80 5.40 -0.35 5.40 2.70 0 1.45 -0.30 2.15 -1.10 2.70 -1.55 1.10 -3.20 1 -4.40 -0.20z"/>
  <path d="M97 19.50 c-2.15 -2.15 -0.70 -5.50 2.40 -5.50 2.85 0 4.10 3.50 2 5.50 -1.40 1.25 -3.10 1.30 -4.40 0z"/>
  <path d="M52 18.95 c0 -0.55 11.45 -12.45 11.95 -12.45 0.35 0 11.25 11.90 11.45 12.55 0.10 0.25 -4.70 0.45 -11.60 0.45 -8.20 0 -11.80 -0.15 -11.80 -0.55z"/>
 </g>
</svg>
