<?xml version="1.0" encoding="utf-8"?>
<!DOCTYPE svg PUBLIC "-//W3C//DTD SVG 1.0//EN" "http://www.w3.org/TR/2001/REC-SVG-20010904/DTD/svg10.dtd">
<svg version="1.0" xmlns="http://www.w3.org/2000/svg" width="138px" height="150px" viewBox="0 0 138 150" preserveAspectRatio="xMidYMid meet">
 <g fill="#000000">
  <path d="M68.10 149.15 c-8.85 -0.15 -9.65 -0.25 -9.50 -1.05 0.10 -0.60 0.85 -0.95 2.70 -1.15 2.95 -0.35 5.35 -1.50 6.40 -3.05 1 -1.40 1.15 -11.60 0.25 -12.20 -0.35 -0.20 -6.10 -0.50 -12.90 -0.65 -11.65 -0.30 -12.45 -0.40 -14.75 -1.55 -1.40 -0.65 -3.45 -2.10 -4.60 -3.20 -1.70 -1.70 -2.20 -2.60 -2.70 -5 -1 -4.85 0.25 -8.35 3.85 -10.80 3.10 -2.15 6.10 -2.60 19.20 -2.85 l12.35 -0.30 0.30 -1.80 c0.15 -1 0.30 -4.20 0.30 -7.15 0 -4.80 -0.10 -5.40 -0.85 -5.45 -0.50 0 -2.25 -0.15 -3.85 -0.25 -4.45 -0.40 -5 -0.10 -7.05 3.60 -1.30 2.25 -2.10 3.20 -2.65 3.10 -0.75 -0.15 -0.85 -1.10 -0.70 -9.90 0.10 -5.35 0.35 -9.95 0.60 -10.15 0.40 -0.45 1.65 1.15 3.50 4.50 1.05 1.95 1.35 2.10 3.70 2.40 1.40 0.20 3.55 0.25 4.80 0.15 l2.25 -0.15 0.15 -4.60 0.15 -4.65 -5.65 0 c-6.80 0 -11.70 -0.70 -13.40 -1.95 -0.70 -0.50 -1.95 -2.10 -2.85 -3.60 -2.70 -4.60 -3.55 -5.45 -5.40 -5.45 -2.15 0 -4.45 1.95 -7.05 5.90 -4.30 6.45 -8.45 9.55 -12 8.90 -2.20 -0.45 -5.40 -2.90 -11.10 -8.50 -4.85 -4.75 -5.50 -4.95 -5.65 -1.80 -0.15 3.60 -0.25 4.20 -0.80 4.35 -0.80 0.30 -2.30 -3.15 -3.20 -7.15 -0.70 -3.20 -0.95 -14.85 -0.35 -16.35 0.35 -0.80 0.75 -0.55 2.90 1.80 2.55 2.80 7.35 5.70 11.40 6.90 3.15 0.90 3.50 1.65 1.35 2.90 -1 0.55 -2.90 1.40 -4.30 1.85 -1.35 0.45 -2.45 1.10 -2.45 1.45 0 0.95 2.75 4.50 4.50 5.75 3.10 2.20 9.20 3.20 11.65 1.95 0.60 -0.35 2.80 -2.30 4.85 -4.45 8.95 -9.15 12.65 -9.45 17.80 -1.40 3.30 5.10 4 5.40 12.60 5.40 l7.10 0 0 -4.75 0 -4.80 -4.85 0.15 -4.85 0.15 -1.95 3.40 c-3.10 5.40 -3.35 4.95 -3.35 -6.65 0 -8.60 0.10 -10.05 0.75 -10.35 0.90 -0.30 1.75 0.65 3.50 3.90 l1.20 2.30 4.40 0.30 c2.40 0.15 4.60 0.10 4.80 -0.15 0.25 -0.20 0.50 -4.50 0.50 -9.55 l0.10 -9.20 -11.50 -0.25 c-11.10 -0.25 -11.60 -0.30 -13.70 -1.50 -3.70 -2.05 -5.55 -6.55 -4.50 -10.75 0.65 -2.50 2.45 -4.35 5.70 -5.80 2.55 -1.10 12.95 -3.35 19.15 -4.15 l4.85 -0.60 0.15 -4.05 c0.15 -3.75 0.05 -4.15 -1.25 -5.65 -0.75 -0.90 -2.10 -1.95 -3 -2.30 -0.90 -0.40 -1.65 -1.05 -1.65 -1.45 0 -0.65 1.30 -0.75 8.50 -0.75 7.35 0 8.50 0.10 8.50 0.80 0 0.40 -0.75 1.05 -1.60 1.45 -2.50 1.05 -4.50 2.55 -5.20 3.85 -0.80 1.40 -0.90 7.70 -0.20 8.15 0.30 0.20 2.20 0.45 4.25 0.60 l3.75 0.30 0 -1.35 c0 -6.95 8.80 -9.20 11.60 -2.95 l0.95 2.20 1.45 -1.05 c6.15 -4.40 13.30 2.85 8.75 8.80 l-1.40 1.80 2.45 2.10 c1.35 1.10 4.25 3.70 6.40 5.65 3.55 3.20 4.25 3.65 5.95 3.65 2.65 0 5.15 -1.25 5.85 -2.95 0.55 -1.40 0.25 -4.85 -0.45 -5.30 -0.20 -0.10 -1.10 0.60 -2 1.50 -1.45 1.55 -1.95 1.75 -4.10 1.75 -3.35 0 -4.70 -1.30 -4.30 -4.15 0.15 -1.25 0.75 -2.50 1.60 -3.30 1.10 -1.10 1.70 -1.30 4 -1.25 4.65 0.10 7.80 2.85 8.50 7.45 0.50 3.50 -1.10 6.35 -4.55 8.35 -1.50 0.80 -2.70 1.60 -2.70 1.70 0 0.15 0.55 1.50 1.20 3.10 0.60 1.55 1.30 3.25 1.50 3.75 0.30 0.90 0.40 0.90 2 -0.10 3.50 -2.15 7.90 -0.60 9.25 3.25 0.85 2.45 0.50 4.20 -1.40 6.30 -1.10 1.25 -1.95 1.65 -3.85 1.85 l-2.45 0.30 0.15 2.75 c0.10 1.50 0.35 2.90 0.50 3.10 0.20 0.20 1.25 0.10 2.35 -0.20 6.05 -1.60 10.25 5.85 5.80 10.30 -1.30 1.30 -1.95 1.55 -3.95 1.55 -1.30 0 -2.80 -0.15 -3.40 -0.40 -0.90 -0.30 -1.10 -0.10 -1.60 2.20 -0.35 1.40 -0.60 3.05 -0.60 3.75 0 1.05 0.20 1.20 1.95 1.20 2.55 0 4.85 1.85 5.55 4.55 0.75 2.75 -0.65 5.95 -3.15 7.10 -2.30 1.10 -3.70 1.05 -5.95 -0.15 l-1.85 -1 -2.30 3.55 c-1.25 1.95 -2.25 3.65 -2.15 3.75 0.10 0.05 1.40 0.80 2.90 1.55 6.55 3.45 8.55 11.05 4 15.40 -1.35 1.30 -1.85 1.45 -4.90 1.45 -5.10 0 -8.10 -2 -8.10 -5.30 0 -2.35 2.45 -5.25 4.75 -5.70 2.95 -0.55 5.60 3.25 3.65 5.20 -0.90 0.90 -3.90 0.80 -3.90 -0.15 0 -0.40 0.30 -0.75 0.70 -0.75 0.35 0 0.95 -0.30 1.25 -0.70 0.45 -0.50 0.35 -0.80 -0.25 -1.35 -1.10 -0.90 -2.30 -0.05 -2.90 2 -0.70 2.40 0.75 3.65 4.15 3.65 3.30 0 4.55 -1 4.55 -3.70 0 -2.40 -1 -4.35 -3 -6.10 -1.30 -1.10 -2.05 -1.30 -4.55 -1.30 -2.65 0 -3.55 0.30 -8.20 2.80 l-5.20 2.75 0.95 1.85 c1.25 2.35 1.25 4.40 0 6.50 -1 1.60 -3.55 3.10 -5.35 3.10 -1.45 0 -4.10 -1.65 -5.10 -3.15 l-0.95 -1.45 -0.90 1.95 c-1.15 2.30 -3.80 4.15 -5.90 4.15 -2.05 0 -4.55 -1.60 -5.55 -3.50 -0.80 -1.55 -1.45 -1.90 -2 -1 -0.65 1.05 -3.20 0.55 -4.05 -0.80 -0.80 -1.20 -0.80 -1.30 0.25 -2.70 1.35 -1.85 1.30 -2.10 -0.05 -1.90 -1.15 0.15 -1.15 0.30 -1.30 8.30 l-0.10 8.10 6.20 0 6.20 0 1.10 -2.30 c1.80 -3.70 6.45 -5.95 10.25 -5 1.80 0.45 2.85 2.95 2.25 5.60 -0.65 2.85 -3.80 5.25 -4.80 3.65 -0.20 -0.35 0.35 -1.10 1.25 -1.80 0.85 -0.65 1.55 -1.65 1.55 -2.15 0 -1.85 -3.35 -3.10 -5.75 -2.20 -1.15 0.45 -2.85 4.05 -2.50 5.25 0.20 0.55 1.55 1.80 3.05 2.75 3.25 2.10 4.70 4.20 4.70 6.95 0 4.15 -3.65 7.45 -8.30 7.50 -2.25 0 -2.85 -0.20 -4.15 -1.45 -1.60 -1.55 -2.35 -3.95 -1.85 -5.95 0.40 -1.65 2.20 -3.35 3.55 -3.35 1.40 0 3.95 2.95 3.65 4.30 -0.25 1.40 -1.35 1.40 -1.90 0 -0.35 -0.95 -0.85 -1.30 -1.75 -1.30 -1.05 0 -1.25 0.25 -1.25 1.40 0 4.40 6.90 4 8.45 -0.45 0.50 -1.40 0.40 -1.65 -0.90 -2.85 -1.40 -1.35 -4.75 -3.80 -6.75 -4.95 -1.40 -0.85 -11.40 -0.85 -12.20 -0.05 -0.85 0.85 -0.80 9 0.10 11.10 0.80 1.85 3.05 3.45 6.20 4.25 1.15 0.35 2.10 0.80 2.10 1 0 0.55 -1.35 1.10 -2.15 0.95 -0.35 -0.10 -4.95 -0.20 -10.25 -0.25z m0.40 -29.40 c0 -10.25 1.15 -9.05 -9.05 -9.45 -7.55 -0.30 -15.15 0.55 -18.15 1.95 -2.55 1.20 -4.20 3.35 -4.60 6 -0.40 2.80 -0.05 4.30 1.55 6.15 2.70 3.20 3.85 3.35 26.90 4 l3.35 0.10 0 -8.75z m18.50 -1.75 c2.10 -2.10 0.70 -5.50 -2.30 -5.50 -3 0 -4.15 3.10 -1.95 5.25 1.45 1.50 2.90 1.60 4.25 0.25z m13 -1.50 c2.05 -2.05 0.75 -5.50 -2.10 -5.50 -3.10 0 -4.50 3.55 -2.10 5.45 1.65 1.30 2.90 1.35 4.20 0.05z m-21.35 -4.05 c-0.85 -0.85 -1.85 -0.05 -1.10 0.85 0.40 0.50 0.75 0.60 1.15 0.20 0.35 -0.35 0.35 -0.65 -0.05 -1.05z m16.55 -5.20 c6.25 -1 7.70 -1.45 11.10 -3.70 4 -2.55 7.90 -6.60 10.25 -10.55 2.25 -3.85 5.25 -10.90 4.75 -11.35 -0.20 -0.20 -1.15 -0.05 -2.20 0.35 -1 0.40 -2.95 0.85 -4.25 1 -1.90 0.20 -2.60 0.50 -3.20 1.55 -0.75 1.25 -0.75 1.50 0 3.10 1.05 2.20 1.05 2.55 0 4.70 -1 2.15 -3.60 3.45 -5.15 2.65 -1.65 -0.85 -1.70 -2.65 -0.30 -5.80 0.70 -1.55 1.30 -3 1.30 -3.25 0 -0.65 -3.05 -2.45 -4.10 -2.45 -0.75 0 -0.90 0.70 -1 6.15 l-0.15 6.10 -8 0 -8 0 0 -9.25 -0.05 -9.25 -6.85 -0.15 -6.90 -0.15 0.15 4.65 0.15 4.65 3 0 2.95 0 1.95 -2.85 c1.80 -2.80 3.05 -3.60 3.45 -2.25 0.10 0.30 0.10 4.50 0 9.25 -0.15 8 -0.25 8.60 -1.10 8.60 -0.65 0 -1.55 -1 -2.65 -2.85 l-1.65 -2.90 -3.25 0 -3.20 0 0 7.25 0 7.25 2 0.35 c2.90 0.45 15.60 -0.05 20.95 -0.85z m15 -15.35 c1 -1.40 1 -2.45 0.10 -3.70 -0.70 -0.95 -0.75 -0.95 -2 0.25 -1.30 1.20 -1.55 2.25 -1 3.75 0.45 1.15 2 1 2.90 -0.30z m-10.90 -0.45 c0.15 -0.30 0.45 -3 0.60 -6 0.15 -3 0.30 -5.45 0.35 -5.45 0.80 0 4.95 1.85 6.35 2.85 3.20 2.20 4.65 0.50 1.85 -2.15 -1.85 -1.75 -3.95 -5.70 -3.95 -7.45 0 -2.80 3.05 -6.35 5.95 -7 4.85 -1.05 8.25 5.70 5.55 11 -1.60 3.15 -1.25 3.45 2.25 1.75 4.10 -2 5.45 -7.10 4.30 -16.15 -1.90 -14.30 -6.65 -23.55 -16.45 -32.15 -3.90 -3.45 -3.80 -3.40 -7.50 -1.90 -2.35 0.95 -7.05 5.60 -8.25 8.15 -2.15 4.55 -7.75 5.50 -11.65 1.95 -0.85 -0.75 -1.65 -0.90 -3.50 -0.80 l-2.45 0.15 0 9.50 0 9.50 3 0 2.95 0 2.05 -3 c3.30 -4.80 3.50 -4.45 3.60 6.25 0.15 10.15 -0.15 11.60 -1.90 9.50 -0.60 -0.70 -1.60 -2.30 -2.25 -3.60 l-1.20 -2.40 -3.25 0 -3.25 0 0 4.65 0 4.70 7.60 0.30 c4.15 0.20 9.30 0.35 11.50 0.35 l3.90 0 0 4.40 c0 4.30 0.05 4.45 1.30 5.05 2.20 1 1.15 1.80 -2.60 1.95 -1.95 0.10 -3.60 0.40 -3.80 0.75 -0.65 1 -0.45 5.25 0.25 5.50 1.25 0.55 8.30 0.35 8.65 -0.20z m29.85 -2.05 c0.90 -1.20 0.90 -1.50 0.35 -2.85 -1.10 -2.70 -4.90 -2.75 -6 -0.10 -1.50 3.65 3.30 6.15 5.65 2.95z m-35.40 -9.65 c0 -2.45 -0.05 -2.50 -1.50 -2.50 -1.40 0 -1.50 0.15 -1.65 1.95 -0.25 2.70 0.15 3.40 1.75 3.20 1.30 -0.15 1.40 -0.30 1.40 -2.65z m19.25 -3.50 c1.20 -3 1.10 -4.65 -0.50 -6.25 -1.25 -1.25 -1.55 -1.25 -3.15 0 -1.85 1.45 -2.20 3.85 -0.90 6.40 1 1.95 2.40 3.25 3.10 2.80 0.20 -0.10 0.85 -1.40 1.45 -2.95z m19.50 -5.25 c1.30 -1.30 1.25 -2.90 -0.10 -4.35 -1.40 -1.50 -2.65 -1.45 -4.20 0.15 -1 0.95 -1.20 1.55 -0.95 2.60 0.60 2.60 3.40 3.45 5.25 1.60z m-2.50 -18 c1.30 -1.30 1.25 -2.55 -0.05 -4.20 -1.85 -2.35 -5.45 -1.15 -5.45 1.80 0 3.10 3.35 4.55 5.50 2.40z m-44 -15.25 c3.75 -1.95 2.20 -7.75 -2.05 -7.75 -1.45 0 -2.15 0.35 -3.15 1.55 -0.70 0.85 -1.30 1.85 -1.30 2.20 0 1.50 1.05 3.25 2.35 3.95 1.80 0.95 2.35 0.95 4.15 0.05z m-16.60 -10.60 l0.15 -7.65 -4.65 0 c-10.55 0 -19.20 2.95 -21.25 7.20 -0.90 1.95 -0.65 3.45 1 5.50 1.80 2.25 4.75 2.75 15.35 2.65 l9.25 -0.10 0.15 -7.60z m7.30 7.05 c0.15 -0.45 0.30 -1.15 0.30 -1.60 0 -1.35 2.10 -3.95 3.85 -4.80 2.85 -1.35 5.75 -0.85 8.15 1.45 l1.30 1.25 1.75 -1.45 c0.95 -0.80 2.70 -1.95 3.90 -2.55 1.15 -0.65 2 -1.40 1.90 -1.70 -0.40 -1.35 -17.15 -5.30 -22.55 -5.30 l-2.15 0 -0.30 4.90 c-0.45 6.25 -0.45 9.85 0 10.25 0.65 0.70 3.55 0.35 3.85 -0.45z m42.35 -7.75 c0.55 -0.55 0.90 -1.30 0.80 -1.60 -0.30 -0.90 -3.90 -0.75 -4.50 0.20 -1.40 2.20 1.70 3.40 3.70 1.40z m-17.10 -6.75 c0.60 -0.75 1.05 -1.65 1.05 -2.05 0 -1.05 -2.30 -3.15 -3.40 -3.15 -1.55 0 -3.20 1.65 -3.20 3.15 0 3.20 3.65 4.50 5.55 2.05z m-11.95 -3.20 c1.30 -1.30 1.25 -3 0 -4.40 -2.05 -2.15 -5.50 -0.65 -5.50 2.35 0 2.75 3.50 4.05 5.50 2.05z"/>
  <path d="M95.70 59.80 c-0.15 -0.45 0.75 -1.70 2.25 -3.15 2 -1.95 2.55 -2.80 2.55 -4.05 0 -1.50 -0.10 -1.60 -1.85 -1.60 -1.55 0 -2.25 0.40 -4.20 2.30 -1.30 1.30 -2.60 2.15 -2.90 2 -0.75 -0.50 -0.75 -12.60 0 -13.05 0.30 -0.20 1.30 0.55 2.25 1.70 1.65 1.90 1.95 2.05 4.25 2.05 l2.50 0 -0.15 -2.60 c-0.15 -2.40 -0.30 -2.70 -2.25 -4.15 -3.65 -2.65 -3.10 -2.95 4.95 -2.60 3.85 0.20 7.20 0.50 7.35 0.65 0.15 0.20 -0.35 0.80 -1.20 1.40 -3.10 2.20 -3.75 3.15 -3.75 5.30 0 1.90 0.10 2 1.50 2 1.20 0 1.85 -0.50 3.35 -2.50 1 -1.35 2.05 -2.50 2.25 -2.50 0.20 0 0.40 3.05 0.40 6.75 0 5.50 -0.15 6.75 -0.70 6.75 -0.40 0 -1.20 -0.80 -1.80 -1.75 -0.95 -1.50 -1.35 -1.75 -3.05 -1.75 l-1.95 0 0 2.35 c0 2.10 0.20 2.50 2.25 4.40 1.25 1.15 2.10 2.20 1.95 2.40 -0.20 0.20 -3.35 0.35 -7.05 0.35 -5.30 0 -6.75 -0.15 -6.95 -0.70z"/>
  <path d="M75.40 13.95 c-2.10 -1.20 -0.55 -5.45 2 -5.45 1.10 0 3.10 2.15 3.10 3.30 0 2 -3.15 3.30 -5.10 2.15z"/>
 </g>
 <g fill="none">
  <path d="M0 75 l0 -75 69 0 69 0 0 75 0 75 -69 0 -69 0 0 -75z m79.70 74.20 c1.35 -0.50 0.90 -1.15 -1.30 -1.75 -3.15 -0.80 -5.40 -2.40 -6.20 -4.25 -0.90 -2.10 -0.95 -10.25 -0.10 -11.10 0.80 -0.80 10.80 -0.80 12.20 0.05 2 1.15 5.35 3.60 6.75 4.95 1.30 1.20 1.40 1.45 0.90 2.85 -0.75 2.10 -2.70 3.55 -4.85 3.55 -2.20 0 -3.60 -1.20 -3.60 -3.10 0 -1.15 0.20 -1.40 1.25 -1.40 0.90 0 1.40 0.35 1.75 1.30 0.55 1.40 1.65 1.40 1.90 0 0.30 -1.35 -2.25 -4.30 -3.65 -4.30 -1.35 0 -3.15 1.70 -3.55 3.35 -0.50 2 0.25 4.40 1.85 5.95 1.30 1.25 1.90 1.45 4.15 1.45 4.65 -0.05 8.30 -3.35 8.30 -7.50 0 -2.75 -1.45 -4.85 -4.70 -6.95 -1.50 -0.95 -2.85 -2.20 -3.05 -2.75 -0.35 -1.20 1.35 -4.80 2.50 -5.25 2.40 -0.90 5.75 0.35 5.75 2.20 0 0.50 -0.70 1.50 -1.55 2.15 -0.90 0.70 -1.45 1.45 -1.25 1.80 1 1.60 4.15 -0.80 4.80 -3.65 0.60 -2.65 -0.45 -5.15 -2.25 -5.60 -3.80 -0.95 -8.45 1.30 -10.25 5 l-1.10 2.30 -6.20 0 -6.20 0 0.10 -8.10 c0.15 -8 0.15 -8.15 1.30 -8.30 1.35 -0.20 1.40 0.05 0.05 1.90 -1.05 1.40 -1.05 1.50 -0.25 2.70 0.85 1.35 3.40 1.85 4.05 0.80 0.55 -0.90 1.20 -0.55 2 1 1 1.90 3.50 3.50 5.55 3.50 2.10 0 4.75 -1.85 5.90 -4.15 l0.90 -1.95 0.95 1.45 c1 1.50 3.65 3.15 5.10 3.15 1.80 0 4.35 -1.50 5.35 -3.10 1.25 -2.10 1.25 -4.15 0 -6.50 l-0.95 -1.85 5.20 -2.75 c4.65 -2.50 5.55 -2.80 8.20 -2.80 2.50 0 3.25 0.20 4.55 1.30 2 1.75 3 3.70 3 6.10 0 2.70 -1.25 3.70 -4.55 3.70 -3.40 0 -4.85 -1.25 -4.15 -3.65 0.60 -2.05 1.80 -2.90 2.90 -2 0.60 0.55 0.70 0.85 0.25 1.35 -0.30 0.40 -0.90 0.70 -1.25 0.70 -0.40 0 -0.70 0.35 -0.70 0.75 0 0.95 3 1.05 3.90 0.15 1.95 -1.95 -0.70 -5.75 -3.65 -5.20 -2.30 0.45 -4.75 3.35 -4.75 5.70 0 3.30 3 5.30 8.10 5.30 3.05 0 3.55 -0.15 4.90 -1.45 4.55 -4.35 2.55 -11.95 -4 -15.40 -1.50 -0.75 -2.80 -1.50 -2.90 -1.55 -0.10 -0.10 0.90 -1.80 2.15 -3.75 l2.30 -3.55 1.85 1 c2.25 1.20 3.65 1.25 5.95 0.15 2.50 -1.15 3.90 -4.35 3.15 -7.10 -0.70 -2.70 -3 -4.55 -5.55 -4.55 -1.75 0 -1.95 -0.15 -1.95 -1.20 0 -0.70 0.25 -2.35 0.60 -3.75 0.50 -2.30 0.70 -2.50 1.60 -2.20 0.60 0.25 2.10 0.40 3.40 0.40 2 0 2.65 -0.25 3.95 -1.55 4.45 -4.45 0.25 -11.90 -5.80 -10.30 -1.10 0.30 -2.15 0.40 -2.35 0.20 -0.15 -0.20 -0.40 -1.60 -0.50 -3.10 l-0.15 -2.75 2.45 -0.30 c4.20 -0.45 6.60 -4.20 5.25 -8.15 -1.35 -3.85 -5.75 -5.40 -9.25 -3.25 -1.60 1 -1.70 1 -2 0.10 -0.20 -0.50 -0.90 -2.20 -1.50 -3.75 -0.65 -1.60 -1.20 -2.95 -1.20 -3.10 0 -0.10 1.20 -0.90 2.70 -1.70 3.45 -2 5.05 -4.85 4.55 -8.35 -0.70 -4.60 -3.85 -7.35 -8.50 -7.45 -2.30 -0.05 -2.90 0.15 -4 1.25 -0.85 0.80 -1.45 2.05 -1.60 3.30 -0.40 2.85 0.95 4.15 4.30 4.15 2.15 0 2.65 -0.20 4.10 -1.75 0.90 -0.90 1.80 -1.60 2 -1.50 0.70 0.45 1 3.90 0.45 5.30 -0.70 1.70 -3.20 2.95 -5.85 2.95 -1.70 0 -2.40 -0.45 -5.95 -3.65 -2.15 -1.95 -5.05 -4.55 -6.40 -5.65 l-2.45 -2.10 1.40 -1.80 c4.55 -5.95 -2.60 -13.20 -8.75 -8.80 l-1.45 1.05 -0.95 -2.20 c-2.80 -6.25 -11.60 -4 -11.60 2.95 l0 1.35 -3.75 -0.30 c-2.05 -0.15 -3.95 -0.40 -4.25 -0.60 -0.70 -0.45 -0.60 -6.75 0.20 -8.15 0.70 -1.30 2.70 -2.80 5.20 -3.85 0.85 -0.40 1.60 -1.05 1.60 -1.45 0 -0.70 -1.15 -0.80 -8.50 -0.80 -7.20 0 -8.50 0.10 -8.50 0.75 0 0.40 0.75 1.05 1.65 1.45 0.90 0.35 2.25 1.40 3 2.30 1.30 1.50 1.40 1.90 1.25 5.65 l-0.15 4.05 -4.85 0.60 c-6.20 0.80 -16.60 3.05 -19.15 4.15 -3.25 1.45 -5.05 3.30 -5.70 5.80 -1.05 4.20 0.80 8.70 4.50 10.75 2.10 1.20 2.60 1.25 13.70 1.50 l11.50 0.25 -0.10 9.20 c0 5.05 -0.25 9.35 -0.50 9.55 -0.20 0.25 -2.40 0.30 -4.80 0.15 l-4.40 -0.30 -1.20 -2.30 c-1.75 -3.25 -2.60 -4.20 -3.50 -3.90 -0.65 0.30 -0.75 1.75 -0.75 10.35 0 11.60 0.25 12.05 3.35 6.65 l1.95 -3.40 4.85 -0.15 4.85 -0.15 0 4.80 0 4.75 -7.10 0 c-8.60 0 -9.30 -0.30 -12.60 -5.40 -5.15 -8.05 -8.85 -7.75 -17.80 1.40 -2.05 2.15 -4.25 4.10 -4.85 4.45 -2.45 1.25 -8.55 0.25 -11.65 -1.95 -1.75 -1.25 -4.50 -4.80 -4.50 -5.75 0 -0.35 1.10 -1 2.45 -1.45 1.40 -0.45 3.30 -1.30 4.30 -1.85 2.15 -1.25 1.80 -2 -1.35 -2.90 -4.05 -1.20 -8.85 -4.10 -11.40 -6.90 -2.15 -2.35 -2.55 -2.60 -2.90 -1.80 -0.60 1.50 -0.35 13.15 0.35 16.35 0.90 4 2.40 7.45 3.20 7.15 0.55 -0.15 0.65 -0.75 0.80 -4.35 0.15 -3.15 0.80 -2.95 5.65 1.80 5.70 5.60 8.90 8.05 11.10 8.50 3.55 0.65 7.70 -2.45 12 -8.90 2.60 -3.95 4.90 -5.90 7.05 -5.90 1.85 0 2.70 0.85 5.40 5.45 0.90 1.50 2.15 3.10 2.85 3.60 1.70 1.25 6.60 1.95 13.40 1.95 l5.65 0 -0.15 4.65 -0.15 4.60 -2.25 0.15 c-1.25 0.10 -3.40 0.05 -4.80 -0.15 -2.35 -0.30 -2.65 -0.45 -3.70 -2.40 -1.85 -3.35 -3.10 -4.95 -3.50 -4.50 -0.25 0.20 -0.50 4.80 -0.60 10.15 -0.15 8.80 -0.05 9.75 0.70 9.90 0.55 0.10 1.35 -0.85 2.65 -3.10 2.05 -3.70 2.60 -4 7.05 -3.60 1.60 0.10 3.35 0.25 3.85 0.25 0.75 0.05 0.85 0.65 0.85 5.45 0 2.95 -0.15 6.15 -0.30 7.15 l-0.30 1.80 -12.35 0.30 c-13.10 0.25 -16.10 0.70 -19.20 2.85 -3.60 2.45 -4.85 5.95 -3.85 10.80 0.50 2.40 1 3.30 2.70 5 1.15 1.10 3.20 2.55 4.60 3.20 2.30 1.15 3.10 1.25 14.75 1.55 6.80 0.15 12.55 0.45 12.90 0.65 0.90 0.60 0.75 10.80 -0.25 12.20 -1.05 1.55 -3.45 2.70 -6.40 3.05 -1.85 0.20 -2.60 0.55 -2.70 1.15 -0.15 0.80 0.65 0.90 9.50 1.05 5.30 0.05 9.90 0.15 10.25 0.25 0.30 0.05 0.90 -0.05 1.35 -0.20z m-0.20 -135.70 c1.25 -1.25 1.25 -2.05 -0.05 -3.70 -1.85 -2.40 -4.95 -1.15 -4.95 2 0 2.65 3.05 3.65 5 1.70z"/>
  <path d="M52.75 128 c-9.95 -0.35 -12.20 -0.90 -14.50 -3.60 -1.60 -1.85 -1.95 -3.35 -1.55 -6.15 0.40 -2.65 2.05 -4.80 4.60 -6 3 -1.40 10.60 -2.25 18.15 -1.95 10.20 0.40 9.05 -0.80 9.05 9.45 l0 8.75 -3.35 -0.10 c-1.90 -0.05 -7.45 -0.20 -12.40 -0.40z"/>
  <path d="M82.75 117.75 c-2.20 -2.15 -1.05 -5.25 1.95 -5.25 3 0 4.40 3.40 2.30 5.50 -1.35 1.35 -2.80 1.25 -4.25 -0.25z"/>
  <path d="M95.80 116.45 c-2.40 -1.90 -1 -5.45 2.10 -5.45 2.85 0 4.15 3.45 2.10 5.50 -1.30 1.30 -2.55 1.25 -4.20 -0.05z"/>
  <path d="M77.55 113.30 c-0.45 -0.50 -0.45 -0.80 -0.05 -1.05 0.85 -0.50 1.85 0.60 1.20 1.25 -0.40 0.40 -0.75 0.30 -1.15 -0.20z"/>
  <path d="M74.25 108.10 l-2 -0.35 0 -7.25 0 -7.25 3.20 0 3.25 0 1.65 2.90 c1.10 1.85 2 2.85 2.65 2.85 0.85 0 0.95 -0.60 1.10 -8.60 0.10 -4.75 0.10 -8.95 0 -9.25 -0.40 -1.35 -1.65 -0.55 -3.45 2.25 l-1.95 2.85 -2.95 0 -3 0 -0.15 -4.65 -0.15 -4.65 6.90 0.15 6.85 0.15 0.05 9.25 0 9.25 8 0 8 0 0.15 -6.10 c0.10 -5.45 0.25 -6.15 1 -6.15 1.05 0 4.10 1.80 4.10 2.45 0 0.25 -0.60 1.70 -1.30 3.25 -1.40 3.15 -1.35 4.95 0.30 5.80 1.55 0.80 4.15 -0.50 5.15 -2.65 1.05 -2.15 1.05 -2.50 0 -4.70 -0.75 -1.60 -0.75 -1.85 0 -3.10 0.60 -1.05 1.30 -1.35 3.20 -1.55 1.30 -0.15 3.25 -0.60 4.25 -1 1.05 -0.40 2 -0.55 2.20 -0.35 0.50 0.45 -2.50 7.50 -4.75 11.35 -3.35 5.60 -10.35 11.70 -15 13 -5.50 1.60 -22.55 2.90 -27.30 2.10z"/>
  <path d="M107.30 92.20 c-0.55 -1.50 -0.30 -2.55 1 -3.75 1.25 -1.20 1.30 -1.20 2 -0.25 0.90 1.25 0.90 2.30 -0.10 3.70 -0.90 1.30 -2.45 1.45 -2.90 0.30z"/>
  <path d="M90.65 91.65 c-0.70 -0.25 -0.90 -4.50 -0.25 -5.50 0.20 -0.35 1.85 -0.65 3.80 -0.75 3.75 -0.15 4.80 -0.95 2.60 -1.95 -1.25 -0.60 -1.30 -0.75 -1.30 -5.05 l0 -4.40 -3.90 0 c-2.20 0 -7.35 -0.15 -11.50 -0.35 l-7.60 -0.30 0 -4.70 0 -4.65 3.25 0 3.25 0 1.20 2.40 c0.65 1.30 1.65 2.90 2.25 3.60 1.75 2.10 2.05 0.65 1.90 -9.50 -0.10 -10.70 -0.30 -11.05 -3.60 -6.25 l-2.05 3 -2.95 0 -3 0 0 -9.50 0 -9.50 2.45 -0.15 c1.85 -0.10 2.65 0.05 3.50 0.80 1.70 1.55 3.10 2.10 5.40 2.10 2.85 0 5 -1.40 6.25 -4.05 1.20 -2.55 5.90 -7.20 8.25 -8.15 3.70 -1.50 3.60 -1.55 7.50 1.90 9.80 8.60 14.55 17.85 16.45 32.15 1.15 9.05 -0.20 14.15 -4.30 16.15 -3.50 1.70 -3.85 1.40 -2.25 -1.75 2.70 -5.30 -0.70 -12.05 -5.55 -11 -2.90 0.65 -5.95 4.20 -5.95 7 0 1.75 2.10 5.70 3.95 7.45 2.80 2.65 1.35 4.35 -1.85 2.15 -1.40 -1 -5.55 -2.85 -6.35 -2.85 -0.05 0 -0.20 2.45 -0.35 5.45 -0.15 3 -0.45 5.70 -0.60 6 -0.35 0.55 -7.40 0.75 -8.65 0.20z m19.05 -31.50 c0.15 -0.20 -0.70 -1.25 -1.95 -2.40 -2.05 -1.90 -2.25 -2.30 -2.25 -4.40 l0 -2.35 1.95 0 c1.70 0 2.10 0.25 3.05 1.75 0.60 0.95 1.40 1.75 1.80 1.75 0.55 0 0.70 -1.25 0.70 -6.75 0 -3.70 -0.20 -6.75 -0.40 -6.75 -0.20 0 -1.25 1.15 -2.25 2.50 -1.50 2 -2.15 2.50 -3.35 2.50 -1.40 0 -1.50 -0.10 -1.50 -2 0 -2.15 0.65 -3.10 3.75 -5.30 0.85 -0.60 1.35 -1.20 1.20 -1.40 -0.15 -0.15 -3.50 -0.45 -7.35 -0.65 -8.05 -0.35 -8.60 -0.05 -4.95 2.60 1.95 1.45 2.10 1.75 2.25 4.15 l0.15 2.60 -2.50 0 c-2.30 0 -2.60 -0.15 -4.25 -2.05 -0.95 -1.15 -1.95 -1.90 -2.25 -1.70 -0.75 0.45 -0.75 12.55 0 13.05 0.30 0.15 1.60 -0.70 2.90 -2 1.95 -1.90 2.65 -2.30 4.20 -2.30 1.75 0 1.85 0.10 1.85 1.60 0 1.25 -0.55 2.10 -2.55 4.05 -3.70 3.55 -3.35 3.85 4.70 3.85 3.70 0 6.85 -0.15 7.05 -0.35z"/>
  <path d="M124.90 90.50 c-1.55 -0.95 -2.05 -2.45 -1.40 -4.05 1.10 -2.65 4.90 -2.60 6 0.10 0.55 1.35 0.55 1.65 -0.35 2.85 -1.10 1.45 -2.90 1.90 -4.25 1.10z"/>
  <path d="M90.70 81.85 c-0.15 -0.40 -0.20 -1.60 -0.10 -2.65 0.15 -1.80 0.25 -1.95 1.65 -1.95 1.45 0 1.50 0.05 1.50 2.50 0 2.35 -0.10 2.50 -1.40 2.65 -0.85 0.10 -1.45 -0.10 -1.65 -0.55z"/>
  <path d="M110.35 78.95 c-0.45 -0.30 -1.30 -1.40 -1.90 -2.55 -1.30 -2.55 -0.95 -4.95 0.90 -6.40 1.60 -1.25 1.90 -1.25 3.15 0 1.60 1.60 1.70 3.25 0.50 6.25 -1.30 3.15 -1.45 3.35 -2.65 2.70z"/>
  <path d="M128.35 71.40 c-0.45 -0.35 -0.95 -1.25 -1.10 -2 -0.25 -1.05 -0.05 -1.65 0.95 -2.60 0.70 -0.75 1.70 -1.30 2.20 -1.30 1.25 0 3.10 2.05 3.10 3.40 0 2.40 -3.20 3.95 -5.15 2.50z"/>
  <path d="M125.35 53.10 c-1.95 -2.15 -0.40 -5.60 2.45 -5.60 1.25 0 3.20 2.15 3.20 3.55 0 2.50 -4 3.90 -5.65 2.05z"/>
  <path d="M81.85 37.70 c-1.30 -0.70 -2.35 -2.45 -2.35 -3.95 0 -0.35 0.60 -1.35 1.30 -2.20 1 -1.20 1.70 -1.55 3.15 -1.55 4.25 0 5.80 5.80 2.05 7.75 -1.80 0.90 -2.35 0.90 -4.15 -0.05z"/>
  <path d="M48.25 34.25 c-4.05 -1.10 -6.05 -4.40 -4.60 -7.55 2.05 -4.25 10.70 -7.20 21.25 -7.20 l4.65 0 -0.15 7.65 -0.15 7.60 -9.25 0.10 c-6.45 0.05 -10 -0.10 -11.75 -0.60z"/>
  <path d="M72.85 34.65 c-0.45 -0.40 -0.45 -4 0 -10.25 l0.30 -4.90 2.15 0 c5.40 0 22.15 3.95 22.55 5.30 0.10 0.30 -0.75 1.05 -1.90 1.70 -1.20 0.60 -2.95 1.75 -3.90 2.55 l-1.75 1.45 -1.30 -1.25 c-2.40 -2.30 -5.30 -2.80 -8.15 -1.45 -1.75 0.85 -3.85 3.45 -3.85 4.80 0 1.75 -0.60 2.40 -2.20 2.40 -0.90 0 -1.80 -0.15 -1.95 -0.35z"/>
  <path d="M115.15 26.70 c-0.55 -1.45 0.55 -2.45 2.60 -2.45 2.25 0 2.70 0.80 1.30 2.20 -1.25 1.25 -3.45 1.40 -3.90 0.25z"/>
  <path d="M97.25 20 c-1.20 -1.35 -1.10 -3.50 0.25 -4.60 1.50 -1.25 2.80 -1.15 4.25 0.35 1.50 1.45 1.55 2.25 0.20 3.95 -1.25 1.60 -3.40 1.75 -4.70 0.30z"/>
  <path d="M85.60 16.70 c-2.25 -1.55 -0.70 -5.70 2.15 -5.70 1.50 0 3.25 1.80 3.25 3.35 0 1.45 -1.65 3.15 -3.15 3.15 -0.60 0 -1.65 -0.35 -2.25 -0.80z"/>
 </g>
</svg>
