<?xml version="1.0" encoding="utf-8"?>
<!DOCTYPE svg PUBLIC "-//W3C//DTD SVG 1.0//EN" "http://www.w3.org/TR/2001/REC-SVG-20010904/DTD/svg10.dtd">
<svg version="1.0" xmlns="http://www.w3.org/2000/svg" width="173px" height="121px" viewBox="0 0 173 121" preserveAspectRatio="xMidYMid meet">
 <g fill="#000000">
  <path d="M55.25 118.80 c-2.10 -1.25 -3.90 -3.95 -4.50 -6.65 -0.75 -3.60 1.95 -8.30 5.70 -9.95 l1.90 -0.85 0.35 -11.40 c0.20 -6.30 0.25 -11.65 0.10 -11.90 -0.15 -0.25 -1.05 -0.60 -2 -0.75 -0.95 -0.20 -2.75 -0.90 -4.05 -1.55 l-2.30 -1.25 -7.25 6.85 c-3.95 3.80 -7.20 7.15 -7.20 7.45 0 0.35 0.85 1.35 1.95 2.35 3.10 2.80 6.30 3 9.55 0.60 1.65 -1.20 2.50 -1.25 2.50 -0.10 0 0.35 -3.25 3.85 -7.20 7.80 -5.40 5.40 -7.40 7.10 -8.05 6.85 -0.80 -0.30 -0.80 -0.40 -0.05 -1.45 1.30 -1.75 1.90 -3.45 2.15 -5.85 0.25 -2.15 0.10 -2.45 -2 -4.75 l-2.25 -2.50 -2.55 2.50 c-2.35 2.25 -2.55 2.65 -2.55 4.80 0 1.65 0.35 2.85 1.25 4.15 0.70 1 1.25 2.05 1.25 2.30 0 1.35 -1.90 -0.15 -8.45 -6.70 -5.40 -5.40 -7.10 -7.40 -6.85 -8.05 0.30 -0.75 0.45 -0.75 1.95 0.35 2.10 1.65 5.05 2.60 6.75 2.15 1.45 -0.35 5.60 -4.10 5.60 -5 0 -0.80 -2.45 -3 -4.45 -4 -2.15 -1.05 -4.50 -0.75 -7.15 1 -1.75 1.15 -2.90 1.30 -2.90 0.35 0 -0.20 3.50 -3.70 7.75 -7.80 5.75 -5.45 7.85 -7.20 8.05 -6.60 0.20 0.45 -0.25 1.40 -0.95 2.30 -1.50 1.75 -2.05 3.90 -1.60 6.05 0.35 1.65 3.45 5.45 4.45 5.45 0.30 0 3.80 -3.10 7.75 -6.90 l7.15 -6.85 -1.25 -2.35 c-0.70 -1.30 -1.40 -3.25 -1.60 -4.35 -0.20 -1.20 -0.65 -2.05 -1.15 -2.15 -0.50 -0.15 -5.75 -0.30 -11.70 -0.35 l-10.85 -0.10 -0.80 1.90 c-3.05 7.30 -12.80 8.30 -17.25 1.75 -1.60 -2.30 -1.95 -6.80 -0.80 -9.85 3.05 -7.85 13.80 -8.15 17.55 -0.50 l1.35 2.75 8.20 0.10 c4.50 0.05 9.70 0.15 11.55 0.15 l3.35 0 0.65 -2.15 c0.30 -1.15 1.10 -3.15 1.70 -4.40 l1.15 -2.25 -3.50 -3.60 c-1.95 -2 -5.10 -5.25 -7.05 -7.30 l-3.55 -3.70 -1.30 1.05 c-2.10 1.65 -3.35 3.45 -3.65 5.30 -0.35 2.35 0.10 3.90 1.65 5.80 1.05 1.20 1.20 1.70 0.75 2.15 -0.45 0.45 -2.30 -1.15 -8.10 -7.10 -5.30 -5.45 -7.35 -7.85 -6.95 -8.25 0.35 -0.35 0.80 -0.35 1.40 0.10 3.95 2.85 5.35 3.15 8.25 1.90 0.90 -0.40 2.35 -1.40 3.30 -2.30 l1.70 -1.60 -2.60 -2.55 c-2.30 -2.35 -2.75 -2.60 -4.70 -2.55 -1.90 0.05 -3.70 0.75 -5.95 2.30 -0.70 0.50 -1 0.50 -1.50 -0.05 -0.55 -0.50 -0.35 -0.90 0.90 -1.95 0.85 -0.75 4.40 -4 7.85 -7.25 6.35 -5.95 8.65 -7.20 5.80 -3.15 -1.10 1.55 -1.55 2.75 -1.60 4.45 -0.10 2.20 0.05 2.50 2.50 4.95 2.90 2.90 3.05 2.90 5.75 -0.80 1.75 -2.45 1.80 -4.80 0.15 -8.10 -1.45 -2.80 -1.50 -3.20 -0.60 -3.20 0.80 0 14.85 14.15 14.85 14.90 0 1.15 -1.05 1.10 -2.90 -0.15 -3.70 -2.45 -7.40 -1.95 -10.55 1.45 l-1.15 1.25 6.90 7.25 c6.45 6.75 8.15 8.05 8.95 6.80 0.15 -0.25 1.55 -0.85 3.15 -1.35 1.55 -0.45 3.15 -1.05 3.50 -1.30 0.45 -0.35 0.60 -3.30 0.60 -11.80 l0 -11.35 -2.25 -1.10 c-5.90 -2.85 -6.95 -11.20 -1.95 -15.55 2.10 -1.90 3.40 -2.25 7.15 -1.95 4.45 0.30 7.25 2.90 8.25 7.75 0.75 3.45 -2 8.50 -5.50 9.95 l-1.60 0.65 -0.35 7.65 c-0.15 4.20 -0.25 9.55 -0.15 11.85 l0.15 4.20 2.60 0.85 c1.40 0.45 3.15 1.20 3.85 1.65 0.70 0.50 1.55 0.85 1.90 0.85 0.35 0 3.80 -3.15 7.65 -7 l6.95 -7 -2.40 -2.45 c-1.35 -1.40 -3.10 -2.65 -3.85 -2.80 -1.35 -0.30 -4.45 0.80 -6.55 2.35 -0.70 0.50 -1 0.50 -1.50 -0.05 -0.55 -0.55 0.70 -1.95 6.85 -7.85 4.10 -3.95 7.65 -7.20 7.90 -7.20 1 0 0.85 1.65 -0.35 3 -1.40 1.70 -2.10 4.30 -1.60 6.25 0.35 1.45 3.65 5.25 4.50 5.25 0.85 -0.05 3.15 -2.20 4.30 -4.10 1.40 -2.35 1.25 -4.35 -0.55 -7.05 -1.40 -2.10 -1.55 -3.35 -0.45 -3.35 0.85 0 14.50 14.50 14.50 15.45 0 0.80 -1.25 0.70 -2.05 -0.25 -1.05 -1.25 -3.25 -2.20 -5.20 -2.20 -1.45 0 -2.25 0.45 -4.25 2.30 -1.40 1.30 -2.50 2.60 -2.50 2.95 0 1.05 3.35 3.65 5.45 4.30 2.40 0.70 4 0.35 5.95 -1.30 1.70 -1.40 2.40 -1.55 2.75 -0.55 0.15 0.40 -2.60 3.55 -7.20 8.05 -6.20 6.20 -7.55 7.30 -8.15 6.80 -0.65 -0.55 -0.55 -0.90 0.75 -2.65 1.55 -2.20 1.95 -5.05 0.90 -7.05 -0.75 -1.50 -3.50 -4.35 -4.20 -4.35 -0.25 0 -3.65 3.15 -7.45 6.95 l-6.95 7 1.25 2.90 c0.70 1.60 1.40 3.50 1.60 4.20 0.15 0.80 0.75 1.45 1.40 1.65 0.65 0.15 5.90 0.30 11.65 0.30 l10.50 0 1.25 -2.30 c1.70 -3.25 4.30 -4.85 7.90 -4.90 2.15 -0.05 3.30 0.25 4.75 1.10 2.10 1.35 2 1.50 2.85 -3.50 1.40 -8.90 5.25 -17.50 10.05 -22.70 4.55 -4.90 6.45 -7.90 6.45 -10.20 0 -4 -4.40 -5.35 -7.75 -2.45 -1.70 1.50 -1.75 1.70 -1.75 5 0 2.70 -0.15 3.45 -0.75 3.45 -0.40 0 -0.95 -0.85 -1.25 -2.10 -0.30 -1.20 -0.75 -2.90 -1 -3.85 -0.25 -0.90 -0.85 -2.10 -1.30 -2.60 -1.15 -1.30 -4.20 -1.25 -5.90 0.10 -2.70 2.15 -1.10 5.55 3.65 7.70 1.15 0.50 2.05 1.05 2.05 1.30 0 0.20 -1.15 0.65 -2.55 0.95 -4.45 1.10 -7.45 4.60 -7.60 8.85 -0.10 1.90 0.10 2.40 1.30 3.45 1.50 1.30 3.65 1.55 4.85 0.55 2.25 -1.75 3.20 -4.95 1.90 -6.25 -1.05 -1.05 -2.40 -0.65 -4.15 1.25 -1.50 1.60 -1.75 1.75 -2.05 0.95 -0.40 -1 0.90 -2.95 2.95 -4.50 1.80 -1.35 3.80 -0.65 5 1.70 1.75 3.40 0 7.30 -3.95 8.80 -2.10 0.80 -2.35 0.80 -4 0.05 -2.10 -1.05 -3.70 -3.55 -3.70 -5.85 0 -2.60 2.10 -6.55 4.55 -8.65 l2.15 -1.85 -1.60 -1.65 c-1.40 -1.45 -1.60 -2 -1.60 -4.30 0 -2.25 0.20 -2.85 1.45 -4.10 1.25 -1.25 1.85 -1.45 4.20 -1.45 1.95 0 3.05 0.30 4 1 1.60 1.25 1.55 1.30 3.75 -0.45 2.45 -2 4.05 -2.30 6.40 -1.30 4 1.65 6.15 5.20 5.40 9 -0.15 1 -1.40 3.25 -2.75 5.10 -1.35 1.80 -2.45 3.45 -2.45 3.65 0 0.20 2.20 0.50 4.90 0.65 15.20 1 23.15 3.45 28 8.50 2.90 3.10 4.05 5.20 5.65 10.35 1.10 3.45 1.20 4.60 1.15 13.75 0 8.90 -0.15 10.40 -1.15 13.75 -3.65 11.90 -9.50 16.45 -23.70 18.25 -3.10 0.40 -7.85 0.85 -10.55 1 -2.70 0.10 -5.05 0.30 -5.10 0.40 -0.10 0.10 0.80 1.60 2.05 3.35 2.60 3.70 3.25 5.65 2.90 8.55 -0.35 2.55 -2.80 5.15 -5.60 6 -2.70 0.80 -3.95 0.40 -8.10 -2.60 -0.65 -0.50 -1.10 -0.35 -2.35 0.55 -1.25 0.90 -1.95 1.10 -3.80 0.90 -3.05 -0.35 -4.65 -1.50 -5.35 -3.85 -0.75 -2.50 -0.30 -4.30 1.60 -6.15 0.80 -0.80 1.45 -1.55 1.45 -1.70 0 -0.10 -0.90 -1.05 -2.05 -2.05 -2.60 -2.35 -3.95 -5.05 -3.95 -7.90 0 -5.65 4.40 -8.45 8.85 -5.70 3.45 2.15 4.25 6.65 1.65 9.45 -1.15 1.20 -1.75 1.50 -2.60 1.25 -1.75 -0.55 -4.40 -3.30 -4.40 -4.60 0 -1.60 1.10 -1.45 2.15 0.30 1.75 2.95 4.35 2.40 4.35 -0.95 0 -4 -4.30 -5.95 -7.20 -3.25 -1.60 1.50 -1.75 4.05 -0.30 7 1.20 2.50 3.05 3.90 6.45 5.05 1.40 0.45 2.55 1 2.55 1.20 0 0.20 -0.85 0.75 -1.90 1.15 -1.05 0.45 -2.65 1.40 -3.50 2.10 -3.20 2.70 -1.40 6.75 2.95 6.75 2.55 0 3.35 -1.20 4.95 -7.35 0.30 -1.30 0.85 -2.15 1.25 -2.15 0.60 0 0.75 0.75 0.75 3.55 0 3.25 0.10 3.65 1.45 5 1.20 1.20 1.90 1.45 3.75 1.45 6 0 5.70 -5.15 -0.85 -12.60 -1.75 -2.05 -3.75 -4.60 -4.45 -5.65 -2.50 -4.05 -5.30 -12.70 -6.40 -19.70 -0.25 -1.75 -0.55 -3.30 -0.70 -3.40 -0.10 -0.10 -1.05 0.25 -2.10 0.80 -4.50 2.45 -11.15 -0.05 -12.70 -4.70 l-0.55 -1.60 -11.35 -0.25 c-11.55 -0.30 -12.60 -0.15 -12.60 1.60 0 0.45 -0.65 2.15 -1.45 3.75 l-1.50 2.95 3.45 3.75 c1.90 2.10 5.10 5.45 7.10 7.45 l3.70 3.65 2.35 -2.50 c2.15 -2.30 2.35 -2.70 2.35 -5 0 -1.90 -0.30 -2.80 -1.25 -3.95 -1.50 -1.80 -1.65 -3.25 -0.30 -3 1.20 0.20 14.55 14.05 14.55 15.10 0 1 -1.20 1.05 -2.05 0 -0.95 -1.15 -3.25 -2.20 -4.80 -2.20 -1.90 0.05 -5.15 1.60 -6.65 3.20 l-1.25 1.35 2.85 2.75 c2.45 2.35 3.10 2.70 4.80 2.70 1.45 0 2.45 -0.40 3.85 -1.50 2 -1.60 3.25 -1.90 3.25 -0.85 0 1 -14.80 15.50 -15.45 15.15 -0.85 -0.55 -0.70 -1.15 0.95 -3.40 2.35 -3.25 1.80 -6.55 -1.70 -9.90 l-1.85 -1.75 -2.50 2.60 c-2 2.10 -2.45 2.90 -2.45 4.40 0 1.75 1.50 5.40 2.50 6 0.85 0.50 0.55 1.75 -0.40 1.75 -1.05 0 -14.60 -14.10 -14.60 -15.20 0 -1.10 1 -1 2.30 0.25 1.40 1.35 4.45 2.35 6 2.05 0.70 -0.10 2.45 -1.30 3.85 -2.60 l2.60 -2.40 -7.30 -7.35 -7.25 -7.35 -1.85 1.10 c-1.05 0.60 -2.95 1.40 -4.25 1.70 l-2.35 0.60 -0.15 11.85 -0.10 11.80 1.85 1 c2.35 1.15 3.40 2.30 4.40 4.70 1.95 4.70 -0.35 10.60 -4.90 12.30 -2.50 0.95 -6.40 0.65 -8.60 -0.65z m8.15 -3.10 c3.50 -2.45 3.30 -8.05 -0.40 -9.95 -2.50 -1.30 -4.85 -1 -6.80 0.95 -1.45 1.45 -1.70 2.05 -1.70 4.05 0 2 0.25 2.60 1.70 4.05 1.40 1.40 2.05 1.70 3.90 1.70 1.20 0 2.70 -0.35 3.30 -0.80z m88.45 -26.55 c1.95 -0.55 4.55 -1.60 5.75 -2.30 4.60 -2.70 9.15 -9.10 10.40 -14.60 0.80 -3.50 1.05 -14.50 0.50 -19 -0.65 -5 -2.65 -9.25 -6.10 -13 -5 -5.50 -9.85 -7.10 -23.85 -7.80 -9.20 -0.50 -9.20 -0.50 -10.40 0.65 -3.05 2.85 -6.90 13.70 -7.50 21 -0.45 5.50 -0.60 5.40 8.55 5.40 8.20 0 8.80 -0.20 8.80 -2.60 0 -1.10 -0.40 -1.60 -1.95 -2.40 -2.70 -1.35 -4.20 -3.60 -4.45 -6.75 -0.50 -6.30 5.30 -10.75 11.15 -8.55 7 2.70 7.40 11.90 0.65 15.35 -1.80 0.90 -1.95 1.15 -1.80 2.85 l0.15 1.85 5.50 0.15 c6.75 0.20 8.45 -0.30 11.65 -3.15 2.60 -2.35 3.30 -3.75 3.90 -7.85 0.20 -1.55 0.55 -2.40 1 -2.40 0.60 0 0.70 2.50 0.60 15.60 -0.15 14.45 -0.20 15.65 -1 15.80 -0.75 0.15 -0.90 -0.20 -0.90 -1.80 0 -4.65 -2.70 -8.75 -7.25 -10.90 -2.15 -1.05 -3.25 -1.20 -8.10 -1.20 l-5.65 0 0 1.95 c0 1.70 0.20 2.05 2.15 3.30 3.75 2.35 5.10 6.10 3.65 9.95 -2.15 5.60 -8.50 7.40 -13 3.70 -4.80 -3.95 -4.20 -10.50 1.25 -13.85 2.40 -1.50 3.05 -2.85 2.05 -4.35 -0.40 -0.60 -14.95 -1.40 -16.30 -0.90 -0.65 0.25 -0.80 1.05 -0.80 3.90 0.05 6.55 2.90 16.50 6.05 21.10 l1.55 2.30 10.10 -0.25 c8.05 -0.15 10.75 -0.40 13.65 -1.20z m-10.90 -9.20 c1.95 -0.70 3.25 -3 2.80 -4.90 -0.70 -2.85 -2.25 -3.35 -3.10 -1.05 -0.30 0.85 -0.80 1.50 -1.15 1.50 -0.30 0 -0.80 -0.65 -1.05 -1.50 -0.65 -1.80 -1.60 -1.90 -2.65 -0.40 -1.50 2.15 -0.80 4.80 1.60 6.10 1.65 0.95 1.60 0.90 3.55 0.25z m-82.05 -10.10 c0.10 -1.70 -0.05 -2.85 -0.35 -2.85 -0.85 0 -4.05 3.05 -4.05 3.85 0 0.70 2.85 2.20 3.75 1.95 0.30 -0.05 0.55 -1.40 0.65 -2.95z m6.60 2.35 c1.10 -0.45 2 -1.05 2 -1.35 0 -0.60 -3.50 -4.35 -4.05 -4.35 -0.45 0 -1.10 5.35 -0.70 6 0.40 0.65 0.35 0.65 2.75 -0.30z m-10.55 -9.05 c0.05 -0.45 -0.85 -0.65 -2.85 -0.65 -1.60 0 -3.05 0.15 -3.25 0.30 -0.30 0.35 0.55 3.15 1.30 4.10 0.35 0.45 1 0.15 2.60 -1.25 1.20 -1.05 2.20 -2.20 2.20 -2.50z m17.20 2.60 c1.45 -3 1.25 -3.25 -2.40 -3.25 -1.80 0 -3.25 0.15 -3.25 0.35 0 0.45 4.10 4.65 4.50 4.65 0.20 0 0.70 -0.80 1.15 -1.75z m42.20 -0.40 c1.55 -1.45 1.80 -2 1.85 -3.90 0.15 -5.65 -5.85 -8.35 -9.80 -4.45 -1.15 1.20 -1.40 1.85 -1.40 4 0 2.30 0.20 2.80 1.70 4.30 2.40 2.40 5.05 2.40 7.65 0.05z m-100.80 -0.15 c2.55 -1.30 3.70 -5.45 2.30 -8.20 -0.75 -1.45 -3.60 -3.50 -4.95 -3.50 -1.70 0 -4.15 1.45 -5.05 2.95 -0.45 0.80 -0.85 2.50 -0.85 3.80 0 2 0.25 2.60 1.70 4.05 1.95 1.95 4.30 2.25 6.85 0.90z m41.45 -7.30 c0 -0.80 -3.55 -4.40 -4.30 -4.40 -0.65 0 -1.70 2.55 -1.70 4.05 0 0.80 0.40 0.95 3 0.95 2 0 3 -0.20 3 -0.60z m18 -0.15 c0 -0.95 -1.40 -3.75 -1.85 -3.75 -0.55 0 -4.65 3.55 -4.65 4.05 0 0.25 1.45 0.45 3.25 0.45 2.60 0 3.25 -0.15 3.25 -0.75z m-13.90 -9.10 c-0.10 -0.35 -0.40 -0.65 -0.65 -0.65 -0.85 0 -3.95 1.45 -3.95 1.85 0 0.20 0.95 1.35 2.15 2.55 l2.10 2.15 0.30 -2.65 c0.15 -1.45 0.20 -2.95 0.05 -3.25z m6.80 3.80 c1.15 -1.10 2.10 -2.10 2.10 -2.20 0 -0.45 -3 -1.75 -4 -1.75 -0.90 0 -1 0.30 -1 3 0 1.65 0.15 3 0.40 3 0.20 0 1.30 -0.95 2.50 -2.05z m72.60 -3.50 c0.35 -1.50 2.15 -1.65 2.40 -0.20 0.55 2.85 3.10 1.40 3.10 -1.80 0 -2.50 -2.40 -4.70 -4.70 -4.25 -3.35 0.70 -5.05 4.60 -2.95 6.90 1.05 1.15 1.80 0.95 2.15 -0.65z m-73.75 -34.05 c4.70 -3.70 2.40 -10.40 -3.60 -10.40 -4.30 0 -6.95 4.55 -4.90 8.50 1.55 2.95 5.90 3.95 8.50 1.90z"/>
 </g>
 <g fill="none">
  <path d="M0 60.50 l0 -60.50 86.50 0 86.50 0 0 60.50 0 60.50 -86.50 0 -86.50 0 0 -60.50z m63.85 58.95 c4.55 -1.70 6.85 -7.60 4.90 -12.30 -1 -2.40 -2.05 -3.55 -4.40 -4.70 l-1.85 -1 0.10 -11.80 0.15 -11.85 2.35 -0.60 c1.30 -0.30 3.20 -1.10 4.25 -1.70 l1.85 -1.10 7.25 7.35 7.30 7.35 -2.60 2.40 c-1.40 1.30 -3.15 2.50 -3.85 2.60 -1.55 0.30 -4.60 -0.70 -6 -2.05 -1.30 -1.25 -2.30 -1.35 -2.30 -0.25 0 1.10 13.55 15.20 14.60 15.20 0.95 0 1.25 -1.25 0.40 -1.75 -1 -0.60 -2.50 -4.25 -2.50 -6 0 -1.50 0.45 -2.30 2.45 -4.40 l2.50 -2.60 1.85 1.75 c3.50 3.35 4.05 6.65 1.70 9.90 -1.65 2.25 -1.80 2.85 -0.95 3.40 0.65 0.35 15.45 -14.15 15.45 -15.15 0 -1.05 -1.25 -0.75 -3.25 0.85 -1.40 1.10 -2.40 1.50 -3.85 1.50 -1.70 0 -2.35 -0.35 -4.80 -2.70 l-2.85 -2.75 1.25 -1.35 c1.50 -1.60 4.75 -3.15 6.65 -3.20 1.55 0 3.85 1.05 4.80 2.20 0.85 1.05 2.05 1 2.05 0 0 -1.05 -13.35 -14.90 -14.55 -15.10 -1.35 -0.25 -1.20 1.20 0.30 3 0.95 1.15 1.25 2.05 1.25 3.95 0 2.30 -0.20 2.70 -2.35 5 l-2.35 2.50 -3.70 -3.65 c-2 -2 -5.20 -5.35 -7.10 -7.45 l-3.45 -3.75 1.50 -2.95 c0.80 -1.60 1.45 -3.30 1.45 -3.75 0 -1.75 1.05 -1.90 12.60 -1.60 l11.35 0.25 0.55 1.60 c1.55 4.65 8.20 7.15 12.70 4.70 1.05 -0.55 2 -0.90 2.10 -0.80 0.15 0.10 0.45 1.65 0.70 3.40 1.10 7 3.90 15.65 6.40 19.70 0.70 1.05 2.70 3.60 4.45 5.65 6.55 7.45 6.85 12.60 0.85 12.60 -1.85 0 -2.55 -0.25 -3.75 -1.45 -1.35 -1.35 -1.45 -1.75 -1.45 -5 0 -2.80 -0.15 -3.55 -0.75 -3.55 -0.40 0 -0.95 0.85 -1.25 2.15 -1.60 6.15 -2.40 7.35 -4.95 7.35 -4.35 0 -6.15 -4.05 -2.95 -6.75 0.85 -0.70 2.45 -1.65 3.50 -2.10 1.05 -0.40 1.90 -0.95 1.90 -1.15 0 -0.20 -1.15 -0.75 -2.55 -1.20 -3.40 -1.15 -5.25 -2.55 -6.45 -5.05 -1.45 -2.95 -1.30 -5.50 0.30 -7 2.90 -2.70 7.20 -0.75 7.20 3.25 0 3.35 -2.60 3.90 -4.35 0.95 -1.05 -1.75 -2.15 -1.90 -2.15 -0.30 0 1.30 2.65 4.05 4.40 4.60 0.85 0.25 1.45 -0.05 2.60 -1.25 2.60 -2.80 1.80 -7.30 -1.65 -9.45 -4.45 -2.75 -8.85 0.05 -8.85 5.70 0 2.85 1.35 5.55 3.95 7.90 1.15 1 2.05 1.95 2.05 2.05 0 0.15 -0.65 0.90 -1.45 1.70 -1.90 1.85 -2.35 3.65 -1.60 6.15 0.70 2.35 2.30 3.50 5.35 3.85 1.85 0.20 2.55 0 3.80 -0.90 1.25 -0.90 1.70 -1.05 2.35 -0.55 4.15 3 5.40 3.40 8.10 2.60 2.80 -0.85 5.25 -3.45 5.60 -6 0.35 -2.90 -0.30 -4.85 -2.90 -8.55 -1.25 -1.75 -2.15 -3.25 -2.05 -3.35 0.05 -0.10 2.40 -0.30 5.10 -0.40 2.70 -0.15 7.45 -0.60 10.55 -1 14.20 -1.80 20.05 -6.35 23.70 -18.25 1 -3.35 1.15 -4.85 1.15 -13.75 0.05 -9.15 -0.05 -10.30 -1.15 -13.75 -1.60 -5.15 -2.75 -7.25 -5.65 -10.35 -4.85 -5.05 -12.80 -7.50 -28 -8.50 -2.70 -0.15 -4.90 -0.45 -4.90 -0.65 0 -0.20 1.10 -1.85 2.45 -3.65 1.35 -1.85 2.60 -4.10 2.75 -5.10 0.75 -3.80 -1.40 -7.35 -5.40 -9 -2.35 -1 -3.95 -0.70 -6.40 1.30 -2.20 1.75 -2.15 1.70 -3.75 0.45 -0.95 -0.70 -2.05 -1 -4 -1 -2.35 0 -2.95 0.20 -4.20 1.45 -1.25 1.25 -1.45 1.85 -1.45 4.10 0 2.30 0.20 2.85 1.60 4.30 l1.60 1.65 -2.15 1.85 c-2.45 2.10 -4.55 6.05 -4.55 8.65 0 2.30 1.60 4.80 3.70 5.85 1.65 0.75 1.90 0.75 4 -0.05 3.95 -1.50 5.70 -5.40 3.95 -8.80 -1.20 -2.35 -3.20 -3.05 -5 -1.70 -2.05 1.55 -3.35 3.50 -2.95 4.50 0.30 0.80 0.55 0.65 2.05 -0.95 1.75 -1.90 3.10 -2.30 4.15 -1.25 1.30 1.30 0.35 4.50 -1.90 6.25 -1.20 1 -3.35 0.75 -4.85 -0.55 -1.20 -1.05 -1.40 -1.55 -1.30 -3.45 0.15 -4.25 3.15 -7.75 7.60 -8.85 1.40 -0.30 2.55 -0.75 2.55 -0.95 0 -0.25 -0.90 -0.80 -2.05 -1.30 -4.75 -2.15 -6.35 -5.55 -3.65 -7.70 1.70 -1.35 4.75 -1.40 5.90 -0.10 0.45 0.50 1.05 1.70 1.30 2.60 0.25 0.95 0.70 2.65 1 3.85 0.30 1.25 0.85 2.10 1.25 2.10 0.60 0 0.75 -0.75 0.75 -3.45 0 -3.30 0.05 -3.50 1.75 -5 3.35 -2.90 7.75 -1.55 7.75 2.45 0 2.30 -1.90 5.30 -6.45 10.20 -4.80 5.20 -8.65 13.80 -10.05 22.70 -0.85 5 -0.75 4.85 -2.85 3.50 -1.45 -0.85 -2.60 -1.15 -4.75 -1.10 -3.60 0.05 -6.20 1.65 -7.90 4.90 l-1.25 2.30 -10.50 0 c-5.75 0 -11 -0.15 -11.65 -0.30 -0.65 -0.20 -1.25 -0.85 -1.40 -1.65 -0.20 -0.70 -0.90 -2.60 -1.60 -4.20 l-1.25 -2.90 6.95 -7 c3.80 -3.80 7.20 -6.95 7.45 -6.95 0.70 0 3.45 2.85 4.20 4.35 1.05 2 0.65 4.85 -0.90 7.05 -1.30 1.75 -1.40 2.10 -0.75 2.65 0.60 0.50 1.95 -0.60 8.15 -6.80 4.60 -4.50 7.35 -7.65 7.20 -8.05 -0.35 -1 -1.05 -0.85 -2.75 0.55 -1.95 1.65 -3.55 2 -5.95 1.30 -2.10 -0.65 -5.45 -3.25 -5.45 -4.30 0 -0.35 1.10 -1.65 2.50 -2.95 2 -1.85 2.80 -2.30 4.25 -2.30 1.95 0 4.15 0.95 5.20 2.20 0.80 0.95 2.05 1.05 2.05 0.25 0 -0.95 -13.65 -15.45 -14.50 -15.45 -1.10 0 -0.95 1.25 0.45 3.35 1.80 2.70 1.95 4.70 0.55 7.05 -1.15 1.90 -3.45 4.05 -4.30 4.10 -0.85 0 -4.15 -3.80 -4.50 -5.25 -0.50 -1.95 0.20 -4.55 1.60 -6.25 1.20 -1.35 1.35 -3 0.35 -3 -0.25 0 -3.80 3.25 -7.90 7.20 -6.15 5.90 -7.40 7.30 -6.85 7.85 0.50 0.55 0.80 0.55 1.50 0.05 2.10 -1.55 5.20 -2.65 6.55 -2.35 0.75 0.15 2.50 1.40 3.85 2.80 l2.40 2.45 -6.95 7 c-3.85 3.85 -7.30 7 -7.65 7 -0.35 0 -1.20 -0.35 -1.90 -0.85 -0.70 -0.45 -2.45 -1.20 -3.85 -1.65 l-2.60 -0.85 -0.15 -4.20 c-0.10 -2.30 0 -7.65 0.15 -11.85 l0.35 -7.65 1.60 -0.65 c3.50 -1.45 6.25 -6.50 5.50 -9.95 -1 -4.85 -3.80 -7.45 -8.25 -7.75 -3.75 -0.30 -5.05 0.05 -7.15 1.95 -5 4.35 -3.95 12.70 1.95 15.55 l2.25 1.10 0 11.35 c0 8.50 -0.15 11.45 -0.60 11.80 -0.35 0.25 -1.95 0.85 -3.50 1.30 -1.60 0.50 -3 1.10 -3.15 1.35 -0.80 1.25 -2.50 -0.05 -8.95 -6.80 l-6.90 -7.25 1.15 -1.25 c3.15 -3.40 6.85 -3.90 10.55 -1.45 1.85 1.25 2.90 1.30 2.90 0.15 0 -0.75 -14.05 -14.90 -14.85 -14.90 -0.90 0 -0.85 0.40 0.60 3.20 1.65 3.30 1.60 5.65 -0.15 8.10 -2.70 3.70 -2.85 3.70 -5.75 0.80 -2.45 -2.45 -2.60 -2.75 -2.50 -4.95 0.05 -1.70 0.50 -2.90 1.60 -4.45 2.85 -4.05 0.55 -2.80 -5.80 3.15 -3.45 3.25 -7 6.50 -7.85 7.25 -1.25 1.05 -1.45 1.45 -0.90 1.95 0.50 0.55 0.80 0.55 1.50 0.05 2.25 -1.55 4.05 -2.25 5.95 -2.30 1.95 -0.05 2.40 0.20 4.70 2.55 l2.60 2.55 -1.70 1.60 c-0.95 0.90 -2.40 1.90 -3.30 2.30 -2.90 1.25 -4.30 0.95 -8.25 -1.90 -0.60 -0.45 -1.05 -0.45 -1.40 -0.10 -0.40 0.40 1.65 2.80 6.95 8.25 5.80 5.95 7.65 7.55 8.10 7.10 0.45 -0.45 0.30 -0.95 -0.75 -2.15 -3 -3.55 -2.25 -7.80 2 -11.10 l1.30 -1.05 3.55 3.70 c1.95 2.05 5.10 5.30 7.05 7.30 l3.50 3.60 -1.15 2.25 c-0.60 1.25 -1.40 3.25 -1.70 4.40 l-0.65 2.15 -3.35 0 c-1.85 0 -7.05 -0.10 -11.55 -0.15 l-8.20 -0.10 -1.35 -2.75 c-2.85 -5.90 -10.15 -7.45 -14.95 -3.20 -3.50 3.05 -4.40 9.80 -1.80 13.55 4.45 6.55 14.20 5.55 17.25 -1.75 l0.80 -1.90 10.85 0.10 c5.95 0.05 11.20 0.20 11.70 0.35 0.50 0.10 0.95 0.95 1.15 2.15 0.20 1.10 0.90 3.05 1.60 4.35 l1.25 2.35 -7.15 6.85 c-3.95 3.80 -7.45 6.90 -7.75 6.90 -1 0 -4.10 -3.80 -4.45 -5.45 -0.45 -2.15 0.10 -4.30 1.60 -6.05 0.70 -0.90 1.15 -1.85 0.95 -2.30 -0.20 -0.60 -2.30 1.15 -8.05 6.60 -4.25 4.10 -7.75 7.60 -7.75 7.80 0 0.95 1.15 0.80 2.90 -0.35 2.65 -1.75 5 -2.05 7.15 -1 2 1 4.45 3.20 4.45 4 0 0.90 -4.15 4.65 -5.60 5 -1.70 0.45 -4.65 -0.50 -6.75 -2.15 -1.50 -1.10 -1.65 -1.10 -1.95 -0.35 -0.25 0.65 1.45 2.65 6.85 8.05 6.55 6.55 8.45 8.05 8.45 6.70 0 -0.25 -0.55 -1.30 -1.25 -2.30 -0.90 -1.30 -1.25 -2.50 -1.25 -4.15 0 -2.15 0.20 -2.55 2.55 -4.80 l2.55 -2.50 2.25 2.50 c2.10 2.30 2.25 2.60 2 4.75 -0.25 2.40 -0.85 4.10 -2.15 5.85 -0.75 1.05 -0.75 1.15 0.05 1.45 0.65 0.25 2.65 -1.45 8.05 -6.85 3.95 -3.95 7.20 -7.45 7.20 -7.80 0 -1.15 -0.85 -1.10 -2.50 0.10 -3.25 2.40 -6.45 2.20 -9.55 -0.60 -1.10 -1 -1.95 -2 -1.95 -2.35 0 -0.30 3.25 -3.65 7.20 -7.45 l7.25 -6.85 2.30 1.25 c1.30 0.65 3.10 1.35 4.05 1.55 0.95 0.15 1.85 0.50 2 0.75 0.15 0.25 0.10 5.60 -0.10 11.90 l-0.35 11.40 -1.90 0.85 c-3.75 1.65 -6.45 6.35 -5.70 9.95 1 4.75 4.60 7.85 9.10 7.85 1.40 0 3.20 -0.25 4 -0.55z"/>
  <path d="M56.20 114.80 c-1.45 -1.45 -1.70 -2.05 -1.70 -4.05 0 -2 0.25 -2.60 1.70 -4.05 1.30 -1.30 2.10 -1.70 3.50 -1.70 4.80 0 7.65 4.40 5.55 8.50 -1.05 2.10 -2.65 3 -5.15 3 -1.85 0 -2.50 -0.30 -3.90 -1.70z"/>
  <path d="M126.55 88.30 c-3.15 -4.60 -6 -14.55 -6.05 -21.10 0 -2.85 0.15 -3.65 0.80 -3.90 1.35 -0.50 15.90 0.30 16.30 0.90 1 1.50 0.35 2.85 -2.05 4.35 -5.45 3.35 -6.05 9.90 -1.25 13.85 4.50 3.70 10.85 1.90 13 -3.70 1.45 -3.85 0.10 -7.60 -3.65 -9.95 -1.95 -1.25 -2.15 -1.60 -2.15 -3.30 l0 -1.95 5.65 0 c4.85 0 5.95 0.15 8.10 1.20 4.55 2.15 7.25 6.25 7.25 10.90 0 1.60 0.15 1.95 0.90 1.80 0.80 -0.15 0.85 -1.35 1 -15.80 0.10 -13.10 0 -15.60 -0.60 -15.60 -0.45 0 -0.80 0.85 -1 2.40 -0.60 4.10 -1.30 5.50 -3.90 7.85 -3.20 2.85 -4.90 3.35 -11.65 3.15 l-5.50 -0.15 -0.15 -1.85 c-0.15 -1.70 0 -1.95 1.80 -2.85 6.75 -3.45 6.35 -12.65 -0.65 -15.35 -5.85 -2.20 -11.65 2.25 -11.15 8.55 0.25 3.15 1.75 5.40 4.45 6.75 1.55 0.80 1.95 1.30 1.95 2.40 0 2.40 -0.60 2.60 -8.80 2.60 -9.15 0 -9 0.10 -8.55 -5.40 0.60 -7.30 4.45 -18.15 7.50 -21 1.20 -1.15 1.20 -1.15 10.40 -0.65 14 0.70 18.85 2.30 23.85 7.80 3.45 3.75 5.45 8 6.10 13 0.55 4.50 0.30 15.50 -0.50 19 -1.25 5.50 -5.80 11.90 -10.40 14.60 -4.30 2.50 -8.45 3.30 -19.40 3.50 l-10.10 0.25 -1.55 -2.30z"/>
  <path d="M137.40 79.70 c-2.40 -1.30 -3.10 -3.95 -1.60 -6.10 1.05 -1.50 2 -1.40 2.65 0.40 0.25 0.85 0.75 1.50 1.05 1.50 0.35 0 0.85 -0.65 1.15 -1.50 0.85 -2.30 2.40 -1.80 3.10 1.05 0.45 1.90 -0.85 4.20 -2.80 4.90 -1.95 0.65 -1.90 0.70 -3.55 -0.25z"/>
  <path d="M56.15 72.25 c-0.90 -0.40 -1.65 -1.05 -1.65 -1.40 0 -0.80 3.20 -3.85 4.05 -3.85 0.65 0 0.35 5.60 -0.30 5.80 -0.25 0.10 -1.25 -0.15 -2.10 -0.55z"/>
  <path d="M62.75 72.50 c-0.40 -0.65 0.25 -6 0.70 -6 0.55 0 4.05 3.75 4.05 4.35 0 0.30 -0.90 0.90 -2 1.35 -2.40 0.95 -2.35 0.95 -2.75 0.30z"/>
  <path d="M50.15 66.90 c-0.75 -0.95 -1.60 -3.75 -1.30 -4.10 0.20 -0.15 1.65 -0.30 3.25 -0.30 3.50 0 3.65 0.50 0.65 3.15 -1.60 1.40 -2.25 1.70 -2.60 1.25z"/>
  <path d="M68.60 65.35 c-1.15 -1.15 -2.10 -2.30 -2.10 -2.50 0 -0.20 1.45 -0.35 3.25 -0.35 2.50 0 3.25 0.15 3.25 0.75 0 0.90 -1.55 4.25 -2 4.25 -0.15 0 -1.25 -0.95 -2.40 -2.15z"/>
  <path d="M106.70 65.30 c-1.50 -1.50 -1.70 -2 -1.70 -4.30 0 -2.15 0.25 -2.80 1.40 -4 3.95 -3.90 9.95 -1.20 9.80 4.45 -0.05 1.90 -0.30 2.45 -1.85 3.90 -2.60 2.35 -5.25 2.35 -7.65 -0.05z"/>
  <path d="M6.70 64.30 c-1.45 -1.45 -1.70 -2.05 -1.70 -4.05 0 -2.85 1.15 -5 3.30 -6 2.20 -1.05 3.25 -0.95 5.25 0.40 2.90 1.95 3.65 4.70 2.25 8.10 -0.85 2 -3 3.25 -5.60 3.25 -1.40 0 -2.20 -0.40 -3.50 -1.70z"/>
  <path d="M49 57.55 c0 -1.50 1.05 -4.05 1.70 -4.05 0.75 0 4.30 3.60 4.30 4.40 0 0.40 -1 0.60 -3 0.60 -2.60 0 -3 -0.15 -3 -0.95z"/>
  <path d="M66.50 58.05 c0 -0.50 4.10 -4.05 4.65 -4.05 0.45 0 1.85 2.80 1.85 3.75 0 0.60 -0.65 0.75 -3.25 0.75 -1.80 0 -3.25 -0.20 -3.25 -0.45z"/>
  <path d="M56.65 52.40 c-1.20 -1.20 -2.15 -2.35 -2.15 -2.55 0 -0.40 3.10 -1.85 3.95 -1.85 0.75 0 0.90 1.10 0.60 3.90 l-0.30 2.65 -2.10 -2.15z"/>
  <path d="M63 51.50 c0 -2.70 0.10 -3 1 -3 1 0 4 1.30 4 1.75 0 0.35 -4.25 4.25 -4.60 4.25 -0.25 0 -0.40 -1.35 -0.40 -3z"/>
  <path d="M136.35 49.60 c-2.10 -2.30 -0.40 -6.20 2.95 -6.90 2.30 -0.45 4.70 1.75 4.70 4.25 0 3.20 -2.55 4.65 -3.10 1.80 -0.25 -1.45 -2.05 -1.30 -2.40 0.20 -0.35 1.60 -1.10 1.80 -2.15 0.65z"/>
  <path d="M58.40 15.20 c-2.65 -1.40 -3.60 -4.90 -2.15 -7.70 1.05 -2 2.65 -3 4.90 -3 6 0 8.30 6.70 3.60 10.40 -1.60 1.30 -4.35 1.40 -6.35 0.30z"/>
 </g>
</svg>
