<?xml version="1.0" encoding="utf-8"?>
<!DOCTYPE svg PUBLIC "-//W3C//DTD SVG 1.0//EN" "http://www.w3.org/TR/2001/REC-SVG-20010904/DTD/svg10.dtd">
<svg version="1.0" xmlns="http://www.w3.org/2000/svg" width="177px" height="113px" viewBox="0 0 177 113" preserveAspectRatio="xMidYMid meet">
 <g fill="#000000">
  <path d="M98.75 111.55 c-1.45 -0.60 -3.55 -2.85 -4.25 -4.55 -0.70 -1.70 -1.10 -1.85 -2.05 -0.70 -1.25 1.50 -3.55 2.30 -5.80 2.05 -2.85 -0.30 -4.60 -1.55 -5.60 -3.90 -0.45 -1.05 -0.90 -1.95 -1.05 -1.95 -0.20 0 -0.60 0.80 -0.95 1.75 -0.90 2.50 -3.20 3.95 -6.30 3.95 -3 0 -4.95 -1.10 -6.20 -3.60 l-0.90 -1.75 -1.10 1.85 c-1.40 2.25 -3.35 3.30 -6.15 3.30 -4.40 0 -7.10 -3.10 -6.80 -7.70 0.15 -2.20 0.05 -2.55 -0.80 -2.55 -0.85 0 -0.95 0.45 -1 3.85 -0.05 3.05 -0.25 4.10 -1.10 5.25 -3.35 4.50 -9.15 5.40 -13 2.05 -2.40 -2.10 -3.20 -3.85 -3.20 -7 0 -3.10 1.05 -5.15 3.80 -7.20 1.60 -1.25 2.35 -1.45 4.95 -1.45 l3.10 0 0.30 -11.20 c0.20 -6.15 0.35 -15.95 0.35 -21.75 l0 -10.55 -2.95 5.35 c-1.65 3 -3.95 6.80 -5.20 8.50 -2.90 4.05 -8.80 9.70 -12.45 11.90 l-2.90 1.75 0.30 2.25 c0.65 5.85 -5.70 10.05 -10.65 7 -4.60 -2.80 -4.70 -8.85 -0.20 -11.85 2.75 -1.85 6.20 -1.50 8.90 0.95 1.10 1 1.10 1 2.50 0 2.60 -1.85 9 -8.90 11.70 -12.90 1.45 -2.15 3.30 -5.50 4.15 -7.45 1.45 -3.50 4.80 -15.20 4.80 -16.85 0 -0.80 -0.50 -0.90 -3.95 -0.90 l-4 0 0.05 2.50 c0 5.30 -4.70 8.40 -9.45 6.20 -2.35 -1.15 -3.35 -2.85 -3.65 -6.20 -0.25 -2.65 -0.30 -2.75 -1.80 -2.90 -1.45 -0.15 -1.70 0.05 -2.70 2.15 -2.20 4.55 -7.60 6.40 -12 4.15 -5.40 -2.80 -6.55 -9.85 -2.25 -14.15 4.25 -4.20 10.70 -3.25 13.95 2.10 1.20 2.05 1.45 2.20 3.10 2.05 l1.80 -0.15 0.10 -2.75 c0.10 -3.30 1.15 -5.05 3.65 -6.25 3.10 -1.50 6.70 -0.30 8.70 2.90 0.80 1.25 0.95 2.15 0.75 4 l-0.25 2.35 4.85 0 4.90 0 1.85 -3.20 c3.70 -6.30 11.75 -13.80 17.20 -16.05 7.05 -2.85 13.30 -2.90 16.45 -0.15 2.35 2.10 3.20 3.85 3.20 6.90 0 2.85 -1.75 7.70 -3.75 10.30 -0.70 0.90 -1.25 1.85 -1.25 2.15 0 0.35 1.20 0.55 2.95 0.55 l2.95 0 1 -2.85 c6.20 -17.75 15.35 -28.60 25.30 -29.95 2.90 -0.40 8.40 0.60 11.25 2.05 2.45 1.25 6.30 5 7 6.90 2.35 6.20 0.10 13.75 -6.15 20.70 -1.55 1.65 -2.80 3.20 -2.80 3.35 0 0.15 5.50 0.30 12.25 0.30 l12.25 0 0 -7.75 c0 -5.20 0.20 -7.75 0.55 -7.75 0.30 0 3.15 1.55 6.35 3.45 3.20 1.90 9.90 5.85 14.85 8.70 6 3.50 9 5.55 9 6.10 0 0.55 -2.25 2.10 -6.75 4.55 -3.70 2.05 -6.90 3.90 -7.05 4.10 -0.20 0.20 -0.45 11.30 -0.60 24.75 l-0.30 24.35 2.50 0 c6 0 10.25 4.95 9 10.50 -1 4.55 -3.60 6.50 -8.60 6.50 -3.95 0 -6.05 -1.15 -7.60 -4.20 l-1 -1.90 -1.55 1.75 c-2.65 3 -5.25 3.60 -8.60 2.05 -3.20 -1.55 -4.70 -6.05 -3 -9.30 0.85 -1.60 0.60 -1.90 -1.35 -1.90 -1.30 0 -1.40 0.10 -1.05 1.15 0.20 0.60 0.40 2.35 0.40 3.90 0.05 3.35 -0.80 4.55 -4.05 6.05 -1.80 0.80 -2.45 0.85 -4.10 0.40 -1.85 -0.50 -5.05 -3.35 -5.05 -4.50 0 -1 -0.80 -0.45 -1.70 1.20 -1.75 3.25 -6.60 4.35 -9.85 2.15 -2.25 -1.50 -3.40 -4.55 -2.65 -7.20 0.30 -1.05 0.65 -2.25 0.75 -2.65 0.15 -0.55 -0.20 -0.70 -1.25 -0.65 -0.80 0.05 -1.50 0.20 -1.60 0.25 -0.10 0.10 0.15 1.15 0.55 2.30 1.30 3.70 -0.25 8.10 -3.50 10.10 -1.70 1.05 -6.50 1.35 -8.50 0.55z m6 -3.25 c1.75 -0.75 3.25 -2.95 3.25 -4.80 0 -2.90 -2.85 -5.50 -6.05 -5.50 -2.15 0 -4.95 2.80 -4.95 4.95 0 2.30 1.30 4.50 3.15 5.30 2.05 0.90 2.50 0.90 4.60 0.05z m62.40 -1.30 c1.95 -2.15 1.90 -5.05 -0.10 -7.05 -4.30 -4.25 -11.25 1.30 -8.05 6.45 1.90 3.05 5.65 3.35 8.15 0.60z m-123.90 -0.20 c1.75 -0.75 3.25 -2.95 3.25 -4.80 0 -1.45 -1.35 -3.85 -2.45 -4.50 -0.55 -0.25 -1.90 -0.50 -3.05 -0.50 -5.60 0 -7 7.55 -1.80 9.80 1.95 0.85 2 0.85 4.05 0z m77.50 -0.10 c1.30 -0.50 2.30 -2.95 1.80 -4.30 -1.05 -2.75 -4.45 -3.50 -6.15 -1.45 -2.45 3.05 0.65 7.15 4.35 5.75z m15.20 -1 c0.60 -0.75 1.05 -1.90 1.05 -2.55 0 -1.60 -2.10 -3.65 -3.75 -3.65 -1.65 0 -3.75 2.05 -3.75 3.65 0 2 1.80 3.85 3.75 3.85 1.20 0 1.95 -0.35 2.70 -1.30z m14.55 0.30 c1.30 -1.30 1.25 -3 -0.05 -4.70 -1.25 -1.55 -3.30 -1.75 -5 -0.40 -1.40 1.15 -1.50 3.65 -0.20 5.10 1.20 1.30 3.95 1.30 5.25 0z m-75.35 -1.90 c1.10 -0.95 1.10 -3.50 0 -4.70 -1.80 -2 -6.15 -0.50 -6.15 2.15 0 3.35 3.55 4.85 6.15 2.55z m14.55 -0.15 c1.55 -1.85 1.65 -2.90 0.25 -4.65 -0.80 -1 -1.45 -1.30 -2.90 -1.30 -3.05 0 -4.75 2.75 -3.35 5.45 1.35 2.60 4.05 2.80 6 0.50z m-29.25 0.55 c0.50 -0.25 1.20 -1.10 1.50 -1.95 0.50 -1.20 0.50 -1.70 -0.15 -2.95 -1.85 -3.60 -7 -2.45 -7 1.65 0 2.95 3 4.70 5.65 3.25z m67.05 -5.35 c0 -0.40 -0.60 -0.65 -1.50 -0.65 -1.75 0 -1.75 0.05 -0.70 2.10 l0.80 1.60 0.70 -1.25 c0.35 -0.65 0.65 -1.50 0.70 -1.80z m28.15 0.90 c0.15 -0.60 -0.05 -1.10 -0.55 -1.30 -1.15 -0.45 -1.80 0.50 -1.10 1.70 0.60 1.20 1.25 1.05 1.65 -0.40z m-75 -0.65 c0.35 -1.30 0.15 -1.60 -0.85 -1.25 -0.45 0.20 -0.60 0.70 -0.45 1.30 0.35 1.35 0.95 1.35 1.30 -0.05z m-14.65 -0.65 c0 -0.40 -0.20 -0.75 -0.50 -0.75 -0.25 0 -0.50 0.35 -0.50 0.75 0 0.40 0.25 0.75 0.50 0.75 0.30 0 0.50 -0.35 0.50 -0.75z m90.70 -4 c0.15 -0.45 0.30 -5.10 0.30 -10.30 l0 -9.45 -2.95 0.30 c-1.65 0.20 -3.55 0.20 -4.25 0 -2 -0.50 -4.65 -3.15 -5.60 -5.55 -2.65 -6.95 4.85 -13.90 11.85 -11.05 0.65 0.30 0.85 -0.15 1.15 -2.75 0.50 -4.90 0.40 -7.45 -0.30 -7.45 -0.35 0.05 -3.25 1.50 -6.40 3.25 -3.15 1.75 -5.90 3.05 -6.10 2.95 -0.20 -0.15 -0.40 -3.85 -0.40 -8.25 l0 -7.95 -3.75 0 -3.70 0 -3.90 4.65 c-8.80 10.45 -13.40 13.85 -18.75 13.85 -8.25 0 -12.85 -7.95 -9.20 -15.85 0.65 -1.40 1.10 -2.70 0.90 -2.85 -0.15 -0.15 -3.60 -0.30 -7.70 -0.30 l-7.45 0 -0.75 1.85 c-0.45 1 -1.20 3.80 -1.75 6.30 -1.20 5.40 -1.75 6.60 -4.65 9.50 -1.60 1.55 -3.25 2.60 -5.80 3.55 -7.25 2.65 -13.05 1.35 -17.95 -4 -4.60 -5.05 -5.05 -10 -1.25 -15 0.90 -1.15 1.50 -2.25 1.35 -2.40 -0.20 -0.15 -2.60 -0.30 -5.45 -0.30 -4.20 0 -5.15 0.15 -5.40 0.80 -0.15 0.45 -0.30 5.05 -0.30 10.30 0 8.85 0.05 9.50 0.90 9.10 1.20 -0.55 5.40 -0.85 6.85 -0.50 1.75 0.45 4.80 3.25 5.55 5.15 1 2.30 0.85 5.35 -0.25 7.55 -1.15 2.30 -2.30 3.35 -4.70 4.35 -2.20 0.90 -4 0.95 -6.50 0.05 -1.75 -0.65 -1.85 -0.65 -2.10 0.40 -0.15 0.55 -0.20 5.20 -0.15 10.30 l0.15 9.25 24.45 0.40 c13.45 0.20 24.55 0.25 24.70 0.10 0.15 -0.15 -0.20 -0.75 -0.75 -1.40 -0.55 -0.60 -1.30 -1.65 -1.65 -2.25 l-0.60 -1.20 -1.05 1.05 c-3.55 3.30 -9.10 3.35 -12.55 0.15 -5.90 -5.55 -1.90 -15.10 6.30 -15.10 2.60 0 6.10 2 7.15 4 0.95 1.80 1.25 1.85 2.75 0.25 l1.20 -1.25 -1.35 -1.40 c-2.90 -3 -3.55 -6.85 -1.80 -10.50 2.55 -5.20 9.40 -6.55 13.60 -2.65 2.05 1.90 2.90 3.75 2.95 6.55 0 2.75 -0.60 4.05 -2.75 6.40 l-1.55 1.60 1.35 1.40 1.35 1.35 1.90 -2.10 c2.15 -2.45 3.70 -3.15 7 -3.15 3.20 0 5.95 1.65 7.45 4.45 1.45 2.80 1.45 5.20 0.05 8.05 -2.65 5.20 -8.90 6.45 -13.40 2.65 l-1.60 -1.30 -1.90 2.20 -1.90 2.20 11.85 0.25 c30.30 0.65 36.90 0.60 37.25 -0.25z m-50.30 -4 c1.80 -1.50 2.35 -3.75 1.40 -5.95 -0.90 -2.20 -2.60 -3.30 -4.95 -3.30 -2.55 0 -5.35 2.60 -5.35 5 0 4.75 5.30 7.30 8.90 4.25z m15.10 -1.10 c3.90 -2.30 3.15 -8.20 -1.25 -9.65 -2.10 -0.70 -3.55 -0.30 -5.35 1.40 -1.75 1.65 -2.25 4 -1.20 6 1.55 3.05 4.90 4 7.80 2.25z m-31.35 -0.65 c1.90 -1.50 2.60 -4 1.70 -6.15 -0.95 -2.25 -2.60 -3.35 -5.10 -3.35 -5.15 0.05 -7.15 6.30 -3.05 9.60 1.45 1.20 4.85 1.15 6.45 -0.10z m-72.70 -6.30 c0.60 -0.75 1.05 -1.70 1.05 -2.20 0 -0.50 -0.45 -1.45 -1.05 -2.20 -2.10 -2.65 -6.10 -1.15 -6.10 2.30 0 3.20 4.15 4.60 6.10 2.10z m89.20 -8.20 c2.45 -2.70 1.60 -7.15 -1.65 -8.50 -3.45 -1.40 -7.50 1.20 -7.50 4.80 0 2.30 0.70 3.50 2.65 4.75 2.20 1.35 4.65 0.95 6.50 -1.05z m48.85 -3.45 c0.70 -0.50 1.55 -1.50 1.95 -2.30 1.45 -2.95 -1.40 -7.25 -4.85 -7.25 -3.15 0 -6 3.45 -5.35 6.50 0.30 1.35 2.35 3.60 3.75 4.15 1.10 0.40 3.05 -0.05 4.50 -1.10z m-98.60 -1.30 c1.80 -1.50 2.35 -3.75 1.40 -6 -0.75 -1.75 -2.95 -3.25 -4.80 -3.25 -3.10 0 -5.80 3.35 -5.20 6.50 0.45 2.15 2.80 4 5.20 4 1.30 0 2.40 -0.40 3.40 -1.25z m17.15 -15.35 c2.70 -0.90 5.35 -2.80 6.15 -4.30 0.55 -1.10 2.80 -10.60 2.80 -11.90 0 -0.10 -2.30 -0.20 -5.05 -0.20 l-5.05 0 -3.40 2.25 c-1.85 1.25 -4.20 3.15 -5.20 4.30 -1.60 1.75 -1.80 2.25 -1.55 3.60 0.20 0.90 0.90 2.35 1.60 3.25 2.50 3.30 5.80 4.35 9.70 3z m45.70 -4.45 c1.45 -0.95 4.95 -3.90 7.70 -6.55 l5 -4.90 -8.70 0 -8.65 0 -1.85 2.15 c-4.10 4.70 -4.75 7.90 -2.15 10.10 1.35 1.15 1.95 1.30 3.80 1.10 1.25 -0.15 3.30 -0.95 4.85 -1.90z m38.90 -8.45 c2.10 -1.20 3.85 -2.40 3.85 -2.60 0 -0.20 -3.15 -0.40 -7 -0.40 l-7 0 0 4.30 0 4.30 3.15 -1.75 c1.70 -0.95 4.85 -2.70 7 -3.85z m-127.95 1.40 c1.80 -1.65 1.95 -3.75 0.30 -5.40 -1.30 -1.30 -3 -1.25 -4.70 0.05 -1.80 1.40 -1.80 4 0 5.40 1.70 1.35 2.85 1.30 4.40 -0.05z m-18.95 -2.70 c3.40 -1.60 4 -5.85 1.15 -8.50 -2.75 -2.65 -7.35 -1.45 -8.45 2.25 -0.75 2.55 0.40 5.30 2.65 6.30 2.15 0.90 2.65 0.90 4.65 -0.05z m150.25 -5.60 c0 -0.20 -1.40 -1.15 -3.10 -2.10 -1.75 -0.90 -4.55 -2.55 -6.30 -3.60 -1.70 -1.05 -3.35 -1.90 -3.60 -1.90 -0.75 0 -0.65 7.35 0.15 7.65 1 0.45 12.85 0.40 12.85 -0.05z m-131.30 -1.65 c0.95 -0.75 1.30 -1.50 1.30 -2.70 0 -1.20 -0.35 -1.95 -1.30 -2.70 -1.70 -1.35 -3.10 -1.35 -4.55 0.05 -1.45 1.35 -1.50 3.35 -0.10 5.10 1.25 1.55 2.85 1.65 4.65 0.25z m38.55 -2.35 c3.75 -3.10 7.25 -8 7.25 -10.15 0 -1.75 -1.15 -2.15 -4.95 -1.70 -5.65 0.65 -12.45 4.90 -17.65 10.90 l-3.10 3.60 6.75 0.25 c3.65 0.15 7.05 0.15 7.50 0.10 0.45 -0.10 2.35 -1.45 4.20 -3z m45.10 -1.20 c5.25 -5.45 7.65 -9.70 7.65 -13.45 0 -3.35 -0.30 -3.80 -3.20 -5.35 -3.35 -1.70 -7.55 -1.80 -10.95 -0.15 -2.50 1.20 -6.50 5.25 -8.55 8.65 -2.25 3.80 -6.80 13.10 -6.80 14.05 0 0.75 0.75 0.85 8.70 0.85 l8.65 0 4.50 -4.60z"/>
 </g>
 <g fill="none">
  <path d="M0 56.50 l0 -56.50 88.50 0 88.50 0 0 56.50 0 56.50 -88.50 0 -88.50 0 0 -56.50z m107.25 54.50 c3.25 -2 4.80 -6.40 3.50 -10.10 -0.40 -1.15 -0.65 -2.20 -0.55 -2.30 0.10 -0.05 0.80 -0.20 1.60 -0.25 1.05 -0.05 1.40 0.10 1.25 0.65 -0.10 0.40 -0.45 1.60 -0.75 2.65 -0.75 2.65 0.40 5.70 2.65 7.20 3.25 2.20 8.10 1.10 9.85 -2.15 0.90 -1.65 1.70 -2.20 1.70 -1.20 0 1.15 3.20 4 5.05 4.50 1.65 0.45 2.30 0.40 4.10 -0.40 3.25 -1.50 4.10 -2.70 4.05 -6.05 0 -1.55 -0.20 -3.30 -0.40 -3.90 -0.35 -1.05 -0.25 -1.15 1.05 -1.15 1.95 0 2.20 0.30 1.35 1.90 -1.70 3.25 -0.20 7.75 3 9.30 3.35 1.55 5.95 0.95 8.60 -2.05 l1.55 -1.75 1 1.90 c1.55 3.05 3.65 4.20 7.60 4.20 5 0 7.60 -1.95 8.60 -6.50 1.25 -5.55 -3 -10.50 -9 -10.50 l-2.50 0 0.30 -24.35 c0.15 -13.45 0.40 -24.55 0.60 -24.75 0.15 -0.20 3.35 -2.05 7.05 -4.10 4.50 -2.45 6.75 -4 6.75 -4.55 0 -0.55 -3 -2.60 -9 -6.10 -4.95 -2.85 -11.65 -6.80 -14.85 -8.70 -3.20 -1.90 -6.05 -3.45 -6.35 -3.45 -0.35 0 -0.55 2.55 -0.55 7.75 l0 7.75 -12.25 0 c-6.75 0 -12.25 -0.15 -12.25 -0.30 0 -0.15 1.25 -1.70 2.80 -3.35 6.25 -6.95 8.50 -14.50 6.15 -20.70 -0.70 -1.90 -4.55 -5.65 -7 -6.90 -2.85 -1.45 -8.35 -2.45 -11.25 -2.05 -9.95 1.35 -19.10 12.20 -25.30 29.95 l-1 2.85 -2.95 0 c-1.75 0 -2.95 -0.20 -2.95 -0.55 0 -0.30 0.55 -1.25 1.25 -2.15 2 -2.60 3.75 -7.45 3.75 -10.30 0 -3.05 -0.85 -4.80 -3.20 -6.90 -3.15 -2.75 -9.40 -2.70 -16.45 0.15 -5.45 2.25 -13.50 9.75 -17.20 16.05 l-1.85 3.20 -4.90 0 -4.85 0 0.25 -2.35 c0.75 -6.85 -8.35 -10.35 -12.15 -4.75 -0.55 0.85 -0.90 2.40 -0.95 4.10 l-0.10 2.75 -1.80 0.15 c-1.65 0.15 -1.90 0 -3.10 -2.05 -3.25 -5.35 -9.70 -6.30 -13.95 -2.10 -4.30 4.30 -3.15 11.35 2.25 14.15 4.40 2.25 9.80 0.40 12 -4.15 1 -2.10 1.25 -2.30 2.70 -2.15 1.50 0.15 1.55 0.25 1.80 2.90 0.30 3.35 1.30 5.05 3.65 6.20 4.75 2.20 9.45 -0.90 9.45 -6.20 l-0.05 -2.50 4 0 c3.45 0 3.95 0.10 3.95 0.90 0 1.65 -3.35 13.35 -4.80 16.85 -0.85 1.95 -2.70 5.30 -4.15 7.45 -2.70 4 -9.10 11.05 -11.70 12.90 -1.40 1 -1.40 1 -2.50 0 -2.70 -2.45 -6.15 -2.80 -8.90 -0.95 -4.50 3 -4.40 9.05 0.20 11.85 4.95 3.05 11.30 -1.15 10.65 -7 l-0.30 -2.25 2.90 -1.75 c3.65 -2.20 9.55 -7.85 12.45 -11.90 1.25 -1.70 3.55 -5.50 5.20 -8.50 l2.95 -5.35 0 10.55 c0 5.80 -0.15 15.60 -0.35 21.75 l-0.30 11.20 -3.10 0 c-2.60 0 -3.35 0.20 -4.95 1.45 -2.75 2.05 -3.80 4.10 -3.80 7.20 0 3.15 0.80 4.90 3.20 7 3.85 3.35 9.65 2.45 13 -2.05 0.85 -1.15 1.05 -2.20 1.10 -5.25 0.05 -3.40 0.15 -3.85 1 -3.85 0.85 0 0.95 0.35 0.80 2.55 -0.30 4.60 2.40 7.70 6.80 7.70 2.80 0 4.75 -1.05 6.15 -3.30 l1.10 -1.85 0.90 1.75 c1.25 2.50 3.20 3.60 6.20 3.60 3.10 0 5.40 -1.45 6.30 -3.95 0.35 -0.95 0.75 -1.75 0.95 -1.75 0.15 0 0.60 0.90 1.05 1.95 1 2.35 2.75 3.60 5.60 3.90 2.25 0.25 4.55 -0.55 5.80 -2.05 0.95 -1.15 1.35 -1 2.05 0.70 0.70 1.70 2.80 3.95 4.25 4.55 2 0.80 6.80 0.50 8.50 -0.55z"/>
  <path d="M100.15 108.25 c-1.85 -0.80 -3.15 -3 -3.15 -5.30 0 -2.15 2.80 -4.95 4.95 -4.95 3.20 0 6.05 2.60 6.05 5.50 0 1.85 -1.50 4.05 -3.25 4.80 -2.10 0.85 -2.55 0.85 -4.60 -0.05z"/>
  <path d="M161.15 108.50 c-0.65 -0.25 -1.60 -1.20 -2.15 -2.10 -3.20 -5.15 3.75 -10.70 8.05 -6.45 3.90 3.95 -0.80 10.75 -5.90 8.55z"/>
  <path d="M39.20 106.80 c-5.20 -2.25 -3.80 -9.80 1.80 -9.80 1.15 0 2.50 0.25 3.05 0.50 1.10 0.65 2.45 3.05 2.45 4.50 0 1.85 -1.50 4.05 -3.25 4.80 -2.05 0.85 -2.10 0.85 -4.05 0z"/>
  <path d="M116.60 105.85 c-2.15 -2.30 -0.75 -6 2.30 -6 2.90 0 4.65 2.65 3.35 5.10 -1.20 2.35 -3.90 2.80 -5.65 0.90z"/>
  <path d="M130.55 105.70 c-0.60 -0.75 -1.05 -1.90 -1.05 -2.55 0 -1.60 2.10 -3.65 3.75 -3.65 1.65 0 3.75 2.05 3.75 3.65 0 2 -1.80 3.85 -3.75 3.85 -1.20 0 -1.95 -0.35 -2.70 -1.30z"/>
  <path d="M145.25 106 c-2.10 -2.35 -0.40 -6 2.75 -6 1.65 0 3.50 2 3.50 3.80 0 2.85 -4.30 4.35 -6.25 2.20z"/>
  <path d="M71.15 105 c-2.20 -0.90 -2.80 -3.85 -1.15 -5.50 1.30 -1.30 4.05 -1.30 5.15 -0.10 2.45 2.70 -0.65 6.95 -4 5.60z"/>
  <path d="M85.10 105.15 c-1.05 -0.40 -2.20 -3.10 -1.80 -4.30 0.60 -1.95 1.75 -2.85 3.75 -2.85 1.45 0 2.10 0.30 2.90 1.30 1.40 1.75 1.30 2.80 -0.25 4.65 -1.25 1.50 -2.85 1.90 -4.60 1.20z"/>
  <path d="M55.95 104.05 c-2.50 -2 -0.90 -6.55 2.30 -6.55 1.85 0 2.75 0.50 3.55 2.10 1.90 3.70 -2.60 7.10 -5.85 4.45z"/>
  <path d="M125.30 100.60 c-1.05 -2.05 -1.05 -2.10 0.70 -2.10 1.65 0 1.85 0.60 0.80 2.45 l-0.70 1.25 -0.80 -1.60z"/>
  <path d="M154 100.45 c-0.70 -1.20 -0.05 -2.15 1.10 -1.70 0.50 0.20 0.70 0.70 0.55 1.30 -0.40 1.45 -1.05 1.60 -1.65 0.40z"/>
  <path d="M79.35 99.45 c-0.15 -0.60 0 -1.10 0.45 -1.30 1 -0.35 1.20 -0.05 0.85 1.25 -0.35 1.40 -0.95 1.40 -1.30 0.05z"/>
  <path d="M65 98.75 c0 -0.40 0.25 -0.75 0.50 -0.75 0.30 0 0.50 0.35 0.50 0.75 0 0.40 -0.20 0.75 -0.50 0.75 -0.25 0 -0.50 -0.35 -0.50 -0.75z"/>
  <path d="M119.45 95 l-11.85 -0.25 1.90 -2.20 1.90 -2.20 1.60 1.30 c4.50 3.80 10.75 2.55 13.40 -2.65 1.40 -2.85 1.40 -5.25 -0.05 -8.05 -1.50 -2.80 -4.25 -4.45 -7.45 -4.45 -3.30 0 -4.85 0.70 -7 3.15 l-1.90 2.10 -1.35 -1.35 -1.35 -1.40 1.55 -1.60 c2.15 -2.35 2.75 -3.65 2.75 -6.40 -0.10 -9.30 -12.50 -12.20 -16.55 -3.90 -1.75 3.65 -1.10 7.50 1.80 10.50 l1.35 1.40 -1.20 1.25 c-1.50 1.60 -1.80 1.55 -2.75 -0.25 -1.05 -2 -4.55 -4 -7.15 -4 -8.20 0 -12.20 9.55 -6.30 15.10 3.45 3.20 9 3.15 12.55 -0.15 l1.05 -1.05 0.60 1.20 c0.35 0.60 1.10 1.65 1.65 2.25 0.55 0.65 0.90 1.25 0.75 1.40 -0.15 0.15 -11.25 0.10 -24.70 -0.10 l-24.45 -0.40 -0.15 -9.25 c-0.05 -5.10 0 -9.75 0.15 -10.30 0.25 -1.05 0.35 -1.05 2.10 -0.40 2.50 0.90 4.30 0.85 6.50 -0.05 2.40 -1 3.55 -2.05 4.70 -4.35 1.10 -2.20 1.25 -5.25 0.25 -7.55 -0.75 -1.90 -3.80 -4.70 -5.55 -5.15 -1.45 -0.35 -5.65 -0.05 -6.85 0.50 -0.85 0.40 -0.90 -0.25 -0.90 -9.10 0 -5.25 0.15 -9.85 0.30 -10.30 0.25 -0.65 1.20 -0.80 5.40 -0.80 2.85 0 5.25 0.15 5.45 0.30 0.15 0.15 -0.45 1.25 -1.35 2.40 -3.80 5 -3.35 9.95 1.25 15 4.90 5.35 10.70 6.65 17.95 4 2.55 -0.95 4.20 -2 5.80 -3.55 2.90 -2.90 3.45 -4.10 4.65 -9.50 0.55 -2.50 1.30 -5.30 1.75 -6.30 l0.75 -1.85 7.45 0 c4.10 0 7.55 0.15 7.70 0.30 0.20 0.15 -0.25 1.45 -0.90 2.85 -3.65 7.90 0.95 15.85 9.20 15.85 5.35 0 9.95 -3.40 18.75 -13.85 l3.90 -4.65 3.70 0 3.75 0 0 7.95 c0 4.40 0.20 8.10 0.40 8.25 0.20 0.10 2.95 -1.20 6.10 -2.95 3.15 -1.75 6.05 -3.20 6.40 -3.25 0.70 0 0.80 2.55 0.30 7.45 -0.30 2.60 -0.50 3.05 -1.15 2.75 -7 -2.85 -14.50 4.10 -11.85 11.05 0.95 2.40 3.60 5.05 5.60 5.55 0.70 0.20 2.60 0.20 4.25 0 l2.95 -0.30 0 9.45 c0 5.20 -0.15 9.85 -0.30 10.30 -0.35 0.85 -6.95 0.90 -37.25 0.25z"/>
  <path d="M99.70 91.10 c-2.75 -2.20 -2.95 -5.45 -0.50 -7.90 2.90 -2.90 7.05 -2.10 8.60 1.60 1.50 3.60 -1 7.20 -4.95 7.20 -1.25 0 -2.55 -0.40 -3.15 -0.90z"/>
  <path d="M115.60 89.70 c-2.90 -2 -3.25 -5.95 -0.70 -8.30 1.80 -1.70 3.25 -2.10 5.35 -1.40 3.20 1.05 4.65 4.50 3.20 7.65 -1.15 2.55 -5.50 3.70 -7.85 2.05z"/>
  <path d="M83.70 89.10 c-4.10 -3.30 -2.10 -9.55 3.05 -9.60 2.50 0 4.15 1.10 5.10 3.35 0.90 2.15 0.20 4.65 -1.70 6.15 -1.60 1.25 -5 1.30 -6.45 0.10z"/>
  <path d="M12.45 83.10 c-2.40 -2 -0.85 -6.10 2.35 -6.10 1.75 0 3.70 1.85 3.70 3.50 0 0.50 -0.45 1.45 -1.05 2.20 -1.25 1.55 -3.30 1.75 -5 0.40z"/>
  <path d="M100.15 75.55 c-1.95 -1.25 -2.65 -2.45 -2.65 -4.75 0 -3.60 4.05 -6.20 7.50 -4.80 1.95 0.80 3 2.55 3 4.95 0 4.15 -4.40 6.75 -7.85 4.60z"/>
  <path d="M151 72.15 c-1.40 -0.55 -3.45 -2.80 -3.75 -4.15 -0.65 -3.05 2.20 -6.50 5.35 -6.50 3.45 0 6.30 4.30 4.85 7.25 -1.20 2.40 -4.50 4.15 -6.45 3.40z"/>
  <path d="M50.10 69.75 c-1.80 -1.50 -2.35 -3.75 -1.40 -6 0.75 -1.75 2.95 -3.25 4.80 -3.25 3.10 0 5.80 3.35 5.20 6.50 -0.45 2.15 -2.80 4 -5.20 4 -1.30 0 -2.40 -0.40 -3.40 -1.25z"/>
  <path d="M67.20 54.05 c-2.05 -1.25 -4 -3.85 -4.45 -5.90 -0.25 -1.35 -0.05 -1.85 1.55 -3.60 1 -1.15 3.35 -3.05 5.20 -4.30 l3.40 -2.25 5.05 0 c2.75 0 5.05 0.10 5.05 0.20 0 1.30 -2.25 10.80 -2.80 11.90 -0.40 0.75 -1.55 1.95 -2.60 2.55 -4 2.50 -7.75 3 -10.40 1.40z"/>
  <path d="M111.10 50.75 c-2.60 -2.20 -1.95 -5.40 2.15 -10.10 l1.85 -2.15 8.65 0 8.70 0 -5 4.90 c-5.85 5.65 -9.50 8.10 -12.55 8.45 -1.85 0.20 -2.45 0.05 -3.80 -1.10z"/>
  <path d="M148.50 42.80 l0 -4.30 7 0 c3.85 0 7 0.20 7 0.40 0 0.35 -2.40 1.80 -10.85 6.45 l-3.15 1.75 0 -4.30z"/>
  <path d="M26.30 42.95 c-1.80 -1.40 -1.80 -4 0 -5.40 2.95 -2.30 6.15 -0.35 5.75 3.45 -0.15 1.05 -2.40 3 -3.50 3 -0.50 0 -1.50 -0.45 -2.25 -1.05z"/>
  <path d="M7.10 40.25 c-3.45 -1.50 -3.90 -6.95 -0.70 -9.05 4.45 -2.95 10.10 1.75 7.80 6.55 -0.75 1.60 -3.25 3.25 -4.80 3.25 -0.35 -0.05 -1.40 -0.35 -2.30 -0.75z"/>
  <path d="M149.15 34.65 c-0.80 -0.30 -0.90 -7.65 -0.15 -7.65 0.25 0 1.90 0.85 3.60 1.90 1.75 1.05 4.55 2.70 6.30 3.60 1.70 0.95 3.10 1.90 3.10 2.10 0 0.45 -11.85 0.50 -12.85 0.05z"/>
  <path d="M26.05 32.70 c-1.40 -1.75 -1.35 -3.75 0.10 -5.10 1.45 -1.40 2.85 -1.40 4.55 -0.05 2.60 2.05 0.95 6.45 -2.50 6.45 -0.60 0 -1.60 -0.60 -2.15 -1.30z"/>
  <path d="M57.55 33.50 l-6.75 -0.25 3.10 -3.60 c3.40 -3.95 8 -7.50 12.15 -9.35 2.90 -1.30 7.70 -2.10 9.40 -1.55 1.65 0.50 1.30 2.70 -0.85 6.05 -1.90 2.90 -7.90 8.45 -9.55 8.80 -0.45 0.05 -3.85 0.05 -7.50 -0.10z"/>
  <path d="M92.50 33.15 c0 -0.95 4.55 -10.25 6.80 -14.05 2.05 -3.40 6.05 -7.45 8.55 -8.65 3.40 -1.65 7.60 -1.55 10.95 0.15 2.90 1.55 3.20 2 3.20 5.35 0 3.75 -2.40 8 -7.65 13.45 l-4.50 4.60 -8.65 0 c-7.95 0 -8.70 -0.10 -8.70 -0.85z"/>
 </g>
</svg>
