<?xml version="1.0" encoding="utf-8"?>
<!DOCTYPE svg PUBLIC "-//W3C//DTD SVG 1.0//EN" "http://www.w3.org/TR/2001/REC-SVG-20010904/DTD/svg10.dtd">
<svg version="1.0" xmlns="http://www.w3.org/2000/svg" width="154px" height="154px" viewBox="0 0 154 154" preserveAspectRatio="xMidYMid meet">
 <g fill="#000000">
  <path d="M64.05 150.70 c-1.55 -1.95 -1.35 -3.85 0.50 -5.40 1.85 -1.55 1.60 -1.50 7.20 -1.55 l4.50 0 0.15 -2.75 c0.10 -2.30 -0.15 -3.20 -1.40 -5.35 -1.90 -3.35 -4.40 -4.70 -9.25 -5.10 l-3.50 -0.30 -0.25 -3.50 c-0.25 -3.30 -0.35 -3.50 -1.50 -3.65 -2.80 -0.35 -5.05 -1.20 -6.50 -2.40 l-1.50 -1.30 0 -8.70 0 -8.70 -9 0 c-4.95 0 -9 0.10 -9 0.25 0 0.10 0.50 1.20 1.05 2.40 1.35 2.75 1 4.40 -1.35 6.75 -1.60 1.60 -1.90 1.70 -4 1.45 -3.55 -0.40 -4.90 -1.65 -5.10 -4.80 -0.10 -2 0 -2.65 0.65 -2.90 0.95 -0.35 1.75 0.60 1.75 2.15 0 2.65 3.80 4.05 5.30 1.95 1.15 -1.55 0.80 -3 -1.25 -5.30 l-1.95 -2.20 -13.65 -0.15 c-7.55 -0.10 -14 -0.25 -14.35 -0.35 -0.95 -0.35 -0.30 -3.95 1.15 -6.50 1.75 -3.05 6.30 -7.80 10.50 -11 2.05 -1.60 3.75 -2.95 3.75 -3 0 -0.10 -1.40 -1.05 -3.10 -2.15 -3.90 -2.45 -7.90 -6.60 -9.60 -10 -6.60 -13.05 -1.15 -28.45 12.50 -35.15 1.75 -0.90 4.35 -1.70 5.70 -1.85 1.40 -0.10 2.65 -0.40 2.75 -0.65 0.35 -0.55 -4.85 -10.95 -5.45 -10.95 -0.25 0 -1.55 0.50 -2.85 1.05 -2.15 1 -2.45 1.35 -3.70 4.55 -1.95 4.90 -2.75 4.65 -5.70 -1.75 -2.75 -5.95 -2.55 -6.45 2.05 -4.90 l3.25 1.05 2.80 -1.25 c1.55 -0.75 2.85 -1.65 2.85 -2.05 0 -0.35 -0.70 -2.10 -1.60 -3.90 -1.50 -3.05 -1.70 -3.25 -5 -4.70 -1.85 -0.85 -3.40 -1.75 -3.40 -2.05 0 -0.50 7.70 -4.35 9.80 -4.85 1.65 -0.40 1.75 0.35 0.60 3.95 l-1.10 3.35 1.45 3.10 c2.15 4.65 2.05 4.60 5.55 2.90 2.75 -1.30 3.15 -1.65 3.95 -3.85 1.85 -4.95 2.55 -4.85 5.20 0.85 3 6.55 3 6.55 -2.45 5.20 l-3.25 -0.85 -2.65 1.35 c-1.40 0.70 -2.60 1.55 -2.60 1.80 0 0.30 1.35 3.20 3 6.50 l3 6 9.55 0 c8.90 0 9.55 -0.05 9.20 -0.90 -1.25 -3.30 -0.55 -6.25 2.05 -8.60 1.50 -1.25 2.15 -1.50 4.45 -1.50 2.30 0 2.95 0.25 4.40 1.50 2.80 2.45 3.35 4.90 2.10 8.90 l-0.35 1.10 11.55 0 11.55 0 -0.50 -1.30 c-0.95 -2.45 -0.60 -5.50 0.80 -7.20 3.40 -4 8 -4 11.40 0 1 1.25 1.30 2.10 1.30 4.05 0 1.40 -0.25 2.95 -0.50 3.45 -0.55 1.05 -0.40 1.15 3.95 1.75 1.20 0.15 3.90 1.05 5.95 2 2.05 0.95 3.95 1.75 4.15 1.75 0.45 0 5.95 -10.60 5.95 -11.40 0 -0.55 -4.30 -2.60 -5.45 -2.60 -0.55 0 -2.30 0.40 -3.90 0.90 -3.20 1 -4.15 0.95 -4.15 -0.30 0 -1.15 5.15 -10.35 5.75 -10.35 0.30 0 1.20 1.45 2.05 3.20 1.35 2.80 1.85 3.35 4.25 4.60 1.50 0.75 2.85 1.40 3 1.45 0.15 0 1.10 -1.80 2.15 -4 l1.90 -4.05 -0.80 -2.30 c-0.90 -2.55 -1.05 -4.65 -0.35 -4.65 0.20 0 2.60 1.15 5.25 2.55 3.30 1.75 4.80 2.80 4.70 3.30 -0.10 0.45 -1.50 1.25 -3.15 1.85 -2.90 1 -3.05 1.15 -4.85 4.55 -1.05 1.95 -1.90 3.65 -1.90 3.85 0 0.20 1.30 1.05 2.90 1.85 l2.95 1.50 3.35 -0.80 c2.30 -0.50 3.55 -0.60 3.90 -0.25 0.60 0.60 -4.50 10.60 -5.45 10.60 -0.35 0 -1 -1.40 -1.55 -3.10 -0.85 -3.05 -1 -3.20 -3.85 -4.75 -1.65 -0.90 -3.25 -1.65 -3.50 -1.65 -0.50 0 -6.25 11 -6.25 11.90 0 0.20 1.55 1.95 3.40 3.85 4 4.10 5.85 7.15 7.60 12.25 l1.25 3.75 3.40 0.15 c4 0.15 4.10 -0.05 1.85 -4.25 -2 -3.75 -1.85 -7.85 0.45 -10.70 l0.90 -1.15 2.30 3.50 c4.15 6.30 9.85 10.90 15.65 12.65 1.50 0.45 2.75 1.05 2.75 1.30 0 0.30 -1.20 0.85 -2.65 1.30 -3.15 0.95 -6.50 2.60 -8.85 4.40 -1.85 1.40 -6.75 7.40 -8.15 10 -1.10 1.95 -1.65 1.95 -2.90 -0.05 -1.95 -3.20 -1.25 -8.10 1.65 -12.05 1.40 -1.85 0.65 -2.45 -2.95 -2.25 l-2.95 0.15 -0.10 2.95 c-0.10 4.15 -1 8.90 -2.40 12.55 l-1.20 3.15 2.50 2.60 2.50 2.60 1.25 -1.15 c0.70 -0.65 1.20 -1.70 1.20 -2.50 0 -2.20 0.95 -2.20 3.05 -0.15 2.20 2.15 2.45 3.20 0.80 3.20 -0.65 0 -1.80 0.70 -2.60 1.50 l-1.45 1.50 1.45 1.50 c1 1.05 1.90 1.50 3.05 1.50 0.90 0 1.80 0.25 1.95 0.50 0.40 0.65 -4.15 5.10 -4.95 4.85 -0.30 -0.10 -0.65 -0.85 -0.80 -1.65 -0.25 -1.45 -2.05 -4.20 -2.70 -4.20 -1 0 -3.30 2.35 -3.30 3.30 0 2 -1.05 1.90 -3 -0.35 -1.05 -1.20 -1.80 -2.35 -1.65 -2.55 0.10 -0.25 0.85 -0.40 1.60 -0.40 1.35 0 3.55 -1.75 3.55 -2.85 0 -0.30 -0.90 -1.35 -2.05 -2.40 l-2.05 -1.85 -3.85 3.95 c-2.85 2.95 -4.80 4.45 -7.80 6 -5.40 2.80 -7.05 3.20 -13.75 3.60 -5.55 0.30 -5.75 0.35 -5.90 1.50 -0.10 0.65 0.05 1.35 0.35 1.55 0.30 0.15 10.05 0.35 21.70 0.45 l21.10 0.10 1.85 -2.20 c2.10 -2.55 4.55 -3.45 7.40 -2.70 5.25 1.35 7.05 8.25 3.15 11.95 -3.75 3.50 -9.10 2.45 -11.30 -2.20 l-1.10 -2.35 -20.60 -0.10 c-11.35 -0.05 -21.05 -0.15 -21.50 -0.15 -0.75 -0.05 -0.95 0.45 -1.05 2.55 -0.15 2.90 -0.35 2.75 4.15 3.35 1.10 0.15 3.60 0.95 5.50 1.80 3.20 1.35 4 1.45 9.40 1.50 4.70 0 5.85 -0.15 5.85 -0.70 0 -1.40 -0.65 -2.35 -2.10 -3.10 -1.70 -0.90 -1.40 -1.70 0.70 -1.70 3.30 0 6.25 3.80 5.60 7.30 -0.50 2.65 -3.15 5.20 -5.40 5.20 -1 0 -1.80 -0.15 -1.80 -0.30 0 -0.20 0.70 -1.10 1.55 -2.05 0.85 -1 1.35 -1.95 1.10 -2.15 -0.20 -0.25 -3.45 -0.50 -7.15 -0.60 -6.25 -0.20 -7.05 -0.35 -10.65 -1.85 -2.35 -0.95 -4.55 -1.55 -5.50 -1.45 l-1.60 0.15 0 3.75 0 3.75 7 0.60 c8.75 0.70 13 1.45 17.35 2.95 4.65 1.65 9.30 1.65 10.80 0.05 0.85 -0.90 1.10 -1.80 1.10 -3.70 0 -3 1.10 -4.25 3.65 -4.25 2.30 0 3.65 0.80 4.65 2.65 0.95 1.85 0.60 3.70 -0.85 4.45 -1.55 0.85 -2.60 -0.15 -1.85 -1.80 0.70 -1.45 -0.10 -2.30 -1.85 -2.10 -1.60 0.20 -1.50 2.75 0.20 7.10 1.85 4.55 1.95 7.15 0.50 9 -2.75 3.50 -9.85 -0.45 -8 -4.50 1.20 -2.65 3.05 -1.95 3.05 1.15 0 2 1.55 2.70 3.05 1.35 1.10 -1 0.95 -1.95 -0.90 -4.80 l-1.15 -1.90 -5.20 0 -5.20 0 -2.35 4.40 c-5.20 9.60 -9.75 14.80 -14.55 16.60 -2.60 0.95 -3.75 1.05 -11 0.95 l-8.15 -0.10 -2.15 2.20 c-2.45 2.50 -5.90 3.95 -9.50 3.95 -1.90 0 -2.50 -0.25 -3.35 -1.30z m8.90 -2.60 c1.50 -0.75 2.65 -1.55 2.50 -1.85 -0.25 -0.65 -5.80 -0.40 -7.55 0.30 -1.30 0.55 -1.85 1.85 -1.05 2.60 0.70 0.75 3.55 0.25 6.10 -1.05z m23.55 -5.20 c0.95 -0.40 2.30 -1.40 3 -2.15 1.15 -1.20 1.25 -1.75 1.25 -5.65 0 -4.95 -0.60 -6.45 -3.80 -9.65 -2.15 -2.15 -5.45 -3.90 -7.30 -3.95 -0.95 0 -1.15 0.25 -1.15 1.65 0 1.90 0.30 2.30 2.15 3.55 1.90 1.20 3.50 4.85 3.10 6.95 -0.75 3.55 -3.55 5.85 -7.15 5.85 -3.80 0 -6.55 -2.45 -7 -6.25 -0.30 -2.90 0.90 -5.25 3.65 -7 2.05 -1.25 2.25 -1.60 2.25 -3.30 0 -1.65 -0.25 -2.05 -1.55 -2.75 -0.85 -0.40 -3.70 -1.05 -6.25 -1.35 l-4.70 -0.55 -1.40 1.35 c-0.75 0.70 -2.65 1.85 -4.25 2.60 l-2.90 1.25 0.15 2.10 0.15 2.05 3.15 0.65 c7.35 1.50 11.10 6 11.10 13.35 l0 2.45 7.90 -0.20 c5.55 -0.15 8.35 -0.45 9.60 -1z m-6.45 -6.85 c1.15 -1.15 1.45 -1.90 1.45 -3.55 0 -5.10 -6.95 -6.95 -9.30 -2.45 -0.90 1.80 -0.90 3.15 0.05 4.95 0.95 1.85 2.05 2.45 4.40 2.50 1.45 0 2.25 -0.35 3.40 -1.45z m16.70 -2.40 c1.10 -1.70 2.80 -4.55 3.75 -6.35 1.95 -3.65 1.90 -3.85 -1.45 -4.80 -2.50 -0.70 -11.45 -1.75 -11.85 -1.40 -0.15 0.20 0.70 1.30 1.95 2.50 1.75 1.70 2.45 2.90 3.30 5.60 0.60 1.85 1.05 4.40 1.05 5.65 0 2.95 0.70 2.65 3.25 -1.20z m-40.45 -14.20 c3.75 -1.80 7.10 -6.70 8.95 -13.15 1.15 -4 0.95 -4.30 -3.15 -4.30 -1.90 0 -3.55 0.15 -3.75 0.30 -0.15 0.15 0.15 1.15 0.70 2.10 1.15 2.20 1.20 3.20 0.20 5.30 -0.95 2 -3.10 3.30 -5.50 3.30 -3.55 0 -6.85 -5.05 -4.50 -7 1 -0.85 1.75 -0.20 1.75 1.50 0 2.65 3.45 3.95 5.25 2 1.45 -1.55 1.10 -3.35 -1.05 -5.55 l-1.95 -2 -4 0.15 -4 0.15 -0.15 7.85 -0.15 7.85 1.65 0.85 c3.75 1.95 6.65 2.15 9.70 0.65z m18.95 -5.70 c0 -3.45 0 -3.50 -1.35 -3.65 -1.65 -0.20 -3.90 1.80 -3.90 3.40 0 2.35 1.95 4.10 4.25 3.85 0.90 -0.10 1 -0.45 1 -3.60z m-7.75 0.05 c0 -3.35 2.20 -5.65 6 -6.30 1.75 -0.25 1.75 -0.30 1.75 -2.75 l0 -2.50 -2.95 0 -3 0 -0.60 2.35 c-0.30 1.30 -1.30 4 -2.15 6.10 -1.90 4.55 -1.95 5.30 -0.30 5.30 1.15 0 1.25 -0.20 1.25 -2.20z m65.55 -8.25 c1.15 -1.15 1.45 -1.90 1.45 -3.55 0 -5.10 -6.95 -6.95 -9.30 -2.45 -2.65 5.15 3.80 10.05 7.85 6z m-116.55 -6.55 c0 -0.25 -0.70 -1.65 -1.60 -3.05 -0.95 -1.60 -1.65 -3.45 -1.80 -4.95 -0.20 -2.10 -0.05 -2.60 1.05 -3.70 2.45 -2.45 8.60 -1.35 10.35 1.85 0.65 1.20 0.65 1.50 0 2.75 -0.45 0.75 -1.30 1.40 -1.90 1.50 -1.05 0.15 -1.15 0 -1 -1.75 0.15 -1.75 0.05 -1.90 -1.60 -2.45 -1.90 -0.65 -3.45 -0.30 -4.20 0.95 -0.70 1.10 0.50 3.45 3.45 6.75 l2.35 2.60 10.40 0 10.35 0 0.30 -8.10 c0.15 -4.50 0.10 -8.30 -0.05 -8.50 -0.20 -0.15 -7.45 -0.40 -16.10 -0.45 l-15.75 -0.15 -2.65 1.45 c-7.35 4 -15.35 13.30 -13.25 15.40 0.55 0.55 21.65 0.40 21.65 -0.15z m34.50 0.05 c0 -0.25 -0.35 -0.70 -0.80 -1.10 -1.35 -1.10 -3.20 -5.35 -3.20 -7.35 0 -3.15 2.65 -4.90 6.60 -4.35 3.05 0.45 4.90 2 4.90 4.15 0 1.95 -1.45 3.75 -2.65 3.35 -1 -0.40 -1.05 -0.90 -0.30 -2.35 0.75 -1.40 -0.55 -2.40 -3.15 -2.40 -3.65 0 -3.50 2.65 0.45 7.75 l1.95 2.50 5.70 0.15 c3.10 0.05 5.85 -0.05 6.05 -0.25 0.20 -0.20 0.55 -1.60 0.75 -3.05 l0.35 -2.65 -2.20 -1.85 c-1.20 -1 -3.80 -3.45 -5.75 -5.45 l-3.55 -3.65 -5.25 0 c-4.35 0 -5.35 0.15 -5.60 0.80 -0.40 1.05 -0.40 15.45 0.05 15.85 0.50 0.50 5.65 0.40 5.65 -0.10z m24.50 -1.25 c0 -1.50 -0.20 -1.75 -2.15 -2.50 -2.90 -1.10 -3.20 -1.05 -3.55 0.75 -0.65 3.35 -0.60 3.45 2.70 3.45 l3 0 0 -1.70z m15.65 -4.55 c6.75 -1.75 12.70 -6 16.70 -11.95 2.90 -4.30 4.35 -7.75 5.20 -12.55 0.60 -3.55 0.25 -7.55 -0.70 -7.90 -1 -0.35 -12.55 -0.45 -13.50 -0.10 -0.70 0.30 -0.85 1 -0.85 4 0 3.55 0.05 3.65 1.45 4.25 4.80 1.95 5.75 7.95 1.80 11.45 -1.55 1.35 -2.20 1.55 -4.50 1.55 -2.45 0 -3 -0.20 -4.55 -1.65 -1.55 -1.40 -1.85 -2.10 -2.05 -4.15 -0.35 -3.20 0.70 -5.25 3.40 -6.95 l2 -1.30 -0.15 -3.60 -0.15 -3.60 -7.25 0 -7.25 0 -0.15 16 c-0.05 8.80 0 16.25 0.15 16.60 0.30 0.90 6.80 0.85 10.40 -0.10z m-13.15 -16.80 l0 -15.95 -7.75 0 -7.75 0 0 3.40 c0 3.40 0 3.40 1.75 4.25 3.30 1.60 4.80 6.35 3.05 9.80 -1 1.90 -1.95 2.55 -4.90 3.55 l-2.55 0.80 1.65 1.85 c4.45 5.10 13.85 10.25 15.90 8.70 0.45 -0.35 0.60 -4.25 0.60 -16.40z m-22.85 3.25 c0.15 -0.20 -0.05 -1 -0.50 -1.85 -1.80 -3.55 -0.45 -7.75 3.25 -9.75 l2.10 -1.15 0 -3.20 0 -3.15 -6.80 -0.35 c-3.85 -0.20 -6.95 -0.20 -7.20 0.05 -0.25 0.25 -0.50 4.60 -0.50 9.65 -0.05 7.15 0.05 9.30 0.60 9.60 0.75 0.50 8.60 0.60 9.05 0.15z m45.10 -0.95 c0.95 -0.90 1.25 -1.75 1.25 -3.45 0 -1.85 -0.25 -2.40 -1.55 -3.50 -2.15 -1.80 -4.55 -1.75 -6.50 0.15 -1.90 1.95 -1.95 4.35 -0.15 6.50 1.10 1.30 1.65 1.55 3.50 1.55 1.70 0 2.55 -0.30 3.45 -1.25z m-80.75 -6.50 l0 -7.25 -3.40 0 -3.40 0 -2.45 2.50 c-1.35 1.40 -2.75 2.50 -3.10 2.50 -0.50 0 -0.65 -1.45 -0.65 -5.95 0 -3.30 0.20 -6.10 0.45 -6.25 0.25 -0.15 1.65 0.70 3.15 1.95 2.65 2.15 2.85 2.25 6.10 2.25 l3.30 0 0.05 -3.35 c0.10 -4.70 0.15 -4.50 -2.70 -7.50 -1.45 -1.45 -2.60 -2.95 -2.60 -3.30 0 -0.80 12.80 -0.90 13.10 -0.05 0.10 0.30 -0.70 1.45 -1.75 2.50 -2.55 2.55 -2.90 3.35 -3.05 7.10 -0.20 4.90 -0.05 5.10 3.75 5.10 3.15 0 3.30 -0.05 5.65 -2.25 1.30 -1.25 2.65 -2.25 3 -2.25 0.60 0 0.85 11.55 0.20 12.20 -0.20 0.15 -1.60 -0.95 -3.15 -2.45 l-2.85 -2.80 -3.20 0.15 -3.20 0.15 0 7 0 7 10 0 10 0 0.15 -21.95 c0.10 -17.25 0 -22.05 -0.50 -22.40 -0.35 -0.20 -7.10 -0.40 -15 -0.40 l-14.30 0 -4.20 1.60 c-3.60 1.35 -4.65 2.05 -7.70 5.10 -3.05 3.10 -3.75 4.10 -5.15 7.75 -1.55 3.95 -1.60 4.55 -1.45 9.25 0.15 4.55 0.35 5.40 1.90 8.55 0.95 1.95 2.75 4.50 4 5.75 4 4 10.70 6.95 15.90 7 l3.10 0 0 -7.25z m45.05 5.80 c1.95 -1.95 2 -4.80 0.15 -7 -1.10 -1.30 -1.65 -1.55 -3.55 -1.55 -3.10 0 -5.15 2 -5.15 5 0 1.65 0.30 2.40 1.45 3.55 1.15 1.15 1.90 1.45 3.55 1.45 1.65 0 2.40 -0.30 3.55 -1.45z m34.90 -19.80 c4.30 -2.20 2.45 -9 -2.50 -9 -2.45 0 -4.35 1.75 -4.80 4.40 -0.25 1.60 -0.05 2.05 1.50 3.60 1.95 1.95 3.50 2.20 5.80 1z m12.45 -1.25 c0.25 -2.30 -3.60 -9.10 -7.30 -12.90 -5.25 -5.40 -13.90 -9.30 -20.10 -9 l-3.25 0.15 -0.25 10.75 c-0.15 5.90 -0.15 11.05 -0.05 11.40 0.10 0.40 1.55 0.60 5 0.60 l4.90 0 -0.50 -2.40 c-1.60 -7.70 8.15 -11.65 12.50 -5.15 1.20 1.80 1.50 4.50 0.65 6.10 -0.90 1.65 -0.15 2 4.15 1.85 3.95 -0.15 4.10 -0.20 4.25 -1.40z m-57.30 -0.30 c-0.70 -4.25 -0.65 -5.65 0.10 -7.10 0.95 -1.80 2.45 -2.90 4.85 -3.60 5.25 -1.55 10.45 4.50 8.30 9.65 -0.45 0.95 -0.65 1.90 -0.45 2.05 0.15 0.15 2.55 0.30 5.35 0.30 l5.10 0 0.35 -11 c0.20 -6.05 0.20 -11.20 0.05 -11.50 -0.20 -0.30 -6.25 -0.50 -16.55 -0.50 l-16.20 0 0 11.25 0 11.20 4.15 0.15 c5.15 0.25 5.15 0.25 4.95 -0.90z m9.35 0.60 c0.75 -0.40 1.60 -1.30 1.95 -2.05 1.75 -3.85 -0.70 -7.75 -4.90 -7.75 -1.75 0 -4.25 2.05 -4.70 3.80 -0.50 2 0.60 4.65 2.40 5.75 1.85 1.15 3.35 1.20 5.25 0.25z m-17.65 -25.05 c1.15 -0.50 1.95 -1.30 2.45 -2.45 1.10 -2.65 0.90 -3.75 -1 -5.65 -1.60 -1.60 -2 -1.75 -3.80 -1.50 -5.35 0.70 -6.65 7.15 -1.95 9.45 2.10 1.10 2.10 1.10 4.30 0.15z m36.90 -1.20 c2.75 -2.90 1.55 -7.50 -2.25 -8.65 -5.35 -1.55 -9.15 5.15 -5.05 8.95 1.90 1.75 5.45 1.65 7.30 -0.30z"/>
 </g>
 <g fill="none">
  <path d="M0 77 l0 -77 77 0 77 0 0 77 0 77 -77 0 -77 0 0 -77z m72.25 74.15 c1.55 -0.55 3.30 -1.75 4.65 -3.10 l2.15 -2.20 8.15 0.10 c7.25 0.10 8.40 0 11 -0.95 4.80 -1.80 9.35 -7 14.55 -16.60 l2.35 -4.40 5.20 0 5.20 0 1.15 1.90 c1.85 2.85 2 3.80 0.90 4.80 -1.50 1.35 -3.05 0.65 -3.05 -1.35 0 -3.10 -1.85 -3.80 -3.05 -1.15 -1.85 4.05 5.25 8 8 4.50 1.45 -1.85 1.35 -4.45 -0.50 -9 -1.70 -4.35 -1.80 -6.90 -0.20 -7.10 1.75 -0.20 2.55 0.65 1.85 2.10 -0.75 1.65 0.30 2.65 1.85 1.80 1.45 -0.75 1.80 -2.60 0.85 -4.45 -1 -1.85 -2.35 -2.65 -4.65 -2.65 -2.55 0 -3.65 1.25 -3.65 4.25 0 1.90 -0.25 2.80 -1.10 3.70 -1.50 1.60 -6.15 1.60 -10.80 -0.05 -4.35 -1.50 -8.60 -2.25 -17.35 -2.95 l-7 -0.60 0 -3.75 0 -3.75 1.60 -0.15 c0.95 -0.10 3.15 0.50 5.50 1.45 3.60 1.50 4.40 1.65 10.65 1.85 3.70 0.10 6.95 0.35 7.15 0.60 0.25 0.20 -0.25 1.15 -1.10 2.15 -0.85 0.95 -1.55 1.85 -1.55 2.05 0 0.15 0.80 0.30 1.80 0.30 2.25 0 4.90 -2.55 5.40 -5.20 0.65 -3.50 -2.30 -7.30 -5.60 -7.30 -2.10 0 -2.40 0.80 -0.70 1.70 1.45 0.75 2.10 1.70 2.10 3.10 0 0.55 -1.15 0.70 -5.85 0.70 -5.40 -0.05 -6.20 -0.15 -9.40 -1.50 -1.90 -0.85 -4.40 -1.65 -5.50 -1.80 -4.50 -0.60 -4.30 -0.45 -4.15 -3.35 0.10 -2.10 0.30 -2.60 1.05 -2.55 0.45 0 10.15 0.10 21.50 0.15 l20.60 0.10 1.10 2.35 c2.20 4.65 7.55 5.70 11.30 2.20 3.90 -3.70 2.10 -10.60 -3.15 -11.95 -2.85 -0.75 -5.30 0.15 -7.40 2.70 l-1.85 2.20 -21.10 -0.10 c-11.65 -0.10 -21.40 -0.30 -21.70 -0.45 -0.30 -0.20 -0.45 -0.90 -0.35 -1.55 0.15 -1.15 0.35 -1.20 5.90 -1.50 6.70 -0.40 8.35 -0.80 13.75 -3.60 3 -1.55 4.95 -3.05 7.80 -6 l3.85 -3.95 2.05 1.85 c1.15 1.05 2.05 2.10 2.05 2.40 0 1.10 -2.20 2.85 -3.55 2.85 -0.75 0 -1.50 0.15 -1.60 0.40 -0.15 0.20 0.60 1.35 1.65 2.55 1.95 2.25 3 2.35 3 0.35 0 -0.95 2.30 -3.30 3.30 -3.30 0.65 0 2.45 2.75 2.70 4.20 0.15 0.80 0.50 1.55 0.80 1.65 0.80 0.25 5.35 -4.20 4.95 -4.85 -0.15 -0.25 -1.05 -0.50 -1.95 -0.50 -1.15 0 -2.05 -0.45 -3.05 -1.50 l-1.45 -1.50 1.45 -1.50 c0.80 -0.80 1.95 -1.50 2.60 -1.50 1.65 0 1.40 -1.05 -0.80 -3.20 -2.10 -2.05 -3.05 -2.05 -3.05 0.15 0 0.80 -0.50 1.85 -1.20 2.50 l-1.25 1.15 -2.50 -2.60 -2.50 -2.60 1.20 -3.15 c1.40 -3.65 2.30 -8.40 2.40 -12.55 l0.10 -2.95 2.95 -0.15 c3.60 -0.20 4.35 0.40 2.95 2.25 -2.90 3.95 -3.60 8.85 -1.65 12.05 1.25 2 1.80 2 2.90 0.05 1.40 -2.60 6.30 -8.60 8.15 -10 2.35 -1.80 5.70 -3.45 8.85 -4.40 1.45 -0.45 2.65 -1 2.65 -1.30 0 -0.25 -1.25 -0.85 -2.75 -1.30 -5.80 -1.75 -11.50 -6.35 -15.65 -12.65 l-2.30 -3.50 -0.90 1.15 c-2.30 2.85 -2.45 6.95 -0.45 10.70 2.25 4.20 2.15 4.40 -1.85 4.25 l-3.40 -0.15 -1.25 -3.75 c-1.75 -5.10 -3.60 -8.15 -7.60 -12.25 -1.85 -1.90 -3.40 -3.65 -3.40 -3.85 0 -0.90 5.75 -11.90 6.25 -11.90 0.25 0 1.85 0.75 3.50 1.65 2.85 1.55 3 1.70 3.85 4.75 0.55 1.70 1.20 3.10 1.55 3.10 0.95 0 6.05 -10 5.45 -10.60 -0.35 -0.35 -1.60 -0.25 -3.90 0.25 l-3.35 0.80 -2.95 -1.50 c-1.60 -0.80 -2.90 -1.65 -2.90 -1.85 0 -0.20 0.85 -1.90 1.90 -3.85 1.80 -3.40 1.95 -3.55 4.85 -4.55 1.65 -0.60 3.05 -1.40 3.15 -1.85 0.10 -0.50 -1.40 -1.55 -4.70 -3.30 -2.65 -1.40 -5.05 -2.55 -5.25 -2.55 -0.70 0 -0.55 2.10 0.35 4.65 l0.80 2.30 -1.90 4.05 c-1.05 2.20 -2 4 -2.15 4 -0.15 -0.05 -1.50 -0.70 -3 -1.45 -2.40 -1.25 -2.90 -1.80 -4.25 -4.60 -0.85 -1.75 -1.75 -3.20 -2.05 -3.20 -0.60 0 -5.75 9.20 -5.75 10.35 0 1.25 0.95 1.30 4.15 0.30 1.60 -0.50 3.35 -0.90 3.90 -0.90 1.15 0 5.45 2.05 5.45 2.60 0 0.80 -5.50 11.40 -5.95 11.40 -0.20 0 -2.10 -0.80 -4.15 -1.75 -2.05 -0.95 -4.75 -1.85 -5.95 -2 -4.35 -0.60 -4.50 -0.70 -3.95 -1.75 0.25 -0.50 0.50 -2.05 0.50 -3.45 0 -1.95 -0.30 -2.80 -1.30 -4.05 -3.40 -4 -8 -4 -11.40 0 -1.40 1.70 -1.75 4.75 -0.80 7.20 l0.50 1.30 -11.55 0 -11.55 0 0.35 -1.10 c1.25 -4 0.70 -6.45 -2.10 -8.90 -1.45 -1.25 -2.10 -1.50 -4.40 -1.50 -2.30 0 -2.95 0.25 -4.45 1.50 -2.60 2.35 -3.30 5.30 -2.05 8.60 0.35 0.85 -0.30 0.90 -9.20 0.90 l-9.55 0 -3 -6 c-1.65 -3.30 -3 -6.20 -3 -6.50 0 -0.25 1.20 -1.10 2.60 -1.80 l2.65 -1.35 3.25 0.85 c5.45 1.35 5.45 1.35 2.45 -5.20 -2.65 -5.70 -3.35 -5.80 -5.20 -0.85 -0.80 2.20 -1.20 2.55 -3.95 3.85 -3.50 1.70 -3.40 1.75 -5.55 -2.90 l-1.45 -3.10 1.10 -3.35 c1.15 -3.60 1.05 -4.35 -0.60 -3.95 -2.10 0.50 -9.80 4.35 -9.80 4.85 0 0.30 1.55 1.20 3.40 2.05 3.30 1.45 3.50 1.65 5 4.70 0.90 1.80 1.60 3.55 1.60 3.90 0 0.40 -1.30 1.30 -2.85 2.05 l-2.80 1.25 -3.25 -1.05 c-4.60 -1.55 -4.80 -1.05 -2.05 4.90 2.95 6.40 3.75 6.65 5.70 1.75 1.25 -3.20 1.55 -3.55 3.70 -4.55 1.30 -0.55 2.60 -1.05 2.85 -1.05 0.60 0 5.80 10.40 5.45 10.95 -0.10 0.25 -1.35 0.55 -2.75 0.65 -1.35 0.15 -3.95 0.95 -5.70 1.85 -13.65 6.70 -19.10 22.10 -12.50 35.15 1.70 3.40 5.70 7.55 9.60 10 1.70 1.10 3.10 2.05 3.10 2.15 0 0.05 -1.70 1.40 -3.75 3 -4.20 3.20 -8.75 7.95 -10.50 11 -1.45 2.55 -2.10 6.15 -1.15 6.50 0.35 0.10 6.80 0.25 14.35 0.35 l13.65 0.15 1.95 2.20 c2.05 2.30 2.40 3.75 1.25 5.30 -1.50 2.10 -5.30 0.70 -5.30 -1.95 0 -1.55 -0.80 -2.50 -1.75 -2.15 -0.65 0.25 -0.75 0.90 -0.65 2.90 0.20 3.15 1.55 4.40 5.10 4.80 2.10 0.25 2.40 0.15 4 -1.45 2.35 -2.35 2.70 -4 1.35 -6.75 -0.55 -1.20 -1.05 -2.30 -1.05 -2.40 0 -0.15 4.05 -0.25 9 -0.25 l9 0 0 8.70 0 8.70 1.50 1.30 c1.45 1.20 3.70 2.05 6.50 2.40 1.15 0.15 1.25 0.35 1.50 3.65 l0.25 3.50 3.50 0.30 c4.85 0.40 7.35 1.75 9.25 5.10 1.25 2.15 1.50 3.05 1.40 5.35 l-0.15 2.75 -4.50 0 c-5.60 0.05 -5.35 0 -7.20 1.55 -1.85 1.55 -2.05 3.45 -0.50 5.40 0.85 1.05 1.45 1.30 3.35 1.30 1.30 0 3.50 -0.40 4.85 -0.85z"/>
  <path d="M66.85 149.15 c-0.80 -0.75 -0.25 -2.05 1.05 -2.60 1.75 -0.70 7.30 -0.95 7.55 -0.30 0.55 1.30 -7.50 4 -8.60 2.90z"/>
  <path d="M79 141.65 c0 -7.35 -3.75 -11.85 -11.10 -13.35 l-3.15 -0.65 -0.15 -2.05 -0.15 -2.10 2.90 -1.25 c1.60 -0.75 3.50 -1.90 4.25 -2.60 l1.40 -1.35 4.70 0.55 c2.55 0.30 5.40 0.95 6.25 1.35 1.30 0.70 1.55 1.10 1.55 2.75 0 1.70 -0.20 2.05 -2.25 3.30 -2.75 1.75 -3.95 4.10 -3.65 7 0.45 3.80 3.20 6.25 7 6.25 3.60 0 6.40 -2.30 7.15 -5.85 0.40 -2.10 -1.20 -5.75 -3.10 -6.95 -1.85 -1.25 -2.15 -1.65 -2.15 -3.55 0 -1.40 0.20 -1.65 1.15 -1.65 1.85 0.05 5.15 1.80 7.30 3.95 3.20 3.20 3.80 4.70 3.80 9.65 0 3.90 -0.10 4.45 -1.25 5.65 -2.25 2.45 -4.10 2.90 -12.60 3.15 l-7.90 0.20 0 -2.45z"/>
  <path d="M83.85 136.95 c-1.05 -0.60 -2.35 -3.05 -2.35 -4.45 0 -4.35 5.45 -6.60 8.55 -3.55 3.15 3.15 1 8.55 -3.40 8.55 -1.05 0 -2.30 -0.25 -2.80 -0.55z"/>
  <path d="M103.50 134.85 c0 -1.25 -0.45 -3.80 -1.05 -5.65 -0.85 -2.70 -1.55 -3.90 -3.30 -5.60 -1.25 -1.20 -2.10 -2.30 -1.95 -2.50 0.40 -0.35 9.35 0.70 11.85 1.40 3.35 0.95 3.40 1.15 1.45 4.80 -2.35 4.45 -5.60 9.35 -6.35 9.60 -0.45 0.10 -0.65 -0.50 -0.65 -2.05z"/>
  <path d="M59.50 120.05 c-0.70 -0.25 -2 -0.80 -2.90 -1.25 l-1.65 -0.85 0.15 -7.85 0.15 -7.85 4 -0.15 4 -0.15 1.95 2 c2.15 2.20 2.50 4 1.05 5.55 -1.80 1.95 -5.25 0.65 -5.25 -2 0 -1.70 -0.75 -2.35 -1.75 -1.50 -2.35 1.95 0.95 7 4.50 7 2.40 0 4.55 -1.30 5.50 -3.30 1 -2.10 0.95 -3.10 -0.20 -5.30 -0.55 -0.95 -0.85 -1.95 -0.70 -2.10 0.20 -0.15 1.85 -0.30 3.75 -0.30 4.10 0 4.30 0.30 3.15 4.30 -3 10.35 -9.15 15.75 -15.75 13.75z"/>
  <path d="M82.15 117 c-1.25 -0.50 -2.15 -1.95 -2.15 -3.50 0 -1.60 2.25 -3.60 3.90 -3.40 1.35 0.15 1.35 0.20 1.35 3.65 0 3.15 -0.10 3.50 -1 3.60 -0.55 0.05 -1.50 -0.10 -2.10 -0.35z"/>
  <path d="M75 115.20 c0 -0.40 0.70 -2.45 1.55 -4.50 0.85 -2.10 1.85 -4.80 2.15 -6.10 l0.60 -2.35 3 0 2.95 0 0 2.50 c0 2.45 0 2.50 -1.75 2.75 -3.80 0.65 -6 2.95 -6 6.30 0 2 -0.10 2.20 -1.25 2.20 -0.80 0 -1.25 -0.30 -1.25 -0.80z"/>
  <path d="M137.05 106.30 c-0.65 -0.35 -1.50 -1.20 -1.85 -1.85 -2.75 -5 3.80 -10 7.85 -6 4.15 4.15 -0.85 10.70 -6 7.85z"/>
  <path d="M4.85 99.15 c-2.10 -2.10 5.90 -11.40 13.25 -15.40 l2.65 -1.45 15.75 0.15 c8.65 0.05 15.90 0.30 16.10 0.45 0.15 0.20 0.20 4 0.05 8.50 l-0.30 8.10 -10.35 0 -10.40 0 -2.35 -2.60 c-2.95 -3.30 -4.15 -5.65 -3.45 -6.75 0.75 -1.25 2.30 -1.60 4.20 -0.95 1.65 0.55 1.75 0.70 1.60 2.45 -0.15 1.75 -0.05 1.90 1 1.75 0.60 -0.10 1.45 -0.75 1.90 -1.50 0.65 -1.25 0.65 -1.55 0 -2.75 -1.05 -1.90 -3.75 -3.15 -6.65 -3.15 -1.90 0 -2.65 0.25 -3.70 1.30 -1.10 1.10 -1.25 1.60 -1.05 3.70 0.15 1.50 0.85 3.35 1.80 4.95 0.90 1.40 1.60 2.80 1.60 3.05 0 0.55 -21.10 0.70 -21.65 0.15z"/>
  <path d="M55.35 99.15 c-0.45 -0.40 -0.45 -14.80 -0.05 -15.85 0.25 -0.65 1.25 -0.80 5.60 -0.80 l5.25 0 3.55 3.65 c1.95 2 4.55 4.45 5.75 5.45 l2.20 1.85 -0.35 2.65 c-0.20 1.45 -0.55 2.85 -0.75 3.05 -0.20 0.20 -2.95 0.30 -6.05 0.25 l-5.70 -0.15 -1.95 -2.50 c-3.95 -5.10 -4.10 -7.75 -0.45 -7.75 2.60 0 3.90 1 3.15 2.40 -0.75 1.45 -0.70 1.95 0.30 2.35 1.20 0.40 2.65 -1.40 2.65 -3.35 0 -2.15 -1.85 -3.70 -4.90 -4.15 -3.95 -0.55 -6.60 1.20 -6.60 4.35 0 2 1.85 6.25 3.20 7.35 0.45 0.40 0.80 0.85 0.80 1.10 0 0.50 -5.15 0.60 -5.65 0.10z"/>
  <path d="M79.50 98.55 c0 -1.85 0.65 -4.05 1.15 -4.05 0.30 0 1.55 0.35 2.70 0.80 1.95 0.75 2.15 1 2.15 2.50 l0 1.70 -3 0 c-2.60 0 -3 -0.10 -3 -0.95z"/>
  <path d="M90.75 93.35 c-0.15 -0.35 -0.20 -7.80 -0.15 -16.60 l0.15 -16 7.25 0 7.25 0 0.15 3.60 0.15 3.60 -2 1.30 c-2.70 1.70 -3.75 3.75 -3.40 6.95 0.20 2.05 0.50 2.75 2.05 4.15 1.55 1.45 2.10 1.65 4.55 1.65 2.30 0 2.95 -0.20 4.50 -1.55 3.95 -3.50 3 -9.50 -1.80 -11.45 -1.40 -0.60 -1.45 -0.70 -1.45 -4.25 0 -3 0.15 -3.70 0.85 -4 0.95 -0.35 12.50 -0.25 13.50 0.10 0.95 0.35 1.30 4.35 0.70 7.90 -0.85 4.80 -2.30 8.25 -5.20 12.55 -4 5.95 -9.95 10.20 -16.70 11.95 -3.60 0.95 -10.10 1 -10.40 0.10z"/>
  <path d="M85.25 93 c-4 -0.90 -10.40 -5 -13.75 -8.85 l-1.65 -1.85 2.55 -0.80 c2.95 -1 3.90 -1.65 4.90 -3.55 1.75 -3.45 0.25 -8.20 -3.05 -9.80 -1.75 -0.85 -1.75 -0.85 -1.75 -4.25 l0 -3.40 7.75 0 7.75 0 0 15.95 c0 17.30 0 17.15 -2.75 16.55z"/>
  <path d="M56.10 79.55 c-0.55 -0.30 -0.65 -2.45 -0.60 -9.60 0 -5.05 0.25 -9.40 0.50 -9.65 0.25 -0.25 3.35 -0.25 7.20 -0.05 l6.80 0.35 0 3.15 0 3.20 -2.10 1.15 c-3.70 2 -5.05 6.20 -3.25 9.75 0.45 0.85 0.65 1.65 0.50 1.85 -0.45 0.45 -8.30 0.35 -9.05 -0.15z"/>
  <path d="M103.30 78.45 c-1.80 -2.15 -1.75 -4.55 0.15 -6.50 1.95 -1.90 4.35 -1.95 6.50 -0.15 1.30 1.10 1.55 1.65 1.55 3.50 0 3.10 -1.60 4.70 -4.70 4.70 -1.85 0 -2.40 -0.25 -3.50 -1.55z"/>
  <path d="M20.65 78.55 c-7 -2.55 -11.35 -6.15 -14.15 -11.80 -1.55 -3.15 -1.75 -4 -1.90 -8.55 -0.15 -4.70 -0.10 -5.30 1.45 -9.25 1.40 -3.65 2.10 -4.65 5.15 -7.75 3.05 -3.05 4.10 -3.75 7.70 -5.10 l4.20 -1.60 14.30 0 c7.90 0 14.65 0.20 15 0.40 0.50 0.35 0.60 5.15 0.50 22.40 l-0.15 21.95 -10 0 -10 0 0 -7 0 -7 3.20 -0.15 3.20 -0.15 2.85 2.80 c1.55 1.50 2.95 2.60 3.15 2.45 0.65 -0.65 0.40 -12.20 -0.20 -12.20 -0.35 0 -1.70 1 -3 2.25 -2.35 2.20 -2.50 2.25 -5.65 2.25 -3.80 0 -3.95 -0.20 -3.75 -5.10 0.15 -3.75 0.50 -4.55 3.05 -7.10 1.05 -1.05 1.85 -2.20 1.75 -2.50 -0.30 -0.85 -13.10 -0.75 -13.10 0.05 0 0.35 1.15 1.85 2.60 3.30 2.85 3 2.80 2.80 2.70 7.50 l-0.05 3.35 -3.30 0 c-3.25 0 -3.45 -0.10 -6.10 -2.25 -1.50 -1.25 -2.90 -2.10 -3.15 -1.95 -0.25 0.15 -0.45 2.95 -0.45 6.25 0 4.50 0.15 5.95 0.65 5.95 0.35 0 1.75 -1.10 3.10 -2.50 l2.45 -2.50 3.40 0 3.40 0 0 7.25 0 7.25 -3.10 0 c-1.75 -0.05 -4.30 -0.45 -5.75 -0.95z"/>
  <path d="M67.45 78.05 c-3.30 -3.30 -1 -8.55 3.70 -8.55 1.90 0 2.45 0.25 3.55 1.55 2.95 3.45 0.75 8.45 -3.70 8.45 -1.65 0 -2.40 -0.30 -3.55 -1.45z"/>
  <path d="M103.65 57.25 c-1.55 -1.55 -1.75 -2 -1.50 -3.60 0.45 -2.65 2.35 -4.40 4.80 -4.40 4.95 0 6.80 6.80 2.50 9 -2.30 1.20 -3.85 0.95 -5.80 -1z"/>
  <path d="M113.25 58.05 c-0.15 -0.30 -0.05 -0.95 0.25 -1.50 0.85 -1.60 0.55 -4.30 -0.65 -6.10 -3.15 -4.75 -9.50 -4.35 -12.05 0.80 -0.80 1.60 -0.90 2.30 -0.45 4.35 l0.50 2.40 -4.90 0 c-3.45 0 -4.90 -0.20 -5 -0.60 -0.10 -0.35 -0.10 -5.50 0.05 -11.40 l0.25 -10.75 3.25 -0.15 c6.20 -0.30 14.85 3.60 20.10 9 3.70 3.80 7.55 10.60 7.30 12.90 -0.15 1.20 -0.30 1.25 -4.25 1.40 -2.40 0.10 -4.20 -0.05 -4.40 -0.35z"/>
  <path d="M59.65 57.60 l-4.15 -0.15 0 -11.20 0 -11.25 16.20 0 c10.30 0 16.35 0.20 16.55 0.50 0.15 0.30 0.15 5.45 -0.05 11.50 l-0.35 11 -5.10 0 c-2.80 0 -5.20 -0.15 -5.35 -0.30 -0.20 -0.15 0 -1.10 0.45 -2.05 2.15 -5.15 -3.05 -11.20 -8.30 -9.65 -2.40 0.70 -3.90 1.80 -4.85 3.60 -0.75 1.45 -0.80 2.85 -0.10 7.10 0.20 1.15 0.20 1.15 -4.95 0.90z"/>
  <path d="M68.70 57.05 c-1.80 -1.10 -2.90 -3.75 -2.40 -5.75 0.45 -1.75 2.95 -3.80 4.70 -3.80 4.20 0 6.65 3.90 4.90 7.75 -0.65 1.50 -2.75 2.75 -4.50 2.75 -0.65 0 -1.85 -0.45 -2.70 -0.95z"/>
  <path d="M52 32.10 c-4.70 -2.30 -3.40 -8.75 1.95 -9.45 1.80 -0.25 2.20 -0.10 3.80 1.50 1.90 1.90 2.10 3 1 5.65 -0.50 1.15 -1.30 1.95 -2.45 2.45 -2.20 0.95 -2.20 0.95 -4.30 -0.15z"/>
  <path d="M85.90 31.35 c-2.75 -2.55 -2.05 -7.10 1.30 -8.70 5.25 -2.45 10.05 4.20 6 8.40 -1.85 1.95 -5.40 2.05 -7.30 0.30z"/>
 </g>
</svg>
