<?xml version="1.0" encoding="utf-8"?>
<!DOCTYPE svg PUBLIC "-//W3C//DTD SVG 1.0//EN" "http://www.w3.org/TR/2001/REC-SVG-20010904/DTD/svg10.dtd">
<svg version="1.0" xmlns="http://www.w3.org/2000/svg" width="170px" height="76px" viewBox="0 0 170 76" preserveAspectRatio="xMidYMid meet">
 <g fill="#000000">
  <path d="M53.35 74.70 c-0.65 -0.65 -0.35 -1.10 3.15 -5.40 2.35 -2.80 3.50 -4.65 3.50 -5.50 0 -1.20 -0.15 -1.30 -2.20 -1.30 -2.05 0 -2.40 0.20 -5.10 3 -1.60 1.65 -3.20 3 -3.55 3 -0.55 0 -0.65 -1.65 -0.55 -8.60 0.20 -10.25 0.55 -10.85 3.60 -5.65 l1.90 3.25 2.95 0 2.95 0 0 -3.95 0 -3.90 -7.75 -0.40 c-5.80 -0.25 -8 -0.20 -8.50 0.25 -0.50 0.40 -0.75 1.60 -0.75 3.45 0 5.40 -1.75 8.70 -5.75 10.90 -2.10 1.15 -3.25 1.40 -7.10 1.55 -4.05 0.20 -4.85 0.10 -7.30 -1.05 -4.40 -2 -6.85 -6.30 -6.85 -12.05 l0 -3.15 -4.35 -0.35 c-7.55 -0.60 -10.65 -3.55 -10.65 -10.10 0 -7.90 2.75 -10.70 10.35 -10.70 2.15 0 4.15 -0.20 4.50 -0.40 0.40 -0.25 0.60 -2.15 0.65 -5.60 0.10 -6.85 0.10 -6.50 -0.80 -6.50 -1.80 0 -4.70 -2.20 -5.75 -4.35 -3.15 -6.45 3.95 -12.85 10.40 -9.50 2.35 1.25 3.85 4.40 3.50 7.35 l-0.30 2.35 23.60 0.35 c13 0.15 30.25 0.35 38.35 0.35 l14.75 0.05 0.25 -2.70 c0.15 -1.50 0.65 -3.30 1.15 -4.05 2.10 -3.20 6.55 -4.30 9.75 -2.35 6.70 4.10 3.30 14.20 -4.45 13.25 l-2.35 -0.25 -0.20 14.60 c-0.15 8.75 -0.05 14.90 0.25 15.30 0.35 0.45 2.55 0.60 7.85 0.60 l7.40 0 0.30 -1.55 c0.45 -2.35 0.35 -6.70 -0.15 -8.10 -0.30 -0.70 -0.95 -1.40 -1.55 -1.60 -0.75 -0.25 -1 -0.70 -0.90 -1.40 0.15 -1.05 0.40 -1.10 4.40 -1.10 3.95 0 4.25 0.10 4.40 1.05 0.10 0.70 -0.30 1.35 -1.10 1.90 -1.25 0.80 -1.30 1 -1.30 5.85 l0 5 3.90 -0.15 3.85 -0.15 0.25 -6.75 c0.25 -6.25 0.35 -6.95 1.65 -9.10 1.95 -3.30 2.95 -3.90 6.90 -3.90 2.70 0 3.85 0.25 6 1.40 4.95 2.60 5.80 5.45 4.20 14.35 -1.50 8.20 -0.45 16.80 2.05 17.15 1.10 0.15 1.10 0.20 2.95 -5.15 0.75 -2.10 3 -5.95 4.95 -8.50 0.30 -0.40 -0.05 -1.30 -0.90 -2.55 -1.30 -1.90 -1.75 -4.20 -0.85 -4.20 0.25 0 1.15 0.70 1.95 1.50 1.40 1.35 1.85 1.50 4.80 1.50 1.75 0 3.40 0.20 3.55 0.50 0.15 0.25 -0.30 1.95 -1 3.75 -1.20 2.95 -1.30 3.50 -0.80 5.85 0.65 2.95 0.25 3.80 -1.40 2.90 -1.30 -0.65 -3.05 -3.35 -3.05 -4.65 0 -1.40 -1.45 -0.85 -3.10 1.20 -1.10 1.35 -1.60 2.70 -1.95 5.25 -0.75 5 -1.05 5.85 -2.55 6.65 -1.20 0.70 -1.55 0.65 -3.70 -0.20 -3.50 -1.50 -4.20 -2.75 -4.55 -8.20 -0.25 -3.95 -0.40 -4.55 -1.10 -4.30 -3.30 1.30 -6.35 0.40 -8.05 -2.40 -1.20 -1.90 -1.25 -3.30 -0.30 -5.60 1.20 -2.80 4.70 -3.90 8.80 -2.70 0.50 0.15 0.80 -0.25 0.90 -1.25 0.60 -5.20 -2 -9.30 -5.90 -9.30 -2.80 0 -3.90 0.70 -5.05 3.15 -0.80 1.85 -0.95 3.40 -0.95 13.35 0 15.35 -0.95 18.60 -6.20 21.25 -2.10 1.05 -3.20 1.25 -6.75 1.25 -5.35 0 -7.55 -0.60 -9.90 -2.65 -2.95 -2.60 -4.15 -5.80 -4.15 -11.25 l0 -4.65 -2.10 0.15 -2.15 0.15 -0.30 4.75 c-0.30 5.30 -1.35 8 -3.95 10.15 -2.05 1.75 -4.45 2.35 -9.55 2.35 -8.65 0 -12.20 -3.65 -12.85 -13.10 l-0.35 -4.65 -6.85 -0.15 -6.90 -0.15 0 4.05 0 4 1.95 0 c1.80 0 2.20 -0.25 4.40 -2.95 1.30 -1.65 2.80 -3 3.30 -3 0.75 -0.05 0.85 0.45 0.85 3.35 0 6.25 -0.60 12.60 -1.20 12.60 -0.35 0 -1.70 -1.10 -3.05 -2.50 -2.10 -2.15 -2.75 -2.50 -4.35 -2.50 -2.80 0 -2.50 1.35 1.40 6.35 1.85 2.35 3.35 4.60 3.40 5.05 0.05 0.75 -0.90 0.85 -8.25 1 -4.55 0.05 -8.40 -0.05 -8.60 -0.20z m43.50 -11.50 c2.90 -2.15 3.65 -3.95 3.65 -8.75 l0 -4.40 -2.60 -0.30 c-1.45 -0.15 -5.80 -0.25 -9.65 -0.15 l-7 0.15 -0.15 4.55 c-0.10 4 0 4.70 1 6.25 0.65 0.90 2.15 2.20 3.40 2.85 3 1.55 9.15 1.45 11.35 -0.20z m28.95 0.75 c4.10 -1.05 6.40 -5.10 6.10 -10.85 l-0.15 -2.85 -3.70 -0.15 c-3.85 -0.15 -4.55 0.15 -4.55 2.05 0 0.55 0.70 1.60 1.55 2.40 2.45 2.30 1.75 2.95 -3.30 2.95 -4.10 0 -4.25 -0.05 -4.25 -1.15 0 -0.65 0.45 -1.30 1.10 -1.60 1.15 -0.50 2.05 -2.80 1.55 -4.05 -0.20 -0.50 -1.25 -0.70 -4.20 -0.70 l-3.95 0 0 3.65 c0 5.65 2.35 9.35 6.55 10.35 2.50 0.60 4.75 0.55 7.25 -0.05z m-90.60 -3.60 c2.60 -1.45 3.85 -4 3.95 -7.95 l0.10 -3.15 -9.70 -0.15 -9.70 -0.10 0.25 3.45 c0.30 4.30 1.45 6.35 4.35 7.90 3.05 1.60 8 1.60 10.75 0z m109.70 -12.65 c0.75 -0.50 1.10 -1.25 1.10 -2.40 0 -2 -0.75 -2.80 -2.70 -2.80 -2.95 0 -4.35 2.95 -2.30 5 1.20 1.20 2.40 1.25 3.90 0.20z m-67.25 -7.70 c0.55 -8.70 1.10 -8.05 -7.05 -7.90 l-6.85 0.15 -0.15 6.20 c-0.05 3.45 0 6.55 0.10 6.90 0.20 0.55 1.75 0.65 6.90 0.55 l6.65 -0.15 0.40 -5.75z m23.05 -8.80 c0.15 -8.20 0.20 -14.95 0.05 -15.10 -0.10 -0.15 -4.40 -0.35 -9.50 -0.50 -7.55 -0.20 -9.30 -0.10 -9.50 0.45 -0.10 0.40 -0.30 3.30 -0.35 6.45 l-0.15 5.75 1.80 0.15 c2.40 0.20 3.80 -1.05 4.95 -4.40 1.65 -4.95 2.05 -3.80 1.90 5.80 -0.10 6.40 -0.30 8.90 -0.75 9.05 -0.40 0.15 -0.85 -0.65 -1.20 -2.05 -0.80 -3.30 -2.45 -4.90 -4.85 -4.70 l-1.85 0.15 -0.15 6.20 c-0.05 3.45 0 6.55 0.10 6.90 0.20 0.50 2.40 0.65 9.70 0.65 l9.45 0 0.35 -14.80z m-61.10 8.05 c0.15 -3.30 0.20 -6.40 0.05 -6.90 -0.20 -0.80 -1 -0.85 -9.80 -0.75 l-9.60 0.15 -0.15 6.45 c-0.10 4.85 0.05 6.60 0.50 6.90 0.35 0.20 4.70 0.35 9.65 0.25 l9 -0.10 0.35 -6z m20.50 3.40 c0.05 -1.60 0.10 -4.60 0.10 -6.65 l0.05 -3.75 -4.50 -0.40 c-2.45 -0.20 -6.20 -0.30 -8.25 -0.25 l-3.75 0.15 -0.15 6.90 -0.15 6.85 8.30 0 8.25 0 0.10 -2.85z m-43.60 -4.40 l0 -6.75 -3.80 0 c-6.20 0 -8 1.80 -7.60 7.50 0.15 2.25 0.50 3.30 1.35 4.20 1.35 1.45 2.10 1.65 6.70 1.75 l3.35 0.05 0 -6.75z m43.40 -10.40 c0.40 -0.30 0.60 -2.25 0.60 -6.35 l0 -5.90 -7.85 -0.20 c-4.35 -0.15 -8.20 -0.15 -8.50 0 -0.50 0.15 -0.65 1.90 -0.65 6.40 l0 6.15 6.40 0.15 c3.50 0.10 7.05 0.20 7.85 0.20 0.85 0.05 1.80 -0.15 2.15 -0.45z m17.85 -5.85 l0 -6.25 -6.85 -0.15 -6.90 -0.15 0 6.20 c0 3.40 0.15 6.35 0.35 6.55 0.20 0.15 3.30 0.25 6.85 0.20 l6.55 -0.15 0 -6.25z m-38 -0.50 l0 -6.25 -9.55 -0.15 -9.55 -0.10 -0.35 5.80 c-0.20 4.10 -0.15 6.05 0.25 6.55 0.50 0.55 2.45 0.65 9.90 0.55 l9.30 -0.15 0 -6.25z m70.80 -9.45 c3.45 -3.50 -0.10 -8.55 -4.80 -6.75 -0.95 0.40 -2.25 2.75 -2.25 4.20 0 1.55 2.65 4 4.25 4 0.80 0 1.90 -0.60 2.80 -1.45z m-91.55 -0.55 c1.25 -0.65 2.05 -3.25 1.50 -4.70 -0.70 -1.90 -1.95 -2.80 -3.90 -2.80 -3.65 0 -5.50 4.20 -3 6.85 1.15 1.25 3.70 1.55 5.40 0.65z"/>
 </g>
 <g fill="none">
  <path d="M0 38 l0 -38 85 0 85 0 0 38 0 38 -85 0 -85 0 0 -38z m70.20 35.90 c-0.05 -0.45 -1.55 -2.70 -3.40 -5.05 -3.90 -5 -4.20 -6.35 -1.40 -6.35 1.60 0 2.25 0.35 4.35 2.50 1.35 1.40 2.70 2.50 3.05 2.50 0.60 0 1.20 -6.35 1.20 -12.60 0 -2.90 -0.10 -3.40 -0.85 -3.35 -0.50 0 -2 1.35 -3.30 3 -2.20 2.70 -2.60 2.95 -4.40 2.95 l-1.95 0 0 -4 0 -4.05 6.90 0.15 6.85 0.15 0.35 4.65 c0.45 6.55 2.05 9.80 5.85 11.75 2.35 1.15 3.35 1.35 7 1.35 5.10 0 7.50 -0.60 9.55 -2.35 2.60 -2.15 3.65 -4.85 3.95 -10.15 l0.30 -4.75 2.15 -0.15 2.10 -0.15 0 4.65 c0 5.45 1.20 8.65 4.15 11.25 2.35 2.05 4.55 2.65 9.90 2.65 7.05 0 10.70 -2.55 12.30 -8.65 0.45 -1.75 0.65 -6.05 0.65 -13.85 0 -9.95 0.15 -11.50 0.95 -13.35 1.15 -2.45 2.25 -3.15 5.05 -3.15 3.90 0 6.50 4.10 5.90 9.30 -0.10 1 -0.40 1.40 -0.90 1.25 -4.10 -1.20 -7.60 -0.10 -8.80 2.70 -0.95 2.30 -0.90 3.70 0.30 5.60 1.70 2.80 4.75 3.70 8.05 2.40 0.70 -0.25 0.85 0.35 1.10 4.30 0.35 5.45 1.05 6.70 4.55 8.20 2.15 0.85 2.50 0.90 3.70 0.20 1.50 -0.80 1.80 -1.65 2.55 -6.65 0.35 -2.55 0.85 -3.90 1.95 -5.25 1.65 -2.05 3.10 -2.60 3.10 -1.20 0 1.30 1.75 4 3.05 4.65 1.65 0.90 2.05 0.05 1.40 -2.90 -0.50 -2.35 -0.40 -2.90 0.80 -5.85 0.70 -1.80 1.15 -3.50 1 -3.75 -0.15 -0.30 -1.80 -0.50 -3.55 -0.50 -2.95 0 -3.40 -0.15 -4.80 -1.50 -0.80 -0.80 -1.70 -1.50 -1.95 -1.50 -0.90 0 -0.45 2.30 0.85 4.20 0.85 1.25 1.20 2.15 0.90 2.55 -1.95 2.55 -4.20 6.40 -4.95 8.50 -1.85 5.35 -1.85 5.30 -2.95 5.15 -2.50 -0.35 -3.55 -8.95 -2.05 -17.15 1.60 -8.90 0.75 -11.75 -4.20 -14.35 -2.15 -1.15 -3.30 -1.40 -6 -1.40 -3.95 0 -4.95 0.60 -6.90 3.90 -1.30 2.15 -1.40 2.85 -1.65 9.10 l-0.25 6.75 -3.85 0.15 -3.90 0.15 0 -5 c0 -4.85 0.05 -5.05 1.30 -5.85 0.80 -0.55 1.20 -1.20 1.10 -1.90 -0.15 -0.95 -0.45 -1.05 -4.40 -1.05 -4 0 -4.25 0.05 -4.40 1.10 -0.10 0.70 0.15 1.15 0.90 1.40 0.60 0.20 1.25 0.90 1.55 1.60 0.50 1.40 0.60 5.75 0.15 8.10 l-0.30 1.55 -7.40 0 c-5.30 0 -7.50 -0.15 -7.85 -0.60 -0.30 -0.40 -0.40 -6.55 -0.25 -15.30 l0.20 -14.60 2.35 0.25 c7.75 0.95 11.15 -9.15 4.45 -13.25 -3.20 -1.95 -7.65 -0.85 -9.75 2.35 -0.50 0.75 -1 2.55 -1.15 4.05 l-0.25 2.70 -14.75 -0.05 c-8.10 0 -25.35 -0.20 -38.35 -0.35 l-23.60 -0.35 0.30 -2.35 c0.90 -7.80 -8.70 -11.35 -13.45 -4.95 -2.40 3.20 -1.15 8.30 2.55 10.35 1.05 0.60 2.30 1.10 2.75 1.10 0.90 0 0.90 -0.35 0.80 6.50 -0.05 3.45 -0.25 5.35 -0.65 5.60 -0.35 0.20 -2.35 0.40 -4.50 0.40 -7.60 0 -10.35 2.80 -10.35 10.70 0 6.55 3.10 9.50 10.65 10.10 l4.35 0.35 0 3.15 c0 5.75 2.45 10.05 6.85 12.05 2.45 1.15 3.25 1.25 7.30 1.05 3.85 -0.15 5 -0.40 7.10 -1.55 4 -2.20 5.75 -5.50 5.75 -10.90 0 -1.85 0.25 -3.05 0.75 -3.45 0.50 -0.45 2.70 -0.50 8.50 -0.25 l7.75 0.40 0 3.90 0 3.95 -2.95 0 -2.95 0 -1.90 -3.25 c-3.05 -5.20 -3.40 -4.60 -3.60 5.65 -0.10 6.95 0 8.60 0.55 8.60 0.35 0 1.95 -1.35 3.55 -3 2.70 -2.80 3.05 -3 5.10 -3 2.05 0 2.20 0.10 2.20 1.30 0 0.85 -1.15 2.70 -3.50 5.50 -1.90 2.35 -3.50 4.45 -3.50 4.65 0 0.95 1.20 1.05 8.95 0.95 7.35 -0.15 8.30 -0.25 8.25 -1z"/>
  <path d="M85.50 63.40 c-1.25 -0.65 -2.75 -1.95 -3.40 -2.85 -1 -1.55 -1.10 -2.25 -1 -6.25 l0.15 -4.55 7 -0.15 c3.85 -0.10 8.20 0 9.65 0.15 l2.60 0.30 0 4.40 c0 4.80 -0.75 6.60 -3.65 8.75 -2.20 1.65 -8.35 1.75 -11.35 0.20z"/>
  <path d="M118.55 64 c-4.20 -1 -6.55 -4.70 -6.55 -10.35 l0 -3.65 3.95 0 c2.95 0 4 0.20 4.20 0.70 0.50 1.25 -0.40 3.55 -1.55 4.05 -0.65 0.30 -1.10 0.95 -1.10 1.60 0 1.10 0.15 1.15 4.25 1.15 5.05 0 5.75 -0.65 3.30 -2.95 -0.85 -0.80 -1.55 -1.85 -1.55 -2.40 0 -1.90 0.70 -2.20 4.55 -2.05 l3.70 0.15 0.15 2.85 c0.45 8.55 -4.90 12.90 -13.35 10.90z"/>
  <path d="M24.45 60.35 c-2.90 -1.55 -4.05 -3.60 -4.35 -7.90 l-0.25 -3.45 9.70 0.10 9.70 0.15 -0.10 3.15 c-0.15 6.15 -3.15 9.10 -9.20 9.10 -2.50 0 -3.85 -0.30 -5.50 -1.15z"/>
  <path d="M141 47.50 c-2.05 -2.05 -0.65 -5 2.30 -5 1.95 0 2.70 0.80 2.70 2.80 0 2.80 -3.05 4.15 -5 2.20z"/>
  <path d="M63.70 45.35 c-0.10 -0.35 -0.15 -3.45 -0.10 -6.90 l0.15 -6.20 6.85 -0.15 c8.15 -0.15 7.60 -0.80 7.05 7.90 l-0.40 5.75 -6.65 0.15 c-5.15 0.10 -6.70 0 -6.90 -0.55z"/>
  <path d="M81.20 45.35 c-0.10 -0.35 -0.15 -3.45 -0.10 -6.90 l0.15 -6.20 1.85 -0.15 c2.40 -0.20 4.05 1.40 4.85 4.70 0.35 1.40 0.80 2.20 1.20 2.05 0.45 -0.15 0.65 -2.65 0.75 -9.05 0.15 -9.60 -0.25 -10.75 -1.90 -5.80 -1.15 3.35 -2.55 4.60 -4.95 4.40 l-1.80 -0.15 0.15 -5.75 c0.05 -3.15 0.25 -6.05 0.35 -6.45 0.20 -0.55 1.95 -0.65 9.50 -0.45 5.10 0.15 9.40 0.35 9.50 0.50 0.15 0.15 0.10 6.90 -0.05 15.10 l-0.35 14.80 -9.45 0 c-7.30 0 -9.50 -0.15 -9.70 -0.65z"/>
  <path d="M20.60 45.10 c-0.45 -0.30 -0.60 -2.05 -0.50 -6.90 l0.15 -6.45 9.60 -0.15 c8.80 -0.10 9.60 -0.05 9.80 0.75 0.15 0.50 0.10 3.60 -0.05 6.90 l-0.35 6 -9 0.10 c-4.95 0.10 -9.30 -0.05 -9.65 -0.25z"/>
  <path d="M43.60 38.65 l0.15 -6.90 3.75 -0.15 c2.05 -0.05 5.80 0.05 8.25 0.25 l4.50 0.40 -0.05 3.75 c0 2.05 -0.05 5.05 -0.10 6.65 l-0.10 2.85 -8.25 0 -8.30 0 0.15 -6.85z"/>
  <path d="M8.70 44.65 c-2.10 -0.40 -3.35 -2.45 -3.60 -5.65 -0.40 -5.70 1.40 -7.50 7.60 -7.50 l3.80 0 0 6.75 0 6.75 -3.35 -0.05 c-1.90 -0.05 -3.90 -0.20 -4.45 -0.30z"/>
  <path d="M49.90 28.10 l-6.40 -0.15 0 -6.15 c0 -4.50 0.15 -6.25 0.65 -6.40 0.30 -0.15 4.15 -0.15 8.50 0 l7.85 0.20 0 5.90 c0 6.40 -0.20 6.90 -2.75 6.80 -0.80 0 -4.35 -0.10 -7.85 -0.20z"/>
  <path d="M64.35 28.20 c-0.20 -0.20 -0.35 -3.15 -0.35 -6.55 l0 -6.20 6.90 0.15 6.85 0.15 0 6.25 0 6.25 -6.55 0.15 c-3.55 0.05 -6.65 -0.05 -6.85 -0.20z"/>
  <path d="M20.55 27.35 c-0.40 -0.50 -0.45 -2.45 -0.25 -6.55 l0.35 -5.80 9.55 0.10 9.55 0.15 0 6.25 0 6.25 -9.30 0.15 c-7.45 0.10 -9.40 0 -9.90 -0.55z"/>
  <path d="M104.95 12.05 c-1.60 -1.65 -1.80 -2.90 -0.70 -5 1.85 -3.65 7.75 -2.15 7.75 1.95 0 2 -2.35 4.50 -4.25 4.50 -0.80 0 -1.90 -0.60 -2.80 -1.45z"/>
  <path d="M13.60 10.85 c-2.50 -2.65 -0.65 -6.85 3 -6.85 2.95 0 4.80 2.65 3.85 5.50 -0.65 1.80 -1.80 2.50 -4.10 2.50 -1.10 0 -2.05 -0.40 -2.75 -1.15z"/>
 </g>
</svg>
