<?xml version="1.0" encoding="utf-8"?>
<!DOCTYPE svg PUBLIC "-//W3C//DTD SVG 1.0//EN" "http://www.w3.org/TR/2001/REC-SVG-20010904/DTD/svg10.dtd">
<svg version="1.0" xmlns="http://www.w3.org/2000/svg" width="166px" height="115px" viewBox="0 0 166 115" preserveAspectRatio="xMidYMid meet">
 <g fill="#000000">
  <path d="M115.75 113.50 c-6.35 -1.35 -8.85 -8.65 -4.60 -13.30 0.90 -0.95 2.50 -2.05 3.60 -2.40 l2 -0.70 0 -10.45 0 -10.40 -5.50 -0.30 c-3 -0.20 -15.60 -0.40 -28 -0.50 -29.40 -0.25 -34.35 -0.40 -33.95 -1 0.15 -0.30 1.50 -1.30 3 -2.25 1.50 -0.95 2.70 -2.05 2.70 -2.45 0 -0.90 -12.60 -26.25 -13.05 -26.25 -0.30 0 -6.90 9.10 -16.60 23 -3 4.25 -5.80 8.05 -6.25 8.40 -0.50 0.35 -2.50 0.60 -5.50 0.60 l-4.70 0 -2 -2 c-1.85 -1.80 -2 -2.15 -1.80 -4.10 0.15 -1.20 0.40 -2.55 0.60 -3 0.35 -0.75 0.15 -0.90 -0.90 -0.90 -1.95 0 -3.80 -2.05 -3.80 -4.25 0 -2.05 0.60 -3.45 2.30 -5.30 l1.20 -1.25 -1.50 -1.45 c-2 -1.90 -1.90 -3.05 0.50 -5.25 2 -1.85 2 -1.85 1 -2.75 -1.40 -1.30 -1.25 -2.70 0.50 -4.50 l1.55 -1.60 -1.80 -1.35 c-0.95 -0.75 -1.75 -1.65 -1.75 -1.95 0 -0.35 0.70 -1.45 1.55 -2.50 l1.55 -1.90 -1.05 -1.15 c-1.30 -1.40 -1.35 -2.30 -0.05 -3.90 0.95 -1.25 0.95 -1.30 0 -2.40 -1.25 -1.45 -1.25 -2.05 0.05 -3.70 l1.10 -1.35 -1.10 -0.75 c-1.40 -1 -1.35 -2.80 0.15 -4.60 0.80 -0.90 1.15 -1.80 1 -2.50 -0.40 -1.45 1.15 -3.85 3.50 -5.50 2.35 -1.60 5.70 -1.80 7.30 -0.35 2.20 2 0.45 4.55 -4.75 7.05 -3.85 1.80 -5.05 2.80 -4.50 3.70 0.45 0.70 2.05 0.60 4.95 -0.25 1.85 -0.55 2.60 -0.60 3.15 -0.15 0.90 0.75 0.40 1.25 -3.50 3.20 -1.75 0.85 -3.15 1.95 -3.25 2.45 -0.20 1 0.55 0.90 4.35 -0.50 1.50 -0.55 2.35 -0.65 2.70 -0.30 0.75 0.75 -0.25 1.70 -3.90 3.55 -3.65 1.85 -5 3.10 -4.60 4.25 0.40 0.95 1.95 0.95 4.60 0 2.25 -0.85 4.25 -0.95 4.25 -0.30 0 0.25 -1.55 1.35 -3.45 2.50 -5 2.95 -6.70 4.50 -6 5.35 0.75 0.90 3.35 0.90 6.20 -0.05 1.25 -0.45 2.50 -0.65 2.75 -0.50 1 0.65 -0.30 1.90 -3.95 3.70 -7.15 3.65 -7.20 5.30 -0.10 4.75 5.55 -0.45 5.25 0.25 -1.50 3.50 -5.35 2.60 -6.40 3.75 -4.50 4.80 0.80 0.40 1.80 0.30 4.30 -0.35 1.75 -0.45 3.35 -0.70 3.55 -0.50 0.75 0.75 -0.45 1.90 -3.70 3.55 -4.90 2.45 -7.20 5.50 -5.50 7.20 0.90 0.90 2.15 0.75 4.90 -0.65 4.75 -2.40 5.25 -1.40 1.30 2.75 -1.50 1.60 -2.90 3.45 -3.10 4.20 -0.65 2.75 2.60 5.30 6.85 5.30 1.70 0 2.35 -0.30 3.65 -1.65 1.40 -1.50 9.20 -12.35 19.05 -26.40 l3.45 -4.95 -6.95 -14.05 -7 -14.10 -3.35 -2.70 c-1.90 -1.50 -3.25 -2.95 -3.10 -3.20 0.40 -0.65 14.05 -0.55 14.50 0.10 0.15 0.30 -0.85 1.75 -2.30 3.20 -1.40 1.45 -2.50 2.95 -2.40 3.30 0.15 0.65 7.20 14.25 10.70 20.70 0.90 1.65 1.85 3 2.10 3 0.25 0 6.05 -7.75 12.80 -17.25 6.80 -9.50 12.60 -17.25 12.95 -17.25 0.45 0 0.55 7.55 0.40 32.95 -0.15 22.35 -0.05 32.85 0.30 32.75 0.90 -0.35 21.15 -26.15 21.15 -26.95 0 -0.40 -1.85 -2.55 -4.10 -4.85 l-4.05 -4.10 -3.30 0.25 c-4.15 0.35 -6.15 -0.75 -7.65 -4.10 -2.15 -4.95 1.10 -9.70 6.70 -9.70 4.55 0 7.25 3.20 6.75 8 l-0.30 2.80 4.20 4.20 c3.25 3.25 4.45 4.10 4.95 3.75 0.65 -0.45 8.55 -10.35 22.25 -27.85 2.10 -2.65 4.10 -4.85 4.50 -4.90 0.55 0 0.65 5.45 0.50 33.90 l-0.20 33.85 14.70 0.15 c8.10 0.05 14.90 -0.05 15.10 -0.25 0.20 -0.25 0.45 -9.50 0.55 -20.65 l0.15 -20.25 -3.45 -0.15 c-3.20 -0.15 -3.60 -0.05 -5.40 1.40 -3.10 2.50 -3.60 2.05 -3.80 -3.20 -0.15 -4.15 0.25 -5.80 1.40 -5.80 0.25 0 1.35 0.80 2.55 1.75 2 1.70 2.25 1.80 5.40 1.65 l3.30 -0.15 0.15 -2.20 c0.20 -2.45 -0.90 -4.40 -4.40 -7.75 -1.10 -1.10 -1.95 -2.20 -1.85 -2.50 0.20 -0.60 12.20 -1.05 14.25 -0.55 1.50 0.35 1.40 1.30 -0.40 3 -3 2.90 -4.05 4.95 -3.90 7.55 l0.15 2.45 2.45 0.15 c2.15 0.15 2.60 0 4.10 -1.45 0.90 -0.85 1.85 -1.40 2.15 -1.25 0.35 0.25 0.55 2.45 0.55 5.85 0 6.25 -0.55 6.90 -2.80 3.45 -1.40 -2.10 -2.60 -2.70 -5 -2.40 l-1.45 0.15 -0.25 21.75 c-0.15 11.95 -0.45 22.05 -0.65 22.40 -0.30 0.45 -4.30 0.60 -17.15 0.60 l-16.70 0 0 10.90 0 10.85 1.45 1 c2.10 1.35 3.55 4.20 3.55 6.85 0 4.85 -5.05 8.90 -9.75 7.90z m4.80 -4.45 c3.95 -4 -0.50 -10.40 -5.45 -7.85 -1.90 1 -2.60 2.20 -2.60 4.40 0 4.35 5 6.50 8.05 3.45z m-55.05 -41.15 c0 -2.85 0.15 -16.95 0.35 -31.35 0.25 -21.50 0.20 -26.15 -0.35 -25.95 -1 0.30 -20.95 28.50 -20.95 29.65 0 0.55 0.90 2.70 2 4.75 1.10 2.05 4.40 8.35 7.30 14 2.90 5.65 5.85 10.75 6.60 11.35 1.30 1.15 3.95 2.60 4.70 2.65 0.20 0 0.35 -2.30 0.35 -5.10z m51.20 4.20 c0.15 -0.25 0.40 -13.40 0.60 -29.25 0.25 -20.40 0.20 -28.85 -0.20 -28.85 -0.50 0 -20.40 24.90 -20.90 26.20 -0.15 0.40 0.90 1.65 2.50 3 2.30 2 2.90 2.30 3.75 1.85 2.55 -1.40 7 0.35 8.50 3.40 1.40 2.65 1.30 4.75 -0.20 7.35 -2.25 3.80 -7.35 4.75 -10.65 1.95 -2.10 -1.75 -2.80 -3.75 -2.45 -7.20 0.25 -2.90 0.20 -3 -1.60 -4.75 -1 -1 -2.15 -1.80 -2.55 -1.80 -0.40 0.05 -2.30 2.10 -4.25 4.60 -1.90 2.45 -6.60 8.40 -10.40 13.20 -3.75 4.80 -6.90 9 -7 9.35 -0.05 0.45 3.85 0.65 17.40 0.85 9.65 0.15 19.70 0.30 22.35 0.35 2.65 0.05 4.95 -0.05 5.10 -0.25z m-9.20 -17.95 c1.85 -2.35 0.20 -5.65 -2.85 -5.65 -3.10 0 -4.70 3.25 -2.85 5.90 1.15 1.65 4.30 1.55 5.70 -0.25z m-27 -26.15 c0.60 -0.60 1 -1.65 1 -2.65 0 -3.85 -5.35 -5.05 -6.95 -1.50 -0.80 1.70 -0.70 2.35 0.50 3.85 1.30 1.65 3.95 1.80 5.45 0.30z m-67.60 -18.50 c2.65 -1.20 2.75 -2.65 0.20 -2.90 -1.25 -0.15 -1.95 0.15 -3.15 1.35 -2.50 2.55 -0.95 3.35 2.95 1.55z"/>
 </g>
 <g fill="none">
  <path d="M0 57.50 l0 -57.50 83 0 83 0 0 57.50 0 57.50 -83 0 -83 0 0 -57.50z m121.95 54.60 c0.70 -0.50 1.80 -1.70 2.45 -2.60 2.15 -3.20 1 -8.50 -2.45 -10.75 l-1.45 -1 0 -10.85 0 -10.90 16.70 0 c12.85 0 16.85 -0.15 17.15 -0.60 0.20 -0.35 0.50 -10.45 0.65 -22.40 l0.25 -21.75 1.45 -0.15 c2.40 -0.30 3.60 0.30 5 2.40 2.25 3.45 2.80 2.80 2.80 -3.45 0 -3.40 -0.20 -5.60 -0.55 -5.85 -0.30 -0.15 -1.25 0.40 -2.15 1.25 -1.50 1.45 -1.95 1.60 -4.10 1.45 l-2.45 -0.15 -0.15 -2.45 c-0.15 -2.60 0.90 -4.65 3.90 -7.55 1.80 -1.70 1.90 -2.65 0.40 -3 -2.05 -0.50 -14.05 -0.05 -14.25 0.55 -0.10 0.30 0.75 1.40 1.85 2.50 3.50 3.35 4.60 5.30 4.40 7.75 l-0.15 2.20 -3.30 0.15 c-3.15 0.15 -3.40 0.05 -5.40 -1.65 -1.20 -0.95 -2.30 -1.75 -2.55 -1.75 -1.15 0 -1.55 1.65 -1.40 5.80 0.20 5.25 0.70 5.70 3.80 3.20 1.80 -1.45 2.20 -1.55 5.40 -1.40 l3.45 0.15 -0.15 20.25 c-0.10 11.15 -0.35 20.40 -0.55 20.65 -0.20 0.20 -7 0.30 -15.10 0.25 l-14.70 -0.15 0.20 -33.85 c0.15 -28.45 0.05 -33.90 -0.50 -33.90 -0.40 0.05 -2.40 2.25 -4.50 4.90 -13.70 17.50 -21.60 27.40 -22.25 27.85 -0.50 0.35 -1.70 -0.50 -4.95 -3.75 l-4.20 -4.20 0.30 -2.80 c0.50 -4.80 -2.20 -8 -6.75 -8 -5.60 0 -8.85 4.75 -6.70 9.70 1.50 3.35 3.50 4.45 7.65 4.10 l3.30 -0.25 4.05 4.10 c2.25 2.30 4.10 4.45 4.10 4.85 0 0.80 -20.25 26.60 -21.15 26.95 -0.35 0.10 -0.45 -10.40 -0.30 -32.75 0.15 -25.40 0.05 -32.95 -0.40 -32.95 -0.35 0 -6.15 7.75 -12.95 17.25 -6.75 9.50 -12.55 17.25 -12.80 17.25 -0.25 0 -1.20 -1.35 -2.10 -3 -3.50 -6.45 -10.55 -20.05 -10.70 -20.70 -0.10 -0.35 1 -1.85 2.40 -3.30 1.45 -1.45 2.45 -2.90 2.30 -3.20 -0.45 -0.65 -14.10 -0.75 -14.50 -0.10 -0.15 0.25 1.20 1.70 3.10 3.20 l3.35 2.70 7 14.10 6.95 14.05 -3.45 4.95 c-9.85 14.05 -17.65 24.90 -19.05 26.40 -1.30 1.35 -1.95 1.65 -3.65 1.65 -4.25 0 -7.50 -2.55 -6.85 -5.30 0.20 -0.75 1.60 -2.60 3.10 -4.20 3.95 -4.15 3.45 -5.15 -1.30 -2.75 -2.75 1.40 -4 1.55 -4.90 0.65 -1.70 -1.70 0.60 -4.75 5.50 -7.20 3.25 -1.65 4.45 -2.80 3.70 -3.55 -0.20 -0.20 -1.80 0.05 -3.55 0.50 -2.50 0.65 -3.50 0.75 -4.30 0.35 -1.90 -1.05 -0.85 -2.20 4.50 -4.80 6.75 -3.25 7.05 -3.95 1.50 -3.50 -7.10 0.55 -7.05 -1.10 0.10 -4.75 3.65 -1.80 4.95 -3.05 3.95 -3.70 -0.25 -0.15 -1.50 0.05 -2.75 0.50 -2.85 0.95 -5.45 0.95 -6.20 0.05 -0.70 -0.85 1 -2.40 6 -5.35 1.90 -1.15 3.45 -2.25 3.45 -2.50 0 -0.65 -2 -0.55 -4.25 0.30 -2.65 0.95 -4.20 0.95 -4.60 0 -0.40 -1.15 0.95 -2.40 4.60 -4.25 3.65 -1.85 4.65 -2.80 3.90 -3.55 -0.35 -0.35 -1.20 -0.25 -2.70 0.30 -3.80 1.40 -4.55 1.50 -4.35 0.50 0.10 -0.50 1.50 -1.60 3.25 -2.45 3.90 -1.95 4.40 -2.45 3.50 -3.20 -0.55 -0.45 -1.30 -0.40 -3.15 0.15 -2.90 0.85 -4.50 0.95 -4.95 0.25 -0.55 -0.90 0.65 -1.90 4.50 -3.70 5.20 -2.50 6.95 -5.05 4.75 -7.05 -1.60 -1.45 -4.95 -1.25 -7.30 0.35 -2.35 1.65 -3.90 4.05 -3.50 5.50 0.15 0.70 -0.20 1.60 -1 2.50 -1.50 1.80 -1.55 3.60 -0.15 4.60 l1.10 0.75 -1.10 1.35 c-1.30 1.65 -1.30 2.25 -0.05 3.70 0.95 1.10 0.95 1.15 0 2.40 -1.30 1.60 -1.25 2.50 0.05 3.90 l1.05 1.15 -1.55 1.90 c-0.85 1.05 -1.55 2.15 -1.55 2.50 0 0.30 0.80 1.20 1.75 1.95 l1.80 1.35 -1.55 1.60 c-1.75 1.80 -1.90 3.20 -0.50 4.50 1 0.90 1 0.90 -1 2.75 -2.40 2.20 -2.50 3.35 -0.50 5.25 l1.50 1.45 -1.20 1.25 c-1.70 1.85 -2.30 3.25 -2.30 5.30 0 2.20 1.85 4.25 3.80 4.25 1.05 0 1.25 0.15 0.90 0.90 -0.20 0.45 -0.45 1.80 -0.60 3 -0.20 1.95 -0.05 2.30 1.80 4.10 l2 2 4.70 0 c3 0 5 -0.25 5.50 -0.60 0.45 -0.35 3.25 -4.15 6.25 -8.40 9.70 -13.90 16.30 -23 16.60 -23 0.45 0 13.05 25.35 13.05 26.25 0 0.40 -1.20 1.50 -2.70 2.45 -1.50 0.95 -2.85 1.95 -3 2.25 -0.40 0.60 4.55 0.75 33.95 1 12.40 0.10 25 0.30 28 0.50 l5.50 0.30 0 10.40 0 10.45 -2 0.70 c-5.40 1.80 -7.45 8.50 -3.95 12.70 2.95 3.45 7.70 4.15 11.15 1.60z"/>
  <path d="M115.20 110 c-2.35 -0.95 -3.45 -4.60 -2.20 -7.05 0.85 -1.50 3.40 -2.60 5.30 -2.25 3.70 0.70 5 5.55 2.25 8.35 -1.50 1.50 -3.25 1.80 -5.35 0.95z"/>
  <path d="M63.25 72.25 c-3.05 -1.50 -4.25 -3.20 -9.40 -13.25 -2.90 -5.65 -6.20 -11.95 -7.30 -14 -1.10 -2.05 -2 -4.20 -2 -4.75 0 -1.15 19.95 -29.35 20.95 -29.65 0.55 -0.20 0.60 4.45 0.35 25.95 -0.20 14.40 -0.35 28.50 -0.35 31.35 0 2.80 -0.15 5.10 -0.35 5.10 -0.25 0 -1.05 -0.35 -1.90 -0.75z"/>
  <path d="M89.25 72 c-13.55 -0.20 -17.45 -0.40 -17.40 -0.85 0.10 -0.35 3.25 -4.55 7 -9.35 3.80 -4.80 8.50 -10.75 10.40 -13.20 1.95 -2.50 3.85 -4.55 4.25 -4.60 0.40 0 1.55 0.80 2.55 1.80 1.80 1.75 1.85 1.85 1.60 4.75 -0.35 3.45 0.35 5.45 2.45 7.20 3.30 2.80 8.40 1.85 10.65 -1.95 1.50 -2.60 1.60 -4.70 0.20 -7.35 -1.50 -3.05 -5.95 -4.80 -8.50 -3.40 -0.85 0.45 -1.45 0.15 -3.75 -1.85 -1.60 -1.35 -2.65 -2.60 -2.50 -3 0.50 -1.30 20.40 -26.20 20.90 -26.20 0.40 0 0.45 8.45 0.20 28.85 -0.20 15.85 -0.45 29 -0.60 29.25 -0.15 0.20 -2.45 0.30 -5.10 0.25 -2.65 -0.05 -12.70 -0.20 -22.35 -0.35z"/>
  <path d="M101.80 54.40 c-1.85 -2.65 -0.25 -5.90 2.85 -5.90 3.05 0 4.70 3.30 2.85 5.65 -1.40 1.80 -4.55 1.90 -5.70 0.25z"/>
  <path d="M75.05 27.70 c-1.20 -1.50 -1.30 -2.15 -0.50 -3.85 1.60 -3.55 6.95 -2.35 6.95 1.50 0 3.50 -4.30 5.05 -6.45 2.35z"/>
  <path d="M8.75 10 c-0.20 -0.30 0.35 -1.20 1.20 -2.05 1.20 -1.20 1.90 -1.50 3.15 -1.35 2.55 0.25 2.45 1.70 -0.20 2.90 -2.40 1.10 -3.70 1.25 -4.15 0.50z"/>
 </g>
</svg>
