<?xml version="1.0" encoding="utf-8"?>
<!DOCTYPE svg PUBLIC "-//W3C//DTD SVG 1.0//EN" "http://www.w3.org/TR/2001/REC-SVG-20010904/DTD/svg10.dtd">
<svg version="1.0" xmlns="http://www.w3.org/2000/svg" width="168px" height="102px" viewBox="0 0 168 102" preserveAspectRatio="xMidYMid meet">
 <g fill="#000000">
  <path d="M90.25 99.90 c-0.15 -0.35 -0.30 -5.35 -0.35 -11.15 l-0.15 -10.50 -10.20 -0.15 c-7.85 -0.10 -10.30 0.05 -10.65 0.50 -0.20 0.35 -0.40 5.20 -0.40 10.80 0 7.70 -0.15 10.20 -0.65 10.35 -0.35 0.15 -7.35 0.10 -15.60 -0.10 l-15 -0.40 0 -10.75 0 -10.75 -5.35 -0.15 -5.40 -0.15 0 10.45 c0 6.50 -0.20 10.60 -0.50 10.90 -0.60 0.60 -24 0.30 -24.65 -0.30 -0.50 -0.45 -0.50 -25.55 -0.05 -56.10 l0.35 -20.90 10.45 0 10.40 0 0 -3.40 c0 -1.90 0.15 -6.50 0.35 -10.30 l0.30 -6.80 20.05 0.10 20.05 0.15 0.05 10 c0 5.50 0.15 10.30 0.40 10.65 0.25 0.45 3.45 0.60 12.50 0.60 l12.15 0 0.30 -5.35 c0.20 -2.90 0.35 -7.65 0.35 -10.55 l0 -5.25 16.35 0.30 c8.95 0.20 16.45 0.50 16.60 0.65 0.15 0.15 0.20 4.85 0.15 10.40 -0.20 11.30 -0.15 11.50 3.20 11.50 3.15 0 6.30 -4.70 6.95 -10.35 0.75 -6.75 6.60 -9.25 16 -6.85 6.55 1.70 9.30 3.80 12.45 9.50 1.65 3.05 1.80 3.70 2.30 10.20 0.70 8.45 0.30 9.85 -4.40 15.95 -7.05 9.20 -8.10 10.65 -8.10 11.45 0 0.90 3.45 3.40 4.60 3.40 0.35 0 1.55 -0.60 2.65 -1.25 2.20 -1.35 3.75 -1.55 6.20 -0.70 2.70 0.95 3.45 4.20 1.50 6.65 -0.85 1.10 -1.40 1.30 -3.45 1.30 -1.35 0 -3.05 -0.25 -3.75 -0.60 -1.75 -0.80 -2.40 0.15 -2 3.05 0.15 1.25 0.40 5.05 0.55 8.55 0.35 6.90 0 8.90 -2.15 12.10 -2.80 4.15 -11.10 6.10 -17.50 4.10 -3.70 -1.15 -7.55 -4.80 -8.90 -8.45 -0.50 -1.40 -1.15 -2.80 -1.40 -3.10 -0.65 -0.85 -4.60 -0.85 -5.30 0 -0.35 0.45 -0.60 4.40 -0.65 10.90 l-0.15 10.20 -15.15 0.15 c-11.85 0.10 -15.20 0 -15.35 -0.50z m12.65 -3 c0.40 -0.40 0.60 -2.85 0.60 -7.65 l0 -7.05 -2.25 -1.85 c-3.65 -3.05 -4.25 -7.50 -1.40 -10.85 2.65 -3.15 6.25 -3.85 9.75 -1.90 5.05 2.85 5.10 10.55 0.05 13.25 -0.95 0.50 -1.80 1.35 -1.95 1.90 -0.15 0.55 -0.15 4.05 -0.10 7.75 l0.15 6.75 4.65 0.15 4.60 0.15 0.05 -1.90 c0.05 -1.05 0.20 -6.15 0.40 -11.40 l0.30 -9.50 6.15 -0.15 c7.50 -0.15 8.10 0.05 8.10 3.35 0 5.30 6 10.05 12.70 10.05 2.75 0 6 -1.25 7.40 -2.80 2.25 -2.55 2.45 -4.20 2.10 -14.75 l-0.35 -10 -1.40 -0.75 c-2.35 -1.20 -3.40 -0.85 -6.65 2.20 -4.20 3.90 -9.15 7.35 -11.65 8.10 -1.70 0.50 -2.40 0.50 -3.70 0 -1.90 -0.80 -3.40 -3.80 -3.45 -6.80 0 -4.55 3.85 -7.15 12.30 -8.20 2.45 -0.30 4.95 -0.65 5.50 -0.80 2.25 -0.40 14.20 -18.20 14.20 -21.10 l0 -1.20 -1.60 1.10 c-6.80 4.50 -14.25 4.20 -16.60 -0.70 -1.55 -3.30 -0.70 -7.65 1.95 -9.70 1.95 -1.55 4.35 -1.85 9.65 -1.15 5.70 0.75 6.10 0.55 4.90 -2.65 -2.05 -5.30 -10.80 -10.15 -16.45 -9.10 -2.80 0.55 -4.65 2.80 -5.55 6.95 -1.75 7.80 -5.85 12.85 -10.55 12.85 -2.30 0 -6.10 -1.80 -6.55 -3.15 -0.15 -0.55 -0.25 -5.30 -0.15 -10.55 l0.20 -9.55 -3.70 -0.15 c-2.05 -0.10 -3.90 0.05 -4.10 0.25 -0.25 0.25 0.80 4.50 2.35 9.40 1.50 4.95 4.45 14.60 6.50 21.45 2.10 6.90 3.90 12.80 4.05 13.15 0.20 0.55 -2.50 0.65 -14.25 0.65 -8.40 0 -14.65 -0.20 -14.85 -0.45 -0.15 -0.25 2.10 -10 5 -21.60 2.90 -11.65 5.25 -21.70 5.25 -22.30 0 -1.15 -0.10 -1.15 -5.40 -1.15 -3.55 0 -5.60 0.20 -6 0.60 -0.40 0.40 -0.60 3 -0.60 8.50 0 7.45 0.05 7.90 0.95 7.90 0.55 0 1.15 -0.45 1.30 -1.05 0.20 -0.60 0.70 -0.95 1.15 -0.85 0.70 0.15 0.90 0.90 1 3.85 0.20 4.40 -0.45 5.45 -2.05 3.50 l-1.10 -1.35 -17.95 -0.35 -17.95 -0.35 -0.85 1.10 c-1.45 1.95 -2.15 0.80 -1.90 -3.10 0.30 -3.95 0.70 -4.60 1.75 -3.05 0.45 0.65 1.20 1.15 1.70 1.15 0.95 0 0.95 -0.45 0.85 -8.35 l-0.15 -8.40 -16 -0.30 c-11.60 -0.25 -16.10 -0.15 -16.35 0.25 -0.20 0.30 -0.40 3.45 -0.40 7 l0 6.45 11.85 12.05 c6.55 6.65 12.05 12.15 12.30 12.25 0.25 0.10 1.05 -0.45 1.80 -1.15 1.25 -1.20 1.45 -1.85 1.75 -5.45 0.20 -2.20 0.45 -4.20 0.65 -4.35 0.15 -0.15 3.05 2.70 6.45 6.25 l6.20 6.50 -4.95 0.15 c-4.50 0.10 -5 0.25 -6.10 1.40 l-1.20 1.30 1.65 1.45 c1.50 1.35 1.90 1.45 5.60 1.45 2.20 0 4 0.20 4 0.40 0 0.70 -12 11.15 -12.45 10.85 -0.25 -0.15 -0.35 -1.90 -0.20 -3.90 0.25 -3.20 0.15 -3.75 -0.85 -4.95 -1.30 -1.70 -1.65 -1.70 -3 -0.30 -0.85 0.90 -1 1.75 -1 5.15 0 2.25 -0.10 4.20 -0.25 4.35 -0.35 0.35 -12.45 -11.95 -12.65 -12.80 -0.10 -0.55 0.80 -0.60 4.25 -0.45 3.90 0.25 4.55 0.15 5.65 -0.75 l1.25 -1 -6 -6.15 c-3.30 -3.35 -8 -8.20 -10.50 -10.75 l-4.50 -4.70 -10.35 0 -10.30 0 -0.30 4.15 c-0.15 2.25 -0.35 17.95 -0.45 34.85 l-0.10 30.75 3.50 0 3.50 0 0.15 -7.60 c0.10 -7.15 0.05 -7.60 -0.85 -7.90 -1.65 -0.50 -3.95 -3.55 -4.30 -5.70 -0.40 -2.45 1.20 -6.15 3.30 -7.70 2.10 -1.50 5.50 -1.70 7.80 -0.40 5.60 3.15 5.65 10.80 0.05 13.65 -1.80 0.95 -1.85 1.05 -2.15 4.55 -0.15 2 -0.25 5.30 -0.15 7.35 l0.15 3.75 3.90 0.15 3.85 0.15 0.05 -3.05 c0.05 -1.65 0.15 -3.20 0.20 -3.50 0.05 -0.25 0.15 -3.90 0.20 -8 l0.05 -7.50 8.60 0.10 8.65 0.15 0.25 11 0.25 11 4.50 0 4.50 0 0.10 -7.25 0.15 -7.25 -1.60 -1 c-5.10 -3.20 -5.25 -9.75 -0.25 -13.45 1.95 -1.45 6.30 -1.40 8.20 0 5.05 3.75 4.85 10.10 -0.35 13.60 l-1.75 1.15 -0.25 6.35 c-0.15 3.50 -0.15 6.70 -0.10 7.15 0.15 0.70 1 0.90 4.25 1.05 2.25 0.10 4.40 0.10 4.75 0 0.45 -0.15 0.60 -1.80 0.60 -5.85 0 -3.05 0.15 -8 0.35 -10.90 l0.30 -5.35 13.80 0 c7.60 0 14.10 0.20 14.50 0.45 0.60 0.40 0.65 2.30 0.40 11.25 -0.25 9.75 -0.20 10.85 0.55 11.30 1.20 0.70 7.80 0.60 8.50 -0.10z m5.85 -19.65 c0.85 -0.80 1.25 -1.75 1.25 -3 0 -1.25 -0.40 -2.20 -1.25 -3 -0.80 -0.85 -1.75 -1.25 -3 -1.25 -1.25 0 -2.20 0.40 -3 1.25 -0.85 0.80 -1.25 1.75 -1.25 3 0 1.25 0.40 2.20 1.25 3 0.80 0.85 1.75 1.25 3 1.25 1.25 0 2.20 -0.40 3 -1.25z m-52.40 -0.85 c1.60 -1.50 1.60 -4.50 -0.10 -6.15 -2.65 -2.70 -7.25 -0.80 -7.25 3 0 3.75 4.60 5.70 7.35 3.15z m-39.40 -0.70 c2.15 -1.80 2.15 -4.10 -0.05 -5.95 -1.25 -1.05 -1.90 -1.25 -3.10 -1.05 -3.60 0.75 -4.80 4.80 -2.10 7.10 1.75 1.55 3.35 1.50 5.25 -0.10z m119.25 -9.90 c1.95 -0.80 7.30 -5.90 7.30 -6.95 0 -1.10 -1.70 -1.50 -4.95 -1.10 -3.40 0.40 -7.40 2.05 -8.05 3.30 -0.75 1.35 -0.60 3.50 0.35 4.55 0.95 1.05 3.05 1.15 5.35 0.20z m27.80 -5.25 c1.20 -2.30 -1.10 -4 -3.75 -2.75 -2.35 1.10 -2.60 1.70 -1.25 2.80 1.50 1.20 4.30 1.20 5 -0.05z m-46.50 -14.90 c0 -1 -9.35 -32.15 -9.75 -32.55 -0.15 -0.15 -0.45 -0.05 -0.70 0.20 -0.65 0.65 -8.15 31.80 -7.85 32.55 0.20 0.50 2.30 0.65 9.30 0.65 8.25 0 9 -0.05 9 -0.85z m34.25 -13.35 c2.60 -0.80 5.75 -3.45 5.75 -4.85 0 -1.75 -1.95 -2.45 -6.60 -2.45 -3.75 0 -4.55 0.15 -5.40 1 -1.90 1.90 -1.05 5.10 1.65 6.25 2 0.90 1.75 0.90 4.60 0.05z"/>
 </g>
 <g fill="none">
  <path d="M0 51 l0 -51 84 0 84 0 0 51 0 51 -84 0 -84 0 0 -51z m120.90 39.05 c0.05 -6.50 0.30 -10.45 0.65 -10.90 0.70 -0.85 4.65 -0.85 5.30 0 0.25 0.30 0.90 1.70 1.40 3.10 1.35 3.65 5.20 7.30 8.90 8.45 6.40 2 14.70 0.05 17.50 -4.10 2.15 -3.20 2.50 -5.20 2.15 -12.10 -0.15 -3.50 -0.40 -7.30 -0.55 -8.55 -0.40 -2.90 0.25 -3.85 2 -3.05 0.70 0.35 2.40 0.60 3.75 0.60 2.05 0 2.60 -0.20 3.45 -1.30 1.95 -2.45 1.20 -5.70 -1.50 -6.65 -2.45 -0.85 -4 -0.65 -6.20 0.70 -2.50 1.55 -2.80 1.55 -5.25 0 -3.05 -1.95 -3.30 -1.35 6.10 -13.60 4.70 -6.10 5.10 -7.50 4.40 -15.95 -0.50 -6.50 -0.65 -7.15 -2.30 -10.20 -3.15 -5.70 -5.90 -7.80 -12.45 -9.50 -9.40 -2.40 -15.25 0.10 -16 6.85 -0.65 5.65 -3.80 10.35 -6.95 10.35 -3.35 0 -3.40 -0.20 -3.20 -11.50 0.05 -5.55 0 -10.25 -0.15 -10.40 -0.15 -0.15 -7.65 -0.45 -16.60 -0.65 l-16.35 -0.30 0 5.25 c0 2.90 -0.15 7.65 -0.35 10.55 l-0.30 5.35 -12.15 0 c-9.05 0 -12.25 -0.15 -12.50 -0.60 -0.25 -0.35 -0.40 -5.15 -0.40 -10.65 l-0.05 -10 -20.05 -0.15 -20.05 -0.10 -0.30 6.80 c-0.20 3.80 -0.35 8.40 -0.35 10.30 l0 3.40 -10.40 0 -10.45 0 -0.35 20.90 c-0.45 30.55 -0.45 55.65 0.05 56.10 0.65 0.60 24.05 0.90 24.65 0.30 0.30 -0.30 0.50 -4.40 0.50 -10.90 l0 -10.45 5.40 0.15 5.35 0.15 0 10.75 0 10.75 15 0.40 c8.25 0.20 15.25 0.25 15.60 0.10 0.50 -0.15 0.65 -2.65 0.65 -10.35 0 -5.60 0.20 -10.45 0.40 -10.80 0.35 -0.45 2.80 -0.60 10.65 -0.50 l10.20 0.15 0.15 10.50 c0.05 5.80 0.20 10.80 0.35 11.15 0.15 0.50 3.50 0.60 15.35 0.50 l15.15 -0.15 0.15 -10.20z"/>
  <path d="M94.40 97 c-0.75 -0.45 -0.80 -1.55 -0.55 -11.30 0.25 -8.95 0.20 -10.85 -0.40 -11.25 -0.40 -0.25 -6.90 -0.45 -14.50 -0.45 l-13.80 0 -0.30 5.35 c-0.20 2.90 -0.35 7.85 -0.35 10.90 0 4.05 -0.15 5.70 -0.60 5.85 -0.35 0.10 -2.50 0.10 -4.75 0 -3.25 -0.15 -4.10 -0.35 -4.25 -1.05 -0.05 -0.45 -0.05 -3.65 0.10 -7.15 l0.25 -6.35 1.75 -1.15 c5.20 -3.50 5.40 -9.85 0.35 -13.60 -1.90 -1.40 -6.25 -1.45 -8.20 0 -5 3.70 -4.85 10.25 0.25 13.45 l1.60 1 -0.15 7.25 -0.10 7.25 -4.50 0 -4.50 0 -0.25 -11 -0.25 -11 -8.65 -0.15 -8.60 -0.10 -0.05 7.50 c-0.05 4.10 -0.15 7.75 -0.20 8 -0.05 0.30 -0.15 1.85 -0.20 3.50 l-0.05 3.05 -3.85 -0.15 -3.90 -0.15 -0.15 -3.75 c-0.10 -2.05 0 -5.35 0.15 -7.35 0.30 -3.50 0.35 -3.60 2.15 -4.55 5.60 -2.85 5.55 -10.50 -0.05 -13.65 -2.30 -1.30 -5.70 -1.10 -7.80 0.40 -2.10 1.55 -3.70 5.25 -3.30 7.70 0.35 2.15 2.65 5.20 4.30 5.70 0.90 0.30 0.95 0.75 0.85 7.90 l-0.15 7.60 -3.50 0 -3.50 0 0.10 -30.75 c0.10 -16.90 0.30 -32.60 0.45 -34.85 l0.30 -4.15 10.30 0 10.35 0 4.50 4.70 c2.50 2.55 7.20 7.40 10.50 10.75 l6 6.15 -1.25 1 c-1.10 0.90 -1.75 1 -5.65 0.75 -3.45 -0.15 -4.35 -0.10 -4.25 0.45 0.20 0.85 12.30 13.15 12.65 12.80 0.15 -0.15 0.25 -2.10 0.25 -4.35 0 -3.40 0.15 -4.25 1 -5.15 1.35 -1.40 1.70 -1.40 3 0.30 1 1.20 1.10 1.75 0.85 4.95 -0.15 2 -0.05 3.75 0.20 3.90 0.45 0.30 12.45 -10.15 12.45 -10.85 0 -0.20 -1.80 -0.40 -4 -0.40 -3.70 0 -4.10 -0.10 -5.60 -1.45 l-1.65 -1.45 1.20 -1.30 c1.10 -1.15 1.60 -1.30 6.10 -1.40 l4.95 -0.15 -6.20 -6.50 c-3.40 -3.55 -6.30 -6.40 -6.45 -6.25 -0.20 0.15 -0.45 2.15 -0.65 4.35 -0.30 3.60 -0.50 4.25 -1.75 5.45 -0.75 0.70 -1.55 1.25 -1.80 1.15 -0.25 -0.10 -5.75 -5.60 -12.30 -12.25 l-11.85 -12.05 0 -6.45 c0 -3.55 0.20 -6.70 0.40 -7 0.25 -0.40 4.75 -0.50 16.35 -0.25 l16 0.30 0.15 8.40 c0.10 7.90 0.10 8.35 -0.85 8.35 -0.50 0 -1.25 -0.50 -1.70 -1.15 -1.05 -1.55 -1.45 -0.90 -1.75 3.05 -0.25 3.90 0.45 5.05 1.90 3.10 l0.85 -1.10 17.95 0.35 17.95 0.35 1.10 1.35 c1.60 1.95 2.25 0.90 2.05 -3.50 -0.10 -2.95 -0.30 -3.70 -1 -3.85 -0.45 -0.10 -0.95 0.25 -1.15 0.85 -0.15 0.60 -0.75 1.05 -1.30 1.05 -0.90 0 -0.95 -0.45 -0.95 -7.90 0 -5.50 0.20 -8.10 0.60 -8.50 0.40 -0.40 2.45 -0.60 6 -0.60 5.30 0 5.40 0 5.40 1.15 0 0.60 -2.35 10.65 -5.25 22.30 -2.90 11.60 -5.15 21.35 -5 21.60 0.20 0.25 6.45 0.45 14.85 0.45 11.75 0 14.45 -0.10 14.25 -0.65 -0.15 -0.35 -1.95 -6.25 -4.05 -13.15 -2.05 -6.85 -5 -16.50 -6.50 -21.45 -1.55 -4.90 -2.60 -9.15 -2.35 -9.40 0.20 -0.20 2.05 -0.35 4.10 -0.25 l3.70 0.15 -0.20 9.55 c-0.10 5.25 0 10 0.15 10.55 0.45 1.35 4.25 3.15 6.55 3.15 4.70 0 8.80 -5.05 10.55 -12.85 0.90 -4.15 2.75 -6.40 5.55 -6.95 5.65 -1.05 14.40 3.80 16.45 9.10 1.20 3.20 0.80 3.40 -4.90 2.65 -2.60 -0.30 -5.50 -0.45 -6.50 -0.25 -3.50 0.65 -5.90 3.70 -5.90 7.60 0 7.70 8.90 9.85 17.40 4.20 l1.60 -1.10 0 1.20 c0 2.90 -11.95 20.70 -14.20 21.10 -0.55 0.15 -3.05 0.50 -5.50 0.80 -8.45 1.05 -12.30 3.65 -12.30 8.20 0.05 3 1.55 6 3.45 6.80 1.30 0.50 2 0.50 3.70 0 2.50 -0.75 7.45 -4.20 11.65 -8.10 3.25 -3.05 4.30 -3.40 6.65 -2.20 l1.40 0.75 0.35 10 c0.45 12.45 -0.15 14.40 -4.95 16.60 -7.05 3.25 -17.25 -2.15 -17.25 -9.10 0 -3.30 -0.60 -3.50 -8.10 -3.35 l-6.15 0.15 -0.30 9.50 c-0.20 5.25 -0.35 10.35 -0.40 11.40 l-0.05 1.90 -4.60 -0.15 -4.65 -0.15 -0.15 -6.75 c-0.05 -3.70 -0.05 -7.20 0.10 -7.75 0.15 -0.55 1 -1.40 1.95 -1.90 5.05 -2.70 5 -10.40 -0.05 -13.25 -3.50 -1.95 -7.10 -1.25 -9.75 1.90 -2.85 3.35 -2.25 7.80 1.40 10.85 l2.25 1.85 0 7.05 c0 4.80 -0.20 7.25 -0.60 7.65 -0.70 0.70 -7.30 0.80 -8.50 0.10z"/>
  <path d="M102.75 77.25 c-0.85 -0.80 -1.25 -1.75 -1.25 -3 0 -1.25 0.40 -2.20 1.25 -3 0.80 -0.85 1.75 -1.25 3 -1.25 1.25 0 2.20 0.40 3 1.25 0.85 0.80 1.25 1.75 1.25 3 0 1.25 -0.40 2.20 -1.25 3 -0.80 0.85 -1.75 1.25 -3 1.25 -1.25 0 -2.20 -0.40 -3 -1.25z"/>
  <path d="M50.25 76.25 c-2.70 -2.65 -0.80 -7.25 3 -7.25 3.80 0 5.80 4.85 3.10 7.40 -1.65 1.55 -4.50 1.50 -6.10 -0.15z"/>
  <path d="M11.70 75.80 c-2.70 -2.30 -1.50 -6.35 2.10 -7.10 1.20 -0.20 1.85 0 3.10 1.05 2.20 1.85 2.20 4.15 0.05 5.95 -1.90 1.60 -3.50 1.65 -5.25 0.10z"/>
  <path d="M130.85 65.60 c-0.95 -1.05 -1.10 -3.20 -0.35 -4.55 1 -1.95 9.20 -4.20 11.95 -3.30 1.70 0.50 1.25 1.65 -1.80 4.60 -4.10 4 -7.95 5.30 -9.80 3.25z"/>
  <path d="M159 60.60 c-1.35 -1.10 -1.10 -1.70 1.25 -2.80 2.65 -1.25 4.95 0.45 3.75 2.75 -0.70 1.25 -3.50 1.25 -5 0.05z"/>
  <path d="M99.20 45.85 c-0.30 -0.75 7.20 -31.90 7.85 -32.55 0.25 -0.25 0.55 -0.35 0.70 -0.20 0.40 0.40 9.75 31.55 9.75 32.55 0 0.80 -0.75 0.85 -9 0.85 -7 0 -9.10 -0.15 -9.30 -0.65z"/>
  <path d="M147.15 32.25 c-2.70 -1.15 -3.55 -4.35 -1.65 -6.25 0.85 -0.85 1.65 -1 5.40 -1 4.65 0 6.60 0.70 6.60 2.45 0 1.40 -3.15 4.05 -5.75 4.85 -2.85 0.85 -2.60 0.85 -4.60 -0.05z"/>
 </g>
</svg>
