<?xml version="1.0" encoding="utf-8"?>
<!DOCTYPE svg PUBLIC "-//W3C//DTD SVG 1.0//EN" "http://www.w3.org/TR/2001/REC-SVG-20010904/DTD/svg10.dtd">
<svg version="1.0" xmlns="http://www.w3.org/2000/svg" width="161px" height="131px" viewBox="0 0 161 131" preserveAspectRatio="xMidYMid meet">
 <g fill="#000000">
  <path d="M121.60 129.60 c-3.95 -0.15 -4.15 -0.20 -4 -1.25 0.10 -0.60 0.90 -1.50 1.85 -2.10 3.50 -2.05 5.90 -4.85 6.80 -7.90 1.20 -4.10 0.95 -5.05 -1.40 -5.25 -1.75 -0.15 -2.10 0.10 -5.35 3.40 -1.90 2 -3.75 3.50 -4.10 3.40 -0.85 -0.30 -1.05 -3.75 -0.65 -11.75 0.30 -5.50 0.50 -6.65 1.10 -6.65 0.45 0 2.20 1.50 3.95 3.30 3.05 3.15 3.25 3.25 5.30 3.10 1.35 -0.10 2.15 -0.40 2.10 -0.75 -0.05 -0.35 -0.10 -2.35 -0.10 -4.40 l-0.10 -3.75 -3.35 -2.75 c-1.85 -1.50 -3.65 -2.75 -4.05 -2.75 -0.35 0 -2.30 1.65 -4.25 3.65 -2.55 2.65 -4.60 4.20 -7.10 5.40 -3.35 1.65 -3.70 1.70 -10 1.80 -5.95 0.10 -6.50 0.15 -6.35 1 0.55 2.60 0.65 5.40 0.40 6.95 -0.70 3.65 -5.40 7.20 -9.55 7.20 -3.70 0 -7.95 -2.85 -9.20 -6.15 -0.80 -2.10 -0.65 -6.20 0.25 -7.95 1.10 -2.15 0.40 -2.65 -2.75 -1.90 -1.90 0.45 -3.50 1.40 -6.40 3.85 -4.70 3.95 -7.70 5.40 -12.60 6.20 -5.55 0.85 -8.75 0.45 -13.10 -1.65 -5.05 -2.40 -8.45 -5.20 -11.50 -9.55 -6.80 -9.65 -7.90 -14.25 -8.35 -35.60 l-0.35 -15 -4.85 -0.30 c-5.95 -0.40 -8.65 -1.70 -10.70 -5.25 -2 -3.45 -2.15 -6.50 -0.45 -9.65 0.80 -1.40 1.90 -2.85 2.55 -3.25 1.10 -0.75 1.10 -0.75 0.20 -2.60 -1.45 -2.75 -0.60 -5.85 2.60 -9.45 2.70 -3.15 3.85 -3.45 11.50 -3.50 5.75 0 7 0.15 7.70 0.85 1.35 1.30 0.55 2.40 -1.80 2.40 -1.90 0 -2 0.10 -2 1.50 l0 1.50 5 0 5 0 -0.35 -1.35 c-0.70 -2.45 -0.35 -6.15 0.70 -7.55 1.15 -1.60 4.85 -3.60 6.70 -3.60 2.05 0 5.50 2.10 6.55 4 0.95 1.75 1.05 5.70 0.20 7.55 -0.30 0.70 0.25 0.85 3.70 1.15 2.25 0.20 4.25 0.20 4.50 0.05 0.30 -0.15 0.25 -0.80 0 -1.55 -1.40 -3.65 -0.10 -7.95 3.05 -10.35 1.70 -1.25 5.60 -1.35 7.80 -0.20 3.40 1.80 5.10 6.60 3.45 9.90 -0.45 0.85 -0.80 1.80 -0.80 2.05 0 0.20 1.80 0.40 4 0.40 3.25 0 4.10 -0.15 4.35 -0.80 0.50 -1.35 -0.55 -2.45 -2.50 -2.60 -2.45 -0.20 -3.25 -1.25 -1.75 -2.30 0.85 -0.60 2.35 -0.80 6 -0.80 6.05 0 9.60 1.20 12.90 4.30 2.20 2.10 2.25 2.20 2.25 5.30 0 1.75 -0.20 3.85 -0.40 4.70 -0.40 1.50 -0.35 1.55 1.50 1.90 2.95 0.45 12.80 0.35 13.65 -0.20 1 -0.60 0.95 -12.20 -0.05 -19.25 l-0.75 -5 -1.75 0.20 c-3.20 0.45 -5.60 0.30 -5.80 -0.30 -0.40 -1.10 4.30 -3.50 10.75 -5.55 7.35 -2.35 10.75 -3.10 13.85 -3.10 2.95 0 3.20 0.70 0.80 2.25 -1.30 0.80 -2.15 1.75 -2.35 2.65 -0.15 0.75 -0.70 2.80 -1.25 4.60 -0.50 1.80 -1.40 5.50 -1.95 8.15 -0.55 2.70 -1.30 6.10 -1.70 7.50 -0.40 1.45 -0.90 3.90 -1.10 5.50 l-0.30 2.85 3.05 0 3 0 -1.20 -2.30 c-0.70 -1.30 -1.25 -2.95 -1.25 -3.65 0 -2.20 2.05 -5.65 4 -6.65 3.55 -1.85 8.60 -0.75 10.50 2.35 1.35 2.20 1.35 6.30 0 8.50 l-1 1.65 1.10 0.30 c0.65 0.15 3.05 0.30 5.40 0.30 4.90 0 6.45 -0.70 8.35 -3.85 1.35 -2.25 1.60 -6.85 0.40 -8.45 -0.80 -1.05 -0.90 -0.80 -0.75 1.65 0.15 3.10 -1.40 4.75 -5.35 5.90 -1.35 0.40 -3.70 -0.80 -5.10 -2.55 -1.40 -1.75 -1.40 -5.10 -0.05 -6.80 2.30 -3 7.90 -3.85 11.05 -1.75 3 2 4.95 8.05 3.95 11.90 -0.80 2.85 -2.15 5.45 -3.45 6.65 -0.55 0.50 -0.90 1.10 -0.80 1.30 0.15 0.20 0.55 1.65 0.95 3.20 0.95 3.70 0.30 6.05 -3.20 11.05 -3.35 4.90 -4.20 6.95 -3.75 9.45 0.30 2.15 1.45 3.80 2.60 3.80 0.40 0 2.70 -1.90 5.10 -4.20 6.15 -5.90 10.50 -7.95 8.85 -4.15 -2.90 6.55 -3.90 9.35 -5.25 14.55 -3.70 13.95 -7.35 18.85 -18.50 24.80 l-4.30 2.25 -0.15 4.15 -0.15 4.10 2.30 0 c2.10 0 2.55 -0.25 4.95 -2.50 4.25 -4 4.35 -3.85 4.25 5.15 0 4.25 -0.20 7.95 -0.45 8.30 -0.70 1.15 -2.20 0.10 -4 -2.70 -1.85 -2.90 -2.75 -3.45 -5.55 -3.15 -1.45 0.15 -1.70 0.35 -1.85 1.60 -0.10 0.75 0.20 3 0.65 5 0.80 3.20 1.15 3.80 3.55 6.15 1.50 1.40 2.70 2.80 2.70 3.05 0 1.10 -2.05 1.20 -16.40 0.70z m-34.80 -14.10 c1.05 -0.70 1.95 -1.80 2.50 -3.25 0.80 -2.10 0.80 -2.40 0 -4.50 -1.55 -4 -5 -5.55 -9.05 -4.05 -2.55 1 -3.80 2.70 -4.15 5.55 -0.60 5.55 5.75 9.25 10.70 6.25z m-29.60 -8.20 c4.80 -2.35 8.65 -6.45 12.15 -12.90 3.15 -5.80 4.85 -10.65 5.90 -16.95 0.80 -4.70 1.80 -21.65 1.40 -22.80 -0.25 -0.70 -6.65 -0.95 -6.65 -0.30 0 0.20 0.45 1.30 1.05 2.50 2.55 5.25 -1.25 11.15 -7.20 11.15 -2.85 0 -5.25 -1.60 -6.75 -4.50 -1.35 -2.65 -1.20 -5.40 0.45 -7.65 0.55 -0.75 0.85 -1.60 0.70 -1.85 -0.35 -0.60 -6.10 -0.70 -6.40 -0.10 -0.15 0.20 -0.30 5.65 -0.40 12.10 l-0.20 11.75 2.35 0.15 c2.30 0.15 2.35 0.15 4.40 -2.65 3.30 -4.45 3.70 -3.90 3.90 4.50 0.10 5.15 -0.05 7.25 -0.55 7.90 -0.85 1.20 -2.10 0.65 -2.85 -1.20 -1 -2.35 -3.35 -4.05 -5.45 -3.85 -1.70 0.15 -1.80 0.25 -1.95 2 -0.20 2.55 0.40 3.45 4.40 6.45 2.70 2 3.50 2.90 3.40 3.65 -0.15 1 -0.40 1.05 -10.05 1.05 -8.25 0 -9.95 -0.10 -10.35 -0.75 -0.75 -1.15 -0.40 -1.65 2.50 -3.25 3.55 -2 6 -5.15 6 -7.80 0 -1.95 0 -1.95 -2 -1.95 -2.80 0 -4.50 1 -6.20 3.70 -1.45 2.35 -2.95 2.95 -3.50 1.50 -0.50 -1.35 -0.35 -13.70 0.20 -14.75 0.80 -1.40 1.80 -1.15 3 0.75 0.55 0.95 1.85 2.45 2.80 3.30 1.50 1.30 2.15 1.55 3.85 1.40 l2.10 -0.15 0.40 -7.25 c0.20 -4 0.30 -9.40 0.25 -12 l-0.15 -4.75 -3.35 -0.15 c-1.90 -0.10 -3.40 0.05 -3.40 0.25 0 0.25 0.45 1.30 1 2.40 3.50 6.85 -3.60 13.85 -10.65 10.50 -3.80 -1.80 -5.25 -7.05 -2.95 -10.95 0.60 -1 1.10 -1.95 1.10 -2.10 0 -0.10 -1.60 -0.20 -3.60 -0.20 l-3.55 0 0.30 12.40 c0.15 6.80 0.55 14.15 0.85 16.35 1.55 10.95 6.45 18.80 15 24 6.25 3.80 12.50 4.15 18.70 1.05z m23.15 -7.60 c0.20 -0.55 -5.40 -5.20 -6.25 -5.20 -0.80 0 -3.20 4.50 -2.90 5.30 0.25 0.60 1.15 0.70 4.65 0.60 2.50 -0.10 4.40 -0.35 4.50 -0.70z m24.15 -0.65 c6.35 -1.95 9.95 -5.25 13.20 -11.95 0.95 -2.05 2.10 -5.30 2.55 -7.25 1.05 -4.70 3 -17.20 3.80 -23.90 l0.60 -5.35 -1.75 -1.55 c-2.40 -2.10 -3.20 -4.95 -2.25 -8.15 0.40 -1.30 0.60 -2.45 0.45 -2.60 -0.15 -0.20 -1.35 -0.30 -2.70 -0.30 l-2.45 0 -1.40 3.15 c-0.75 1.70 -1.70 4 -2.05 5.10 -4.25 13.25 -17.45 40.15 -24.60 50.10 -2.65 3.60 -1.40 4.20 8.10 3.85 3.40 -0.10 6.45 -0.50 8.50 -1.15z m-19.80 -3.15 c0.35 -0.65 2.95 -5.40 5.65 -10.65 4.60 -8.70 8.65 -17.70 13.25 -29.50 1.75 -4.45 4.90 -15.30 4.90 -16.90 0 -0.75 -0.80 -0.85 -6.80 -0.85 l-6.80 0 0.35 1.40 c1.25 5 0.75 7.15 -2.40 9.85 -2.55 2.20 -5.75 3.65 -9 4.15 l-2.60 0.35 -0.30 9.75 c-0.35 11.30 -0.95 15.65 -3 22.60 -0.85 2.80 -1.40 5.35 -1.25 5.70 0.25 0.70 6.25 5.20 6.90 5.20 0.20 0 0.70 -0.50 1.10 -1.10z m51.60 -2.15 c3.60 -1.50 8.10 -6.40 10.20 -11.10 1.35 -3.05 3.50 -9.95 3.50 -11.20 0 -0.90 -0.20 -1 -1.60 -0.65 -4.25 1.05 -7.45 -0.55 -9.45 -4.65 -1.10 -2.25 -1.10 -2.30 -0.20 -5.10 0.45 -1.55 2.05 -5.05 3.50 -7.80 3.25 -6.05 3.85 -9.15 2.30 -11.60 -1.25 -2.05 -3.20 -3.05 -6.05 -3.15 -3.85 -0.15 -4.15 -0.10 -3.75 0.90 2 4.80 0.45 9.20 -3.95 11.10 l-2.05 0.85 -1.20 7.70 c-2.60 17.15 -3.55 23.80 -3.55 25.45 0 3.05 1 5.50 3.20 7.75 2 2.10 2.30 2.25 4.75 2.25 1.40 0 3.35 -0.35 4.35 -0.75z m-68.75 -30.20 c1.95 -2 2 -4.45 0.05 -6.60 -2.40 -2.70 -6.70 -1.90 -8.10 1.50 -2 4.90 4.25 8.85 8.05 5.10z m-29 -0.50 c1.05 -1.10 1.45 -1.95 1.45 -3.30 0 -2.55 -2.20 -4.75 -4.75 -4.75 -2.35 0 -3.55 0.65 -4.55 2.55 -2.50 4.85 3.95 9.40 7.85 5.50z m23.45 -13.55 c0.30 -0.60 0.50 -1.65 0.40 -2.40 -0.15 -1.25 -0.35 -1.35 -3.40 -1.65 -1.80 -0.20 -7.45 -0.35 -12.60 -0.40 l-9.40 -0.05 0 2.50 0 2.50 11.15 0.15 c6.10 0.05 11.60 0.15 12.20 0.25 0.70 0.05 1.30 -0.30 1.65 -0.90z m14.75 -1.50 l0 -2.25 -5.35 -0.15 -5.40 -0.15 0 2.25 c0 1.30 0.25 2.30 0.65 2.50 0.30 0.10 2.75 0.20 5.35 0.15 l4.75 -0.10 0 -2.25z m-43.35 -0.65 l0.15 -2.40 -5.40 0.15 -5.40 0.15 -0.15 1.65 c-0.30 2.80 0.45 3.15 5.85 3 l4.80 -0.15 0.15 -2.40z m53.20 1.15 c2.80 -0.80 3.95 -2 4.45 -4.70 0.30 -1.75 0.25 -2.80 -0.25 -4.05 -0.85 -2.05 -1.20 -2.20 -4.25 -2.60 -1.90 -0.20 -2.85 -0.10 -3.80 0.55 -1.20 0.80 -1.25 1.05 -1.25 5.75 0 3.50 0.20 5.05 0.65 5.20 1 0.45 2.50 0.35 4.45 -0.15z m-66.85 -7.25 l0 -6.50 -5.50 -0.15 c-5.40 -0.15 -5.60 -0.10 -6.75 1.15 -1.55 1.65 -2 6.35 -0.85 8.60 1.55 2.90 3.40 3.60 9.35 3.50 l3.75 -0.10 0 -6.50z m111.65 5 c2.05 -2.45 1.05 -6.15 -2.05 -7.20 -3.50 -1.25 -6.80 1.60 -6.10 5.30 0.65 3.55 5.65 4.70 8.15 1.90z m-54.50 -7.30 l0.15 -2.80 -12.35 -0.35 c-7.10 -0.20 -12.55 -0.15 -12.80 0.10 -0.25 0.25 -0.40 1.55 -0.30 2.90 l0.15 2.45 4.25 0.30 c2.35 0.15 7.95 0.25 12.50 0.25 l8.25 -0.05 0.15 -2.80z m-28.90 -0.45 l0 -2.95 -12.05 -0.15 c-6.60 -0.10 -12.35 0.05 -12.75 0.25 -0.85 0.50 -0.95 4.40 -0.10 5.25 0.45 0.45 3.95 0.60 12.75 0.60 l12.15 0 0 -3z m38.70 -5.55 c1.50 -0.70 2.80 -3.70 2.80 -6.40 0 -1.55 -0.30 -2.20 -1.50 -3.25 -1.60 -1.30 -4.45 -2.10 -5.75 -1.60 -0.60 0.20 -0.75 1.30 -0.75 5.70 0 3 0.15 5.60 0.35 5.75 0.50 0.55 3.50 0.40 4.85 -0.20z m-26.25 -0.65 c0.35 -0.40 0.55 -1.50 0.45 -2.40 l-0.15 -1.65 -8.75 -0.35 c-4.80 -0.20 -9.05 -0.25 -9.35 -0.15 -0.40 0.15 -0.65 1.10 -0.65 2.45 l0 2.25 6.40 0.20 c3.50 0.05 7.50 0.20 8.90 0.25 1.75 0.05 2.75 -0.15 3.15 -0.60z m16.45 -1.65 l-0.15 -2.40 -6.10 -0.15 -6.15 -0.15 0 2.55 0 2.50 6.30 0 6.25 0 -0.15 -2.35z m55.35 1.10 c0.95 -0.90 1.25 -1.75 1.25 -3.25 0 -2.80 -1.70 -4.50 -4.50 -4.50 -2.80 0 -4.50 1.70 -4.50 4.50 0 2.80 1.70 4.50 4.50 4.50 1.50 0 2.35 -0.30 3.25 -1.25z m-93.85 -1.60 l-0.15 -2.40 -7.50 0 -7.50 0 -0.15 1.65 c-0.30 3.10 -0.35 3.10 7.90 3.10 l7.55 0 -0.15 -2.35z m-18.15 -3.35 c0.20 -2.60 0.20 -4.95 0.05 -5.25 -0.60 -0.90 -7.40 -0.70 -8.75 0.25 -1.50 1.05 -2.55 3.60 -2.55 6.10 0 3 0.90 3.45 7.10 3.55 l3.80 0.05 0.35 -4.70z m125.30 -1.35 c1.40 -2.65 -2.05 -4.80 -3.75 -2.35 -1.10 1.55 -1 2.70 0.30 3.60 1.25 0.90 2.55 0.40 3.45 -1.25z m-102.55 -2.05 c2.90 -2 3.10 -5.40 0.40 -7.65 -4.15 -3.50 -9.60 0.95 -7.35 5.95 0.60 1.25 3 2.75 4.50 2.80 0.45 0 1.55 -0.50 2.45 -1.10z m23.05 -1.35 c1.05 -1.10 1.45 -1.95 1.45 -3.30 0 -2.55 -2.20 -4.75 -4.75 -4.75 -4.15 0 -6.35 5.25 -3.45 8.20 1.90 1.90 4.75 1.80 6.75 -0.15z"/>
 </g>
 <g fill="none">
  <path d="M0 65.50 l0 -65.50 80.50 0 80.50 0 0 65.50 0 65.50 -80.50 0 -80.50 0 0 -65.50z m137.10 64.20 c1.40 -0.45 1.10 -1.10 -1.80 -3.85 -2.40 -2.35 -2.75 -2.95 -3.55 -6.15 -0.45 -2 -0.75 -4.25 -0.65 -5 0.15 -1.25 0.40 -1.45 1.85 -1.60 2.80 -0.30 3.70 0.25 5.55 3.15 1.80 2.80 3.30 3.85 4 2.70 0.25 -0.35 0.45 -4.05 0.45 -8.30 0.10 -9 0 -9.15 -4.25 -5.15 -2.40 2.25 -2.85 2.50 -4.95 2.50 l-2.30 0 0.15 -4.10 0.15 -4.15 4.30 -2.25 c11.15 -5.95 14.80 -10.85 18.50 -24.80 1.35 -5.20 2.35 -8 5.25 -14.55 1.65 -3.80 -2.70 -1.75 -8.85 4.15 -2.40 2.30 -4.70 4.20 -5.10 4.20 -1.15 0 -2.30 -1.65 -2.60 -3.80 -0.45 -2.50 0.40 -4.55 3.75 -9.45 3.50 -5 4.15 -7.35 3.20 -11.05 -0.40 -1.55 -0.80 -3 -0.95 -3.20 -0.10 -0.20 0.25 -0.80 0.80 -1.30 1.30 -1.20 2.65 -3.80 3.45 -6.65 1 -3.85 -0.95 -9.90 -3.95 -11.90 -3.15 -2.10 -8.75 -1.25 -11.05 1.75 -1.35 1.70 -1.35 5.05 0.05 6.80 1.40 1.75 3.75 2.95 5.10 2.55 3.95 -1.15 5.50 -2.80 5.35 -5.90 -0.15 -2.45 -0.05 -2.70 0.75 -1.65 1.20 1.60 0.95 6.20 -0.40 8.45 -1.90 3.15 -3.45 3.85 -8.35 3.85 -2.35 0 -4.75 -0.15 -5.40 -0.30 l-1.10 -0.30 1 -1.65 c1.35 -2.20 1.35 -6.30 0 -8.50 -1.90 -3.10 -6.95 -4.20 -10.50 -2.35 -1.95 1 -4 4.45 -4 6.65 0 0.70 0.55 2.35 1.25 3.65 l1.20 2.30 -3 0 -3.05 0 0.30 -2.85 c0.20 -1.60 0.70 -4.05 1.10 -5.50 0.40 -1.40 1.15 -4.80 1.70 -7.50 0.55 -2.65 1.45 -6.35 1.95 -8.15 0.55 -1.80 1.10 -3.85 1.25 -4.60 0.20 -0.90 1.05 -1.85 2.35 -2.65 2.40 -1.55 2.15 -2.25 -0.80 -2.25 -6.95 0 -25.35 6.45 -24.60 8.65 0.20 0.60 2.60 0.75 5.80 0.30 l1.75 -0.20 0.75 5 c1 7.05 1.05 18.65 0.05 19.25 -0.85 0.55 -10.70 0.65 -13.65 0.20 -1.85 -0.35 -1.90 -0.40 -1.50 -1.90 0.20 -0.85 0.40 -2.95 0.40 -4.70 0 -3.10 -0.05 -3.20 -2.25 -5.30 -3.30 -3.10 -6.85 -4.30 -12.90 -4.30 -3.65 0 -5.15 0.20 -6 0.80 -1.50 1.05 -0.70 2.10 1.75 2.30 1.95 0.15 3 1.25 2.50 2.60 -0.25 0.65 -1.10 0.80 -4.35 0.80 -2.20 0 -4 -0.20 -4 -0.40 0 -0.25 0.35 -1.20 0.80 -2.05 1.65 -3.30 -0.05 -8.10 -3.45 -9.90 -2.20 -1.15 -6.10 -1.05 -7.80 0.20 -3.15 2.40 -4.45 6.70 -3.05 10.35 0.25 0.75 0.30 1.40 0 1.55 -0.25 0.15 -2.25 0.15 -4.50 -0.05 -3.45 -0.30 -4 -0.45 -3.70 -1.15 0.85 -1.85 0.75 -5.80 -0.20 -7.55 -1.05 -1.90 -4.50 -4 -6.55 -4 -1.85 0 -5.55 2 -6.70 3.60 -1.05 1.40 -1.40 5.10 -0.70 7.55 l0.35 1.35 -5 0 -5 0 0 -1.50 c0 -1.40 0.10 -1.50 2 -1.50 2.35 0 3.15 -1.10 1.80 -2.40 -0.70 -0.70 -1.95 -0.85 -7.70 -0.85 -7.65 0.05 -8.80 0.35 -11.50 3.50 -3.20 3.60 -4.05 6.70 -2.60 9.45 0.90 1.85 0.90 1.85 -0.20 2.60 -0.65 0.40 -1.75 1.85 -2.55 3.25 -1.70 3.15 -1.55 6.20 0.45 9.65 2.05 3.55 4.75 4.85 10.70 5.25 l4.85 0.30 0.35 15 c0.45 21.35 1.55 25.95 8.35 35.60 3.05 4.35 6.45 7.15 11.50 9.55 4.35 2.10 7.55 2.50 13.10 1.65 4.90 -0.80 7.90 -2.25 12.60 -6.20 2.90 -2.45 4.50 -3.40 6.40 -3.85 3.15 -0.75 3.85 -0.25 2.75 1.90 -0.90 1.75 -1.05 5.85 -0.25 7.95 1.25 3.30 5.50 6.15 9.20 6.15 4.15 0 8.85 -3.55 9.55 -7.20 0.25 -1.55 0.15 -4.35 -0.40 -6.95 -0.15 -0.85 0.40 -0.90 6.35 -1 6.30 -0.10 6.65 -0.15 10 -1.80 2.50 -1.20 4.55 -2.75 7.10 -5.40 1.95 -2 3.90 -3.65 4.25 -3.65 0.40 0 2.20 1.25 4.05 2.75 l3.35 2.75 0.10 3.75 c0 2.05 0.05 4.05 0.10 4.40 0.05 0.35 -0.75 0.65 -2.10 0.75 -2.05 0.15 -2.25 0.05 -5.30 -3.10 -1.75 -1.80 -3.50 -3.30 -3.95 -3.30 -0.60 0 -0.80 1.15 -1.10 6.65 -0.40 8 -0.20 11.45 0.65 11.75 0.35 0.10 2.20 -1.40 4.10 -3.40 3.25 -3.30 3.60 -3.55 5.35 -3.40 2.35 0.20 2.60 1.15 1.40 5.25 -0.90 3.05 -3.30 5.85 -6.80 7.90 -0.95 0.60 -1.75 1.50 -1.85 2.10 -0.15 1.05 0.05 1.10 4 1.25 9.90 0.35 14.65 0.40 15.50 0.10z"/>
  <path d="M79.15 115.50 c-2.20 -1.30 -3.30 -3.65 -3.05 -6.25 0.35 -2.85 1.60 -4.55 4.15 -5.55 4.05 -1.50 7.50 0.05 9.05 4.05 0.80 2.10 0.80 2.40 0 4.50 -1.55 3.95 -6.45 5.55 -10.15 3.25z"/>
  <path d="M44.05 108.75 c-8.10 -2.25 -15.80 -10 -18.75 -18.75 -1.75 -5.35 -2.30 -10.15 -2.65 -24.10 l-0.30 -12.40 3.55 0 c2 0 3.60 0.10 3.60 0.20 0 0.15 -0.50 1.10 -1.10 2.10 -2.30 3.90 -0.85 9.15 2.95 10.95 4.15 2 8.95 0.40 10.70 -3.45 1.20 -2.65 1.20 -4.60 -0.05 -7.05 -0.55 -1.10 -1 -2.15 -1 -2.40 0 -0.20 1.50 -0.35 3.40 -0.25 l3.35 0.15 0.15 4.75 c0.05 2.60 -0.05 8 -0.25 12 l-0.40 7.25 -2.10 0.15 c-1.70 0.15 -2.35 -0.10 -3.85 -1.40 -0.95 -0.85 -2.25 -2.35 -2.80 -3.30 -1.20 -1.90 -2.20 -2.15 -3 -0.75 -0.55 1.05 -0.70 13.40 -0.20 14.75 0.55 1.45 2.05 0.85 3.50 -1.50 1.70 -2.70 3.40 -3.70 6.20 -3.70 2 0 2 0 2 1.95 0 2.65 -2.45 5.80 -6 7.80 -2.90 1.60 -3.25 2.10 -2.50 3.25 0.40 0.65 2.10 0.75 10.35 0.75 9.65 0 9.90 -0.05 10.05 -1.05 0.10 -0.75 -0.70 -1.65 -3.40 -3.65 -4 -3 -4.60 -3.90 -4.40 -6.45 0.15 -1.75 0.25 -1.85 1.95 -2 2.10 -0.20 4.45 1.50 5.45 3.85 0.75 1.85 2 2.40 2.85 1.20 0.50 -0.65 0.65 -2.75 0.55 -7.90 -0.20 -8.40 -0.60 -8.95 -3.90 -4.50 -2.05 2.80 -2.10 2.80 -4.40 2.65 l-2.35 -0.15 0.20 -11.75 c0.10 -6.45 0.25 -11.90 0.40 -12.10 0.30 -0.60 6.05 -0.50 6.40 0.10 0.15 0.25 -0.15 1.10 -0.70 1.85 -3.50 4.80 0.35 12.15 6.30 12.15 5.95 0 9.75 -5.90 7.20 -11.15 -0.60 -1.20 -1.05 -2.30 -1.05 -2.50 0 -0.65 6.40 -0.40 6.65 0.30 0.40 1.15 -0.60 18.10 -1.40 22.80 -1.05 6.30 -2.75 11.15 -5.90 16.95 -6.40 11.75 -15.70 17.05 -25.30 14.35z"/>
  <path d="M71.20 99.80 c-0.30 -0.80 2.10 -5.30 2.90 -5.30 0.85 0 6.45 4.65 6.25 5.20 -0.10 0.35 -2 0.60 -4.50 0.70 -3.50 0.10 -4.40 0 -4.65 -0.60z"/>
  <path d="M88.85 100.15 c-2.55 -0.30 -2.80 -1.30 -0.95 -3.80 7.15 -9.95 20.35 -36.85 24.60 -50.10 0.35 -1.10 1.30 -3.40 2.05 -5.10 l1.40 -3.15 2.45 0 c1.35 0 2.55 0.10 2.70 0.30 0.15 0.15 -0.05 1.30 -0.45 2.60 -0.95 3.20 -0.15 6.05 2.25 8.15 l1.75 1.55 -0.60 5.35 c-0.80 6.70 -2.75 19.20 -3.80 23.90 -1 4.30 -3.70 10.10 -6.15 13.10 -3.80 4.65 -9.60 6.95 -18.10 7.25 -2.90 0.10 -6.10 0.10 -7.15 -0.05z"/>
  <path d="M80.10 94.75 c-1.75 -1.25 -3.25 -2.60 -3.40 -2.95 -0.15 -0.35 0.40 -2.90 1.25 -5.70 2.05 -6.95 2.65 -11.30 3 -22.60 l0.30 -9.75 2.60 -0.35 c3.25 -0.50 6.45 -1.95 9 -4.15 3.15 -2.70 3.65 -4.85 2.40 -9.85 l-0.35 -1.40 6.80 0 c6 0 6.80 0.10 6.80 0.85 0 1.60 -3.15 12.45 -4.90 16.90 -4.60 11.80 -8.65 20.80 -13.25 29.50 -5.50 10.55 -6.20 11.75 -6.75 11.75 -0.25 0 -1.80 -1 -3.50 -2.25z"/>
  <path d="M127.20 92.25 c-2.20 -2.25 -3.20 -4.70 -3.20 -7.75 0 -1.65 0.95 -8.30 3.55 -25.45 l1.20 -7.70 2.05 -0.85 c4.40 -1.90 5.95 -6.30 3.95 -11.10 -0.40 -1 -0.10 -1.05 3.75 -0.90 2.85 0.10 4.80 1.10 6.05 3.15 1.55 2.45 0.95 5.55 -2.30 11.60 -1.45 2.75 -3.05 6.25 -3.50 7.80 -0.90 2.80 -0.90 2.85 0.20 5.10 2 4.10 5.20 5.70 9.45 4.65 1.40 -0.35 1.60 -0.25 1.60 0.65 0 1.25 -2.15 8.15 -3.50 11.20 -1.25 2.85 -4.40 7.05 -6.70 8.95 -2.45 2 -4.85 2.90 -7.85 2.90 -2.45 0 -2.75 -0.15 -4.75 -2.25z"/>
  <path d="M60.75 63.80 c-1.60 -1.60 -2 -3.45 -1.25 -5.35 0.85 -2 2.50 -3.05 4.85 -3.05 2.50 0 4.65 2.30 4.65 4.90 0 4.05 -5.40 6.35 -8.25 3.50z"/>
  <path d="M31.90 63.35 c-2.40 -2.25 -2.10 -6.40 0.55 -7.85 3.25 -1.70 7.55 0.70 7.55 4.25 0 4.05 -5.15 6.30 -8.10 3.60z"/>
  <path d="M48.15 50.15 l-11.15 -0.15 0 -2.50 0 -2.50 9.40 0.05 c5.15 0.05 10.80 0.20 12.60 0.40 3.05 0.30 3.25 0.40 3.40 1.65 0.25 1.90 -0.70 3.40 -2.05 3.30 -0.60 -0.10 -6.10 -0.20 -12.20 -0.25z"/>
  <path d="M66.65 50.20 c-0.40 -0.20 -0.65 -1.20 -0.65 -2.50 l0 -2.25 5.40 0.15 5.35 0.15 0 2.25 0 2.25 -4.75 0.10 c-2.60 0.05 -5.05 -0.05 -5.35 -0.15z"/>
  <path d="M23.05 49.30 c-0.35 -0.40 -0.55 -1.50 -0.45 -2.40 l0.15 -1.65 5.40 -0.15 5.40 -0.15 -0.15 2.40 -0.15 2.40 -4.80 0.15 c-3.75 0.10 -4.95 -0.05 -5.40 -0.60z"/>
  <path d="M82.15 48.65 c-0.45 -0.15 -0.65 -1.70 -0.65 -5.20 0 -4.70 0.05 -4.95 1.25 -5.75 0.95 -0.65 1.90 -0.75 3.80 -0.55 3.05 0.40 3.40 0.55 4.25 2.60 0.90 2.20 0.20 6.10 -1.30 7.35 -1.80 1.45 -5.65 2.25 -7.35 1.55z"/>
  <path d="M10.65 47.50 c-3.40 -0.80 -4.85 -3.30 -4.55 -7.55 0.15 -2.20 0.50 -3.25 1.40 -4.20 1.15 -1.25 1.35 -1.30 6.75 -1.15 l5.50 0.15 0 6.50 0 6.50 -3.75 0.10 c-2.05 0.05 -4.50 -0.10 -5.35 -0.35z"/>
  <path d="M125.15 47.05 c-3.10 -1.95 -2.50 -6.85 1 -8 2.10 -0.70 4.45 0.05 5.55 1.70 2.75 4.20 -2.25 9 -6.55 6.30z"/>
  <path d="M56 41.55 l-4.25 -0.30 -0.15 -2.45 c-0.10 -1.35 0.05 -2.65 0.30 -2.90 0.25 -0.25 5.70 -0.30 12.80 -0.10 l12.35 0.35 -0.15 2.80 -0.15 2.80 -8.25 0.05 c-4.55 0 -10.15 -0.10 -12.50 -0.25z"/>
  <path d="M23.10 40.90 c-0.85 -0.85 -0.75 -4.75 0.10 -5.25 0.40 -0.20 6.15 -0.35 12.75 -0.25 l12.05 0.15 0 2.95 0 3 -12.15 0 c-8.80 0 -12.30 -0.15 -12.75 -0.60z"/>
  <path d="M81.85 33.15 c-0.20 -0.15 -0.35 -2.75 -0.35 -5.75 0 -4.40 0.15 -5.50 0.75 -5.70 1.30 -0.50 4.15 0.30 5.75 1.60 1.20 1.05 1.50 1.70 1.50 3.25 0 2.70 -1.30 5.70 -2.80 6.40 -1.35 0.60 -4.35 0.75 -4.85 0.20z"/>
  <path d="M48.40 32.65 l-6.40 -0.20 0 -2.25 c0 -1.35 0.25 -2.30 0.65 -2.45 0.30 -0.10 4.55 -0.05 9.35 0.15 l8.75 0.35 0.15 1.65 c0.25 2.45 -0.55 3.10 -3.60 3 -1.40 -0.05 -5.40 -0.20 -8.90 -0.25z"/>
  <path d="M64.50 30.50 l0 -2.55 6.15 0.15 6.10 0.15 0.15 2.40 0.15 2.35 -6.25 0 -6.30 0 0 -2.50z"/>
  <path d="M125.75 31.75 c-0.95 -0.90 -1.25 -1.75 -1.25 -3.25 0 -2.80 1.70 -4.50 4.50 -4.50 2.80 0 4.50 1.70 4.50 4.50 0 2.80 -1.70 4.50 -4.50 4.50 -1.50 0 -2.35 -0.30 -3.25 -1.25z"/>
  <path d="M23.20 31.80 c-0.15 -0.40 -0.20 -1.45 -0.10 -2.40 l0.15 -1.65 7.50 0 7.50 0 0.15 2.40 0.15 2.35 -7.55 0 c-6 0 -7.60 -0.15 -7.80 -0.70z"/>
  <path d="M11.25 31.15 c-1.70 -0.45 -2.25 -1.20 -2.25 -3.25 0 -2.50 1.05 -5.05 2.55 -6.10 1.35 -0.95 8.15 -1.15 8.75 -0.25 0.15 0.30 0.15 2.65 -0.05 5.25 l-0.35 4.70 -3.80 -0.05 c-2.15 -0.05 -4.30 -0.20 -4.85 -0.30z"/>
  <path d="M142.10 26.70 c-1.30 -0.90 -1.40 -2.05 -0.30 -3.60 1.70 -2.45 5.15 -0.30 3.75 2.35 -0.90 1.65 -2.20 2.15 -3.45 1.25z"/>
  <path d="M38.20 23.70 c-3 -1.45 -3.65 -5.35 -1.25 -7.75 1.90 -1.90 4.35 -1.95 6.45 -0.20 2.70 2.25 2.50 5.65 -0.40 7.65 -1.95 1.30 -2.70 1.35 -4.80 0.30z"/>
  <path d="M59.30 22.20 c-2.90 -2.95 -0.70 -8.20 3.45 -8.20 2.55 0 4.75 2.20 4.75 4.75 0 4.15 -5.25 6.35 -8.20 3.45z"/>
 </g>
</svg>
