<?xml version="1.0" encoding="utf-8"?>
<!DOCTYPE svg PUBLIC "-//W3C//DTD SVG 1.0//EN" "http://www.w3.org/TR/2001/REC-SVG-20010904/DTD/svg10.dtd">
<svg version="1.0" xmlns="http://www.w3.org/2000/svg" width="176px" height="97px" viewBox="0 0 176 97" preserveAspectRatio="xMidYMid meet">
 <g fill="#000000">
  <path d="M31.25 94.55 c-2.95 -1.80 -3.50 -2.85 -3.50 -6.60 l0 -3.50 2.40 -2.25 2.35 -2.30 0 -14.70 c0 -8.10 -0.20 -14.70 -0.45 -14.70 -1 0 -1.45 1.60 -2.45 8.85 -1.70 11.60 -5.85 22.25 -9.65 24.55 -1.70 1.05 -5.25 0.85 -7.90 -0.50 -1.80 -0.95 -2.60 -1.75 -3.65 -3.90 -1.70 -3.25 -1.75 -5.50 -0.20 -8.50 1.15 -2.30 4.10 -4.50 6.05 -4.50 1.55 0 4.10 1.80 5 3.45 1.25 2.40 0.95 4.35 -0.90 6.35 -1.50 1.65 -1.80 1.75 -2.80 1.20 -1.20 -0.60 -1.20 -0.90 0 -3.85 0.50 -1.30 0.50 -1.70 0 -2.35 -0.40 -0.45 -1.05 -0.80 -1.45 -0.80 -1.25 0 -3.60 2.55 -3.60 3.90 0 3.40 3.40 6.90 6.20 6.35 1.85 -0.35 2.65 -1 3.80 -3.20 1.60 -3.15 5.40 -19.35 5.60 -24.05 l0.15 -2.75 -4.10 -0.15 c-3.65 -0.15 -4.10 -0.05 -4.40 0.85 -0.15 0.55 -1.15 1.75 -2.25 2.70 -5.35 4.90 -14.10 1.15 -14.10 -6.05 0 -3.45 1.25 -5.85 4 -7.45 4.35 -2.55 9.95 -1.10 11.95 3.10 l0.85 1.75 4.05 0 4.10 0 0.35 -8.65 c0.40 -9.95 -0.20 -15.10 -2.75 -22.05 -2.25 -6.25 -4.85 -8.10 -7.85 -5.55 -2.15 1.80 -2.85 4.15 -1.90 6.45 1.25 3.05 2.65 2 2.90 -2.15 0.15 -3.05 1.20 -4.25 2.60 -3.10 0.60 0.50 0.80 1.60 0.80 4 0 2.85 -0.15 3.55 -1.10 4.40 -2.85 2.60 -6.40 1.50 -8.40 -2.60 -1.45 -3 -1.10 -5.30 1.10 -7.65 3.25 -3.40 8.55 -4.65 11.60 -2.65 1.90 1.25 5.05 7.25 6.45 12.30 0.95 3.40 1.10 5.70 1.35 15.75 l0.25 11.75 4.75 0 4.75 0 0.35 -3.75 c0.70 -7.50 1.45 -11.40 3.60 -19.25 4.20 -15.20 7.55 -20.30 14.45 -21.95 4.20 -1 8.65 5.25 7.30 10.35 -0.70 2.60 -3.15 5.25 -5.25 5.65 -4.60 0.85 -8.45 -4.10 -5.90 -7.70 1.85 -2.65 4.55 -2.55 3.95 0.10 -0.70 3.40 -0.55 4.55 0.60 4.70 1.45 0.20 2.65 -2.10 2.65 -5.05 0 -3.65 -2.50 -4.90 -5.85 -2.90 -2.20 1.35 -3.80 4.45 -5.40 10.30 -0.75 2.75 -1.90 6.90 -2.55 9.25 -1.25 4.65 -3.40 18.75 -3 19.85 0.20 0.50 2.65 0.65 12.05 0.65 l11.75 0 0 -8.30 0 -8.30 -2.60 -3.75 c-1.95 -2.80 -2.40 -3.85 -1.95 -4.15 0.65 -0.40 13.05 -0.05 13.55 0.35 0.15 0.15 -0.70 2.05 -1.90 4.30 l-2.15 4.10 0.15 8 0.15 8 5.60 0.15 5.60 0.15 0.15 -7.05 c0.10 -3.90 0 -7.50 -0.20 -8.05 -0.20 -0.50 -1.60 -2.60 -3.15 -4.60 -4.10 -5.50 -4.25 -5.35 5.25 -5.35 6.70 0 8 0.10 8 0.75 0 0.40 -1.10 2.60 -2.50 4.95 l-2.50 4.25 0 7.50 0 7.55 6 0 6 0 0 -7.85 0 -7.90 -2.75 -3.95 c-1.50 -2.20 -2.75 -4.30 -2.75 -4.65 0 -0.50 1.70 -0.65 8 -0.65 6.65 0 8 0.10 8 0.70 0 0.40 -0.20 0.85 -0.45 1.05 -0.30 0.15 -1.50 1.95 -2.75 4.05 l-2.30 3.75 0 7.70 c0 7.25 0.05 7.70 1 8 1.55 0.50 1.90 -0.05 1.90 -2.75 0 -3.90 2.15 -6.35 5.95 -6.80 3.80 -0.50 7.30 3.20 7.05 7.30 l-0.15 2.25 3.50 0 3.50 0 0.60 -10 c1.05 -18.40 0.65 -25.35 -1.75 -29.40 -1.90 -3.25 -7.35 -2.75 -8.85 0.85 -1.10 2.65 -0.95 5.95 0.30 7.10 1.75 1.55 2.65 0.45 2.85 -3.45 0.15 -3.30 0.70 -4.15 2.30 -3.55 1.90 0.70 3.05 6.95 1.65 8.70 -2.85 3.65 -9.10 3.20 -11.40 -0.85 -2.15 -3.70 -1.35 -8.85 1.85 -11.60 1.70 -1.55 5.80 -3.05 8.20 -3.05 2.55 0 5.65 2.05 7.10 4.70 2.15 4.10 2.45 6.95 2.35 24.40 l-0.05 16.15 5.20 0.15 5.25 0.15 0.30 -3.90 c1.20 -14 1.50 -16.85 2.35 -20.65 1.35 -6.15 2.75 -9.60 5.05 -12.20 3.45 -3.90 5.90 -4.60 9.40 -2.80 2.10 1.05 4.05 4.40 4.05 6.85 0 1.90 -2.20 6.45 -3.45 7.10 -3.25 1.75 -7.05 -0.70 -7.05 -4.60 0 -3.70 3.15 -6.40 4.50 -3.90 0.40 0.75 0.30 1.45 -0.35 2.75 -0.65 1.45 -0.70 1.90 -0.15 2.55 1 1.20 2 0.90 2.80 -1 0.90 -2.20 0.90 -3.80 0 -6 -0.65 -1.50 -1 -1.75 -2.35 -1.75 -0.85 0 -2.30 0.45 -3.15 1 -2.55 1.55 -3.65 4.10 -4.55 10.75 -1.30 9.60 -2.80 24.40 -2.55 25 0.20 0.65 5.40 1.35 6.55 0.95 0.35 -0.15 0.95 -0.95 1.30 -1.80 0.35 -0.85 1.50 -2.15 2.60 -2.95 1.65 -1.20 2.50 -1.45 4.80 -1.45 5.25 0 8.05 2.95 8.05 8.35 0 2.90 -0.15 3.30 -1.80 5.10 -2.15 2.40 -4.45 3.25 -7.55 2.80 -1.80 -0.25 -2.85 -0.85 -4.90 -2.80 l-2.60 -2.45 -3.55 0 -3.50 0 -0.35 3.80 c-0.90 9.30 0.50 17.55 3.55 21.15 3.90 4.65 10.45 -0.30 8.20 -6.20 -0.35 -1 -0.80 -1.30 -1.65 -1.15 -0.95 0.15 -1.10 0.50 -1.25 2.90 -0.15 2.95 -0.70 4 -2.10 4 -1.25 0 -2.05 -1.15 -2.35 -3.40 -0.75 -5.55 5.95 -9.95 9.45 -6.20 1.90 2 2.40 3.25 2.40 5.85 0 4.50 -3.30 8.30 -7.80 9.05 -4.05 0.60 -8.35 -3.05 -10.80 -9.20 -0.95 -2.50 -1.15 -3.95 -1.30 -11.70 l-0.20 -8.90 -1.45 0 -1.45 0 0 12.05 0 12.05 2.20 1.95 c2.55 2.25 3.50 4.60 3.15 7.75 -0.45 4.20 -4 7.30 -8.35 7.30 -4.95 0 -8.50 -3.50 -8.50 -8.45 0 -3.05 1.85 -6.10 4.60 -7.65 l1.90 -1.05 0 -9.65 c0 -5.30 0.15 -10.70 0.30 -12 l0.35 -2.30 -2.35 0 c-1.25 0 -2.30 0.15 -2.30 0.30 0 2.65 -3.60 20.25 -5.35 25.90 -0.55 1.90 -4.20 5.30 -6.25 5.85 -3.65 0.95 -7.95 -0.75 -9.80 -3.85 -0.55 -0.85 -0.65 -0.90 -1.25 -0.15 -2.30 3 -7.80 3.90 -10.90 1.80 -0.95 -0.60 -2.25 -2.10 -2.90 -3.30 l-1.20 -2.20 -1.05 2.20 c-3.10 6.50 -11.95 6.50 -15.25 0.05 l-0.90 -1.80 -1.35 2.15 c-1.50 2.30 -4.45 4 -7.05 4.05 -2.05 0 -5.70 -1.90 -6.95 -3.65 -0.65 -0.90 -1.05 -2.40 -1.20 -4.50 -0.15 -2.65 0 -3.35 1 -4.85 0.65 -0.95 2.15 -2.25 3.30 -2.90 l2.10 -1.15 0 -7.40 0 -7.40 -11.85 -0.25 c-6.55 -0.15 -12.10 -0.10 -12.35 0.10 -0.75 0.75 -0.05 18.35 0.95 22.40 1.10 4.80 3 7.10 5.75 7.10 1.60 0 2.20 -0.30 3.45 -1.85 2.15 -2.60 2.15 -7.15 0.05 -7.15 -1.25 0 -1.70 0.80 -2 3.70 -0.30 2.95 -1.45 3.95 -2.90 2.60 -1.40 -1.20 -1.60 -2.35 -0.80 -4.55 1.35 -4.05 5.30 -6.30 7.95 -4.55 1.95 1.25 3.45 4.75 3.05 6.95 -0.35 2 -2.80 5.45 -4.85 6.95 -1.70 1.25 -5.05 1.70 -6.95 0.90 -2.35 -1 -5.75 -5.05 -6.65 -8.10 -1.10 -3.40 -1.90 -11 -2 -18.65 l-0.10 -6 -1.30 -0.15 c-1.30 -0.15 -1.30 -0.15 -1.60 4.45 -0.20 2.55 -0.35 9.30 -0.35 15 l0 10.35 1.70 1.05 c4.55 2.85 4.35 10.20 -0.30 13.05 -2.10 1.30 -5.65 1.30 -7.65 0.05z m6.65 -2.05 c2.95 -1.80 3.50 -5.65 1.15 -8 -2.70 -2.75 -6.40 -2.50 -8.40 0.45 -1.35 2 -1.45 3.55 -0.40 5.55 1.50 2.85 4.80 3.75 7.65 2z m106.90 -4.20 c1.90 -1.90 2.15 -3.45 0.90 -6.05 -2.45 -5.25 -10.20 -3.10 -10.20 2.80 0 1.10 0.50 2.05 1.70 3.25 1.40 1.40 2.10 1.70 3.80 1.70 1.70 0 2.40 -0.30 3.80 -1.70z m-52.90 -8.30 c4 -2.45 3.20 -8.70 -1.35 -10.05 -2.45 -0.75 -4.30 -0.30 -5.85 1.40 -1.60 1.75 -1.95 3.30 -1.25 5.70 1.10 3.60 5.10 5 8.45 2.95z m31.30 -0.05 c2.80 -2.20 4.45 -7.55 6.35 -20.40 1.20 -8.20 1.25 -8.15 -2.80 -7.95 l-2.50 0.15 -0.25 2.55 c-0.30 3.10 -1.55 5.05 -3.75 6 -2.30 0.95 -3.45 0.90 -5.70 -0.30 -2.30 -1.15 -3.70 -3.75 -3.45 -6.40 0.15 -1.60 0 -1.85 -1.05 -2 -0.65 -0.10 -1.35 0.10 -1.55 0.45 -0.50 0.80 -0.60 13.55 -0.15 14.25 0.25 0.30 1.15 0.95 2.05 1.50 0.90 0.50 2.10 1.70 2.65 2.55 l1 1.60 1.90 -1.95 c1.20 -1.25 2.35 -2 3.10 -2 2.95 0 5.30 3.50 4.40 6.65 -0.55 2.10 -1.50 3 -3.05 2.75 -1.20 -0.15 -1.35 -1.10 -0.65 -4 0.30 -1.05 0.15 -1.45 -0.50 -1.75 -1.40 -0.50 -2.75 1.55 -2.75 4.20 0 1.80 0.30 2.50 1.45 3.70 1.75 1.70 3.40 1.85 5.25 0.40z m-15 0.05 c1.60 -0.60 3.30 -3.25 3.30 -5.15 0 -2 -1.30 -4.20 -3 -5.10 -4.30 -2.20 -9 1.10 -8.35 5.85 0.50 3.90 4.15 5.90 8.05 4.40z m-33.40 -0.95 c3.25 -2 3.50 -6.30 0.40 -9 -4.75 -4.20 -11.40 1.30 -8.45 6.95 1.50 2.85 5.20 3.80 8.05 2.05z m24.90 -9.95 c0.55 -0.65 1.65 -1.50 2.45 -1.90 l1.35 -0.75 0 -7.40 0 -7.40 -5.55 -0.35 c-3 -0.15 -5.70 -0.20 -6 -0.05 -0.25 0.20 -0.45 3.75 -0.45 8 l0 7.65 1.70 1 c1 0.60 2.25 1.95 2.85 3.15 l1.05 2.15 0.75 -1.50 c0.45 -0.80 1.25 -2 1.85 -2.60z m-18.30 1.70 c0.60 -0.95 1.95 -2.35 3.10 -3.05 l2.05 -1.30 -0.15 -7.60 -0.15 -7.60 -5.60 -0.15 -5.65 -0.15 0 7.60 0 7.60 1.95 1.65 c1.05 0.90 2.20 2.35 2.55 3.20 0.35 0.80 0.70 1.50 0.75 1.50 0.10 0 0.60 -0.80 1.15 -1.70z m38.50 -13.65 c0.60 -0.50 1.20 -1.50 1.40 -2.25 0.25 -1.10 0 -1.65 -1.20 -2.90 -1.80 -1.75 -3 -1.90 -4.80 -0.45 -2.60 2.05 -1.15 6.45 2.15 6.45 0.80 0 1.90 -0.40 2.45 -0.85z m50.50 -3.15 c0.65 0 2.10 -3.65 2.10 -5.25 -0.05 -3.10 -2.35 -5.25 -5.65 -5.25 -1.55 0 -2.30 0.35 -3.65 1.70 -4.20 4.20 -0.25 10.75 5.55 9.20 0.80 -0.20 1.55 -0.40 1.65 -0.40z m-157.50 -1.50 c3.10 -1.90 3.50 -5.70 0.90 -8.30 -1.45 -1.45 -2.05 -1.70 -3.95 -1.70 -5.05 0 -7.35 5.40 -3.95 9.20 1.80 2 4.55 2.30 7 0.80z m107.65 -6.40 c1.65 -1.35 1.50 -3.90 -0.25 -5.45 -1.65 -1.40 -2.80 -1.45 -4.50 -0.10 -0.95 0.75 -1.30 1.50 -1.30 2.75 0 3.25 3.45 4.85 6.05 2.80z"/>
 </g>
 <g fill="none">
  <path d="M0 48.50 l0 -48.50 88 0 88 0 0 48.50 0 48.50 -88 0 -88 0 0 -48.50z m38.90 46 c4.65 -2.85 4.85 -10.20 0.30 -13.05 l-1.70 -1.05 0 -10.35 c0 -5.70 0.15 -12.45 0.35 -15 0.30 -4.60 0.30 -4.60 1.60 -4.45 l1.30 0.15 0.10 6 c0.10 7.65 0.90 15.25 2 18.65 0.90 3.05 4.30 7.10 6.65 8.10 1.90 0.80 5.25 0.35 6.95 -0.90 2.05 -1.50 4.50 -4.95 4.85 -6.95 0.40 -2.20 -1.10 -5.70 -3.05 -6.95 -2.65 -1.75 -6.60 0.50 -7.95 4.55 -0.80 2.20 -0.60 3.35 0.80 4.55 1.45 1.35 2.60 0.35 2.90 -2.60 0.30 -2.90 0.75 -3.70 2 -3.70 2.10 0 2.10 4.55 -0.05 7.15 -1.25 1.55 -1.85 1.85 -3.45 1.85 -2.75 0 -4.65 -2.30 -5.75 -7.10 -1 -4.05 -1.70 -21.65 -0.95 -22.40 0.25 -0.20 5.80 -0.25 12.35 -0.10 l11.85 0.25 0 7.40 0 7.40 -2.10 1.15 c-1.15 0.65 -2.65 1.95 -3.30 2.90 -1 1.50 -1.15 2.20 -1 4.85 0.15 2.10 0.55 3.60 1.20 4.50 1.25 1.75 4.90 3.65 6.95 3.65 2.60 -0.05 5.55 -1.75 7.05 -4.05 l1.35 -2.15 0.90 1.80 c3.30 6.45 12.15 6.45 15.25 -0.05 l1.05 -2.20 1.20 2.20 c0.65 1.20 1.95 2.70 2.90 3.30 3.10 2.10 8.60 1.20 10.90 -1.80 0.60 -0.75 0.70 -0.70 1.25 0.15 1.85 3.10 6.15 4.80 9.80 3.85 2.05 -0.55 5.70 -3.95 6.25 -5.85 1.75 -5.65 5.35 -23.25 5.35 -25.90 0 -0.15 1.05 -0.30 2.30 -0.30 l2.35 0 -0.35 2.30 c-0.15 1.30 -0.30 6.70 -0.30 12 l0 9.65 -1.90 1.05 c-2.75 1.55 -4.60 4.60 -4.60 7.65 0 4.95 3.55 8.45 8.50 8.45 4.35 0 7.90 -3.10 8.35 -7.30 0.35 -3.15 -0.60 -5.50 -3.15 -7.75 l-2.20 -1.95 0 -12.05 0 -12.05 1.45 0 1.45 0 0.20 8.90 c0.15 7.75 0.35 9.20 1.30 11.70 2.45 6.15 6.75 9.80 10.80 9.20 4.50 -0.75 7.80 -4.55 7.80 -9.05 0 -2.60 -0.50 -3.85 -2.40 -5.85 -3.50 -3.75 -10.20 0.65 -9.45 6.20 0.30 2.25 1.10 3.40 2.35 3.40 1.40 0 1.95 -1.05 2.10 -4 0.15 -2.40 0.30 -2.75 1.25 -2.90 0.85 -0.15 1.30 0.15 1.65 1.15 2.25 5.90 -4.30 10.85 -8.20 6.20 -3.05 -3.60 -4.45 -11.85 -3.55 -21.15 l0.35 -3.80 3.50 0 3.55 0 2.60 2.45 c2.05 1.95 3.10 2.55 4.90 2.80 3.10 0.45 5.40 -0.40 7.55 -2.80 1.65 -1.80 1.80 -2.20 1.80 -5.10 0 -5.40 -2.80 -8.35 -8.05 -8.35 -2.30 0 -3.15 0.25 -4.80 1.45 -1.10 0.80 -2.25 2.10 -2.60 2.95 -0.35 0.85 -0.95 1.65 -1.30 1.80 -1.15 0.40 -6.35 -0.30 -6.55 -0.95 -0.25 -0.60 1.25 -15.40 2.55 -25 0.90 -6.65 2 -9.20 4.55 -10.75 0.85 -0.55 2.30 -1 3.15 -1 1.35 0 1.70 0.25 2.35 1.75 0.90 2.20 0.90 3.80 0 6 -0.80 1.90 -1.80 2.20 -2.80 1 -0.55 -0.65 -0.50 -1.10 0.15 -2.55 0.65 -1.30 0.75 -2 0.35 -2.75 -1.35 -2.50 -4.50 0.20 -4.50 3.90 0 3.90 3.80 6.35 7.05 4.60 1.25 -0.65 3.45 -5.20 3.45 -7.10 0 -2.45 -1.95 -5.80 -4.05 -6.85 -3.50 -1.80 -5.95 -1.10 -9.40 2.80 -2.30 2.60 -3.70 6.05 -5.05 12.20 -0.85 3.80 -1.15 6.65 -2.35 20.65 l-0.30 3.90 -5.25 -0.15 -5.20 -0.15 0.05 -16.15 c0.10 -17.45 -0.20 -20.30 -2.35 -24.40 -1.45 -2.65 -4.55 -4.70 -7.10 -4.70 -2.40 0 -6.50 1.50 -8.20 3.05 -3.20 2.75 -4 7.90 -1.85 11.60 2.30 4.05 8.55 4.50 11.40 0.85 1.40 -1.75 0.25 -8 -1.65 -8.70 -1.60 -0.60 -2.15 0.25 -2.30 3.55 -0.20 3.90 -1.10 5 -2.85 3.45 -1.25 -1.15 -1.40 -4.45 -0.30 -7.10 1.50 -3.60 6.95 -4.10 8.85 -0.85 2.40 4.05 2.80 11 1.75 29.40 l-0.60 10 -3.50 0 -3.50 0 0.15 -2.25 c0.25 -4.10 -3.25 -7.80 -7.05 -7.30 -3.80 0.45 -5.95 2.90 -5.95 6.80 0 2.70 -0.35 3.25 -1.90 2.75 -0.95 -0.30 -1 -0.75 -1 -8 l0 -7.70 2.30 -3.75 c1.25 -2.10 2.45 -3.90 2.75 -4.05 0.25 -0.20 0.45 -0.65 0.45 -1.05 0 -0.60 -1.35 -0.70 -8 -0.70 -6.30 0 -8 0.15 -8 0.65 0 0.35 1.25 2.45 2.75 4.65 l2.75 3.95 0 7.90 0 7.85 -6 0 -6 0 0 -7.55 0 -7.50 2.50 -4.25 c1.40 -2.35 2.50 -4.55 2.50 -4.95 0 -0.65 -1.30 -0.75 -8 -0.75 -9.50 0 -9.35 -0.15 -5.25 5.35 1.55 2 2.95 4.10 3.15 4.60 0.20 0.55 0.30 4.15 0.20 8.05 l-0.15 7.05 -5.60 -0.15 -5.60 -0.15 -0.15 -8 -0.15 -8 2.15 -4.10 c1.20 -2.25 2.05 -4.15 1.90 -4.30 -0.50 -0.40 -12.90 -0.75 -13.55 -0.35 -0.45 0.30 0 1.35 1.95 4.15 l2.60 3.75 0 8.30 0 8.30 -11.75 0 c-9.40 0 -11.85 -0.15 -12.05 -0.65 -0.40 -1.10 1.75 -15.20 3 -19.85 0.65 -2.35 1.80 -6.50 2.55 -9.25 1.60 -5.85 3.20 -8.95 5.40 -10.30 3.35 -2 5.85 -0.75 5.85 2.90 0 2.95 -1.20 5.25 -2.65 5.05 -1.15 -0.15 -1.30 -1.30 -0.60 -4.70 0.60 -2.65 -2.10 -2.75 -3.95 -0.10 -2.55 3.60 1.30 8.55 5.90 7.70 2.10 -0.40 4.55 -3.05 5.25 -5.65 1.35 -5.10 -3.10 -11.35 -7.30 -10.35 -6.90 1.65 -10.25 6.75 -14.45 21.95 -2.15 7.85 -2.90 11.75 -3.60 19.25 l-0.35 3.75 -4.75 0 -4.75 0 -0.25 -11.75 c-0.25 -10.05 -0.40 -12.35 -1.35 -15.75 -1.40 -5.05 -4.55 -11.05 -6.45 -12.30 -3.05 -2 -8.35 -0.75 -11.60 2.65 -2.20 2.35 -2.55 4.65 -1.10 7.65 2 4.10 5.55 5.20 8.40 2.60 0.95 -0.85 1.10 -1.55 1.10 -4.40 0 -2.40 -0.20 -3.50 -0.80 -4 -1.40 -1.15 -2.45 0.05 -2.60 3.10 -0.25 4.15 -1.65 5.20 -2.90 2.15 -0.95 -2.30 -0.25 -4.65 1.90 -6.45 3 -2.55 5.60 -0.70 7.85 5.55 2.55 6.95 3.15 12.10 2.75 22.05 l-0.35 8.65 -4.10 0 -4.05 0 -0.85 -1.75 c-2 -4.20 -7.60 -5.65 -11.95 -3.10 -2.75 1.60 -4 4 -4 7.45 0 7.20 8.75 10.95 14.10 6.05 1.10 -0.95 2.10 -2.15 2.25 -2.70 0.30 -0.90 0.75 -1 4.40 -0.85 l4.10 0.15 -0.15 2.75 c-0.20 4.70 -4 20.90 -5.60 24.05 -1.15 2.20 -1.95 2.85 -3.80 3.20 -2.80 0.55 -6.20 -2.95 -6.20 -6.35 0 -1.35 2.35 -3.90 3.60 -3.90 0.40 0 1.05 0.35 1.45 0.80 0.50 0.65 0.50 1.05 0 2.35 -1.20 2.95 -1.20 3.25 0 3.85 1 0.55 1.30 0.45 2.80 -1.20 1.85 -2 2.15 -3.95 0.90 -6.35 -0.90 -1.65 -3.45 -3.45 -5 -3.45 -1.95 0 -4.90 2.20 -6.05 4.50 -1.55 3 -1.50 5.25 0.20 8.50 1.05 2.15 1.85 2.95 3.65 3.90 2.65 1.35 6.20 1.55 7.90 0.50 3.80 -2.30 7.95 -12.95 9.65 -24.55 1 -7.25 1.45 -8.85 2.45 -8.85 0.25 0 0.45 6.60 0.45 14.70 l0 14.70 -2.35 2.30 -2.40 2.25 0 3.50 c0 2.75 0.20 3.65 1 4.55 2.70 3.05 7 3.90 10.15 2z"/>
  <path d="M32.40 92.70 c-1.55 -0.85 -2.90 -3.05 -2.90 -4.85 0 -3.10 3.70 -5.90 6.80 -5.15 4.65 1.20 5.65 7.30 1.60 9.80 -1.95 1.15 -3.65 1.25 -5.50 0.20z"/>
  <path d="M137.20 88.30 c-1.20 -1.20 -1.70 -2.15 -1.70 -3.25 0 -5.90 7.75 -8.05 10.20 -2.80 1.25 2.60 1 4.15 -0.90 6.05 -1.40 1.40 -2.10 1.70 -3.80 1.70 -1.70 0 -2.40 -0.30 -3.80 -1.70z"/>
  <path d="M85.65 80 c-1.75 -1.05 -3 -4.05 -2.50 -6.10 0.45 -1.70 2.50 -3.80 4.10 -4.20 0.75 -0.20 2.25 -0.05 3.30 0.25 4.55 1.35 5.35 7.60 1.35 10.05 -2.10 1.25 -4.20 1.25 -6.25 0z"/>
  <path d="M117.95 79.55 c-1.15 -1.20 -1.45 -1.90 -1.45 -3.70 0 -2.65 1.35 -4.70 2.75 -4.20 0.65 0.30 0.80 0.70 0.50 1.75 -0.70 2.90 -0.55 3.85 0.65 4 3.65 0.55 4.45 -6.20 1.05 -8.60 -1.90 -1.30 -3.40 -1 -5.50 1.20 l-1.90 1.95 -1 -1.60 c-0.55 -0.85 -1.75 -2.05 -2.65 -2.55 -0.90 -0.55 -1.80 -1.20 -2.05 -1.50 -0.45 -0.70 -0.35 -13.45 0.15 -14.25 0.20 -0.35 0.90 -0.55 1.55 -0.45 1.05 0.15 1.20 0.40 1.05 2 -0.25 2.65 1.15 5.25 3.45 6.40 2.25 1.20 3.40 1.25 5.70 0.30 2.20 -0.95 3.45 -2.90 3.75 -6 l0.25 -2.55 2.50 -0.15 c4.05 -0.20 4 -0.25 2.80 7.95 -1.90 12.85 -3.55 18.20 -6.35 20.40 -1.85 1.45 -3.50 1.30 -5.25 -0.40z"/>
  <path d="M103.25 80.05 c-4.05 -1.70 -4.20 -8.25 -0.25 -10.30 5.35 -2.75 10.65 3 7.50 8.15 -1.45 2.35 -4.50 3.25 -7.25 2.15z"/>
  <path d="M68.90 79.20 c-5.10 -2.75 -2.85 -10.70 3.05 -10.70 2.10 0 4.90 2.55 5.35 4.80 0.85 4.70 -4.15 8.25 -8.40 5.90z"/>
  <path d="M96.05 71.05 c-0.60 -1.20 -1.85 -2.55 -2.85 -3.15 l-1.70 -1 0 -7.65 c0 -4.25 0.20 -7.80 0.45 -8 0.30 -0.15 3 -0.10 6 0.05 l5.55 0.35 0 7.40 0 7.40 -1.35 0.75 c-1.70 0.85 -3.25 2.55 -4.30 4.50 l-0.75 1.50 -1.05 -2.15z"/>
  <path d="M79.50 71 c-0.35 -0.85 -1.50 -2.30 -2.55 -3.20 l-1.95 -1.65 0 -7.60 0 -7.60 5.65 0.15 5.60 0.15 0.15 7.60 0.15 7.60 -2.05 1.30 c-1.15 0.70 -2.50 2.10 -3.10 3.05 -0.55 0.90 -1.05 1.70 -1.15 1.70 -0.05 0 -0.40 -0.70 -0.75 -1.50z"/>
  <path d="M115 57 c-1.50 -1.50 -1.35 -4.15 0.30 -5.45 1.80 -1.45 3 -1.30 4.80 0.45 1.20 1.25 1.45 1.80 1.20 2.90 -0.70 2.90 -4.30 4.10 -6.30 2.10z"/>
  <path d="M166.25 54.65 c-3.05 -0.55 -4.75 -2.70 -4.75 -5.95 0 -2.60 2.65 -5.20 5.35 -5.20 3.30 0 5.60 2.15 5.65 5.25 0 1.60 -1.45 5.25 -2.10 5.25 -0.10 0 -0.85 0.20 -1.65 0.40 -0.85 0.25 -1.95 0.35 -2.50 0.25z"/>
  <path d="M7.75 53.05 c-2.50 -1.05 -3.95 -4.10 -3.20 -6.75 0.70 -2.45 2.55 -3.80 5.30 -3.80 1.90 0 2.50 0.25 3.95 1.70 1.80 1.80 2.15 3.55 1.20 6 -0.90 2.45 -4.65 3.90 -7.25 2.85z"/>
  <path d="M115.50 46 c-1.50 -1.50 -1.35 -4.15 0.30 -5.45 1.70 -1.35 2.85 -1.30 4.50 0.10 2.70 2.35 1.20 6.35 -2.35 6.35 -0.80 0 -1.90 -0.45 -2.45 -1z"/>
 </g>
</svg>
