<?xml version="1.0" encoding="utf-8"?>
<!DOCTYPE svg PUBLIC "-//W3C//DTD SVG 1.0//EN" "http://www.w3.org/TR/2001/REC-SVG-20010904/DTD/svg10.dtd">
<svg version="1.0" xmlns="http://www.w3.org/2000/svg" width="101px" height="131px" viewBox="0 0 101 131" preserveAspectRatio="xMidYMid meet">
 <g fill="#000000">
  <path d="M45.25 129.30 c-1.90 -0.85 -4.50 -3.60 -5.20 -5.45 -0.80 -2.05 -0.65 -5.55 0.25 -7.85 0.45 -1.15 0.75 -2.10 0.65 -2.20 -0.10 -0.10 -7.35 -0.30 -16.10 -0.40 -13.10 -0.20 -15.85 -0.15 -15.85 0.45 0 0.90 4.20 5 7.15 7 1.30 0.90 2.35 2 2.35 2.45 0 0.75 -0.55 0.80 -5.60 0.50 -9.65 -0.55 -11.90 -0.85 -11.90 -1.65 0 -1.55 4.65 -14.40 6.70 -18.60 3.95 -8 7 -11.65 11.60 -13.80 3.95 -1.85 7.50 -2.65 17.90 -4 5.20 -0.65 9.65 -1.40 9.90 -1.65 0.25 -0.25 0.35 -2.55 0.30 -5.15 l-0.15 -4.70 -5.75 0 -5.75 0 -1.20 1.85 c-0.65 1.05 -1.40 1.75 -1.60 1.60 -0.50 -0.30 -0.60 -10.85 -0.10 -12.60 0.30 -1.15 0.35 -1.10 2.15 1 l1.90 2.15 4.85 0.15 c3.10 0.15 5.05 0 5.40 -0.35 0.65 -0.65 1.20 -21.30 0.55 -21.65 -0.25 -0.15 -6.95 -0.35 -14.95 -0.45 l-14.50 -0.20 -0.15 1.15 c-0.25 1.60 2.05 5.25 4.65 7.45 3.60 3 3.30 3.15 -5.60 3.15 -4.35 0 -8.20 -0.20 -8.55 -0.45 -0.55 -0.30 0.15 -1.40 2.85 -4.30 2.90 -3.20 3.55 -4.20 3.55 -5.60 0 -1.65 -0.05 -1.65 -2.30 -1.65 -3.10 0 -5.30 1.15 -7.75 4.05 -1.10 1.35 -2.25 2.45 -2.50 2.45 -0.70 0 -0.60 -16.35 0.15 -16.80 0.35 -0.20 1.30 0.50 2.35 1.75 2.70 3.10 4.40 4.05 7.45 4.05 l2.60 0 0 -1.70 c0 -1.25 -0.65 -2.70 -2.25 -5 -1.25 -1.85 -2.25 -3.65 -2.25 -4.05 0 -0.65 1.15 -0.75 6.95 -0.75 4.20 0 7.10 0.20 7.30 0.50 0.20 0.30 -0.85 1.90 -2.30 3.65 -2.95 3.55 -4.25 5.90 -3.80 7.05 0.30 0.70 2 0.80 14.75 0.80 l14.45 0 0.25 -11.10 c0.15 -6.15 0.15 -11.45 0.05 -11.75 -0.35 -0.90 -2.90 -0.80 -4.80 0.15 -0.90 0.40 -2.90 2.15 -4.45 3.85 l-2.90 3.10 0 -9.85 c0 -5.45 0.15 -9.90 0.30 -9.90 0.20 0 1.65 1.35 3.30 2.95 3 3.05 6.85 5.35 8.15 4.85 0.50 -0.15 0.75 -1 0.75 -2.45 0 -2.55 -1.25 -4.45 -5.10 -7.95 l-2.65 -2.35 10.65 -0.05 c5.80 0 10.60 0.15 10.55 0.40 0 0.20 -1.35 1.45 -3 2.75 -3.60 2.90 -4.50 4.20 -4.85 7.10 -0.20 1.80 -0.05 2.30 0.60 2.55 1.40 0.55 5.50 -1.75 8.35 -4.60 1.45 -1.50 2.85 -2.70 3.05 -2.70 0.20 0 0.40 4.30 0.40 9.50 0 7.30 -0.15 9.50 -0.60 9.45 -0.35 0 -1.55 -1.20 -2.70 -2.60 -2.35 -3.05 -5.30 -4.90 -7.45 -4.75 l-1.50 0.15 0 11.75 0 11.75 14.20 0.15 c7.85 0.05 14.45 -0.10 14.70 -0.35 0.65 -0.65 -0.90 -3.85 -3.65 -7.30 -1.35 -1.70 -2.50 -3.30 -2.50 -3.45 0 -0.45 14.40 -0.35 14.70 0.15 0.15 0.20 -0.75 1.80 -1.95 3.55 -2.35 3.30 -3.55 6.15 -3 7 0.15 0.25 1.50 0.50 2.95 0.50 2.90 0 3.80 -0.50 7.60 -4.10 1.40 -1.35 2.15 -1.75 2.30 -1.30 0.10 0.35 0.10 4.20 0 8.50 -0.15 5.50 -0.40 7.90 -0.80 7.85 -0.30 0 -1.40 -1.10 -2.40 -2.45 -2.35 -3.10 -4.25 -4.10 -7.30 -3.90 -2.10 0.15 -2.35 0.30 -2.50 1.45 -0.10 1.05 0.65 2.25 3.40 5.45 2.60 3.05 3.40 4.25 2.90 4.55 -0.35 0.20 -2.35 0.30 -4.40 0.20 -2.05 -0.05 -5.60 -0.15 -7.85 -0.20 -4.95 -0.05 -5.20 -0.55 -1.85 -3.10 2.55 -1.90 4.70 -5.10 4.70 -7.05 l0 -1.25 -9.10 -0.30 c-4.95 -0.20 -11.60 -0.35 -14.65 -0.35 -5.35 0 -5.65 0.05 -5.90 1.05 -0.15 0.60 -0.25 5.60 -0.20 11.15 l0.10 10.05 5.30 0.15 5.35 0.15 1.70 -2.05 c0.95 -1.10 1.90 -2 2.05 -2 0.20 0 0.35 2.70 0.35 5.95 0 7.95 -0.45 9.10 -2.20 5.80 -1.20 -2.15 -1.80 -2.35 -7.80 -2.15 l-4.75 0.15 -0.15 5.10 c-0.15 5 -0.10 5.15 1 5.35 0.65 0.15 4.50 0.75 8.60 1.30 11.80 1.70 17.35 3.40 21.30 6.50 4.30 3.40 8.85 12.05 12.30 23.40 1.95 6.40 2.10 7.95 0.85 8.30 -0.50 0.10 -4.40 0.30 -8.65 0.40 -9.15 0.20 -9.60 -0.15 -4.50 -3.45 3.30 -2.15 6.50 -5.30 6.50 -6.45 0 -0.45 -3.70 -0.65 -15.85 -0.80 -8.75 -0.10 -16 -0.10 -16.10 -0.05 -0.15 0.10 0.15 1.25 0.60 2.55 1.90 5.35 0.10 10.15 -4.75 12.65 -2.20 1.15 -7.35 1.25 -9.65 0.25z m8.10 -2.80 c6.40 -2.90 5.05 -12.20 -1.95 -13.30 -4.45 -0.75 -8.40 2.05 -8.80 6.20 -0.35 4.05 1.70 6.85 5.80 7.65 2.70 0.50 2.65 0.50 4.95 -0.55z m38.40 -16.60 c0.15 -0.35 -0.15 -2.10 -0.65 -3.90 l-0.85 -3.25 -8.25 -0.35 c-4.55 -0.20 -8.55 -0.30 -8.85 -0.15 -0.45 0.15 -0.65 1.40 -0.65 3.95 l0 3.75 3.40 0.20 c9 0.45 15.65 0.35 15.85 -0.25z m-44.85 -3.95 l0.15 -3.80 -7.30 -0.35 c-4 -0.20 -7.45 -0.20 -7.75 -0.05 -0.25 0.15 -0.50 1.95 -0.50 4 l0 3.70 3.15 0.20 c1.70 0.10 5.15 0.15 7.60 0.15 l4.50 -0.05 0.15 -3.80z m21.85 0.05 l0 -3.75 -7.45 -0.15 c-5.65 -0.10 -7.55 0.05 -7.90 0.50 -0.45 0.80 -0.55 6.60 -0.05 7.10 0.20 0.15 3.75 0.25 7.85 0.20 l7.55 -0.15 0 -3.75z m-41.05 2.70 c0.40 -1 0.40 -5.40 0 -6.40 -0.25 -0.70 -1.50 -0.80 -8.80 -0.80 l-8.45 0 -0.75 1.75 c-0.40 1 -0.85 2.80 -1.05 4 l-0.30 2.25 9.55 0 c8.20 0 9.55 -0.10 9.80 -0.80z m41.20 -13.60 c0.15 -3.10 0.15 -3.15 -1.50 -3.80 -2.80 -1.15 -9.10 -2.35 -11.45 -2.20 l-2.20 0.15 -0.15 4.35 -0.15 4.35 3.40 0.20 c1.85 0.10 5.30 0.15 7.65 0.15 l4.25 -0.05 0.15 -3.15z m16.10 2.70 c0 -1.70 -10.40 -6.55 -12 -5.55 -0.25 0.15 -0.50 1.65 -0.50 3.30 l0 2.95 6.25 0 c5.05 0 6.25 -0.15 6.25 -0.70z m-57.10 -3.25 l0.15 -3.20 -2 0.35 c-4.80 0.75 -11.60 4.50 -10.75 5.85 0.15 0.25 3 0.40 6.35 0.35 l6.10 -0.15 0.15 -3.20z m19.30 -0.05 c0.55 -5.35 0.40 -5.50 -3.85 -5.45 -2 0 -5.40 0.50 -7.60 1.10 l-4 1.10 -0.15 2.70 c-0.10 1.45 -0.05 3 0.10 3.35 0.20 0.55 1.85 0.70 7.70 0.70 l7.45 0 0.35 -3.50z"/>
 </g>
 <g fill="none">
  <path d="M0 65.50 l0 -65.50 50.50 0 50.50 0 0 65.50 0 65.50 -50.50 0 -50.50 0 0 -65.50z m54.90 63.55 c4.85 -2.50 6.65 -7.30 4.75 -12.65 -0.45 -1.30 -0.75 -2.45 -0.60 -2.55 0.10 -0.05 7.35 -0.05 16.10 0.05 12.15 0.15 15.85 0.35 15.85 0.80 0 1.15 -3.20 4.30 -6.50 6.45 -5.10 3.30 -4.65 3.65 4.50 3.45 4.25 -0.10 8.15 -0.30 8.65 -0.40 1.25 -0.35 1.10 -1.90 -0.85 -8.30 -3.45 -11.35 -8 -20 -12.30 -23.40 -3.95 -3.10 -9.50 -4.80 -21.30 -6.50 -4.10 -0.55 -7.95 -1.15 -8.60 -1.30 -1.10 -0.20 -1.15 -0.35 -1 -5.35 l0.15 -5.10 4.75 -0.15 c6 -0.20 6.60 0 7.80 2.15 1.75 3.30 2.20 2.15 2.20 -5.80 0 -3.25 -0.15 -5.95 -0.35 -5.95 -0.15 0 -1.10 0.90 -2.05 2 l-1.70 2.05 -5.35 -0.15 -5.30 -0.15 -0.10 -10.05 c-0.05 -5.55 0.05 -10.55 0.20 -11.15 0.25 -1 0.55 -1.05 5.90 -1.05 3.05 0 9.70 0.15 14.65 0.35 l9.10 0.30 0 1.25 c0 1.95 -2.15 5.15 -4.70 7.05 -3.35 2.55 -3.10 3.05 1.85 3.10 2.25 0.05 5.80 0.15 7.85 0.20 2.05 0.10 4.05 0 4.40 -0.20 0.50 -0.30 -0.30 -1.50 -2.90 -4.55 -2.75 -3.20 -3.50 -4.40 -3.40 -5.45 0.15 -1.15 0.40 -1.30 2.50 -1.45 3.05 -0.20 4.95 0.80 7.30 3.90 1 1.35 2.10 2.45 2.40 2.45 0.40 0.05 0.65 -2.35 0.80 -7.85 0.10 -4.30 0.10 -8.15 0 -8.50 -0.15 -0.45 -0.90 -0.05 -2.30 1.30 -3.80 3.60 -4.70 4.10 -7.60 4.10 -1.45 0 -2.80 -0.25 -2.95 -0.50 -0.55 -0.85 0.65 -3.70 3 -7 1.20 -1.75 2.10 -3.35 1.95 -3.55 -0.30 -0.50 -14.70 -0.60 -14.70 -0.15 0 0.15 1.15 1.75 2.50 3.45 2.75 3.45 4.30 6.65 3.65 7.30 -0.25 0.25 -6.85 0.40 -14.70 0.35 l-14.20 -0.15 0 -11.75 0 -11.75 1.50 -0.15 c2.15 -0.15 5.10 1.70 7.45 4.75 1.15 1.40 2.35 2.60 2.70 2.60 0.45 0.05 0.60 -2.15 0.60 -9.45 0 -5.20 -0.20 -9.50 -0.40 -9.50 -0.20 0 -1.60 1.20 -3.05 2.70 -2.85 2.85 -6.95 5.15 -8.35 4.60 -0.65 -0.25 -0.80 -0.75 -0.60 -2.55 0.35 -2.90 1.25 -4.20 4.85 -7.10 1.65 -1.30 3 -2.55 3 -2.75 0.05 -0.25 -4.75 -0.40 -10.55 -0.40 l-10.65 0.05 2.65 2.35 c3.85 3.50 5.10 5.40 5.10 7.95 0 1.45 -0.25 2.30 -0.75 2.45 -1.30 0.50 -5.15 -1.80 -8.15 -4.85 -1.65 -1.60 -3.10 -2.95 -3.30 -2.95 -0.15 0 -0.30 4.45 -0.30 9.90 l0 9.85 2.90 -3.10 c1.55 -1.70 3.55 -3.45 4.45 -3.85 1.90 -0.95 4.45 -1.05 4.80 -0.15 0.10 0.30 0.10 5.60 -0.05 11.75 l-0.25 11.10 -14.45 0 c-12.75 0 -14.45 -0.10 -14.75 -0.80 -0.45 -1.15 0.85 -3.50 3.80 -7.05 1.45 -1.75 2.50 -3.35 2.30 -3.65 -0.20 -0.30 -3.10 -0.50 -7.30 -0.50 -5.80 0 -6.95 0.10 -6.95 0.75 0 0.40 1 2.20 2.25 4.05 1.60 2.30 2.25 3.75 2.25 5 l0 1.70 -2.60 0 c-3.05 0 -4.75 -0.95 -7.45 -4.05 -1.05 -1.25 -2 -1.95 -2.35 -1.75 -0.75 0.45 -0.85 16.80 -0.15 16.80 0.25 0 1.40 -1.10 2.50 -2.45 2.45 -2.90 4.65 -4.05 7.75 -4.05 2.25 0 2.30 0 2.30 1.65 0 1.40 -0.65 2.40 -3.55 5.60 -2.70 2.90 -3.40 4 -2.85 4.30 0.35 0.25 4.20 0.45 8.55 0.45 8.90 0 9.20 -0.15 5.60 -3.15 -2.60 -2.20 -4.90 -5.85 -4.65 -7.45 l0.15 -1.15 14.50 0.20 c8 0.10 14.70 0.30 14.95 0.45 0.65 0.35 0.10 21 -0.55 21.65 -0.35 0.35 -2.30 0.50 -5.40 0.35 l-4.85 -0.15 -1.90 -2.15 c-1.80 -2.10 -1.85 -2.15 -2.15 -1 -0.50 1.75 -0.40 12.30 0.10 12.60 0.20 0.15 0.95 -0.55 1.60 -1.60 l1.20 -1.85 5.75 0 5.75 0 0.15 4.70 c0.05 2.60 -0.05 4.90 -0.30 5.15 -0.25 0.25 -4.70 1 -9.90 1.65 -10.40 1.35 -13.95 2.15 -17.90 4 -4.60 2.15 -7.65 5.80 -11.60 13.80 -2.05 4.20 -6.70 17.05 -6.70 18.60 0 0.80 2.25 1.10 11.90 1.65 5.05 0.30 5.60 0.25 5.60 -0.50 0 -0.45 -1.05 -1.55 -2.35 -2.45 -2.95 -2 -7.15 -6.10 -7.15 -7 0 -0.60 2.75 -0.65 15.85 -0.45 8.75 0.10 16 0.30 16.10 0.40 0.10 0.10 -0.20 1.05 -0.65 2.20 -0.90 2.30 -1.05 5.80 -0.25 7.85 0.70 1.85 3.30 4.60 5.20 5.45 2.30 1 7.45 0.90 9.65 -0.25z"/>
  <path d="M48.40 127.05 c-4.10 -0.80 -6.15 -3.60 -5.80 -7.65 0.40 -4.15 4.35 -6.95 8.80 -6.20 7 1.10 8.35 10.40 1.95 13.30 -2.30 1.05 -2.25 1.05 -4.95 0.55z"/>
  <path d="M75.90 110.15 l-3.40 -0.20 0 -3.75 c0 -2.55 0.20 -3.80 0.65 -3.95 0.30 -0.15 4.30 -0.05 8.85 0.15 l8.25 0.35 0.85 3.25 c0.50 1.80 0.80 3.55 0.65 3.90 -0.20 0.60 -6.85 0.70 -15.85 0.25z"/>
  <path d="M34.65 109.65 l-3.15 -0.20 0 -3.70 c0 -2.05 0.25 -3.85 0.50 -4 0.30 -0.15 3.75 -0.15 7.75 0.05 l7.30 0.35 -0.15 3.80 -0.15 3.80 -4.50 0.05 c-2.45 0 -5.90 -0.05 -7.60 -0.15z"/>
  <path d="M53.35 109.70 c-0.50 -0.50 -0.40 -6.30 0.05 -7.10 0.35 -0.45 2.25 -0.60 7.90 -0.50 l7.45 0.15 0 3.75 0 3.75 -7.55 0.15 c-4.10 0.05 -7.65 -0.05 -7.85 -0.20z"/>
  <path d="M8.65 107.25 c0.20 -1.20 0.65 -3 1.05 -4 l0.75 -1.75 8.45 0 c9.55 0 9.10 -0.20 9.10 4 0 4.25 0.60 4 -10.10 4 l-9.55 0 0.30 -2.25z"/>
  <path d="M56.85 98.15 l-3.40 -0.20 0.15 -4.35 0.15 -4.35 2.20 -0.15 c2.35 -0.15 8.65 1.05 11.45 2.20 1.65 0.65 1.65 0.70 1.50 3.80 l-0.15 3.15 -4.25 0.05 c-2.35 0 -5.80 -0.05 -7.65 -0.15z"/>
  <path d="M72.50 95.55 c0 -1.65 0.25 -3.15 0.50 -3.30 0.85 -0.55 7.10 1.60 9.65 3.30 3.85 2.55 3.30 2.95 -3.90 2.95 l-6.25 0 0 -2.95z"/>
  <path d="M15.30 97.55 c-0.85 -1.35 5.95 -5.10 10.75 -5.85 l2 -0.35 -0.15 3.20 -0.15 3.20 -6.10 0.15 c-3.35 0.05 -6.20 -0.10 -6.35 -0.35z"/>
  <path d="M31.70 97.30 c-0.15 -0.35 -0.20 -1.90 -0.10 -3.35 l0.15 -2.70 4 -1.10 c2.20 -0.60 5.60 -1.10 7.60 -1.10 4.25 -0.05 4.40 0.10 3.85 5.45 l-0.35 3.50 -7.45 0 c-5.85 0 -7.50 -0.15 -7.70 -0.70z"/>
 </g>
</svg>
