<?xml version="1.0" encoding="utf-8"?>
<!DOCTYPE svg PUBLIC "-//W3C//DTD SVG 1.0//EN" "http://www.w3.org/TR/2001/REC-SVG-20010904/DTD/svg10.dtd">
<svg version="1.0" xmlns="http://www.w3.org/2000/svg" width="164px" height="130px" viewBox="0 0 164 130" preserveAspectRatio="xMidYMid meet">
 <g fill="#000000">
  <path d="M16.65 127.75 c-1.45 -0.70 -3.30 -2.15 -4.20 -3.15 -2.10 -2.35 -4.50 -7.60 -4.85 -10.40 -0.30 -2.60 -0.65 -2.90 -3.35 -2.80 -2.90 0.15 -3.45 -0.35 -3.05 -3 0.80 -5.20 5.15 -12.20 8.95 -14.40 4.20 -2.40 5.45 -1.95 3.80 1.35 -0.55 1.10 -1.10 3.15 -1.30 4.55 -0.25 2.15 -0.05 3 1.10 5.40 0.85 1.75 2.05 3.30 3.30 4.10 2.40 1.70 2.75 2.50 1.25 3.15 -1.10 0.50 -1.45 0.45 -7.30 -1.10 -1.15 -0.30 -0.70 2.30 1.05 5.90 1.55 3.25 3.60 5.20 7.40 7.15 3.20 1.60 8.10 1.25 12.30 -0.90 2.90 -1.45 8.25 -5.75 8.25 -6.60 0 -0.20 -0.70 -0.50 -1.55 -0.70 -0.85 -0.15 -2.45 -1.15 -3.50 -2.25 -1.75 -1.75 -1.95 -2.20 -1.95 -4.55 0 -3.20 1.15 -5.30 3.60 -6.55 2.25 -1.15 4.45 -1.20 6.45 -0.20 0.80 0.45 1.65 0.65 1.90 0.50 0.55 -0.30 1.70 -8.05 1.50 -9.75 -0.20 -1.25 -0.20 -1.25 -6.30 -1.40 -3.85 -0.10 -6.15 0.05 -6.15 0.35 0 0.30 -0.70 1.30 -1.55 2.30 -3.80 4.30 -10.35 2.85 -12 -2.65 -1.20 -4 1.50 -8 5.95 -8.90 2.15 -0.45 5.55 1.30 7 3.55 l1.15 1.80 6.10 -0.15 6.10 -0.15 0 -2.85 c-0.05 -1.60 -0.10 -11.70 -0.15 -22.50 l-0.10 -19.55 -2.15 -2.10 c-1.20 -1.10 -6.15 -5.35 -11.10 -9.35 l-8.90 -7.35 -3.05 0.10 c-2.20 0.05 -3.50 -0.20 -4.60 -0.85 -4.60 -2.75 -4.45 -9.85 0.30 -12.35 4.90 -2.65 10.50 0.75 10.50 6.40 0 1.85 0.20 2.05 8.70 9.05 4.80 3.90 8.85 7.10 9 7.10 0.55 0 0.30 -2.35 -0.95 -10.30 -1.25 -7.55 -1.80 -9.10 -3.40 -9.20 -0.90 0 -2.35 -3.40 -2.35 -5.50 0 -4.25 2.85 -7.20 6.95 -7.20 4 0 7.05 3 7.05 6.95 0 2.15 -0.60 3.45 -2.60 5.60 l-1.55 1.60 1.15 7.30 c0.70 4.25 1.35 7.20 1.65 7.10 0.30 -0.10 3.20 -4.10 6.45 -8.95 l6 -8.80 -0.85 -1.60 c-0.60 -1.20 -0.75 -2.25 -0.55 -3.70 0.45 -2.75 1.40 -4.10 3.90 -5.35 4.85 -2.45 10.40 0.90 10.40 6.35 0 3.75 -3.50 7.20 -7.25 7.20 -1.45 0 -2 0.70 -9.45 11.85 -5.60 8.35 -7.80 12 -7.50 12.50 0.60 0.90 29.35 24.65 29.85 24.65 0.20 0 0.30 -5 0.25 -11.15 l-0.15 -11.10 -5.15 -0.15 c-4.25 -0.10 -5.15 -0.25 -4.90 -0.85 0.15 -0.40 2.55 -4.60 5.35 -9.35 2.80 -4.75 5.45 -9.25 5.90 -10.05 0.45 -0.75 1.10 -1.30 1.50 -1.25 0.35 0.10 2.40 3.30 4.50 7.15 2.15 3.85 4.70 8.50 5.70 10.30 1 1.80 1.85 3.55 1.85 3.95 0 0.45 -1.20 0.55 -5.10 0.45 l-5.15 -0.20 -0.35 2.75 c-0.15 1.50 -0.30 7.30 -0.35 12.85 l-0.05 10.10 9.65 7.90 c5.25 4.35 10.70 8.80 12.05 9.90 l2.45 2 5.70 -0.05 c3.10 0 5.90 -0.25 6.15 -0.50 0.45 -0.45 1.75 -39.60 1.30 -40.05 -0.10 -0.10 -0.90 0.80 -1.75 2 -1.60 2.35 -5.70 4.85 -7.90 4.85 -4.65 0 -6.60 -5.60 -3.35 -9.45 1.55 -1.85 3.30 -2.30 5.20 -1.30 1.20 0.65 1.50 1.10 1.50 2.50 0 2.15 -0.90 2.75 -2.05 1.35 -1 -1.30 -2.10 -1.40 -3.10 -0.35 -1.50 1.45 0.50 4.25 3 4.25 1.90 0 6.15 -4.45 6.15 -6.45 0 -0.25 -1.10 -1.25 -2.40 -2.20 -5.40 -3.85 -5.45 -10.65 -0.10 -11.45 3.80 -0.55 6.05 2.30 6.20 7.85 l0.10 3 3.45 0.35 c8.50 0.80 13.35 4.50 14.05 10.70 0.55 4.55 -1.50 8.70 -5.55 11.15 -0.80 0.50 -0.85 0.65 -0.25 0.90 1.80 0.70 4.90 4.50 5.50 6.65 0.35 1.25 0.70 2.55 0.80 2.90 0.10 0.40 1.15 0.60 2.95 0.60 2.65 0 2.85 -0.10 3.80 -1.70 1.05 -1.80 4.40 -3.80 6.35 -3.80 1.70 0 4.20 1.20 5.55 2.70 1.75 1.90 2.05 6.10 0.60 8.45 -2.75 4.45 -9.95 4.40 -12.25 -0.05 -0.90 -1.70 -1.70 -2.10 -4.20 -2.10 -2.40 0 -2.75 0.30 -3.75 3 -1.15 3.10 -3.50 5.80 -6.20 7.20 l-2.30 1.15 2.40 1.70 c5.95 4.25 6.40 11.20 1.05 16.85 -2.20 2.35 -4.80 3.60 -8.15 3.80 -1.75 0.15 -3.05 0.50 -3.20 0.90 -0.20 0.35 -0.85 1.85 -1.45 3.25 -1.45 3.25 -2.85 4.60 -5.15 5 -1.55 0.25 -2 0.05 -3.35 -1.25 -2.70 -2.70 -1.70 -6.35 2.70 -9.55 2.80 -2.10 3 -2.40 2.80 -4.30 -0.25 -2.30 -2.10 -2.85 -5.25 -1.55 -1.75 0.75 -2.40 2.35 -1.25 3.05 0.80 0.50 0.60 3.10 -0.30 3.95 -1.10 1.10 -2.35 0.30 -3.65 -2.35 -1.25 -2.60 -1.35 -4.25 -0.25 -5.75 1.40 -2 3.50 -2.70 7.65 -2.50 l3.80 0.15 0.15 -3.80 0.15 -3.80 -3.10 -0.35 c-1.70 -0.15 -5.05 -0.30 -7.40 -0.30 l-4.30 -0.05 -10.25 -8.45 c-5.60 -4.70 -10.35 -8.50 -10.55 -8.50 -0.35 0 -1.05 19.95 -0.65 20.55 0.15 0.25 1.25 0.45 2.45 0.45 1.80 0 2.40 -0.25 3.45 -1.55 0.70 -0.85 1.30 -1.80 1.30 -2.20 0 -0.75 0.95 -1.20 1.90 -0.90 0.85 0.30 0.85 12.20 0 13.05 -1 1 -1.40 0.70 -2.40 -1.60 -0.70 -1.75 -1.30 -2.30 -2.70 -2.80 -1 -0.30 -2.30 -0.50 -2.90 -0.40 -1 0.15 -1.15 0.50 -1.30 2.70 -0.10 2.15 0.05 2.80 1.15 4.15 0.75 0.85 1.75 1.55 2.25 1.55 0.95 0 1.70 1.25 1.20 2.05 -0.15 0.25 -3.15 0.45 -6.75 0.45 l-6.45 0 0 -1.20 c0 -0.95 0.35 -1.30 1.50 -1.55 2.35 -0.50 3.55 -2.45 3.40 -5.45 -0.15 -2.45 -0.20 -2.55 -1.75 -2.70 -2.35 -0.25 -4.45 1.05 -5.15 3.15 -0.45 1.45 -0.85 1.75 -1.65 1.65 -1.05 -0.15 -1.10 -0.45 -1.25 -5.65 -0.15 -6.70 0.05 -7.85 1.50 -7.65 0.75 0.10 1.20 0.65 1.50 1.75 0.50 1.95 2.70 3.30 5.05 3.05 l1.60 -0.15 0.35 -12 c0.25 -8.05 0.20 -12.15 -0.15 -12.60 -0.70 -0.80 -29.80 -24.75 -30.80 -25.35 -0.65 -0.35 -0.70 1.95 -0.40 20.25 0.20 11.40 0.45 20.85 0.60 21.10 0.60 1.05 2.55 0.20 4.30 -1.90 2.50 -3 4.90 -3.75 8.10 -2.55 4.20 1.60 5.90 6 3.90 10.15 -1.25 2.70 -3.30 3.75 -6.85 3.50 -3.05 -0.20 -3.55 -0.55 -6.90 -4.75 -0.25 -0.35 -1 -0.60 -1.55 -0.50 -0.95 0.15 -1.15 0.60 -1.50 3.15 -0.90 6.25 -2.50 13.10 -3.85 16.35 -2.85 6.90 -8 12.60 -13.95 15.55 -2.95 1.45 -3.80 1.60 -8.55 1.75 -4.85 0.15 -5.45 0.05 -7.85 -1.15z m104.70 -11.50 c0.65 -1.40 0.70 -1.85 0.15 -2.50 -1.45 -1.70 -4.50 -0.20 -4.50 2.25 0 1.70 0.35 2 2.10 2 1.10 0 1.60 -0.35 2.25 -1.75z m-79.15 -4.30 c0.95 -0.75 1.30 -1.50 1.30 -2.65 0 -3 -3.30 -4.65 -5.65 -2.80 -1.75 1.40 -1.80 3.60 -0.10 5.25 1.50 1.50 2.70 1.55 4.45 0.20z m89.40 -5.40 c2.45 -1.55 4.15 -3.60 4.65 -5.65 0.75 -3 -2.40 -6.75 -6.65 -7.90 -3.45 -0.90 -3.60 -0.60 -3.60 7.80 l0 7.20 1.65 0 c0.95 0 2.60 -0.60 3.95 -1.45z m-101.75 -13.65 c2.45 -2.25 0.70 -6.40 -2.70 -6.40 -2.20 0 -3.65 1.50 -3.65 3.75 0 3.35 3.85 5 6.35 2.65z m33.90 -0.15 c1.40 -1.35 1.55 -2.25 0.70 -3.90 -0.80 -1.50 -1.40 -1.85 -3.30 -1.85 -2.05 0 -3.85 2.10 -3.40 4 0.70 2.90 3.90 3.90 6 1.75z m68.80 -8.10 c3.60 -1.85 4.95 -3.90 4.95 -7.60 0 -1.80 -0.35 -3.45 -0.95 -4.55 -1.85 -3.50 -8.30 -6.35 -9.45 -4.15 -0.40 0.70 -0.90 13.75 -0.65 17.05 0.10 1.05 3.25 0.65 6.10 -0.75z m25.70 -5.40 c2.30 -2.25 0.95 -5.90 -2.15 -5.90 -2.15 0 -3.60 1.40 -3.60 3.50 0 3.35 3.40 4.80 5.75 2.40z m-24.45 -18.05 c2.25 -0.80 5.40 -3.85 5.85 -5.65 0.20 -0.70 -0.05 -2 -0.50 -2.95 -1.30 -2.80 -7.05 -6.60 -9.90 -6.60 -1.10 0 -1.10 0.15 -1.50 7.75 -0.15 4.25 -0.20 7.95 -0.05 8.20 0.40 0.60 3.35 0.25 6.10 -0.75z m-12.40 -23 c0.30 -3.95 -1.45 -5.95 -3.10 -3.60 -1.15 1.65 -0.95 3.30 0.55 4.70 1.75 1.60 2.35 1.30 2.55 -1.10z m-33.15 -4.05 c-3.55 -6.55 -3.20 -6.50 -6.45 -1 -1.55 2.65 -2.80 4.90 -2.80 5.05 0 0.15 2.60 0.30 5.80 0.30 l5.80 0 -2.35 -4.35z m-65.55 -13.70 c0.95 -0.75 1.30 -1.50 1.30 -2.70 0 -1.80 -1.80 -3.75 -3.50 -3.75 -1.70 0 -3.50 1.95 -3.50 3.75 0 1.80 1.80 3.75 3.50 3.75 0.50 0 1.45 -0.45 2.20 -1.05z m24.70 -8.80 c1.60 -1.35 1.85 -3.20 0.60 -4.80 -2.15 -2.70 -6.15 -1.25 -6.15 2.25 0 2.85 3.35 4.40 5.55 2.55z m24.60 -0.65 c2.20 -2.20 0.45 -6.50 -2.70 -6.50 -3.25 0 -4.85 3.55 -2.75 6.20 1.30 1.65 3.95 1.80 5.45 0.30z"/>
 </g>
 <g fill="none">
  <path d="M0 65 l0 -65 82 0 82 0 0 65 0 65 -82 0 -82 0 0 -65z m33.05 62.15 c5.95 -2.95 11.10 -8.65 13.95 -15.55 1.35 -3.25 2.95 -10.10 3.85 -16.35 0.35 -2.55 0.55 -3 1.50 -3.15 0.55 -0.10 1.30 0.15 1.55 0.50 3.35 4.20 3.85 4.55 6.90 4.75 3.55 0.25 5.60 -0.80 6.85 -3.50 2 -4.15 0.30 -8.55 -3.90 -10.15 -3.20 -1.20 -5.60 -0.45 -8.10 2.55 -1.75 2.10 -3.70 2.95 -4.30 1.90 -0.15 -0.25 -0.40 -9.70 -0.60 -21.10 -0.30 -18.30 -0.25 -20.60 0.40 -20.25 1 0.60 30.10 24.55 30.80 25.35 0.35 0.45 0.40 4.55 0.15 12.60 l-0.35 12 -1.60 0.15 c-2.35 0.25 -4.55 -1.10 -5.05 -3.05 -0.30 -1.10 -0.75 -1.65 -1.50 -1.75 -1.45 -0.20 -1.65 0.95 -1.50 7.65 0.15 5.20 0.20 5.50 1.25 5.65 0.80 0.10 1.20 -0.20 1.65 -1.65 0.70 -2.10 2.80 -3.40 5.15 -3.15 1.55 0.15 1.60 0.25 1.75 2.70 0.15 3 -1.05 4.95 -3.40 5.45 -1.15 0.25 -1.50 0.60 -1.50 1.55 l0 1.20 6.45 0 c3.60 0 6.60 -0.20 6.75 -0.45 0.50 -0.80 -0.25 -2.05 -1.20 -2.05 -0.50 0 -1.50 -0.70 -2.25 -1.55 -1.10 -1.35 -1.25 -2 -1.15 -4.15 0.15 -2.20 0.30 -2.55 1.30 -2.70 0.60 -0.10 1.90 0.10 2.90 0.40 1.40 0.50 2 1.05 2.70 2.80 1 2.30 1.40 2.60 2.40 1.60 0.85 -0.85 0.85 -12.75 0 -13.05 -0.95 -0.30 -1.90 0.15 -1.90 0.90 0 0.40 -0.60 1.35 -1.30 2.20 -1.05 1.30 -1.65 1.55 -3.45 1.55 -1.20 0 -2.30 -0.20 -2.45 -0.45 -0.40 -0.60 0.30 -20.55 0.65 -20.55 0.20 0 4.95 3.80 10.55 8.50 l10.25 8.45 4.30 0.05 c2.35 0 5.70 0.15 7.40 0.30 l3.10 0.35 -0.15 3.80 -0.15 3.80 -3.80 -0.15 c-4.15 -0.20 -6.25 0.50 -7.65 2.50 -1.10 1.50 -1 3.15 0.25 5.75 1.30 2.65 2.55 3.45 3.65 2.35 0.90 -0.85 1.10 -3.45 0.30 -3.95 -1.15 -0.70 -0.50 -2.30 1.25 -3.05 3.15 -1.30 5 -0.75 5.25 1.55 0.20 1.90 0 2.20 -2.80 4.30 -4.40 3.20 -5.40 6.85 -2.70 9.55 1.35 1.30 1.80 1.50 3.35 1.25 2.30 -0.40 3.70 -1.75 5.15 -5 0.60 -1.40 1.25 -2.90 1.45 -3.25 0.15 -0.40 1.45 -0.75 3.20 -0.90 3.35 -0.20 5.95 -1.45 8.15 -3.80 5.35 -5.65 4.90 -12.60 -1.05 -16.85 l-2.40 -1.70 2.30 -1.15 c2.70 -1.40 5.05 -4.10 6.20 -7.20 1 -2.70 1.35 -3 3.75 -3 2.50 0 3.30 0.40 4.20 2.10 2.30 4.45 9.50 4.50 12.25 0.05 1.45 -2.35 1.15 -6.55 -0.60 -8.45 -1.35 -1.50 -3.85 -2.70 -5.55 -2.70 -1.95 0 -5.30 2 -6.35 3.80 -0.95 1.60 -1.15 1.70 -3.80 1.70 -1.80 0 -2.85 -0.20 -2.95 -0.60 -0.10 -0.35 -0.45 -1.65 -0.80 -2.90 -0.60 -2.15 -3.70 -5.95 -5.50 -6.65 -0.60 -0.25 -0.55 -0.40 0.25 -0.90 4.05 -2.45 6.10 -6.60 5.55 -11.15 -0.70 -6.20 -5.55 -9.90 -14.05 -10.70 l-3.45 -0.35 -0.10 -3 c-0.15 -5.55 -2.40 -8.40 -6.20 -7.85 -5.35 0.80 -5.30 7.60 0.10 11.45 1.30 0.95 2.40 1.95 2.40 2.20 0 2 -4.25 6.45 -6.15 6.45 -2.50 0 -4.50 -2.80 -3 -4.25 1 -1.05 2.10 -0.95 3.10 0.35 1.15 1.40 2.05 0.80 2.05 -1.35 0 -1.40 -0.30 -1.85 -1.50 -2.50 -1.90 -1 -3.65 -0.55 -5.20 1.30 -3.25 3.85 -1.30 9.45 3.35 9.45 2.20 0 6.30 -2.50 7.90 -4.85 0.85 -1.20 1.65 -2.10 1.75 -2 0.45 0.45 -0.85 39.60 -1.30 40.05 -0.25 0.25 -3.05 0.50 -6.15 0.50 l-5.70 0.05 -2.45 -2 c-1.35 -1.10 -6.80 -5.55 -12.05 -9.90 l-9.65 -7.90 0.05 -10.10 c0.05 -5.55 0.20 -11.35 0.35 -12.85 l0.35 -2.75 5.15 0.20 c3.90 0.10 5.10 0 5.10 -0.45 0 -0.40 -0.85 -2.15 -1.85 -3.95 -1 -1.80 -3.55 -6.45 -5.70 -10.30 -2.10 -3.85 -4.15 -7.05 -4.50 -7.15 -0.40 -0.05 -1.05 0.50 -1.50 1.25 -0.45 0.80 -3.10 5.30 -5.90 10.05 -2.80 4.75 -5.20 8.95 -5.35 9.35 -0.25 0.60 0.65 0.75 4.90 0.85 l5.15 0.15 0.15 11.10 c0.05 6.15 -0.05 11.15 -0.25 11.15 -0.50 0 -29.25 -23.75 -29.85 -24.65 -0.30 -0.50 1.90 -4.15 7.50 -12.50 7.45 -11.15 8 -11.85 9.45 -11.85 3.75 0 7.25 -3.45 7.25 -7.20 0 -5.45 -5.55 -8.80 -10.40 -6.35 -2.50 1.25 -3.45 2.60 -3.90 5.35 -0.20 1.45 -0.05 2.50 0.55 3.70 l0.85 1.60 -6 8.80 c-3.25 4.85 -6.15 8.85 -6.45 8.95 -0.30 0.10 -0.95 -2.85 -1.65 -7.10 l-1.15 -7.30 1.55 -1.60 c2 -2.15 2.60 -3.45 2.60 -5.60 0 -3.95 -3.05 -6.95 -7.05 -6.95 -4.10 0 -6.95 2.95 -6.95 7.20 0 2.10 1.45 5.50 2.35 5.50 1.60 0.10 2.15 1.65 3.40 9.20 1.25 7.95 1.50 10.30 0.95 10.30 -0.15 0 -4.20 -3.20 -9 -7.10 -8.50 -7 -8.70 -7.20 -8.70 -9.05 0 -5.65 -5.60 -9.05 -10.50 -6.40 -4.75 2.50 -4.90 9.60 -0.30 12.35 1.10 0.65 2.40 0.90 4.60 0.85 l3.05 -0.10 8.90 7.35 c4.95 4 9.90 8.25 11.10 9.35 l2.15 2.10 0.10 19.55 c0.05 10.80 0.10 20.90 0.15 22.50 l0 2.85 -6.10 0.15 -6.10 0.15 -1.15 -1.80 c-3.30 -5.10 -10.60 -4.50 -12.70 1.05 -2.80 7.35 6.55 12.85 11.75 6.95 0.85 -1 1.55 -2 1.55 -2.30 0 -0.30 2.30 -0.45 6.15 -0.35 6.10 0.15 6.10 0.15 6.30 1.40 0.20 1.70 -0.95 9.45 -1.50 9.75 -0.25 0.15 -1.10 -0.05 -1.90 -0.50 -2 -1 -4.20 -0.95 -6.45 0.20 -2.45 1.25 -3.60 3.35 -3.60 6.55 0 2.35 0.20 2.80 1.95 4.55 1.05 1.10 2.65 2.10 3.50 2.25 0.85 0.20 1.55 0.50 1.55 0.70 0 0.85 -5.35 5.15 -8.25 6.60 -4.20 2.15 -9.10 2.50 -12.30 0.90 -3.80 -1.95 -5.85 -3.90 -7.40 -7.15 -1.75 -3.60 -2.20 -6.20 -1.05 -5.90 5.85 1.55 6.20 1.60 7.30 1.10 1.50 -0.65 1.15 -1.45 -1.25 -3.15 -1.25 -0.80 -2.45 -2.35 -3.30 -4.10 -1.15 -2.40 -1.35 -3.25 -1.10 -5.40 0.20 -1.40 0.75 -3.45 1.30 -4.55 1.65 -3.30 0.40 -3.75 -3.80 -1.35 -3.80 2.20 -8.15 9.20 -8.95 14.40 -0.40 2.65 0.15 3.15 3.05 3 2.70 -0.10 3.05 0.20 3.35 2.80 0.35 2.80 2.75 8.05 4.85 10.40 0.90 1 2.75 2.45 4.20 3.15 2.40 1.20 3 1.30 7.85 1.15 4.75 -0.15 5.60 -0.30 8.55 -1.75z"/>
  <path d="M117.35 117.65 c-0.20 -0.15 -0.35 -0.90 -0.35 -1.65 0 -2.45 3.05 -3.95 4.50 -2.25 0.55 0.65 0.50 1.10 -0.15 2.50 -0.65 1.40 -1.15 1.75 -2.25 1.75 -0.80 0 -1.60 -0.15 -1.75 -0.35z"/>
  <path d="M37.75 111.75 c-3.50 -3.45 1.20 -8.20 4.90 -4.90 1.35 1.25 1.10 3.90 -0.45 5.10 -1.75 1.35 -2.95 1.30 -4.45 -0.20z"/>
  <path d="M126 100.80 c0 -8.40 0.15 -8.70 3.60 -7.80 4.25 1.15 7.40 4.90 6.65 7.90 -0.80 3.25 -5.50 7.10 -8.60 7.10 l-1.65 0 0 -7.20z"/>
  <path d="M24.60 93 c-1.45 -1.35 -1.45 -4.15 -0.10 -5.50 2.30 -2.30 6.50 -0.45 6.50 2.80 0 3.15 -4.05 4.85 -6.40 2.70z"/>
  <path d="M59.10 93.15 c-2.55 -2.15 -1.20 -6.15 2.05 -6.15 1.90 0 2.50 0.35 3.30 1.85 0.85 1.65 0.70 2.55 -0.70 3.90 -1.40 1.45 -3.25 1.60 -4.65 0.40z"/>
  <path d="M126.45 85.40 c-0.25 -3.30 0.25 -16.35 0.65 -17.05 1.15 -2.20 7.60 0.65 9.45 4.15 1.35 2.50 1.25 6.85 -0.20 9.05 -1.90 2.95 -9.75 5.95 -9.90 3.85z"/>
  <path d="M153.50 79.50 c-1.30 -1.30 -1.30 -4.05 0 -5.25 1.45 -1.30 3.95 -1.20 5.10 0.20 1.25 1.60 1.15 3.35 -0.35 4.80 -1.45 1.50 -3.40 1.60 -4.75 0.25z"/>
  <path d="M127.70 61.95 c-0.15 -0.25 -0.10 -3.95 0.05 -8.20 0.40 -7.60 0.40 -7.75 1.50 -7.75 2.85 0 8.60 3.80 9.90 6.60 0.45 0.95 0.70 2.25 0.50 2.95 -0.45 1.80 -3.60 4.85 -5.85 5.65 -2.75 1 -5.70 1.35 -6.10 0.75z"/>
  <path d="M118.85 39.30 c-1.50 -1.40 -1.70 -3.05 -0.55 -4.70 1.65 -2.35 3.40 -0.35 3.10 3.60 -0.20 2.40 -0.80 2.70 -2.55 1.10z"/>
  <path d="M79 38.20 c0 -0.15 1.25 -2.40 2.80 -5.05 3.25 -5.50 2.90 -5.55 6.45 1 l2.35 4.35 -5.80 0 c-3.20 0 -5.80 -0.15 -5.80 -0.30z"/>
  <path d="M18.30 20.45 c-1.80 -1.40 -1.80 -4 0 -5.40 0.75 -0.60 1.70 -1.05 2.20 -1.05 1.70 0 3.50 1.95 3.50 3.75 0 1.80 -1.80 3.75 -3.50 3.75 -0.50 0 -1.45 -0.45 -2.20 -1.05z"/>
  <path d="M42.95 11.60 c-1.40 -1.15 -1.50 -3.65 -0.20 -5.10 1.35 -1.50 3.90 -1.35 5.25 0.35 2.60 3.30 -1.75 7.40 -5.05 4.75z"/>
  <path d="M66.55 10.70 c-1.40 -1.75 -1.35 -3.75 0.10 -5.10 2.45 -2.30 6.35 -0.60 6.35 2.80 0 3.45 -4.35 4.95 -6.45 2.30z"/>
 </g>
</svg>
