<?xml version="1.0" encoding="utf-8"?>
<!DOCTYPE svg PUBLIC "-//W3C//DTD SVG 1.0//EN" "http://www.w3.org/TR/2001/REC-SVG-20010904/DTD/svg10.dtd">
<svg version="1.0" xmlns="http://www.w3.org/2000/svg" width="157px" height="134px" viewBox="0 0 157 134" preserveAspectRatio="xMidYMid meet">
 <g fill="#000000">
  <path d="M91.50 133.30 c0 -0.35 1.20 -1.55 2.65 -2.60 l2.60 -2 0 -8.45 0 -8.50 -8 0 -8 0 -0.15 4.25 c-0.10 2.35 -0.05 4.70 0.10 5.25 0.15 0.55 1.50 1.80 3.05 2.75 4.35 2.80 3.90 3.05 -5.10 2.90 -4.65 -0.10 -7.90 -0.35 -7.95 -0.65 -0.10 -0.25 1.15 -1.45 2.80 -2.60 l3 -2.15 0 -4.95 c0 -3.50 -0.20 -5 -0.60 -5.10 -0.35 -0.10 -4 -0.20 -8.15 -0.20 l-7.50 0 -0.15 8.60 -0.10 8.55 2.75 1.95 c1.50 1.10 2.60 2.15 2.40 2.30 -0.50 0.50 -14.65 0.40 -14.65 -0.10 0 -0.25 1.15 -1.20 2.55 -2.10 4.15 -2.65 3.95 -2 3.95 -11.90 0 -7.70 0.10 -9 0.85 -9.60 0.65 -0.55 2.70 -0.65 9.65 -0.55 l8.85 0.20 0.25 -1.45 c0.15 -0.75 0.30 -4.90 0.35 -9.20 l0.15 -7.80 -6.80 -0.30 c-3.75 -0.15 -7.15 -0.20 -7.55 -0.05 -0.55 0.25 -0.75 1.20 -0.75 3.85 0 3.45 0 3.50 2.30 5.95 1.25 1.30 2.10 2.65 1.95 2.95 -0.40 0.55 -10.30 0.55 -11.95 -0.05 -0.80 -0.25 -0.55 -0.70 1.90 -2.75 l2.85 -2.45 -0.15 -3.80 -0.15 -3.75 -3.10 -0.15 -3.10 -0.15 -2.85 3.80 c-1.55 2.05 -2.90 3.75 -3 3.75 -0.10 0 -0.20 -3.80 -0.20 -8.50 0 -5 0.20 -8.50 0.45 -8.50 0.30 0 1.65 1.25 3.10 2.75 l2.60 2.75 3.15 0 3.20 0 0 -3.10 c0 -1.75 0.15 -3.65 0.30 -4.20 0.25 -0.90 -0.35 -1.60 -2.90 -3.70 -1.70 -1.45 -3.20 -2.85 -3.30 -3.05 -0.10 -0.25 3.10 -0.45 7.10 -0.45 4.45 0 7.30 0.20 7.30 0.50 0 0.25 -1.20 1.65 -2.65 3.10 l-2.70 2.65 0.05 4 0.05 4 7 0.35 c3.85 0.20 7.15 0.20 7.35 0 0.20 -0.20 0.45 -13.10 0.50 -28.60 l0.15 -28.25 -8.75 0 -8.75 0 -0.15 3.35 c-0.15 2.95 -0.05 3.35 0.90 3.65 1.30 0.40 2.85 -0.05 4.75 -1.45 2.85 -2.10 2.75 -2.20 2.75 2.65 0 2.75 -0.20 4.55 -0.50 4.55 -0.30 0 -1.45 -0.65 -2.60 -1.50 -2.40 -1.75 -4.60 -1.95 -5.40 -0.55 -0.25 0.55 -0.50 2.05 -0.50 3.35 0 2.20 0.15 2.50 2.90 5 l2.85 2.70 -6.10 0 c-3.40 0 -6.15 -0.20 -6.15 -0.40 0 -0.20 0.90 -1.30 2 -2.35 1.95 -1.95 2 -2 2 -5.60 l0 -3.65 -1.75 0 c-1.40 0 -2 0.35 -3.30 2 -0.90 1.10 -1.80 2 -2.05 2 -0.60 0 -0.50 -9.40 0.10 -9.75 0.30 -0.20 1.15 0.35 1.95 1.20 1.10 1.20 1.90 1.55 3.25 1.55 1 0 1.80 -0.15 1.85 -0.35 0.30 -2.85 0.30 -5.60 0 -6.10 -0.25 -0.40 -2 -0.55 -5.85 -0.45 l-5.45 0.15 -0.30 8 c-0.65 16.40 -4.15 31.80 -10.25 44.70 -1.20 2.55 -2.20 4.90 -2.20 5.10 0 0.25 0.80 1.70 1.80 3.20 l1.85 2.75 2.65 0 c1.85 0 2.70 0.20 2.65 0.65 0 0.65 -8.15 7.35 -8.95 7.35 -0.60 0 -0.60 -0.65 0 -3.40 0.45 -1.80 0.35 -2.45 -0.50 -4.10 -0.55 -1.05 -1.20 -2.05 -1.45 -2.25 -0.30 -0.15 -2.15 1.10 -4.15 2.80 -5.05 4.20 -9.75 6.55 -13.35 6.60 -5.90 0.05 -12 -5.20 -12.05 -10.30 -0.05 -4.85 6.05 -9.40 10.20 -7.65 2.60 1.10 4.05 3.10 4.05 5.45 0 4.10 -3.50 6.90 -7.20 5.85 -0.95 -0.25 -1.85 -0.35 -2 -0.20 -0.50 0.50 0.80 1.95 2.75 3.05 3.05 1.75 5.80 1.55 9.65 -0.70 3.25 -1.95 9.05 -7.65 9.05 -8.90 0 -1.10 -4.55 -7.30 -5.70 -7.75 -0.55 -0.20 -1.85 -0.60 -2.80 -0.85 -1.45 -0.35 -1.60 -0.50 -1 -1.05 1.40 -1.25 8.20 -5.55 8.40 -5.35 0.15 0.10 -0.05 1.25 -0.35 2.55 -0.55 2.10 -0.50 2.45 0.65 4.40 2.15 3.65 2.65 3.80 3.85 1 1.65 -3.75 4.80 -13.75 6.40 -20.20 1.85 -7.25 2.35 -11.05 3.10 -21.95 0.50 -7.30 0.50 -8.70 -0.10 -9.10 -0.40 -0.25 -5.65 -0.45 -11.70 -0.45 -10.80 0 -11.05 0.05 -13 1.25 -3.20 1.95 -3.25 1.90 -3.25 -4 0 -2.90 0.15 -5.25 0.30 -5.25 0.15 0 1.30 0.85 2.60 1.95 l2.35 1.95 11.30 0.30 c6.20 0.20 11.65 0.20 12.10 0 1.35 -0.50 1.20 -11.20 -0.20 -14.90 -1.70 -4.60 -5.30 -6.60 -9.50 -5.35 -2.25 0.70 -3.45 2.15 -3.45 4.35 0 2.05 2.50 4.35 4.45 4.10 1.10 -0.15 1.35 -0.50 1.85 -2.65 0.35 -1.75 0.75 -2.55 1.40 -2.65 3.05 -0.60 1.95 6.55 -1.30 8.20 -1.10 0.55 -1.85 0.60 -3.35 0.20 -3.90 -1.05 -6.05 -3.80 -6.05 -7.80 0 -2 0.25 -2.55 1.90 -4.20 4.15 -4.15 10.50 -3.85 14.45 0.65 2.40 2.70 3.65 8.15 4.30 18.10 l0.10 2 5.75 0 5.75 0 0.15 -7.35 0.15 -7.30 -3.05 -3.50 c-1.65 -1.95 -3 -3.65 -3 -3.80 0 -0.15 3.50 -0.30 7.75 -0.30 4.25 0 7.75 0.15 7.75 0.40 0 0.20 -1.55 1.95 -3.50 3.85 l-3.50 3.45 0 7.35 0 7.30 8.65 0.30 c5.55 0.15 8.80 0.05 9.25 -0.25 0.40 -0.40 0.60 -2.50 0.60 -7.50 l0 -6.95 -3.70 -3.85 c-2.05 -2.10 -3.60 -4.05 -3.45 -4.25 0.15 -0.25 1.90 -0.35 3.85 -0.15 1.95 0.15 5.85 0.30 8.70 0.30 3.05 0 5.10 0.20 5.10 0.50 0 0.25 -1.65 2.05 -3.60 3.95 l-3.65 3.45 -0.20 6.30 c-0.05 3.50 0 6.90 0.15 7.55 l0.30 1.25 8.90 -0.10 8.85 -0.15 0.15 -7.25 0.15 -7.25 -3.55 -3.50 c-1.90 -1.90 -3.50 -3.65 -3.50 -3.85 0 -0.25 3.60 -0.40 8 -0.40 4.40 0 8 0.10 8 0.25 0 0.15 -1.45 2 -3.25 4.05 l-3.30 3.75 0.15 7.10 0.15 7.10 5.80 0.15 5.80 0.15 0.60 -6.65 c0.90 -9.45 2.80 -13.75 7.05 -15.90 5.55 -2.80 13.50 1.20 13.50 6.75 -0.05 5.75 -8.45 10.10 -11.40 5.85 -2.05 -2.90 -1.95 -7.10 0.15 -7.10 1.20 0 1.75 0.85 1.75 2.75 0 2 0.55 2.75 1.95 2.75 2.80 0 5.05 -3.10 4.10 -5.65 -1.15 -3 -6.55 -4.15 -9.45 -2.05 -3.40 2.55 -4.60 6.25 -4.60 14.15 l0 4.90 4.60 0.35 c2.50 0.15 7.85 0.30 11.90 0.30 l7.35 0 2.30 -2 c1.25 -1.10 2.50 -2 2.80 -2 0.65 0 0.80 10.30 0.15 10.70 -0.25 0.15 -1.40 -0.40 -2.65 -1.25 l-2.20 -1.45 -11.55 0 c-9.55 0 -11.65 0.15 -11.85 0.70 -0.15 0.40 0.05 5.55 0.40 11.45 0.85 12.40 2.50 21 6.30 32.60 2.05 6.20 3.10 8.75 3.65 8.75 0.30 0 1.20 -1.05 2 -2.30 1.30 -2 1.40 -2.55 1.10 -5 -0.20 -1.75 -0.10 -2.70 0.20 -2.70 0.95 0 8.50 5.55 8.20 6.05 -0.15 0.25 -0.90 0.45 -1.70 0.45 -1.80 0 -3.75 1.65 -6.40 5.40 l-2.10 3 1.45 1.90 c2.15 2.90 4.95 5.45 8.25 7.40 3.85 2.30 6.20 2.40 9.45 0.30 2.95 -1.85 3.10 -2.75 0.35 -2.30 -3.05 0.50 -5.35 -0.70 -6.50 -3.35 -1.10 -2.50 -0.75 -4.70 1.05 -6.65 1.80 -1.95 4.15 -2.45 6.70 -1.45 2.25 0.85 5.25 3.70 5.25 5 0 0.45 0.30 1.20 0.60 1.75 0.50 0.80 0.50 1.20 0 2 -0.30 0.55 -0.60 1.35 -0.60 1.75 0 0.45 -0.90 1.75 -2.05 3 -6.30 6.80 -14.50 5.55 -24.25 -3.80 -1.90 -1.85 -2.05 -1.95 -2.80 -1.10 -1.70 1.95 -2 3.20 -1.65 6.45 0.20 2.15 0.15 3.20 -0.20 3.20 -0.65 0 -9.55 -7.55 -9.55 -8.10 0 -0.20 1.30 -0.40 2.90 -0.40 2.90 0 2.95 0 4.65 -2.35 0.95 -1.30 1.85 -2.60 2.05 -2.95 0.20 -0.30 -0.50 -2.50 -1.55 -4.80 -6.05 -13.05 -9.50 -28.70 -9.85 -44.85 -0.15 -6.25 -0.40 -8.85 -0.85 -9.15 -0.30 -0.20 -2.75 -0.40 -5.40 -0.40 -5.50 0 -5.45 -0.05 -5.45 4.25 0 1.95 0.20 2.70 0.80 2.95 1.45 0.55 2.20 0.30 4.10 -1.45 1.10 -0.95 2.10 -1.60 2.30 -1.40 0.15 0.15 0.30 2.50 0.30 5.20 0 5.30 -0.45 5.90 -2.20 2.90 -1 -1.65 -2.90 -2.65 -4.35 -2.20 -0.80 0.25 -0.95 0.85 -0.95 3.70 0 3.25 0.05 3.40 2 5.30 1.10 1.05 2 2.15 2 2.35 0 0.20 -2.70 0.40 -6 0.40 -3.30 0 -6 -0.20 -6 -0.45 0 -0.25 1.10 -1.25 2.45 -2.25 2.40 -1.75 2.45 -1.85 2.65 -4.90 0.15 -1.85 0.05 -3.45 -0.25 -3.80 -0.80 -1 -3.50 -0.45 -5.50 1.10 -2.65 2.05 -2.85 1.80 -2.85 -3.20 0 -2.45 0.20 -4.50 0.45 -4.50 0.20 0 1.25 0.70 2.30 1.50 2.25 1.75 4.10 2.35 5.20 1.65 1.10 -0.70 1.40 -5.75 0.40 -6.60 -0.50 -0.40 -3.20 -0.55 -9.15 -0.45 l-8.45 0.15 -0.15 28.40 -0.10 28.35 7.25 0 7.25 0 0 -4.45 0 -4.40 -2.50 -2.35 c-1.35 -1.30 -2.50 -2.55 -2.50 -2.80 0 -0.30 2.95 -0.50 7.25 -0.50 5.50 0 7.25 0.15 7.20 0.65 0 0.30 -1.40 1.65 -3.10 2.90 l-3.10 2.30 0 4.20 0 4.20 3.25 0.15 3.25 0.15 2.75 -2.80 c1.50 -1.50 2.90 -2.75 3.10 -2.75 0.60 0 0.50 16.90 -0.10 17.25 -0.25 0.15 -1.60 -1.40 -2.95 -3.45 l-2.50 -3.70 -2.80 -0.20 c-4 -0.20 -4.25 0.05 -4.25 4.05 l0 3.35 2.75 2.40 c1.50 1.30 2.75 2.55 2.75 2.85 0 0.25 -2.75 0.45 -6.50 0.45 -5 0 -6.50 -0.15 -6.50 -0.65 0 -0.35 1 -1.65 2.25 -2.85 l2.25 -2.20 0 -3.60 c0 -2.80 -0.15 -3.65 -0.80 -3.90 -0.45 -0.15 -3.70 -0.30 -7.25 -0.30 l-6.45 0 -0.05 5.15 c-0.05 2.80 -0.15 6.45 -0.25 8.10 -0.35 5.60 -0.90 5.25 8.55 5.25 8.85 0 10.55 0.35 11.10 2.40 0.15 0.65 0.10 4.60 -0.05 8.75 -0.20 4.20 -0.25 7.95 -0.05 8.40 0.15 0.45 1.65 1.70 3.25 2.75 1.65 1.05 3 2.25 3 2.60 0 0.45 -1.85 0.60 -7.50 0.60 -6 0 -7.50 -0.15 -7.50 -0.70z m60.20 -42.05 c1 -0.40 1.80 -0.95 1.80 -1.20 0 -0.25 -0.60 -1.15 -1.30 -2 -1.10 -1.30 -1.65 -1.55 -3.50 -1.55 -1.65 0 -2.30 0.25 -2.70 0.95 -0.70 1.30 -0.65 3.20 0.10 3.95 0.80 0.80 3.40 0.75 5.60 -0.15z m-140.45 -1.50 c1.45 -1.40 1.55 -2.10 0.45 -3.65 -1 -1.50 -4.05 -1.50 -5.90 -0.05 -2 1.55 -1.55 3 1.20 4.05 2.90 1.10 2.85 1.10 4.25 -0.35z"/>
 </g>
 <g fill="none">
  <path d="M0 67 l0 -67 78.50 0 78.50 0 0 45.30 c0 30.05 -0.15 45.15 -0.50 44.95 -0.25 -0.15 -0.50 -0.75 -0.50 -1.25 0 -1.50 -2.85 -4.35 -5.25 -5.25 -2.55 -1 -4.90 -0.50 -6.70 1.45 -1.80 1.95 -2.15 4.15 -1.05 6.65 1.15 2.65 3.45 3.85 6.50 3.35 2.75 -0.45 2.60 0.45 -0.35 2.30 -3.25 2.10 -5.60 2 -9.45 -0.30 -3.30 -1.95 -6.10 -4.50 -8.25 -7.40 l-1.45 -1.90 2.10 -3 c2.65 -3.75 4.60 -5.40 6.40 -5.40 0.80 0 1.55 -0.20 1.70 -0.45 0.30 -0.50 -7.25 -6.05 -8.20 -6.05 -0.30 0 -0.40 0.95 -0.20 2.70 0.30 2.45 0.20 3 -1.10 5 -0.80 1.25 -1.70 2.30 -2 2.30 -0.55 0 -1.60 -2.55 -3.65 -8.75 -3.80 -11.60 -5.45 -20.20 -6.30 -32.60 -0.35 -5.90 -0.55 -11.05 -0.40 -11.45 0.20 -0.55 2.30 -0.70 11.85 -0.70 l11.55 0 2.20 1.45 c1.25 0.85 2.40 1.40 2.65 1.25 0.65 -0.40 0.50 -10.70 -0.15 -10.70 -0.30 0 -1.55 0.90 -2.80 2 l-2.30 2 -7.35 0 c-4.05 0 -9.40 -0.15 -11.90 -0.30 l-4.60 -0.35 0 -4.90 c0 -7.90 1.20 -11.60 4.60 -14.15 2.90 -2.10 8.30 -0.95 9.45 2.05 0.95 2.55 -1.30 5.65 -4.10 5.65 -1.40 0 -1.95 -0.75 -1.95 -2.75 0 -1.90 -0.55 -2.75 -1.75 -2.75 -2.15 0 -2.20 4.15 -0.15 7.10 2.95 4.25 11.35 -0.10 11.40 -5.85 0 -2.55 -1.60 -4.85 -4.50 -6.35 -6.05 -3.20 -11.80 -0.65 -14.50 6.45 -0.50 1.35 -1.20 5.35 -1.55 9.05 l-0.60 6.65 -5.80 -0.15 -5.80 -0.15 -0.15 -7.10 -0.15 -7.10 3.30 -3.75 c1.80 -2.05 3.25 -3.90 3.25 -4.05 0 -0.15 -3.60 -0.25 -8 -0.25 -4.40 0 -8 0.15 -8 0.40 0 0.20 1.60 1.95 3.50 3.85 l3.55 3.50 -0.15 7.25 -0.15 7.25 -8.85 0.15 -8.90 0.10 -0.30 -1.25 c-0.15 -0.65 -0.20 -4.05 -0.15 -7.55 l0.20 -6.30 3.60 -3.45 c2 -1.90 3.65 -3.70 3.65 -3.95 0 -0.30 -2.05 -0.50 -5.10 -0.50 -2.85 0 -6.75 -0.15 -8.70 -0.30 -1.95 -0.20 -3.70 -0.10 -3.85 0.15 -0.15 0.20 1.40 2.15 3.45 4.25 l3.70 3.85 0 6.95 c0 5 -0.20 7.10 -0.60 7.50 -0.45 0.30 -3.70 0.40 -9.25 0.25 l-8.65 -0.30 0 -7.30 0 -7.35 3.50 -3.45 c1.95 -1.90 3.50 -3.65 3.50 -3.85 0 -0.25 -3.50 -0.40 -7.75 -0.40 -4.25 0 -7.75 0.15 -7.75 0.30 0 0.15 1.35 1.85 3 3.80 l3.05 3.50 -0.15 7.30 -0.15 7.35 -5.75 0 -5.75 0 -0.10 -2 c-0.35 -5 -1.20 -11.25 -1.90 -13.65 -2.40 -7.95 -11.30 -10.65 -16.85 -5.10 -1.65 1.65 -1.90 2.20 -1.90 4.20 0 4 2.15 6.75 6.05 7.80 1.50 0.40 2.25 0.35 3.35 -0.20 3.25 -1.65 4.35 -8.80 1.30 -8.20 -0.65 0.10 -1.05 0.90 -1.40 2.65 -0.50 2.15 -0.75 2.50 -1.85 2.65 -1.95 0.25 -4.45 -2.05 -4.45 -4.10 0 -2.20 1.20 -3.65 3.45 -4.35 4.20 -1.25 7.80 0.75 9.50 5.35 1.40 3.70 1.55 14.40 0.20 14.90 -0.45 0.20 -5.90 0.20 -12.10 0 l-11.30 -0.30 -2.35 -1.95 c-1.30 -1.10 -2.45 -1.95 -2.60 -1.95 -0.15 0 -0.30 2.35 -0.30 5.25 0 5.90 0.05 5.95 3.25 4 1.95 -1.20 2.20 -1.25 13 -1.25 6.05 0 11.30 0.20 11.70 0.45 0.60 0.40 0.60 1.80 0.10 9.10 -0.75 10.90 -1.25 14.70 -3.10 21.95 -1.60 6.45 -4.75 16.45 -6.40 20.20 -1.20 2.80 -1.70 2.65 -3.85 -1 -1.15 -1.95 -1.20 -2.30 -0.65 -4.40 0.30 -1.30 0.50 -2.45 0.35 -2.55 -0.20 -0.20 -7 4.10 -8.40 5.35 -0.60 0.55 -0.45 0.70 1 1.05 0.95 0.25 2.25 0.65 2.80 0.85 1.15 0.45 5.70 6.65 5.70 7.75 0 1.25 -5.80 6.95 -9.05 8.90 -3.85 2.25 -6.60 2.45 -9.65 0.70 -1.95 -1.10 -3.25 -2.55 -2.75 -3.05 0.15 -0.15 1.05 -0.05 2 0.20 3.70 1.05 7.20 -1.75 7.20 -5.85 0 -2.35 -1.45 -4.35 -4.05 -5.45 -4.15 -1.75 -10.25 2.80 -10.20 7.65 0.05 5.10 6.15 10.35 12.05 10.30 3.60 -0.05 8.30 -2.40 13.35 -6.60 2 -1.70 3.85 -2.95 4.15 -2.80 0.25 0.20 0.90 1.20 1.45 2.25 0.85 1.65 0.95 2.30 0.50 4.10 -0.60 2.75 -0.60 3.40 0 3.40 0.80 0 8.95 -6.70 8.95 -7.35 0.05 -0.45 -0.80 -0.65 -2.65 -0.65 l-2.65 0 -1.85 -2.75 c-1 -1.50 -1.80 -2.95 -1.80 -3.20 0 -0.20 1 -2.55 2.20 -5.10 6.10 -12.90 9.60 -28.30 10.25 -44.70 l0.30 -8 5.45 -0.15 c3.85 -0.10 5.60 0.05 5.85 0.45 0.30 0.50 0.30 3.25 0 6.10 -0.05 0.20 -0.85 0.35 -1.85 0.35 -1.35 0 -2.15 -0.35 -3.25 -1.55 -0.80 -0.85 -1.65 -1.40 -1.95 -1.20 -0.60 0.35 -0.70 9.75 -0.10 9.75 0.25 0 1.15 -0.90 2.05 -2 1.30 -1.65 1.90 -2 3.30 -2 l1.75 0 0 3.65 c0 3.60 -0.05 3.65 -2 5.60 -1.10 1.05 -2 2.15 -2 2.35 0 0.20 2.75 0.40 6.15 0.40 l6.10 0 -2.85 -2.70 c-2.75 -2.50 -2.90 -2.80 -2.90 -5 0 -1.30 0.25 -2.80 0.50 -3.35 0.80 -1.40 3 -1.20 5.40 0.55 1.15 0.85 2.30 1.50 2.60 1.50 0.30 0 0.50 -1.80 0.50 -4.55 0 -4.85 0.10 -4.75 -2.75 -2.65 -1.90 1.40 -3.45 1.85 -4.75 1.45 -0.95 -0.30 -1.05 -0.70 -0.90 -3.65 l0.15 -3.35 8.75 0 8.75 0 -0.15 28.25 c-0.05 15.50 -0.30 28.40 -0.50 28.60 -0.20 0.20 -3.50 0.20 -7.35 0 l-7 -0.35 -0.05 -4 -0.05 -4 2.70 -2.65 c1.45 -1.45 2.65 -2.85 2.65 -3.10 0 -0.30 -2.85 -0.50 -7.30 -0.50 -4 0 -7.20 0.20 -7.10 0.45 0.10 0.20 1.60 1.60 3.30 3.05 2.55 2.10 3.15 2.80 2.90 3.70 -0.15 0.55 -0.30 2.45 -0.30 4.20 l0 3.10 -3.20 0 -3.15 0 -2.60 -2.75 c-1.45 -1.50 -2.80 -2.75 -3.10 -2.75 -0.25 0 -0.45 3.50 -0.45 8.50 0 4.70 0.10 8.50 0.20 8.50 0.10 0 1.45 -1.70 3 -3.75 l2.85 -3.80 3.10 0.15 3.10 0.15 0.15 3.75 0.15 3.80 -2.85 2.45 c-2.45 2.05 -2.70 2.50 -1.90 2.75 1.65 0.60 11.55 0.60 11.95 0.05 0.15 -0.30 -0.70 -1.65 -1.95 -2.95 -2.30 -2.45 -2.30 -2.50 -2.30 -5.95 0 -2.65 0.20 -3.60 0.75 -3.85 0.40 -0.15 3.80 -0.10 7.55 0.05 l6.80 0.30 -0.15 7.80 c-0.05 4.30 -0.20 8.45 -0.35 9.20 l-0.25 1.45 -8.85 -0.20 c-6.95 -0.10 -9 0 -9.65 0.55 -0.75 0.60 -0.85 1.90 -0.85 9.60 0 9.90 0.20 9.25 -3.95 11.90 -1.40 0.90 -2.55 1.85 -2.55 2.10 0 0.50 14.15 0.60 14.65 0.10 0.20 -0.15 -0.90 -1.20 -2.40 -2.30 l-2.75 -1.95 0.10 -8.55 0.15 -8.60 7.50 0 c4.15 0 7.80 0.10 8.15 0.20 0.40 0.10 0.60 1.60 0.60 5.10 l0 4.95 -3 2.15 c-1.65 1.15 -2.90 2.35 -2.80 2.60 0.05 0.30 3.30 0.55 7.95 0.65 9 0.15 9.45 -0.10 5.10 -2.90 -1.55 -0.95 -2.90 -2.20 -3.05 -2.75 -0.15 -0.55 -0.20 -2.90 -0.10 -5.25 l0.15 -4.25 8 0 8 0 0 8.50 0 8.45 -2.60 2 c-1.45 1.05 -2.65 2.25 -2.65 2.60 0 0.60 -7.50 0.70 -45.75 0.70 l-45.75 0 0 -67z"/>
  <path d="M106.50 133.40 c0 -0.35 -1.35 -1.55 -3 -2.60 -1.60 -1.05 -3.10 -2.30 -3.25 -2.75 -0.20 -0.45 -0.15 -4.20 0.05 -8.40 0.15 -4.15 0.20 -8.10 0.05 -8.75 -0.55 -2.05 -2.25 -2.40 -11.10 -2.40 -9.45 0 -8.90 0.35 -8.55 -5.25 0.10 -1.65 0.20 -5.30 0.25 -8.10 l0.05 -5.15 6.45 0 c3.55 0 6.80 0.15 7.25 0.30 0.65 0.25 0.80 1.10 0.80 3.90 l0 3.60 -2.25 2.20 c-1.25 1.20 -2.25 2.50 -2.25 2.85 0 0.50 1.50 0.65 6.50 0.65 3.75 0 6.50 -0.20 6.50 -0.45 0 -0.30 -1.25 -1.55 -2.75 -2.85 l-2.75 -2.40 0 -3.35 c0 -4 0.25 -4.25 4.25 -4.05 l2.80 0.20 2.50 3.70 c1.35 2.05 2.70 3.60 2.95 3.45 0.60 -0.35 0.70 -17.25 0.10 -17.25 -0.20 0 -1.60 1.25 -3.10 2.75 l-2.75 2.80 -3.25 -0.15 -3.25 -0.15 0 -4.20 0 -4.20 3.10 -2.30 c1.70 -1.25 3.10 -2.60 3.10 -2.90 0.05 -0.50 -1.70 -0.65 -7.20 -0.65 -4.30 0 -7.25 0.20 -7.25 0.50 0 0.25 1.15 1.50 2.50 2.80 l2.50 2.35 0 4.40 0 4.45 -7.25 0 -7.25 0 0.10 -28.35 0.15 -28.40 8.45 -0.15 c5.95 -0.10 8.65 0.05 9.15 0.45 1 0.85 0.70 5.90 -0.40 6.60 -1.10 0.70 -2.95 0.10 -5.20 -1.65 -1.05 -0.80 -2.10 -1.50 -2.30 -1.50 -0.25 0 -0.45 2.05 -0.45 4.50 0 5 0.20 5.25 2.85 3.20 2 -1.55 4.70 -2.10 5.50 -1.10 0.30 0.35 0.40 1.95 0.25 3.80 -0.20 3.05 -0.25 3.15 -2.65 4.90 -1.35 1 -2.45 2 -2.45 2.25 0 0.25 2.70 0.45 6 0.45 3.30 0 6 -0.20 6 -0.40 0 -0.20 -0.90 -1.30 -2 -2.35 -1.95 -1.90 -2 -2.05 -2 -5.30 0 -2.85 0.15 -3.45 0.95 -3.70 1.45 -0.45 3.35 0.55 4.35 2.20 1.75 3 2.20 2.40 2.20 -2.90 0 -2.70 -0.15 -5.05 -0.30 -5.20 -0.20 -0.20 -1.20 0.45 -2.30 1.40 -1.90 1.75 -2.65 2 -4.10 1.45 -0.60 -0.25 -0.80 -1 -0.80 -2.95 0 -4.30 -0.05 -4.25 5.45 -4.25 2.65 0 5.10 0.20 5.40 0.40 0.45 0.30 0.70 2.90 0.85 9.15 0.35 16.15 3.80 31.80 9.85 44.85 1.05 2.30 1.75 4.50 1.55 4.80 -0.20 0.35 -1.10 1.65 -2.05 2.95 -1.70 2.35 -1.75 2.35 -4.65 2.35 -1.60 0 -2.90 0.20 -2.90 0.40 0 0.55 8.90 8.10 9.55 8.10 0.35 0 0.40 -1.05 0.20 -3.20 -0.35 -3.25 -0.05 -4.50 1.65 -6.45 0.75 -0.85 0.90 -0.75 2.80 1.10 9.75 9.35 17.95 10.60 24.25 3.80 1.15 -1.25 2.05 -2.65 2.05 -3.20 0 -0.55 0.25 -1.15 0.50 -1.30 0.35 -0.20 0.50 6.75 0.50 20.45 l0 20.80 -25.25 0 c-19.85 0 -25.25 -0.15 -25.25 -0.60z"/>
  <path d="M146.10 91.40 c-0.75 -0.75 -0.80 -2.65 -0.10 -3.95 0.40 -0.70 1.05 -0.95 2.70 -0.95 1.85 0 2.40 0.25 3.50 1.55 0.70 0.85 1.30 1.75 1.30 2 0 0.65 -3.40 1.95 -5.20 1.95 -0.90 0 -1.85 -0.25 -2.20 -0.60z"/>
  <path d="M7 90.10 c-2.75 -1.05 -3.20 -2.50 -1.20 -4.05 1.85 -1.45 4.90 -1.45 5.90 0.05 1.10 1.55 1 2.25 -0.45 3.65 -1.40 1.45 -1.35 1.45 -4.25 0.35z"/>
 </g>
</svg>
