<?xml version="1.0" encoding="utf-8"?>
<!DOCTYPE svg PUBLIC "-//W3C//DTD SVG 1.0//EN" "http://www.w3.org/TR/2001/REC-SVG-20010904/DTD/svg10.dtd">
<svg version="1.0" xmlns="http://www.w3.org/2000/svg" width="158px" height="142px" viewBox="0 0 158 142" preserveAspectRatio="xMidYMid meet">
 <g fill="#000000">
  <path d="M74.10 140.15 c-3.30 -1.60 -5.05 -5.55 -4.10 -9.10 0.55 -2.10 2.90 -4.85 4.75 -5.55 1.05 -0.40 1.10 -0.80 1.40 -9.10 0.20 -4.75 0.35 -11.70 0.35 -15.45 l0 -6.80 -3.35 -0.30 c-1.90 -0.20 -10.90 -0.35 -20 -0.35 l-16.65 0 0 5.90 c0 5.60 0.05 6 1.20 7.05 0.70 0.65 2.15 1.25 3.60 1.45 1.65 0.25 2.45 0.60 2.45 1.10 0 1.10 -1 1.15 -11.60 0.75 -7.75 -0.30 -9.65 -0.50 -9.65 -1.05 0 -0.45 0.55 -0.70 1.65 -0.70 2.15 0 4.95 -1.45 5.70 -3 0.85 -1.70 0.90 -10.95 0.05 -11.20 -0.35 -0.15 -2.85 -0.35 -5.50 -0.50 l-4.85 -0.25 -1.40 2.10 c-1.50 2.25 -4.95 4.35 -7.15 4.35 -2.30 0 -5.65 -2.10 -6.85 -4.25 -4.50 -8 5.25 -15.90 12.25 -10 0.80 0.70 1.75 1.90 2.10 2.75 l0.60 1.50 5.70 0 5.70 0 0 -3.80 c0 -2.05 -0.20 -4.15 -0.50 -4.65 -0.50 -1 -2.35 -1.80 -5.10 -2.30 -1.45 -0.20 -1.90 -0.55 -1.90 -1.30 0 -0.95 0.35 -0.95 10.60 -0.85 9.30 0.15 10.65 0.25 10.80 0.95 0.10 0.60 -0.55 0.95 -2.80 1.40 -4.05 0.80 -4.80 1.70 -5 6.40 -0.15 2.05 0 3.90 0.20 4.15 0.25 0.25 9.25 0.50 19.95 0.55 l19.50 0.15 0.15 -8.85 0.10 -8.85 -8.60 -0.10 -8.65 -0.15 -0.15 -5.35 -0.15 -5.35 -5.10 -0.15 c-2.80 -0.10 -13.05 -0.25 -22.75 -0.30 l-17.65 -0.10 1.25 1.85 c0.90 1.30 1.30 2.55 1.30 4.10 0 1.90 -0.25 2.45 -1.95 4.05 -5.50 5.25 -13.05 2.05 -13.05 -5.50 0 -2.60 0.75 -4 2.10 -4 1.65 0 4.35 1.95 4.75 3.40 0.25 1.05 -0.05 1.55 -1.50 2.95 -2.10 1.90 -2.20 2.20 -0.95 3.30 1.40 1.30 3.35 1.05 5.30 -0.65 3.25 -2.90 2.90 -4.75 -2 -10.10 -4.65 -5.05 -5.70 -8.05 -3.95 -11.40 2 -3.85 10 -3.65 12.60 0.30 0.85 1.30 0.80 1.35 -0.75 2.75 -0.90 0.80 -1.90 1.45 -2.25 1.45 -0.40 0 -1.25 -0.85 -1.90 -1.90 -1 -1.55 -1.50 -1.85 -2.95 -1.85 l-1.75 0 0.05 2.30 c0 1.30 0.35 2.90 0.80 3.55 l0.80 1.25 13.65 0.30 c7.50 0.20 19.40 0.35 26.50 0.35 11.25 0 12.90 0.10 13.15 0.80 0.15 0.45 0.30 3 0.30 5.70 l0 4.90 6.40 0.20 c3.50 0.15 6.60 0.05 6.85 -0.20 0.30 -0.25 0.50 -4.60 0.50 -11.05 l0 -10.60 -2.75 -0.90 -2.75 -0.95 -2.55 2.90 c-1.75 1.95 -2.65 2.65 -2.95 2.25 -0.45 -0.80 -1.50 -12.50 -1.10 -12.90 0.15 -0.15 1.40 0.55 2.75 1.55 3.10 2.25 7.90 4.50 8.85 4.10 0.60 -0.20 0.75 -1.55 0.75 -7 0 -6.50 -0.05 -6.80 -1.10 -7.50 -0.95 -0.60 -4.90 -0.75 -21.65 -0.90 l-20.50 -0.15 -0.15 3.10 c-0.10 1.75 0.10 3.60 0.40 4.20 0.70 1.25 3.35 2.45 5.50 2.45 1.15 0 1.50 0.20 1.50 1 0 1 -0.25 1 -10.60 0.90 -10.25 -0.15 -10.65 -0.20 -10.65 -1.15 0 -0.85 0.40 -1.05 2.50 -1.25 4.40 -0.50 4.75 -0.90 4.75 -5.50 l0 -4 -2.15 0 c-1.95 0 -2.30 0.20 -3.40 1.85 -1.95 3 -3.60 3.90 -6.95 3.90 -4.60 0 -7.50 -2.70 -7.90 -7.35 -0.15 -2.20 0 -2.95 1 -4.40 3.75 -5.50 11.45 -5.35 14.10 0.25 0.85 1.75 0.95 1.80 3.20 1.65 l2.35 -0.15 0.15 -4.25 c0.15 -4 0.05 -4.35 -1.10 -5.45 -0.85 -0.80 -2.05 -1.25 -3.80 -1.45 -2 -0.20 -2.50 -0.40 -2.50 -1.15 0 -0.90 0.55 -0.95 10.45 -0.95 8.95 0 10.50 0.10 10.75 0.75 0.30 0.90 -0.05 1.05 -3.20 1.45 -1.60 0.15 -2.55 0.60 -3.40 1.55 -1.05 1.20 -1.10 1.75 -1 5.65 l0.15 4.35 17.40 0.25 c9.60 0.15 17.55 0.05 17.70 -0.15 0.15 -0.25 -0.20 -0.90 -0.75 -1.50 -3.70 -4.05 -4 -10 -0.75 -13.85 2.20 -2.65 3.45 -3 10.50 -3 l6.35 0 2.40 -2.35 c1.75 -1.75 2.45 -2.15 2.65 -1.60 0.55 1.45 0.05 13.60 -0.60 13.80 -0.35 0.15 -1.40 -0.85 -2.35 -2.20 -2.40 -3.35 -4.20 -4.30 -8.90 -4.55 -3.75 -0.20 -3.90 -0.20 -5.40 1.30 -3 3.05 -1.80 6.05 4.20 10.30 6.25 4.45 4.45 4.15 27.80 4.35 l20.75 0.20 0.15 -4.85 0.15 -4.90 -1.65 -1 c-0.90 -0.55 -2.50 -1 -3.50 -1 -1.55 0 -1.90 -0.20 -1.90 -1 0 -0.95 0.35 -1 9.90 -1 5.40 0 10.15 0.20 10.55 0.45 1.40 0.90 0.20 2.05 -2.10 2.05 -1.50 0 -2.65 0.35 -3.55 1.05 -1.25 0.95 -1.30 1.25 -1.30 5.75 l0 4.70 2.15 0 c1.95 0 2.30 -0.20 3.40 -1.85 3.50 -5.40 10.75 -5.65 14 -0.55 1.30 2.15 1.15 7 -0.30 9.05 -1.25 1.70 -4.55 3.35 -6.80 3.35 -2.50 0 -5.50 -1.95 -6.85 -4.40 -1.10 -1.95 -1.30 -2.10 -3.35 -2.10 l-2.15 0 -0.35 2.50 c-0.70 4.95 0.65 7 4.75 7.40 2.65 0.25 3.50 0.80 2.55 1.75 -0.55 0.55 -19.80 0.55 -20.65 0.05 -1.15 -0.75 -0.15 -1.60 2.15 -1.90 1.70 -0.25 2.95 -0.75 3.75 -1.55 1.10 -1.10 1.25 -1.60 1.10 -4.65 l-0.15 -3.35 -17.90 -0.45 c-9.85 -0.20 -18.05 -0.25 -18.20 -0.10 -0.20 0.20 0.15 1.15 0.80 2.20 2.25 3.75 3.20 6.40 3.45 9.60 0.20 2.70 0 3.70 -0.85 5.40 -1.35 2.65 -2.50 3.10 -7.60 3.10 l-3.95 0 0.10 10.40 0.15 10.35 7.10 0.15 7.10 0.15 0.15 -5.65 0.15 -5.65 26.75 0 26.75 0 1.20 -2.40 c1 -2 1.10 -2.60 0.65 -3.65 -1 -2.15 -3.45 -1.50 -5.25 1.40 -1.05 1.70 -1.50 1.70 -3.45 0.35 -3.90 -2.80 2 -7.45 7.55 -5.95 2.95 0.80 4.55 2.70 4.55 5.35 0 2.95 -0.90 4.55 -5.30 9.25 -3.15 3.35 -3.70 4.20 -3.70 5.70 0 2.50 2.65 5.20 5.10 5.20 3.10 0 3.80 -1.80 1.40 -3.85 -1.80 -1.50 -1.95 -3.20 -0.35 -4.70 2.75 -2.60 5.10 -2.20 5.45 0.90 0.65 5.25 -2.35 9.30 -6.75 9.30 -4.20 0 -8.35 -3.45 -8.35 -6.95 0 -0.80 0.60 -2.35 1.30 -3.35 0.70 -1.05 1.15 -2.10 0.95 -2.25 -0.20 -0.20 -10.45 -0.40 -22.75 -0.50 l-22.45 -0.20 -0.15 5.45 -0.15 5.40 -8.70 0 -8.75 0 -0.40 1.60 c-0.25 0.90 -0.35 4.85 -0.30 8.75 l0.15 7.15 19.50 0.25 c10.75 0.15 19.80 0.20 20.15 0.10 0.40 -0.15 0.60 -1.45 0.60 -4.35 0 -3.30 -0.15 -4.25 -0.85 -4.85 -1.10 -0.95 -3.90 -1.90 -5.50 -1.90 -0.90 0 -1.20 -0.25 -1.05 -0.85 0.15 -0.85 1.05 -0.90 10.65 -0.90 10.30 0 10.50 0 10.65 1.05 0.15 0.95 -0.15 1.10 -2.35 1.30 -1.35 0.15 -3.10 0.65 -3.80 1.10 -1.25 0.80 -1.30 1 -1.15 5.20 l0.15 4.35 5.35 0.15 5.30 0.15 1.15 -2.05 c2.75 -4.85 8.85 -5.70 12.75 -1.80 3.65 3.65 3 9.15 -1.50 12.50 -1 0.75 -2.10 1.05 -4 1.05 -3.25 -0.05 -5.65 -1.45 -7.25 -4.25 l-1.10 -2 -5.40 0 -5.40 0 -0.35 1.90 c-0.15 1 -0.30 3.60 -0.30 5.75 0 4.80 0.85 5.95 5.20 6.85 1.75 0.35 2.80 0.80 2.65 1.15 -0.20 0.60 -5.20 0.70 -17.50 0.45 -5.20 -0.10 -5.70 -0.95 -1.10 -1.85 4.35 -0.90 4.75 -1.60 4.75 -8.50 l0 -5.65 -6.10 -0.35 c-3.40 -0.15 -12.45 -0.25 -20.15 -0.15 l-14 0.15 -0.25 15 c-0.15 8.25 -0.20 15.25 -0.15 15.50 0.10 0.30 0.80 0.80 1.60 1.05 0.75 0.30 2.05 1.40 2.85 2.45 1.20 1.60 1.45 2.40 1.45 4.80 0 3.25 -0.90 4.90 -3.75 6.85 -2 1.35 -5.45 1.45 -7.90 0.25z m6.40 -2.90 c1.65 -0.85 2.70 -3.50 2.20 -5.45 -0.40 -1.70 -2.95 -3.80 -4.50 -3.80 -1.65 0 -4.05 1.25 -4.70 2.45 -1 1.95 -0.60 4.55 0.95 6.10 1.65 1.65 3.75 1.90 6.05 0.70z m69.05 -41.20 c1.05 -1.10 1.45 -1.95 1.45 -3.30 0 -4.20 -5.30 -6.40 -8.10 -3.35 -1.65 1.75 -2.05 3.15 -1.40 4.90 1.30 3.45 5.45 4.35 8.05 1.75z m-135.20 -1.25 c1.15 -1 1.40 -1.60 1.40 -3.55 0 -1.95 -0.25 -2.55 -1.40 -3.55 -2.65 -2.25 -6.55 -1.35 -7.85 1.75 -1.95 4.70 3.95 8.70 7.85 5.35z m72 -49.90 c0.80 -0.75 1.15 -1.65 1.15 -3 0 -2.55 -0.90 -4.25 -3.80 -6.90 -2.15 -2 -2.40 -2.10 -2.75 -1.20 -0.65 1.60 -0.50 10.95 0.15 11.60 1 1 3.95 0.70 5.25 -0.50z m61.35 -15 c1.20 -1.30 1.35 -1.85 1.15 -3.55 -0.35 -2.55 -1.65 -3.85 -4.20 -4.20 -3.70 -0.50 -6.35 3.15 -4.85 6.75 0.75 1.85 3.25 3.25 5.20 2.80 0.70 -0.10 1.90 -0.95 2.70 -1.80z m-129.55 -1.45 c2.90 -3.10 0.55 -7.95 -3.90 -7.95 -0.70 0 -1.95 0.65 -2.85 1.45 -1.35 1.20 -1.65 1.80 -1.60 3.50 0.15 4.70 5.10 6.50 8.35 3z"/>
 </g>
 <g fill="#ffffff">
  <path d="M0 71 l0 -71 79 0 79 0 0 71 0 71 -79 0 -79 0 0 -71z m82 68.90 c2.85 -1.95 3.75 -3.60 3.75 -6.85 0 -2.40 -0.25 -3.20 -1.45 -4.80 -0.80 -1.05 -2.10 -2.15 -2.85 -2.45 -0.80 -0.25 -1.50 -0.75 -1.60 -1.05 -0.05 -0.25 0 -7.25 0.15 -15.50 l0.25 -15 14 -0.15 c7.70 -0.10 16.75 0 20.15 0.15 l6.10 0.35 0 5.65 c0 6.90 -0.40 7.60 -4.75 8.50 -4.60 0.90 -4.10 1.75 1.10 1.85 12.30 0.25 17.30 0.15 17.50 -0.45 0.15 -0.35 -0.90 -0.80 -2.65 -1.15 -4.35 -0.90 -5.20 -2.05 -5.20 -6.85 0 -2.15 0.15 -4.75 0.30 -5.75 l0.35 -1.90 5.40 0 5.40 0 1.10 2 c1.60 2.80 4 4.20 7.25 4.25 7 0.05 10.50 -8.55 5.50 -13.55 -3.90 -3.90 -10 -3.05 -12.75 1.80 l-1.15 2.05 -5.30 -0.15 -5.35 -0.15 -0.15 -4.35 c-0.15 -4.20 -0.10 -4.40 1.15 -5.20 0.70 -0.45 2.45 -0.95 3.80 -1.10 2.20 -0.20 2.50 -0.35 2.35 -1.30 -0.15 -1.05 -0.35 -1.05 -10.65 -1.05 -9.60 0 -10.50 0.05 -10.65 0.90 -0.15 0.60 0.15 0.85 1.05 0.85 1.60 0 4.40 0.95 5.50 1.90 0.70 0.60 0.85 1.55 0.85 4.85 0 2.90 -0.20 4.20 -0.60 4.35 -0.35 0.10 -9.40 0.05 -20.15 -0.10 l-19.50 -0.25 -0.15 -7.15 c-0.05 -3.90 0.05 -7.85 0.30 -8.75 l0.40 -1.60 8.75 0 8.70 0 0.15 -5.40 0.15 -5.45 22.45 0.20 c12.30 0.10 22.55 0.30 22.75 0.50 0.20 0.15 -0.25 1.20 -0.95 2.25 -0.70 1 -1.30 2.55 -1.30 3.35 0 3.50 4.15 6.95 8.35 6.95 4.40 0 7.40 -4.05 6.75 -9.30 -0.35 -3.10 -2.70 -3.50 -5.45 -0.90 -1.60 1.50 -1.45 3.20 0.35 4.70 2.40 2.05 1.70 3.85 -1.40 3.85 -2.45 0 -5.10 -2.70 -5.10 -5.20 0 -1.50 0.55 -2.35 3.70 -5.70 4.40 -4.70 5.30 -6.30 5.30 -9.25 0 -2.65 -1.60 -4.55 -4.55 -5.35 -5.55 -1.50 -11.45 3.15 -7.55 5.95 1.95 1.35 2.40 1.35 3.45 -0.35 1.80 -2.90 4.25 -3.55 5.25 -1.40 0.45 1.05 0.35 1.65 -0.65 3.65 l-1.20 2.40 -26.75 0 -26.75 0 -0.15 5.65 -0.15 5.65 -7.10 -0.15 -7.10 -0.15 -0.15 -10.35 -0.10 -10.40 3.95 0 c5.10 0 6.25 -0.45 7.60 -3.10 1.90 -3.70 0.95 -9.05 -2.60 -15 -0.65 -1.05 -1 -2 -0.80 -2.20 0.15 -0.15 8.35 -0.10 18.20 0.10 l17.90 0.45 0.15 3.35 c0.15 3.05 0 3.55 -1.10 4.65 -0.80 0.80 -2.05 1.30 -3.75 1.55 -2.30 0.30 -3.30 1.15 -2.15 1.90 0.85 0.50 20.10 0.50 20.65 -0.05 0.95 -0.95 0.10 -1.50 -2.55 -1.75 -4.10 -0.40 -5.45 -2.45 -4.75 -7.40 l0.35 -2.50 2.15 0 c2.05 0 2.25 0.15 3.35 2.10 1.35 2.45 4.35 4.40 6.85 4.40 2.25 0 5.55 -1.65 6.80 -3.35 1.45 -2.05 1.60 -6.90 0.30 -9.05 -3.25 -5.10 -10.50 -4.85 -14 0.55 -1.10 1.65 -1.45 1.85 -3.40 1.85 l-2.15 0 0 -4.70 c0 -4.50 0.05 -4.80 1.30 -5.75 0.90 -0.70 2.05 -1.05 3.55 -1.05 2.30 0 3.50 -1.15 2.10 -2.05 -0.40 -0.25 -5.15 -0.45 -10.55 -0.45 -9.55 0 -9.90 0.05 -9.90 1 0 0.80 0.35 1 1.90 1 1 0 2.60 0.45 3.50 1 l1.65 1 -0.15 4.90 -0.15 4.85 -20.75 -0.20 c-23.35 -0.20 -21.55 0.10 -27.80 -4.35 -6 -4.25 -7.20 -7.25 -4.20 -10.30 1.50 -1.50 1.65 -1.50 5.40 -1.30 4.70 0.25 6.50 1.20 8.90 4.55 0.95 1.35 2 2.35 2.35 2.20 0.65 -0.20 1.15 -12.35 0.60 -13.80 -0.20 -0.55 -0.90 -0.15 -2.65 1.60 l-2.40 2.35 -6.35 0 c-7.05 0 -8.30 0.35 -10.50 3 -3.25 3.85 -2.95 9.80 0.75 13.85 0.55 0.60 0.90 1.25 0.75 1.50 -0.15 0.20 -8.10 0.30 -17.70 0.15 l-17.40 -0.25 -0.15 -4.35 c-0.10 -3.90 -0.05 -4.45 1 -5.65 0.85 -0.95 1.80 -1.40 3.40 -1.55 3.15 -0.40 3.50 -0.55 3.20 -1.45 -0.25 -0.65 -1.80 -0.75 -10.75 -0.75 -9.90 0 -10.45 0.05 -10.45 0.95 0 0.75 0.50 0.95 2.50 1.15 1.75 0.20 2.95 0.65 3.80 1.45 1.15 1.10 1.25 1.45 1.10 5.45 l-0.15 4.25 -2.35 0.15 c-2.25 0.15 -2.35 0.10 -3.20 -1.65 -2.65 -5.60 -10.35 -5.75 -14.10 -0.25 -1 1.45 -1.15 2.20 -1 4.40 0.40 4.65 3.30 7.35 7.90 7.35 3.35 0 5 -0.90 6.95 -3.90 1.10 -1.65 1.45 -1.85 3.40 -1.85 l2.15 0 0 4 c0 4.60 -0.35 5 -4.75 5.50 -2.10 0.20 -2.50 0.40 -2.50 1.25 0 0.95 0.40 1 10.65 1.15 10.35 0.10 10.60 0.10 10.60 -0.90 0 -0.80 -0.35 -1 -1.50 -1 -2.15 0 -4.80 -1.20 -5.50 -2.45 -0.30 -0.60 -0.50 -2.45 -0.40 -4.20 l0.15 -3.10 20.50 0.15 c16.75 0.15 20.70 0.30 21.65 0.90 1.05 0.70 1.10 1 1.10 7.50 0 5.45 -0.15 6.80 -0.75 7 -0.95 0.40 -5.75 -1.85 -8.85 -4.10 -1.35 -1 -2.60 -1.70 -2.75 -1.55 -0.40 0.40 0.65 12.10 1.10 12.90 0.30 0.40 1.20 -0.30 2.95 -2.25 l2.55 -2.90 2.75 0.95 2.75 0.90 0 10.60 c0 6.45 -0.20 10.80 -0.50 11.05 -0.25 0.25 -3.35 0.35 -6.85 0.20 l-6.40 -0.20 0 -4.90 c0 -2.70 -0.15 -5.25 -0.30 -5.70 -0.25 -0.70 -1.90 -0.80 -13.15 -0.80 -7.10 0 -19 -0.15 -26.50 -0.35 l-13.65 -0.30 -0.80 -1.25 c-0.45 -0.65 -0.80 -2.25 -0.80 -3.55 l-0.05 -2.30 1.75 0 c1.45 0 1.95 0.30 2.95 1.85 0.65 1.05 1.50 1.90 1.90 1.90 0.35 0 1.35 -0.65 2.25 -1.45 1.55 -1.40 1.60 -1.45 0.75 -2.75 -2.60 -3.95 -10.60 -4.15 -12.60 -0.30 -1.75 3.35 -0.70 6.35 3.95 11.40 4.90 5.35 5.25 7.20 2 10.10 -1.95 1.70 -3.90 1.95 -5.30 0.65 -1.25 -1.10 -1.15 -1.40 0.95 -3.30 1.45 -1.40 1.75 -1.90 1.50 -2.95 -0.40 -1.45 -3.10 -3.40 -4.75 -3.40 -1.35 0 -2.10 1.40 -2.10 4 0 7.55 7.55 10.75 13.05 5.50 1.70 -1.60 1.95 -2.15 1.95 -4.05 0 -1.55 -0.40 -2.80 -1.30 -4.10 l-1.25 -1.85 17.65 0.10 c9.70 0.05 19.95 0.20 22.75 0.30 l5.10 0.15 0.15 5.35 0.15 5.35 8.65 0.15 8.60 0.10 -0.10 8.85 -0.15 8.85 -19.50 -0.15 c-10.70 -0.05 -19.70 -0.30 -19.95 -0.55 -0.20 -0.25 -0.35 -2.10 -0.20 -4.15 0.20 -4.70 0.95 -5.60 5 -6.40 2.25 -0.45 2.90 -0.80 2.80 -1.40 -0.15 -0.70 -1.50 -0.80 -10.80 -0.95 -10.25 -0.10 -10.60 -0.10 -10.60 0.85 0 0.75 0.45 1.10 1.90 1.30 2.75 0.50 4.60 1.30 5.10 2.30 0.30 0.50 0.50 2.60 0.50 4.65 l0 3.80 -5.70 0 -5.70 0 -0.60 -1.50 c-1.40 -3.40 -5.75 -5.50 -9.35 -4.55 -5.35 1.45 -7.70 6.95 -5 11.80 1.20 2.15 4.55 4.25 6.85 4.25 2.20 0 5.65 -2.10 7.15 -4.35 l1.40 -2.10 4.85 0.25 c2.65 0.15 5.15 0.35 5.50 0.50 0.85 0.25 0.80 9.50 -0.05 11.20 -0.75 1.55 -3.55 3 -5.70 3 -1.10 0 -1.65 0.25 -1.65 0.70 0 0.55 1.90 0.75 9.65 1.05 10.60 0.40 11.60 0.35 11.60 -0.75 0 -0.50 -0.80 -0.85 -2.45 -1.10 -1.45 -0.20 -2.90 -0.80 -3.60 -1.45 -1.15 -1.05 -1.20 -1.45 -1.20 -7.05 l0 -5.90 16.65 0 c9.10 0 18.10 0.15 20 0.35 l3.35 0.30 0 6.80 c0 3.75 -0.15 10.70 -0.35 15.45 -0.30 8.30 -0.35 8.70 -1.40 9.10 -1.85 0.70 -4.20 3.45 -4.75 5.55 -0.65 2.30 -0.05 5.15 1.50 7.05 2.30 2.95 7.50 3.85 10.50 1.80z"/>
  <path d="M74.45 136.55 c-1.55 -1.55 -1.95 -4.15 -0.95 -6.10 0.65 -1.20 3.05 -2.45 4.70 -2.45 1.55 0 4.10 2.10 4.50 3.80 1.20 4.80 -4.75 8.25 -8.25 4.75z"/>
  <path d="M143.15 96.60 c-1.35 -1.05 -2.30 -3.40 -1.85 -4.80 0.15 -0.55 0.90 -1.65 1.60 -2.40 2.80 -3.05 8.10 -0.85 8.10 3.35 0 3.80 -4.85 6.20 -7.85 3.85z"/>
  <path d="M7.75 94.80 c-1.60 -1.60 -2 -3.45 -1.25 -5.35 1.30 -3.10 5.20 -4 7.85 -1.75 1.15 1 1.40 1.60 1.40 3.55 0 1.95 -0.25 2.55 -1.40 3.55 -1.95 1.65 -4.95 1.65 -6.60 0z"/>
  <path d="M81.10 45.40 c-0.65 -0.65 -0.80 -10 -0.15 -11.60 0.35 -0.90 0.60 -0.80 2.75 1.20 2.90 2.65 3.80 4.35 3.80 6.90 0 2.50 -1.60 4.10 -4.05 4.10 -0.95 0 -2 -0.25 -2.35 -0.60z"/>
  <path d="M142.10 31.25 c-1.90 -0.85 -3.15 -3.30 -2.75 -5.40 0.15 -0.75 0.95 -1.95 1.80 -2.65 1.30 -1.05 1.90 -1.25 3.50 -1.05 2.55 0.35 3.85 1.65 4.20 4.20 0.20 1.70 0.05 2.25 -1.15 3.55 -1.75 1.90 -3.45 2.30 -5.60 1.35z"/>
  <path d="M12.75 30.05 c-1.80 -0.75 -2.90 -2.45 -2.95 -4.60 -0.10 -4.95 6.70 -6.75 9 -2.40 1.05 2.10 0.85 3.75 -0.65 5.40 -1.50 1.60 -3.80 2.25 -5.40 1.60z"/>
 </g>
</svg>