<?xml version="1.0" encoding="utf-8"?>
<!DOCTYPE svg PUBLIC "-//W3C//DTD SVG 1.0//EN" "http://www.w3.org/TR/2001/REC-SVG-20010904/DTD/svg10.dtd">
<svg version="1.0" xmlns="http://www.w3.org/2000/svg" width="172px" height="122px" viewBox="0 0 172 122" preserveAspectRatio="xMidYMid meet">
 <g fill="#000000">
  <path d="M128.75 120.55 l-5.50 -0.30 -0.15 -12.60 -0.10 -12.65 -3.40 0 -3.40 0 -4.50 3.80 c-2.45 2.10 -6.10 5.25 -8.15 7 -2.05 1.75 -4 3.20 -4.40 3.20 -0.50 0 -0.65 -1.50 -0.65 -7 0 -5.20 -0.15 -7.10 -0.60 -7.25 -0.35 -0.10 -7.90 -0.30 -16.75 -0.50 l-16.15 -0.30 0 5.90 0 5.90 1.75 0.95 c2.40 1.30 3.95 4.60 3.50 7.35 -0.75 4.30 -5.20 7.20 -9.20 6 -6.80 -2 -7.50 -10.95 -1.10 -13.95 l1.80 -0.85 0.15 -5.30 c0.15 -5.20 0.10 -5.35 -1 -5.65 -0.65 -0.15 -11.40 -0.30 -23.90 -0.35 -12.50 -0.05 -25.65 -0.20 -29.25 -0.40 l-6.50 -0.30 -0.15 -2.45 -0.15 -2.50 7.65 -7.65 c4.20 -4.20 7.90 -7.65 8.25 -7.65 0.95 0 1 0.90 0.75 8.80 -0.20 7.15 -0.20 7.60 0.70 7.85 0.50 0.15 10.50 0.35 22.20 0.45 l21.25 0.15 0.15 -9.85 0.10 -9.90 -1.20 0 c-3.85 0 -11.80 -4.55 -16.45 -9.45 l-2.85 -3 0 -11.95 0 -11.95 -6.35 -0.30 c-3.55 -0.20 -9.40 -0.35 -13.05 -0.35 -7.20 0 -8.65 -0.40 -10.55 -2.80 -2.10 -2.65 -0.90 -6.45 2.60 -8.30 1.95 -1.10 2.80 -1.15 13 -1.30 l10.85 -0.15 -1.10 -1.60 c-1.65 -2.30 -1.60 -6.95 0 -9.25 3.25 -4.50 9.80 -4.30 13 0.45 1.55 2.25 1.40 6.65 -0.35 8.95 -0.80 1.10 -0.90 1.55 -0.45 1.70 0.95 0.30 30.40 0.85 30.40 0.60 0 -0.15 -0.55 -1.10 -1.25 -2.10 -1.75 -2.55 -1.75 -6.70 -0.05 -9.25 3.15 -4.60 10.45 -4.60 13.60 0 1.70 2.55 1.70 6.70 -0.05 9.25 -0.85 1.25 -1.05 1.90 -0.60 2.05 0.30 0.10 10.40 0.30 22.35 0.45 l21.80 0.30 2.65 -1.30 c3.10 -1.55 4.90 -4 5.35 -7.20 0.45 -3.30 -1.75 -7.35 -4.80 -8.90 -2.85 -1.40 -5.90 -1.45 -7.70 -0.05 -4.05 3.20 -3.60 9.70 0.75 11 3 0.90 6.45 -1.40 5.15 -3.45 -0.80 -1.25 -2.55 -1.35 -3.20 -0.10 -0.30 0.55 -0.75 0.90 -1.05 0.75 -0.85 -0.55 -0.45 -2.70 0.65 -3.45 3.20 -2.25 7.15 1.10 5.90 5 -0.85 2.55 -3.40 3.85 -6.85 3.60 -2.50 -0.20 -3 -0.45 -4.70 -2.25 -2.90 -3.15 -3.25 -8.10 -0.80 -11.75 1.75 -2.60 3.95 -3.50 8.45 -3.30 3.30 0.15 4.10 0.35 5.95 1.65 1.20 0.85 2.85 2.50 3.70 3.70 1.40 2 1.50 2.45 1.50 6.55 0 4.10 -0.10 4.55 -1.50 6.55 -0.80 1.15 -2.35 2.80 -3.40 3.65 l-1.95 1.55 -12.20 0.15 c-6.70 0.10 -12.20 0.35 -12.20 0.55 0 0.25 0.35 0.70 0.75 1.05 0.45 0.35 0.75 1.45 0.75 2.70 0 1.70 -0.30 2.40 -1.55 3.60 l-1.50 1.45 -13.35 0.25 -13.35 0.25 -0.30 11.10 c-0.35 12.70 -0.05 11.75 -5.85 17.25 -4.30 4 -8.15 6.25 -12.20 7.10 l-3.15 0.65 0 9.70 0 9.70 16 0.25 c8.80 0.15 16.30 0.20 16.60 0.10 0.45 -0.15 0.65 -2.15 0.75 -7 0.15 -6.50 0.20 -6.85 1.20 -7 0.75 -0.10 3.25 1.90 8.90 7.15 l7.90 7.25 3.15 0 c2.40 0 3.20 -0.20 3.45 -0.80 0.15 -0.45 0.30 -5.90 0.30 -12.20 0 -9.25 0.15 -11.55 0.70 -12.15 0.60 -0.55 2 -0.65 6.90 -0.50 3.40 0.15 6.40 0.30 6.65 0.35 0.30 0.10 0.50 4.80 0.50 12.85 l0 12.70 5.95 0 c5.40 0 6 -0.10 6.50 -1 2.40 -4.40 5.20 -6.25 9.30 -6.25 4.55 0 8.40 2.90 9.55 7.15 1.55 5.80 -2.50 11.55 -8.60 12.15 -2.30 0.25 -3.10 0.10 -5.45 -1.15 -2.25 -1.20 -2.95 -1.90 -4 -4 l-1.25 -2.60 -6.05 0 -6.05 -0.05 -0.30 12.30 c-0.25 13 -0.35 13.30 -2.60 13.10 -0.55 -0.05 -3.45 -0.20 -6.50 -0.35z m-63.25 -3.30 c1.85 -0.95 2.50 -2.15 2.50 -4.50 0 -4.30 -5.45 -6.40 -8.55 -3.30 -1.15 1.15 -1.45 1.90 -1.45 3.55 0 4 3.80 6.15 7.50 4.25z m69.25 -2.50 l0 -3 -4.20 -0.15 c-3.05 -0.10 -4.35 0.05 -4.60 0.50 -0.55 0.80 -0.60 5.10 -0.10 5.60 0.20 0.20 2.30 0.25 4.65 0.20 l4.25 -0.15 0 -3z m0.15 -8.85 l-0.15 -3.15 -4.35 -0.15 -4.40 -0.15 0 3.30 0 3.25 4.50 0 4.55 0 -0.15 -3.10z m-24.25 -10.70 c-0.25 -0.75 -8.75 -0.85 -9.25 -0.10 -0.45 0.75 -0.55 7.60 -0.10 8.05 0.40 0.40 9.50 -7.35 9.35 -7.95z m52.80 4.85 c2.65 -1.35 3.70 -3.15 3.70 -6.35 0 -4.25 -2.80 -7.20 -6.80 -7.20 -4.35 0 -7.35 3 -7.35 7.35 0 5.45 5.45 8.70 10.45 6.20z m-28.55 -2.15 l-0.15 -2.65 -4.25 0 -4.25 0 -0.15 1.95 c-0.25 3.20 -0.10 3.30 4.65 3.30 l4.30 0 -0.15 -2.60z m-24.50 -7.60 c-0.15 -0.80 -7.75 -7.80 -8.45 -7.80 -0.50 0 -0.60 7.65 -0.10 8.15 0.15 0.20 2.20 0.35 4.50 0.35 3.35 0 4.20 -0.15 4.05 -0.70z m24.85 -1 c0.65 -3.40 0.50 -3.55 -4.50 -3.55 l-4.50 0 -0.15 2.65 -0.15 2.60 4.50 0 4.50 0 0.30 -1.70z m-120.05 -1.65 c0.45 -2.85 0.35 -7.80 -0.20 -8.65 -0.40 -0.60 -1.50 0.25 -5.75 4.50 -2.90 2.85 -5.25 5.40 -5.25 5.60 0 0.25 2.45 0.40 5.45 0.40 l5.40 0 0.35 -1.85z m120 -4.45 c0.15 -0.45 0.30 -1.95 0.30 -3.45 l0 -2.60 -4.05 -0.35 c-2.85 -0.25 -4.20 -0.20 -4.75 0.20 -0.90 0.80 -1 6.30 -0.05 6.65 0.30 0.15 2.30 0.30 4.40 0.30 3.05 0.05 3.90 -0.10 4.15 -0.75z m0.20 -11.55 l-0.15 -3.40 -4.30 -0.15 -4.30 -0.15 -0.30 3.15 c-0.15 1.70 -0.15 3.30 -0.05 3.50 0.15 0.20 2.30 0.40 4.75 0.40 l4.50 0 -0.15 -3.35z m-64.15 -6.40 c1.95 -0.95 4.45 -2.85 7.25 -5.55 l4.25 -4.10 0.15 -10.50 0.15 -10.45 -18.85 -0.30 c-10.40 -0.20 -19 -0.20 -19.15 -0.05 -0.15 0.15 -0.35 4.90 -0.45 10.60 l-0.15 10.30 3.40 3.25 c4.20 4 6.65 5.75 10.50 7.35 3.95 1.70 8.60 1.45 12.90 -0.55z m11.75 -36.70 l0 -3.40 -4.60 -0.35 c-2.50 -0.15 -11.05 -0.30 -19 -0.30 l-14.45 0 0.15 3.40 0.15 3.35 11.25 0.25 c6.20 0.15 14.70 0.35 18.90 0.40 l7.60 0.10 0 -3.45z m30.20 2.35 c1.10 -1.55 1 -2.60 -0.40 -4.25 l-1.20 -1.40 -12.20 0 -12.15 0 -0.15 2.70 c-0.10 1.45 -0.05 3 0.10 3.35 0.20 0.55 2.65 0.70 12.75 0.70 12.35 0 12.50 0 13.25 -1.10z m-71.45 -2.90 l0 -3.25 -6.40 -0.40 c-3.55 -0.25 -6.75 -0.30 -7.10 -0.15 -0.55 0.20 -0.60 0.55 -0.15 1.85 0.35 1.10 0.40 2.05 0 3.25 -0.60 2.05 -0.70 2 7.65 1.95 l6 0 0 -3.25z m-16.55 1.90 c1.10 -1.55 1 -3.50 -0.20 -4.80 -0.90 -0.95 -1.55 -1.10 -5.20 -1.10 -3.45 0 -4.40 0.20 -5.50 1.05 -1.55 1.25 -1.65 2.85 -0.25 4.65 0.95 1.25 1.25 1.30 5.70 1.30 4.30 0 4.75 -0.10 5.45 -1.10z m62.75 -10.10 c1.65 -0.85 2.55 -2.70 2.55 -5.10 0 -1.40 -0.40 -2.20 -1.70 -3.50 -2.40 -2.40 -5.20 -2.40 -7.60 0 -1.35 1.35 -1.70 2.10 -1.70 3.65 0.05 3.45 2.10 5.60 5.40 5.65 0.90 0 2.25 -0.30 3.05 -0.70z m-40.90 -1.25 c2.80 -2.85 1.60 -7.75 -2.25 -9.05 -5.25 -1.70 -9.25 5.10 -5.35 9.05 1.20 1.20 1.90 1.45 3.80 1.45 1.90 0 2.60 -0.25 3.80 -1.45z"/>
  <path d="M156.80 96.45 c-1.50 -1.75 -1.60 -2.90 -0.55 -4.90 1.45 -2.80 6.25 -2.90 7.70 -0.15 2.55 4.75 -3.70 9.15 -7.15 5.05z m4.85 -1.50 c1 -1.35 0.50 -2.90 -0.95 -3.25 -1.50 -0.40 -2.70 0.55 -2.70 2 0 2.30 2.40 3.10 3.65 1.25z"/>
 </g>
 <g fill="#ffffff">
  <path d="M0 61 l0 -61 86 0 86 0 0 61 0 61 -86 0 -86 0 0 -61z m136.90 59.55 c0.55 -0.30 0.75 -3.20 0.95 -12.75 l0.30 -12.30 6.05 0.05 6.05 0 1.25 2.60 c1.05 2.10 1.75 2.80 4 4 2.35 1.25 3.15 1.40 5.45 1.15 6.10 -0.60 10.15 -6.35 8.60 -12.15 -1.15 -4.25 -5 -7.15 -9.55 -7.15 -4.10 0 -6.90 1.85 -9.30 6.25 -0.50 0.90 -1.10 1 -6.50 1 l-5.95 0 0 -12.70 c0 -8.05 -0.20 -12.75 -0.50 -12.85 -0.25 -0.05 -3.25 -0.20 -6.65 -0.35 -4.90 -0.15 -6.30 -0.05 -6.90 0.50 -0.55 0.60 -0.70 2.90 -0.70 12.15 0 6.30 -0.15 11.75 -0.30 12.20 -0.25 0.60 -1.05 0.80 -3.45 0.80 l-3.15 0 -7.90 -7.25 c-5.65 -5.25 -8.15 -7.25 -8.90 -7.15 -1 0.15 -1.05 0.50 -1.20 7 -0.10 4.85 -0.30 6.85 -0.75 7 -0.30 0.10 -7.80 0.05 -16.60 -0.10 l-16 -0.25 0 -9.70 0 -9.70 3.15 -0.65 c4.05 -0.85 7.90 -3.10 12.20 -7.10 5.80 -5.50 5.50 -4.55 5.85 -17.25 l0.30 -11.10 13.35 -0.25 13.35 -0.25 1.50 -1.45 c1.25 -1.20 1.55 -1.90 1.55 -3.60 0 -1.25 -0.30 -2.35 -0.75 -2.70 -0.40 -0.35 -0.75 -0.80 -0.75 -1.05 0 -0.20 5.50 -0.45 12.20 -0.55 l12.20 -0.15 1.95 -1.55 c1.05 -0.85 2.60 -2.50 3.40 -3.65 1.40 -2 1.50 -2.45 1.50 -6.55 0 -4.10 -0.10 -4.55 -1.50 -6.55 -0.85 -1.20 -2.50 -2.85 -3.70 -3.70 -1.85 -1.30 -2.65 -1.50 -5.95 -1.65 -4.50 -0.20 -6.70 0.70 -8.45 3.30 -2.45 3.65 -2.10 8.60 0.80 11.75 1.70 1.80 2.20 2.05 4.70 2.25 3.45 0.25 6 -1.05 6.85 -3.60 1.25 -3.90 -2.70 -7.25 -5.90 -5 -1.10 0.75 -1.50 2.90 -0.65 3.45 0.30 0.15 0.75 -0.20 1.05 -0.75 0.65 -1.25 2.40 -1.15 3.20 0.10 1.30 2.05 -2.15 4.35 -5.15 3.45 -4.35 -1.30 -4.80 -7.80 -0.75 -11 1.80 -1.40 4.85 -1.35 7.70 0.05 3.05 1.55 5.25 5.60 4.80 8.90 -0.45 3.20 -2.25 5.65 -5.35 7.20 l-2.65 1.30 -21.80 -0.30 c-11.95 -0.15 -22.05 -0.35 -22.35 -0.45 -0.45 -0.15 -0.25 -0.80 0.60 -2.05 1.75 -2.55 1.75 -6.70 0.05 -9.25 -3.15 -4.60 -10.45 -4.60 -13.60 0 -1.70 2.55 -1.70 6.70 0.05 9.25 0.70 1 1.25 1.95 1.25 2.10 0 0.25 -29.45 -0.30 -30.40 -0.60 -0.45 -0.15 -0.35 -0.60 0.45 -1.70 1.75 -2.30 1.90 -6.70 0.35 -8.95 -3.20 -4.75 -9.75 -4.95 -13 -0.45 -1.60 2.30 -1.65 6.95 0 9.25 l1.10 1.60 -10.85 0.15 c-10.20 0.15 -11.05 0.20 -13 1.30 -3.50 1.85 -4.70 5.65 -2.60 8.30 1.90 2.40 3.35 2.80 10.55 2.80 3.65 0 9.50 0.15 13.05 0.35 l6.35 0.30 0 11.95 0 11.95 2.85 3 c4.65 4.90 12.60 9.45 16.45 9.45 l1.20 0 -0.10 9.90 -0.15 9.85 -21.25 -0.15 c-11.70 -0.10 -21.70 -0.30 -22.20 -0.45 -0.90 -0.25 -0.90 -0.70 -0.70 -7.85 0.25 -7.90 0.20 -8.80 -0.75 -8.80 -0.35 0 -4.05 3.45 -8.25 7.65 l-7.65 7.65 0.15 2.50 0.15 2.45 6.50 0.30 c3.60 0.20 16.75 0.35 29.25 0.40 12.50 0.05 23.25 0.20 23.90 0.35 1.10 0.30 1.15 0.45 1 5.65 l-0.15 5.30 -1.80 0.85 c-6.40 3 -5.70 11.95 1.10 13.95 4 1.20 8.45 -1.70 9.20 -6 0.45 -2.75 -1.10 -6.05 -3.50 -7.35 l-1.75 -0.95 0 -5.90 0 -5.90 16.15 0.30 c8.85 0.20 16.40 0.40 16.75 0.50 0.45 0.15 0.60 2.05 0.60 7.25 0 5.50 0.15 7 0.65 7 0.40 0 2.35 -1.45 4.40 -3.20 2.05 -1.75 5.70 -4.90 8.15 -7 l4.50 -3.80 3.40 0 3.40 0 0.10 12.65 0.15 12.60 5.50 0.30 c3.05 0.15 5.95 0.30 6.50 0.35 0.55 0.05 1.30 -0.10 1.65 -0.35z"/>
  <path d="M59.45 116.55 c-1.15 -1.15 -1.45 -1.90 -1.45 -3.55 0 -4.55 5.30 -6.75 8.55 -3.55 2.40 2.45 1.90 6.25 -1.05 7.80 -2.30 1.20 -4.35 0.95 -6.05 -0.70z"/>
  <path d="M125.85 117.70 c-0.50 -0.50 -0.45 -4.80 0.10 -5.60 0.25 -0.45 1.55 -0.60 4.60 -0.50 l4.20 0.15 0 3 0 3 -4.25 0.15 c-2.35 0.05 -4.45 0 -4.65 -0.20z"/>
  <path d="M126 105.75 l0 -3.30 4.40 0.15 4.35 0.15 0.15 3.15 0.15 3.10 -4.55 0 -4.50 0 0 -3.25z"/>
  <path d="M101.30 103.15 c-0.45 -0.45 -0.35 -7.30 0.10 -8.05 0.50 -0.75 9 -0.65 9.25 0.10 0.15 0.60 -8.95 8.35 -9.35 7.95z"/>
  <path d="M156.70 100.05 c-2.65 -1.60 -3.70 -3.40 -3.70 -6.20 0 -4.35 3 -7.35 7.35 -7.35 4 0 6.80 2.95 6.80 7.20 0 3.20 -1.05 5 -3.70 6.35 -2.40 1.20 -4.75 1.20 -6.75 0z m6.55 -3.30 c2.25 -2.20 1.45 -5.80 -1.50 -7.05 -2.20 -0.90 -4.50 -0.15 -5.50 1.85 -1.05 2 -0.95 3.15 0.55 4.90 1.70 2.05 4.60 2.20 6.45 0.30z"/>
  <path d="M158.60 95.40 c-0.85 -0.85 -0.75 -2.65 0.15 -3.40 1 -0.85 3.05 -0.25 3.40 0.95 0.55 2.10 -2.10 3.90 -3.55 2.45z"/>
  <path d="M126.20 99.80 c-0.15 -0.40 -0.20 -1.55 -0.10 -2.60 l0.15 -1.95 4.25 0 4.25 0 0.15 2.65 0.15 2.60 -4.30 0 c-3.20 0 -4.35 -0.20 -4.55 -0.70z"/>
  <path d="M101.85 90.65 c-0.50 -0.50 -0.40 -8.15 0.10 -8.15 0.70 0 8.30 7 8.45 7.80 0.15 0.55 -0.70 0.70 -4.05 0.70 -2.30 0 -4.35 -0.15 -4.50 -0.35z"/>
  <path d="M126.10 88.40 l0.15 -2.65 4.50 0 c5 0 5.15 0.15 4.50 3.55 l-0.30 1.70 -4.50 0 -4.50 0 0.15 -2.60z"/>
  <path d="M4 89.10 c0 -0.20 2.35 -2.75 5.25 -5.60 4.25 -4.25 5.35 -5.10 5.75 -4.50 0.55 0.85 0.65 5.80 0.20 8.65 l-0.35 1.85 -5.40 0 c-3 0 -5.45 -0.15 -5.45 -0.40z"/>
  <path d="M126.65 83.65 c-0.95 -0.35 -0.85 -5.85 0.05 -6.65 0.55 -0.40 1.90 -0.45 4.75 -0.20 l4.05 0.35 0 2.60 c0 4.20 -0.05 4.25 -4.45 4.20 -2.10 0 -4.10 -0.15 -4.40 -0.30z"/>
  <path d="M126.30 74.60 c-0.10 -0.20 -0.10 -1.80 0.05 -3.50 l0.30 -3.15 4.30 0.15 4.30 0.15 0.15 3.40 0.15 3.35 -4.50 0 c-2.45 0 -4.60 -0.20 -4.75 -0.40z"/>
  <path d="M58.35 65.80 c-3.85 -1.60 -6.30 -3.35 -10.50 -7.35 l-3.40 -3.25 0.15 -10.30 c0.10 -5.70 0.30 -10.45 0.45 -10.60 0.15 -0.15 8.75 -0.15 19.15 0.05 l18.85 0.30 -0.15 10.45 -0.15 10.50 -4.25 4.10 c-5.25 5.10 -8.70 6.85 -13.75 7.15 -2.90 0.15 -4 -0.05 -6.40 -1.05z"/>
  <path d="M56.50 31.50 l-11.25 -0.25 -0.15 -3.35 -0.15 -3.40 14.45 0 c7.95 0 16.50 0.15 19 0.30 l4.60 0.35 0 3.40 0 3.45 -7.60 -0.10 c-4.20 -0.05 -12.70 -0.25 -18.90 -0.40z"/>
  <path d="M87.20 31.30 c-0.15 -0.35 -0.20 -1.90 -0.10 -3.35 l0.15 -2.70 12.15 0 12.20 0 1.20 1.40 c1.40 1.65 1.50 2.70 0.40 4.25 -0.75 1.10 -0.90 1.10 -13.25 1.10 -10.10 0 -12.55 -0.15 -12.75 -0.70z"/>
  <path d="M28.70 31.10 c-1 -0.15 -1.05 -0.30 -0.60 -1.80 0.40 -1.20 0.35 -2.15 0 -3.25 -0.45 -1.30 -0.40 -1.65 0.15 -1.85 0.35 -0.15 3.55 -0.10 7.10 0.15 l6.40 0.40 0 3.25 0 3.25 -6 0 c-3.30 0.05 -6.50 -0.05 -7.05 -0.15z"/>
  <path d="M14.05 29.70 c-1.40 -1.80 -1.30 -3.40 0.25 -4.65 1.10 -0.85 2.05 -1.05 5.50 -1.05 3.65 0 4.30 0.15 5.20 1.10 1.20 1.30 1.30 3.25 0.20 4.80 -0.70 1 -1.15 1.10 -5.45 1.10 -4.45 0 -4.75 -0.05 -5.70 -1.30z"/>
  <path d="M82.05 19.80 c-1.60 -0.90 -2.50 -2.65 -2.55 -4.95 0 -1.55 0.35 -2.30 1.70 -3.65 1.40 -1.40 2.10 -1.70 3.80 -1.70 1.70 0 2.40 0.30 3.80 1.70 1.85 1.85 2.25 4.10 1.10 6.55 -1.10 2.50 -5.20 3.55 -7.85 2.05z"/>
  <path d="M39.45 18.55 c-2.80 -2.80 -1.80 -7.30 1.90 -8.85 3.60 -1.50 7.15 1.05 7.15 5.15 0 1.80 -0.30 2.50 -1.45 3.70 -1.20 1.20 -1.90 1.45 -3.80 1.45 -1.90 0 -2.60 -0.25 -3.80 -1.45z"/>
 </g>
</svg>