<?xml version="1.0" encoding="utf-8"?>
<!DOCTYPE svg PUBLIC "-//W3C//DTD SVG 1.0//EN" "http://www.w3.org/TR/2001/REC-SVG-20010904/DTD/svg10.dtd">
<svg version="1.0" xmlns="http://www.w3.org/2000/svg" width="162px" height="134px" viewBox="0 0 162 134" preserveAspectRatio="xMidYMid meet">
 <g fill="#000000">
  <path d="M56.50 131.75 c-0.95 -1.10 -0.45 -1.90 6.70 -10.95 3.45 -4.40 6.30 -8.35 6.30 -8.75 0 -0.45 0.15 -2.60 0.30 -4.80 0.40 -4.85 0.15 -5.15 -4.20 -5.30 -2.65 -0.10 -3.30 0.05 -4.35 1.05 -1.05 1 -1.25 1.65 -1.25 4.10 0 1.60 -0.20 2.90 -0.40 2.90 -0.60 0 -6.60 -6.20 -6.60 -6.85 0 -0.40 0.75 -0.50 2.40 -0.30 2.10 0.25 2.60 0.10 3.85 -1 l1.45 -1.25 -1.60 -1.80 c-0.85 -1 -1.75 -2.45 -1.90 -3.20 -0.80 -3.25 -2.65 -3.45 -5.35 -0.60 -1.60 1.75 -2.15 2 -4 2 -6.55 0 -7.85 -8.15 -1.65 -10.50 2.05 -0.75 4.50 0.15 6.10 2.30 2.05 2.65 4.15 2.25 4.90 -0.90 0.15 -0.75 1 -2.15 1.80 -3.10 0.85 -0.90 1.50 -1.95 1.50 -2.25 0 -1.10 -2.45 -2.15 -4.85 -2 -1.85 0.10 -2.35 -0.05 -2.25 -0.60 0.20 -0.85 5.90 -6.05 6.45 -5.85 0.20 0.10 0.35 1.15 0.25 2.40 -0.10 1.80 0.10 2.55 1.10 3.75 1.15 1.40 1.35 1.50 4.60 1.35 1.90 -0.10 3.65 -0.35 3.85 -0.55 0.20 -0.20 0.30 -2.50 0.25 -5.10 l-0.15 -4.70 -8.80 -0.15 -8.80 -0.10 -10.60 11.60 c-5.80 6.40 -10.55 11.85 -10.55 12.20 0 0.35 1.25 1.90 2.75 3.50 2.90 3.10 3.10 3.45 2.10 3.85 -1.30 0.50 -16.35 2 -16.70 1.65 -0.30 -0.30 1.05 -13.60 1.70 -16.15 0.15 -0.65 0.50 -1.15 0.85 -1.15 0.30 0 1.90 1.35 3.55 3 1.65 1.65 3.10 3 3.30 3 0.25 0 17.60 -18.85 18.70 -20.30 0.25 -0.35 0.35 -0.75 0.20 -0.90 -0.10 -0.15 -4.50 -0.30 -9.70 -0.40 l-9.50 -0.15 -0.05 1.75 c-0.05 0.95 -0.10 2.30 -0.15 2.95 0 0.65 -0.95 2.05 -2.05 3.15 -1.95 1.95 -2.10 2 -4.60 1.80 -2.20 -0.25 -2.85 -0.55 -4.25 -2.10 -1.35 -1.45 -1.65 -2.20 -1.65 -3.90 0 -4.05 3.30 -7.15 7.15 -6.80 l1.60 0.15 0.15 -12.45 c0.05 -8.40 -0.05 -12.60 -0.40 -12.80 -0.30 -0.20 -2.55 -0.40 -5 -0.45 l-4.45 -0.10 -1.25 1.95 c-3.15 5 -10.30 4.10 -11.80 -1.45 -1.95 -7.20 8.30 -11.20 11.85 -4.60 l0.90 1.65 5.10 0 5.15 0 0.05 -5.35 c0 -3 0.10 -8.65 0.10 -12.65 l0.10 -7.25 -1.25 0.10 c-2.25 0.15 -5.40 -1.30 -6.50 -3.05 -1.60 -2.60 -1.35 -5.45 0.65 -7.65 1.45 -1.55 2.05 -1.85 4.45 -2.05 2.60 -0.20 2.85 -0.10 4.50 1.55 1.90 1.85 2.45 3.60 2.05 6.15 l-0.25 1.55 18.65 0.30 c10.85 0.20 18.85 0.15 19.10 -0.10 0.25 -0.25 0.20 -0.90 -0.15 -1.55 -1 -1.90 -0.35 -5.40 1.35 -7.10 2.75 -2.70 7.90 -2.25 10 0.90 0.95 1.45 1.15 4.55 0.45 6.85 l-0.40 1.35 15.40 0 c16.75 0 20.40 0.35 23.15 2.15 1 0.65 2.95 1.30 4.35 1.50 3 0.35 4.75 1.05 9.15 3.85 3.65 2.25 5.20 2.45 8.05 1 4.20 -2.15 8.05 -7.75 8.80 -12.85 0.40 -2.60 1.10 -2.70 3.10 -0.45 2.75 3.15 3.80 6.80 3.80 13.30 0.05 5.20 -0.05 6 -1.30 8.60 -2.50 5.35 -6.55 9.20 -13.25 12.60 -2.05 1 -3.65 2.15 -3.65 2.55 0 0.40 1.55 1.50 3.70 2.50 9.45 4.45 15.85 11.90 19.25 22.25 2.50 7.60 3.35 21 1.40 22.20 -0.75 0.45 -1.30 0.05 -3.70 -2.65 -2.85 -3.20 -9.75 -9.05 -10.70 -9.05 -0.25 0 -0.45 3.35 -0.45 7.95 0 4.40 -0.20 8.10 -0.45 8.25 -0.25 0.15 -1.05 -0.60 -1.80 -1.75 -2.10 -3 -4.55 -4.95 -6.25 -4.95 l-1.50 0 0 4.25 c0 3.95 0.10 4.30 1.50 5.90 0.80 0.95 2.25 2.25 3.25 2.90 3.20 2.20 2.50 2.45 -6.25 2.45 -8.95 0 -9.55 -0.30 -5.95 -2.75 3.90 -2.75 4.45 -3.80 4.45 -8.55 l0 -4.20 -1.45 0 c-1.70 0 -3.80 1.60 -5.80 4.45 -2.45 3.60 -2.75 3 -2.75 -5.65 0 -5.20 0.20 -7.85 0.55 -8.10 0.35 -0.20 1.15 0.40 1.85 1.35 2.70 3.55 4.65 5 6.30 4.85 l1.55 -0.15 0.15 -5.70 c0.10 -3.50 -0.05 -5.90 -0.40 -6.30 -0.55 -0.65 -4.40 -1.45 -9.65 -2 -1.60 -0.20 -3 -0.60 -3.15 -0.95 -0.15 -0.35 0.15 -1.45 0.55 -2.50 0.95 -2.25 1.10 -6.25 0.25 -7.80 -0.60 -1.15 -3.30 -2.50 -5 -2.50 -1.75 0 -3.80 1.35 -4.45 2.90 -0.75 1.80 -0.35 3.60 1.55 7 1.15 2.05 1.40 2.80 0.95 3.25 -0.40 0.40 -3.75 0.65 -10.20 0.75 -5.30 0.10 -9.70 0.25 -9.80 0.35 -0.20 0.25 17.90 20.95 18.55 21.20 0.30 0.10 1.95 -1.25 3.65 -2.95 3.15 -3.10 3.20 -3.15 3.70 -1.95 0.75 1.85 2.20 16 1.70 16.50 -0.25 0.25 -3.60 0.05 -7.85 -0.55 -4.10 -0.55 -7.75 -1 -8.15 -1 -0.35 0 -0.80 -0.35 -1 -0.80 -0.20 -0.55 0.70 -1.80 2.80 -3.90 l3.10 -3.15 -2.15 -2.50 c-1.20 -1.35 -5.80 -6.65 -10.30 -11.75 l-8.10 -9.25 -7.40 -0.30 c-6.55 -0.30 -7.40 -0.25 -7.95 0.50 -0.70 0.90 -0.90 8 -0.25 8.95 0.20 0.30 1.85 0.70 3.70 0.85 3.30 0.30 3.35 0.30 4.70 -1.25 1.10 -1.40 1.25 -1.95 1.10 -4 -0.15 -1.30 -0.15 -2.50 0 -2.65 0.35 -0.35 7.10 6.25 7.10 6.90 0 0.25 -1.10 0.30 -2.45 0.10 -2.10 -0.30 -2.60 -0.15 -3.80 0.90 l-1.40 1.20 1.50 1.95 c0.85 1.05 1.80 2.80 2.15 3.85 0.70 2.20 2.05 2.50 2.90 0.60 0.30 -0.70 1.35 -1.60 2.30 -2.05 3.70 -1.80 7.80 0.80 7.80 4.90 0 2.70 -2.55 5.40 -5.05 5.40 -2.05 0 -4.75 -1.55 -5.20 -2.95 -0.55 -1.85 -2.05 -1.25 -2.95 1.20 -0.50 1.20 -1.40 2.75 -2.10 3.35 -1.45 1.40 -1.50 2 -0.30 3.05 0.65 0.60 1.85 0.85 3.90 0.85 l2.90 0 -3.45 3.50 c-1.90 1.95 -3.65 3.50 -3.85 3.50 -0.20 0 -0.35 -1.20 -0.25 -2.70 0.10 -2.25 -0.10 -2.95 -1.10 -4 -1.20 -1.25 -2.15 -1.35 -8.15 -0.85 -0.25 0.05 -0.40 2.30 -0.40 5.10 l0 5.05 5.90 7.70 c7.50 9.90 7.65 10.15 7.05 11.30 -0.45 0.85 -1.45 0.90 -14.40 0.90 -11.90 0 -14 -0.10 -14.55 -0.75z m12.90 -7.90 c0.10 -3.65 -0.05 -5.90 -0.35 -5.75 -0.60 0.20 -9.05 10.95 -9.05 11.50 0 0.25 2.10 0.35 4.65 0.30 l4.60 -0.15 0.15 -5.90z m12.60 5.85 c0 -0.35 -9 -12.20 -9.30 -12.20 -0.10 0 -0.20 2.80 -0.20 6.25 l0 6.25 4.75 0 c2.60 0 4.75 -0.15 4.75 -0.30z m-12.25 -33.45 l0 -3 -4.90 -0.15 c-5.50 -0.15 -6 0.15 -4.60 2.90 1.25 2.40 3.50 3.55 6.75 3.40 l2.75 -0.15 0 -3z m10.15 2.25 c1.45 -0.90 3.60 -4.20 3.05 -4.70 -0.10 -0.10 -2.45 -0.30 -5.20 -0.35 l-5 -0.20 -0.15 2.45 c-0.10 1.35 -0.05 2.75 0.10 3.10 0.40 1.10 5.20 0.90 7.20 -0.30z m15.10 -4.50 c1.60 -1.60 1.25 -3.30 -0.90 -4.45 -2.60 -1.35 -4.80 2.30 -2.75 4.55 1.05 1.20 2.40 1.15 3.65 -0.10z m-45.40 -0.35 c1.80 -1.65 0.50 -4.65 -2.10 -4.65 -1.65 0 -2.50 0.85 -2.50 2.55 0 2.60 2.70 3.85 4.60 2.10z m20.15 -6.40 l0 -3 -2.15 -0.15 c-3.80 -0.30 -8.10 2.70 -8.10 5.60 0 0.75 0.65 0.80 5.15 0.70 l5.10 -0.15 0 -3z m13.25 2.30 c0 -1.35 -2.40 -4.05 -4.35 -4.85 -2 -0.85 -4.75 -0.90 -5.55 -0.10 -0.65 0.65 -0.85 5 -0.25 5.55 0.15 0.20 2.55 0.35 5.25 0.35 4.50 0 4.90 -0.10 4.90 -0.95z m57.90 -7.40 c1.70 -1.80 3.10 -3.45 3.10 -3.70 0 -0.55 -7.80 -4.45 -8.85 -4.45 -0.90 0 -0.95 11.30 0 11.65 1.30 0.55 2.70 -0.30 5.75 -3.50z m16.90 -0.25 c-1.05 -12.35 -4.65 -20.85 -11.75 -27.55 -3.60 -3.35 -9.40 -6.70 -10.80 -6.15 -1.15 0.40 -0.90 22.25 0.25 22.85 0.40 0.20 2.50 1.15 4.60 2.10 5.05 2.35 9.25 5.20 13.60 9.40 1.95 1.90 3.75 3.45 4 3.45 0.25 0 0.30 -1.80 0.10 -4.10z m-133.55 -5.15 c2.10 -2.05 1.50 -5.10 -1.20 -6.20 -2.30 -1 -5 0.85 -5.05 3.35 -0.05 3.55 3.85 5.30 6.25 2.85z m107.65 -18.40 l0.10 -11.35 -1.25 -0.50 c-0.75 -0.30 -2.05 -0.50 -2.90 -0.50 -4.20 -0.05 -3.80 -2.25 0.65 -3.70 l3.25 -1.05 0.45 -8.50 c0.40 -8 0.40 -8.50 -0.50 -9.15 -3.60 -2.55 -9.15 -5.60 -10.25 -5.60 l-1.35 0 0.25 4.15 c0.20 3.60 0.10 4.40 -0.95 6.35 -0.80 1.55 -1.75 2.55 -3.05 3.20 -1.70 0.80 -2.10 0.85 -3.75 0.20 -5.55 -2.10 -5.35 -10.30 0.40 -14.40 1.45 -1 1.50 -1.20 0.80 -1.90 -1.10 -1.10 -8.25 -1.55 -25.65 -1.55 l-14.65 -0.05 -0.25 1.10 c-0.15 0.65 -0.20 3.85 -0.15 7.15 l0.15 6 3.50 0.15 c3.10 0.15 3.55 0.05 4.30 -1 0.50 -0.60 1 -1 1.20 -0.85 0.15 0.20 0.25 2 0.15 4 l-0.15 3.70 -1.30 -1.40 c-1.20 -1.30 -1.50 -1.40 -4.50 -1.25 l-3.20 0.15 -0.15 18.40 -0.10 18.35 17.75 0 c9.75 0 17.75 -0.20 17.75 -0.40 0 -0.25 -0.35 -1.50 -0.80 -2.80 -2.10 -6.05 1.75 -10.90 8.10 -10.15 5.45 0.60 8.65 6.75 6.45 12.45 -0.25 0.65 0.05 0.90 1.35 1.10 0.90 0.15 2.80 0.45 4.15 0.70 4.30 0.85 4 1.70 4.15 -11.05z m-62.25 9.80 c0.15 -0.25 0.40 -8.40 0.60 -18.20 0.30 -13.70 0.25 -17.90 -0.20 -18.20 -0.35 -0.20 -1.75 -0.45 -3.10 -0.50 -2 -0.15 -2.70 0 -3.90 1.05 -0.80 0.65 -1.60 1.20 -1.75 1.20 -0.15 0 -0.30 -1.55 -0.30 -3.50 0 -1.90 0.20 -3.50 0.40 -3.50 0.25 0 0.85 0.45 1.35 1 0.80 0.90 1.45 1 4.20 0.90 l3.30 -0.15 0 -7 0 -7 -21 -0.30 c-11.55 -0.20 -21.15 -0.20 -21.35 0 -0.15 0.15 -0.40 12.35 -0.50 27.05 l-0.15 26.75 8.25 0.25 c13.60 0.45 33.95 0.55 34.15 0.15z m-59.20 -24.95 c1.40 -1.75 1.30 -3.45 -0.20 -4.95 -2.40 -2.45 -6.25 -0.85 -6.25 2.60 0 3.50 4.30 5.05 6.45 2.35z m128.85 -5.30 c4.15 -2.30 8.25 -6.35 9.90 -9.65 2.25 -4.60 2.30 -11.40 0.10 -16.50 l-0.65 -1.50 -1.60 3.15 c-2.20 4.40 -5.10 7.30 -8.85 9.15 l-3.20 1.50 0 7.75 c0 8.85 -0.15 8.65 4.30 6.10z m-22.55 -9.70 c1.60 -2.45 1.45 -9.70 -0.20 -9.70 -0.85 0 -4.05 3.05 -4.85 4.55 -1 1.95 -0.90 3.60 0.35 5.15 1.40 1.75 3.55 1.75 4.70 0z m-91.75 -17.80 c3.30 -3.55 -1.85 -8.60 -5.25 -5.15 -1.50 1.50 -1.60 3.20 -0.20 4.95 1.35 1.70 3.95 1.80 5.45 0.20z m49.45 -0.80 c2.45 -1.95 0.65 -6.60 -2.55 -6.60 -1.80 0 -3.90 2 -3.90 3.65 0 0.65 0.45 1.80 1.05 2.55 1.25 1.55 3.75 1.75 5.40 0.40z"/>
  <path d="M97.75 46.50 c-0.60 -0.20 -2.15 -1.10 -3.50 -1.95 -2.90 -1.85 -4.15 -1.90 -7.10 -0.45 -1.90 0.95 -2.30 1 -2.70 0.40 -1.05 -1.70 4.50 -4.45 7.55 -3.75 0.75 0.15 2.50 1.10 3.85 2.05 2.70 1.90 5.05 2.20 6.30 0.80 1.80 -2 0.20 -5.60 -2.10 -4.85 -1.55 0.50 -1.25 1.25 0.45 1.25 1.15 0 1.50 0.20 1.50 1 0 1.20 -1.70 2.15 -3.05 1.75 -0.55 -0.20 -1.35 -0.85 -1.75 -1.55 -1.65 -2.45 1.30 -5.70 4.45 -4.95 3.05 0.80 4.85 5.35 3.15 8.05 -1.40 2.10 -4.75 3.15 -7.05 2.20z"/>
  <path d="M95 26.25 c-3.05 -2 -4.25 -2.10 -7.60 -0.90 -2.55 0.90 -3.45 0.65 -2.60 -0.75 0.75 -1.20 3.10 -2.25 5.70 -2.50 1.95 -0.15 2.60 0.05 4.85 1.60 3.30 2.25 4.80 2.65 6.40 1.60 1.35 -0.90 1.65 -2.65 0.75 -4.35 -0.65 -1.20 -3 -1.30 -3 -0.15 0 0.60 0.30 0.75 1.20 0.50 1.50 -0.35 2.05 0.35 1.30 1.70 -0.65 1.20 -3.10 1.35 -4.20 0.20 -1 -1 -1 -3.40 0 -4.40 1.95 -1.95 5.65 -1.30 6.95 1.25 1.25 2.35 0.95 4.80 -0.70 6.50 -2.20 2.15 -5.40 2.05 -9.05 -0.30z"/>
  <path d="M50.85 64.20 c-0.75 -0.40 -2.20 -1.30 -3.20 -1.95 -2.15 -1.50 -4.05 -1.60 -6.60 -0.30 -1.95 1 -3.40 0.75 -2.90 -0.55 0.45 -1.20 3.95 -2.60 6.40 -2.65 1.90 0 2.85 0.35 5.05 1.90 3.05 2.05 4.90 2.35 6.40 0.85 1.20 -1.20 1.25 -2.40 0.20 -3.90 -0.85 -1.25 -2.70 -1.35 -3.10 -0.15 -0.15 0.50 0.15 0.60 1.35 0.30 1.35 -0.30 1.55 -0.20 1.55 0.65 0 1.15 -1.25 2.60 -2.20 2.60 -0.35 0 -1.25 -0.45 -2 -1.05 -3.65 -2.85 1.05 -7.50 5.05 -5 3.45 2.15 3.20 7.45 -0.50 9.20 -2.15 1.05 -3.65 1.05 -5.50 0.05z"/>
  <path d="M44.30 46.70 c-2.35 -2.65 -4.30 -5 -4.30 -5.25 0 -0.40 6.35 -7.55 8.10 -9.05 0.55 -0.50 1.30 -0.75 1.65 -0.50 1 0.55 8.25 9.10 8.25 9.70 0 0.90 -8.20 9.90 -9 9.90 -0.25 0 -2.35 -2.15 -4.70 -4.80z m8.25 -1.30 c1.60 -1.75 2.90 -3.40 2.95 -3.65 0 -0.65 -5.45 -6.95 -6.25 -7.15 -0.30 -0.05 -2 1.45 -3.70 3.40 l-3.20 3.55 1.45 1.60 c3.65 4.10 4.95 5.35 5.35 5.35 0.25 0 1.80 -1.40 3.40 -3.10z"/>
  <path d="M51.65 27.50 c-0.60 -0.25 -2.05 -1.15 -3.20 -1.95 -2.45 -1.80 -3.85 -1.90 -6.90 -0.55 -1.15 0.55 -2.35 0.85 -2.60 0.70 -1.60 -0.95 1.20 -3.40 4.55 -3.95 2.10 -0.35 4.15 0.35 7.20 2.45 3.20 2.15 6.30 1.30 6.30 -1.80 0 -1.50 -1.65 -3.15 -2.75 -2.75 -1.30 0.55 -0.90 1.50 0.50 1.15 1.80 -0.45 2.30 1.05 0.80 2.30 -1.45 1.15 -2.15 1.15 -3.55 0 -1.60 -1.30 -1.50 -3.50 0.25 -5 1.80 -1.55 3.95 -1.20 5.90 0.90 3.85 4.30 -1 10.70 -6.50 8.50z"/>
 </g>
 <g fill="#ffffff">
  <path d="M0 67 l0 -67 81 0 81 0 0 67 0 67 -81 0 -81 0 0 -67z m85.45 64.60 c0.60 -1.15 0.45 -1.40 -7.05 -11.30 l-5.90 -7.70 0 -5.05 c0 -2.80 0.15 -5.05 0.40 -5.10 6 -0.50 6.95 -0.40 8.15 0.85 1 1.05 1.20 1.75 1.10 4 -0.10 1.50 0.05 2.70 0.25 2.70 0.20 0 1.95 -1.55 3.85 -3.50 l3.45 -3.50 -2.90 0 c-2.05 0 -3.25 -0.25 -3.90 -0.85 -1.20 -1.05 -1.15 -1.65 0.30 -3.05 0.70 -0.60 1.60 -2.15 2.10 -3.35 0.90 -2.45 2.40 -3.05 2.95 -1.20 0.45 1.40 3.15 2.95 5.20 2.95 2.50 0 5.05 -2.70 5.05 -5.40 0 -4.10 -4.10 -6.70 -7.80 -4.90 -0.95 0.45 -2 1.35 -2.30 2.05 -0.85 1.90 -2.20 1.60 -2.90 -0.60 -0.35 -1.05 -1.30 -2.80 -2.15 -3.85 l-1.50 -1.95 1.40 -1.20 c1.20 -1.05 1.70 -1.20 3.80 -0.90 1.35 0.20 2.45 0.15 2.45 -0.10 0 -0.65 -6.75 -7.25 -7.10 -6.90 -0.15 0.15 -0.15 1.35 0 2.65 0.15 2.05 0 2.60 -1.10 4 -1.35 1.55 -1.40 1.55 -4.70 1.25 -1.85 -0.15 -3.50 -0.55 -3.70 -0.85 -0.65 -0.95 -0.45 -8.05 0.25 -8.95 0.55 -0.75 1.40 -0.80 7.95 -0.50 l7.40 0.30 8.10 9.25 c4.50 5.10 9.10 10.40 10.30 11.75 l2.15 2.50 -3.10 3.15 c-2.10 2.10 -3 3.35 -2.80 3.90 0.20 0.45 0.65 0.80 1 0.80 0.40 0 4.05 0.45 8.15 1 4.25 0.60 7.60 0.80 7.85 0.55 0.50 -0.50 -0.95 -14.65 -1.70 -16.50 -0.50 -1.20 -0.55 -1.15 -3.70 1.95 -1.70 1.70 -3.35 3.05 -3.65 2.95 -0.65 -0.25 -18.75 -20.95 -18.55 -21.20 0.10 -0.10 4.50 -0.25 9.80 -0.35 6.45 -0.10 9.80 -0.35 10.20 -0.75 0.45 -0.45 0.20 -1.20 -0.95 -3.25 -1.90 -3.40 -2.30 -5.20 -1.55 -7 0.65 -1.55 2.70 -2.90 4.45 -2.90 1.70 0 4.40 1.35 5 2.50 0.85 1.55 0.70 5.55 -0.25 7.80 -0.40 1.05 -0.70 2.15 -0.55 2.50 0.15 0.35 1.55 0.75 3.15 0.95 5.25 0.55 9.10 1.35 9.65 2 0.35 0.40 0.50 2.80 0.40 6.30 l-0.15 5.70 -1.55 0.15 c-1.65 0.15 -3.60 -1.30 -6.30 -4.85 -0.70 -0.95 -1.50 -1.55 -1.85 -1.35 -0.35 0.25 -0.55 2.90 -0.55 8.10 0 8.65 0.30 9.25 2.75 5.65 2 -2.85 4.10 -4.45 5.80 -4.45 l1.45 0 0 4.20 c0 4.75 -0.55 5.80 -4.45 8.55 -3.60 2.45 -3 2.75 5.95 2.75 8.75 0 9.45 -0.25 6.25 -2.45 -1 -0.65 -2.45 -1.95 -3.25 -2.90 -1.40 -1.60 -1.50 -1.95 -1.50 -5.90 l0 -4.25 1.50 0 c1.70 0 4.15 1.95 6.25 4.95 0.75 1.15 1.55 1.90 1.80 1.75 0.25 -0.15 0.45 -3.85 0.45 -8.25 0 -4.60 0.20 -7.95 0.45 -7.95 0.95 0 7.85 5.85 10.70 9.05 2.40 2.70 2.95 3.10 3.70 2.65 1.95 -1.20 1.10 -14.60 -1.40 -22.20 -3.40 -10.35 -9.80 -17.80 -19.25 -22.25 -2.15 -1 -3.70 -2.10 -3.70 -2.50 0 -0.40 1.60 -1.55 3.65 -2.55 6.70 -3.40 10.75 -7.25 13.25 -12.60 1.25 -2.60 1.35 -3.40 1.30 -8.60 0 -6.50 -1.05 -10.15 -3.80 -13.30 -2 -2.25 -2.70 -2.15 -3.10 0.45 -0.75 5.10 -4.60 10.70 -8.80 12.85 -2.85 1.45 -4.40 1.25 -8.05 -1 -4.40 -2.80 -6.15 -3.50 -9.15 -3.85 -1.40 -0.20 -3.35 -0.85 -4.35 -1.50 -2.75 -1.80 -6.40 -2.15 -23.15 -2.15 l-15.40 0 0.40 -1.35 c0.70 -2.30 0.50 -5.40 -0.45 -6.85 -2.10 -3.15 -7.25 -3.60 -10 -0.90 -1.70 1.70 -2.35 5.20 -1.35 7.10 0.35 0.65 0.40 1.30 0.15 1.55 -0.25 0.25 -8.25 0.30 -19.10 0.10 l-18.65 -0.30 0.25 -1.55 c0.40 -2.55 -0.15 -4.30 -2.05 -6.15 -1.65 -1.65 -1.90 -1.75 -4.50 -1.55 -2.40 0.20 -3 0.50 -4.45 2.05 -2 2.20 -2.25 5.05 -0.65 7.65 1.10 1.75 4.25 3.20 6.50 3.05 l1.25 -0.10 -0.10 7.25 c0 4 -0.10 9.65 -0.10 12.65 l-0.05 5.35 -5.15 0 -5.10 0 -0.90 -1.65 c-3.55 -6.60 -13.80 -2.60 -11.85 4.60 1.50 5.55 8.65 6.45 11.80 1.45 l1.25 -1.95 4.45 0.10 c2.45 0.05 4.70 0.25 5 0.45 0.35 0.20 0.45 4.40 0.40 12.80 l-0.15 12.45 -1.60 -0.15 c-3.85 -0.35 -7.15 2.75 -7.15 6.80 0 1.70 0.30 2.45 1.65 3.90 1.40 1.55 2.05 1.85 4.25 2.10 2.50 0.20 2.65 0.15 4.60 -1.80 1.10 -1.10 2.05 -2.50 2.05 -3.15 0.05 -0.65 0.10 -2 0.15 -2.95 l0.05 -1.75 9.50 0.15 c5.20 0.10 9.60 0.25 9.70 0.40 0.15 0.15 0.05 0.55 -0.20 0.90 -1.10 1.45 -18.45 20.30 -18.70 20.30 -0.20 0 -1.65 -1.35 -3.30 -3 -1.65 -1.65 -3.25 -3 -3.55 -3 -0.35 0 -0.70 0.50 -0.85 1.15 -0.65 2.55 -2 15.85 -1.70 16.15 0.35 0.35 15.40 -1.15 16.70 -1.65 1 -0.40 0.80 -0.75 -2.10 -3.85 -1.50 -1.60 -2.75 -3.15 -2.75 -3.50 0 -0.35 4.75 -5.80 10.55 -12.20 l10.60 -11.60 8.80 0.10 8.80 0.15 0.15 4.70 c0.05 2.60 -0.05 4.90 -0.25 5.10 -0.20 0.20 -1.95 0.45 -3.85 0.55 -3.25 0.15 -3.45 0.05 -4.60 -1.35 -1 -1.20 -1.20 -1.95 -1.10 -3.75 0.10 -1.25 -0.05 -2.30 -0.25 -2.40 -0.55 -0.20 -6.25 5 -6.45 5.85 -0.10 0.55 0.40 0.70 2.25 0.60 2.40 -0.15 4.85 0.90 4.85 2 0 0.30 -0.65 1.35 -1.50 2.25 -0.80 0.95 -1.65 2.35 -1.80 3.10 -0.75 3.15 -2.85 3.55 -4.90 0.90 -1.60 -2.15 -4.05 -3.05 -6.10 -2.30 -3.45 1.35 -5 4.55 -3.50 7.40 1.10 2.15 2.70 3.10 5.15 3.10 1.85 0 2.40 -0.25 4 -2 2.70 -2.85 4.55 -2.65 5.35 0.60 0.15 0.75 1.05 2.20 1.90 3.20 l1.60 1.80 -1.45 1.25 c-1.25 1.10 -1.75 1.25 -3.85 1 -1.65 -0.20 -2.40 -0.10 -2.40 0.30 0 0.65 6 6.85 6.60 6.85 0.20 0 0.40 -1.30 0.40 -2.90 0 -2.45 0.20 -3.10 1.25 -4.10 1.05 -1 1.70 -1.15 4.35 -1.05 4.35 0.15 4.60 0.45 4.20 5.30 -0.15 2.20 -0.30 4.35 -0.30 4.80 0 0.40 -2.85 4.35 -6.30 8.75 -7.15 9.05 -7.65 9.85 -6.70 10.95 0.55 0.65 2.65 0.75 14.55 0.75 12.95 0 13.95 -0.05 14.40 -0.90z"/>
  <path d="M60 129.60 c0 -0.55 8.45 -11.30 9.05 -11.50 0.30 -0.15 0.45 2.10 0.35 5.75 l-0.15 5.90 -4.60 0.15 c-2.55 0.05 -4.65 -0.05 -4.65 -0.30z"/>
  <path d="M72.50 123.75 c0 -3.45 0.10 -6.25 0.20 -6.25 0.30 0 9.30 11.85 9.30 12.20 0 0.15 -2.15 0.30 -4.75 0.30 l-4.75 0 0 -6.25z"/>
  <path d="M62.65 98.55 c-1.80 -1.10 -3.35 -3.75 -2.95 -4.85 0.25 -0.60 1.25 -0.70 5.15 -0.60 l4.90 0.15 0 3 0 3 -2.75 0.15 c-2.05 0.10 -3.15 -0.15 -4.35 -0.85z"/>
  <path d="M72.70 98.80 c-0.15 -0.35 -0.20 -1.75 -0.10 -3.10 l0.15 -2.45 5 0.20 c2.75 0.05 5.10 0.25 5.20 0.35 0.55 0.50 -1.60 3.80 -3.05 4.70 -2 1.20 -6.80 1.40 -7.20 0.30z"/>
  <path d="M91.35 94.10 c-2.05 -2.25 0.15 -5.90 2.75 -4.55 2.15 1.15 2.50 2.85 0.90 4.45 -1.25 1.25 -2.60 1.30 -3.65 0.10z"/>
  <path d="M45.80 93.70 c-0.95 -0.90 -1.05 -3.25 -0.20 -4.10 0.90 -0.90 3.15 -0.70 4.05 0.30 2.35 2.60 -1.40 6.30 -3.85 3.80z"/>
  <path d="M59.50 89.70 c0 -2.90 4.30 -5.90 8.10 -5.60 l2.15 0.15 0 3 0 3 -5.10 0.15 c-4.50 0.10 -5.15 0.05 -5.15 -0.70z"/>
  <path d="M72.85 90.15 c-0.60 -0.55 -0.40 -4.90 0.25 -5.55 0.80 -0.80 3.55 -0.75 5.55 0.10 1.95 0.80 4.35 3.50 4.35 4.85 0 0.85 -0.40 0.95 -4.90 0.95 -2.70 0 -5.10 -0.15 -5.25 -0.35z"/>
  <path d="M135.15 85.65 c-0.95 -0.35 -0.90 -11.65 0 -11.65 1.05 0 8.85 3.90 8.85 4.45 0 0.25 -1.40 1.90 -3.10 3.70 -3.05 3.20 -4.45 4.05 -5.75 3.50z"/>
  <path d="M153.70 82.55 c-4.35 -4.20 -8.55 -7.05 -13.60 -9.40 -2.10 -0.95 -4.20 -1.90 -4.60 -2.10 -1.15 -0.60 -1.40 -22.45 -0.25 -22.85 1.40 -0.55 7.20 2.80 10.80 6.15 7.10 6.70 10.70 15.20 11.75 27.55 0.20 2.30 0.15 4.10 -0.10 4.10 -0.25 0 -2.05 -1.55 -4 -3.45z"/>
  <path d="M20.15 77.50 c-2 -0.80 -2.80 -3.85 -1.50 -5.55 1.20 -1.55 2.80 -2.10 4.40 -1.40 2.70 1.10 3.30 4.15 1.20 6.20 -1.25 1.30 -2.25 1.50 -4.10 0.75z"/>
  <path d="M127.75 69.40 c-1.35 -0.25 -3.25 -0.55 -4.15 -0.70 -1.30 -0.20 -1.60 -0.45 -1.35 -1.10 2.20 -5.70 -1 -11.85 -6.45 -12.45 -6.35 -0.75 -10.20 4.10 -8.10 10.15 0.45 1.30 0.80 2.55 0.80 2.80 0 0.20 -8 0.40 -17.75 0.40 l-17.75 0 0.10 -18.35 0.15 -18.40 3.20 -0.15 c3 -0.15 3.30 -0.05 4.50 1.25 l1.30 1.40 0.15 -3.70 c0.10 -2 0 -3.80 -0.15 -4 -0.20 -0.15 -0.70 0.25 -1.20 0.85 -0.75 1.05 -1.20 1.15 -4.30 1 l-3.50 -0.15 -0.15 -6 c-0.05 -3.30 0 -6.50 0.15 -7.15 l0.25 -1.10 14.65 0.05 c17.40 0 24.55 0.45 25.65 1.55 0.70 0.70 0.65 0.90 -0.80 1.90 -5.75 4.10 -5.95 12.30 -0.40 14.40 1.65 0.65 2.05 0.60 3.75 -0.20 1.30 -0.65 2.25 -1.65 3.05 -3.20 1.05 -1.95 1.15 -2.75 0.95 -6.35 l-0.25 -4.15 1.35 0 c1.10 0 6.65 3.05 10.25 5.60 0.90 0.65 0.90 1.15 0.50 9.15 l-0.45 8.50 -3.25 1.05 c-4.45 1.45 -4.85 3.65 -0.65 3.70 0.85 0 2.15 0.20 2.90 0.50 l1.25 0.50 -0.10 11.35 c-0.15 12.75 0.15 11.90 -4.15 11.05z m-25.50 -23.10 c2.40 -1 3.45 -2.85 3.10 -5.35 -0.30 -2.30 -1.80 -4.20 -3.70 -4.70 -3.15 -0.75 -6.10 2.50 -4.45 4.95 0.40 0.70 1.20 1.35 1.75 1.55 1.35 0.40 3.05 -0.55 3.05 -1.75 0 -0.80 -0.35 -1 -1.50 -1 -1.70 0 -2 -0.75 -0.45 -1.25 2.30 -0.75 3.90 2.85 2.10 4.85 -1.25 1.40 -3.60 1.10 -6.30 -0.80 -1.35 -0.95 -3.10 -1.90 -3.85 -2.05 -3.05 -0.70 -8.60 2.05 -7.55 3.75 0.40 0.60 0.80 0.55 2.70 -0.40 2.95 -1.45 4.20 -1.40 7.10 0.45 4.20 2.65 5.25 2.90 8 1.75z m1.80 -19.75 c1.65 -1.70 1.95 -4.15 0.70 -6.50 -1.30 -2.55 -5 -3.20 -6.95 -1.25 -1 1 -1 3.40 0 4.40 1.10 1.15 3.55 1 4.20 -0.20 0.75 -1.35 0.20 -2.05 -1.30 -1.70 -0.90 0.25 -1.20 0.10 -1.20 -0.50 0 -1.15 2.35 -1.05 3 0.15 0.90 1.70 0.60 3.45 -0.75 4.35 -1.60 1.05 -3.10 0.65 -6.40 -1.60 -2.25 -1.55 -2.90 -1.75 -4.85 -1.60 -2.60 0.25 -4.95 1.30 -5.70 2.50 -0.85 1.40 0.05 1.65 2.60 0.75 3.35 -1.20 4.55 -1.10 7.60 0.90 3.65 2.35 6.85 2.45 9.05 0.30z"/>
  <path d="M35.50 68 l-8.25 -0.25 0.15 -26.75 c0.10 -14.70 0.35 -26.90 0.50 -27.05 0.20 -0.20 9.80 -0.20 21.35 0 l21 0.30 0 7 0 7 -3.30 0.15 c-2.75 0.10 -3.40 0 -4.20 -0.90 -0.50 -0.55 -1.10 -1 -1.35 -1 -0.20 0 -0.40 1.60 -0.40 3.50 0 1.95 0.15 3.50 0.30 3.50 0.15 0 0.95 -0.55 1.75 -1.20 1.20 -1.05 1.90 -1.20 3.90 -1.05 1.35 0.05 2.75 0.30 3.10 0.50 0.45 0.30 0.50 4.50 0.20 18.20 -0.20 9.80 -0.45 17.95 -0.60 18.20 -0.20 0.40 -20.55 0.30 -34.15 -0.15z m20.85 -3.85 c3.70 -1.75 3.95 -7.05 0.50 -9.20 -4 -2.50 -8.70 2.15 -5.05 5 0.75 0.60 1.65 1.05 2 1.05 0.95 0 2.20 -1.45 2.20 -2.60 0 -0.85 -0.20 -0.95 -1.55 -0.65 -1.20 0.30 -1.50 0.20 -1.35 -0.30 0.40 -1.20 2.25 -1.10 3.10 0.15 1.05 1.50 1 2.70 -0.20 3.90 -1.50 1.50 -3.35 1.20 -6.40 -0.85 -2.20 -1.55 -3.15 -1.90 -5.05 -1.90 -2.45 0.05 -5.95 1.45 -6.40 2.65 -0.50 1.30 0.95 1.55 2.90 0.55 2.55 -1.30 4.45 -1.20 6.60 0.30 4.45 3 5.80 3.30 8.70 1.90z m-4.20 -15.50 c4.05 -4.30 5.85 -6.45 5.85 -7.05 0 -0.60 -7.25 -9.15 -8.25 -9.70 -0.35 -0.25 -1.10 0 -1.65 0.50 -1.75 1.50 -8.10 8.65 -8.10 9.05 0 0.60 8.50 10.05 9 10.05 0.20 0 1.65 -1.30 3.15 -2.85z m4.35 -21.40 c3.30 -1.70 4.05 -5.60 1.65 -8.25 -1.95 -2.10 -4.10 -2.45 -5.90 -0.90 -1.75 1.50 -1.85 3.70 -0.25 5 1.40 1.15 2.10 1.15 3.55 0 1.50 -1.25 1 -2.75 -0.80 -2.30 -1.40 0.35 -1.80 -0.60 -0.50 -1.15 1.10 -0.40 2.75 1.25 2.75 2.75 0 3.10 -3.10 3.95 -6.30 1.80 -3.05 -2.10 -5.10 -2.80 -7.20 -2.45 -3.35 0.55 -6.15 3 -4.55 3.95 0.25 0.15 1.45 -0.15 2.60 -0.70 3.05 -1.35 4.45 -1.25 6.90 0.55 3.60 2.60 5.55 3 8.05 1.70z"/>
  <path d="M46.95 46.65 c-0.95 -1.05 -2.35 -2.60 -3.15 -3.50 l-1.45 -1.60 3.20 -3.55 c1.70 -1.95 3.40 -3.45 3.70 -3.40 0.80 0.20 6.25 6.50 6.25 7.15 -0.05 0.65 -5.75 6.75 -6.35 6.75 -0.25 0 -1.25 -0.85 -2.20 -1.85z"/>
  <path d="M5 43.50 c-1.40 -1.40 -1.30 -4.05 0.15 -5.40 1.55 -1.45 3.60 -1.40 5.10 0.15 1.50 1.50 1.60 3.20 0.20 4.95 -1.30 1.65 -3.95 1.80 -5.45 0.30z"/>
  <path d="M135 31.80 l0 -7.75 3.20 -1.50 c3.75 -1.85 6.65 -4.75 8.85 -9.15 l1.60 -3.15 0.65 1.50 c2.20 5.10 2.15 11.90 -0.10 16.50 -1.65 3.30 -5.75 7.35 -9.90 9.65 -4.45 2.55 -4.30 2.75 -4.30 -6.10z"/>
  <path d="M112.05 28.20 c-1.25 -1.55 -1.35 -3.20 -0.35 -5.15 0.80 -1.50 4 -4.55 4.85 -4.55 1.65 0 1.80 7.25 0.20 9.70 -1.15 1.75 -3.30 1.75 -4.70 0z"/>
  <path d="M19.55 10.20 c-1.40 -1.75 -1.30 -3.45 0.20 -4.95 2.40 -2.40 6.25 -0.80 6.25 2.55 0 3.45 -4.35 5.05 -6.45 2.40z"/>
  <path d="M69.05 9.20 c-1.40 -1.75 -1.30 -3.45 0.20 -4.95 2.45 -2.50 6.45 -0.70 6.35 2.85 -0.10 3.30 -4.50 4.70 -6.55 2.10z"/>
 </g>
</svg>