<?xml version="1.0" encoding="utf-8"?>
<!DOCTYPE svg PUBLIC "-//W3C//DTD SVG 1.0//EN" "http://www.w3.org/TR/2001/REC-SVG-20010904/DTD/svg10.dtd">
<svg version="1.0" xmlns="http://www.w3.org/2000/svg" width="168px" height="136px" viewBox="0 0 168 136" preserveAspectRatio="xMidYMid meet">
 <g fill="#000000">
  <path d="M38 134.45 c-3.45 -0.65 -8.25 -3.35 -10.65 -5.90 -8.45 -9.05 -8.45 -21.75 0.05 -30.40 1.50 -1.50 2.50 -2.90 2.30 -3.15 -0.25 -0.20 -1.35 -0.65 -2.45 -1 -8.05 -2.45 -17.20 -10.35 -21.50 -18.60 -3.50 -6.65 -4.35 -9.90 -4.65 -17.55 -0.25 -7.85 0.25 -11.10 2.50 -17 2 -5.25 5.60 -10.45 10.20 -14.85 l3.85 -3.60 -2.40 -2.05 c-2.85 -2.40 -4.20 -5.20 -4.25 -8.50 0 -4.30 2.25 -7.90 6.20 -9.95 1.55 -0.80 2.65 -0.95 5.35 -0.80 4.45 0.25 7.10 1.95 9.10 5.90 1.25 2.40 1.40 3.10 1.15 5.90 l-0.25 3.10 2.10 -0.35 c1.15 -0.25 4.45 -0.40 7.35 -0.35 6.30 0 11.95 1.35 17.55 4.15 l3.80 1.95 0.30 -2.65 c0.65 -6.40 4.95 -10.45 11.10 -10.45 6.35 0 11.25 4.90 11.25 11.25 0 2.35 -2.05 6.45 -4.05 8.15 -1.90 1.65 -3.40 2.25 -6.30 2.70 l-2.10 0.35 1.55 2.25 c1.95 2.85 4.55 8.55 5.40 11.75 1 3.85 0.90 3.80 7.70 3.65 l6.05 -0.15 0 -4.25 c0 -4.25 0 -4.25 -1.35 -4.40 -0.95 -0.10 -1.55 0.15 -2.15 1.05 -0.95 1.50 -2.80 2.35 -5.05 2.35 -2.70 0 -5.20 -2.65 -5.20 -5.50 0 -2.85 2.50 -5.50 5.20 -5.50 2.30 0 4.40 1.05 5.50 2.75 1.25 1.90 3 1.55 3.20 -0.65 0.15 -1.25 -0.20 -2.05 -1.35 -3.40 -2.20 -2.45 -2.20 -5.50 0 -7.65 1.25 -1.30 1.90 -1.55 3.85 -1.55 3.60 0.05 5.60 2.10 5.60 5.80 0 1.50 -0.35 2.20 -2 3.75 -2.45 2.35 -2.70 4.25 -0.65 4.75 1.05 0.30 1.55 0.05 2.60 -1.20 1.60 -1.85 3 -2.60 4.90 -2.60 4.70 0 7.25 5.90 4.05 9.35 -2.45 2.60 -5.50 2.50 -8.75 -0.35 -1.75 -1.60 -2.10 -1.70 -3.35 -1.20 -0.65 0.25 -0.80 1.15 -0.80 4.50 l0 4.20 3.90 0 3.85 0 15.40 -15 c8.50 -8.25 15.65 -15 15.95 -15 0.35 0 0.50 4.75 0.35 15.65 l-0.20 15.60 3 0.30 c4.65 0.50 22.15 0.50 22.45 0 0.15 -0.25 0.35 -8.30 0.40 -17.85 l0.15 -17.45 -1.35 -2.55 c-0.75 -1.40 -2.15 -3.30 -3.20 -4.20 -1.70 -1.45 -2.10 -1.60 -4.50 -1.40 -4.50 0.40 -8.20 4.10 -8.20 8.25 0 1.15 0.20 2.20 0.40 2.35 0.25 0.15 1.15 -0.75 2 -1.95 2.10 -3 4.35 -4.35 6.55 -4.05 4.80 0.75 6.40 7.05 2.70 10.90 -1.65 1.75 -6 3.40 -8.80 3.40 -4.55 0 -7.55 -3.85 -7.60 -9.80 0 -2.70 0.20 -3.35 1.75 -5.60 2.90 -4.25 8.20 -7.60 11.95 -7.60 1.95 0 6.15 2.25 7.40 3.90 1.65 2.25 3.75 6.50 4.30 8.75 0.30 1.15 0.50 4.15 0.45 6.60 -0.95 72.60 -1.15 84 -1.75 84.35 -0.60 0.35 -13.90 0.05 -15.25 -0.40 -0.55 -0.15 -0.60 -3.85 -0.30 -20.45 l0.35 -20.25 -4.20 0 c-2.30 -0.05 -5 -0.15 -5.95 -0.25 -0.95 -0.15 -2.05 -0.05 -2.40 0.15 -0.55 0.35 -0.75 3.85 -0.95 15.80 -0.20 10.10 -0.50 15.30 -0.85 15.30 -0.25 0 -7.35 -7 -15.75 -15.50 l-15.30 -15.55 -2.85 0.05 c-1.55 0 -2.95 0.20 -3.10 0.45 -0.15 0.25 0.75 2.40 2 4.80 l2.35 4.35 -1.05 2.10 c-1.95 3.75 -8.40 14 -8.95 14.15 -0.55 0.20 -9.15 -14.95 -9.15 -16.15 0 -0.35 1.10 -2.50 2.45 -4.80 1.35 -2.25 2.35 -4.30 2.25 -4.50 -0.15 -0.25 -2.05 -0.40 -4.20 -0.40 l-3.95 0 -0.80 2.90 c-0.45 1.55 -1.90 4.90 -3.15 7.35 -1.85 3.60 -3.25 5.45 -7.10 9.30 -4.15 4.20 -5.40 5.10 -10 7.40 -2.90 1.45 -5.30 2.70 -5.40 2.80 -0.10 0.05 1.20 1.50 2.90 3.15 2 2 3.60 4.25 4.65 6.45 1.50 3.20 1.60 3.75 1.60 8.90 0 5.20 -0.10 5.70 -1.70 9.10 -4.30 9.20 -14 14.05 -24.05 12.10z m9.55 -3.75 c5.20 -1.50 8.80 -4.55 11.50 -9.70 1.05 -1.95 1.20 -2.90 1.20 -7.50 -0.05 -4.30 -0.25 -5.65 -1.10 -7.60 -0.60 -1.35 -1.40 -2.40 -1.75 -2.35 -0.35 0 -1.15 0.65 -1.75 1.40 -0.95 1.20 -1.15 2.25 -1.45 7.35 -0.30 5.85 -0.30 6 1 7.65 0.70 0.95 1.30 1.95 1.30 2.15 0 0.20 -6.10 0.40 -13.50 0.40 -11.75 0 -13.55 -0.10 -13.85 -0.80 -0.15 -0.40 0.20 -1.25 0.75 -1.85 0.90 -0.95 1.10 -2 1.40 -7.20 0.35 -6.05 0.35 -6.05 -1 -7.80 -0.80 -1.05 -1.25 -2.05 -1 -2.40 0.25 -0.45 3.60 -0.50 13.80 -0.25 15.30 0.40 15.50 0.35 10.55 -3.20 -3.85 -2.75 -7.25 -3.70 -12.35 -3.40 -7.05 0.40 -12.10 3.70 -15 9.85 -1.30 2.90 -1.50 3.85 -1.55 7.80 0 4.05 0.15 4.80 1.60 7.75 1.80 3.65 2.60 4.65 5.25 6.70 4.65 3.50 10.45 4.60 15.95 3z m-7.95 -11.05 c0.60 -0.65 0.90 -2.55 1.15 -6.80 0.35 -5.70 0.35 -5.95 -0.80 -7.15 -1.45 -1.55 -1.75 -1.50 -2.70 0.30 -1.10 2.15 -1.05 12.30 0.10 13.60 1 1.10 1.30 1.10 2.25 0.05z m8.50 0 c0.55 -0.65 0.90 -2.60 1.15 -6.70 0.35 -5.75 0.35 -5.80 -0.95 -7.25 l-1.30 -1.45 -1 1.20 c-0.90 1 -1 1.90 -1 7.20 0 4.90 0.15 6.20 0.85 6.95 1 1.10 1.30 1.10 2.25 0.05z m114.60 -18.70 c0.15 -0.85 0.30 -2.25 0.30 -3 0 -1.90 -1.60 -2.55 -5.70 -2.35 l-3.05 0.15 -0.35 2.25 c-0.60 4.25 -0.40 4.50 4.35 4.50 l4.15 0 0.30 -1.55z m-116.45 -9.65 c1.65 -0.15 4.70 -0.85 6.75 -1.55 11.85 -4.05 20.85 -14.20 23.55 -26.55 0.80 -3.65 0.80 -11.60 0 -14.95 -3.50 -14.65 -15.50 -25.80 -30.10 -28 -2.15 -0.30 -2.35 -0.25 -2.60 0.85 -0.20 0.60 -0.35 6.80 -0.35 13.75 l0 12.60 2.80 0.35 c4.75 0.55 10.25 0 12.55 -1.30 2.30 -1.25 2.90 -2.20 3.85 -5.75 0.35 -1.40 0.85 -2.50 1.10 -2.50 0.60 0 0.85 11 0.45 17.65 -0.25 3.90 -0.50 5.10 -1.05 5.10 -0.40 0 -0.70 -0.50 -0.70 -1.05 0 -3.75 -2.35 -6.95 -5.90 -7.95 -2.25 -0.60 -12.45 -0.65 -12.80 -0.05 -0.15 0.20 -0.45 3.20 -0.60 6.60 l-0.35 6.20 2.50 1.55 c8 4.95 4.90 16.70 -4.35 16.70 -9.20 0 -12.40 -11.70 -4.55 -16.60 l2.45 -1.45 0.20 -6.10 c0.15 -3.35 0.15 -6.40 0 -6.70 -0.15 -0.50 -2 -0.65 -7.05 -0.65 -5.90 0 -7 0.15 -8.45 1 -1.60 0.95 -3.60 3.65 -3.60 4.85 0 0.30 -0.25 1.20 -0.55 2 -1 2.60 -1.20 0.15 -0.95 -10.85 0.25 -10.45 0.80 -13.35 1.60 -8.60 0.50 3.10 2.10 5.35 4.60 6.55 1.80 0.90 3.05 1.05 8.20 1.05 3.30 0 6.15 -0.15 6.25 -0.40 0.15 -0.20 0.30 -6.30 0.40 -13.60 l0.15 -13.25 -2.90 0.15 c-3.35 0.15 -9.50 2.05 -12.80 3.95 -6.40 3.70 -11.45 9 -14.70 15.50 -2.80 5.50 -3.55 9 -3.50 16.40 0 5.65 0.20 7 1.35 10.50 1.90 5.75 4.55 9.95 9.10 14.50 5.80 5.85 12.65 9.20 20.85 10.20 1.75 0.20 3.85 0.30 4.65 0.25 0.85 -0.10 2.85 -0.25 4.50 -0.40z m116.85 -12.30 c0.20 -7 0.25 -13.05 0.15 -13.35 -0.15 -0.45 -1.50 -0.65 -4.40 -0.65 l-4.20 0 -0.35 3.05 c-0.15 1.70 -0.30 7.65 -0.30 13.25 0 7.60 0.15 10.20 0.65 10.40 0.30 0.10 2.30 0.20 4.35 0.15 l3.75 -0.10 0.35 -12.75z m-29.40 -24.75 l0.35 -26.50 -1.35 1.25 c-0.75 0.70 -6.55 6.25 -12.90 12.40 l-11.55 11.15 -13 -0.15 -13 -0.15 -0.15 4.30 -0.15 4.35 12.95 0.35 12.95 0.35 12.45 12.45 12.45 12.45 0.30 -2.85 c0.20 -1.60 0.50 -14.80 0.65 -29.40z m-37.15 24.15 l2.15 -3.60 -2.05 -3.75 c-1.15 -2.10 -2.30 -3.85 -2.55 -3.95 -0.65 -0.20 -4.60 6.35 -4.60 7.60 0 0.75 1.20 3.20 3.35 6.70 0.40 0.60 0.90 1 1.10 0.85 0.25 -0.10 1.40 -1.85 2.60 -3.85z m-52 -0.95 c1.95 -2.10 1.95 -4.35 0 -6.55 -1.20 -1.35 -1.80 -1.65 -3.55 -1.65 -1.75 0 -2.35 0.30 -3.55 1.65 -2 2.20 -2 4.65 0 6.65 2.10 2.10 5.10 2.05 7.10 -0.10z m118.70 -19.70 l0 -3 -12.25 -0.35 c-6.75 -0.20 -12.55 -0.25 -12.85 -0.15 -0.45 0.15 -0.65 1.25 -0.65 3.20 0 1.90 0.20 3.05 0.65 3.20 0.30 0.15 6.10 0.25 12.85 0.20 l12.25 -0.10 0 -3z m-75.70 -17.30 c1.40 -0.75 2.10 -2.75 1.40 -4.10 -0.80 -1.50 -1.40 -1.85 -3.25 -1.85 -1.75 0 -2.45 0.60 -2.95 2.60 -0.25 1.05 -0.05 1.65 0.95 2.60 1.35 1.40 2.30 1.60 3.85 0.75z m21.85 -0.45 c2.10 -2 0.70 -5.50 -2.25 -5.50 -2.85 0 -4.20 3.45 -2.15 5.50 1.30 1.30 3 1.25 4.40 0z m-10.50 -10.80 c2.20 -1.55 0.85 -5.20 -1.95 -5.20 -1.80 0 -2.95 1.20 -2.95 3 0 1.50 1.50 3 3 3 0.45 0 1.30 -0.35 1.90 -0.80z m-19.50 -4.90 c1.80 -1.65 1.85 -1.85 1.85 -5 0 -3 -0.15 -3.40 -1.60 -4.85 -3 -3.05 -8.45 -2.40 -10.65 1.20 -2.90 4.70 0.45 10.35 6.15 10.35 2 0 2.65 -0.25 4.25 -1.70z m74.30 -2.50 c1.90 -0.80 3.80 -3 3.80 -4.45 0 -1.50 -1.45 -2.85 -3.05 -2.85 -2.30 0 -6.30 5.70 -5.20 7.45 0.45 0.75 2.45 0.70 4.45 -0.15z m-128.20 -3.85 c2.45 -1.40 3.50 -3.30 3.50 -6.35 0 -5.30 -5.45 -8.60 -10.30 -6.30 -3.70 1.75 -5.05 5.95 -3.10 9.70 1.95 3.80 6.15 5.05 9.90 2.95z"/>
  <path d="M59.65 78.50 c-2.50 -0.55 -4.15 -1.90 -5.20 -4.15 -1.65 -3.65 -0.95 -7 2 -9.50 3.15 -2.65 7.45 -2.25 10.55 0.90 1.45 1.50 1.70 2.15 1.90 4.60 0.15 2.40 0 3.20 -1 4.60 -1.90 2.85 -5.20 4.25 -8.25 3.55z m3.50 -4.05 c2.45 -1.10 3.05 -4.30 1.10 -6.20 -2.15 -2.20 -5.70 -1.50 -6.70 1.25 -0.60 1.85 -0.05 3.60 1.55 4.70 1.30 0.95 2.40 1 4.05 0.25z"/>
  <path d="M16.90 76.95 c-3.45 -1.80 -4.90 -6.75 -3 -10.45 1.30 -2.60 3.70 -4 6.85 -4 4.55 0 7.85 3.25 7.85 7.75 0 5.90 -6.35 9.55 -11.70 6.70z m7.10 -4.35 c1.70 -2.15 1.15 -4.70 -1.35 -6 -1.75 -0.95 -3.15 -0.70 -4.75 0.90 -1.25 1.30 -1.45 1.80 -1.20 3.10 0.15 0.90 0.65 2 1.10 2.45 1.55 1.70 4.70 1.50 6.20 -0.45z"/>
  <path d="M119.80 65.90 c-4.55 -4.75 -8.30 -8.75 -8.30 -8.90 0 -0.40 17.30 -17 17.70 -17 0.40 0 0.40 24.20 0 29.90 -0.20 2.55 -0.50 4.60 -0.75 4.60 -0.20 0 -4.10 -3.85 -8.65 -8.60z m5.70 -8.65 c0 -5.55 -0.15 -7.25 -0.65 -7.25 -0.35 0 -2.20 1.60 -4.10 3.50 l-3.45 3.50 3.70 3.75 c2.05 2.05 3.90 3.75 4.10 3.75 0.25 0 0.40 -3.25 0.40 -7.25z"/>
 </g>
 <g fill="#ffffff">
  <path d="M0 68 l0 -68 84 0 84 0 0 8.90 c0 5.90 -0.20 8.60 -0.50 8.10 -0.25 -0.40 -0.50 -1.30 -0.50 -1.95 0 -1.30 -2.35 -6.25 -4.10 -8.60 -1.25 -1.70 -5.50 -3.95 -7.45 -3.95 -3.75 0 -9.05 3.35 -11.95 7.60 -1.55 2.25 -1.75 2.90 -1.75 5.60 0.05 5.95 3.05 9.80 7.60 9.80 2.80 0 7.15 -1.65 8.80 -3.40 3.70 -3.85 2.10 -10.15 -2.70 -10.90 -2.20 -0.30 -4.45 1.05 -6.55 4.05 -0.85 1.20 -1.75 2.10 -2 1.95 -0.20 -0.15 -0.40 -1.20 -0.40 -2.35 0 -4.15 3.70 -7.85 8.20 -8.25 2.40 -0.20 2.80 -0.05 4.50 1.40 1.05 0.90 2.45 2.80 3.20 4.20 l1.35 2.55 -0.15 17.45 c-0.05 9.55 -0.25 17.60 -0.40 17.85 -0.30 0.50 -17.80 0.50 -22.45 0 l-3 -0.30 0.20 -15.60 c0.15 -10.90 0 -15.65 -0.35 -15.65 -0.30 0 -7.45 6.75 -15.95 15 l-15.40 15 -3.85 0 -3.90 0 0 -4.20 c0 -3.35 0.15 -4.25 0.80 -4.50 1.25 -0.50 1.60 -0.40 3.35 1.20 3.25 2.85 6.30 2.95 8.75 0.35 3.20 -3.45 0.65 -9.35 -4.05 -9.35 -1.90 0 -3.30 0.75 -4.90 2.60 -1.05 1.25 -1.55 1.50 -2.60 1.20 -2.05 -0.50 -1.80 -2.40 0.65 -4.75 1.65 -1.55 2 -2.25 2 -3.75 0 -3.70 -2 -5.75 -5.60 -5.80 -5 0 -7.25 5.35 -3.85 9.20 1.15 1.35 1.50 2.15 1.35 3.40 -0.20 2.20 -1.95 2.55 -3.20 0.65 -1.10 -1.70 -3.20 -2.75 -5.50 -2.75 -2.70 0 -5.20 2.65 -5.20 5.50 0 2.85 2.50 5.50 5.20 5.50 2.25 0 4.10 -0.85 5.05 -2.35 0.60 -0.90 1.20 -1.15 2.15 -1.05 1.35 0.15 1.35 0.15 1.35 4.40 l0 4.25 -6.05 0.15 c-6.80 0.15 -6.70 0.20 -7.70 -3.65 -0.85 -3.20 -3.45 -8.90 -5.40 -11.75 l-1.55 -2.25 2.10 -0.35 c4.50 -0.70 7.35 -2.75 9.15 -6.65 3.45 -7.40 -1.75 -15.45 -10.05 -15.45 -6.15 0 -10.45 4.05 -11.10 10.45 l-0.30 2.65 -3.80 -1.95 c-5.60 -2.80 -11.25 -4.15 -17.55 -4.15 -2.90 -0.05 -6.20 0.10 -7.35 0.35 l-2.10 0.35 0.25 -3.10 c0.25 -2.80 0.10 -3.50 -1.15 -5.90 -2 -3.95 -4.65 -5.65 -9.10 -5.90 -2.70 -0.15 -3.80 0 -5.35 0.80 -3.95 2.05 -6.20 5.65 -6.20 9.95 0.05 3.30 1.40 6.10 4.25 8.50 l2.40 2.05 -3.85 3.60 c-4.60 4.40 -8.20 9.60 -10.20 14.85 -2.25 5.90 -2.75 9.15 -2.50 17 0.30 7.65 1.15 10.90 4.65 17.55 4.30 8.25 13.45 16.15 21.50 18.60 1.10 0.35 2.20 0.80 2.45 1 0.20 0.25 -0.80 1.65 -2.30 3.15 -12.45 12.65 -5.50 33.75 12 36.45 9.35 1.45 18.60 -3.55 22.65 -12.25 1.60 -3.40 1.70 -3.90 1.70 -9.10 0 -5.15 -0.10 -5.70 -1.60 -8.90 -1.05 -2.20 -2.65 -4.45 -4.65 -6.45 -1.70 -1.65 -3 -3.10 -2.90 -3.15 0.10 -0.10 2.50 -1.35 5.40 -2.80 4.60 -2.30 5.85 -3.20 10 -7.40 3.85 -3.85 5.25 -5.70 7.10 -9.30 1.25 -2.45 2.70 -5.80 3.15 -7.35 l0.80 -2.90 3.95 0 c2.15 0 4.05 0.15 4.20 0.40 0.10 0.20 -0.90 2.25 -2.25 4.50 -1.35 2.30 -2.45 4.45 -2.45 4.80 0 1.20 8.60 16.35 9.15 16.15 0.55 -0.15 7 -10.40 8.95 -14.15 l1.05 -2.10 -2.35 -4.35 c-1.25 -2.40 -2.15 -4.55 -2 -4.80 0.15 -0.25 1.55 -0.45 3.10 -0.45 l2.85 -0.05 15.30 15.55 c8.40 8.50 15.50 15.50 15.75 15.50 0.35 0 0.65 -5.20 0.85 -15.30 0.20 -11.95 0.40 -15.45 0.95 -15.80 0.35 -0.20 1.45 -0.30 2.40 -0.15 0.95 0.10 3.65 0.20 5.95 0.25 l4.20 0 -0.35 20.25 c-0.30 16.60 -0.25 20.30 0.30 20.45 1.35 0.45 14.65 0.75 15.25 0.40 0.50 -0.30 0.70 -9.50 0.95 -39.60 0.20 -21.60 0.50 -39.60 0.75 -40 0.25 -0.40 0.45 24.05 0.45 54.40 l0 55.10 -84 0 -84 0 0 -68z"/>
  <path d="M36.35 130.30 c-5.15 -2.15 -7.60 -4.40 -10 -9.30 -1.45 -2.95 -1.60 -3.70 -1.60 -7.75 0.05 -3.95 0.25 -4.90 1.55 -7.80 2.90 -6.15 7.95 -9.45 15 -9.85 5.10 -0.30 8.50 0.65 12.35 3.40 4.95 3.55 4.75 3.60 -10.55 3.20 -10.20 -0.25 -13.55 -0.20 -13.80 0.25 -0.25 0.35 0.20 1.35 1 2.40 1.35 1.75 1.35 1.75 1 7.80 -0.30 5.20 -0.50 6.25 -1.40 7.20 -0.55 0.60 -0.90 1.45 -0.75 1.85 0.30 0.70 2.10 0.80 13.85 0.80 7.40 0 13.50 -0.20 13.50 -0.40 0 -0.20 -0.60 -1.20 -1.30 -2.15 -1.30 -1.65 -1.30 -1.80 -1 -7.65 0.30 -5.10 0.50 -6.15 1.45 -7.35 0.60 -0.75 1.40 -1.40 1.75 -1.40 0.35 -0.05 1.15 1 1.75 2.35 0.85 1.95 1.05 3.30 1.10 7.60 0 5.70 -0.60 7.45 -3.80 11.55 -4.40 5.55 -13.50 7.95 -20.10 5.25z"/>
  <path d="M37.35 119.60 c-1.15 -1.30 -1.20 -11.45 -0.10 -13.60 0.95 -1.80 1.25 -1.85 2.70 -0.30 1.15 1.20 1.15 1.45 0.80 7.15 -0.25 4.25 -0.55 6.15 -1.15 6.80 -0.95 1.05 -1.25 1.05 -2.25 -0.05z"/>
  <path d="M45.85 119.60 c-0.70 -0.75 -0.85 -2.05 -0.85 -6.95 0 -5.30 0.10 -6.20 1 -7.20 l1 -1.20 1.30 1.45 c1.30 1.45 1.30 1.50 0.95 7.25 -0.25 4.10 -0.60 6.05 -1.15 6.70 -0.95 1.05 -1.25 1.05 -2.25 -0.05z"/>
  <path d="M153.85 101.40 c-0.15 -0.65 -0.10 -2.15 0.05 -3.40 l0.35 -2.25 3.05 -0.15 c4.10 -0.20 5.70 0.45 5.70 2.35 0 0.75 -0.15 2.15 -0.30 3 l-0.30 1.55 -4.15 0 c-3.90 0 -4.15 -0.05 -4.40 -1.10z"/>
  <path d="M37.10 91.45 c-8.20 -1 -15.05 -4.35 -20.85 -10.20 -4.55 -4.55 -7.20 -8.75 -9.10 -14.50 -1.15 -3.50 -1.35 -4.85 -1.35 -10.50 -0.05 -7.40 0.70 -10.90 3.50 -16.40 3.25 -6.50 8.30 -11.80 14.70 -15.50 3.30 -1.90 9.45 -3.80 12.80 -3.95 l2.90 -0.15 -0.15 13.25 c-0.10 7.30 -0.25 13.40 -0.40 13.60 -0.10 0.25 -2.95 0.40 -6.25 0.40 -5.15 0 -6.40 -0.15 -8.20 -1.05 -2.50 -1.20 -4.10 -3.45 -4.60 -6.55 -0.80 -4.75 -1.35 -1.85 -1.60 8.60 -0.25 11 -0.05 13.45 0.95 10.85 0.30 -0.80 0.55 -1.70 0.55 -2 0 -1.20 2 -3.90 3.60 -4.85 1.45 -0.85 2.55 -1 8.45 -1 5.05 0 6.90 0.15 7.05 0.65 0.15 0.30 0.15 3.35 0 6.70 l-0.20 6.10 -2.45 1.45 c-7.85 4.90 -4.65 16.60 4.55 16.60 9.25 0 12.35 -11.75 4.35 -16.70 l-2.50 -1.55 0.35 -6.20 c0.15 -3.40 0.45 -6.40 0.60 -6.60 0.35 -0.60 10.55 -0.55 12.80 0.05 3.55 1 5.90 4.20 5.90 7.95 0 0.55 0.30 1.05 0.70 1.05 0.55 0 0.80 -1.20 1.05 -5.10 0.40 -6.65 0.15 -17.65 -0.45 -17.65 -0.25 0 -0.75 1.10 -1.10 2.50 -0.95 3.55 -1.55 4.50 -3.85 5.75 -2.30 1.30 -7.80 1.85 -12.55 1.30 l-2.80 -0.35 0 -12.60 c0 -6.95 0.15 -13.15 0.35 -13.75 0.25 -1.10 0.45 -1.15 2.60 -0.85 14.60 2.20 26.60 13.35 30.10 28 0.80 3.35 0.80 11.30 0 14.95 -2.70 12.35 -11.70 22.50 -23.55 26.55 -2.05 0.70 -5.10 1.40 -6.75 1.55 -1.65 0.15 -3.65 0.30 -4.50 0.40 -0.80 0.05 -2.90 -0.05 -4.65 -0.25z m28.15 -13.90 c0.80 -0.50 2 -1.65 2.65 -2.60 1 -1.40 1.15 -2.20 1 -4.60 -0.20 -2.45 -0.45 -3.10 -1.90 -4.60 -3.10 -3.15 -7.40 -3.55 -10.55 -0.90 -2.95 2.50 -3.65 5.85 -2 9.50 1.90 4.15 6.60 5.55 10.80 3.20z m-40.55 -0.70 c5.10 -2.85 5.25 -9.90 0.30 -13.20 -3.60 -2.45 -9.15 -1.05 -11.10 2.85 -3.55 7.05 4 14.25 10.80 10.35z"/>
  <path d="M59.10 74.20 c-1.60 -1.10 -2.15 -2.85 -1.55 -4.70 1 -2.75 4.55 -3.45 6.70 -1.25 3.40 3.35 -1.25 8.70 -5.15 5.95z"/>
  <path d="M19.70 74.10 c-1.45 -0.20 -2.60 -1.55 -3 -3.50 -0.25 -1.30 -0.05 -1.80 1.20 -3.10 1.60 -1.60 3 -1.85 4.75 -0.90 4.45 2.35 2.10 8.25 -2.95 7.50z"/>
  <path d="M154.65 91.70 c-0.50 -0.20 -0.65 -2.80 -0.65 -10.40 0 -5.60 0.15 -11.55 0.30 -13.25 l0.35 -3.05 4.20 0 c2.90 0 4.25 0.20 4.40 0.65 0.10 0.30 0.05 6.35 -0.15 13.35 l-0.35 12.75 -3.75 0.10 c-2.05 0.05 -4.05 -0.05 -4.35 -0.15z"/>
  <path d="M120.30 74.05 l-12.45 -12.45 -12.95 -0.35 -12.95 -0.35 0.15 -4.35 0.15 -4.30 13 0.15 13 0.15 11.55 -11.15 c6.35 -6.15 12.15 -11.70 12.90 -12.40 l1.35 -1.25 -0.35 26.50 c-0.15 14.60 -0.45 27.80 -0.65 29.40 l-0.30 2.85 -12.45 -12.45z m8.90 -4.15 c0.40 -5.70 0.40 -29.90 0 -29.90 -0.40 0 -17.70 16.60 -17.70 17 0 0.45 16.50 17.50 16.95 17.50 0.25 0 0.55 -2.05 0.75 -4.60z"/>
  <path d="M121 60.75 l-3.70 -3.75 3.45 -3.50 c1.90 -1.90 3.75 -3.50 4.10 -3.50 0.50 0 0.65 1.70 0.65 7.25 0 4 -0.15 7.25 -0.40 7.25 -0.20 0 -2.05 -1.70 -4.10 -3.75z"/>
  <path d="M92.85 81.40 c-2.15 -3.50 -3.35 -5.95 -3.35 -6.70 0 -1.25 3.95 -7.80 4.60 -7.60 0.25 0.10 1.40 1.85 2.55 3.95 l2.05 3.75 -2.15 3.60 c-1.20 2 -2.35 3.75 -2.60 3.85 -0.20 0.15 -0.70 -0.25 -1.10 -0.85z"/>
  <path d="M37.45 77.55 c-2 -2 -2 -4.45 0 -6.65 1.20 -1.35 1.80 -1.65 3.55 -1.65 1.75 0 2.35 0.30 3.55 1.65 1.95 2.20 1.95 4.45 0 6.55 -2 2.15 -5 2.20 -7.10 0.10z"/>
  <path d="M138.15 60.65 c-0.45 -0.15 -0.65 -1.30 -0.65 -3.20 0 -1.95 0.20 -3.05 0.65 -3.20 0.30 -0.10 6.10 -0.05 12.85 0.15 l12.25 0.35 0 3 0 3 -12.25 0.10 c-6.75 0.05 -12.55 -0.05 -12.85 -0.20z"/>
  <path d="M83.70 39.70 c-1 -0.95 -1.20 -1.55 -0.95 -2.60 0.50 -2 1.20 -2.60 2.95 -2.60 1.85 0 2.45 0.35 3.25 1.85 1 2 -0.80 4.65 -3.20 4.65 -0.45 0 -1.35 -0.55 -2.05 -1.30z"/>
  <path d="M105 40 c-2.05 -2.05 -0.70 -5.50 2.15 -5.50 2.95 0 4.35 3.50 2.25 5.50 -1.40 1.25 -3.10 1.30 -4.40 0z"/>
  <path d="M95.10 29.20 c-1.30 -0.90 -1.50 -3.25 -0.30 -4.40 1.85 -1.85 5.20 -0.35 5.20 2.35 0 1.35 -1.60 2.85 -3 2.85 -0.45 0 -1.30 -0.35 -1.90 -0.80z"/>
  <path d="M71.15 25 c-4.35 -2.65 -4.10 -9.45 0.40 -11.80 2.55 -1.30 6.15 -0.75 8.10 1.25 1.45 1.45 1.60 1.85 1.60 4.85 0 3.15 -0.05 3.35 -1.85 5 -1.60 1.45 -2.25 1.70 -4.25 1.70 -1.50 0 -3 -0.35 -4 -1z"/>
  <path d="M149.25 21.95 c-0.60 -0.90 0.30 -3.15 2.05 -5.30 1.95 -2.40 3.90 -2.85 5.35 -1.25 1.15 1.25 1.05 2.70 -0.25 4.35 -1.70 2.20 -6.30 3.60 -7.15 2.20z"/>
  <path d="M18.50 18.10 c-2.40 -1.15 -4.15 -4.65 -3.75 -7.30 0.75 -4.85 6 -7.75 10.20 -5.55 2.65 1.35 4.05 3.55 4.05 6.35 0 3.05 -1.05 4.95 -3.50 6.35 -2.30 1.30 -4.65 1.35 -7 0.15z"/>
 </g>
</svg>