<?xml version="1.0" encoding="utf-8"?>
<!DOCTYPE svg PUBLIC "-//W3C//DTD SVG 1.0//EN" "http://www.w3.org/TR/2001/REC-SVG-20010904/DTD/svg10.dtd">
<svg version="1.0" xmlns="http://www.w3.org/2000/svg" width="167px" height="148px" viewBox="0 0 167 148" preserveAspectRatio="xMidYMid meet">
 <g fill="#000000">
  <path d="M103 145.75 c0 -1 0.30 -1.35 1.50 -1.60 2.65 -0.50 3.50 -2.20 3.50 -6.95 l0 -4.15 -5.35 -0.15 -5.40 -0.15 -0.15 -8.80 -0.10 -8.85 -1.90 -0.25 c-1.95 -0.25 -26.05 -0.50 -26.20 -0.25 -0.05 0.10 -0.20 4.10 -0.35 8.90 l-0.30 8.75 -5.25 0.25 -5.25 0.25 -0.15 4.05 c-0.10 3.45 0 4.20 0.90 5.35 0.60 0.75 1.50 1.35 2 1.35 0.55 0 1.20 0.40 1.45 0.90 1 1.85 0.05 2.15 -6.50 2 l-6.20 -0.15 0 -1.25 c0 -0.90 0.30 -1.30 1.05 -1.40 2.25 -0.30 3.35 -2.30 3.60 -6.40 0.30 -5 0.05 -5.20 -6.35 -5.20 l-4.70 0 0.30 -18 c0.25 -14.10 0.20 -18.10 -0.30 -18.20 -0.30 -0.10 -1.55 -0.45 -2.70 -0.75 -4.15 -1.15 -6.30 -6.30 -4.25 -10.05 3.35 -6.20 12.35 -4.85 13.50 2.05 l0.40 2.20 8.35 0.15 8.35 0.10 0 -7.40 0 -7.45 -9.10 -0.30 c-4.95 -0.20 -12.60 -0.35 -17 -0.35 l-7.90 0 0 2.40 c0 4.60 -2.95 7.75 -7.25 7.75 -5.60 0 -9.15 -6.30 -6.25 -11.05 1.40 -2.25 4.85 -3.80 7.55 -3.35 l1.95 0.35 0.10 -10.05 c0.05 -5.55 0.10 -10.45 0.10 -10.90 0.05 -0.80 -0.65 -0.90 -6.55 -1.05 l-6.55 -0.15 -1.05 1.75 c-3.80 6.10 -13.25 3.30 -13.25 -3.95 0 -7.50 9.90 -10.15 13.45 -3.55 l0.90 1.65 6.15 0.35 c3.40 0.20 6.40 0.25 6.70 0.05 0.30 -0.20 0.50 -4.30 0.50 -11.30 l0 -10.95 -2.60 0 c-5.15 0 -7.80 -3.05 -7.50 -8.60 0.15 -1.90 2.80 -4.75 5.15 -5.45 3.75 -1.15 8.15 1.40 8.90 5.15 l0.35 1.65 7.70 0.30 c4.25 0.20 11.05 0.35 15.10 0.40 5.40 0.05 7.50 0.25 8 0.70 0.35 0.40 4.35 6.10 8.85 12.75 4.50 6.65 8.40 11.95 8.65 11.80 0.60 -0.40 0.50 -22.55 -0.15 -22.95 -1 -0.65 -3.95 0.30 -5.40 1.80 -0.90 0.90 -1.65 2.30 -1.90 3.60 -0.35 1.60 -0.65 2.10 -1.40 2.10 -0.90 0 -1 -0.40 -1.15 -5 -0.10 -2.75 0 -7.10 0.15 -9.60 0.30 -4.05 0.45 -4.65 1.25 -4.65 0.70 0 1 0.55 1.25 2.05 0.50 2.80 2.45 4.90 5.20 5.50 1.20 0.25 2.30 0.40 2.40 0.25 0.60 -0.55 0.20 -5.75 -0.50 -7.15 -0.75 -1.45 -2.35 -2.30 -6.25 -3.45 -0.40 -0.10 -0.60 -0.60 -0.50 -1.05 0.20 -1.15 2.85 -1.35 12.30 -0.90 6.35 0.30 7.10 0.45 7.10 1.25 0 0.65 -0.65 1.05 -2.30 1.45 -3.40 0.85 -5.05 2.75 -5.45 6.25 -0.45 3.50 -0.05 4.05 2.55 3.55 2.60 -0.45 5 -2.95 5.45 -5.65 0.25 -1.60 0.55 -2.10 1.30 -2.10 0.90 0 0.95 0.50 0.95 9.80 l0 9.75 -1.10 -0.15 c-0.85 -0.10 -1.20 -0.60 -1.45 -1.90 -0.60 -3.65 -2.40 -5.45 -5.75 -5.65 l-1.95 -0.10 -0.30 11.25 c-0.15 6.20 -0.10 11.45 0.10 11.65 0.45 0.55 1.20 -0.45 10.65 -13.65 l7.70 -10.75 15.10 0 15.15 0 0.50 -1.50 c0.80 -2.50 2.25 -4.10 4.45 -5 6.40 -2.55 12.15 3.95 8.95 10.15 -1.30 2.50 -3.30 3.60 -6.70 3.60 l-2.70 0 -0.40 10.55 c-0.20 5.80 -0.15 10.70 0.05 10.95 0.25 0.20 3.20 0.50 6.55 0.70 l6.10 0.35 1.35 -2 c3.05 -4.65 10.05 -4.70 12.45 -0.10 1.05 2.10 0.95 5.95 -0.20 7.85 -1.05 1.70 -3.75 3.20 -5.75 3.20 -2.25 0 -4.60 -1.30 -6.35 -3.45 l-1.65 -2.10 -6.25 0.15 -6.30 0.15 -0.15 10.90 -0.10 10.85 2.95 0 c2.50 0 3.25 0.20 4.60 1.35 3 2.55 3.70 5.95 1.85 9.20 -2.05 3.70 -7.15 4.95 -10.35 2.55 -2.35 -1.75 -3.15 -3.35 -3.15 -6.15 0 -1.50 -0.25 -2.85 -0.60 -3.05 -0.30 -0.20 -7.90 -0.40 -16.90 -0.40 l-16.30 0 -0.20 6.90 c-0.10 3.75 -0.10 7.10 0 7.45 0.20 0.60 10.65 1.40 14.35 1.05 1.85 -0.15 2 -0.25 2.35 -2.10 1.10 -5.25 6.10 -7.75 10.80 -5.35 3.45 1.80 4.80 6.30 2.90 9.90 -1.05 2.10 -2.90 3.30 -5.50 3.65 l-2.05 0.25 -0.30 18 c-0.20 9.90 -0.35 18.05 -0.40 18.10 0 0.05 -2.45 0.20 -5.40 0.25 l-5.40 0.15 -0.15 3.70 c-0.20 4.60 0.45 6.35 2.65 7.15 1.55 0.55 2.55 1.95 1.85 2.60 -0.15 0.15 -3.15 0.30 -6.70 0.30 l-6.40 0 0 -1.25z m4.70 -16.65 c0.15 -0.25 0.30 -3.20 0.35 -6.60 0.10 -6.15 0.10 -6.20 -1.25 -7.35 -0.75 -0.65 -1.75 -1.15 -2.30 -1.15 -1 0 -1.50 -0.85 -1.10 -1.85 0.15 -0.50 1.95 -0.65 6.65 -0.65 l6.45 0 0 1.20 c0 0.95 -0.40 1.35 -1.75 1.80 -0.95 0.30 -1.95 0.95 -2.20 1.40 -0.35 0.70 -0.85 10.80 -0.60 13 0.05 0.40 1.10 0.60 3.45 0.60 l3.45 0 0.35 -17.35 c0.20 -9.50 0.15 -17.50 -0.05 -17.70 -0.25 -0.25 -5.35 -0.50 -11.40 -0.55 l-11 -0.15 -0.15 -9.75 c-0.10 -5.35 0 -10.50 0.15 -11.40 l0.30 -1.65 18.70 0.35 18.70 0.35 0.25 -1.20 c0.15 -0.65 0.35 -12.15 0.50 -25.55 l0.25 -24.40 -1.10 -0.25 c-0.60 -0.15 -7.15 -0.20 -14.55 -0.15 l-13.45 0.15 -10.95 15.25 c-6.05 8.40 -11.25 15.30 -11.60 15.40 -0.30 0.05 -3.70 -4.45 -7.55 -10 -3.80 -5.60 -8.50 -12.40 -10.40 -15.10 -1.90 -2.75 -3.55 -5.25 -3.70 -5.60 -0.35 -0.90 -3.10 -1.45 -3.80 -0.75 -0.40 0.40 -0.35 0.55 0.20 0.55 0.45 0 1.70 0.65 2.80 1.45 2.75 2 3.65 5.05 2.40 8.30 -0.45 1.25 -0.75 2.55 -0.60 2.90 0.15 0.35 3.65 5.65 7.85 11.80 l7.65 11.20 -0.20 27.55 -0.20 27.55 4.90 0.15 4.85 0.15 0.05 -2.15 c0 -1.20 0.20 -13.65 0.40 -27.75 l0.40 -25.55 6 -8.45 c3.30 -4.60 6.95 -9.75 8.10 -11.45 l2.15 -3.05 -0.80 -2.35 c-1.30 -3.80 0.20 -7.25 4.05 -9.25 3 -1.55 7.50 0.30 9.15 3.70 1.20 2.45 1.25 3.70 0.30 5.90 -1.15 2.75 -2.90 3.95 -6.30 4.30 l-3 0.30 -8 11.15 -8 11.10 -0.35 26.70 c-0.35 30.50 -0.95 27.05 4.80 27.25 1.80 0.05 3.40 0.20 3.65 0.35 0.20 0.15 0.40 4.05 0.40 8.65 0 4.60 0.15 8.55 0.35 8.70 0.45 0.50 6.05 0.45 6.35 -0.05z m-54.05 -0.55 c0.20 0 0.35 -2.90 0.35 -6.40 0 -5.80 -0.10 -6.45 -1.10 -7.50 -0.60 -0.65 -1.45 -1.15 -1.95 -1.15 -0.45 0 -1.10 -0.35 -1.45 -0.80 -0.55 -0.60 -0.55 -0.85 0.05 -1.45 0.55 -0.55 2 -0.60 6.85 -0.40 6 0.30 6.10 0.30 6.10 1.45 0 0.90 -0.30 1.20 -1.15 1.20 -2.85 0 -3.65 2 -3.80 9.30 -0.10 6.05 0.10 6.30 4.30 6.10 l2.90 -0.15 0.25 -8.75 0.25 -8.75 4.50 -0.25 4.50 -0.25 0.40 -26.60 0.45 -26.65 -4.40 -6.35 c-2.45 -3.55 -6 -8.70 -7.90 -11.50 l-3.50 -5.15 -2.30 0 c-4.40 0 -7.80 -3.65 -7.35 -7.95 0.30 -2.70 1.60 -4.50 4.25 -5.85 1.10 -0.60 1.90 -1.20 1.75 -1.40 -0.30 -0.25 -22.60 -0.45 -22.70 -0.15 -0.05 0.05 -0.25 11.35 -0.45 25.10 -0.35 22.55 -0.30 25.05 0.40 25.65 0.60 0.45 5.05 0.60 18.40 0.60 9.70 0 17.95 0.15 18.40 0.30 0.90 0.35 1.05 4.25 0.45 15.90 l-0.30 6.85 -10.85 -0.10 c-6 -0.05 -11.10 0.05 -11.45 0.25 -0.40 0.25 -0.55 5.30 -0.55 17.55 l0 17.20 1.90 0.15 c1.70 0.15 3.80 0.10 4.75 -0.05z m73.20 -36.65 c1.65 -1.50 1.55 -4 -0.15 -5.35 -0.75 -0.60 -1.70 -1.05 -2.20 -1.05 -1.70 0 -3.50 1.95 -3.50 3.80 0 3.30 3.45 4.85 5.85 2.60z m-82.15 -0.95 c2.60 -2.05 0.95 -6.45 -2.45 -6.45 -1.95 0 -3.45 1.65 -3.45 3.75 0 3.35 3.20 4.80 5.90 2.70z m99.40 -9.80 c1.35 -1.20 1.20 -4.35 -0.20 -5.35 -3.60 -2.55 -7.65 1.50 -5.10 5.10 0.95 1.35 3.90 1.50 5.30 0.25z m-116.10 -1.65 c2.30 -2.30 0.55 -6.20 -2.75 -6.20 -1.35 0 -2.15 0.30 -2.80 1.15 -2.10 2.60 -0.50 6.05 2.80 6.05 1.10 0 2.15 -0.40 2.75 -1z m133.05 -28.65 c1.55 -1.20 2.10 -2.80 1.40 -4.40 -1.60 -3.95 -6.95 -2.95 -6.95 1.25 0 2.85 3.40 4.80 5.55 3.15z m-149.80 -2.60 c1.50 -1.50 1.60 -3.20 0.20 -4.95 -2.10 -2.70 -6.95 -1.05 -6.95 2.40 0 3.45 4.25 5.10 6.75 2.55z m102.25 -17.75 c1.30 -1.30 1.30 -4.05 0 -5.25 -1.45 -1.30 -3.95 -1.20 -5.10 0.20 -1.95 2.50 -0.45 6.05 2.60 6.05 0.85 0 1.95 -0.45 2.50 -1z m-54.30 -0.55 c1.10 -0.85 1.30 -1.40 1.20 -2.85 -0.40 -4.60 -6.90 -4.55 -6.90 0.05 0 1.85 0.35 2.45 1.75 3.25 1.45 0.85 2.45 0.70 3.95 -0.45z m85.65 -11.05 c1.40 -1.30 1.50 -3.35 0.20 -4.95 -1.30 -1.60 -4.30 -1.60 -5.60 0 -2.95 3.65 2 8.15 5.40 4.95z m-115.85 -1.80 c0.55 -0.65 1 -1.80 1 -2.45 0 -1.70 -2.10 -3.65 -4 -3.65 -3.35 0 -5.25 4.20 -2.85 6.35 2 1.90 4.25 1.80 5.85 -0.25z"/>
 </g>
 <g fill="#ffffff">
  <path d="M0 74 l0 -74 83.50 0 83.50 0 0 74 0 74 -83.50 0 -83.50 0 0 -74z m116.10 72.70 c0.70 -0.65 -0.30 -2.05 -1.85 -2.60 -2.20 -0.80 -2.85 -2.55 -2.65 -7.15 l0.15 -3.70 5.40 -0.15 c2.95 -0.05 5.40 -0.20 5.40 -0.25 0.05 -0.05 0.20 -8.20 0.40 -18.10 l0.30 -18 2.05 -0.25 c2.60 -0.35 4.45 -1.55 5.50 -3.65 1.90 -3.60 0.55 -8.10 -2.90 -9.90 -4.70 -2.40 -9.70 0.10 -10.80 5.35 -0.35 1.85 -0.50 1.95 -2.35 2.10 -3.70 0.35 -14.15 -0.45 -14.35 -1.05 -0.10 -0.35 -0.10 -3.70 0 -7.45 l0.20 -6.90 16.30 0 c9 0 16.60 0.20 16.90 0.40 0.35 0.20 0.60 1.55 0.60 3.05 0 2.80 0.80 4.40 3.15 6.15 3.20 2.40 8.30 1.15 10.35 -2.55 1.85 -3.25 1.15 -6.65 -1.85 -9.20 -1.35 -1.15 -2.10 -1.35 -4.60 -1.35 l-2.95 0 0.10 -10.85 0.15 -10.90 6.30 -0.15 6.25 -0.15 1.65 2.10 c1.75 2.15 4.10 3.45 6.35 3.45 2 0 4.70 -1.50 5.75 -3.20 1.15 -1.90 1.25 -5.75 0.20 -7.85 -2.40 -4.60 -9.40 -4.55 -12.45 0.10 l-1.35 2 -6.10 -0.35 c-3.35 -0.20 -6.30 -0.50 -6.55 -0.70 -0.20 -0.25 -0.25 -5.15 -0.05 -10.95 l0.40 -10.55 2.70 0 c3.40 0 5.40 -1.10 6.70 -3.60 3.20 -6.20 -2.55 -12.70 -8.95 -10.15 -2.20 0.90 -3.65 2.50 -4.45 5 l-0.50 1.50 -15.15 0 -15.10 0 -7.70 10.75 c-9.45 13.20 -10.20 14.20 -10.65 13.65 -0.20 -0.20 -0.25 -5.45 -0.10 -11.65 l0.30 -11.25 1.95 0.10 c3.35 0.20 5.15 2 5.75 5.65 0.25 1.30 0.60 1.80 1.45 1.90 l1.10 0.15 0 -9.75 c0 -9.30 -0.05 -9.80 -0.95 -9.80 -0.75 0 -1.05 0.50 -1.30 2.10 -0.45 2.70 -2.85 5.20 -5.45 5.65 -2.60 0.50 -3 -0.05 -2.55 -3.55 0.40 -3.50 2.05 -5.40 5.45 -6.25 1.65 -0.40 2.30 -0.80 2.30 -1.45 0 -0.80 -0.75 -0.95 -7.10 -1.25 -9.45 -0.45 -12.10 -0.25 -12.30 0.90 -0.10 0.45 0.10 0.95 0.50 1.05 3.90 1.15 5.50 2 6.25 3.45 0.70 1.40 1.10 6.60 0.50 7.15 -0.10 0.15 -1.20 0 -2.40 -0.25 -2.75 -0.60 -4.70 -2.70 -5.20 -5.50 -0.25 -1.50 -0.55 -2.05 -1.25 -2.05 -0.80 0 -0.95 0.60 -1.25 4.65 -0.15 2.50 -0.25 6.85 -0.15 9.60 0.15 4.60 0.25 5 1.15 5 0.75 0 1.05 -0.50 1.40 -2.10 0.25 -1.30 1 -2.70 1.90 -3.60 1.45 -1.50 4.40 -2.45 5.40 -1.80 0.65 0.40 0.75 22.55 0.15 22.95 -0.25 0.15 -4.15 -5.15 -8.65 -11.80 -4.50 -6.65 -8.50 -12.35 -8.85 -12.75 -0.50 -0.45 -2.60 -0.65 -8 -0.70 -4.05 -0.05 -10.85 -0.20 -15.10 -0.40 l-7.70 -0.30 -0.35 -1.65 c-0.20 -0.95 -0.95 -2.35 -1.75 -3.15 -5.90 -6.15 -15.35 1 -11.40 8.65 1.10 2.15 3.50 3.40 6.60 3.40 l2.60 0 0 10.95 c0 7 -0.20 11.10 -0.50 11.30 -0.30 0.20 -3.30 0.15 -6.70 -0.05 l-6.15 -0.35 -0.90 -1.65 c-2.50 -4.70 -9.20 -5 -12.30 -0.60 -1.60 2.25 -1.60 6.10 0 8.35 2.95 4.10 9.45 3.95 12.10 -0.25 l1.05 -1.75 6.55 0.15 c5.90 0.15 6.60 0.25 6.55 1.05 0 0.45 -0.05 5.35 -0.10 10.90 l-0.10 10.05 -1.95 -0.35 c-1.45 -0.25 -2.60 -0.05 -4.25 0.70 -7.10 3.15 -4.85 13.70 2.95 13.70 4.30 0 7.25 -3.15 7.25 -7.75 l0 -2.40 7.90 0 c4.40 0 12.05 0.15 17 0.35 l9.10 0.30 0 7.45 0 7.40 -8.35 -0.10 -8.35 -0.15 -0.40 -2.20 c-1.15 -6.90 -10.15 -8.25 -13.50 -2.05 -2.05 3.75 0.10 8.90 4.25 10.05 1.15 0.30 2.40 0.65 2.70 0.75 0.50 0.10 0.55 4.10 0.30 18.20 l-0.30 18 4.70 0 c6.40 0 6.65 0.20 6.35 5.20 -0.25 4.10 -1.35 6.10 -3.60 6.40 -0.75 0.10 -1.05 0.50 -1.05 1.40 l0 1.25 6.20 0.15 c6.55 0.15 7.50 -0.15 6.50 -2 -0.25 -0.50 -0.90 -0.90 -1.45 -0.90 -0.50 0 -1.40 -0.60 -2 -1.35 -0.90 -1.15 -1 -1.90 -0.90 -5.35 l0.15 -4.05 5.25 -0.25 5.25 -0.25 0.30 -8.75 c0.15 -4.80 0.30 -8.80 0.35 -8.90 0.15 -0.25 24.25 0 26.20 0.25 l1.90 0.25 0.10 8.85 0.15 8.80 5.40 0.15 5.35 0.15 0 4.15 c0 4.75 -0.85 6.45 -3.50 6.95 -1.20 0.25 -1.50 0.60 -1.50 1.60 l0 1.25 6.40 0 c3.55 0 6.55 -0.15 6.70 -0.30z"/>
  <path d="M101.35 129.15 c-0.20 -0.15 -0.35 -4.10 -0.35 -8.70 0 -4.60 -0.20 -8.50 -0.40 -8.65 -0.25 -0.15 -1.85 -0.30 -3.65 -0.35 -5.75 -0.20 -5.15 3.25 -4.80 -27.25 l0.35 -26.70 8 -11.10 8 -11.15 3 -0.30 c3.40 -0.35 5.15 -1.55 6.30 -4.30 0.95 -2.20 0.90 -3.45 -0.30 -5.90 -1.65 -3.40 -6.15 -5.25 -9.15 -3.70 -3.85 2 -5.35 5.45 -4.05 9.25 l0.80 2.35 -2.15 3.05 c-1.15 1.70 -4.80 6.85 -8.10 11.45 l-6 8.45 -0.40 25.55 c-0.20 14.10 -0.40 26.55 -0.40 27.75 l-0.05 2.15 -4.85 -0.15 -4.90 -0.15 0.20 -27.55 0.20 -27.55 -7.65 -11.20 c-4.20 -6.15 -7.70 -11.45 -7.85 -11.80 -0.15 -0.35 0.15 -1.65 0.60 -2.90 1.25 -3.25 0.35 -6.30 -2.40 -8.30 -1.10 -0.80 -2.35 -1.45 -2.80 -1.45 -0.55 0 -0.60 -0.15 -0.20 -0.55 0.70 -0.70 3.45 -0.15 3.80 0.75 0.15 0.35 1.80 2.85 3.70 5.60 1.90 2.70 6.60 9.50 10.40 15.10 3.85 5.55 7.25 10.05 7.55 10 0.35 -0.10 5.55 -7 11.60 -15.40 l10.95 -15.25 13.45 -0.15 c7.40 -0.05 13.95 0 14.55 0.15 l1.10 0.25 -0.25 24.40 c-0.15 13.40 -0.35 24.90 -0.50 25.55 l-0.25 1.20 -18.70 -0.35 -18.70 -0.35 -0.30 1.65 c-0.15 0.90 -0.25 6.05 -0.15 11.40 l0.15 9.75 11 0.15 c6.05 0.05 11.15 0.30 11.40 0.55 0.20 0.20 0.25 8.20 0.05 17.70 l-0.35 17.35 -3.45 0 c-2.35 0 -3.40 -0.20 -3.45 -0.60 -0.25 -2.20 0.25 -12.30 0.60 -13 0.25 -0.45 1.25 -1.10 2.20 -1.40 1.35 -0.45 1.75 -0.85 1.75 -1.80 l0 -1.20 -6.45 0 c-4.70 0 -6.50 0.15 -6.65 0.65 -0.40 1 0.10 1.85 1.10 1.85 0.55 0 1.55 0.50 2.30 1.15 1.35 1.15 1.35 1.20 1.25 7.35 -0.05 3.40 -0.20 6.35 -0.35 6.60 -0.30 0.50 -5.90 0.55 -6.35 0.05z"/>
  <path d="M48.90 128.60 l-1.90 -0.15 0 -17.20 c0 -12.25 0.15 -17.30 0.55 -17.55 0.35 -0.20 5.45 -0.30 11.45 -0.25 l10.85 0.10 0.30 -6.85 c0.60 -11.65 0.45 -15.55 -0.45 -15.90 -0.45 -0.15 -8.70 -0.30 -18.40 -0.30 -13.35 0 -17.80 -0.15 -18.40 -0.60 -0.70 -0.60 -0.75 -3.10 -0.40 -25.65 0.20 -13.75 0.40 -25.05 0.45 -25.10 0.10 -0.30 22.40 -0.10 22.70 0.15 0.15 0.20 -0.65 0.80 -1.75 1.40 -2.65 1.35 -3.95 3.15 -4.25 5.85 -0.45 4.30 2.95 7.95 7.35 7.95 l2.30 0 3.50 5.15 c1.90 2.80 5.45 7.95 7.90 11.50 l4.40 6.35 -0.45 26.65 -0.40 26.60 -4.50 0.25 -4.50 0.25 -0.25 8.75 -0.25 8.75 -2.90 0.15 c-4.20 0.20 -4.40 -0.05 -4.30 -6.10 0.15 -7.30 0.95 -9.30 3.80 -9.30 0.85 0 1.15 -0.30 1.15 -1.20 0 -1.15 -0.10 -1.15 -6.10 -1.45 -4.85 -0.20 -6.30 -0.15 -6.85 0.40 -0.60 0.60 -0.60 0.85 -0.05 1.45 0.35 0.45 1 0.80 1.45 0.80 0.50 0 1.35 0.50 1.95 1.15 1 1.05 1.10 1.70 1.10 7.50 0 3.50 -0.15 6.40 -0.35 6.40 -0.95 0.15 -3.05 0.20 -4.75 0.05z"/>
  <path d="M122 92 c-1.50 -1.50 -1.35 -4.15 0.30 -5.45 0.75 -0.60 1.70 -1.05 2.20 -1.05 1.65 0 3.50 1.95 3.50 3.70 0 3.20 -3.80 5 -6 2.80z"/>
  <path d="M39.95 91.05 c-2.45 -2 -0.90 -6.55 2.30 -6.55 1.90 0 3.75 1.85 3.75 3.75 0 3.10 -3.60 4.80 -6.05 2.80z"/>
  <path d="M138.80 80.90 c-2.55 -3.60 1.50 -7.65 5.10 -5.10 1.40 1 1.55 4.15 0.20 5.35 -1.40 1.25 -4.35 1.10 -5.30 -0.25z"/>
  <path d="M22.50 79.50 c-2.30 -2.30 -0.55 -6.20 2.75 -6.20 1.35 0 2.15 0.30 2.80 1.15 2.10 2.60 0.50 6.05 -2.80 6.05 -1.10 0 -2.15 -0.40 -2.75 -1z"/>
  <path d="M156.80 50.45 c-2.50 -2 -1.15 -6.45 2 -6.45 2.85 0 4.90 2.80 3.65 5.10 -1.35 2.55 -3.45 3.05 -5.65 1.35z"/>
  <path d="M5.60 48.35 c-2.40 -2.55 -0.60 -6.35 3 -6.35 3.45 0 5.05 3.85 2.65 6.25 -1.60 1.65 -4.15 1.70 -5.65 0.10z"/>
  <path d="M108.50 30.50 c-2.15 -2.15 -0.60 -6.15 2.40 -6.15 2.15 0 3.60 1.40 3.60 3.50 0 2.10 -1.50 3.65 -3.50 3.65 -0.85 0 -1.95 -0.45 -2.50 -1z"/>
  <path d="M55.25 30.40 c-1.40 -0.80 -1.75 -1.40 -1.75 -3.25 0 -4.60 6.50 -4.65 6.90 -0.05 0.10 1.45 -0.10 2 -1.20 2.85 -1.50 1.15 -2.50 1.30 -3.95 0.45z"/>
  <path d="M139.60 18.85 c-2.30 -2.45 -0.70 -6.05 2.65 -6.05 3.40 0 5 3.85 2.60 6.10 -1.55 1.45 -3.85 1.45 -5.25 -0.05z"/>
  <path d="M25.25 18.60 c-1.65 -0.35 -3.25 -2.15 -3.25 -3.70 0 -1.95 2 -3.90 4 -3.90 1.90 0 4 1.95 4 3.65 0 1.45 -1.60 3.65 -2.85 3.95 -0.50 0.10 -1.35 0.10 -1.90 0z"/>
 </g>
</svg>