<?xml version="1.0" encoding="utf-8"?>
<!DOCTYPE svg PUBLIC "-//W3C//DTD SVG 1.0//EN" "http://www.w3.org/TR/2001/REC-SVG-20010904/DTD/svg10.dtd">
<svg version="1.0" xmlns="http://www.w3.org/2000/svg" width="165px" height="135px" viewBox="0 0 165 135" preserveAspectRatio="xMidYMid meet">
 <g fill="#000000">
  <path d="M119.75 134.50 c-0.15 -0.25 -0.95 -0.50 -1.70 -0.50 -5.05 0 -10.25 -3.85 -13.55 -10 -1.65 -3.05 -1.75 -3.55 -1.75 -7.75 0 -3.65 0.25 -5 1.20 -7.15 2.45 -5.50 8.55 -12.30 13.10 -14.60 1.05 -0.55 2.15 -1.45 2.45 -1.95 0.30 -0.60 0.50 -6.20 0.50 -14.70 l0 -13.70 -4.85 -0.30 c-3.25 -0.25 -5.05 -0.15 -5.50 0.20 -0.35 0.35 -0.65 1.55 -0.65 2.90 0 2.15 0.15 2.50 2.25 4.20 2.50 2.10 3.55 4.70 3.05 7.45 -1.45 7.75 -11.65 9.40 -15.15 2.40 -0.65 -1.20 -1.15 -2.80 -1.15 -3.50 0 -2.20 2.10 -5.65 4.40 -7.15 2.10 -1.45 2.15 -1.50 2 -4 l-0.15 -2.60 -4.45 -0.15 c-3.25 -0.10 -4.60 0.05 -4.90 0.50 -0.20 0.35 -0.40 5.70 -0.35 11.90 l0 11.25 2.35 1.50 c6.10 3.95 6.25 13.30 0.20 17.45 -2.85 2 -7.45 2.40 -10.40 0.90 -7 -3.60 -8.30 -12.40 -2.55 -17.45 0.95 -0.85 2.55 -1.80 3.50 -2.10 l1.75 -0.60 0.35 -10.10 c0.20 -5.55 0.25 -10.75 0.20 -11.60 l-0.20 -1.50 -6 -0.25 c-3.30 -0.15 -6.30 -0.05 -6.60 0.20 -0.40 0.25 -0.65 1.60 -0.65 3.35 0 2.85 0.10 3.05 2.20 5.10 2.90 2.80 3.40 5.35 1.70 8.70 -1.60 3.25 -3.35 4.40 -6.65 4.40 -4.15 0 -7.15 -2.70 -7.60 -6.90 -0.35 -2.80 1.20 -5.85 3.65 -7.15 1.45 -0.80 1.65 -1.15 1.95 -3.80 0.50 -4.25 0.30 -4.40 -6.55 -4.40 -3.15 0 -5.70 0.05 -5.75 0.15 0 0.05 -0.10 5.50 -0.25 12.10 l-0.25 12 1.65 0.95 c3.65 2.20 5.40 5.30 5.40 9.65 0 6.85 -6.40 12.05 -13 10.60 -4.50 -1 -7.35 -3.85 -8.50 -8.55 -1.30 -5.10 2.20 -11.05 7.35 -12.55 l2.40 -0.70 0.15 -11.75 0.10 -11.75 -11.10 -0.35 c-14.95 -0.45 -17.70 0.15 -25.20 5.50 -5.95 4.20 -11.45 11.45 -12.30 16.25 -0.55 3.10 0.15 6.85 1.85 9.75 4.20 7.20 19.10 5.35 23.30 -2.85 0.55 -1.10 0.85 -1.95 0.75 -1.95 -0.15 0 -1.20 0.50 -2.30 1.05 -5.15 2.70 -11.50 -1.20 -11.50 -7.05 0 -5.75 5.85 -9.55 11.25 -7.30 2.45 1.05 6.10 4.60 6.80 6.65 0.70 2.15 0.30 6.75 -0.85 9.60 -1.05 2.65 -6.60 7.80 -10.15 9.50 -2.40 1.10 -3.50 1.30 -7.35 1.30 -4.10 -0.05 -4.85 -0.20 -7.85 -1.65 -2.45 -1.20 -3.75 -2.25 -5.05 -4.05 -2.90 -3.90 -3.45 -5.70 -3.20 -10.30 0.20 -3.40 0.55 -4.65 2.25 -8.25 3.60 -7.65 7.15 -11.40 15.75 -16.65 5.80 -3.50 7.80 -3.85 22.15 -3.85 l12.70 0 0.15 -4.85 c0.10 -2.70 0.20 -10.40 0.20 -17.15 l-0.05 -12.25 -11.05 -0.15 -11.10 -0.10 -4.10 2.80 c-5 3.45 -8.35 6.70 -12.25 11.90 -3.05 4 -4.40 5.30 -5.05 4.65 -0.40 -0.40 -0.30 -28.30 0.15 -36.50 0.15 -3.25 0.45 -6 0.70 -6.10 1.05 -0.65 3.10 1.05 5.70 4.75 3.60 5.10 8.70 10.25 12.35 12.40 l2.80 1.65 27.95 0.45 c15.35 0.25 44.70 0.70 65.25 1 20.55 0.30 37.70 0.65 38.15 0.80 0.65 0.25 0.75 2.75 0.75 19 0 10.60 -0.20 18.70 -0.45 18.70 -0.25 0 -0.50 8.10 -0.65 18.40 -0.10 10.10 -0.35 18.65 -0.60 19.05 -0.35 0.55 -3.70 0.60 -20 0.30 -23.65 -0.45 -23.45 -0.45 -28.75 4.55 -2.40 2.25 -3.80 4.05 -4.75 6.15 -3.30 7.40 -2.65 12.25 2.40 17.30 5.95 5.95 13.85 6.25 19.70 0.70 l1.65 -1.50 -1.35 -1.60 c-3.60 -4.30 -3.55 -9.60 0.20 -13.50 1.55 -1.65 5.90 -3.05 7.95 -2.55 7.60 1.75 10.55 10.95 5.05 16.05 -1.50 1.40 -4.45 2.65 -6.30 2.65 -1.15 0 -1.75 0.45 -2.85 2 -1.95 2.80 -6.70 5.85 -9.65 6.25 -1.30 0.15 -2.75 0.50 -3.20 0.80 -1.15 0.60 -3.25 0.60 -3.65 -0.05z m22.65 -13 c2.05 -1.25 3.30 -4.05 2.85 -6.30 -0.65 -3.45 -4.50 -6.15 -7.70 -5.35 -3.25 0.80 -5.05 3.20 -5.05 6.70 0 1.75 0.30 2.40 1.95 4 1.65 1.65 2.25 1.95 4.10 1.95 1.30 0 2.85 -0.40 3.85 -1z m-83.90 -17.50 c5 -2.55 4.90 -10.25 -0.15 -12.55 -2.65 -1.15 -3.55 -1.15 -6.20 0 -1.50 0.70 -2.40 1.55 -3.10 3 -1.25 2.40 -1.30 4.10 -0.25 6.35 1.80 3.75 5.95 5.10 9.70 3.20z m36 -0.10 c7.10 -3.70 4 -14.55 -3.95 -13.75 -3.95 0.40 -6.75 3.45 -6.75 7.35 0 2 0.30 2.85 1.55 4.35 1.45 1.85 3.80 3.05 5.90 3.10 0.60 0.05 2.05 -0.45 3.25 -1.05z m64.70 -11.95 c0.15 -0.85 0.30 -7.40 0.30 -14.50 l0 -12.90 -6.05 -0.15 c-3.30 -0.10 -6.35 0.05 -6.75 0.25 -0.90 0.50 -0.95 8.05 -0.05 9.85 0.35 0.65 1.60 2 2.85 2.90 1.25 0.95 2.25 2 2.25 2.30 0 0.65 -18.20 0.45 -18.95 -0.20 -0.25 -0.25 0.60 -0.90 1.85 -1.50 1.30 -0.60 3.10 -2 4.10 -3.05 l1.80 -2 -0.15 -4.35 -0.15 -4.35 -7.80 -0.15 -7.85 -0.10 -0.35 9.60 c-0.15 5.30 -0.25 11.80 -0.15 14.40 l0.15 4.75 9.75 0.25 c5.35 0.15 13.15 0.35 17.30 0.40 l7.60 0.10 0.30 -1.55z m-130 -5.45 c1.60 -1.55 1.40 -4.80 -0.35 -6.30 -3.05 -2.60 -7.30 -0.65 -7.35 3.40 0 2.55 2.40 4.65 4.95 4.20 0.95 -0.15 2.20 -0.75 2.75 -1.30z m48.10 -5.20 c3.80 -3.80 0.75 -9.50 -4.70 -8.65 -4.80 0.80 -5.70 7.40 -1.35 9.75 2 1.10 4.25 0.70 6.05 -1.10z m30.90 1 c3.55 -1.50 4.45 -5.50 1.85 -8.40 -1.25 -1.40 -1.80 -1.65 -3.80 -1.65 -2 0 -2.55 0.25 -3.80 1.65 -2.55 2.85 -1.70 6.90 1.75 8.40 1.95 0.85 2 0.85 4 0z m30.95 -22.80 l1.40 0 -0.15 -6.85 -0.15 -6.85 -3.10 -2.20 c-1.75 -1.20 -3.15 -2.40 -3.15 -2.65 0 -0.75 19.10 -0.35 19.35 0.40 0.10 0.30 -1 1.15 -2.45 1.85 -3.95 1.85 -4.45 3.15 -4.30 10.55 l0.15 6 6.30 0.15 6.30 0.15 0.30 -6.40 c0.20 -3.50 0.35 -11.30 0.35 -17.25 l0 -10.90 -10.15 0 c-5.60 0 -13.20 -0.15 -16.90 -0.30 -3.70 -0.15 -6.95 -0.10 -7.25 0.15 -0.40 0.25 -0.70 5.80 -0.95 17.25 l-0.35 16.85 4.95 0.20 c2.70 0.10 5.70 0.10 6.65 0 0.95 -0.05 2.40 -0.15 3.15 -0.15z m-34.75 -4.90 l0.15 -4.70 -2 -1.90 c-2.45 -2.35 -3 -4.85 -1.75 -7.95 1.10 -2.80 4.35 -4.80 7.20 -4.40 6.65 0.90 8.80 9.35 3.30 12.95 -1.70 1.10 -1.75 1.25 -2.05 5.25 -0.50 5.55 -0.40 5.65 5.75 5.65 4 0 4.95 -0.15 5.20 -0.80 0.15 -0.45 0.30 -8.15 0.30 -17.15 l0 -16.40 -12.30 -0.40 c-8.10 -0.20 -12.45 -0.15 -12.65 0.15 -0.15 0.30 -0.40 8.05 -0.50 17.25 l-0.15 16.75 1.15 0.25 c0.65 0.15 2.80 0.20 4.70 0.15 l3.50 -0.05 0.15 -4.65z m-33.20 4.10 c0.65 -0.25 0.80 -1.15 0.80 -4.65 0 -4.25 -0.05 -4.40 -1.55 -5.85 -3 -2.80 -3.65 -5.90 -1.90 -9.25 1.25 -2.50 4.60 -4.20 7.30 -3.80 6.65 1.10 8.45 9.90 2.80 13.45 l-1.65 1 0 4.70 0 4.70 6.45 0 6.40 0 0.40 -17.05 c0.20 -9.35 0.30 -17.10 0.20 -17.20 -0.10 -0.10 -7.05 -0.25 -15.45 -0.30 l-15.25 -0.15 -0.25 16.65 c-0.15 9.15 -0.15 16.85 0 17.05 0.15 0.25 1.85 0.55 3.75 0.65 1.95 0.05 4.35 0.20 5.35 0.25 1 0.05 2.15 -0.05 2.60 -0.20z m39.50 -12.50 c1.95 -2 1.85 -5.15 -0.25 -6.90 -2.15 -1.80 -4.55 -1.75 -6.50 0.15 -1.90 1.95 -1.95 4.35 -0.15 6.50 1.75 2.10 4.90 2.20 6.90 0.25z m-34 0.30 c1.35 -0.50 2.80 -2.80 2.80 -4.50 0 -1.80 -2.65 -4 -4.75 -4 -4.10 0 -5.85 5.05 -2.70 7.70 1.65 1.40 2.65 1.60 4.65 0.80z"/>
 </g>
 <g fill="#ffffff">
  <path d="M0 67.50 l0 -67.50 82.50 0 82.50 0 0 11.05 c0 9.70 -0.10 11 -0.75 10.75 -0.45 -0.15 -17.60 -0.50 -38.15 -0.80 -20.55 -0.30 -49.90 -0.75 -65.25 -1 l-27.95 -0.45 -2.80 -1.65 c-3.65 -2.15 -8.75 -7.30 -12.35 -12.40 -2.60 -3.70 -4.65 -5.40 -5.70 -4.75 -0.25 0.10 -0.55 2.85 -0.70 6.10 -0.45 8.20 -0.55 36.10 -0.15 36.50 0.65 0.65 2 -0.65 5.05 -4.65 3.90 -5.20 7.25 -8.45 12.25 -11.90 l4.10 -2.80 11.10 0.10 11.05 0.15 0.05 12.25 c0 6.75 -0.10 14.45 -0.20 17.15 l-0.15 4.85 -12.70 0 c-14.35 0 -16.35 0.35 -22.15 3.85 -8.60 5.25 -12.15 9 -15.75 16.65 -1.70 3.60 -2.05 4.85 -2.25 8.25 -0.25 4.60 0.30 6.40 3.20 10.30 1.30 1.80 2.60 2.85 5.05 4.05 3 1.45 3.75 1.60 7.85 1.65 3.85 0 4.95 -0.20 7.35 -1.30 3.55 -1.70 9.10 -6.85 10.15 -9.50 1.15 -2.85 1.55 -7.45 0.85 -9.60 -0.70 -2.05 -4.35 -5.60 -6.80 -6.65 -5.40 -2.25 -11.25 1.55 -11.25 7.30 0 5.85 6.35 9.75 11.50 7.05 1.10 -0.55 2.15 -1.05 2.30 -1.05 0.10 0 -0.20 0.85 -0.75 1.95 -3.15 6.10 -13.30 9.30 -19.70 6.15 -4 -2 -6.40 -7.70 -5.45 -13.05 0.85 -4.80 6.35 -12.05 12.30 -16.25 7.50 -5.35 10.25 -5.95 25.20 -5.50 l11.10 0.35 -0.10 11.75 -0.15 11.75 -2.40 0.70 c-5.15 1.50 -8.65 7.45 -7.35 12.55 1.15 4.65 4 7.55 8.50 8.55 6.60 1.45 13 -3.75 13 -10.60 0 -4.35 -1.75 -7.45 -5.40 -9.65 l-1.65 -0.95 0.25 -12 c0.15 -6.60 0.25 -12.05 0.25 -12.10 0.05 -0.10 2.60 -0.15 5.75 -0.15 6.85 0 7.05 0.15 6.55 4.40 -0.30 2.65 -0.50 3 -1.95 3.80 -2.45 1.30 -4 4.35 -3.65 7.15 0.45 4.20 3.45 6.90 7.60 6.90 3.30 0 5.05 -1.15 6.65 -4.40 1.70 -3.35 1.20 -5.90 -1.70 -8.70 -2.10 -2.05 -2.20 -2.25 -2.20 -5.10 0 -1.75 0.25 -3.10 0.65 -3.35 0.30 -0.25 3.30 -0.35 6.60 -0.20 l6 0.25 0.20 1.50 c0.05 0.85 0 6.05 -0.20 11.60 l-0.35 10.10 -1.75 0.60 c-0.95 0.30 -2.55 1.25 -3.50 2.10 -5.75 5.05 -4.45 13.85 2.55 17.45 2.95 1.50 7.55 1.10 10.40 -0.90 6.05 -4.15 5.90 -13.50 -0.20 -17.45 l-2.35 -1.50 0 -11.25 c-0.05 -6.20 0.15 -11.55 0.35 -11.90 0.30 -0.45 1.65 -0.60 4.90 -0.50 l4.45 0.15 0.15 2.60 c0.15 2.50 0.10 2.55 -2 4 -2.30 1.50 -4.40 4.95 -4.40 7.15 0 0.70 0.50 2.30 1.10 3.50 3.55 7 13.75 5.35 15.20 -2.40 0.50 -2.75 -0.55 -5.35 -3.05 -7.45 -2.10 -1.70 -2.25 -2.05 -2.25 -4.20 0 -1.35 0.30 -2.55 0.65 -2.90 0.45 -0.35 2.25 -0.45 5.50 -0.20 l4.85 0.30 0 13.70 c0 8.50 -0.20 14.10 -0.50 14.70 -0.30 0.50 -1.40 1.40 -2.45 1.95 -4.55 2.30 -10.65 9.10 -13.10 14.60 -0.95 2.15 -1.20 3.50 -1.20 7.15 0 4.20 0.10 4.70 1.75 7.75 3.30 6.15 8.50 10 13.55 10 0.75 0 1.55 0.25 1.70 0.50 0.20 0.35 -19.85 0.50 -59.70 0.50 l-60.05 0 0 -67.50z"/>
  <path d="M123.25 134.50 c0.15 -0.25 0.90 -0.50 1.65 -0.50 3.65 0 8.95 -3.05 11.35 -6.55 1.10 -1.50 1.70 -1.95 2.85 -1.95 1.85 0 4.80 -1.25 6.30 -2.65 4.35 -4.05 3.45 -11.85 -1.75 -14.65 -2.90 -1.60 -4.45 -1.80 -7.35 -1 -6.85 2 -8.95 9.90 -4.10 15.65 l1.35 1.60 -1.65 1.50 c-5.85 5.55 -13.75 5.25 -19.70 -0.70 -5.05 -5.05 -5.70 -9.90 -2.40 -17.30 0.95 -2.10 2.35 -3.90 4.75 -6.15 5.30 -5 5.10 -5 28.75 -4.55 16.30 0.30 19.65 0.25 20 -0.30 0.25 -0.40 0.50 -8.95 0.60 -19.05 0.15 -10.30 0.40 -18.40 0.65 -18.40 0.25 0 0.45 16 0.45 37.75 l0 37.75 -21.05 0 c-13.85 0 -20.90 -0.15 -20.70 -0.50z"/>
  <path d="M134.45 120.55 c-1.65 -1.60 -1.95 -2.25 -1.95 -4 0 -3.50 1.80 -5.90 5.05 -6.70 1.95 -0.50 4.75 0.50 6.15 2.20 3.70 4.35 0.70 10.45 -5.15 10.45 -1.85 0 -2.45 -0.30 -4.10 -1.95z"/>
  <path d="M53.25 104.65 c-2.70 -0.70 -5.25 -4 -5.25 -6.85 0 -2.45 1.90 -5.30 4.15 -6.35 2.65 -1.15 3.55 -1.15 6.20 0 5.05 2.30 5.15 10 0.15 12.55 -1.90 1 -3.25 1.15 -5.25 0.65z"/>
  <path d="M88.55 104.35 c-0.95 -0.35 -2.40 -1.45 -3.20 -2.50 -3.65 -4.50 -0.70 -11.10 5.20 -11.70 7.95 -0.80 11.05 10.05 3.95 13.75 -2.45 1.25 -3.50 1.30 -5.95 0.45z"/>
  <path d="M134 93 l-9.75 -0.25 -0.15 -4.75 c-0.10 -2.60 0 -9.10 0.15 -14.40 l0.35 -9.60 7.85 0.10 7.80 0.15 0.15 4.35 0.15 4.35 -1.80 2 c-1 1.05 -2.80 2.45 -4.10 3.05 -1.25 0.60 -2.10 1.25 -1.85 1.50 0.75 0.65 18.95 0.85 18.95 0.20 0 -0.30 -1 -1.35 -2.25 -2.30 -1.25 -0.90 -2.50 -2.25 -2.85 -2.90 -0.90 -1.80 -0.85 -9.35 0.05 -9.85 0.40 -0.20 3.45 -0.35 6.75 -0.25 l6.05 0.15 0 12.90 c0 7.10 -0.15 13.65 -0.30 14.50 l-0.30 1.55 -7.60 -0.10 c-4.15 -0.05 -11.95 -0.25 -17.30 -0.40z"/>
  <path d="M23.10 86.75 c-1.25 -1.05 -1.60 -1.70 -1.60 -3.15 0.05 -4.05 4.30 -6 7.35 -3.40 1.10 0.95 1.40 1.60 1.40 3.25 0 2.50 -1.30 3.95 -3.80 4.35 -1.40 0.25 -2.05 0.05 -3.35 -1.05z"/>
  <path d="M71.25 82.40 c-2.90 -1.55 -3.70 -5.75 -1.60 -8.15 2.20 -2.55 7.15 -2.10 8.60 0.80 1.25 2.40 0.95 4.35 -0.95 6.25 -1.80 1.80 -4.05 2.20 -6.05 1.10z"/>
  <path d="M104.20 82.30 c-3.45 -1.50 -4.30 -5.55 -1.75 -8.40 1.25 -1.40 1.80 -1.65 3.80 -1.65 2 0 2.55 0.25 3.80 1.65 2.60 2.90 1.70 6.90 -1.85 8.40 -2 0.85 -2.05 0.85 -4 0z"/>
  <path d="M129.35 59.65 l-4.95 -0.20 0.35 -16.85 c0.25 -11.45 0.55 -17 0.95 -17.25 0.30 -0.25 3.55 -0.30 7.25 -0.15 3.70 0.15 11.30 0.30 16.90 0.30 l10.15 0 0 10.90 c0 5.95 -0.15 13.75 -0.35 17.25 l-0.30 6.40 -6.30 -0.15 -6.30 -0.15 -0.15 -6 c-0.15 -7.40 0.35 -8.70 4.30 -10.55 1.45 -0.70 2.55 -1.55 2.45 -1.85 -0.25 -0.75 -19.35 -1.15 -19.35 -0.40 0 0.25 1.40 1.45 3.15 2.65 l3.10 2.20 0.15 6.85 0.15 6.85 -1.40 0 c-0.75 0 -2.20 0.10 -3.15 0.15 -0.95 0.10 -3.95 0.10 -6.65 0z"/>
  <path d="M96.05 59.15 l-1.15 -0.25 0.15 -16.75 c0.10 -9.20 0.35 -16.95 0.50 -17.25 0.20 -0.30 4.55 -0.35 12.65 -0.15 l12.30 0.40 0 16.40 c0 9 -0.15 16.70 -0.30 17.15 -0.25 0.65 -1.20 0.80 -5.20 0.80 -6.15 0 -6.25 -0.10 -5.75 -5.65 0.30 -4 0.35 -4.15 2.05 -5.25 5.50 -3.60 3.35 -12.05 -3.30 -12.95 -2.85 -0.40 -6.10 1.60 -7.20 4.40 -1.25 3.10 -0.70 5.60 1.75 7.95 l2 1.90 -0.15 4.70 -0.15 4.65 -3.50 0.05 c-1.90 0.05 -4.05 0 -4.70 -0.15z"/>
  <path d="M63.25 58.65 c-1.90 -0.10 -3.60 -0.40 -3.75 -0.65 -0.15 -0.20 -0.15 -7.90 0 -17.05 l0.25 -16.65 15.25 0.15 c8.40 0.05 15.35 0.20 15.45 0.30 0.10 0.10 0 7.85 -0.20 17.20 l-0.40 17.05 -6.40 0 -6.45 0 0 -4.70 0 -4.70 1.65 -1 c5.65 -3.55 3.85 -12.35 -2.80 -13.45 -2.70 -0.40 -6.05 1.30 -7.30 3.80 -1.75 3.35 -1.10 6.45 1.90 9.25 1.50 1.45 1.55 1.60 1.55 5.85 0 4.85 -0.15 5.05 -3.40 4.85 -1 -0.05 -3.40 -0.20 -5.35 -0.25z"/>
  <path d="M103.80 45.95 c-1.80 -2.15 -1.75 -4.55 0.15 -6.50 1.95 -1.90 4.35 -1.95 6.50 -0.15 2.10 1.75 2.20 4.90 0.25 6.90 -2 1.95 -5.15 1.85 -6.90 -0.25z"/>
  <path d="M72.05 45.70 c-1.25 -1.05 -1.55 -1.65 -1.55 -3.25 0 -4.20 4.55 -6 7.55 -3 1.65 1.65 1.80 2.90 0.70 5.10 -1.40 2.65 -4.35 3.15 -6.70 1.15z"/>
 </g>
</svg>