<?xml version="1.0" encoding="utf-8"?>
<!DOCTYPE svg PUBLIC "-//W3C//DTD SVG 1.0//EN" "http://www.w3.org/TR/2001/REC-SVG-20010904/DTD/svg10.dtd">
<svg version="1.0" xmlns="http://www.w3.org/2000/svg" width="176px" height="113px" viewBox="0 0 176 113" preserveAspectRatio="xMidYMid meet">
 <g fill="#000000">
  <path d="M80.50 112.55 c-0.40 -0.20 -1.40 -0.70 -2.25 -1.10 -1.65 -0.80 -2.20 -2.55 -1.20 -3.75 0.50 -0.60 1.25 -0.70 2.90 -0.50 8.50 0.95 8.40 0.95 10.25 -0.15 2.25 -1.40 3.80 -4.60 3.80 -7.85 0 -1.35 0.45 -3.95 0.95 -5.85 0.70 -2.45 0.80 -3.35 0.35 -3.35 -0.30 0 -3.30 2.15 -6.55 4.80 -10.70 8.60 -15.40 11.20 -20.20 11.20 -2.10 0 -2.65 -0.20 -3.50 -1.30 -1.15 -1.45 -1.40 -4.15 -0.45 -5.10 0.95 -0.95 2.55 -0.70 4.30 0.60 1.45 1.05 1.90 1.15 3.65 0.75 2.85 -0.65 6.45 -2.60 8.15 -4.40 1.35 -1.40 1.50 -1.90 1.95 -7.30 0.35 -4.05 0.30 -6 -0.05 -6.35 -0.40 -0.40 -1.55 0.35 -3.95 2.45 -5.95 5.25 -13.55 10.65 -17.55 12.50 -2.10 0.95 -7 3 -10.85 4.55 -6.75 2.70 -7.15 2.80 -11.75 2.85 -4.40 0 -5 -0.15 -7.85 -1.60 -6.80 -3.50 -12.05 -8.70 -13.40 -13.35 -0.85 -2.85 -1 -10.45 -0.20 -13.80 0.25 -1.25 1.40 -4.55 2.50 -7.35 1.10 -2.85 1.85 -5.35 1.70 -5.65 -0.15 -0.25 -1.05 -0.50 -1.95 -0.50 -4.80 0 -11.40 -4.05 -14.75 -9.05 -2.95 -4.45 -3.75 -7.25 -3.45 -12.65 0.60 -10.05 5.65 -15.75 16.10 -18.05 3.70 -0.85 6.75 -0.85 42.85 -0.55 l38.85 0.40 0.85 -3.95 c0.50 -2.15 1.40 -4.90 2 -6.15 2.75 -5.40 8.10 -9.55 14.55 -11.20 3.65 -0.95 13.05 -1.05 17.45 -0.25 5.50 1 11.65 4.90 16.10 10.15 5.45 6.35 9.60 18.15 10.55 29.90 0.45 5.15 1.25 5.60 4.05 2.40 1.50 -1.75 2.15 -2.15 4.05 -2.30 3.35 -0.35 5.50 0.90 6.60 3.90 0.85 2.30 0.85 2.45 -0.10 4.60 -1.10 2.65 -3 3.80 -6.05 3.80 -1.90 0 -2.40 -0.25 -4.25 -2.25 -1.15 -1.25 -2.50 -2.25 -3.05 -2.25 -0.90 0 -1.05 0.45 -1.30 3.65 -0.40 4.75 -2.45 12.40 -4.80 18.15 -4.45 10.85 -9.90 17.85 -16.45 21.05 -3.80 1.90 -3.80 1.90 -11.05 2.05 -7 0.20 -7.50 0.10 -12.10 -1.35 -2.65 -0.85 -5.05 -1.55 -5.30 -1.55 -0.30 0 -0.80 1.05 -1.15 2.40 -0.95 3.40 -1.80 4.95 -4.40 7.70 -3.70 3.95 -13.65 10.40 -16.05 10.40 -0.55 0 -1.15 0.25 -1.30 0.50 -0.35 0.60 -6.15 0.60 -7.25 0.05z m19.75 -10.15 c2.90 -2.05 6.25 -8.30 6.25 -11.65 0 -2.45 -1.80 -5.50 -3.25 -5.50 -1.35 0 -3.05 2.80 -4.55 7.45 -1.40 4.55 -2.20 11.30 -1.30 11.30 0.30 0 1.60 -0.75 2.85 -1.60z m-51.40 -2.60 c6 -1.65 12.85 -5.10 17.90 -8.95 9.65 -7.35 29.75 -24.85 29.75 -25.85 0 -0.40 -13.55 -0.75 -50.40 -1.30 l-20.10 -0.30 -0.80 1.95 c-0.40 1.05 -1.95 4.40 -3.35 7.40 -2.50 5.30 -2.60 5.65 -2.60 9.75 0.05 3.55 0.25 4.75 1.40 7.25 0.75 1.60 1.95 3.70 2.65 4.60 1.75 2.35 6.25 5.60 8.80 6.45 3.20 1.05 11.05 0.55 16.75 -1z m87.80 -9.90 c8.10 -3.80 15.15 -15.10 19.10 -30.70 0.40 -1.70 0.75 -4.60 0.75 -6.40 l0 -3.30 -4.50 0 -4.50 0 0 4.75 c0 4.25 0.10 4.75 1.05 5.25 2.95 1.60 3.90 6.80 1.65 9.45 -2.10 2.50 -6.55 3.05 -8.95 1.05 -0.50 -0.40 -0.65 0.05 -0.85 2.05 -0.30 3.10 -1.65 5 -4.15 5.85 -2.65 0.90 -5.25 0.05 -7.10 -2.20 -1.45 -1.80 -1.50 -1.80 -5.95 -2.05 -5.55 -0.35 -7.80 0.50 -8.80 3.15 -0.45 1.25 -0.90 1.70 -1.75 1.70 -1.15 0 -1.15 -0.05 -1.15 -6.80 l0 -6.75 1.40 0.15 c1.05 0.10 1.40 0.45 1.50 1.50 0.30 2.65 2.10 3.40 7.95 3.40 l5.20 0 1.85 -1.95 c2.40 -2.55 4.80 -3.05 7.60 -1.65 l2 0.95 0 -1.95 c0 -2.50 1.10 -4.60 2.95 -5.70 1.35 -0.80 1.45 -1.05 1.70 -5.15 0.25 -3.60 0.15 -4.40 -0.55 -4.95 -1.10 -0.85 -2.40 -0.35 -4.25 1.75 -2.85 3.10 -7.30 2.70 -9.85 -0.85 l-1.05 -1.50 -5.10 0 c-5.80 0 -7 0.50 -8.15 3.30 -0.50 1.15 -1.05 1.70 -1.70 1.70 -1 0 -1 -0.25 -0.90 -6.85 0.15 -6.40 0.20 -6.90 1.10 -6.90 0.65 0 1.15 0.55 1.55 1.75 0.85 2.60 3 3.50 8.50 3.50 l4.45 0 1.80 -2.05 c1.45 -1.70 2.15 -2.10 4.05 -2.30 2.80 -0.30 5.10 0.75 6.20 2.90 0.70 1.25 1.05 1.50 2.40 1.35 l1.60 -0.15 0.15 -4.45 0.15 -4.45 -1.95 -1.90 c-2.05 -1.95 -2.70 -3.75 -2.25 -6.15 l0.30 -1.50 -1.75 1.10 c-1.10 0.70 -2.60 1.10 -3.90 1.10 -1.90 0 -2.45 -0.25 -4.35 -2.25 l-2.15 -2.25 -5.15 0 c-4.50 0 -5.40 0.15 -6.55 1.05 -0.70 0.55 -1.30 1.45 -1.30 1.95 0 1.20 -1.15 2.10 -2.20 1.70 -0.70 -0.30 -0.80 -1.15 -0.70 -6.90 0.15 -6.35 0.20 -6.55 1.30 -6.70 0.70 -0.10 1.20 0.15 1.40 0.75 1.20 3.65 2.20 4.15 8.95 4.15 4.70 0 5.20 -0.10 5.50 -1 0.40 -1.35 3.30 -3 5.25 -3 3.80 0 6.50 2.80 6.50 6.70 0 2.05 0.10 2.10 1.80 1 4.25 -2.80 10.45 1.45 9.50 6.50 -0.35 1.75 -1.35 3.05 -4 5.20 -0.65 0.50 -0.80 1.60 -0.80 5.15 l0 4.50 4.65 -0.15 4.60 -0.15 -0.10 -4.25 c-0.15 -7.40 -3.55 -16.75 -8.60 -23.85 -5.25 -7.40 -13.65 -11.60 -23.10 -11.65 -5.90 0 -13 3 -16.70 7.05 -2.30 2.55 -4.45 7.20 -5.20 11.20 -0.30 1.60 -0.55 3 -0.55 3.10 0 0.10 -3.95 0.15 -8.75 0.15 -4.80 0 -8.75 0.15 -8.75 0.40 0.05 0.20 0.45 1.15 0.95 2.10 0.85 1.55 1.55 1.95 5.85 3.55 l4.95 1.80 1.75 -0.90 c2.20 -1.20 3.35 -1.20 5.30 0 3.20 1.95 3.15 6.75 0 8.85 -1.60 1 -4.90 0.70 -6.35 -0.60 -1.15 -1.05 -1.60 -0.70 -2.45 1.90 -0.90 2.95 0.15 3.75 2.50 1.90 3.25 -2.55 8.50 0.05 8.50 4.15 0 1.90 -1.80 4.20 -3.70 4.85 -1.60 0.50 -2.10 0.45 -4 -0.45 -1.20 -0.60 -2.50 -0.95 -2.95 -0.75 -0.80 0.30 -3 5.90 -2.45 6.40 0.15 0.15 2.50 0.30 5.20 0.30 l4.90 0 0 7.90 c0 7.55 0.05 8 1.35 10.65 2 4.05 7.20 9.05 10.90 10.40 4.30 1.65 6.80 2 13 1.90 4.80 -0.10 5.90 -0.30 8.40 -1.45z m-44.15 -3.20 c1.80 -1.95 3.75 -4.70 4.60 -6.45 2.10 -4.60 2.90 -10.75 1.30 -10.75 -0.75 0 -4.35 2.70 -7.55 5.60 -2.55 2.35 -2.90 2.95 -3.35 5.35 -0.55 3 -0.65 9.70 -0.20 10.20 0.55 0.55 1.95 -0.50 5.20 -3.95z m44.10 -12.05 c2.10 -1.85 0.45 -6.15 -2.35 -6.15 -1.45 0 -3.75 2 -3.75 3.25 0 1 0.95 2.85 1.70 3.35 1 0.65 3.45 0.40 4.40 -0.45z m11.35 -7.45 c1.35 -1.75 1.30 -2.95 -0.20 -4.45 -2.30 -2.35 -5.75 -0.95 -5.75 2.35 0 3.35 3.90 4.70 5.95 2.10z m-59.15 -7.10 c0.65 -0.40 2 -4.45 1.65 -4.85 -0.15 -0.10 -1.15 0.05 -2.20 0.30 -1.55 0.40 -2.20 0.90 -2.85 2.30 -0.45 1 -0.75 2 -0.60 2.25 0.30 0.50 3.25 0.50 4 0z m-12.55 -1.20 c-0.20 -0.65 -0.45 -2 -0.60 -3 -0.20 -1.60 0 -2.10 1.25 -3.40 1.25 -1.20 1.95 -1.50 3.75 -1.50 1.45 0 2.65 0.35 3.45 0.95 1.20 0.95 1.25 0.95 5.85 -0.10 2.55 -0.60 4.60 -1.30 4.60 -1.60 0.05 -0.25 -2 -1.15 -4.50 -1.95 -4.40 -1.45 -4.55 -1.50 -6.30 -0.65 -4.75 2.25 -8.95 -0.55 -8.05 -5.35 0.65 -3.55 5.50 -5.10 8.50 -2.75 l1.35 1.05 4.70 -1.10 c2.60 -0.60 4.75 -1.25 4.75 -1.45 0 -0.20 -2.15 -1.10 -4.75 -2 l-4.70 -1.65 -1.35 1.05 c-1.55 1.20 -3.65 1.35 -5.60 0.35 -2.50 -1.30 -3.10 -3.80 -1.85 -7.60 l0.30 -1.05 -23.40 -0.30 c-12.85 -0.20 -23.55 -0.15 -23.70 0.05 -0.20 0.20 -0.10 3.45 0.20 7.25 l0.55 6.90 5.80 -0.15 5.75 -0.15 0.25 -3.75 0.25 -3.75 7 0 c3.85 0 7.45 -0.15 8.05 -0.40 0.55 -0.20 1.40 -1.20 1.90 -2.20 1.15 -2.45 1.75 -1.50 1.75 2.85 0.05 6.05 -0.85 9.30 -1.75 6.40 -0.80 -2.65 -1.45 -2.90 -7.70 -2.90 l-5.85 0 -0.30 5.50 c-0.20 3 -0.20 5.80 -0.05 6.25 0.25 0.60 1.40 0.75 6.25 0.75 l6 0 1 -1.75 c0.60 -0.95 1.25 -1.75 1.50 -1.75 0.25 0 0.45 2.60 0.45 5.75 0 4.80 -0.15 5.75 -0.75 5.75 -0.40 0 -0.75 -0.40 -0.75 -0.90 0 -0.50 -0.30 -1.35 -0.70 -1.90 -0.60 -0.85 -1.70 -1 -8.65 -1.45 l-7.90 -0.50 -0.25 -3.75 -0.25 -3.75 -5.60 -0.15 -5.65 -0.15 0 1.90 c-0.05 1.05 -0.40 3.70 -0.80 5.90 -0.45 2.20 -0.90 4.60 -1.05 5.35 l-0.25 1.35 4.40 0.20 c2.45 0.05 13.30 0.20 24.15 0.25 l19.65 0.10 -0.35 -1.10z m-52.25 -0.10 c1.05 -1.30 2 -5.95 2 -9.90 l0 -3.90 -2.15 0 c-1.95 0 -2.35 0.20 -3.85 2.05 -0.90 1.15 -2.40 2.40 -3.40 2.80 -5.10 2.10 -10.95 -2.90 -9.90 -8.50 1.25 -6.65 10.35 -8 13.85 -2.10 1 1.65 1.20 1.75 3.55 1.75 l2.55 0 -0.25 -6 c-0.35 -8.75 -0.95 -9.30 -8.20 -7.95 -8.85 1.65 -13.70 7.20 -13.70 15.80 0 7.20 4.60 13.35 11.90 15.95 2.55 0.90 6.80 0.90 7.60 0z m58.70 -1.10 c1.70 -1.70 0.55 -4.20 -1.95 -4.20 -1.75 0 -2.75 1 -2.75 2.70 0 1.10 1.40 2.30 2.75 2.30 0.65 0 1.55 -0.35 1.95 -0.80z m19.90 -5.55 c1.30 -1.20 1.15 -3.45 -0.30 -4.45 -2.75 -1.75 -5.70 1.95 -3.50 4.35 1.05 1.15 2.55 1.20 3.80 0.10z m69.10 -1.90 c1.15 -1.15 1.40 -2.60 0.75 -3.85 -0.80 -1.55 -1.40 -1.90 -3.30 -1.90 -2.70 0 -4.20 3.50 -2.30 5.60 1 1.10 3.80 1.20 4.85 0.15z m-34.75 -1.05 c0.60 -0.75 1.05 -1.75 1.05 -2.30 0 -1.30 -2.20 -3.40 -3.55 -3.40 -1.65 0 -3.45 1.90 -3.45 3.65 0 3.30 3.90 4.65 5.95 2.05z m-120.10 -2.70 c0.35 0 1.65 -3.10 1.65 -4 0 -0.60 -0.65 -1.75 -1.45 -2.55 -2.05 -2.05 -4.50 -2 -6.25 0.10 -1.45 1.70 -1.60 2.75 -0.70 4.75 0.80 1.75 3.10 2.70 5.10 2.15 0.85 -0.25 1.60 -0.45 1.65 -0.45z m65.85 -1.30 c2.50 -2.45 -1.20 -6.20 -3.80 -3.85 -1 0.90 -1.15 2.25 -0.40 3.70 0.65 1.15 3.10 1.30 4.20 0.15z m8.80 -0.65 c0 -0.25 0.15 -0.85 0.35 -1.30 0.25 -0.75 0.05 -0.80 -1.40 -0.50 -2.85 0.60 -3.40 1.10 -1.95 1.70 1.60 0.65 3 0.70 3 0.10z m11.75 -4.55 c2.05 -2.30 -1.45 -5.80 -3.75 -3.75 -1.10 1 -1.35 3.20 -0.40 4.15 0.95 0.95 3.15 0.70 4.15 -0.40z m-19.35 -7.65 c0.60 -1.20 0.55 -1.55 -0.10 -2.60 -1.15 -1.70 -2.65 -2.05 -4.25 -0.85 -1.65 1.20 -1.85 2.30 -0.80 3.90 0.65 1.05 1.15 1.25 2.65 1.10 1.45 -0.10 2 -0.45 2.50 -1.55z m64.75 -0.95 c1 -1.15 1.05 -2.05 0.30 -3.45 -1.25 -2.35 -5.15 -2.05 -5.75 0.40 -1 3.85 2.85 6 5.45 3.05z m-11.80 -6.50 c1.40 -1.30 1.50 -3.05 0.15 -4.40 -2 -2 -5.50 -0.55 -5.50 2.25 0 1.55 1.65 3.25 3.10 3.25 0.60 0 1.60 -0.50 2.25 -1.10z"/>
  <path d="M34.30 95.25 c-0.15 -0.50 0.15 -1.20 0.85 -1.75 5.40 -4.65 5.85 -5.25 5.85 -7.95 l0 -2.55 -2.35 0 c-2.30 -0.05 -2.50 0.10 -4.95 2.80 -3.95 4.40 -4.20 4 -4.20 -6 0 -6.80 0.15 -8.25 0.75 -8.50 1.25 -0.45 2.15 0.20 3.50 2.45 1.60 2.80 3 3.75 5.35 3.75 1.85 0 1.90 -0.05 1.90 -1.75 0 -2.40 -1.05 -4.30 -3.55 -6.40 -1.55 -1.25 -2 -1.95 -1.75 -2.60 0.30 -0.80 0.80 -0.85 5.20 -0.60 2.65 0.20 6.15 0.35 7.75 0.35 2.50 0 2.85 0.10 2.85 1 0 0.60 -0.75 1.45 -2 2.25 -2.55 1.60 -3.55 3.15 -3.65 5.85 l-0.10 2.15 2.85 0 c3.25 0 4.95 -1.20 6 -4.10 0.50 -1.40 0.85 -1.65 2.20 -1.65 0.90 0 1.75 0.20 1.90 0.45 0.15 0.20 0.15 4.05 -0.05 8.50 -0.30 8 -0.30 8.05 -1.45 8.05 -0.75 0 -1.45 -0.50 -1.95 -1.35 -1.90 -3.55 -3.65 -4.65 -7.20 -4.65 l-2.55 0 0 3.60 c0 3.55 0 3.55 2.10 5.50 1.15 1.05 2.25 1.90 2.50 1.90 0.20 0 0.40 0.45 0.40 1 0 0.95 -0.35 1 -7.95 1 -6.70 0 -8 -0.10 -8.25 -0.75z"/>
 </g>
 <g fill="#ffffff">
  <path d="M0 56.50 l0 -56.50 88 0 88 0 -0.05 23.90 c0 23.05 -0.05 23.80 -0.85 21.60 -1.10 -2.85 -3.30 -4.15 -6.60 -3.80 -1.90 0.15 -2.55 0.55 -4.05 2.30 -2.80 3.20 -3.60 2.75 -4.05 -2.40 -0.95 -11.75 -5.10 -23.55 -10.55 -29.90 -4.45 -5.25 -10.60 -9.15 -16.10 -10.15 -4.40 -0.80 -13.80 -0.70 -17.45 0.25 -6.45 1.65 -11.80 5.80 -14.55 11.20 -0.60 1.25 -1.50 4 -2 6.15 l-0.85 3.95 -38.85 -0.40 c-36.10 -0.30 -39.15 -0.30 -42.85 0.55 -10.45 2.30 -15.50 8 -16.10 18.05 -0.30 5.40 0.50 8.20 3.45 12.65 3.35 5 9.95 9.05 14.75 9.05 0.90 0 1.80 0.25 1.95 0.50 0.15 0.30 -0.60 2.80 -1.70 5.65 -1.10 2.80 -2.25 6.10 -2.50 7.35 -0.80 3.35 -0.65 10.95 0.20 13.80 1.35 4.65 6.60 9.85 13.40 13.35 2.85 1.45 3.45 1.60 7.85 1.60 4.60 -0.05 5 -0.15 11.75 -2.85 3.85 -1.55 8.75 -3.60 10.85 -4.55 4 -1.85 11.60 -7.25 17.55 -12.50 2.40 -2.10 3.55 -2.85 3.95 -2.45 0.35 0.35 0.40 2.30 0.05 6.35 -0.45 5.40 -0.60 5.90 -1.95 7.30 -1.70 1.80 -5.30 3.75 -8.15 4.40 -1.75 0.40 -2.20 0.30 -3.65 -0.75 -1.75 -1.30 -3.35 -1.55 -4.30 -0.60 -0.95 0.95 -0.70 3.65 0.45 5.10 0.85 1.10 1.40 1.30 3.50 1.30 4.80 0 9.50 -2.60 20.20 -11.20 3.25 -2.65 6.25 -4.80 6.55 -4.80 0.45 0 0.35 0.90 -0.35 3.35 -0.50 1.90 -0.95 4.50 -0.95 5.85 0 3.25 -1.55 6.45 -3.80 7.85 -1.85 1.10 -2.05 1.10 -9.85 0.15 -2.70 -0.35 -3.85 0.30 -3.85 2.10 0 1.25 1.65 2.70 3.10 2.70 0.45 0 1 0.25 1.15 0.50 0.20 0.35 -13.35 0.50 -40.20 0.50 l-40.55 0 0 -56.50z"/>
  <path d="M87.75 112.50 c0.15 -0.25 0.75 -0.50 1.30 -0.50 2.40 0 12.35 -6.45 16.05 -10.40 2.60 -2.75 3.45 -4.30 4.40 -7.70 0.35 -1.35 0.85 -2.40 1.15 -2.40 0.25 0 2.65 0.70 5.30 1.55 4.60 1.45 5.10 1.55 12.10 1.35 7.25 -0.15 7.25 -0.15 11.05 -2.05 6.55 -3.20 12 -10.20 16.45 -21.05 2.35 -5.75 4.40 -13.40 4.80 -18.15 0.25 -3.20 0.40 -3.65 1.30 -3.65 0.55 0 1.90 1 3.05 2.25 1.85 2 2.35 2.25 4.25 2.25 3 0 4.95 -1.20 6.05 -3.65 0.90 -2.10 0.95 -1.75 0.95 30.30 l0.05 32.35 -44.30 0 c-29.35 0 -44.15 -0.15 -43.95 -0.50z"/>
  <path d="M97.15 100.40 c0.55 -6.85 3.90 -15.15 6.10 -15.15 1.45 0 3.25 3.05 3.25 5.50 0 3.35 -3.35 9.60 -6.25 11.65 -1.25 0.85 -2.55 1.60 -2.85 1.60 -0.35 0 -0.45 -1.10 -0.25 -3.60z"/>
  <path d="M32.10 100.80 c-2.55 -0.85 -7.05 -4.10 -8.80 -6.45 -0.70 -0.90 -1.90 -3 -2.65 -4.60 -1.15 -2.50 -1.35 -3.70 -1.40 -7.25 0 -4.10 0.10 -4.45 2.60 -9.75 1.40 -3 2.95 -6.35 3.35 -7.40 l0.80 -1.95 20.10 0.30 c36.85 0.55 50.40 0.90 50.40 1.30 0 1 -20.10 18.50 -29.75 25.85 -5.05 3.85 -11.90 7.30 -17.90 8.95 -5.70 1.55 -13.55 2.05 -16.75 1z m18.40 -5.80 c0 -0.55 -0.20 -1 -0.40 -1 -0.25 0 -1.35 -0.85 -2.50 -1.90 -2.10 -1.95 -2.10 -1.95 -2.10 -5.50 l0 -3.60 2.55 0 c3.55 0 5.30 1.10 7.20 4.65 0.50 0.85 1.20 1.35 1.95 1.35 1.15 0 1.15 -0.05 1.45 -8.05 0.20 -4.45 0.20 -8.30 0.05 -8.50 -0.15 -0.25 -1 -0.45 -1.90 -0.45 -1.35 0 -1.70 0.25 -2.20 1.65 -1.05 2.90 -2.75 4.10 -6 4.10 l-2.85 0 0.10 -2.15 c0.10 -2.70 1.10 -4.25 3.65 -5.85 1.25 -0.80 2 -1.65 2 -2.25 0 -0.90 -0.35 -1 -2.85 -1 -1.60 0 -5.10 -0.15 -7.75 -0.35 -4.40 -0.25 -4.90 -0.20 -5.20 0.60 -0.25 0.65 0.20 1.35 1.75 2.60 2.50 2.10 3.55 4 3.55 6.40 0 1.70 -0.05 1.75 -1.90 1.75 -2.35 0 -3.75 -0.95 -5.35 -3.75 -1.35 -2.25 -2.25 -2.90 -3.50 -2.45 -0.60 0.25 -0.75 1.70 -0.75 8.50 0 10 0.25 10.40 4.20 6 2.45 -2.70 2.65 -2.85 4.95 -2.80 l2.35 0 0 2.55 c0 2.70 -0.45 3.30 -5.85 7.95 -0.70 0.55 -1 1.25 -0.85 1.75 0.25 0.65 1.55 0.75 8.25 0.75 7.60 0 7.95 -0.05 7.95 -1z"/>
  <path d="M120.50 91 c-5 -0.90 -8.10 -2.50 -11.55 -5.95 -1.80 -1.80 -3.85 -4.55 -4.60 -6 -1.30 -2.65 -1.35 -3.10 -1.35 -10.65 l0 -7.90 -4.90 0 c-2.70 0 -5.05 -0.15 -5.20 -0.30 -0.55 -0.50 1.65 -6.10 2.45 -6.40 0.45 -0.20 1.75 0.15 2.95 0.75 1.90 0.90 2.40 0.95 4 0.45 1.90 -0.65 3.70 -2.95 3.70 -4.85 0 -4.10 -5.25 -6.70 -8.50 -4.15 -2.35 1.85 -3.40 1.05 -2.50 -1.90 0.85 -2.60 1.30 -2.95 2.45 -1.90 1.45 1.30 4.75 1.60 6.35 0.60 3.15 -2.10 3.20 -6.90 0 -8.85 -1.95 -1.20 -3.10 -1.20 -5.30 0 l-1.75 0.90 -4.95 -1.80 c-4.30 -1.60 -5 -2 -5.85 -3.55 -0.50 -0.95 -0.90 -1.90 -0.95 -2.10 0 -0.25 3.95 -0.40 8.75 -0.40 4.80 0 8.75 -0.05 8.75 -0.15 0 -1.60 1.40 -6.80 2.50 -9.15 1.80 -3.95 4.40 -6.85 8.20 -8.90 9.45 -5.25 20.15 -4.25 29.65 2.75 6.95 5.15 13.55 19.25 13.80 29.45 l0.10 4.25 -4.60 0.15 -4.65 0.15 0 -4.50 c0 -3.55 0.15 -4.65 0.80 -5.15 2.65 -2.15 3.65 -3.45 4 -5.20 0.95 -5.05 -5.25 -9.30 -9.50 -6.50 -1.70 1.10 -1.80 1.05 -1.80 -1 0 -3.90 -2.70 -6.70 -6.50 -6.70 -1.95 0 -4.85 1.65 -5.25 3 -0.30 0.90 -0.80 1 -5.50 1 -6.75 0 -7.75 -0.50 -8.95 -4.15 -0.20 -0.60 -0.70 -0.85 -1.40 -0.75 -1.10 0.15 -1.15 0.35 -1.30 6.70 -0.10 5.75 0 6.60 0.70 6.90 1.05 0.40 2.20 -0.50 2.20 -1.70 0 -0.50 0.60 -1.40 1.30 -1.95 1.15 -0.90 2.05 -1.05 6.55 -1.05 l5.15 0 2.15 2.25 c1.90 2 2.45 2.25 4.35 2.25 1.30 0 2.80 -0.40 3.90 -1.10 l1.75 -1.10 -0.30 1.50 c-0.45 2.40 0.20 4.20 2.25 6.15 l1.95 1.90 -0.15 4.45 -0.15 4.45 -1.60 0.15 c-1.35 0.15 -1.70 -0.10 -2.40 -1.35 -1.10 -2.15 -3.40 -3.20 -6.20 -2.90 -1.90 0.20 -2.60 0.60 -4.05 2.30 l-1.80 2.05 -4.45 0 c-5.50 0 -7.65 -0.90 -8.50 -3.50 -0.40 -1.20 -0.90 -1.75 -1.55 -1.75 -0.90 0 -0.95 0.50 -1.10 6.90 -0.10 6.60 -0.10 6.85 0.90 6.85 0.65 0 1.20 -0.55 1.70 -1.70 1.15 -2.80 2.35 -3.30 8.15 -3.30 l5.10 0 1.05 1.50 c2.55 3.55 7 3.95 9.85 0.85 1.85 -2.10 3.15 -2.60 4.25 -1.75 0.70 0.55 0.80 1.35 0.55 4.95 -0.25 4.10 -0.35 4.35 -1.70 5.15 -1.85 1.10 -2.95 3.20 -2.95 5.70 l0 1.95 -2 -0.95 c-2.80 -1.40 -5.20 -0.90 -7.60 1.65 l-1.85 1.95 -5.20 0 c-5.85 0 -7.65 -0.75 -7.95 -3.40 -0.10 -1.05 -0.45 -1.40 -1.50 -1.50 l-1.40 -0.15 0 6.75 c0 6.75 0 6.80 1.15 6.80 0.85 0 1.30 -0.45 1.75 -1.70 1 -2.65 3.25 -3.50 8.80 -3.15 4.45 0.25 4.50 0.25 5.95 2.05 1.85 2.25 4.45 3.10 7.10 2.20 2.50 -0.85 3.85 -2.75 4.15 -5.85 0.20 -2 0.35 -2.45 0.85 -2.05 2.40 2 6.85 1.45 8.95 -1.05 2.25 -2.65 1.30 -7.85 -1.65 -9.45 -0.95 -0.50 -1.05 -1 -1.05 -5.25 l0 -4.75 4.50 0 4.50 0 0 3.30 c0 1.80 -0.35 4.70 -0.75 6.40 -3.95 15.60 -11 26.90 -19.10 30.70 -2.50 1.15 -3.60 1.35 -8.40 1.45 -3 0.05 -6.50 -0.10 -7.75 -0.35z"/>
  <path d="M87.30 90.65 c-0.45 -0.50 -0.35 -7.20 0.20 -10.20 0.45 -2.40 0.80 -3 3.35 -5.35 3.20 -2.90 6.80 -5.60 7.55 -5.60 1.60 0 0.80 6.15 -1.30 10.75 -2 4.20 -8.75 11.45 -9.80 10.40z"/>
  <path d="M132.20 75.10 c-0.75 -0.50 -1.70 -2.35 -1.70 -3.35 0 -1.25 2.30 -3.25 3.75 -3.25 2.80 0 4.45 4.30 2.35 6.15 -0.95 0.85 -3.40 1.10 -4.40 0.45z"/>
  <path d="M142.85 67.60 c-1.95 -2.15 -0.35 -6.10 2.40 -6.10 1.50 0 3.75 2.05 3.75 3.40 0 0.55 -0.45 1.55 -1.05 2.30 -1.25 1.60 -3.85 1.80 -5.10 0.40z"/>
  <path d="M84.80 60.10 c-0.15 -0.25 0.15 -1.25 0.60 -2.25 0.65 -1.40 1.30 -1.90 2.85 -2.30 1.05 -0.25 2.05 -0.40 2.20 -0.30 0.35 0.40 -1 4.45 -1.65 4.85 -0.75 0.50 -3.70 0.50 -4 0z"/>
  <path d="M32.80 59.65 l-4.40 -0.20 0.25 -1.35 c0.15 -0.75 0.60 -3.15 1.05 -5.35 0.40 -2.20 0.75 -4.85 0.80 -5.90 l0 -1.90 5.65 0.15 5.60 0.15 0.25 3.75 0.25 3.75 7.90 0.50 c6.95 0.45 8.05 0.60 8.65 1.45 0.40 0.55 0.70 1.40 0.70 1.90 0 0.50 0.35 0.90 0.75 0.90 0.60 0 0.75 -0.95 0.75 -5.75 0 -3.15 -0.20 -5.75 -0.45 -5.75 -0.25 0 -0.90 0.80 -1.50 1.75 l-1 1.75 -6 0 c-4.85 0 -6 -0.15 -6.25 -0.75 -0.15 -0.45 -0.15 -3.25 0.05 -6.25 l0.30 -5.50 5.85 0 c6.25 0 6.90 0.25 7.70 2.90 0.90 2.90 1.80 -0.35 1.75 -6.40 0 -4.35 -0.60 -5.30 -1.75 -2.85 -0.50 1 -1.35 2 -1.90 2.20 -0.60 0.25 -4.20 0.40 -8.05 0.40 l-7 0 -0.25 3.75 -0.25 3.75 -5.75 0.15 -5.80 0.15 -0.55 -6.90 c-0.30 -3.80 -0.40 -7.05 -0.20 -7.25 0.15 -0.20 10.85 -0.25 23.70 -0.05 l23.40 0.30 -0.30 1.05 c-1.25 3.80 -0.65 6.30 1.85 7.60 1.95 1 4.05 0.85 5.60 -0.35 l1.35 -1.05 4.70 1.65 c2.60 0.90 4.75 1.80 4.75 2 0 0.20 -2.15 0.85 -4.75 1.45 l-4.70 1.10 -1.35 -1.05 c-3 -2.35 -7.85 -0.80 -8.50 2.75 -0.90 4.80 3.30 7.60 8.05 5.35 1.75 -0.85 1.90 -0.80 6.30 0.65 2.50 0.80 4.55 1.70 4.50 1.95 0 0.30 -2.05 1 -4.60 1.60 -4.60 1.05 -4.65 1.05 -5.85 0.10 -0.80 -0.60 -2 -0.95 -3.45 -0.95 -1.80 0 -2.50 0.30 -3.75 1.50 -1.25 1.30 -1.45 1.80 -1.25 3.40 0.15 1 0.40 2.35 0.60 3 l0.35 1.10 -19.65 -0.10 c-10.85 -0.05 -21.70 -0.20 -24.15 -0.25z"/>
  <path d="M16.40 58.80 c-7.30 -2.60 -11.90 -8.75 -11.90 -15.95 0 -8.60 4.85 -14.15 13.70 -15.80 7.25 -1.35 7.85 -0.80 8.20 7.95 l0.25 6 -2.55 0 c-2.35 0 -2.55 -0.10 -3.55 -1.75 -3.50 -5.90 -12.60 -4.55 -13.85 2.10 -1.05 5.60 4.80 10.60 9.90 8.50 1 -0.40 2.50 -1.65 3.40 -2.80 1.50 -1.85 1.90 -2.05 3.85 -2.05 l2.15 0 0 3.90 c0 3.95 -0.95 8.60 -2 9.90 -0.80 0.90 -5.05 0.90 -7.60 0z"/>
  <path d="M78.80 57.70 c-1.70 -1.70 -0.55 -4.20 1.95 -4.20 1.75 0 2.75 1 2.75 2.70 0 1.10 -1.40 2.30 -2.75 2.30 -0.65 0 -1.55 -0.35 -1.95 -0.80z"/>
  <path d="M98.80 52.05 c-2.20 -2.40 0.75 -6.10 3.50 -4.35 2.25 1.50 1.05 5.30 -1.65 5.30 -0.55 0 -1.40 -0.45 -1.85 -0.95z"/>
  <path d="M166.85 50.10 c-1.90 -2.10 -0.40 -5.60 2.30 -5.60 1.90 0 2.50 0.35 3.30 1.90 1.15 2.20 -0.50 4.60 -3.15 4.60 -0.95 0 -2 -0.40 -2.45 -0.90z"/>
  <path d="M131.85 49.60 c-1.20 -1.35 -1.05 -3.70 0.30 -5 1.50 -1.45 3.10 -1.40 4.60 0.15 1.50 1.50 1.55 2.70 0.20 4.45 -1.25 1.60 -3.85 1.80 -5.10 0.40z"/>
  <path d="M12.20 46.75 c-1.50 -0.60 -2.70 -2.50 -2.70 -4.25 0 -0.50 0.60 -1.60 1.30 -2.45 1.75 -2.10 4.20 -2.15 6.25 -0.10 0.80 0.80 1.45 1.95 1.45 2.55 0 0.90 -1.30 4 -1.65 4 -0.05 0 -0.80 0.20 -1.65 0.45 -1 0.30 -2 0.25 -3 -0.20z"/>
  <path d="M78.50 45.05 c-0.75 -1.45 -0.60 -2.80 0.40 -3.70 2.60 -2.35 6.30 1.40 3.80 3.85 -1.10 1.15 -3.55 1 -4.20 -0.15z"/>
  <path d="M88.50 44.45 c-1.45 -0.60 -0.90 -1.10 1.95 -1.70 1.45 -0.30 1.65 -0.25 1.40 0.50 -0.20 0.45 -0.35 1.05 -0.35 1.30 0 0.60 -1.40 0.55 -3 -0.10z"/>
  <path d="M99.10 40.40 c-0.95 -0.95 -0.70 -3.15 0.40 -4.15 2.30 -2.05 5.80 1.45 3.75 3.75 -1 1.10 -3.20 1.35 -4.15 0.40z"/>
  <path d="M78.75 32.80 c-1.05 -1.60 -0.85 -2.70 0.80 -3.90 1.60 -1.20 3.10 -0.85 4.25 0.85 0.65 1.05 0.70 1.40 0.10 2.60 -0.50 1.10 -1.05 1.45 -2.50 1.55 -1.50 0.15 -2 -0.05 -2.65 -1.10z"/>
  <path d="M144.65 32.50 c-1.25 -0.50 -1.90 -2.40 -1.45 -4.15 0.60 -2.45 4.50 -2.75 5.75 -0.40 0.75 1.40 0.70 2.30 -0.30 3.45 -1.10 1.25 -2.55 1.65 -4 1.10z"/>
  <path d="M132.50 25 c-2 -2 -0.55 -5.50 2.25 -5.50 1.55 0 3.25 1.65 3.25 3.15 0 1.45 -1.95 3.35 -3.40 3.35 -0.60 0 -1.55 -0.45 -2.10 -1z"/>
 </g>
</svg>