<?xml version="1.0" encoding="utf-8"?>
<!DOCTYPE svg PUBLIC "-//W3C//DTD SVG 1.0//EN" "http://www.w3.org/TR/2001/REC-SVG-20010904/DTD/svg10.dtd">
<svg version="1.0" xmlns="http://www.w3.org/2000/svg" width="141px" height="136px" viewBox="0 0 141 136" preserveAspectRatio="xMidYMid meet">
 <g fill="#000000">
  <path d="M64.90 134.05 c-3.15 -0.65 -7.35 -4 -8.95 -7.15 -0.55 -1.05 -1.25 -1.90 -1.55 -1.90 -0.30 0 -1.35 0.95 -2.30 2.05 -2.55 2.95 -5 3.95 -9.85 3.95 -3.55 0 -4.25 -0.20 -6.35 -1.50 -2.95 -1.85 -4.80 -4.40 -7 -9.40 l-1.65 -3.85 0.10 -8.25 c0.10 -4.55 0.35 -15.10 0.60 -23.50 0.25 -8.40 0.35 -15.40 0.20 -15.60 -0.10 -0.25 -5.10 -0.40 -11.10 -0.40 l-10.95 0 -0.80 1.70 c-2 4.20 0.35 9.30 4.25 9.30 2.70 0 4.05 -1.80 3.85 -5.20 -0.15 -2.35 -0.25 -2.55 -1.40 -2.55 -1 0 -1.30 0.30 -1.40 1.50 -0.10 0.85 -0.40 1.70 -0.60 1.95 -0.75 0.80 -2 -0.75 -2 -2.45 0 -2.75 2.85 -4.35 5.45 -3 1.90 0.95 2.55 2.15 2.55 4.75 0 4.30 -2 6.60 -6.30 7.25 -2.40 0.35 -4.80 -0.85 -6.95 -3.45 -1.35 -1.70 -1.50 -2.20 -1.50 -5.45 0.05 -5.25 1.40 -7.70 6 -11.10 6.15 -4.55 7.60 -7.20 6.05 -10.90 -0.60 -1.55 -1 -1.85 -2.25 -1.85 -1 0 -1.80 0.40 -2.50 1.30 -2 2.50 -0.85 4.15 1.40 2 1.55 -1.50 1.85 -1.55 2.25 -0.55 0.50 1.40 -0.70 3.55 -2.50 4.40 -2.35 1.15 -3 1.05 -4.45 -0.40 -2.50 -2.50 -1 -7.05 2.90 -8.95 0.95 -0.45 2.85 -0.80 4.20 -0.80 3.15 0 4.45 1.25 5.15 4.95 0.65 3.40 -0.25 5.55 -4 9.80 l-2.65 3 8.40 0.40 c5.20 0.25 8.60 0.20 8.90 -0.10 0.25 -0.25 0.65 -7.05 0.90 -15.15 1.15 -36 1.15 -36.45 2.40 -38.80 1.20 -2.30 4.90 -5.05 8.70 -6.40 4 -1.45 8.80 -0.05 12.50 3.55 l1.95 1.90 2.55 -2.75 c4.05 -4.35 4.85 -4.60 13.35 -4.65 l7.25 0 2.40 1.70 c1.30 0.95 3.05 2.85 3.90 4.20 l1.50 2.40 2.25 -2 c3.05 -2.70 6.85 -4.05 11.10 -4.05 5.55 0.05 9.10 2.35 13.40 8.85 l1.80 2.75 -0.80 24.45 c-0.50 13.45 -0.70 24.70 -0.55 24.95 0.35 0.60 17.75 0.70 17.75 0.15 0 -0.25 -0.80 -1.60 -1.75 -3.10 -4.95 -7.80 -4 -13.65 2.55 -15.10 5.10 -1.15 8.70 1.05 8.70 5.25 0 2.20 -1.30 3.90 -3.85 5.25 -3.50 1.80 -6.75 -1.60 -4.45 -4.70 0.95 -1.30 2.25 -0.65 1.95 0.95 -0.20 0.90 -0.05 1.30 0.45 1.30 1.95 0 2.70 -3.55 0.95 -4.50 -2.60 -1.40 -4.95 -0.15 -5.55 2.90 -0.45 2.70 0.40 4.55 4.65 10.25 3.75 4.95 4.10 5.85 3.70 9.50 -0.70 5.60 -4.80 9.35 -10.35 9.35 -2.50 0 -2.95 -0.15 -4.40 -1.65 -1.40 -1.45 -1.60 -2 -1.60 -4.40 0 -3.05 0.60 -3.95 3.20 -4.95 1.70 -0.65 4.75 -0.15 5.15 0.80 0.40 1.15 -0.30 3.20 -1.10 3.20 -0.45 0 -1 -0.55 -1.25 -1.25 -0.55 -1.45 -1.10 -1.55 -2.20 -0.45 -0.85 0.80 -1.05 3.05 -0.40 4 1.35 2 5.35 2.25 7.50 0.45 2 -1.65 3.20 -5.20 2.40 -6.80 -0.50 -1.10 -1 -1.25 -5.30 -1.50 -2.60 -0.20 -7.50 -0.35 -10.85 -0.40 -6 -0.05 -6.15 0 -6.35 1.10 -0.15 0.60 -0.50 9.65 -0.80 20.10 -0.30 10.45 -0.70 21.45 -0.85 24.40 l-0.30 5.40 -3.30 3.80 c-4.05 4.70 -6.40 5.80 -11.55 5.30 -4.15 -0.40 -7.10 -1.65 -9.20 -3.95 l-1.65 -1.80 -0.95 1.40 c-4.25 6.30 -12.35 10.05 -18.80 8.75z m11.45 -5 c2.80 -1.60 4.15 -3.55 5.15 -7.50 0.75 -3.15 0.90 -3.30 2.40 -3.45 1.50 -0.15 1.70 0 2.55 2.05 1.15 2.65 3.65 5.60 5.60 6.65 1.75 0.90 6 0.90 8.10 0 2.10 -0.85 4.20 -3.35 4.80 -5.70 0.80 -2.95 2.80 -50.55 2.15 -51.15 -0.20 -0.20 -7.55 -0.40 -16.35 -0.50 l-16 -0.20 -0.15 4.95 -0.15 4.90 2.80 2.90 c1.50 1.60 2.75 3.15 2.75 3.45 0 0.40 -2.90 0.55 -9 0.55 -10.25 0 -10.40 -0.10 -6.75 -3.40 l2.25 -2.05 0 -5.70 0 -5.70 -16.35 -0.35 c-8.95 -0.20 -16.50 -0.15 -16.70 0.05 -0.25 0.25 -0.65 7.75 -0.95 16.65 -0.95 30.05 -0.90 30.65 1.80 36.25 1.40 2.85 3.20 4.40 6.30 5.60 4.80 1.75 9.25 -0.50 12.50 -6.20 2.15 -3.80 2.85 -3.60 4.95 1.50 2.45 6.10 5.45 8 12.20 7.70 3.05 -0.10 4.50 -0.45 6.10 -1.30z m31.35 -64.65 c0.15 -0.65 0.50 -8 0.80 -16.40 0.30 -8.40 0.65 -18.85 0.85 -23.25 0.30 -7.90 0.30 -8.05 -1 -10.55 -1.35 -2.65 -4.10 -5.45 -6.20 -6.25 -0.65 -0.25 -2.45 -0.45 -4 -0.45 -2.30 0 -3.25 0.30 -5.20 1.50 -2.20 1.45 -5.70 4.95 -7.50 7.55 -0.70 1 -0.95 1.10 -1.65 0.50 -0.45 -0.35 -0.80 -0.95 -0.80 -1.25 0 -0.30 -0.65 -1.90 -1.45 -3.60 -2.55 -5.35 -7.40 -8.20 -14.10 -8.20 -5 0 -9.40 4.10 -10.35 9.50 -0.65 3.90 -3.05 3.85 -4.10 0 -1 -3.65 -3.05 -5.35 -7.85 -6.50 -2 -0.45 -3 -0.45 -4.35 0 -2.10 0.65 -5 3.75 -5.70 6.05 -0.55 1.75 -1.50 26.55 -1.65 42.45 l-0.10 8.75 16.45 0.35 c9 0.20 16.50 0.25 16.65 0.10 0.15 -0.15 0.35 -1.80 0.45 -3.65 l0.20 -3.40 -3.25 -2.70 c-1.80 -1.50 -3.30 -3 -3.30 -3.30 -0.05 -0.50 1.20 -0.65 4.60 -0.65 6.15 0 15.35 0.55 15.35 0.95 0 0.15 -1.20 1.30 -2.70 2.50 -2.65 2.20 -2.70 2.35 -3.05 5.40 -0.60 5.50 -1.35 5.10 11.40 5.25 6.10 0.10 13.40 0.20 16.20 0.30 5 0.15 5.10 0.15 5.35 -1z"/>
  <path d="M66.40 123.40 c-2.40 -1.40 -3.35 -3.55 -2.35 -5.35 0.85 -1.55 3 -1.95 3.95 -0.80 0.55 0.65 0.55 1 0.10 1.65 -1.10 1.55 -1.25 2.20 -0.55 2.65 2 1.25 4.45 -0.10 4.45 -2.50 0 -1.70 -0.60 -2.25 -4.35 -4.05 -3.85 -1.80 -4.85 -3 -4.45 -5.15 0.55 -2.90 3.45 -4.85 7.30 -4.85 2.55 0 4.25 0.80 4.95 2.35 0.80 1.75 0.70 2.45 -0.60 3.95 -0.95 1.10 -1.40 1.25 -2.70 1 -2.60 -0.60 -3.55 -2.80 -1.20 -2.80 1.25 0 1.65 -0.55 1 -1.35 -0.60 -0.70 -2.80 -0.85 -4.15 -0.35 -0.45 0.15 -0.80 0.80 -0.80 1.40 0 2 1.65 3.85 4.50 4.95 4.65 1.85 5.70 5.30 2.70 8.80 -1.10 1.35 -1.60 1.55 -3.60 1.55 -1.50 0 -3.05 -0.40 -4.20 -1.10z"/>
  <path d="M38.25 122.40 c-1.65 -0.90 -2.75 -2.55 -2.75 -4.15 0 -1.95 0.80 -2.75 2.75 -2.75 1.75 0 2.75 0.75 2.75 2.10 0 0.55 -0.35 0.90 -0.95 0.90 -1.30 0 -1.70 0.75 -0.80 1.50 1.20 1 3.40 0.40 4.15 -1.10 0.85 -1.75 0.10 -3.25 -1.80 -3.70 -2.20 -0.55 -5.05 -2.15 -5.60 -3.15 -1.90 -3.65 1.60 -8.05 6.45 -8.05 2.30 0 4.75 1.75 5.25 3.75 0.45 1.70 -0.90 4.25 -2.25 4.25 -1.65 0 -3.95 -1.45 -3.95 -2.50 0 -1.30 0.75 -1.65 1.95 -0.90 1.25 0.75 1.95 0.20 1.05 -0.85 -0.80 -1 -3.20 -0.95 -4.20 0.05 -1.65 1.60 -0.60 3.70 2.50 5 3.30 1.40 4.55 4.60 2.95 7.65 -1.10 2.20 -5.15 3.25 -7.50 1.95z"/>
  <path d="M92.95 120.85 c-2.10 -1.40 -2.50 -3.30 -0.95 -4.75 l1.05 -1 -1.25 -1.85 c-1.80 -2.65 -1.70 -4.45 0.40 -6.55 1.45 -1.45 2.05 -1.70 4.05 -1.70 1.90 0 2.60 0.25 3.80 1.45 3.15 3.15 0.75 6.80 -3.30 4.95 -0.70 -0.30 -1.25 -0.95 -1.25 -1.50 0 -1.05 1 -1.20 1.90 -0.30 0.45 0.45 0.75 0.45 1.20 0 0.45 -0.45 0.35 -0.80 -0.35 -1.60 -1.70 -1.85 -4.75 -0.95 -4.75 1.45 0 1.80 1.35 3 4.10 3.60 4.15 0.95 5.90 3.05 4.60 5.55 -1.75 3.45 -5.95 4.45 -9.25 2.25z m6.55 -2.35 c0.60 -1.15 -0.70 -3 -2.20 -3 -0.95 0 -1.10 0.20 -0.90 1.55 0.20 1.25 0.05 1.55 -0.95 1.85 l-1.20 0.30 1.25 0.30 c1.80 0.45 3.45 0 4 -1z"/>
  <path d="M39.25 28.90 c-1.75 -1.55 -2.15 -4.30 -0.85 -5.90 l0.95 -1.20 1.70 1 c0.95 0.55 1.80 1.40 1.85 1.90 0.15 0.80 -0.05 0.90 -1.30 0.65 -1.80 -0.35 -2.25 -0.05 -1.55 1.20 0.60 1.20 3.20 1.30 3.65 0.15 0.80 -2.05 0.30 -3.60 -1.45 -4.70 -2.85 -1.75 -4.25 -3.80 -4.25 -6.15 0 -1.15 0.30 -2.45 0.65 -2.90 1 -1.35 3.70 -2.45 5.90 -2.45 1.65 0 2.35 0.30 3.75 1.70 2.15 2.15 2.30 4.25 0.40 5.75 -2.35 1.85 -5.20 1.15 -5.20 -1.30 0 -1.20 0.70 -1.55 1.25 -0.65 0.15 0.30 0.65 0.50 1.05 0.50 1.25 0 0.65 -2.60 -0.70 -3.30 -1.55 -0.75 -3 -0.35 -3.95 1.15 -0.75 1.10 -0.75 1.35 0 2.90 0.50 1.05 1.60 2.10 2.85 2.75 3.05 1.55 4 2.70 4 4.90 0 2.45 -1.10 3.95 -3.40 4.60 -2.75 0.75 -3.90 0.60 -5.35 -0.60z"/>
  <path d="M93 28.60 c-0.65 -0.50 -1.15 -1.65 -1.35 -2.95 -0.25 -1.80 -0.10 -2.15 1 -2.90 1.60 -1 4.10 -0.60 4.85 0.75 0.65 1.20 -0.10 1.70 -1.80 1.30 -1.05 -0.30 -1.25 -0.15 -1.10 0.55 0.20 1.20 2.65 2.05 3.80 1.35 1.20 -0.80 1.35 -3.30 0.25 -4.25 -0.50 -0.45 -2 -1.20 -3.30 -1.65 -1.50 -0.55 -2.60 -1.35 -2.95 -2.05 -0.85 -1.90 -0.05 -4.50 1.90 -6.20 1.50 -1.35 2.15 -1.55 4.50 -1.55 2.25 0 2.95 0.20 3.95 1.25 2.30 2.25 1.45 5.80 -1.55 6.55 -1.45 0.35 -3.20 -0.95 -3.20 -2.40 0 -0.95 1.25 -1.25 1.75 -0.40 0.45 0.75 1.75 0.60 1.75 -0.15 0 -1 -2.15 -2.85 -3.35 -2.85 -1.30 0 -2.65 1.50 -2.65 3.05 0 1.85 1.30 3.35 3.50 4 2.85 0.85 3.60 1.90 3.40 4.75 -0.15 2.25 -0.30 2.50 -2.15 3.55 -2.45 1.40 -5.70 1.50 -7.25 0.25z"/>
  <path d="M64.95 27.05 c-1.65 -1.65 -1.90 -3.70 -0.65 -5.45 1.55 -2.20 5.95 -0.75 5 1.65 -0.30 0.80 -0.40 0.85 -1.20 0.05 -1.30 -1.15 -2.10 -1 -2.10 0.45 0 2.35 4.40 2.45 5.25 0.05 0.45 -1.25 0.30 -1.55 -1.10 -2.75 -0.85 -0.70 -2.30 -1.75 -3.25 -2.30 -1.50 -0.95 -1.65 -1.25 -1.80 -3.85 -0.15 -3.35 0.35 -4.60 2.55 -5.90 2.25 -1.40 4.90 -1.30 6.55 0.25 3.25 3.05 2.90 7.25 -0.65 7.25 -1.70 0 -3.05 -1.40 -3.05 -3.15 0 -1.50 1.30 -1.90 1.80 -0.60 0.45 1.15 1.30 0.90 1.10 -0.35 -0.10 -0.65 -0.75 -1.45 -1.55 -1.80 -1.20 -0.60 -1.55 -0.55 -2.60 0.10 -1.60 1.05 -2.10 3.10 -1.20 4.75 0.40 0.70 1.90 1.95 3.30 2.75 3.70 2.10 4.65 4.85 2.60 7.50 -2.45 3.10 -6.60 3.75 -9 1.35z"/>
 </g>
 <g fill="#ffffff">
  <path d="M0 68 l0 -68 70.50 0 70.50 0 0 68 0 68 -70.50 0 -70.50 0 0 -68z m75.30 64.55 c3 -1.40 6.50 -4.40 8.40 -7.25 l0.95 -1.40 1.65 1.80 c2.10 2.30 5.05 3.55 9.20 3.95 5.15 0.50 7.50 -0.60 11.55 -5.30 l3.30 -3.80 0.30 -5.40 c0.15 -2.95 0.55 -13.95 0.85 -24.40 0.30 -10.45 0.65 -19.50 0.80 -20.10 0.20 -1.10 0.35 -1.15 6.35 -1.10 3.35 0.05 8.25 0.20 10.85 0.40 4.30 0.25 4.80 0.40 5.30 1.50 0.80 1.60 -0.40 5.15 -2.40 6.80 -2.15 1.80 -6.15 1.55 -7.50 -0.45 -0.65 -0.95 -0.45 -3.20 0.40 -4 1.10 -1.10 1.65 -1 2.20 0.45 0.25 0.70 0.80 1.25 1.25 1.25 0.80 0 1.50 -2.05 1.10 -3.20 -0.40 -0.95 -3.45 -1.45 -5.15 -0.80 -2.60 1 -3.20 1.90 -3.20 4.95 0 2.40 0.20 2.95 1.60 4.40 1.45 1.50 1.90 1.65 4.40 1.65 5.55 0 9.65 -3.75 10.35 -9.35 0.40 -3.65 0.05 -4.55 -3.70 -9.50 -4.25 -5.70 -5.10 -7.55 -4.65 -10.25 0.60 -3.05 2.95 -4.30 5.55 -2.90 1.75 0.95 1 4.50 -0.95 4.50 -0.50 0 -0.65 -0.40 -0.45 -1.30 0.30 -1.60 -1 -2.25 -1.95 -0.95 -2.30 3.10 0.95 6.50 4.45 4.70 2.55 -1.35 3.85 -3.05 3.85 -5.25 0 -4.20 -3.60 -6.40 -8.70 -5.25 -6.55 1.45 -7.50 7.30 -2.55 15.10 0.95 1.50 1.75 2.85 1.75 3.10 0 0.55 -17.40 0.45 -17.75 -0.15 -0.15 -0.25 0.05 -11.50 0.55 -24.95 l0.80 -24.45 -1.80 -2.75 c-4.30 -6.50 -7.85 -8.80 -13.40 -8.85 -4.25 0 -8.05 1.35 -11.10 4.05 l-2.25 2 -1.50 -2.40 c-0.85 -1.35 -2.60 -3.25 -3.90 -4.20 l-2.40 -1.70 -7.25 0 c-8.50 0.05 -9.30 0.30 -13.35 4.65 l-2.55 2.75 -1.95 -1.90 c-3.70 -3.60 -8.50 -5 -12.50 -3.55 -3.80 1.35 -7.50 4.10 -8.70 6.40 -1.25 2.35 -1.25 2.80 -2.40 38.80 -0.25 8.10 -0.65 14.90 -0.90 15.15 -0.30 0.30 -3.70 0.35 -8.90 0.10 l-8.40 -0.40 2.65 -3 c3.75 -4.25 4.65 -6.40 4 -9.80 -0.70 -3.70 -2 -4.95 -5.15 -4.95 -1.35 0 -3.25 0.35 -4.20 0.80 -3.90 1.90 -5.40 6.45 -2.90 8.95 1.45 1.45 2.10 1.55 4.45 0.40 1.80 -0.85 3 -3 2.50 -4.40 -0.40 -1 -0.70 -0.95 -2.25 0.55 -2.25 2.15 -3.40 0.50 -1.40 -2 0.70 -0.90 1.50 -1.30 2.50 -1.30 1.25 0 1.65 0.30 2.25 1.85 1.55 3.70 0.10 6.35 -6.05 10.90 -4.60 3.40 -5.95 5.85 -6 11.10 0 3.25 0.15 3.75 1.50 5.45 2.15 2.60 4.55 3.80 6.95 3.45 4.30 -0.65 6.30 -2.95 6.30 -7.25 0 -2.60 -0.65 -3.80 -2.55 -4.75 -2.60 -1.35 -5.45 0.25 -5.45 3 0 1.70 1.25 3.25 2 2.45 0.20 -0.25 0.50 -1.10 0.60 -1.95 0.10 -1.20 0.40 -1.50 1.40 -1.50 1.15 0 1.25 0.20 1.40 2.55 0.20 3.40 -1.15 5.20 -3.85 5.20 -3.90 0 -6.25 -5.10 -4.25 -9.30 l0.80 -1.70 10.95 0 c6 0 11 0.15 11.10 0.40 0.15 0.20 0.05 7.20 -0.20 15.60 -0.25 8.40 -0.50 18.95 -0.60 23.50 l-0.10 8.25 1.65 3.85 c2.20 5 4.05 7.55 7 9.40 2.10 1.30 2.80 1.50 6.35 1.50 4.85 0 7.30 -1 9.85 -3.95 0.95 -1.10 2 -2.05 2.30 -2.05 0.30 0 1 0.85 1.55 1.90 0.95 1.90 3.30 4.25 5.85 5.95 3.10 2 8.75 1.85 13.50 -0.30z"/>
  <path d="M64.25 129.80 c-2.55 -0.95 -4.70 -3.40 -6.20 -7.15 -2.10 -5.10 -2.80 -5.30 -4.95 -1.50 -3.25 5.70 -7.70 7.95 -12.50 6.20 -3.10 -1.20 -4.90 -2.75 -6.30 -5.60 -2.70 -5.60 -2.75 -6.20 -1.80 -36.25 0.30 -8.90 0.70 -16.40 0.95 -16.65 0.20 -0.20 7.75 -0.25 16.70 -0.05 l16.35 0.35 0 5.70 0 5.70 -2.25 2.05 c-3.65 3.30 -3.50 3.40 6.75 3.40 6.10 0 9 -0.15 9 -0.55 0 -0.30 -1.25 -1.85 -2.75 -3.45 l-2.80 -2.90 0.15 -4.90 0.15 -4.95 16 0.20 c8.80 0.10 16.15 0.30 16.35 0.50 0.65 0.60 -1.35 48.20 -2.15 51.15 -0.60 2.35 -2.70 4.85 -4.80 5.70 -2.10 0.90 -6.35 0.90 -8.10 0 -1.95 -1.05 -4.45 -4 -5.60 -6.65 -0.85 -2.05 -1.05 -2.20 -2.55 -2.05 -1.50 0.15 -1.65 0.30 -2.40 3.45 -1.55 6.15 -4.60 8.55 -11.25 8.80 -2.65 0.10 -4.70 -0.10 -6 -0.55z m9.95 -6.85 c3 -3.50 1.95 -6.95 -2.70 -8.80 -2.85 -1.10 -4.50 -2.95 -4.50 -4.95 0 -0.60 0.35 -1.25 0.80 -1.40 1.35 -0.50 3.55 -0.35 4.15 0.35 0.65 0.80 0.25 1.35 -1 1.35 -2.35 0 -1.40 2.20 1.20 2.80 1.30 0.25 1.75 0.10 2.70 -1 1.30 -1.50 1.40 -2.20 0.60 -3.95 -0.70 -1.55 -2.40 -2.35 -4.95 -2.35 -3.85 0 -6.75 1.95 -7.30 4.85 -0.40 2.15 0.60 3.35 4.45 5.15 3.75 1.80 4.35 2.35 4.35 4.05 0 2.40 -2.45 3.75 -4.45 2.50 -0.70 -0.45 -0.55 -1.10 0.55 -2.65 0.45 -0.65 0.45 -1 -0.10 -1.65 -0.95 -1.15 -3.10 -0.75 -3.95 0.80 -1.60 2.90 1.95 6.40 6.55 6.45 2 0 2.50 -0.20 3.60 -1.55z m-30.75 -0.50 c4.30 -1.50 3.90 -7.75 -0.65 -9.65 -3.10 -1.30 -4.15 -3.40 -2.50 -5 1 -1 3.40 -1.05 4.20 -0.05 0.90 1.05 0.20 1.60 -1.05 0.85 -1.20 -0.75 -1.95 -0.40 -1.95 0.90 0 1.05 2.30 2.50 3.95 2.50 1.35 0 2.70 -2.55 2.25 -4.25 -0.50 -2 -2.95 -3.75 -5.25 -3.75 -4.85 0 -8.35 4.40 -6.45 8.05 0.55 1 3.40 2.60 5.60 3.15 1.90 0.45 2.65 1.95 1.80 3.70 -0.75 1.50 -2.95 2.10 -4.15 1.10 -0.90 -0.75 -0.50 -1.50 0.80 -1.50 0.60 0 0.95 -0.35 0.95 -0.90 0 -1.35 -1 -2.10 -2.75 -2.10 -1.95 0 -2.75 0.80 -2.75 2.75 0.05 3.60 3.85 5.60 7.95 4.20z m56.75 -1.50 c4.05 -3.15 2.90 -6.65 -2.60 -7.90 -2.75 -0.60 -4.10 -1.80 -4.10 -3.60 0 -2.40 3.05 -3.30 4.75 -1.45 0.70 0.80 0.80 1.15 0.35 1.60 -0.45 0.45 -0.75 0.45 -1.20 0 -0.90 -0.90 -1.90 -0.75 -1.90 0.30 0 0.55 0.55 1.20 1.25 1.50 4.05 1.85 6.45 -1.80 3.30 -4.95 -1.20 -1.20 -1.90 -1.45 -3.80 -1.45 -2 0 -2.60 0.25 -4.05 1.70 -2.10 2.10 -2.20 3.90 -0.40 6.55 l1.25 1.85 -1.05 1 c-3.65 3.40 4.15 8.05 8.20 4.85z"/>
  <path d="M95.50 119.50 l-1.25 -0.30 1.20 -0.30 c1 -0.30 1.15 -0.60 0.95 -1.85 -0.20 -1.35 -0.05 -1.55 0.90 -1.55 0.65 0 1.50 0.50 1.90 1.10 1.40 2 -0.65 3.65 -3.70 2.90z"/>
  <path d="M86.15 65.10 c-12.75 -0.15 -12 0.25 -11.40 -5.25 0.35 -3.05 0.40 -3.20 3.05 -5.40 1.50 -1.20 2.70 -2.35 2.70 -2.50 0 -0.40 -9.20 -0.95 -15.35 -0.95 -3.40 0 -4.65 0.15 -4.60 0.65 0 0.30 1.50 1.80 3.30 3.30 l3.25 2.70 -0.20 3.40 c-0.10 1.85 -0.30 3.50 -0.45 3.65 -0.15 0.15 -7.65 0.10 -16.65 -0.10 l-16.45 -0.35 0.10 -8.75 c0.15 -15.90 1.10 -40.70 1.65 -42.45 0.70 -2.30 3.60 -5.40 5.70 -6.05 1.35 -0.45 2.35 -0.45 4.35 0 4.80 1.15 6.85 2.85 7.85 6.50 1.05 3.85 3.45 3.90 4.10 0 0.95 -5.40 5.35 -9.50 10.35 -9.50 6.70 0 11.55 2.85 14.10 8.20 0.80 1.70 1.45 3.30 1.45 3.60 0 0.30 0.35 0.90 0.80 1.25 0.70 0.60 0.95 0.50 1.65 -0.50 1.80 -2.60 5.30 -6.10 7.50 -7.55 1.95 -1.20 2.90 -1.50 5.20 -1.50 1.55 0 3.35 0.20 4 0.45 2.10 0.80 4.85 3.60 6.20 6.25 1.30 2.50 1.30 2.65 1 10.55 -0.20 4.40 -0.55 14.85 -0.85 23.25 -0.30 8.40 -0.65 15.75 -0.80 16.40 -0.25 1.15 -0.35 1.15 -5.35 1 -2.80 -0.10 -10.10 -0.20 -16.20 -0.30z m-41.55 -35.60 c2.30 -0.65 3.40 -2.15 3.40 -4.60 0 -2.20 -0.95 -3.35 -4 -4.90 -1.25 -0.65 -2.35 -1.70 -2.85 -2.75 -0.75 -1.55 -0.75 -1.80 0 -2.90 0.95 -1.50 2.40 -1.90 3.95 -1.15 1.35 0.70 1.95 3.30 0.70 3.30 -0.40 0 -0.90 -0.20 -1.05 -0.50 -0.55 -0.90 -1.25 -0.55 -1.25 0.65 0 2.45 2.85 3.15 5.20 1.30 1.90 -1.50 1.75 -3.60 -0.40 -5.75 -1.40 -1.40 -2.10 -1.70 -3.75 -1.70 -2.20 0 -4.90 1.10 -5.90 2.45 -0.35 0.45 -0.65 1.75 -0.65 2.90 0 2.35 1.40 4.40 4.25 6.15 1.75 1.10 2.25 2.65 1.45 4.70 -0.45 1.15 -3.05 1.05 -3.65 -0.15 -0.70 -1.25 -0.25 -1.55 1.55 -1.20 1.25 0.25 1.45 0.15 1.30 -0.65 -0.05 -0.50 -0.90 -1.35 -1.85 -1.90 l-1.70 -1 -0.95 1.20 c-1.30 1.60 -0.90 4.35 0.85 5.90 1.45 1.20 2.60 1.35 5.35 0.60z m55.65 -1.15 c1.85 -1.05 2 -1.30 2.15 -3.55 0.20 -2.85 -0.55 -3.90 -3.40 -4.75 -2.20 -0.65 -3.50 -2.15 -3.50 -4 0 -1.55 1.35 -3.05 2.65 -3.05 1.20 0 3.35 1.85 3.35 2.85 0 0.75 -1.30 0.90 -1.75 0.15 -0.50 -0.85 -1.75 -0.55 -1.75 0.40 0 1.45 1.75 2.75 3.20 2.40 3 -0.75 3.85 -4.30 1.55 -6.55 -1 -1.05 -1.70 -1.25 -3.95 -1.25 -2.35 0 -3 0.20 -4.50 1.55 -1.95 1.70 -2.75 4.30 -1.90 6.20 0.35 0.70 1.45 1.50 2.95 2.05 1.30 0.45 2.80 1.20 3.30 1.65 1.10 0.95 0.95 3.45 -0.25 4.25 -1.15 0.70 -3.60 -0.15 -3.80 -1.35 -0.15 -0.70 0.05 -0.85 1.10 -0.55 1.70 0.40 2.45 -0.10 1.80 -1.30 -0.75 -1.35 -3.25 -1.75 -4.85 -0.75 -1.10 0.75 -1.25 1.10 -1 2.90 0.20 1.30 0.70 2.45 1.35 2.95 1.55 1.25 4.80 1.15 7.25 -0.25z m-28.75 -0.60 c0.75 -0.40 1.90 -1.35 2.45 -2.05 2.05 -2.65 1.10 -5.40 -2.60 -7.50 -1.40 -0.80 -2.90 -2.05 -3.30 -2.75 -0.90 -1.65 -0.40 -3.70 1.20 -4.75 1.05 -0.65 1.40 -0.70 2.60 -0.10 0.80 0.35 1.45 1.15 1.55 1.80 0.20 1.25 -0.65 1.50 -1.10 0.35 -0.50 -1.30 -1.80 -0.90 -1.80 0.60 0 1.75 1.35 3.15 3.05 3.15 3.55 0 3.90 -4.20 0.65 -7.25 -1.65 -1.55 -4.30 -1.65 -6.55 -0.25 -2.20 1.30 -2.70 2.55 -2.55 5.90 0.15 2.60 0.30 2.90 1.80 3.85 0.95 0.55 2.40 1.60 3.25 2.30 1.40 1.20 1.55 1.50 1.10 2.75 -0.85 2.40 -5.25 2.30 -5.25 -0.05 0 -1.45 0.80 -1.60 2.10 -0.45 0.80 0.80 0.90 0.75 1.20 -0.05 0.55 -1.40 -0.50 -2.50 -2.45 -2.65 -3.35 -0.30 -4.55 3.75 -1.90 6.45 1.70 1.65 4.15 1.95 6.55 0.70z"/>
 </g>
</svg>