<?xml version="1.0" encoding="utf-8"?>
<!DOCTYPE svg PUBLIC "-//W3C//DTD SVG 1.0//EN" "http://www.w3.org/TR/2001/REC-SVG-20010904/DTD/svg10.dtd">
<svg version="1.0" xmlns="http://www.w3.org/2000/svg" width="159px" height="112px" viewBox="0 0 159 112" preserveAspectRatio="xMidYMid meet">
 <g fill="#000000">
  <path d="M30.35 110.50 c-0.80 -0.25 -2.65 -1.35 -4.20 -2.50 -3.65 -2.80 -5.15 -6 -5.50 -11.65 -0.20 -2.95 -0.05 -4.95 0.60 -7.10 1.50 -5.45 1.50 -5.25 0.10 -5.25 -0.70 0 -1.50 0.30 -1.70 0.70 -0.20 0.40 -1.25 1.20 -2.30 1.80 -1.50 0.90 -2.40 1.10 -4.65 0.90 -4.25 -0.35 -7.10 -3 -7.55 -7.05 -0.35 -3 0.55 -5.50 2.60 -7.30 4.50 -3.90 10.60 -2.75 13.25 2.50 0.75 1.45 1.35 1.95 2.20 1.95 1.05 0 1.40 -0.45 2.30 -2.85 0.95 -2.45 1.05 -3.60 0.85 -7.40 -0.15 -2.55 -0.65 -5.70 -1.20 -7.25 l-0.95 -2.75 -4.25 -0.35 c-2.30 -0.15 -6.05 -0.30 -8.30 -0.35 l-4.05 -0.05 -2.30 -2.60 c-3.45 -3.95 -4.50 -6.40 -4.15 -9.70 0.35 -3.60 1.65 -5.70 4.40 -7.15 3.95 -2.10 7.75 -0.45 8.95 3.90 0.80 3.05 -0.05 5.65 -2.55 7.65 -2 1.60 -2 1.65 -0.85 1.95 1.25 0.40 9.40 0.60 9.40 0.25 0 -0.10 -0.70 -1.60 -1.55 -3.30 -2.05 -4.15 -2.95 -7.25 -2.95 -10.20 0 -2.65 1.15 -7.70 2.30 -9.95 1.10 -2.05 4.15 -5.30 6.30 -6.70 2.05 -1.25 2.35 -2.15 1.05 -3.20 -1.25 -1.10 -2.65 -4.50 -2.65 -6.65 0 -3 1.75 -6.15 4.45 -7.90 2.05 -1.30 2.65 -1.45 5.65 -1.30 2.85 0.15 3.65 0.40 5.25 1.70 2.75 2.25 3.70 4.15 3.70 7.50 0 2.30 -0.25 3.30 -1.50 5.30 -0.85 1.35 -1.55 2.55 -1.55 2.60 0 0.10 0.95 0.45 2.15 0.80 2.15 0.65 5.95 2.60 7.45 3.90 0.80 0.65 1.20 0.50 4.35 -1.65 l3.45 -2.35 -1.55 -2.25 c-1.45 -2 -1.60 -2.60 -1.60 -5.90 0 -3.35 0.15 -3.85 1.55 -5.60 4.80 -6.05 13.60 -5.25 16.75 1.60 1.80 3.85 0.95 8.45 -2.05 11.20 l-1.55 1.40 2 1.30 c1.10 0.75 2.55 2.25 3.15 3.35 0.65 1.10 1.40 2 1.65 2 0.30 0 1 -0.90 1.60 -1.95 1.10 -1.95 5.25 -4.55 7.20 -4.55 1.25 0 1.60 -0.75 0.65 -1.55 -1.55 -1.25 -2.90 -4.65 -2.90 -7.20 0 -10.70 14.80 -13.50 18.95 -3.65 1.60 3.85 0.45 8.30 -2.90 11.25 l-1.85 1.60 1.60 0.85 c0.90 0.45 2.35 1.40 3.25 2.05 l1.60 1.20 3.90 -2.25 c2.10 -1.25 4.30 -2.30 4.75 -2.30 1.20 0 1.15 -0.75 -0.20 -2.50 -1.65 -2.25 -1.80 -6.65 -0.30 -9.20 2.75 -4.70 7.80 -6.50 12.50 -4.40 4.80 2.10 7.05 8.15 4.75 12.85 -0.25 0.55 -1.25 1.80 -2.20 2.80 l-1.70 1.80 2.20 1.30 c2.80 1.65 4.70 3.85 7.40 8.45 3.20 5.45 4.05 8.65 4.20 15.40 l0.10 5.75 3.35 0.15 c3 0.15 3.30 0.05 3.30 -0.85 0 -0.55 -0.25 -1.15 -0.55 -1.35 -0.35 -0.20 -0.50 -1.35 -0.35 -3.05 0.20 -2.20 0.55 -3 1.95 -4.45 2.40 -2.45 4.80 -3.10 7.65 -2 3.25 1.25 4.80 3.30 4.80 6.25 0 3.50 -1.35 6.85 -3.75 9.35 l-2.10 2.20 -7 0 -7.05 0 -0.30 4.90 c-0.70 11.10 -0.70 12.10 -0.25 12.10 0.25 0 1.15 -0.50 1.95 -1.10 1 -0.75 2.45 -1.15 4.35 -1.30 2.45 -0.15 3.20 0 4.65 1 2.80 1.90 4 4.10 4 7.35 0 3.30 -1.15 5.55 -3.60 7.05 -3.50 2.15 -7.45 1.75 -10.60 -1 -0.90 -0.85 -1.80 -1.50 -1.95 -1.50 -0.10 0 -0.40 1.05 -0.60 2.40 -0.75 4.90 -5.50 13.90 -9.15 17.20 -4 3.65 -9.45 5.20 -12.65 3.70 -6.70 -3.15 -9.25 -9.35 -6.35 -15.05 1.50 -2.85 3 -4.45 5.05 -5.20 3.35 -1.30 7.30 -0.05 8.40 2.55 1.40 3.35 0 9.90 -2.15 10.30 -0.80 0.15 -0.85 -0.10 -0.60 -2.10 0.40 -2.80 0 -4.50 -1.40 -5.80 -1.50 -1.40 -3.10 -1.25 -4.35 0.35 -1.60 1.95 -1.80 3.50 -0.85 6.50 0.95 2.95 2.90 4.65 5.30 4.65 3.50 -0.05 8.10 -3.90 10.30 -8.70 1.40 -3.10 3.50 -10.15 3.15 -10.55 -0.50 -0.50 -99.45 -2.55 -100.65 -2.10 -1 0.40 -3.75 6.50 -4.35 9.60 -1.35 7.45 2.45 13.30 8.75 13.45 2.05 0.05 2.95 -0.20 3.80 -0.95 1.75 -1.55 3 -4.70 3 -7.60 0 -3.05 -0.80 -3.80 -4.40 -4.35 -4.35 -0.65 -5.95 0.85 -6.45 6 -0.20 1.75 -0.50 2.70 -0.95 2.70 -1.10 0 -1.70 -1.75 -1.70 -4.90 0 -2.45 0.25 -3.30 1.45 -4.95 0.80 -1.10 2.30 -2.40 3.30 -2.85 3.95 -1.90 9.90 0 12.25 3.85 1.10 1.80 1.40 7.75 0.50 10.05 -0.80 2.20 -4.45 5.75 -6.45 6.30 -2.15 0.60 -5.75 0.60 -7.70 0z m117.05 -25.80 c0.75 -0.90 1.10 -1.90 1.10 -3.45 0 -1.80 -0.25 -2.35 -1.55 -3.45 -2.15 -1.80 -4.55 -1.75 -6.50 0.15 -2.50 2.50 -1.85 6.45 1.20 7.85 2.10 0.90 4.35 0.50 5.75 -1.10z m-130.45 -1.50 c2.95 -2.45 2.35 -7.20 -1.10 -8.85 -0.95 -0.45 -2.10 -0.85 -2.60 -0.85 -1.25 0 -3.60 1.35 -4.45 2.60 -0.95 1.35 -1 4.20 -0.10 5.85 1.55 2.75 5.70 3.40 8.25 1.25z m114.25 -14.70 c0.20 -5.20 0.25 -9.70 0.05 -10 -0.20 -0.30 -3 -0.50 -7.30 -0.50 l-6.95 0 0.30 2.65 c0.60 4.95 -2.30 9.05 -7.30 10.40 -6.30 1.65 -12.60 -4.50 -11.15 -10.85 l0.50 -2.10 -1.80 -0.30 c-1 -0.15 -3.35 -0.30 -5.25 -0.30 l-3.40 0 0.35 1.40 c1.20 4.90 0.85 7.35 -1.40 9.95 -3.50 3.95 -9.25 4.30 -13 0.75 -0.80 -0.75 -1.75 -1.95 -2.15 -2.70 -0.90 -1.75 -0.90 -5.45 0 -7.65 l0.75 -1.75 -5.40 0 -5.45 0 0.25 3.15 c0.20 2.60 0.05 3.45 -0.95 5.30 -2.05 3.80 -6.65 5.50 -10.55 3.85 -1.95 -0.80 -4.70 -3.80 -5.15 -5.60 -0.30 -1.15 -0.10 -4.30 0.35 -6.20 0.15 -0.65 -1.05 -0.75 -8.50 -0.90 l-8.65 -0.10 0.30 1.10 c1.70 5.85 2.20 11.90 1.35 17 -0.20 1.35 -0.30 2.50 -0.15 2.65 0.15 0.15 22.70 0.25 50.10 0.25 l49.85 0 0.35 -9.50z m-46.50 -1.05 c2.90 -2.50 2.90 -6.25 0.10 -8.90 -3.55 -3.30 -9.80 -0.45 -9.80 4.45 0 5.20 5.80 7.90 9.70 4.45z m26.25 0.15 c2.95 -1.60 4.35 -5.60 3 -8.25 -0.90 -1.70 -1.40 -1.85 -6.30 -1.85 -4.60 0 -4.65 0 -5.40 1.50 -2.20 4.25 0.90 9.40 5.75 9.50 0.70 0 2.05 -0.40 2.95 -0.90z m-53.70 -0.40 c2.25 -1.05 3.50 -3.50 3.10 -6.25 -0.40 -3.15 -1.60 -3.95 -6.10 -3.95 -4.30 0 -5.25 0.70 -5.60 4.20 -0.30 2.65 0.55 4.30 3 5.80 1.95 1.20 3.40 1.25 5.60 0.20z m94.60 -14.80 c2.60 -2.85 2.95 -6.20 0.85 -7.85 -1.80 -1.40 -3 -1.30 -4.75 0.40 -1.95 1.95 -2 4.80 -0.15 7 1.55 1.85 2.65 1.95 4.05 0.45z m-51.60 -0.90 c0.15 -0.30 -0.15 -1.15 -0.75 -1.95 -2.90 -4.10 -3.70 -11.15 -2 -17.45 1 -3.75 1.05 -4.20 0.35 -5.30 -1.25 -1.90 -3.95 -2.85 -8.25 -2.90 -6.40 0 -10.85 2.25 -12.70 6.55 -1.65 3.75 -3.40 10.10 -3.40 12.15 0 4.15 3.55 8.40 7 8.40 2.70 0 3.35 -0.35 5.30 -2.90 1.40 -1.85 1.70 -2.70 1.70 -4.60 0 -2.95 -1.10 -4.45 -3.60 -4.85 -1.60 -0.25 -2.05 -0.05 -3.40 1.25 -1.30 1.30 -1.50 1.90 -1.50 4.10 0 2.40 -0.10 2.55 -0.85 1.95 -1.40 -1.20 -2.15 -3.65 -1.65 -5.45 1.25 -4.30 7.05 -6.80 10.95 -4.75 2 1 3.80 4.85 3.80 8 0 2 -0.35 3 -1.60 4.90 -0.90 1.30 -1.65 2.50 -1.65 2.60 0 0.10 1.85 0.30 4.15 0.40 2.25 0.05 4.95 0.20 5.95 0.25 1 0.05 2 -0.15 2.15 -0.40z m10.90 -2.65 c2.45 -4.10 2.40 -6.80 -0.10 -7.85 -1.80 -0.75 -3.20 -0.10 -4.30 2 -0.60 1.15 -0.65 1.70 -0.15 2.75 1.15 2.50 -1 2.10 -2.60 -0.50 -1.20 -1.95 -1.25 -3.75 -0.25 -5.75 1.15 -2.20 2.65 -3 5.65 -3 3 0 5.05 0.85 6.55 2.80 1.55 2 1.50 7.25 -0.20 10.40 l-1.20 2.30 8.75 0 8.80 0 -0.20 -6.35 c-0.20 -5.60 -0.40 -6.85 -1.65 -9.90 -4.25 -10.30 -16.90 -14.60 -23.50 -8.05 -1.15 1.15 -2.90 3.75 -3.90 5.75 -1.60 3.20 -1.85 4.15 -1.85 7.15 0 6.60 4.40 12.50 8.05 10.80 0.45 -0.20 1.40 -1.35 2.10 -2.55z m-38.30 1.05 c-3.05 -4.10 -3.55 -7.40 -2.05 -14 1 -4.25 0.70 -6.85 -0.95 -9.40 -4.65 -6.95 -16.40 -4.25 -20.40 4.75 -1.20 2.75 -2.10 8.50 -1.70 11.25 0.45 2.95 1.30 4.50 3.50 6.45 1.55 1.35 2.15 1.55 4.50 1.55 3.10 0 4.05 -0.65 5.75 -3.95 1.20 -2.40 1.30 -5.40 0.20 -6.95 -0.85 -1.25 -2.90 -1.45 -4.90 -0.55 -1.60 0.75 -3 3.65 -2.60 5.50 0.35 1.90 -0.30 1.85 -1.95 -0.15 -1.10 -1.25 -1.30 -1.95 -1.05 -3.30 0.35 -2.25 2.55 -5.05 4.60 -5.90 4.15 -1.75 8.05 -0.20 10.10 3.90 1.65 3.30 1.65 6.10 -0.05 9.35 -0.75 1.45 -1.35 2.75 -1.35 2.85 0 0.10 2.15 0.20 4.80 0.20 l4.75 0 -1.20 -1.60z m-24.85 0.65 c0 -0.25 -0.35 -0.70 -0.80 -1.10 -1.25 -1.05 -2 -2.90 -3.15 -7.80 -1 -4.40 -1.05 -4.80 -0.30 -8.25 1.45 -6.65 1.45 -6.55 0.15 -7.70 -1.90 -1.70 -5.40 -2.75 -10.25 -3.05 -5.50 -0.35 -6.95 0.10 -9.45 3 -2.25 2.70 -3.70 7.35 -3.70 12.10 0 3.15 0.25 4.10 1.65 6.80 2.15 4.25 4 5.45 8.15 5.45 2.60 0 3.35 -0.20 4.60 -1.25 2.85 -2.40 2.30 -6.45 -1.20 -8.10 -2.50 -1.20 -4.40 -0.45 -4.60 1.80 -0.10 1 0.15 2 0.65 2.55 1.15 1.25 0.15 1.70 -1.70 0.75 -3 -1.50 -3.45 -4.90 -1.10 -7.30 1.35 -1.30 1.80 -1.45 4.80 -1.45 4.10 0 6.50 1.20 8.40 4.15 1.70 2.55 1.70 4.55 0.10 7.55 l-1.20 2.30 4.45 0 c2.50 0 4.50 -0.20 4.50 -0.45z m-38.75 -3.15 c2.75 -3.30 3.05 -6.30 0.70 -8 -1.25 -0.95 -1.40 -0.95 -2.85 -0.20 -2 1.05 -2.60 2.20 -2.60 4.90 0 2.10 1.50 5.40 2.45 5.40 0.25 0 1.30 -0.95 2.30 -2.10z m113.15 -30.50 c2.65 -2.20 2.35 -7.15 -0.55 -8.90 -3.85 -2.35 -8.20 -0.30 -8.70 4.05 -0.20 1.90 -0.05 2.50 1.10 3.85 2.10 2.50 5.80 2.95 8.15 1z m-55.90 -0.30 c1.75 -1.30 2.50 -2.95 2.50 -5.55 0 -1.85 -0.25 -2.45 -1.95 -4.10 -2.80 -2.80 -5.80 -2.80 -8.60 0 -1.65 1.65 -1.95 2.25 -1.95 4.10 0 5.55 5.70 8.70 10 5.55z m-31 -0.35 c2.10 -1.10 3 -2.65 3 -5.30 0 -6.40 -8.35 -8.55 -11.30 -2.90 -1.30 2.60 -0.90 4.85 1.25 7 2.15 2.20 4.40 2.55 7.05 1.20z m58.85 -0.25 c3.30 -2 3.30 -7.50 -0.05 -9.55 -2.50 -1.55 -5.10 -1.25 -7.10 0.75 -1.45 1.45 -1.70 2.05 -1.70 4.05 0 2 0.25 2.60 1.70 4.05 2 2 4.60 2.30 7.15 0.70z"/>
 </g>
 <g fill="#ffffff">
  <path d="M0 56 l0 -56 79.50 0 79.50 0 0 56 0 56 -79.50 0 -79.50 0 0 -56z m38.05 54.50 c2 -0.55 5.65 -4.10 6.45 -6.30 0.90 -2.30 0.60 -8.25 -0.50 -10.05 -2.35 -3.85 -8.30 -5.75 -12.25 -3.85 -1 0.45 -2.50 1.75 -3.30 2.85 -1.20 1.65 -1.45 2.50 -1.45 4.95 0 3.15 0.60 4.90 1.70 4.90 0.45 0 0.75 -0.95 0.95 -2.70 0.35 -3.40 1.45 -5.60 3.05 -6 1.70 -0.40 5.25 0.15 6.70 1 2.20 1.40 1.05 8.35 -1.90 10.95 -0.85 0.75 -1.75 1 -3.80 0.95 -6.30 -0.15 -10.10 -6 -8.75 -13.45 0.60 -3.10 3.35 -9.20 4.35 -9.60 1.20 -0.45 100.15 1.60 100.65 2.10 0.35 0.40 -1.75 7.45 -3.15 10.55 -2.20 4.80 -6.80 8.65 -10.30 8.70 -2.40 0 -4.35 -1.70 -5.30 -4.65 -0.95 -3 -0.75 -4.55 0.85 -6.50 1.25 -1.60 2.85 -1.75 4.35 -0.35 1.40 1.30 1.80 3 1.40 5.80 -0.25 2 -0.20 2.25 0.60 2.10 2.15 -0.40 3.55 -6.95 2.15 -10.30 -1.10 -2.60 -5.05 -3.85 -8.40 -2.55 -2.05 0.75 -3.55 2.35 -5.05 5.20 -2.90 5.70 -0.35 11.90 6.35 15.05 3.20 1.50 8.65 -0.05 12.65 -3.70 3.65 -3.30 8.40 -12.30 9.15 -17.20 0.20 -1.35 0.50 -2.40 0.60 -2.40 0.15 0 1.05 0.65 1.95 1.50 3.15 2.75 7.10 3.15 10.60 1 2.45 -1.50 3.60 -3.75 3.60 -7.05 0 -3.25 -1.20 -5.45 -4 -7.35 -1.45 -1 -2.20 -1.15 -4.65 -1 -1.90 0.15 -3.35 0.55 -4.35 1.30 -2.65 2 -2.55 2.70 -1.70 -11 l0.30 -4.90 7.05 0 7 0 2.10 -2.20 c2.40 -2.50 3.75 -5.85 3.75 -9.35 0 -2.95 -1.55 -5 -4.80 -6.25 -2.85 -1.10 -5.25 -0.45 -7.65 2 -1.40 1.45 -1.75 2.25 -1.95 4.45 -0.15 1.70 0 2.85 0.35 3.05 0.30 0.20 0.55 0.80 0.55 1.35 0 0.90 -0.30 1 -3.30 0.85 l-3.35 -0.15 -0.10 -5.75 c-0.15 -6.75 -1 -9.95 -4.20 -15.40 -2.70 -4.60 -4.60 -6.80 -7.40 -8.45 l-2.20 -1.30 1.70 -1.80 c0.95 -1 1.95 -2.25 2.20 -2.80 2.30 -4.70 0.05 -10.75 -4.75 -12.85 -4.70 -2.10 -9.75 -0.30 -12.50 4.40 -1.50 2.55 -1.35 6.95 0.30 9.20 1.35 1.75 1.40 2.50 0.20 2.50 -0.45 0 -2.65 1.05 -4.75 2.30 l-3.90 2.25 -1.60 -1.20 c-0.90 -0.65 -2.35 -1.60 -3.25 -2.05 l-1.60 -0.85 1.85 -1.60 c7.30 -6.40 2.70 -17.95 -6.90 -17.25 -5.40 0.40 -9.15 4.35 -9.15 9.65 0 2.55 1.35 5.95 2.90 7.20 0.95 0.80 0.60 1.55 -0.65 1.55 -1.95 0 -6.10 2.60 -7.20 4.55 -0.60 1.05 -1.30 1.95 -1.60 1.95 -0.25 0 -1 -0.90 -1.65 -2 -0.60 -1.10 -2.05 -2.60 -3.15 -3.35 l-2 -1.30 1.55 -1.40 c3 -2.75 3.85 -7.35 2.05 -11.20 -3.15 -6.85 -11.95 -7.65 -16.75 -1.60 -1.40 1.75 -1.55 2.25 -1.55 5.60 0 3.30 0.15 3.90 1.60 5.90 l1.55 2.25 -3.45 2.35 c-3.15 2.15 -3.55 2.30 -4.35 1.65 -1.50 -1.30 -5.30 -3.25 -7.45 -3.90 -1.20 -0.35 -2.15 -0.70 -2.15 -0.80 0 -0.05 0.70 -1.25 1.55 -2.60 1.25 -2 1.50 -3 1.50 -5.30 0 -3.35 -0.95 -5.25 -3.70 -7.50 -1.60 -1.30 -2.40 -1.55 -5.25 -1.70 -3 -0.15 -3.60 0 -5.65 1.30 -2.70 1.75 -4.45 4.90 -4.45 7.90 0 2.15 1.40 5.55 2.65 6.65 1.30 1.05 1 1.95 -1.05 3.20 -2.15 1.40 -5.20 4.65 -6.30 6.70 -1.15 2.25 -2.30 7.30 -2.30 9.95 0 2.95 0.90 6.05 2.95 10.20 0.85 1.70 1.55 3.20 1.55 3.30 0 0.35 -8.15 0.15 -9.40 -0.25 -1.15 -0.30 -1.15 -0.35 0.85 -1.95 2.50 -2 3.35 -4.60 2.55 -7.65 -1.20 -4.35 -5 -6 -8.95 -3.90 -2.75 1.45 -4.05 3.55 -4.40 7.15 -0.35 3.30 0.70 5.75 4.15 9.70 l2.30 2.60 4.05 0.05 c2.25 0.05 6 0.20 8.30 0.35 l4.25 0.35 0.95 2.75 c0.55 1.55 1.05 4.70 1.20 7.25 0.20 3.80 0.10 4.95 -0.85 7.40 -0.90 2.40 -1.25 2.85 -2.30 2.85 -0.85 0 -1.45 -0.50 -2.20 -1.95 -1.85 -3.70 -5.95 -5.65 -9.60 -4.60 -7.05 2.15 -8.65 10.85 -2.75 15.25 2.05 1.55 6.35 1.70 8.70 0.30 1.05 -0.60 2.10 -1.40 2.30 -1.80 0.20 -0.40 1 -0.70 1.70 -0.70 1.40 0 1.40 -0.20 -0.10 5.25 -0.65 2.15 -0.80 4.15 -0.60 7.10 0.35 5.65 1.85 8.85 5.50 11.65 1.55 1.15 3.40 2.25 4.20 2.50 1.95 0.60 5.55 0.60 7.70 0z"/>
  <path d="M141.65 85.80 c-3.05 -1.40 -3.70 -5.35 -1.20 -7.85 1.95 -1.90 4.35 -1.95 6.50 -0.15 1.30 1.10 1.55 1.65 1.55 3.45 0 3.95 -3.30 6.10 -6.85 4.55z"/>
  <path d="M10.55 83.80 c-2.40 -1.35 -3.35 -5.40 -1.75 -7.70 0.85 -1.25 3.20 -2.60 4.45 -2.60 1.85 0 4.40 1.70 5.10 3.40 2.05 4.95 -3.10 9.50 -7.80 6.90z"/>
  <path d="M30.90 77.75 c-0.15 -0.15 -0.05 -1.30 0.15 -2.65 0.85 -5.10 0.35 -11.15 -1.35 -17 l-0.30 -1.10 8.65 0.10 c7.45 0.15 8.65 0.25 8.50 0.90 -0.45 1.90 -0.65 5.05 -0.35 6.20 0.45 1.80 3.20 4.80 5.15 5.60 3.90 1.65 8.50 -0.05 10.55 -3.85 1 -1.85 1.15 -2.70 0.95 -5.30 l-0.25 -3.15 5.45 0 5.40 0 -0.75 1.75 c-0.90 2.20 -0.90 5.90 0 7.65 3.10 5.90 10.80 6.90 15.15 1.95 2.25 -2.60 2.60 -5.05 1.40 -9.95 l-0.35 -1.40 3.40 0 c1.90 0 4.25 0.15 5.25 0.30 l1.80 0.30 -0.50 2.10 c-1.45 6.35 4.85 12.50 11.15 10.85 5 -1.35 7.90 -5.45 7.30 -10.40 l-0.30 -2.65 6.95 0 c4.30 0 7.10 0.20 7.30 0.50 0.20 0.30 0.15 4.80 -0.05 10 l-0.35 9.50 -49.85 0 c-27.40 0 -49.95 -0.10 -50.10 -0.25z"/>
  <path d="M77.90 68.20 c-4.05 -2.15 -3.70 -8.50 0.50 -10.50 6.25 -2.95 11.50 5.20 6.30 9.75 -1.95 1.75 -4.50 2.05 -6.80 0.75z"/>
  <path d="M105.15 67.75 c-3.15 -1.35 -4.55 -5.60 -2.90 -8.75 0.75 -1.50 0.80 -1.50 5.40 -1.50 4.90 0 5.40 0.15 6.30 1.85 1.35 2.65 -0.05 6.65 -3 8.25 -2 1.05 -3.60 1.10 -5.80 0.15z"/>
  <path d="M51.65 67 c-2.45 -1.50 -3.30 -3.15 -3 -5.80 0.35 -3.50 1.30 -4.20 5.60 -4.20 4.50 0 5.70 0.80 6.10 3.95 0.40 2.75 -0.85 5.20 -3.10 6.25 -2.20 1.05 -3.65 1 -5.60 -0.20z"/>
  <path d="M147.80 51.95 c-1.85 -2.20 -1.80 -5.05 0.15 -7 1.75 -1.70 2.95 -1.80 4.75 -0.40 2.10 1.65 1.75 5 -0.85 7.85 -1.40 1.50 -2.50 1.40 -4.05 -0.45z"/>
  <path d="M92.15 51.65 c-2.30 -0.10 -4.15 -0.30 -4.15 -0.40 0 -0.10 0.75 -1.30 1.65 -2.60 1.25 -1.90 1.60 -2.90 1.60 -4.90 0 -3.15 -1.80 -7 -3.80 -8 -2.80 -1.45 -7.25 -0.45 -9.60 2.15 -2.10 2.30 -1.95 6.15 0.30 8.05 0.75 0.60 0.85 0.45 0.85 -1.95 0 -2.20 0.20 -2.80 1.50 -4.10 1.35 -1.30 1.80 -1.50 3.40 -1.25 2.50 0.40 3.60 1.90 3.60 4.85 0 1.90 -0.30 2.75 -1.70 4.60 -1.95 2.55 -2.60 2.90 -5.30 2.90 -3.45 0 -7 -4.25 -7 -8.40 0 -2.05 1.75 -8.40 3.40 -12.15 1.85 -4.30 6.30 -6.55 12.70 -6.55 4.30 0.05 7 1 8.25 2.90 0.70 1.10 0.65 1.55 -0.35 5.30 -1.70 6.30 -0.90 13.35 2 17.45 1.35 1.80 0.95 2.50 -1.40 2.35 -1 -0.05 -3.70 -0.20 -5.95 -0.25z"/>
  <path d="M106.90 51.60 c-1.50 -0.20 -3.10 -2 -4.85 -5.45 -0.75 -1.55 -1.05 -3.05 -1.05 -5.55 0 -3 0.25 -3.95 1.85 -7.15 1 -2 2.75 -4.60 3.90 -5.75 6.60 -6.55 19.25 -2.25 23.50 8.05 1.25 3.05 1.45 4.30 1.65 9.90 l0.20 6.35 -8.80 0 -8.75 0 1.20 -2.30 c1.70 -3.15 1.75 -8.40 0.20 -10.40 -1.50 -1.95 -3.55 -2.80 -6.55 -2.80 -3 0 -4.50 0.80 -5.65 3 -1 2 -0.95 3.80 0.25 5.75 1.60 2.60 3.75 3 2.60 0.50 -0.50 -1.05 -0.45 -1.60 0.15 -2.75 1.10 -2.10 2.50 -2.75 4.30 -2 2.50 1.05 2.55 3.75 0.10 7.85 -1.40 2.45 -2.30 3 -4.25 2.75z"/>
  <path d="M64.50 51.30 c0 -0.10 0.60 -1.40 1.35 -2.85 1.70 -3.25 1.70 -6.05 0.05 -9.35 -2.05 -4.10 -5.95 -5.65 -10.10 -3.90 -2.05 0.85 -4.25 3.65 -4.60 5.90 -0.25 1.35 -0.05 2.05 1.05 3.30 1.65 2 2.30 2.05 1.95 0.15 -0.40 -1.85 1 -4.75 2.60 -5.50 2 -0.90 4.05 -0.70 4.90 0.55 1.10 1.55 1 4.55 -0.20 6.95 -1.70 3.30 -2.65 3.95 -5.75 3.95 -2.35 0 -2.95 -0.20 -4.50 -1.55 -2.20 -1.95 -3.05 -3.50 -3.50 -6.45 -0.40 -2.75 0.50 -8.50 1.70 -11.25 3.05 -6.90 11 -10.55 16.80 -7.75 2.70 1.30 4.70 4 5.10 6.90 0.15 1.05 -0.10 3.55 -0.55 5.50 -1.50 6.60 -1 9.90 2.05 14 l1.20 1.60 -4.75 0 c-2.65 0 -4.80 -0.10 -4.80 -0.20z"/>
  <path d="M40.25 48.70 c1.60 -3 1.60 -5 -0.10 -7.55 -1.90 -2.95 -4.30 -4.15 -8.40 -4.15 -3 0 -3.45 0.15 -4.80 1.45 -2.35 2.40 -1.90 5.80 1.10 7.30 1.85 0.95 2.85 0.50 1.70 -0.75 -0.50 -0.55 -0.75 -1.55 -0.65 -2.55 0.20 -2.25 2.10 -3 4.60 -1.80 3.50 1.65 4.05 5.70 1.20 8.10 -1.25 1.05 -2 1.25 -4.60 1.25 -4.15 0 -6 -1.20 -8.15 -5.45 -1.40 -2.70 -1.65 -3.65 -1.65 -6.80 0 -4.75 1.45 -9.40 3.70 -12.10 2.50 -2.90 3.95 -3.35 9.45 -3 4.85 0.30 8.35 1.35 10.25 3.05 1.30 1.15 1.30 1.05 -0.15 7.70 -0.75 3.45 -0.70 3.85 0.30 8.25 1.15 4.90 1.90 6.75 3.15 7.80 1.50 1.25 0.80 1.55 -3.70 1.55 l-4.45 0 1.20 -2.30z"/>
  <path d="M5.50 47.90 c-1.10 -1.80 -1.35 -5.35 -0.50 -6.95 0.30 -0.50 1.25 -1.30 2.10 -1.75 1.45 -0.75 1.60 -0.75 2.85 0.20 1.30 0.95 1.85 2.85 1.35 4.80 -0.30 1.25 -3.65 5.30 -4.35 5.30 -0.25 0 -0.90 -0.75 -1.45 -1.60z"/>
  <path d="M117.15 17.90 c-0.85 -0.20 -2.15 -1.15 -2.90 -2 -1.90 -2.20 -1.55 -5.50 0.70 -7.50 3.05 -2.70 8 -1.30 9.05 2.55 1.20 4.45 -2.45 8.15 -6.85 6.95z"/>
  <path d="M60.15 17.30 c-2.15 -1 -3.65 -3.50 -3.65 -6.25 0 -1.85 0.30 -2.45 1.95 -4.10 1.70 -1.70 2.20 -1.95 4.30 -1.95 2.10 0 2.60 0.25 4.30 1.95 1.70 1.65 1.95 2.25 1.95 4.10 0 1.20 -0.30 2.75 -0.65 3.40 -1.45 2.85 -5.30 4.15 -8.20 2.85z"/>
  <path d="M28.45 15.05 c-2.15 -2.15 -2.55 -4.40 -1.25 -7 2.95 -5.65 11.30 -3.50 11.30 2.90 0 3.70 -2.40 6.05 -6.30 6.05 -1.45 0 -2.20 -0.40 -3.75 -1.95z"/>
  <path d="M87.20 15.30 c-1.45 -1.45 -1.70 -2.05 -1.70 -4.05 0 -2 0.25 -2.60 1.70 -4.05 2 -2 4.60 -2.30 7.10 -0.75 3.35 2.05 3.35 7.55 0.05 9.55 -2.55 1.60 -5.15 1.30 -7.15 -0.70z"/>
 </g>
</svg>