<?xml version="1.0" encoding="utf-8"?>
<!DOCTYPE svg PUBLIC "-//W3C//DTD SVG 1.0//EN" "http://www.w3.org/TR/2001/REC-SVG-20010904/DTD/svg10.dtd">
<svg version="1.0" xmlns="http://www.w3.org/2000/svg" width="125px" height="124px" viewBox="0 0 125 124" preserveAspectRatio="xMidYMid meet">
 <g fill="#000000">
  <path d="M107.50 122.45 c-5.55 -2.20 -7.25 -10.35 -3.15 -15 0.80 -0.95 2.35 1.45 -19.30 -29.55 -7.55 -10.85 -7.10 -10.40 -10.65 -10.40 -1.60 0 -2.90 0.15 -2.90 0.40 0 0.20 0.90 0.85 1.95 1.45 2.95 1.70 5.05 5.20 5.05 8.45 0 2.35 -0.20 2.75 -1.85 4.40 -1.05 1 -2.65 2.05 -3.65 2.35 -2.35 0.80 -2.85 1.25 -3.95 3.65 -1.70 3.80 -5.70 6.75 -8.30 6.10 -2 -0.50 -5.25 -3.75 -6.70 -6.75 -1.05 -2.25 -1.65 -2.85 -3.35 -3.50 -2.40 -0.95 -4.30 -2.35 -5.10 -3.90 -0.80 -1.50 -0.75 -4.90 0.15 -6.60 0.85 -1.70 5.10 -5.55 6.10 -5.55 0.40 0 0.55 -0.20 0.40 -0.50 -0.15 -0.25 -1.65 -0.50 -3.25 -0.50 l-3 0 -5.10 6.90 c-8.20 11.05 -13.10 17.70 -14.70 19.90 -0.80 1.15 -2.95 4.15 -4.80 6.70 l-3.35 4.60 1.25 2.20 c1.70 2.90 1.80 6.75 0.20 9.60 -4.80 8.55 -17.70 5.40 -17.75 -4.35 0 -3.80 1.40 -6.35 4.50 -8.30 2.05 -1.30 2.85 -1.50 5.50 -1.40 3.70 0.10 3.35 0.35 8.95 -7.35 2.10 -2.90 5.10 -7 6.70 -9.20 1.55 -2.15 3.65 -5 4.60 -6.30 0.95 -1.30 3.90 -5.40 6.55 -9.05 7.05 -9.75 5.75 -8.90 13.15 -8.60 3.45 0.15 6.30 0.15 6.30 0 0 -0.15 -0.95 -1.35 -2.15 -2.60 -1.15 -1.30 -2.90 -3.50 -3.90 -4.95 l-1.75 -2.55 -8.05 -0.25 c-8.85 -0.30 -9.05 -0.35 -10.75 -3.70 -1.35 -2.65 -1.45 -6.55 -0.20 -8.90 l1 -1.80 -3.05 -3.45 c-1.70 -1.85 -4.90 -5.20 -7.10 -7.40 l-4.05 -3.95 -1.95 1.90 -1.95 1.90 -0.35 5.20 c-0.20 2.85 -0.45 5.20 -0.60 5.20 -0.50 0 -11.90 -12.15 -12.05 -12.80 -0.15 -0.55 0.90 -0.70 5.20 -0.70 4.95 0 5.50 -0.10 7.05 -1.30 0.90 -0.70 1.65 -1.50 1.65 -1.80 0 -0.25 -0.70 -1.40 -1.55 -2.45 l-1.55 -1.95 -5.45 0 c-3 0 -5.45 -0.20 -5.45 -0.45 0 -0.20 3.10 -3.40 6.90 -7 l6.85 -6.60 0.15 5.20 0.15 5.15 2.20 2.20 2.25 2.20 2.50 -2.45 2.50 -2.45 0 -5.40 c0 -2.95 0.20 -5.40 0.40 -5.40 0.20 0 3.25 3.05 6.80 6.75 l6.40 6.75 -5.50 0 -5.45 0 -2.35 2.05 c-1.30 1.15 -2.30 2.35 -2.20 2.70 0.10 0.40 3.40 4 7.40 8.10 l7.25 7.40 5.70 0.25 c3.10 0.15 5.85 0.15 6.05 0 0.20 -0.15 1 -1.60 1.75 -3.25 0.75 -1.65 2.15 -4.25 3.15 -5.75 1.95 -3.10 7.45 -9 8.35 -9 0.90 0 6.40 5.90 8.40 9.05 0.95 1.50 2.35 4.20 3.10 6 0.75 1.75 1.60 3.35 1.95 3.55 0.30 0.20 2.95 0.40 5.85 0.40 l5.30 0 7.85 -7.55 c4.30 -4.15 7.80 -7.80 7.75 -8.10 0 -0.35 -1.15 -1.55 -2.50 -2.70 l-2.50 -2.15 -4.95 0 c-2.75 0 -5 -0.15 -5 -0.40 0 -0.20 2.90 -3.25 6.50 -6.85 7.40 -7.40 7.35 -7.40 6.80 0 l-0.30 4.70 2.30 2.15 c1.25 1.20 2.50 2.25 2.80 2.35 0.25 0.10 1.35 -0.70 2.45 -1.75 l1.95 -1.90 0.05 -4.30 c0.05 -6.90 -0.15 -6.95 7.45 0.85 l6.75 6.90 -5.55 0.15 -5.55 0.15 -1.95 2 -1.95 2 1.80 1.65 c1.70 1.60 1.95 1.65 7.15 1.90 2.95 0.15 5.50 0.45 5.70 0.60 0.30 0.35 -11.85 12.80 -12.50 12.80 -0.25 0 -0.40 -2.30 -0.40 -5.15 l0 -5.15 -1.90 -1.85 c-1.05 -1 -2.10 -1.85 -2.35 -1.85 -0.30 0 -3.65 3 -7.50 6.70 l-7 6.70 0.75 1.65 c1.20 2.75 0.95 7.85 -0.45 10.15 -1.80 2.85 -3.05 3.20 -11.25 2.90 l-7.05 -0.25 -2.60 3.45 c-1.40 1.90 -3.25 4.10 -4.10 4.90 -0.85 0.80 -1.40 1.65 -1.25 1.90 0.15 0.20 3.05 0.40 6.45 0.40 l6.15 0 1.45 1.90 c0.80 1 3.10 4.35 5.15 7.35 2.05 3.05 5.65 8.25 8 11.60 2.35 3.35 5.50 7.90 7 10.10 1.50 2.25 3.85 5.55 5.15 7.35 2.40 3.25 2.45 3.25 4.35 2.95 7.15 -1.20 13.05 6.35 10.25 13.15 -0.95 2.15 -2.50 3.95 -4.35 4.90 -1.55 0.80 -6.55 0.90 -8.40 0.15z m7.55 -3.60 c3.65 -2.45 3.60 -7.75 0 -10.20 -3.50 -2.35 -8.15 -0.80 -9.50 3.15 -0.90 2.60 -0.45 4.40 1.70 6.55 1.35 1.35 2 1.65 3.90 1.65 1.45 0 2.75 -0.40 3.90 -1.15z m-99.45 -2.20 c4.85 -4.90 -1 -13.05 -7.15 -9.90 -3.45 1.80 -4.50 6.45 -2.10 9.25 1.70 2.05 2.90 2.55 5.60 2.30 1.55 -0.15 2.55 -0.60 3.65 -1.65z m43.80 -36.75 l-0.15 -9.15 -1.65 -0.15 c-3.75 -0.35 -9.10 3.30 -9.10 6.20 0 3.10 5.05 5.05 5.40 2.10 0.15 -1.20 0 -1.40 -1.10 -1.40 -1.75 0 -2.70 -1.80 -1.60 -2.90 1.30 -1.30 4.70 -1.10 5.85 0.35 1.20 1.45 1.25 5 0.15 7.15 -0.90 1.70 -0.65 3.85 0.55 5.75 1.55 2.35 1.75 1.30 1.65 -7.95z m6.20 8 c1.20 -1.90 1.40 -3.45 0.60 -5.30 -1.85 -4.45 -0.15 -8.60 3.50 -8.60 1.75 0 3.30 1.05 3.30 2.20 0 0.95 -1.10 1.80 -2.40 1.80 -1 0 -1.15 0.20 -1 1.40 0.20 1.90 2.20 2.10 4.05 0.40 1.55 -1.45 1.70 -2.80 0.50 -4.80 -1.50 -2.55 -7.25 -5 -9.25 -3.95 -0.80 0.45 -0.90 1.30 -0.90 9.20 0 4.80 0.20 8.75 0.45 8.75 0.25 0 0.75 -0.50 1.15 -1.10z m1.60 -31.90 c2.45 -2.75 2.35 -3.50 -0.45 -3.50 l-2.25 0 0 2.75 c0 1.50 0.20 2.75 0.45 2.75 0.25 0 1.25 -0.90 2.25 -2z m-7.70 -0.95 c0 -2.40 0 -2.40 -1.85 -2.70 -3.10 -0.50 -3.30 0.05 -1.10 3.05 2.10 2.85 2.95 2.75 2.95 -0.35z m12.25 -7.75 c0.65 -0.50 1 -1.50 1.15 -3.65 l0.20 -3.05 -3.65 -0.20 c-2.05 -0.15 -4 0 -4.30 0.25 -0.40 0.30 -0.65 1.70 -0.65 3.60 0 2.05 0.20 3.25 0.65 3.40 1.30 0.55 5.70 0.30 6.60 -0.35z m8.45 -0.15 c-0.05 -0.35 -0.10 -2 -0.10 -3.65 -0.10 -3 -0.10 -3 -1.60 -3 -1.35 0 -1.50 0.15 -1.50 1.65 0 0.85 -0.20 2.40 -0.50 3.35 -0.35 1.25 -0.35 1.80 0.15 2.10 0.90 0.60 3.60 0.25 3.55 -0.45z m8.75 -0.45 c1.45 -1.80 1.35 -4.25 -0.20 -5.90 -1.45 -1.55 -1.75 -1.60 -3.45 -0.25 -1.05 0.85 -1.30 1.45 -1.30 3.25 0 3.80 2.90 5.50 4.95 2.90z m-29.45 -2.95 l0 -3.75 -4.05 0 -4.05 0 0.20 3.30 c0.15 2.10 0.45 3.45 0.95 3.75 0.35 0.25 2.10 0.45 3.85 0.45 l3.10 0 0 -3.75z m-19.80 2.15 c0.45 -0.60 0.80 -1.90 0.80 -2.90 0 -2.40 -1.20 -4 -3 -4 -1.80 0 -3 1.60 -3 4 0 2.40 1.20 4 3 4 0.90 0 1.70 -0.40 2.20 -1.10z m8.10 -0.75 c-0.15 -1.05 -0.30 -2.65 -0.30 -3.50 0 -1.50 -0.15 -1.65 -1.60 -1.65 l-1.65 0 -0.05 3.50 -0.05 3.50 2 0 2 0 -0.35 -1.85z m23 -9.75 c0.60 -0.65 -4.45 -10.90 -5.40 -10.90 -0.35 0 -0.80 9.85 -0.45 10.95 0.15 0.50 0.90 0.60 2.85 0.45 1.50 -0.15 2.80 -0.35 3 -0.50z m-11.05 -1 c0.15 -0.65 0.25 -3.30 0.15 -5.90 l-0.15 -4.75 -1.15 1.25 c-1.50 1.60 -5.25 9.35 -4.85 10 0.15 0.30 1.55 0.50 3 0.50 2.40 0 2.75 -0.15 3 -1.10z"/>
 </g>
 <g fill="#ffffff">
  <path d="M0 62 l0 -62 62.50 0 62.50 0 0 62 0 62 -62.50 0 -62.50 0 0 -62z m115.90 60.30 c1.85 -0.95 3.40 -2.75 4.35 -4.90 2.80 -6.80 -3.10 -14.35 -10.25 -13.15 -1.90 0.30 -1.95 0.30 -4.35 -2.95 -1.30 -1.80 -3.65 -5.10 -5.15 -7.35 -1.50 -2.20 -4.65 -6.75 -7 -10.10 -2.35 -3.35 -5.95 -8.55 -8 -11.60 -2.05 -3 -4.35 -6.35 -5.15 -7.35 l-1.45 -1.90 -6.15 0 c-3.40 0 -6.30 -0.20 -6.45 -0.40 -0.15 -0.25 0.40 -1.10 1.25 -1.90 0.85 -0.80 2.70 -3 4.10 -4.90 l2.60 -3.45 7.05 0.25 c8.20 0.30 9.45 -0.05 11.25 -2.90 1.40 -2.30 1.65 -7.40 0.45 -10.15 l-0.75 -1.65 7 -6.70 c3.85 -3.70 7.20 -6.70 7.50 -6.70 0.25 0 1.30 0.85 2.35 1.85 l1.90 1.85 0 5.15 c0 2.85 0.15 5.15 0.40 5.15 0.65 0 12.80 -12.45 12.50 -12.80 -0.20 -0.15 -2.75 -0.45 -5.70 -0.60 -5.20 -0.25 -5.45 -0.30 -7.15 -1.90 l-1.80 -1.65 1.95 -2 1.95 -2 5.55 -0.15 5.55 -0.15 -6.75 -6.90 c-7.60 -7.80 -7.40 -7.75 -7.45 -0.85 l-0.05 4.30 -1.95 1.90 c-1.10 1.05 -2.20 1.85 -2.45 1.75 -0.30 -0.10 -1.55 -1.15 -2.80 -2.35 l-2.30 -2.15 0.30 -4.70 c0.55 -7.40 0.60 -7.40 -6.80 0 -3.60 3.60 -6.50 6.65 -6.50 6.85 0 0.25 2.25 0.40 5 0.40 l4.95 0 2.50 2.15 c1.35 1.15 2.50 2.35 2.50 2.70 0.05 0.30 -3.45 3.95 -7.75 8.10 l-7.85 7.55 -5.30 0 c-2.90 0 -5.55 -0.20 -5.85 -0.40 -0.35 -0.20 -1.20 -1.80 -1.95 -3.55 -0.75 -1.80 -2.15 -4.50 -3.10 -6 -2 -3.15 -7.50 -9.05 -8.40 -9.05 -0.90 0 -6.40 5.90 -8.35 9 -1 1.50 -2.40 4.10 -3.15 5.75 -0.75 1.65 -1.55 3.10 -1.75 3.25 -0.20 0.15 -2.95 0.15 -6.05 0 l-5.70 -0.25 -7.25 -7.40 c-4 -4.10 -7.30 -7.70 -7.40 -8.10 -0.10 -0.35 0.90 -1.55 2.20 -2.70 l2.35 -2.05 5.45 0 5.50 0 -6.40 -6.75 c-3.55 -3.70 -6.60 -6.75 -6.80 -6.75 -0.20 0 -0.40 2.45 -0.40 5.40 l0 5.40 -2.50 2.45 -2.50 2.45 -2.25 -2.20 -2.20 -2.20 -0.15 -5.15 -0.15 -5.20 -6.85 6.60 c-3.80 3.60 -6.90 6.80 -6.90 7 0 0.25 2.45 0.45 5.45 0.45 l5.45 0 1.55 1.95 c0.85 1.05 1.55 2.20 1.55 2.45 0 0.30 -0.75 1.10 -1.65 1.80 -1.55 1.20 -2.10 1.30 -7.05 1.30 -4.30 0 -5.35 0.15 -5.20 0.70 0.15 0.65 11.55 12.80 12.05 12.80 0.15 0 0.40 -2.35 0.60 -5.20 l0.35 -5.20 1.95 -1.90 1.95 -1.90 4.05 3.95 c2.20 2.20 5.40 5.55 7.10 7.40 l3.05 3.45 -1 1.80 c-1.25 2.35 -1.15 6.25 0.20 8.90 1.70 3.35 1.90 3.40 10.75 3.70 l8.05 0.25 1.75 2.55 c1 1.45 2.75 3.65 3.90 4.95 1.20 1.25 2.15 2.45 2.15 2.60 0 0.15 -2.85 0.15 -6.30 0 -7.40 -0.30 -6.10 -1.15 -13.15 8.60 -2.65 3.65 -5.60 7.75 -6.55 9.05 -0.95 1.30 -3.05 4.15 -4.60 6.30 -1.60 2.20 -4.60 6.30 -6.70 9.20 -5.60 7.70 -5.25 7.45 -8.95 7.35 -2.65 -0.10 -3.45 0.10 -5.50 1.40 -7.60 4.70 -5.25 16.20 3.55 17.55 7.85 1.15 13.55 -7.55 9.50 -14.50 l-1.25 -2.20 3.35 -4.60 c1.85 -2.55 4 -5.55 4.80 -6.70 1.60 -2.20 6.50 -8.85 14.70 -19.90 l5.10 -6.90 3 0 c1.60 0 3.10 0.25 3.25 0.50 0.15 0.30 0 0.50 -0.40 0.50 -1 0 -5.25 3.85 -6.10 5.55 -0.90 1.70 -0.95 5.10 -0.15 6.60 0.80 1.55 2.70 2.95 5.10 3.90 1.70 0.65 2.30 1.25 3.35 3.50 1.45 3 4.70 6.25 6.70 6.75 2.60 0.65 6.60 -2.30 8.30 -6.10 1.10 -2.40 1.60 -2.85 3.95 -3.65 1 -0.30 2.60 -1.35 3.65 -2.35 1.65 -1.65 1.85 -2.05 1.85 -4.40 0 -3.25 -2.10 -6.75 -5.05 -8.45 -1.05 -0.60 -1.95 -1.25 -1.95 -1.45 0 -0.25 1.30 -0.40 2.90 -0.40 3.55 0 3.10 -0.45 10.65 10.40 21.65 31 20.10 28.60 19.30 29.55 -4.10 4.65 -2.40 12.80 3.15 15 1.85 0.75 6.85 0.65 8.40 -0.15z"/>
  <path d="M107.25 118.35 c-2.15 -2.15 -2.60 -3.95 -1.70 -6.55 1.35 -3.95 6 -5.50 9.50 -3.15 5.20 3.50 2.50 11.35 -3.90 11.35 -1.90 0 -2.55 -0.30 -3.90 -1.65z"/>
  <path d="M8.70 118.05 c-3.30 -1.45 -4.65 -5.75 -2.70 -8.90 1.85 -3.05 5.40 -3.95 8.40 -2.15 5 3.05 3.30 10.80 -2.45 11.30 -1.20 0.10 -2.65 0 -3.25 -0.25z"/>
  <path d="M57.75 87.85 c-1.20 -1.90 -1.45 -4.05 -0.55 -5.75 1.10 -2.15 1.05 -5.70 -0.15 -7.15 -1.15 -1.45 -4.55 -1.65 -5.85 -0.35 -1.10 1.10 -0.15 2.90 1.60 2.90 1.10 0 1.25 0.20 1.10 1.40 -0.35 2.95 -5.40 1 -5.40 -2.10 0 -2.90 5.35 -6.55 9.10 -6.20 l1.65 0.15 0.15 9.15 c0.10 9.25 -0.10 10.30 -1.65 7.95z"/>
  <path d="M64 80.25 c0 -7.90 0.10 -8.75 0.90 -9.20 2 -1.05 7.75 1.40 9.25 3.95 1.20 2 1.05 3.35 -0.50 4.80 -1.85 1.70 -3.85 1.50 -4.05 -0.40 -0.15 -1.20 0 -1.40 1 -1.40 1.30 0 2.40 -0.85 2.40 -1.80 0 -1.15 -1.55 -2.20 -3.30 -2.20 -3.65 0 -5.35 4.15 -3.50 8.60 0.40 0.95 0.60 2.30 0.45 2.95 -0.40 1.50 -1.65 3.45 -2.20 3.45 -0.25 0 -0.45 -3.95 -0.45 -8.75z"/>
  <path d="M64.50 55.25 l0 -2.75 2.25 0 c1.65 0 2.25 0.20 2.25 0.75 0 0.80 -3.35 4.75 -4.05 4.75 -0.25 0 -0.45 -1.25 -0.45 -2.75z"/>
  <path d="M56.55 55.40 c-2.20 -3 -2 -3.55 1.10 -3.05 1.85 0.30 1.85 0.30 1.85 2.70 0 3.10 -0.85 3.20 -2.95 0.35z"/>
  <path d="M65.15 47.65 c-0.85 -0.30 -0.85 -6.35 0 -7 0.30 -0.25 2.25 -0.40 4.30 -0.25 l3.65 0.20 -0.20 3.05 c-0.15 2.15 -0.50 3.15 -1.15 3.65 -0.90 0.65 -5.30 0.90 -6.60 0.35z"/>
  <path d="M76.65 47.60 c-0.50 -0.30 -0.50 -0.85 -0.15 -2.10 0.30 -0.95 0.50 -2.50 0.50 -3.35 0 -1.50 0.15 -1.65 1.50 -1.65 1.50 0 1.50 0 1.60 3 0 1.65 0.05 3.30 0.10 3.65 0.05 0.70 -2.65 1.05 -3.55 0.45z"/>
  <path d="M85 47 c-1.55 -1.55 -1.40 -5.10 0.30 -6.45 1.70 -1.35 2 -1.30 3.45 0.25 1.55 1.65 1.65 4.10 0.20 5.90 -1.20 1.55 -2.60 1.65 -3.95 0.30z"/>
  <path d="M52.55 47.05 c-0.50 -0.30 -0.80 -1.65 -0.95 -3.75 l-0.20 -3.30 4.05 0 4.05 0 0 3.75 0 3.75 -3.10 0 c-1.75 0 -3.50 -0.20 -3.85 -0.45z"/>
  <path d="M35.30 45.90 c-0.45 -0.60 -0.80 -1.90 -0.80 -2.90 0 -2.40 1.20 -4 3 -4 1.80 0 3 1.60 3 4 0 2.40 -1.20 4 -3 4 -0.90 0 -1.70 -0.40 -2.20 -1.10z"/>
  <path d="M44.20 43.50 l0.05 -3.50 1.65 0 c1.45 0 1.60 0.15 1.60 1.65 0 0.85 0.15 2.45 0.30 3.50 l0.35 1.85 -2 0 -2 0 0.05 -3.50z"/>
  <path d="M64.95 35.45 c-0.35 -1.10 0.10 -10.95 0.45 -10.95 0.95 0 6 10.25 5.40 10.90 -0.20 0.15 -1.50 0.35 -3 0.50 -1.95 0.15 -2.70 0.05 -2.85 -0.45z"/>
  <path d="M53.75 35 c-0.40 -0.65 3.35 -8.40 4.85 -10 l1.15 -1.25 0.15 4.75 c0.20 6.85 0.15 7 -3.15 7 -1.45 0 -2.85 -0.20 -3 -0.50z"/>
 </g>
</svg>