<?xml version="1.0" encoding="utf-8"?>
<!DOCTYPE svg PUBLIC "-//W3C//DTD SVG 1.0//EN" "http://www.w3.org/TR/2001/REC-SVG-20010904/DTD/svg10.dtd">
<svg version="1.0" xmlns="http://www.w3.org/2000/svg" width="125px" height="137px" viewBox="0 0 125 137" preserveAspectRatio="xMidYMid meet">
 <g fill="#000000">
  <path d="M38.85 135.30 c-2.70 -0.75 -6.30 -3.90 -7.60 -6.60 -1.85 -3.95 -0.50 -8.55 3.50 -11.70 2.85 -2.25 4.40 -2.80 13.70 -4.75 4.55 -1 10.20 -2.20 12.55 -2.70 4.25 -0.95 10.40 -2.35 32.75 -7.20 l12 -2.65 0.30 -39.20 c0.15 -21.60 0.15 -39.40 0 -39.55 -0.15 -0.20 -9.30 -0.45 -20.30 -0.50 l-20 -0.20 -0.15 23.40 -0.10 23.35 4.85 0 4.90 0 2.05 -3.15 2.05 -3.10 0.30 -9.10 c0.15 -5.05 0.10 -9.15 -0.10 -9.15 -0.20 0 -2.70 2.60 -5.55 5.75 -5.05 5.60 -6.10 6.50 -6.70 5.90 -0.60 -0.60 -0.30 -14.45 0.30 -15.05 0.65 -0.65 14.60 -0.85 24.30 -0.25 l5.60 0.30 0 8.70 c0 11.20 -0.10 11.20 -6.80 1.65 -2.75 -3.80 -5.15 -6.90 -5.45 -6.80 -0.30 0.05 -0.55 3.50 -0.65 8.55 l-0.10 8.40 2.05 3.15 c2.80 4.35 3.05 4.50 4.40 2.65 2.55 -3.45 6.65 -4.40 10.25 -2.30 6.10 3.50 4.45 13.10 -2.40 14.20 -3.10 0.50 -5.20 -0.25 -7.45 -2.65 l-2.10 -2.20 -11.85 0 -11.90 0 -0.25 1.15 c-0.15 0.60 -0.25 3.25 -0.15 5.85 l0.15 4.75 1.95 0.15 c1.80 0.15 2.15 -0.05 6.35 -4.15 2.55 -2.55 4.65 -4.20 4.95 -4 0.50 0.30 0.50 13.55 0 22.40 -0.05 1.20 -1.85 -0.45 -5.40 -4.95 -4 -5.10 -5.50 -6.10 -7.30 -5.10 -1.40 0.80 -1 3.50 0.75 5.20 0.85 0.80 1.90 2.10 2.30 2.90 0.95 1.85 0.95 5.30 -0.05 7.20 -0.95 1.85 -3.45 4 -5.10 4.40 -3.35 0.85 -7.85 -1.20 -9.45 -4.30 -1.80 -3.50 -0.45 -8.50 2.85 -10.45 2.50 -1.50 2.90 -1.95 2.90 -3.55 0 -1.65 -0.60 -1.90 -4.10 -1.50 -2.30 0.25 -2.45 0.35 -6 4.95 -3.70 4.80 -5.05 6.05 -5.75 5.40 -0.70 -0.75 -0.35 -22.85 0.35 -22.85 0.30 0 2.70 1.90 5.35 4.25 l4.80 4.30 2.55 -0.15 2.55 -0.15 0.15 -5.85 0.15 -5.90 -19.40 -0.10 c-10.65 -0.05 -20.05 -0.10 -20.90 -0.10 -1.50 -0.05 -1.50 -0.10 -1.50 -2.80 l0 -2.75 7.40 -0.05 7.40 0 3.20 -3.25 3.25 -3.20 0.30 -8.60 c0.30 -6.60 0.20 -8.65 -0.25 -8.65 -0.35 0 -3.85 2.85 -7.85 6.30 -4 3.45 -7.55 6.15 -7.85 6.05 -0.80 -0.25 -1 -4.35 -0.60 -11.25 l0.35 -5.60 16.90 0 c9.30 0 17.25 0.15 17.70 0.30 0.65 0.25 0.80 1.30 0.80 6.15 0 7.50 -0.50 12.55 -1.20 12.55 -0.30 0 -3.35 -3.25 -6.70 -7.25 -3.40 -4 -6.40 -7.25 -6.65 -7.25 -0.25 0 -0.45 3.80 -0.45 9.15 l0 9.20 2.95 2.80 3 2.85 5 0 5.05 0 0.05 -11.60 c0.05 -6.40 0.10 -16.95 0.10 -23.40 l0.10 -11.75 -22.25 0 -22.25 0 -0.15 39.55 -0.10 39.55 2.20 0.85 c2.75 1.05 5.65 4.15 6.10 6.55 1.15 6.30 -2.45 11.50 -8.40 12.05 -5.80 0.60 -10.55 -3.70 -10.55 -9.55 0 -3.05 0.95 -5.05 3.50 -7.25 l1.90 -1.70 0.25 -39.25 c0.15 -21.60 0.15 -39.55 0.10 -39.90 -0.10 -0.35 -1 -0.85 -2 -1.20 -7.55 -2.40 -9.60 -12.10 -3.60 -17.10 2.75 -2.30 7.50 -2.85 10.75 -1.25 3.85 1.95 6.15 6.70 5.20 10.75 -0.25 1.25 -0.40 2.35 -0.35 2.40 0.10 0.10 19.10 0.30 42.30 0.50 l42.20 0.40 -0.35 -2.25 c-1 -6.60 4.40 -12.15 10.90 -11.20 4.70 0.70 7.85 4.40 7.85 9.20 0 5.40 -3.90 9.60 -8.90 9.60 l-1.95 0 -0.30 4.90 c-0.20 2.65 -0.35 20.65 -0.35 40 l0 35.15 1.55 1.35 c5.90 4.95 3.70 14.70 -3.80 16.85 -6.45 1.85 -12.25 -2.85 -12.25 -9.90 0 -1.55 -0.20 -2.85 -0.50 -2.85 -0.25 0 -4 0.80 -8.35 1.75 -4.35 1 -13.30 2.90 -19.90 4.30 -18.70 3.95 -29.10 6.35 -30.15 7 -2.35 1.45 -3.40 5.50 -2.10 7.95 0.30 0.60 1.45 1.70 2.60 2.50 1.70 1.25 2.50 1.50 5 1.50 4.55 0 6.65 -1.55 3.10 -2.25 -2.35 -0.40 -3.90 -1.45 -4.60 -3.05 -1.80 -3.95 0.80 -7.20 5.75 -7.20 2.30 0 2.90 0.20 4.60 1.75 1.25 1.15 2.05 2.40 2.25 3.50 1.40 7.25 -7.85 13.45 -16.35 11.05z m71.35 -20.25 c1.95 -1.30 2.75 -2.85 2.80 -5.40 0 -1.65 -0.35 -2.50 -1.55 -3.90 -1.35 -1.50 -1.85 -1.75 -3.80 -1.75 -2.75 0 -4.90 1.20 -5.90 3.30 -0.95 2 -0.95 2.80 -0.05 4.95 1.40 3.35 5.60 4.70 8.50 2.80z m-92.70 -0.30 c2.85 -1.45 3.90 -5.85 2.15 -8.80 -0.90 -1.55 -3.35 -2.95 -5.15 -2.95 -1.70 0 -4.35 1.45 -5.25 2.85 -0.95 1.45 -1.10 5.05 -0.25 6.65 1.40 2.65 5.60 3.75 8.50 2.25z m46.50 -9.50 c2 -1.05 3 -2.65 3 -4.90 0 -4.15 -4.05 -6.85 -7.70 -5.10 -4.35 2.05 -4.40 8.15 -0.05 10.05 1.95 0.85 3 0.85 4.75 -0.05z m35.75 -31.55 c1.25 -0.50 2.40 -3.10 2 -4.65 -1.30 -5.15 -8.75 -4.55 -8.75 0.70 0 3.20 3.40 5.20 6.75 3.95z m18.45 -57.70 c2.95 -2.60 2.75 -6.90 -0.45 -9.40 -1.60 -1.25 -4.80 -1.45 -6.65 -0.40 -2.80 1.50 -3.85 5.35 -2.35 8.30 1.70 3.30 6.55 4.05 9.45 1.50z m-103.20 -0.50 c1.85 -1.30 2.70 -3.55 2.35 -6.15 -0.75 -5.55 -8.40 -7.10 -11.35 -2.25 -1.85 3 -0.85 7.10 2.10 8.70 1.80 1 5.30 0.85 6.90 -0.30z"/>
 </g>
 <g fill="#ffffff">
  <path d="M0 68.50 l0 -68.50 62.50 0 62.50 0 0 68.50 0 68.50 -62.50 0 -62.50 0 0 -68.50z m49 66 c6.45 -3.30 8.30 -9.80 3.95 -13.75 -1.70 -1.55 -2.30 -1.75 -4.60 -1.75 -4.95 0 -7.55 3.25 -5.75 7.20 0.70 1.60 2.25 2.65 4.60 3.05 3.55 0.70 1.45 2.25 -3.10 2.25 -2.50 0 -3.30 -0.25 -5 -1.50 -1.15 -0.80 -2.30 -1.90 -2.60 -2.50 -1.30 -2.45 -0.25 -6.50 2.10 -7.95 1.05 -0.65 11.45 -3.05 30.15 -7 6.60 -1.40 15.55 -3.30 19.90 -4.30 4.35 -0.95 8.10 -1.75 8.35 -1.75 0.30 0 0.50 1.30 0.50 2.85 0 7.05 5.80 11.75 12.25 9.90 7.50 -2.15 9.70 -11.90 3.80 -16.85 l-1.55 -1.35 0 -35.15 c0 -19.35 0.15 -37.35 0.35 -40 l0.30 -4.90 1.95 0 c5 0 8.90 -4.20 8.90 -9.60 0 -4.80 -3.15 -8.50 -7.85 -9.20 -6.50 -0.95 -11.90 4.60 -10.90 11.20 l0.35 2.25 -42.20 -0.40 c-23.20 -0.20 -42.20 -0.40 -42.30 -0.50 -0.05 -0.05 0.10 -1.15 0.35 -2.40 0.95 -4.05 -1.35 -8.80 -5.20 -10.75 -1.80 -0.90 -5.10 -1.20 -7.15 -0.60 -9.40 2.50 -9.40 15.95 0 18.95 1 0.35 1.90 0.85 2 1.20 0.05 0.35 0.05 18.30 -0.10 39.90 l-0.25 39.25 -1.90 1.70 c-2.55 2.20 -3.50 4.20 -3.50 7.25 0 5.85 4.75 10.15 10.55 9.55 5.95 -0.55 9.55 -5.75 8.40 -12.05 -0.45 -2.40 -3.35 -5.50 -6.10 -6.55 l-2.20 -0.85 0.10 -39.55 0.15 -39.55 22.25 0 22.25 0 -0.10 11.75 c0 6.45 -0.05 17 -0.10 23.40 l-0.05 11.60 -5.05 0 -5 0 -3 -2.85 -2.95 -2.80 0 -9.20 c0 -5.35 0.20 -9.15 0.45 -9.15 0.25 0 3.25 3.25 6.65 7.25 3.35 4 6.40 7.25 6.70 7.25 0.70 0 1.20 -5.05 1.20 -12.55 0 -4.85 -0.15 -5.90 -0.80 -6.15 -0.45 -0.15 -8.40 -0.30 -17.70 -0.30 l-16.90 0 -0.35 5.60 c-0.40 6.90 -0.20 11 0.60 11.25 0.30 0.10 3.85 -2.60 7.85 -6.05 4 -3.45 7.50 -6.30 7.85 -6.30 0.45 0 0.55 2.05 0.25 8.65 l-0.30 8.60 -3.25 3.20 -3.20 3.25 -7.40 0 -7.40 0.05 0 2.75 c0 2.70 0 2.75 1.50 2.80 0.85 0 10.25 0.05 20.90 0.10 l19.40 0.10 -0.15 5.90 -0.15 5.85 -2.55 0.15 -2.55 0.15 -4.80 -4.30 c-2.65 -2.35 -5.05 -4.25 -5.35 -4.25 -0.70 0 -1.05 22.10 -0.35 22.85 0.70 0.65 2.05 -0.60 5.75 -5.40 3.55 -4.60 3.70 -4.70 6 -4.95 3.50 -0.40 4.10 -0.15 4.10 1.50 0 1.60 -0.40 2.05 -2.90 3.55 -3.30 1.95 -4.65 6.95 -2.85 10.45 1.60 3.10 6.10 5.15 9.45 4.30 1.65 -0.40 4.15 -2.55 5.10 -4.40 1 -1.90 1 -5.35 0.05 -7.20 -0.40 -0.80 -1.45 -2.10 -2.30 -2.90 -1.75 -1.70 -2.15 -4.40 -0.75 -5.20 1.80 -1 3.30 0 7.30 5.10 3.55 4.50 5.35 6.15 5.40 4.95 0.50 -8.85 0.50 -22.10 0 -22.40 -0.30 -0.20 -2.40 1.45 -4.95 4 -4.20 4.10 -4.55 4.30 -6.35 4.15 l-1.95 -0.15 -0.15 -4.75 c-0.10 -2.60 0 -5.25 0.15 -5.85 l0.25 -1.15 11.90 0 11.85 0 2.10 2.20 c2.25 2.40 4.35 3.15 7.45 2.65 6.85 -1.10 8.50 -10.70 2.40 -14.20 -3.60 -2.10 -7.70 -1.15 -10.25 2.30 -1.35 1.85 -1.60 1.70 -4.40 -2.65 l-2.05 -3.15 0.10 -8.40 c0.10 -5.05 0.35 -8.50 0.65 -8.55 0.30 -0.10 2.70 3 5.45 6.80 6.70 9.55 6.80 9.55 6.80 -1.65 l0 -8.70 -5.60 -0.30 c-9.70 -0.60 -23.65 -0.40 -24.30 0.25 -0.60 0.60 -0.90 14.45 -0.30 15.05 0.60 0.60 1.65 -0.30 6.70 -5.90 2.85 -3.15 5.35 -5.75 5.55 -5.75 0.20 0 0.25 4.10 0.10 9.15 l-0.30 9.10 -2.05 3.10 -2.05 3.15 -4.90 0 -4.85 0 0.10 -23.35 0.15 -23.40 20 0.20 c11 0.05 20.15 0.30 20.30 0.50 0.15 0.15 0.15 17.95 0 39.55 l-0.30 39.20 -12 2.65 c-22.35 4.85 -28.50 6.25 -32.75 7.20 -2.35 0.50 -8 1.70 -12.55 2.70 -9.30 1.95 -10.85 2.50 -13.70 4.75 -4 3.15 -5.35 7.75 -3.50 11.70 1.30 2.70 4.90 5.85 7.60 6.60 3.05 0.90 7.55 0.50 10.15 -0.80z"/>
  <path d="M104.10 115 c-1.60 -1 -3.10 -3.55 -3.10 -5.30 0 -1.50 1.50 -4 2.95 -4.85 0.80 -0.45 2.45 -0.85 3.70 -0.85 1.95 0 2.45 0.25 3.80 1.75 2.55 2.95 2 7.15 -1.25 9.30 -1.85 1.20 -4 1.20 -6.10 -0.05z"/>
  <path d="M11.15 114.50 c-2.05 -1.20 -2.75 -2.55 -2.75 -5.25 0 -2.60 1.10 -4.40 3.35 -5.45 2.05 -1 3.40 -1 5.45 -0.05 3 1.45 4.20 5.55 2.55 8.75 -1.50 2.90 -5.60 3.85 -8.60 2z"/>
  <path d="M59.25 105.30 c-4.35 -1.90 -4.30 -8 0.05 -10.05 3.65 -1.75 7.70 0.95 7.70 5.10 0 2.25 -1 3.85 -3 4.90 -1.75 0.90 -2.80 0.90 -4.75 0.05z"/>
  <path d="M94.25 72.75 c-2.80 -2.75 -0.80 -7.25 3.15 -7.25 3.35 0 5.45 3.45 3.90 6.40 -0.85 1.70 -1.65 2.10 -4.10 2.10 -1.20 0 -2.15 -0.40 -2.95 -1.25z"/>
  <path d="M110.90 16.70 c-2.80 -1.50 -3.75 -5.65 -1.95 -8.40 2.80 -4.25 8.90 -3.65 10.90 1.05 1.60 3.85 -1.30 8.15 -5.50 8.15 -1.15 -0.05 -2.70 -0.35 -3.45 -0.80z"/>
  <path d="M8.10 15.80 c-2.95 -1.60 -3.95 -5.70 -2.10 -8.70 2.95 -4.85 10.60 -3.30 11.35 2.25 0.55 4.15 -1.95 7.15 -5.95 7.15 -1.15 -0.05 -2.65 -0.30 -3.30 -0.70z"/>
 </g>
</svg>