<?xml version="1.0" encoding="utf-8"?>
<!DOCTYPE svg PUBLIC "-//W3C//DTD SVG 1.0//EN" "http://www.w3.org/TR/2001/REC-SVG-20010904/DTD/svg10.dtd">
<svg version="1.0" xmlns="http://www.w3.org/2000/svg" width="167px" height="149px" viewBox="0 0 167 149" preserveAspectRatio="xMidYMid meet">
 <g fill="#000000">
  <path d="M106.15 146.75 c-0.85 -0.45 -2.20 -1.80 -3 -2.90 -1.40 -2.10 -1.40 -2.10 -1.25 -9.20 l0.15 -7.15 -2.05 -0.80 c-1.10 -0.45 -2.45 -1.40 -3 -2.10 -1.65 -2.10 -1.10 -5.60 0.85 -5.60 0.40 0 1.10 1 1.65 2.25 0.70 1.60 1.30 2.30 2.30 2.55 2.05 0.55 3.90 -0.70 4.10 -2.70 0.20 -2.20 -0.50 -2.90 -3.20 -3.35 -2.35 -0.35 -3.40 -1.50 -2.15 -2.30 0.40 -0.25 1.75 -0.60 3.05 -0.75 2.75 -0.40 3.55 -1.10 3.30 -3.05 -0.15 -1.40 -0.20 -1.40 -3.30 -1.25 -2.50 0.10 -3.20 0 -3.45 -0.65 -0.55 -1.50 1 -2.30 4.55 -2.35 4 -0.10 5.80 0.95 6.50 3.75 0.40 1.50 0.25 2.20 -0.90 4.55 -0.80 1.65 -1.25 3.20 -1.05 3.75 0.45 1.45 -1.05 4.60 -3 6.30 l-1.75 1.50 -0.30 6.30 c-0.35 6 -0.30 6.45 0.75 8.15 1.60 2.50 2.90 3.30 5.65 3.30 2.15 0 2.60 -0.20 4.45 -2.05 1.15 -1.15 2.60 -3.25 3.30 -4.75 0.65 -1.50 1.40 -2.70 1.55 -2.70 0.20 0 1.90 1.25 3.75 2.75 1.90 1.50 3.65 2.75 3.90 2.75 0.30 0 1.05 -0.60 1.75 -1.35 l1.25 -1.35 1.85 2.05 c2.40 2.70 3.35 2.95 4.90 1.40 0.95 -0.95 1.20 -1.70 1.20 -3.70 l0 -2.50 2.30 1.20 c2.70 1.45 5.20 2 6.95 1.55 1.60 -0.40 1.65 -2.25 0.20 -4.60 l-1.05 -1.70 1.45 0 c3.85 -0.05 3.40 -2.35 -1.20 -6.05 -4.25 -3.40 -4.55 -4.20 -1.60 -3.75 5.55 0.85 7.45 0.95 7.45 0.40 0 -0.35 -1.50 -2.10 -3.35 -3.95 -1.85 -1.85 -3.10 -3.40 -2.85 -3.50 0.30 -0.10 1.75 0.15 3.30 0.55 5.05 1.30 7.15 -0.20 5.95 -4.20 -0.40 -1.40 -1.40 -2.70 -3.35 -4.35 -2.65 -2.25 -4.20 -4.40 -4.20 -5.70 0 -0.35 0.40 -0.30 1.15 0.25 5.40 3.85 8.80 2.65 8.15 -2.90 -0.30 -2.50 -3.25 -10.45 -4.35 -11.55 -0.75 -0.75 -0.50 -1.25 0.70 -1.25 0.65 0 1.70 0.55 2.35 1.25 1.65 1.75 3.85 1.70 4.30 -0.10 0.85 -3.40 -3.10 -12.70 -7.35 -17.25 -1.55 -1.70 -2.45 -3 -2.35 -3.65 0.15 -1.05 0.15 -1.05 5.95 -0.45 2.60 0.30 2.90 0.20 3.20 -0.75 0.65 -2.05 -0.25 -3.95 -2.85 -6.15 -4.05 -3.40 -7.40 -6.85 -7.40 -7.60 0 -0.50 0.90 -0.75 3.05 -0.90 3.20 -0.25 4.95 -1.40 4.95 -3.35 0 -2.40 -4.15 -6.40 -7.15 -6.90 -1.50 -0.20 -1.95 0 -3.65 1.75 -3.70 3.70 -7.30 4.80 -10.75 3.20 -4.30 -1.90 -5.80 -5 -3.95 -8 1.10 -1.80 2.70 -2.60 5.20 -2.60 2 0 3.45 1 3.20 2.30 -0.15 0.75 -0.60 0.95 -2.40 0.95 -2.75 0 -3.50 0.45 -3.50 2 0 1.45 2.15 3.25 3.95 3.25 1.80 0 5.15 -2 5.90 -3.50 2.05 -4.05 -1 -9.55 -6.75 -12.10 -4.25 -1.90 -18.50 -2.20 -20.30 -0.40 -0.40 0.40 0.40 2.40 2.70 6.90 l3.25 6.35 2.30 0.35 c2.95 0.40 4.50 1.40 5.85 3.85 3.05 5.40 -0.70 11.65 -6.90 11.65 -3.30 -0.05 -5.60 -1.45 -6.95 -4.30 -1.30 -2.65 -1.30 -4.55 -0.05 -7.05 0.55 -1.10 1 -2.30 1 -2.70 0 -0.85 -5.30 -11 -6.25 -12 -1.55 -1.55 -13.35 7.05 -18.90 13.75 -5.60 6.85 -5.65 7.10 -3.80 17.30 0.90 4.90 1.60 10.90 1.80 14.95 l0.30 6.85 2.25 0.30 c3.80 0.50 5.05 0.35 5.60 -0.65 0.90 -1.75 0.60 -4.35 -0.75 -5.95 -2.40 -2.85 -1.80 -3 7.75 -1.95 5.90 0.65 6.45 1.20 3.25 3 -2.15 1.20 -2.95 2.50 -3.50 5.45 -0.30 1.70 -0.25 1.80 1.10 2.10 0.75 0.15 2.75 0.50 4.40 0.80 2.65 0.55 3.30 0.90 5.80 3.45 2.75 2.80 4.45 6.20 4.45 8.85 0 2.95 -1.15 6.30 -2.75 7.95 -1.35 1.50 -1.95 1.75 -3.80 1.75 -2.65 0 -7 -1.90 -8.15 -3.55 -1.75 -2.55 -0.45 -8.65 2 -9.25 2.70 -0.70 6.20 1.60 6.20 4 0 1.85 -1 2.15 -2.25 0.65 -1.45 -1.85 -4.05 -1.90 -4.75 -0.10 -0.70 1.80 0.10 3.45 2.25 4.75 2 1.25 4.40 1.45 5.55 0.45 1.25 -1.05 2.70 -4.30 2.70 -6.10 0 -2.30 -2.35 -5.45 -5.10 -6.75 -2.75 -1.35 -8.10 -2.60 -8.90 -2.10 -1.60 1 -2.65 10.85 -1.25 12 1.65 1.40 0.75 1.65 -4.50 1.30 -5.80 -0.35 -8.25 -0.75 -8.25 -1.25 0 -0.20 1.10 -1.15 2.45 -2.15 2.30 -1.75 2.45 -2 3.50 -6.15 0.60 -2.35 0.95 -4.50 0.80 -4.80 -0.20 -0.25 -1.85 -0.45 -3.70 -0.45 l-3.40 0 -0.35 4.05 c-0.20 2.20 -0.75 5.90 -1.30 8.10 -1.10 4.75 -5.35 18.75 -7.50 24.80 -2.20 6.10 -2.60 8.25 -2 10.60 1.30 4.85 8.70 5.85 12.85 1.70 2.25 -2.25 2.25 -4.15 -0.10 -6.20 -2.10 -1.80 -3.15 -1.95 -4.90 -0.55 -0.90 0.70 -1.35 1.60 -1.45 2.90 -0.20 2.35 -1.70 2.90 -2.20 0.80 -1.15 -4.60 4.35 -9.25 8.45 -7.15 1.90 1 4.30 3.55 4.85 5.25 1.85 5.55 -5.50 12.55 -12.05 11.50 -4.45 -0.70 -7.50 -3.40 -8.25 -7.25 -0.20 -0.85 -0.50 -1.65 -0.70 -1.80 -0.20 -0.15 -1.55 1.10 -2.95 2.75 -3.15 3.60 -8.55 7 -11.10 7 -4.80 0 -9.95 -8.10 -9.35 -14.60 0.30 -2.90 2.45 -6.30 4.65 -7.35 1.70 -0.85 4.75 -0.85 6.25 -0.05 2 1.05 3 4.10 3 8.95 0 2.60 0.20 4.65 0.50 4.80 0.80 0.50 3.65 -1.85 5.65 -4.65 4.65 -6.30 7.90 -13.90 11.35 -26.30 1.95 -7.05 3.35 -15.80 2.75 -16.80 -0.15 -0.25 -2.25 -0.50 -4.70 -0.50 l-4.45 0 -0.80 3.25 c-1.10 4.45 -1.05 5.20 0.80 7.10 0.85 0.90 1.45 1.80 1.25 1.95 -0.15 0.20 -2.40 0.25 -4.95 0.20 -2.55 -0.10 -5.55 -0.15 -6.60 -0.20 -1.10 -0.05 -2.05 -0.30 -2.15 -0.60 -0.10 -0.30 0.95 -1.30 2.30 -2.20 1.90 -1.20 2.65 -2.05 3.05 -3.40 0.80 -2.85 1.20 -6.10 0.70 -6.10 -0.25 0 -2.90 -0.35 -5.95 -0.80 -8.65 -1.25 -12.25 -3.35 -13.05 -7.50 -0.50 -2.65 0.60 -6.70 2.30 -8.80 2.05 -2.45 6.05 -4.40 9.10 -4.40 4.40 0 6.80 1.65 7.90 5.50 0.95 3.40 -2.90 8.50 -6.35 8.50 -1.80 0 -4.65 -2.35 -4.65 -3.85 0.05 -3 1.60 -4.30 2.25 -1.75 0.45 1.75 1.65 3.10 2.85 3.10 0.55 0 1.65 -0.65 2.45 -1.45 1.85 -1.85 1.90 -3.95 0.15 -6 -1.15 -1.35 -1.60 -1.55 -3.90 -1.55 -7 0 -11.95 8.25 -7.35 12.15 1.35 1.10 2.05 1.25 8.50 1.55 3.85 0.20 7.25 0.25 7.50 0.10 0.25 -0.20 0.85 -2 1.35 -4.05 0.80 -3.50 0.80 -3.80 0.05 -4.65 -1.70 -1.85 -1.10 -2.10 4.60 -2.10 3.05 0 5.60 0.20 5.75 0.40 0.15 0.25 -0.85 1.55 -2.15 2.95 -2.20 2.30 -3.95 6.10 -3.15 6.90 0.15 0.15 1.80 0.25 3.65 0.25 l3.35 0 0.40 -3.35 c1.15 -11 -3.85 -28.35 -11.55 -39.95 -2.45 -3.65 -10.20 -11.70 -11.30 -11.70 -0.45 0 -3.45 3.15 -7.95 8.45 -3.05 3.55 -3.15 3.75 -2.60 5.25 1.20 3.30 0.40 6.45 -2.35 9 -1.25 1.20 -2.10 1.50 -4.40 1.70 -2.45 0.15 -3.20 0 -4.65 -1 -5.05 -3.45 -5.35 -9.70 -0.60 -13.30 1.50 -1.15 2.30 -1.35 4.90 -1.35 l3.15 -0.05 4.80 -5.45 c2.60 -3.05 4.70 -5.70 4.60 -5.95 -0.40 -1.20 -10 -3.30 -15.15 -3.30 -1.55 0 -1.60 0.10 -1.95 2.55 -0.40 3 -2.70 6.30 -5.25 7.55 -2.55 1.30 -5.80 1.15 -8.95 -0.40 -2.20 -1.10 -3.05 -1.30 -5.15 -1.05 -3.55 0.45 -6.55 2.35 -7.85 5 -0.60 1.20 -1.05 2.55 -1.05 3 0 1.35 1.85 2.85 3.45 2.85 0.85 0 1.65 0.25 1.80 0.55 0.70 1.05 -3.05 7.15 -6.80 11.15 -4.80 5.20 -5.45 6.15 -5.45 8.30 0 3.25 0.85 3.30 4.05 0.25 4.30 -4.10 5.60 -3.50 3.25 1.50 -0.65 1.40 -2.15 3.75 -3.40 5.25 -4 4.85 -5.20 8.40 -3.55 10.45 l0.90 1.10 2.90 -2.05 c1.60 -1.15 3.05 -1.95 3.20 -1.80 0.20 0.15 -1.40 2.05 -3.50 4.25 -3.95 4 -6.35 8.05 -6.35 10.70 0 1.50 1.55 3.35 2.80 3.35 0.95 0 4.50 -2.40 6.15 -4.20 2.85 -3.05 3.55 -0.25 0.80 3.35 -0.95 1.25 -2.45 2.70 -3.35 3.25 -3.10 1.95 -5 4.35 -5 6.30 0 1.90 0.65 3 2.15 3.85 0.75 0.35 1.35 0.10 2.80 -1.20 2.20 -1.95 4.20 -3.35 4.75 -3.35 0.25 0 0.40 0.60 0.40 1.30 0 0.95 -0.90 2.20 -3.55 4.65 -5.40 5.15 -6.30 7.10 -4.85 10.25 0.90 2.05 2.15 2.10 5.05 0.15 3.50 -2.40 4.85 -2.75 4.85 -1.35 0 1.55 -0.85 2.95 -3.55 5.80 -2.50 2.70 -3.15 4.10 -2.85 6.50 0.15 1.45 0.15 1.45 3.30 1.30 l3.15 -0.15 -1.30 2.50 c-0.70 1.40 -1.25 3.10 -1.25 3.80 0 1.10 0.20 1.25 1.65 1.25 0.85 0 2.35 -0.45 3.25 -1 2.15 -1.35 2.60 -1.25 2.60 0.40 0 3 1.75 4.05 4.60 2.85 0.70 -0.25 0.90 -0.10 0.90 0.60 0 0.50 0.35 1.45 0.80 2.10 1.10 1.50 3.30 1.10 5.50 -1 l1.60 -1.55 2.30 0.80 c3.15 1.05 5.70 1 7.70 -0.20 2.25 -1.40 2.15 -3.45 -0.45 -9.05 -3.20 -6.95 -3.25 -9.60 -0.20 -11.45 0.95 -0.60 1.75 -1.30 1.75 -1.60 0 -0.30 -0.65 -1.30 -1.50 -2.25 -2.15 -2.40 -2.05 -4.65 0.25 -7 1.35 -1.40 1.60 -1.95 1.25 -2.70 -0.30 -0.50 -0.50 -1.80 -0.50 -2.90 0 -1.70 0.30 -2.35 1.95 -4 1.95 -1.95 4.50 -3.05 7.05 -3.05 1.90 0 4.85 0.95 5.15 1.65 0.30 0.80 -0.35 2.50 -1.30 3.25 -0.65 0.55 -1 0.45 -2.05 -0.65 -2.55 -2.55 -8.80 -1.10 -8.80 2.05 0 1.55 2.05 3.70 3.60 3.75 4.25 0.15 5.10 0.25 5.25 0.75 0.10 0.35 -1 0.70 -2.95 0.90 -3.90 0.45 -6.10 1.35 -7.15 3 -1.05 1.60 -0.65 2.85 1.55 4.75 2.70 2.40 5.20 1.90 5.20 -1 0 -1.90 0.65 -2.15 2.20 -0.90 2.60 2.05 1.35 3.85 -3.80 5.45 -4.10 1.25 -6.40 3.05 -6.40 5 0 0.75 1 3.40 2.25 5.85 2.85 5.80 3.55 8.65 2.50 10.65 -0.40 0.80 -1.20 1.70 -1.75 2 -2 1.05 -5.85 1.15 -9.35 0.25 -3.40 -0.85 -3.45 -0.85 -5.50 0.20 -2.60 1.30 -4 1.30 -5.90 0.05 -1.05 -0.70 -1.95 -0.90 -3.05 -0.70 -1.35 0.25 -1.85 0.05 -3.20 -1.50 l-1.65 -1.75 -2.05 1.40 c-3 2.15 -3.95 2.30 -5.60 0.90 -1.50 -1.30 -1.80 -3.40 -1 -6.70 0.40 -1.55 0.35 -1.65 -0.90 -1.65 -4.10 0 -6.10 -4.80 -3.80 -9.20 l0.95 -1.95 -1.70 -1.95 c-2.10 -2.30 -2.30 -4.85 -0.75 -8.35 l1 -2.20 -1.75 -2.55 c-2.10 -3.10 -2.20 -4.65 -0.40 -8.20 l1.35 -2.70 -1.80 -1.55 c-2.30 -2 -3 -3.45 -2.60 -5.20 0.40 -1.70 2 -4.90 3.25 -6.65 0.90 -1.25 0.90 -1.30 -0.55 -4.15 -1.70 -3.40 -1.65 -4.65 0.50 -8.90 l1.40 -2.80 -1.30 -1.90 c-2.65 -3.75 -1.25 -8.45 5.20 -17 1.20 -1.65 2.20 -3.15 2.20 -3.40 0 -0.20 -0.50 -1.05 -1.05 -1.85 -0.90 -1.20 -1.05 -1.85 -0.80 -4.05 0.65 -5.35 4 -9.75 9.85 -12.95 3.25 -1.75 3.25 -1.80 3.50 -4.25 0.45 -4.15 2.15 -6.55 5.65 -8 3.60 -1.50 7.65 -0.60 10.70 2.35 1.55 1.50 1.60 1.50 4.20 0.90 3.75 -0.90 10.40 -0.35 15.20 1.25 2.15 0.70 4.15 1.25 4.50 1.15 0.35 -0.10 1.85 -1.65 3.40 -3.45 l2.80 -3.30 -0.25 -3.45 c-0.25 -3.05 -0.15 -3.65 0.85 -5.15 2.05 -2.90 3.65 -3.80 6.95 -3.80 4.50 0 7.45 2.65 7.90 7.15 0.25 2.80 -0.50 4.55 -2.90 6.85 -1.40 1.35 -1.90 1.50 -5.15 1.55 l-3.55 0.05 -2.65 2.90 c-1.45 1.60 -2.65 3.20 -2.65 3.50 0 0.35 0.90 1.25 2 2 3.30 2.25 8.70 8.30 11.45 12.80 1.40 2.30 2.55 4.40 2.55 4.75 0 0.30 0.35 0.85 0.70 1.20 0.60 0.45 1.60 -0.30 5.60 -4.50 4.95 -5.10 10.10 -8.95 16.05 -11.95 1.70 -0.85 3.20 -1.75 3.40 -2 0.15 -0.30 -0.65 -2.30 -1.75 -4.55 -2 -3.95 -2.05 -4 -3.95 -4 -2.10 0 -4.60 -1.45 -6.15 -3.50 -1.40 -1.95 -1.65 -4.65 -0.65 -7.30 2.30 -6.10 10.85 -6.65 14.10 -0.90 1.45 2.50 1.45 5.25 0.05 7.80 l-1.15 2 2.25 4.20 c2.25 4.25 2.25 4.25 4 4.05 10.95 -1.40 13.25 -1.50 16.90 -1 8.35 1.25 12.75 4.75 14.85 11.90 0.60 2 0.95 2.30 5 4 7.05 2.95 10.45 9.25 6.85 12.65 -0.75 0.75 -1.80 1.60 -2.35 1.90 -0.90 0.50 -0.85 0.60 0.60 1.90 0.85 0.75 2.40 2.70 3.40 4.35 3.05 4.95 2.85 7.85 -0.55 9.25 -0.95 0.40 -1.70 0.90 -1.70 1.10 0 0.20 0.80 1.95 1.75 3.85 2.50 4.95 3.45 9.15 3.10 13.80 -0.30 4.80 -1 5.95 -3.45 5.95 -1 0 -1.95 0.20 -2.10 0.45 -0.20 0.25 0.35 2.50 1.20 5.05 0.80 2.50 1.50 4.85 1.50 5.20 0 1.15 -1.80 2.30 -4.15 2.60 -1.30 0.20 -2.35 0.55 -2.35 0.80 0 0.25 0.55 1.55 1.25 2.90 1.50 2.95 1.60 5.50 0.35 6.65 -0.50 0.50 -1.15 0.85 -1.40 0.85 -0.30 0 -0.90 0.30 -1.40 0.65 -0.85 0.65 -0.85 0.75 -0.05 2.30 1.05 2.15 0.65 3.80 -1.25 4.80 l-1.45 0.75 1.25 1.85 c1.70 2.55 2 4 0.95 5.15 -0.45 0.50 -1.35 1 -1.95 1.10 -0.90 0.15 -1.05 0.50 -1.05 2.25 0 1.15 -0.25 2.35 -0.55 2.65 -0.35 0.35 -2.45 0.70 -4.75 0.85 -4.35 0.30 -4.95 0.60 -4.95 2.55 0 3.25 -4.30 4.10 -8.15 1.55 l-2.35 -1.55 -1.30 1.05 c-1.15 0.90 -1.45 0.95 -2.65 0.35 -0.70 -0.40 -1.95 -1.40 -2.75 -2.25 -0.85 -0.85 -1.75 -1.55 -2 -1.55 -0.30 0 -1.10 1.05 -1.75 2.30 -1.65 3.05 -4.55 4.75 -8.70 5.05 -2.20 0.15 -3.55 -0.05 -4.70 -0.60z m-42.75 -7.35 c0.35 -0.35 0.60 -2.15 0.60 -4.60 0 -5.90 -1.70 -8.85 -4.70 -8.10 -1.45 0.35 -2.80 2.75 -2.80 4.90 0 2.35 1.15 5.15 2.75 6.75 1.70 1.70 3.15 2.05 4.15 1.05z m64.60 -87.90 c1.35 -1.35 1.75 -3.25 1 -5.05 -0.75 -1.80 -1.85 -2.45 -4.15 -2.45 -1.35 0 -2.05 0.35 -3.05 1.55 -0.70 0.85 -1.30 2.05 -1.30 2.70 0 0.65 0.60 1.85 1.30 2.70 1.05 1.25 1.65 1.55 3.25 1.55 1.25 0 2.30 -0.35 2.95 -1z m-78.45 -3.45 c1.90 -1.90 2 -4.55 0.20 -6.30 -3.70 -3.70 -9.90 0.60 -7.55 5.20 1.55 3 4.95 3.50 7.35 1.10z m-14.05 -19.30 c2.05 -1.05 3 -2.65 3 -5.15 0 -4.70 -4.40 -7.45 -8.50 -5.35 -3.80 2 -4.05 8 -0.40 10.25 1.95 1.20 3.90 1.25 5.90 0.25z m43.75 -15.45 c3.20 -1.35 3.85 -5.30 1.20 -7.50 -3.15 -2.65 -7.45 -0.95 -7.45 2.95 0 2.40 0.75 3.70 2.65 4.50 2 0.90 1.60 0.85 3.60 0.05z m27.80 -0.30 c1.35 -0.75 2.55 -3.35 2.15 -4.65 -0.55 -1.95 -2.25 -3.35 -4 -3.35 -2.30 0 -3.15 0.45 -4 2.10 -1.95 3.75 2.15 7.85 5.85 5.90z"/>
 </g>
 <g fill="#ffffff">
  <path d="M0 74.50 l0 -74.50 83.50 0 83.50 0 0 74.50 0 74.50 -83.50 0 -83.50 0 0 -74.50z m116.15 71.35 c1.45 -0.85 2.60 -2.05 3.40 -3.55 0.65 -1.25 1.45 -2.30 1.75 -2.30 0.25 0 1.15 0.70 2 1.55 0.80 0.85 2.05 1.85 2.75 2.25 1.20 0.60 1.50 0.55 2.65 -0.35 l1.30 -1.05 2.35 1.55 c3.85 2.55 8.15 1.70 8.15 -1.55 0 -1.95 0.60 -2.25 4.95 -2.55 2.30 -0.15 4.40 -0.50 4.75 -0.85 0.30 -0.30 0.55 -1.50 0.55 -2.65 0 -1.75 0.15 -2.10 1.05 -2.25 0.60 -0.10 1.50 -0.60 1.95 -1.10 1.05 -1.15 0.75 -2.60 -0.95 -5.15 l-1.25 -1.85 1.45 -0.75 c1.90 -1 2.30 -2.65 1.25 -4.80 -0.80 -1.55 -0.80 -1.65 0.05 -2.30 0.50 -0.35 1.10 -0.65 1.40 -0.65 0.25 0 0.90 -0.35 1.40 -0.85 1.25 -1.15 1.15 -3.70 -0.35 -6.65 -0.70 -1.35 -1.25 -2.65 -1.25 -2.90 0 -0.25 1.05 -0.60 2.35 -0.80 2.35 -0.30 4.15 -1.45 4.15 -2.60 0 -0.35 -0.70 -2.70 -1.50 -5.20 -0.85 -2.55 -1.40 -4.80 -1.20 -5.05 0.15 -0.25 1.10 -0.45 2.10 -0.45 2.45 0 3.15 -1.15 3.45 -5.95 0.35 -4.65 -0.60 -8.85 -3.10 -13.80 -0.95 -1.90 -1.75 -3.65 -1.75 -3.85 0 -0.20 0.75 -0.70 1.70 -1.10 3.40 -1.40 3.60 -4.30 0.55 -9.25 -1 -1.65 -2.55 -3.60 -3.40 -4.35 -1.45 -1.30 -1.50 -1.40 -0.60 -1.90 0.55 -0.30 1.60 -1.15 2.35 -1.90 3.60 -3.40 0.20 -9.70 -6.85 -12.65 -4.05 -1.70 -4.40 -2 -5 -4 -2.10 -7.15 -6.50 -10.65 -14.85 -11.90 -3.65 -0.50 -5.95 -0.40 -16.90 1 -1.75 0.20 -1.75 0.20 -4 -4.05 l-2.25 -4.20 1.15 -2 c1.40 -2.55 1.40 -5.30 -0.05 -7.80 -3.25 -5.75 -11.80 -5.20 -14.10 0.90 -1 2.65 -0.75 5.35 0.65 7.30 1.55 2.05 4.05 3.50 6.15 3.50 1.90 0 1.95 0.05 3.95 4 1.10 2.25 1.90 4.25 1.75 4.55 -0.20 0.25 -1.70 1.15 -3.40 2 -5.95 3 -11.10 6.85 -16.05 11.95 -4 4.20 -5 4.95 -5.60 4.50 -0.35 -0.35 -0.70 -0.90 -0.70 -1.20 0 -0.35 -1.15 -2.45 -2.55 -4.75 -2.75 -4.50 -8.15 -10.55 -11.45 -12.80 -1.10 -0.75 -2 -1.65 -2 -2 0 -0.30 1.20 -1.90 2.65 -3.50 l2.65 -2.90 3.55 -0.05 c3.25 -0.05 3.75 -0.20 5.15 -1.55 2.40 -2.30 3.15 -4.05 2.90 -6.85 -0.45 -4.50 -3.40 -7.15 -7.90 -7.15 -3.30 0 -4.90 0.90 -6.95 3.80 -1 1.50 -1.10 2.10 -0.85 5.15 l0.25 3.45 -2.80 3.30 c-1.55 1.80 -3.05 3.35 -3.40 3.45 -0.35 0.10 -2.35 -0.45 -4.50 -1.15 -4.80 -1.60 -11.45 -2.15 -15.20 -1.25 -2.60 0.60 -2.65 0.60 -4.20 -0.90 -3.05 -2.95 -7.10 -3.85 -10.70 -2.35 -3.50 1.45 -5.20 3.85 -5.65 8 -0.25 2.45 -0.25 2.50 -3.50 4.25 -5.85 3.20 -9.20 7.60 -9.85 12.95 -0.25 2.20 -0.10 2.85 0.80 4.05 0.55 0.80 1.05 1.65 1.05 1.85 0 0.25 -1 1.75 -2.20 3.40 -6.45 8.55 -7.85 13.25 -5.20 17 l1.30 1.90 -1.40 2.80 c-2.15 4.25 -2.20 5.50 -0.50 8.90 1.45 2.85 1.45 2.90 0.55 4.15 -1.25 1.75 -2.85 4.95 -3.25 6.65 -0.40 1.75 0.30 3.20 2.60 5.20 l1.80 1.55 -1.35 2.70 c-1.80 3.55 -1.70 5.10 0.40 8.20 l1.75 2.55 -1 2.20 c-1.55 3.50 -1.35 6.05 0.75 8.35 l1.70 1.95 -0.95 1.95 c-2.30 4.40 -0.30 9.20 3.80 9.20 1.25 0 1.30 0.10 0.90 1.65 -0.80 3.30 -0.50 5.40 1 6.70 1.65 1.40 2.60 1.25 5.60 -0.90 l2.05 -1.40 1.65 1.75 c1.35 1.55 1.85 1.75 3.20 1.50 1.10 -0.20 2 0 3.05 0.70 1.90 1.25 3.30 1.25 5.90 -0.05 2.05 -1.05 2.10 -1.05 5.50 -0.20 3.50 0.90 7.35 0.80 9.35 -0.25 0.55 -0.30 1.35 -1.20 1.75 -2 1.05 -2 0.35 -4.85 -2.50 -10.65 -1.25 -2.45 -2.25 -5.10 -2.25 -5.85 0 -1.95 2.30 -3.75 6.40 -5 5.15 -1.60 6.40 -3.40 3.80 -5.45 -1.55 -1.25 -2.20 -1 -2.20 0.90 0 2.90 -2.50 3.40 -5.20 1 -2.20 -1.90 -2.60 -3.15 -1.55 -4.75 1.05 -1.65 3.25 -2.55 7.15 -3 1.95 -0.20 3.05 -0.55 2.95 -0.90 -0.15 -0.50 -1 -0.60 -5.25 -0.75 -1.55 -0.05 -3.60 -2.20 -3.60 -3.75 0 -3.15 6.25 -4.60 8.80 -2.05 1.05 1.10 1.40 1.20 2.05 0.65 0.95 -0.75 1.60 -2.45 1.30 -3.25 -0.30 -0.70 -3.25 -1.65 -5.15 -1.65 -2.55 0 -5.10 1.10 -7.05 3.05 -1.65 1.65 -1.95 2.30 -1.95 4 0 1.10 0.20 2.40 0.50 2.90 0.35 0.75 0.10 1.30 -1.25 2.70 -2.30 2.35 -2.40 4.60 -0.25 7 0.85 0.95 1.50 1.95 1.50 2.25 0 0.30 -0.80 1 -1.75 1.60 -3.05 1.85 -3 4.50 0.20 11.45 2.60 5.60 2.70 7.65 0.45 9.05 -2 1.20 -4.55 1.25 -7.70 0.20 l-2.30 -0.80 -1.60 1.55 c-2.20 2.10 -4.40 2.50 -5.50 1 -0.45 -0.65 -0.80 -1.60 -0.80 -2.10 0 -0.70 -0.20 -0.85 -0.90 -0.60 -2.85 1.20 -4.60 0.15 -4.60 -2.85 0 -1.65 -0.45 -1.75 -2.60 -0.40 -0.90 0.55 -2.40 1 -3.25 1 -1.45 0 -1.65 -0.15 -1.65 -1.25 0 -0.70 0.55 -2.40 1.25 -3.80 l1.30 -2.50 -3.15 0.15 c-3.15 0.15 -3.15 0.15 -3.30 -1.30 -0.30 -2.40 0.35 -3.80 2.85 -6.50 2.70 -2.85 3.55 -4.25 3.55 -5.80 0 -1.40 -1.35 -1.05 -4.85 1.35 -2.90 1.95 -4.15 1.90 -5.05 -0.15 -1.45 -3.15 -0.55 -5.10 4.85 -10.25 2.65 -2.45 3.55 -3.70 3.55 -4.65 0 -0.70 -0.15 -1.30 -0.40 -1.30 -0.55 0 -2.55 1.40 -4.75 3.35 -1.45 1.30 -2.05 1.55 -2.80 1.20 -1.50 -0.85 -2.15 -1.95 -2.15 -3.85 0 -1.95 1.90 -4.35 5 -6.30 0.90 -0.55 2.40 -2 3.35 -3.25 2.75 -3.60 2.05 -6.40 -0.80 -3.35 -1.65 1.80 -5.20 4.20 -6.15 4.20 -1.25 0 -2.80 -1.85 -2.80 -3.35 0 -2.65 2.40 -6.70 6.35 -10.70 2.10 -2.20 3.70 -4.10 3.50 -4.25 -0.15 -0.15 -1.60 0.65 -3.20 1.80 l-2.90 2.05 -0.90 -1.10 c-1.65 -2.05 -0.45 -5.60 3.55 -10.45 1.25 -1.50 2.75 -3.85 3.40 -5.25 2.35 -5 1.05 -5.60 -3.25 -1.50 -3.20 3.05 -4.05 3 -4.05 -0.25 0 -2.15 0.65 -3.10 5.45 -8.30 3.75 -4 7.50 -10.10 6.80 -11.15 -0.15 -0.30 -0.95 -0.55 -1.80 -0.55 -1.60 0 -3.45 -1.50 -3.45 -2.85 0 -0.45 0.45 -1.80 1.05 -3 1.30 -2.65 4.30 -4.55 7.85 -5 2.10 -0.25 2.95 -0.05 5.15 1.05 3.15 1.55 6.40 1.70 8.95 0.40 2.55 -1.25 4.85 -4.55 5.25 -7.55 0.35 -2.45 0.40 -2.55 1.95 -2.55 5.15 0 14.75 2.10 15.15 3.30 0.10 0.25 -2 2.90 -4.60 5.95 l-4.80 5.45 -3.15 0.05 c-2.60 0 -3.40 0.20 -4.90 1.35 -4.75 3.60 -4.45 9.85 0.60 13.30 1.45 1 2.20 1.15 4.65 1 2.30 -0.20 3.15 -0.50 4.40 -1.70 2.75 -2.55 3.55 -5.70 2.35 -9 -0.55 -1.50 -0.45 -1.70 2.60 -5.25 4.50 -5.30 7.50 -8.45 7.95 -8.45 1.10 0 8.85 8.05 11.30 11.70 7.70 11.60 12.70 28.95 11.55 39.95 l-0.40 3.35 -3.35 0 c-1.85 0 -3.50 -0.10 -3.65 -0.25 -0.80 -0.80 0.95 -4.60 3.15 -6.90 1.30 -1.40 2.30 -2.70 2.15 -2.95 -0.15 -0.20 -2.70 -0.40 -5.75 -0.40 -5.70 0 -6.30 0.25 -4.60 2.10 0.75 0.85 0.75 1.15 -0.05 4.65 -0.50 2.05 -1.10 3.85 -1.35 4.05 -0.25 0.15 -3.65 0.10 -7.50 -0.10 -6.45 -0.30 -7.15 -0.45 -8.50 -1.55 -2 -1.70 -2.35 -4.05 -0.95 -6.95 1.55 -3.20 4.75 -5.20 8.30 -5.20 2.30 0 2.75 0.20 3.90 1.55 1.75 2.05 1.70 4.15 -0.15 6 -0.80 0.80 -1.90 1.45 -2.45 1.45 -1.20 0 -2.40 -1.35 -2.85 -3.10 -0.65 -2.55 -2.20 -1.25 -2.25 1.75 0 1.50 2.85 3.85 4.65 3.85 3.45 0 7.30 -5.10 6.35 -8.50 -1.10 -3.85 -3.50 -5.50 -7.90 -5.50 -3.05 0 -7.05 1.95 -9.10 4.40 -1.70 2.10 -2.80 6.15 -2.30 8.80 0.80 4.15 4.40 6.25 13.05 7.50 3.05 0.45 5.70 0.80 5.95 0.80 0.50 0 0.10 3.25 -0.70 6.10 -0.40 1.35 -1.15 2.20 -3.05 3.40 -1.35 0.90 -2.40 1.90 -2.30 2.20 0.10 0.30 1.05 0.55 2.15 0.60 1.05 0.05 4.05 0.10 6.60 0.20 2.55 0.05 4.80 0 4.95 -0.20 0.20 -0.15 -0.40 -1.05 -1.25 -1.95 -1.85 -1.90 -1.90 -2.65 -0.80 -7.10 l0.80 -3.25 4.45 0 c2.45 0 4.55 0.25 4.70 0.50 0.60 1 -0.80 9.75 -2.75 16.80 -3.45 12.40 -6.70 20 -11.35 26.30 -2 2.80 -4.85 5.15 -5.65 4.65 -0.30 -0.15 -0.50 -2.20 -0.50 -4.80 0 -6.75 -1.65 -9.40 -5.90 -9.55 -5.80 -0.25 -9.45 6.25 -7.40 13.20 1.50 5.25 5.35 9.40 8.75 9.40 2.55 0 7.95 -3.40 11.10 -7 1.40 -1.65 2.75 -2.90 2.95 -2.75 0.20 0.15 0.50 0.95 0.70 1.80 0.75 3.85 3.80 6.55 8.25 7.25 6.55 1.05 13.90 -5.95 12.05 -11.50 -0.55 -1.70 -2.95 -4.25 -4.85 -5.25 -4.10 -2.10 -9.60 2.55 -8.45 7.15 0.50 2.10 2 1.55 2.20 -0.80 0.10 -1.30 0.55 -2.20 1.45 -2.90 1.75 -1.40 2.80 -1.25 4.90 0.55 2.35 2.05 2.35 3.95 0.10 6.20 -4.15 4.15 -11.55 3.15 -12.85 -1.70 -0.60 -2.35 -0.20 -4.50 2 -10.60 2.15 -6.05 6.40 -20.05 7.50 -24.80 0.55 -2.20 1.10 -5.90 1.30 -8.10 l0.35 -4.05 3.40 0 c1.85 0 3.50 0.20 3.70 0.45 0.15 0.30 -0.20 2.45 -0.80 4.80 -1.05 4.15 -1.20 4.40 -3.50 6.15 -1.35 1 -2.45 1.95 -2.45 2.15 0 0.50 2.45 0.90 8.25 1.25 5.25 0.35 6.15 0.10 4.50 -1.30 -1.40 -1.15 -0.35 -11 1.25 -12 0.80 -0.50 6.15 0.75 8.90 2.10 2.75 1.30 5.10 4.45 5.10 6.75 0 1.80 -1.45 5.05 -2.70 6.10 -1.15 1 -3.55 0.80 -5.55 -0.45 -2.15 -1.30 -2.95 -2.95 -2.25 -4.75 0.70 -1.80 3.30 -1.75 4.75 0.10 1.25 1.50 2.25 1.20 2.25 -0.65 0 -2.40 -3.50 -4.70 -6.20 -4 -2.45 0.60 -3.75 6.70 -2 9.25 1.15 1.65 5.50 3.55 8.15 3.55 1.85 0 2.45 -0.25 3.80 -1.75 1.60 -1.65 2.75 -5 2.75 -7.95 0 -2.65 -1.70 -6.05 -4.45 -8.85 -2.50 -2.55 -3.15 -2.90 -5.80 -3.45 -1.65 -0.30 -3.65 -0.65 -4.40 -0.80 -1.35 -0.30 -1.40 -0.40 -1.10 -2.10 0.55 -2.95 1.35 -4.25 3.50 -5.45 3.20 -1.80 2.65 -2.35 -3.25 -3 -9.55 -1.05 -10.15 -0.90 -7.75 1.95 1.35 1.60 1.65 4.20 0.75 5.95 -0.55 1 -1.80 1.15 -5.60 0.65 l-2.25 -0.30 -0.30 -6.85 c-0.20 -4.05 -0.90 -10.05 -1.80 -14.95 -1.85 -10.20 -1.80 -10.45 3.80 -17.30 3.70 -4.45 8.85 -8.80 14.30 -12.10 3.35 -2.05 4 -2.25 4.60 -1.65 0.95 1 6.25 11.15 6.25 12 0 0.40 -0.45 1.60 -1 2.70 -1.25 2.50 -1.25 4.40 0.05 7.05 1.35 2.85 3.65 4.25 6.95 4.30 6.20 0 9.95 -6.25 6.90 -11.65 -1.35 -2.45 -2.90 -3.45 -5.85 -3.85 l-2.30 -0.35 -3.25 -6.35 c-2.30 -4.50 -3.10 -6.50 -2.70 -6.90 1.80 -1.80 16.05 -1.50 20.30 0.40 5.75 2.55 8.80 8.05 6.75 12.10 -0.75 1.50 -4.10 3.50 -5.90 3.50 -1.80 0 -3.95 -1.80 -3.95 -3.25 0 -1.55 0.75 -2 3.50 -2 1.80 0 2.25 -0.20 2.40 -0.95 0.25 -1.30 -1.20 -2.30 -3.20 -2.30 -2.50 0 -4.10 0.80 -5.20 2.60 -1.85 3 -0.35 6.10 3.95 8 3.45 1.60 7.05 0.50 10.75 -3.20 1.70 -1.75 2.15 -1.95 3.65 -1.75 3 0.50 7.15 4.50 7.15 6.90 0 1.95 -1.75 3.10 -4.95 3.35 -2.15 0.15 -3.05 0.40 -3.05 0.90 0 0.75 3.35 4.20 7.40 7.60 2.60 2.20 3.50 4.10 2.85 6.15 -0.30 0.95 -0.60 1.05 -3.20 0.75 -5.80 -0.60 -5.80 -0.60 -5.95 0.45 -0.10 0.65 0.80 1.95 2.35 3.65 4.25 4.55 8.20 13.85 7.35 17.25 -0.45 1.80 -2.65 1.85 -4.30 0.10 -0.65 -0.70 -1.70 -1.25 -2.35 -1.25 -1.20 0 -1.45 0.50 -0.70 1.25 1.10 1.10 4.05 9.05 4.35 11.55 0.40 3.15 -0.60 5.20 -2.50 5.20 -1.30 0 -3.95 -1.10 -5.65 -2.30 -0.75 -0.55 -1.15 -0.60 -1.15 -0.25 0 1.30 1.55 3.45 4.20 5.70 1.95 1.65 2.95 2.95 3.35 4.35 1.20 4 -0.90 5.50 -5.95 4.20 -1.55 -0.40 -3 -0.65 -3.30 -0.55 -0.25 0.10 1 1.65 2.85 3.50 1.85 1.85 3.35 3.60 3.35 3.95 0 0.55 -1.90 0.45 -7.45 -0.40 -2.95 -0.45 -2.65 0.35 1.60 3.75 4.60 3.70 5.05 6 1.20 6.05 l-1.45 0 1.05 1.70 c1.45 2.35 1.40 4.20 -0.20 4.60 -1.75 0.45 -4.25 -0.10 -6.95 -1.55 l-2.30 -1.20 0 2.50 c0 2 -0.25 2.75 -1.20 3.70 -1.55 1.55 -2.50 1.30 -4.90 -1.40 l-1.85 -2.05 -1.25 1.35 c-0.70 0.75 -1.45 1.35 -1.75 1.35 -0.25 0 -2 -1.25 -3.90 -2.75 -1.85 -1.50 -3.55 -2.75 -3.75 -2.75 -0.15 0 -0.90 1.20 -1.55 2.70 -0.70 1.50 -2.15 3.60 -3.30 4.75 -1.85 1.85 -2.30 2.05 -4.45 2.05 -2.75 0 -4.05 -0.80 -5.65 -3.30 -1.05 -1.70 -1.10 -2.15 -0.75 -8.15 l0.30 -6.30 1.75 -1.50 c1.95 -1.70 3.45 -4.85 3 -6.30 -0.20 -0.55 0.25 -2.10 1.05 -3.75 1.15 -2.35 1.30 -3.05 0.90 -4.55 -0.70 -2.80 -2.50 -3.85 -6.50 -3.75 -3.55 0.05 -5.10 0.85 -4.55 2.35 0.25 0.65 0.95 0.75 3.45 0.65 3.10 -0.15 3.15 -0.15 3.30 1.25 0.25 1.95 -0.55 2.65 -3.30 3.05 -1.30 0.15 -2.65 0.50 -3.05 0.75 -1.25 0.80 -0.20 1.95 2.15 2.30 2.70 0.45 3.40 1.15 3.20 3.35 -0.20 2 -2.05 3.25 -4.10 2.70 -1 -0.25 -1.60 -0.95 -2.30 -2.55 -0.55 -1.25 -1.25 -2.25 -1.65 -2.25 -1.95 0 -2.50 3.50 -0.85 5.60 0.55 0.70 1.90 1.65 3 2.10 l2.05 0.80 -0.15 7.15 c-0.15 7.10 -0.15 7.10 1.25 9.20 2 2.90 3.85 3.75 7.70 3.50 2.15 -0.15 3.80 -0.65 5.30 -1.50z"/>
  <path d="M59.25 138.35 c-1.60 -1.60 -2.75 -4.40 -2.75 -6.75 0 -2.15 1.35 -4.55 2.80 -4.90 3 -0.75 4.70 2.20 4.70 8.10 0 2.45 -0.25 4.25 -0.60 4.60 -1 1 -2.45 0.65 -4.15 -1.05z"/>
  <path d="M121.80 50.95 c-0.70 -0.85 -1.30 -2.05 -1.30 -2.70 0 -0.65 0.60 -1.85 1.30 -2.70 2.15 -2.55 5.95 -2.05 7.20 0.90 1.25 3.10 -0.70 6.05 -3.95 6.05 -1.60 0 -2.20 -0.30 -3.25 -1.55z"/>
  <path d="M43.85 48.95 c-1.35 -0.80 -2.45 -3.35 -2.10 -4.90 1.15 -5.30 9.25 -4.65 9.25 0.70 0 3.50 -4.15 5.95 -7.15 4.20z"/>
  <path d="M29.60 28.50 c-3.65 -2.25 -3.40 -8.25 0.40 -10.25 4.10 -2.10 8.50 0.65 8.50 5.35 0 4.75 -4.80 7.40 -8.90 4.90z"/>
  <path d="M75.65 13.25 c-4.40 -1.90 -3.20 -8.75 1.55 -8.75 5.15 0 6.75 6.85 2.05 8.80 -2 0.80 -1.60 0.85 -3.60 -0.05z"/>
  <path d="M102.35 12.50 c-0.70 -0.55 -1.40 -1.65 -1.60 -2.45 -0.35 -1.65 0.75 -4.25 2 -4.75 4 -1.50 7.85 2.10 6 5.65 -1.35 2.70 -4.10 3.35 -6.40 1.55z"/>
 </g>
</svg>