<?xml version="1.0" encoding="utf-8"?>
<!DOCTYPE svg PUBLIC "-//W3C//DTD SVG 1.0//EN" "http://www.w3.org/TR/2001/REC-SVG-20010904/DTD/svg10.dtd">
<svg version="1.0" xmlns="http://www.w3.org/2000/svg" width="171px" height="139px" viewBox="0 0 171 139" preserveAspectRatio="xMidYMid meet">
 <g fill="#000000">
  <path d="M78.75 137.45 c-6.05 -0.40 -10.15 -1.25 -16.45 -3.35 -13.65 -4.60 -24.90 -15.95 -29.60 -29.85 l-1.30 -4 0.15 -23.50 0.20 -23.50 -2.50 0 -2.45 0 -1.15 4.25 c-1.95 7.20 -2.55 9.95 -2.25 10.20 0.15 0.15 1 0.30 1.90 0.30 2.05 0 4.45 1.95 5.20 4.25 0.75 2.30 -0.05 4.80 -2.15 6.55 -1.30 1.10 -1.90 1.25 -3.85 1.10 l-2.30 -0.25 -0.55 3.75 c-0.80 5.45 -3.10 8.05 -7.50 8.45 -3.60 0.30 -6.50 -1.35 -8.15 -4.60 -1.55 -3.15 -1.95 -10.25 -0.85 -15.40 0.60 -2.95 0.60 -3.50 0 -3.70 -0.40 -0.15 -1.20 0.20 -1.85 0.80 -2 1.90 -2.35 1 -1 -2.45 0.70 -1.75 1.30 -2.30 4.40 -3.85 1.95 -1 5.30 -2.90 7.45 -4.30 2.35 -1.50 4.10 -2.30 4.35 -2.05 0.30 0.30 -0.20 2.95 -1.20 6.70 -0.95 3.45 -1.85 6.85 -2 7.60 -0.35 1.55 -3.25 5.10 -3.75 4.60 -0.15 -0.15 -0.30 -1.40 -0.30 -2.80 0 -3 -1.15 -4.25 -2.55 -2.80 -1.25 1.25 -2.10 9.60 -1.30 13.30 1 4.85 5.15 7.35 8.70 5.25 2.75 -1.60 3.15 -3 3.20 -11.15 0.05 -7.30 0.45 -10.05 2.70 -18.05 1.55 -5.65 1.45 -5.95 -1.35 -5.95 -1.70 0 -2.65 0.30 -3.45 1.05 -2.10 1.95 -6.45 2.10 -8.70 0.30 -2.65 -2.05 -3.30 -6.25 -1.50 -9.25 2.70 -4.40 10.20 -3.75 12 1 1.05 2.95 1.25 3.15 3.30 3.15 1.80 0 2.05 -0.20 2.95 -2 0.85 -1.80 1 -3.45 1.25 -15.75 0.35 -16 0.50 -16.65 5.25 -21.25 4.70 -4.60 8.20 -4.85 10.40 -0.65 1.85 3.65 1.70 4.95 -1.65 13.65 -3.85 9.85 -4.80 14.65 -4.10 20.65 0.25 2.30 0.75 4.45 1.05 4.75 0.70 0.70 8.45 1.15 9.05 0.55 0.50 -0.50 0.85 -20.50 0.40 -21 -0.50 -0.50 -2.30 0.75 -2.65 1.80 -0.15 0.55 -0.65 1 -1.05 1 -0.55 0 -0.70 -0.90 -0.70 -4.20 0 -2.35 0.20 -4.35 0.50 -4.55 0.25 -0.15 0.85 0.30 1.30 1 1.30 2 2.90 1.50 3.10 -0.90 0.15 -1.55 -0.10 -2.10 -1.40 -3.25 -0.85 -0.80 -1.35 -1.55 -1.20 -1.75 0.20 -0.20 2.35 -0.35 4.80 -0.35 4.80 0 5.60 0.55 2.90 2.10 -1.30 0.75 -1.50 1.10 -1.50 3.15 0 2.05 0.10 2.25 1.15 2.25 0.80 0 1.40 -0.45 1.80 -1.30 1.10 -2.45 1.80 -1.10 1.70 3.35 -0.05 3.35 -0.25 4.25 -0.85 4.35 -0.45 0.10 -0.80 -0.15 -0.80 -0.55 0 -0.40 -0.45 -1.10 -1 -1.60 -1.90 -1.75 -2.20 -0.50 -2.20 10.35 l-0.05 10.15 1.40 0.15 c1.20 0.15 1.45 -0.10 2.40 -2.25 0.55 -1.30 1.35 -3.95 1.80 -5.90 1 -4.60 0.95 -16.40 -0.15 -22.15 -1.35 -7.20 0.30 -14.05 4.10 -17.05 1.90 -1.50 5.35 -1.45 6.95 0.15 1.90 1.95 2.05 4.80 0.55 13.80 -2.45 14.60 -2.75 27.10 -0.80 32.20 0.45 1.20 0.70 1.35 2.60 1.20 l2.15 -0.15 0.15 -10.35 c0.10 -10.10 0.10 -10.40 -0.90 -10.40 -0.55 0 -1.35 0.55 -1.80 1.25 -0.45 0.70 -1 1.25 -1.25 1.25 -0.25 0 -0.45 -1.90 -0.45 -4.25 0 -2.35 0.15 -4.25 0.35 -4.25 0.20 0 0.85 0.60 1.45 1.35 1.60 2.05 2.80 1.30 2.60 -1.70 -0.10 -1.95 -0.35 -2.50 -1.25 -2.90 -0.65 -0.25 -1.15 -0.90 -1.15 -1.35 0 -0.80 0.55 -0.90 4.50 -0.90 5 0 5.35 0.30 3 2.50 -1.45 1.35 -1.85 2.95 -1.20 4.70 0.45 1.20 1.50 0.95 2.60 -0.55 1.45 -2 2.10 -1.10 2.10 3 0 4.55 -0.55 5.60 -1.75 3.40 -0.60 -1.20 -1.10 -1.55 -1.90 -1.45 -1.10 0.15 -1.10 0.30 -1.25 10.45 -0.10 8 0 10.40 0.50 10.55 0.35 0.10 1.85 0.10 3.25 0 2.50 -0.20 2.65 -0.25 2.85 -1.75 0.75 -4.65 0.80 -10.95 0.20 -17.40 -0.35 -3.95 -0.65 -9.65 -0.65 -12.70 0 -4.90 0.15 -5.75 1.25 -7.95 1.60 -3.05 3.25 -4.35 6.10 -4.65 1.90 -0.20 2.45 -0.05 3.85 1.15 3.45 2.90 3.80 6.40 1.55 15.20 -2.05 7.75 -2.60 19.30 -1.15 24.75 l0.90 3.50 3 0 3 0 0.15 -10.20 c0.05 -6.35 -0.05 -10.40 -0.40 -10.75 -0.55 -0.55 -2.50 0.95 -2.50 2.05 0 0.35 -0.35 0.65 -0.75 0.65 -0.60 0 -0.75 -0.85 -0.75 -4.50 0 -2.45 0.20 -4.50 0.45 -4.50 0.25 0 0.80 0.55 1.25 1.25 0.45 0.70 1.25 1.25 1.80 1.25 0.85 0 1 -0.35 1 -2.50 0 -2.20 -0.15 -2.60 -1.25 -3.10 -1.55 -0.70 -1.65 -1.90 -0.10 -1.95 2.20 -0.10 7.60 0.15 7.85 0.40 0.15 0.10 -0.35 0.70 -1.15 1.25 -1.15 0.85 -1.35 1.35 -1.35 3.45 0 2.05 0.15 2.45 0.90 2.45 0.55 0 1.20 -0.60 1.55 -1.30 0.30 -0.70 0.85 -1.20 1.20 -1.05 0.80 0.25 0.85 8.45 0 8.70 -0.30 0.10 -0.70 -0.25 -0.90 -0.80 -0.35 -1.15 -2.15 -2.35 -2.65 -1.80 -0.20 0.15 -0.35 4.95 -0.35 10.65 l0 10.35 2.35 0.15 c1.90 0.10 2.45 -0.05 2.85 -0.85 0.30 -0.55 0.90 -4.45 1.30 -8.65 1.85 -18.55 3.10 -23.25 7.25 -27.50 2.95 -3.05 4.95 -3.80 8.20 -3.20 2.30 0.45 5.50 2.85 7.15 5.40 1.15 1.70 1.40 2.60 1.35 5.10 0 3.70 -1 5.85 -7 15.55 -7.40 11.95 -7.70 12.40 -7.70 13.10 0 1.65 1.60 1.20 3.65 -1 2.70 -2.90 4.85 -3.40 7.95 -1.90 1.20 0.55 2.55 1.70 3.05 2.55 0.50 0.80 1.25 1.50 1.65 1.50 0.60 0 0.65 -0.85 0.40 -5.35 -0.35 -6.05 0.15 -8 2.80 -11.90 1.45 -2.15 1.50 -2.30 0.75 -3.70 -1.60 -3.15 -0.45 -7.10 2.50 -8.35 2.20 -0.90 2.95 -0.90 5.05 0.10 1.95 0.95 2.75 2.15 3.15 4.70 0.45 2.55 2.10 2.70 3 0.25 1.05 -2.90 4.15 -4 7.05 -2.50 2.85 1.45 3.40 5.10 1.20 7.70 l-1.30 1.55 1.10 2.85 c1.80 4.80 2.50 9.90 2.50 18 0 7.15 0.05 7.60 1 7.90 5.05 1.60 5.90 8.25 1.70 13.20 -2.10 2.45 -3.75 3.25 -5.85 2.75 l-1.50 -0.30 0.35 -7.30 0.35 -7.30 -2.50 2.35 c-1.40 1.30 -3.10 2.60 -3.80 2.85 -3.25 1.25 -7.15 0.20 -10.70 -2.80 -0.90 -0.70 -1.65 -1.25 -1.75 -1.15 -0.05 0.10 -0.60 5.75 -1.20 12.55 -1.45 16.20 -4 28.15 -7.50 35.15 -6.20 12.50 -18.75 22.25 -32.10 25.05 -8.10 1.65 -12.25 1.85 -22.25 1.15z m21.65 -4.70 c11.80 -4 19.95 -11.80 29.25 -28 4.60 -8 7.35 -17.45 8.35 -28.45 0.55 -5.75 0.65 -15.80 0.20 -15.80 -0.15 0 -1.30 0.90 -2.50 1.95 -2.95 2.60 -5.10 3.55 -8.05 3.55 -3.05 0 -6.25 -1.90 -8.35 -4.90 -0.80 -1.15 -1.65 -2.10 -1.85 -2.10 -0.25 0 -0.45 2.30 -0.45 5.05 l0 5.05 1.90 1.90 c1.10 1.05 2.10 2.55 2.25 3.45 0.45 2.20 -0.75 4.85 -2.65 5.95 l-1.50 0.85 0.10 4.25 c0.15 4.20 0.15 4.25 1.50 4.40 0.95 0.10 1.50 -0.15 1.90 -0.90 0.85 -1.55 3.50 -3 5.60 -3 3.35 0 6.45 3.95 5.60 7.20 -0.15 0.75 -1 2 -1.80 2.80 -1.25 1.25 -1.85 1.50 -4 1.50 -2.25 0 -2.70 -0.20 -4.55 -2 -3.05 -3.05 -4 -2.65 -4.45 1.75 -0.55 4.80 -0.30 5.65 1.75 5.85 2.25 0.20 3.50 2.65 3.20 6.30 -0.30 4.40 -3.10 6.90 -5.40 4.80 -0.95 -0.85 -1.05 -0.85 -2.40 -0.05 -2.90 1.70 -4.65 0.70 -5.50 -3.20 -0.80 -3.60 0.75 -7.70 3.05 -8.05 1.10 -0.15 1.15 -0.35 1.15 -4.65 l0 -4.50 -4.70 -0.15 c-3.45 -0.10 -4.85 0.05 -5.15 0.50 -0.20 0.35 -0.40 2.30 -0.40 4.30 0 3.50 0.05 3.60 1.25 3.60 0.90 0 1.40 -0.35 1.75 -1.30 0.30 -0.70 0.80 -1.20 1.15 -1.05 0.45 0.15 0.55 1.35 0.45 4.40 -0.10 2.30 -0.30 4.30 -0.40 4.45 -0.15 0.10 -0.75 -0.45 -1.40 -1.25 -1.50 -1.90 -2.80 -1.45 -2.80 1 0 1.25 0.35 2.15 1.25 2.95 0.70 0.65 1.25 1.40 1.25 1.75 0 0.70 -8.30 0.80 -8.75 0.10 -0.15 -0.25 0.40 -0.95 1.25 -1.55 1.30 -0.90 1.50 -1.40 1.50 -3.30 0 -1.85 -0.15 -2.20 -0.95 -2.20 -0.55 0 -1.30 0.40 -1.65 0.90 -0.35 0.55 -1.15 1.20 -1.70 1.50 -0.70 0.35 -1.20 1.25 -1.40 2.55 -0.20 1.30 -0.75 2.35 -1.60 3 -1.65 1.30 -2.25 1.30 -3.90 0 -1.20 -0.95 -1.45 -1 -2.20 -0.35 -2.10 1.80 -4.30 1.25 -5.35 -1.35 -1.70 -4 -0.25 -8.95 2.75 -9.60 l1.50 -0.25 0 -4.50 0 -4.45 -5.10 0.15 -5.15 0.15 -0.15 3.90 c-0.10 3.25 0 3.90 0.70 4.20 0.60 0.20 1.20 -0.15 1.95 -1.10 0.65 -0.75 1.35 -1.25 1.55 -1.10 0.25 0.15 0.40 2 0.40 4.20 -0.05 3.15 -0.25 3.95 -0.90 4.05 -0.45 0.10 -0.80 -0.05 -0.80 -0.35 0 -0.25 -0.35 -0.85 -0.80 -1.30 -1.15 -1.15 -2.20 -0.10 -2.20 2.25 0 1.50 0.30 2.15 1.35 2.90 0.80 0.55 1.20 1.20 1 1.40 -0.55 0.60 -7.80 0.65 -8.15 0.10 -0.15 -0.25 0.30 -1 1.05 -1.70 1.10 -1 1.30 -1.55 1.15 -3.30 -0.20 -2.50 -0.95 -2.90 -2.45 -1.20 -0.65 0.70 -1.30 1.30 -1.55 1.30 -0.20 0 -0.40 -1.90 -0.40 -4.25 0 -2.35 0.20 -4.25 0.40 -4.25 0.25 0 0.90 0.60 1.55 1.30 0.60 0.70 1.35 1.20 1.70 1.05 0.90 -0.25 1.10 -7.90 0.25 -8.40 -0.35 -0.25 -2.60 -0.45 -5 -0.45 -5.25 0 -5.50 0.25 -5.30 5.55 l0.15 3.55 1.75 0.60 c2.20 0.70 3.25 2.70 3.20 6.15 0 1.85 -0.30 3.05 -1.05 4 -1.30 1.80 -3.60 2.10 -4.85 0.70 -0.90 -1 -0.90 -1 -2.30 0.05 -1.95 1.40 -3.65 0.90 -4.75 -1.40 -1.85 -3.90 0 -9.70 3.05 -9.70 1.40 0 1.70 -0.85 1.70 -4.75 0 -4.75 0 -4.75 -4.30 -4.75 -3.20 0 -3.75 0.15 -4.20 1.05 -0.30 0.55 -1.30 1.45 -2.15 1.95 -4.15 2.55 -8.85 -0.30 -8.85 -5.30 0 -1.40 0.40 -2.20 1.70 -3.50 1.45 -1.45 2.05 -1.70 4.10 -1.70 2.10 0 2.55 0.20 4.30 2 l1.90 2.05 3.65 -0.15 3.60 -0.15 0.15 -3.95 0.15 -3.90 -2.05 -1.90 c-1.80 -1.65 -2 -2.10 -2 -4.25 0 -2.15 0.20 -2.60 2 -4.30 l2 -1.90 0 -7.75 c0 -5.05 -0.20 -7.85 -0.55 -8.10 -0.30 -0.15 -1.90 1.15 -3.60 2.95 -1.70 1.80 -3.75 3.55 -4.50 3.80 -3.65 1.40 -7.95 -0.10 -10.15 -3.45 -0.75 -1.10 -1.55 -2 -1.75 -2 -0.40 0 -0.75 20.85 -0.60 36.05 0.10 10.15 1.40 14.25 7.05 21.95 6.90 9.50 15.10 15.75 25.10 19.20 6.35 2.20 10.85 2.80 20.25 2.60 7.80 -0.10 8.85 -0.25 12.65 -1.55z m12.10 -20.25 c2.35 -1.25 2 -6.55 -0.45 -6.90 -0.75 -0.15 -1.50 0.15 -1.90 0.70 -0.90 1.20 -0.80 4.25 0.15 5.60 0.85 1.25 0.95 1.30 2.20 0.60z m-27.80 -1.10 c1.45 -2.05 0.50 -6.40 -1.40 -6.40 -2.20 0 -3.30 4.95 -1.50 6.70 1.05 1.10 2 1 2.90 -0.30z m6.80 0.35 c0.85 -1.05 0.90 -4.45 0.05 -5.45 -1.05 -1.25 -3 -1 -3.55 0.50 -0.65 1.65 -0.65 3.50 0 4.75 0.65 1.15 2.60 1.25 3.50 0.20z m28.10 -0.10 c1.55 -1.40 1 -5.60 -0.85 -6.35 -1.25 -0.45 -2.75 1.45 -2.75 3.50 0 3.35 1.60 4.65 3.60 2.85z m-63.40 -0.75 c1.85 -2.60 0.10 -7.10 -2.25 -5.90 -2.65 1.45 -2.20 7 0.60 7 0.50 0 1.25 -0.50 1.65 -1.10z m6.50 0 c1.50 -2.10 0.55 -6.40 -1.35 -6.40 -1.30 0 -2.35 1.70 -2.35 3.80 0 3.35 2.15 4.85 3.70 2.60z m31.75 -9 c0.05 -2.70 0.55 -3 1.75 -1.15 0.45 0.70 1.25 1.25 1.80 1.25 0.90 0 1 -0.35 1 -4.25 l0 -4.25 -5.25 0 -5.25 0 0 4.40 0 4.40 1.60 0.45 c0.95 0.30 2.05 1.15 2.65 2.05 0.95 1.50 1 1.50 1.35 0.50 0.15 -0.55 0.30 -2.10 0.35 -3.40z m32.70 -6.95 c3.25 -1.50 2.30 -6.45 -1.25 -6.45 -3.20 0 -4.60 4 -2.10 5.95 1.55 1.20 1.75 1.25 3.35 0.50z m-81.65 -1.80 c1.25 -1.60 1 -3.45 -0.60 -4.75 -3.10 -2.70 -7.45 1.50 -4.90 4.75 0.80 1 1.50 1.35 2.75 1.35 1.25 0 1.95 -0.35 2.75 -1.35z m49.70 -3.95 c0 -0.25 -0.30 -1.10 -0.65 -1.95 -1.20 -2.85 0.05 -6.80 2.70 -8.55 1.60 -1.05 5.35 -1 7.20 0.10 2.85 1.70 3.75 5.65 2.30 10.10 -0.35 1.05 -0.25 1.10 2.90 1.10 3.80 0 3.85 -0.05 3.85 -4.90 0 -3.15 -0.10 -3.40 -1.85 -5.25 -1.70 -1.70 -1.90 -2.20 -1.90 -4.40 0 -2.30 0.20 -2.70 1.90 -4.25 l1.85 -1.70 0 -7.75 c0 -8.20 -0.35 -9.45 -2.10 -7.20 -2.95 3.85 -6.30 5.45 -11.35 5.45 -3.45 0 -5.25 -1.05 -7.15 -4.05 -1.30 -2.10 -1.75 -2.50 -2.85 -2.35 l-1.30 0.15 -0.15 7.70 -0.15 7.70 2.05 1.85 c1.80 1.65 2 2.10 2 4.25 0 2.15 -0.20 2.60 -2 4.30 l-2 1.90 0 4 0 4 2.65 0.15 c3.45 0.20 4.10 0.15 4.05 -0.40z m-28.20 -0.05 c0 -0.20 -0.35 -1.30 -0.80 -2.45 -1.90 -4.95 2.30 -9.95 7.55 -9 4.10 0.80 6.40 4.85 5 8.90 -0.40 1.20 -0.75 2.30 -0.75 2.55 0 0.20 1.45 0.35 3.25 0.35 l3.25 0 0 -4.45 c0 -4.10 -0.10 -4.50 -1.15 -5.20 -2.95 -1.90 -2.95 -6.25 -0.10 -8.95 l1.75 -1.60 0 -7.90 c0 -9.10 -0.05 -9.15 -3.90 -5.95 -3.20 2.65 -6.15 4.05 -8.65 4.05 -2.10 0 -2.75 -0.50 -6.95 -5.35 -1.05 -1.25 -3.90 -1.55 -4.90 -0.55 -0.40 0.40 -0.60 2.90 -0.60 8.05 l0 7.40 1.70 1.65 c0.95 0.90 1.90 2.25 2.10 3 0.50 2.15 -0.65 5.25 -2.35 6.20 -1.40 0.85 -1.45 0.90 -1.45 5.25 l0 4.35 3.50 0 c1.95 0 3.50 -0.15 3.50 -0.35z m36.45 -1.45 c2.95 -2.50 1.30 -7.20 -2.50 -7.20 -4.30 0 -5.55 5.80 -1.70 7.90 1.55 0.85 2.55 0.70 4.20 -0.70z m-28.10 -0.30 c1.25 -1.15 1.55 -3.70 0.65 -5.35 -0.80 -1.55 -3.25 -2.30 -5.05 -1.50 -1.75 0.70 -3.15 3.30 -2.60 4.80 1.10 3.10 4.75 4.20 7 2.05z m13.90 -9.65 c2.15 -2.10 1.15 -5.30 -1.75 -6 -1.90 -0.45 -4 1.35 -4 3.40 0 1.85 0.35 2.45 1.75 3.25 1.55 0.90 2.70 0.70 4 -0.65z m28.50 0 c0.70 -0.65 1.25 -1.65 1.25 -2.25 0 -1.45 -2.20 -3.50 -3.75 -3.50 -1.70 0 -3.25 1.65 -3.25 3.50 0 3.20 3.50 4.55 5.75 2.25z m-57.25 -0.25 c2.55 -2.55 -0.55 -7.05 -3.65 -5.45 -1.50 0.80 -1.85 1.40 -1.85 3.30 0 2.80 3.45 4.20 5.50 2.15z m-33.25 -1.25 c1.50 -1.50 1.55 -2.70 0.20 -4.45 -2.10 -2.65 -6.10 -1.15 -6.10 2.30 0 3.10 3.65 4.45 5.90 2.15z m138.70 -3.10 c2.10 -2.55 1.85 -3.40 -0.95 -3.40 l-2.25 0 -0.15 2.65 c-0.15 2.30 -0.05 2.60 0.85 2.60 0.55 0 1.65 -0.85 2.50 -1.85z m1.95 -6.45 c0.10 -1.25 -0.15 -1.85 -1.20 -2.65 -2.45 -1.90 -4.20 -0.95 -4.20 2.35 0 1.95 0.35 2.15 3 2 2.10 -0.15 2.25 -0.25 2.40 -1.70z m-13.65 -3.15 c3.40 -1.55 3.55 -2.10 1.05 -4.20 l-2.20 -1.80 -0.30 1.70 c-0.65 3.25 -4.70 4.40 -7.05 2 -1.75 -1.70 -1.65 -3.80 0.30 -5.70 l1.55 -1.55 -3.05 0 -3.05 0 0 2.65 c0 2.45 0.15 2.80 2.15 4.70 1.15 1.15 2.65 2.30 3.35 2.60 1.95 0.75 5.05 0.60 7.25 -0.40z m-22.85 -0.90 c3.15 -1.50 7.65 -6.85 6.85 -8.15 -0.70 -1.10 -2.50 -0.40 -4.45 1.75 -2 2.15 -2.25 2.25 -4.90 2.25 -3.10 0 -4.85 -1 -6.15 -3.55 -1.50 -2.90 -2.90 -1.05 -1.50 2 0.45 1.05 1.65 2.75 2.65 3.80 2.85 2.90 4.50 3.30 7.50 1.90z m19 -1.95 c1.60 -1.10 1.50 -3.45 -0.20 -4.55 -1.20 -0.75 -1.45 -0.75 -2.65 -0.10 -1.60 0.90 -2 3.15 -0.75 4.50 1.05 1.15 2.10 1.20 3.60 0.15z m9.10 -2.15 c0.25 -0.55 0.50 -3.95 0.50 -7.55 l0 -6.55 -1.10 0.35 c-5.85 1.80 -7.40 9.90 -2.60 13.65 1.65 1.30 2.50 1.35 3.20 0.10z m-111.05 -2.55 c1.40 -1.10 2.55 -2.25 2.55 -2.50 0 -0.65 -11.35 -0.65 -11.70 -0.05 -0.45 0.75 4.05 4.55 5.40 4.55 0.65 0 2.35 -0.90 3.75 -2z m57.80 -0.05 c0.95 -0.85 1.60 -1.75 1.45 -2 -0.15 -0.25 -2.75 -0.45 -5.75 -0.45 -4.95 0 -5.50 0.10 -5.35 0.85 0.25 1.45 3.35 3.15 5.70 3.15 1.70 0 2.55 -0.35 3.95 -1.55z m-28.65 -0.40 c0.90 -0.80 1.50 -1.60 1.35 -1.75 -0.40 -0.40 -8.90 -0.50 -9.30 -0.10 -0.20 0.15 0.30 1 1.10 1.80 1.95 2.05 4.60 2.05 6.85 0.05z m53.45 -0.05 c0.50 -0.30 0.95 -0.85 0.95 -1.25 0 -0.60 -0.75 -0.75 -3.25 -0.75 -2.50 0 -3.25 0.15 -3.25 0.75 0 1.50 3.50 2.30 5.55 1.25z m21.15 -0.70 c-0.15 -0.45 -0.80 -0.80 -1.40 -0.80 -1 0 -1 0.05 0.20 1 1.40 1.05 1.65 1 1.20 -0.20z m-136.30 -3.15 c1.55 -1.70 1.45 -3.90 -0.35 -5.70 -1.65 -1.60 -2.90 -1.80 -5 -0.70 -3.25 1.65 -2.60 6.65 0.95 7.90 1.30 0.45 3.20 -0.20 4.40 -1.50z m116.30 -1.60 c0.50 -0.80 -1.75 -2.25 -3.45 -2.25 -1.70 0 -3.95 1.45 -3.45 2.25 0.15 0.25 1.70 0.45 3.45 0.45 1.75 0 3.30 -0.20 3.45 -0.45z m20.25 -1.30 c1.05 -2.25 2.55 -3.70 5.20 -5.05 1.30 -0.65 2.35 -1.45 2.35 -1.70 0 -0.30 -0.45 -1.80 -1 -3.35 -2.20 -6.25 -7.80 -9.10 -13.45 -6.85 -2.35 0.95 -4.65 4.20 -5.55 7.80 -0.85 3.25 -0.45 9.35 0.60 10.10 0.50 0.35 2.75 0.60 5.95 0.55 l5.20 0 0.70 -1.50z m-63.20 0.95 c0.70 -0.30 0.75 -0.95 0.45 -5.40 -0.40 -6.50 0.50 -16.45 2.05 -22.40 1.55 -5.90 1.60 -8.80 0.20 -10.60 -1.50 -1.95 -3.20 -2.45 -4.85 -1.60 -2.90 1.50 -2.95 1.70 -1.80 21.90 0.20 3.60 0.10 7.95 -0.30 11.40 -0.45 4.35 -0.45 5.70 0 6.25 0.65 0.75 2.80 1 4.25 0.45z m28.25 -3.60 c0.80 -2 3.20 -6.50 5.35 -10 4.95 -8.15 7.15 -13.10 7.15 -16.25 0 -2 -0.25 -2.65 -1.70 -4.25 -1.50 -1.65 -2 -1.85 -4.05 -1.85 -2.15 0 -2.55 0.20 -4.45 2.30 -2.50 2.75 -4.45 7.55 -5.50 13.45 -0.90 5.05 -2 18.75 -1.60 19.80 0.20 0.50 0.80 0.70 1.85 0.60 1.40 -0.15 1.65 -0.45 2.95 -3.80z m-84.70 -1.85 c0.10 -4.45 0.40 -6.15 3.15 -15.70 1.70 -5.90 3.05 -11.35 3.05 -12.15 0 -1.45 -1.90 -3.90 -3.05 -3.90 -1.10 0 -3.70 3.35 -4.80 6.20 -0.90 2.20 -1.15 3.85 -1.15 7.45 -0.05 6.15 -0.85 16.45 -1.60 19.75 -0.70 3.15 -0.25 3.70 2.60 3.50 l1.70 -0.15 0.10 -5z m31.05 3.90 c-0.15 -0.80 -0.65 -3.30 -1.10 -5.65 -0.60 -3.05 -0.75 -5.50 -0.50 -8.75 0.40 -5.75 1.60 -15.55 2.20 -17.60 0.85 -3 1.20 -7.95 0.60 -9.10 -0.80 -1.50 -2.75 -1.35 -4 0.30 -2.10 2.60 -2.70 6.15 -2.30 13.40 0.20 3.65 0.50 8.05 0.70 9.75 0.60 4.80 -0.15 11.30 -1.60 15 -0.70 1.75 -1.20 3.35 -1.05 3.60 0.15 0.20 1.85 0.40 3.80 0.40 l3.50 0 -0.25 -1.35z m96.90 -18.40 c1.35 -1.30 1.55 -2.30 0.70 -3.80 -1.25 -2.40 -4.95 -2.10 -5.85 0.50 -1.25 3.50 2.55 5.95 5.15 3.30z m-13.20 -1.15 c1.40 -1.15 1.50 -3.65 0.20 -5.10 -1.35 -1.50 -3.90 -1.35 -5.20 0.30 -1.35 1.75 -1.30 2.95 0.20 4.45 1.45 1.50 3.20 1.60 4.80 0.35z"/>
  <path d="M146.60 44.70 c-1.45 -1 -2.60 -3.25 -2.60 -5.05 0 -2.10 1.80 -4.60 3.85 -5.45 2.55 -1.10 4.75 -0.55 6.60 1.60 1.25 1.40 1.55 2.20 1.55 4 0 1.95 -0.25 2.55 -1.70 4 -1.45 1.45 -2.05 1.70 -4.15 1.70 -1.40 0 -2.90 -0.35 -3.55 -0.80z m5.85 -2.05 c2.55 -2.15 1.20 -6.65 -1.95 -6.65 -2.15 0 -3.05 0.50 -3.75 2.20 -1.55 3.65 2.65 6.95 5.70 4.45z"/>
 </g>
 <g fill="#ffffff">
  <path d="M0 69.50 l0 -69.50 85.50 0 85.50 0 0 69.50 0 69.50 -85.50 0 -85.50 0 0 -69.50z m93.50 67.95 c6.40 -0.75 10.35 -1.70 14.85 -3.45 10.15 -3.90 19.80 -12.75 24.75 -22.75 3.50 -7 6.05 -18.95 7.50 -35.15 0.60 -6.80 1.15 -12.45 1.20 -12.55 0.10 -0.10 0.85 0.45 1.75 1.15 3.55 3 7.45 4.05 10.70 2.80 0.70 -0.25 2.40 -1.55 3.80 -2.85 l2.50 -2.35 -0.35 7.30 -0.35 7.30 1.50 0.30 c2.10 0.50 3.75 -0.30 5.85 -2.75 3.30 -3.85 3.65 -9.20 0.80 -11.65 -0.85 -0.65 -1.95 -1.35 -2.50 -1.55 -0.95 -0.30 -1 -0.75 -1 -7.90 0 -8.10 -0.70 -13.20 -2.50 -18 l-1.10 -2.85 1.30 -1.55 c2.20 -2.60 1.65 -6.25 -1.20 -7.70 -2.90 -1.50 -6 -0.40 -7.05 2.50 -0.90 2.45 -2.55 2.30 -3 -0.25 -0.40 -2.55 -1.20 -3.75 -3.15 -4.70 -2.10 -1 -2.85 -1 -5.05 -0.10 -2.95 1.25 -4.10 5.20 -2.50 8.35 0.75 1.40 0.70 1.55 -0.75 3.70 -2.65 3.90 -3.15 5.85 -2.80 11.90 0.25 4.50 0.20 5.35 -0.40 5.35 -0.40 0 -1.15 -0.70 -1.65 -1.50 -0.50 -0.85 -1.85 -2 -3.05 -2.55 -3.10 -1.50 -5.25 -1 -7.95 1.90 -2.05 2.20 -3.65 2.65 -3.65 1 0 -0.70 0.30 -1.15 7.70 -13.10 6 -9.70 7 -11.85 7 -15.55 0.05 -2.50 -0.20 -3.40 -1.35 -5.10 -1.65 -2.55 -4.85 -4.95 -7.15 -5.40 -3.25 -0.60 -5.25 0.15 -8.20 3.20 -4.15 4.25 -5.40 8.95 -7.25 27.50 -0.40 4.20 -1 8.10 -1.30 8.65 -0.40 0.80 -0.95 0.95 -2.85 0.85 l-2.35 -0.15 0 -10.35 c0 -5.70 0.15 -10.50 0.35 -10.65 0.50 -0.55 2.30 0.65 2.65 1.80 0.20 0.55 0.60 0.90 0.90 0.80 0.85 -0.25 0.80 -8.45 0 -8.70 -0.35 -0.15 -0.90 0.35 -1.20 1.05 -0.35 0.70 -1 1.30 -1.55 1.30 -0.75 0 -0.90 -0.40 -0.90 -2.45 0 -2.10 0.20 -2.60 1.35 -3.45 0.80 -0.55 1.30 -1.15 1.15 -1.25 -0.25 -0.25 -5.65 -0.50 -7.85 -0.40 -1.55 0.05 -1.45 1.25 0.10 1.95 1.10 0.50 1.25 0.90 1.25 3.10 0 2.15 -0.15 2.50 -1 2.50 -0.55 0 -1.35 -0.55 -1.80 -1.25 -0.45 -0.70 -1 -1.25 -1.25 -1.25 -0.25 0 -0.45 2.05 -0.45 4.50 0 3.65 0.15 4.50 0.75 4.50 0.40 0 0.75 -0.30 0.75 -0.65 0 -1.10 1.95 -2.60 2.50 -2.05 0.35 0.35 0.45 4.40 0.40 10.75 l-0.15 10.20 -3 0 -3 0 -0.90 -3.50 c-1.45 -5.45 -0.90 -17 1.15 -24.75 2.25 -8.80 1.90 -12.30 -1.55 -15.20 -1.40 -1.20 -1.95 -1.35 -3.85 -1.15 -2.85 0.30 -4.50 1.60 -6.10 4.65 -1.10 2.20 -1.25 3.05 -1.25 7.95 0 3.05 0.30 8.75 0.65 12.70 0.60 6.45 0.55 12.75 -0.20 17.40 -0.20 1.50 -0.35 1.55 -2.85 1.75 -1.40 0.10 -2.90 0.10 -3.25 0 -0.50 -0.15 -0.60 -2.55 -0.50 -10.55 0.15 -10.15 0.15 -10.30 1.25 -10.45 0.80 -0.10 1.30 0.25 1.90 1.45 1.20 2.20 1.75 1.15 1.75 -3.40 0 -4.10 -0.65 -5 -2.10 -3 -1.10 1.50 -2.15 1.75 -2.60 0.55 -0.65 -1.75 -0.25 -3.35 1.20 -4.70 2.35 -2.20 2 -2.50 -3 -2.50 -3.95 0 -4.50 0.10 -4.50 0.90 0 0.45 0.50 1.10 1.15 1.35 0.90 0.40 1.15 0.95 1.25 2.90 0.20 3 -1 3.75 -2.60 1.70 -0.60 -0.75 -1.25 -1.35 -1.45 -1.35 -0.20 0 -0.35 1.90 -0.35 4.25 0 2.35 0.20 4.25 0.45 4.25 0.25 0 0.80 -0.55 1.25 -1.25 0.45 -0.70 1.25 -1.25 1.80 -1.25 1 0 1 0.30 0.90 10.40 l-0.15 10.35 -2.15 0.15 c-1.90 0.15 -2.15 0 -2.60 -1.20 -1.95 -5.10 -1.65 -17.60 0.80 -32.20 1.50 -9 1.35 -11.85 -0.55 -13.80 -1.60 -1.60 -5.05 -1.65 -6.95 -0.15 -3.80 3 -5.45 9.85 -4.10 17.05 1.10 5.75 1.15 17.55 0.15 22.15 -0.45 1.95 -1.25 4.60 -1.80 5.90 -0.95 2.15 -1.20 2.40 -2.40 2.25 l-1.40 -0.15 0.05 -10.15 c0 -10.85 0.30 -12.10 2.20 -10.35 0.55 0.50 1 1.20 1 1.60 0 0.40 0.35 0.65 0.80 0.55 0.60 -0.10 0.80 -1 0.85 -4.35 0.10 -4.45 -0.60 -5.80 -1.70 -3.35 -0.40 0.85 -1 1.30 -1.80 1.30 -1.05 0 -1.15 -0.20 -1.15 -2.25 0 -2.05 0.20 -2.40 1.50 -3.15 2.70 -1.55 1.90 -2.10 -2.90 -2.10 -2.45 0 -4.60 0.15 -4.80 0.35 -0.15 0.20 0.35 0.95 1.20 1.75 1.30 1.15 1.55 1.70 1.40 3.25 -0.20 2.40 -1.80 2.90 -3.10 0.90 -0.45 -0.70 -1.05 -1.15 -1.30 -1 -0.30 0.20 -0.50 2.20 -0.50 4.55 0 3.30 0.15 4.20 0.70 4.20 0.40 0 0.90 -0.45 1.05 -1 0.35 -1.05 2.15 -2.30 2.65 -1.80 0.45 0.50 0.10 20.50 -0.40 21 -0.60 0.60 -8.35 0.15 -9.05 -0.55 -0.30 -0.30 -0.80 -2.45 -1.05 -4.75 -0.70 -6 0.25 -10.80 4.10 -20.65 3.35 -8.70 3.50 -10 1.65 -13.65 -2.20 -4.20 -5.70 -3.95 -10.40 0.65 -4.75 4.60 -4.90 5.25 -5.25 21.25 -0.25 12.30 -0.40 13.95 -1.25 15.75 -0.90 1.80 -1.15 2 -2.95 2 -2.05 0 -2.25 -0.20 -3.30 -3.15 -1.25 -3.25 -5.60 -4.90 -9.15 -3.45 -4.45 1.90 -5.25 8.60 -1.35 11.70 2.25 1.80 6.60 1.65 8.70 -0.30 0.80 -0.75 1.75 -1.05 3.45 -1.05 2.80 0 2.90 0.30 1.35 5.95 -2.25 8 -2.65 10.75 -2.70 18.05 -0.05 8.15 -0.45 9.55 -3.20 11.15 -3.55 2.10 -7.70 -0.40 -8.70 -5.25 -0.80 -3.70 0.05 -12.05 1.30 -13.30 1.40 -1.45 2.55 -0.20 2.55 2.80 0 1.40 0.15 2.65 0.30 2.80 0.50 0.50 3.40 -3.05 3.75 -4.60 0.15 -0.75 1.05 -4.15 2 -7.60 1 -3.75 1.50 -6.40 1.20 -6.70 -0.25 -0.25 -2 0.55 -4.35 2.05 -2.15 1.40 -5.50 3.30 -7.45 4.30 -3.10 1.55 -3.70 2.10 -4.40 3.85 -1.35 3.45 -1 4.35 1 2.45 0.65 -0.60 1.45 -0.95 1.85 -0.80 0.60 0.20 0.60 0.75 0 3.70 -1.10 5.15 -0.70 12.25 0.85 15.40 1.65 3.25 4.55 4.90 8.15 4.60 4.40 -0.40 6.70 -3 7.50 -8.45 l0.55 -3.75 2.30 0.25 c1.95 0.15 2.55 0 3.85 -1.10 2.10 -1.75 2.90 -4.25 2.15 -6.55 -0.75 -2.30 -3.15 -4.25 -5.20 -4.25 -0.90 0 -1.75 -0.15 -1.90 -0.30 -0.30 -0.25 0.30 -3 2.25 -10.20 l1.15 -4.25 2.45 0 2.50 0 -0.20 23.50 -0.15 23.50 1.30 4 c4.70 13.90 15.95 25.25 29.60 29.85 6.30 2.10 10.40 2.95 16.45 3.35 8.25 0.60 10.15 0.60 14.75 0z"/>
  <path d="M75.25 133.75 c-13.45 -2.45 -24.25 -9.45 -32.85 -21.25 -5.65 -7.70 -6.95 -11.80 -7.05 -21.95 -0.15 -15.20 0.20 -36.05 0.60 -36.05 0.20 0 1 0.90 1.75 2 2.20 3.35 6.50 4.85 10.15 3.45 0.75 -0.25 2.80 -2 4.50 -3.80 1.70 -1.80 3.30 -3.10 3.60 -2.95 0.35 0.25 0.55 3.05 0.55 8.10 l0 7.75 -2 1.90 c-1.80 1.70 -2 2.15 -2 4.30 0 2.15 0.20 2.60 2 4.25 l2.05 1.90 -0.15 3.90 -0.15 3.95 -3.60 0.15 -3.65 0.15 -1.90 -2.05 c-1.75 -1.80 -2.20 -2 -4.30 -2 -2.05 0 -2.65 0.25 -4.10 1.70 -4.85 4.85 1.30 12.40 7.15 8.80 0.85 -0.50 1.85 -1.40 2.15 -1.95 0.45 -0.90 1 -1.05 4.20 -1.05 4.30 0 4.30 0 4.30 4.75 0 3.90 -0.30 4.75 -1.70 4.75 -3.05 0 -4.90 5.80 -3.05 9.70 1.10 2.30 2.80 2.80 4.75 1.40 1.40 -1.05 1.40 -1.05 2.30 -0.05 1.25 1.40 3.55 1.10 4.85 -0.70 0.75 -0.95 1.05 -2.15 1.05 -4 0.05 -3.45 -1 -5.45 -3.20 -6.15 l-1.75 -0.60 -0.15 -3.55 c-0.20 -5.30 0.05 -5.55 5.30 -5.55 2.40 0 4.65 0.20 5 0.45 0.85 0.50 0.65 8.15 -0.25 8.40 -0.35 0.15 -1.10 -0.35 -1.70 -1.05 -0.65 -0.70 -1.30 -1.30 -1.55 -1.30 -0.20 0 -0.40 1.90 -0.40 4.25 0 2.35 0.20 4.25 0.40 4.25 0.25 0 0.90 -0.60 1.55 -1.30 1.50 -1.70 2.25 -1.30 2.45 1.20 0.15 1.75 -0.05 2.30 -1.15 3.30 -0.75 0.70 -1.20 1.45 -1.05 1.70 0.35 0.55 7.60 0.50 8.15 -0.10 0.20 -0.20 -0.20 -0.85 -1 -1.40 -1.05 -0.75 -1.35 -1.40 -1.35 -2.90 0 -2.35 1.05 -3.40 2.20 -2.25 0.45 0.45 0.80 1.05 0.80 1.30 0 0.30 0.35 0.45 0.80 0.35 0.65 -0.10 0.85 -0.90 0.90 -4.05 0 -2.20 -0.15 -4.05 -0.40 -4.20 -0.20 -0.15 -0.90 0.35 -1.55 1.10 -0.75 0.95 -1.35 1.30 -1.95 1.10 -0.70 -0.30 -0.80 -0.95 -0.70 -4.20 l0.15 -3.90 5.15 -0.15 5.10 -0.15 0 4.45 0 4.50 -1.50 0.25 c-3 0.65 -4.45 5.60 -2.75 9.60 1.05 2.60 3.25 3.15 5.35 1.35 0.75 -0.65 1 -0.60 2.20 0.35 1.65 1.30 2.25 1.30 3.90 0 0.85 -0.65 1.40 -1.70 1.60 -3 0.20 -1.30 0.70 -2.20 1.40 -2.55 0.55 -0.30 1.35 -0.95 1.70 -1.50 0.35 -0.50 1.10 -0.90 1.65 -0.90 0.80 0 0.95 0.35 0.95 2.20 0 1.90 -0.20 2.40 -1.50 3.30 -0.85 0.60 -1.40 1.30 -1.25 1.55 0.45 0.70 8.75 0.60 8.75 -0.10 0 -0.35 -0.55 -1.10 -1.25 -1.75 -0.90 -0.80 -1.25 -1.70 -1.25 -2.95 0 -2.45 1.30 -2.90 2.80 -1 0.65 0.80 1.25 1.35 1.40 1.25 0.10 -0.15 0.30 -2.15 0.40 -4.45 0.10 -3.05 0 -4.25 -0.45 -4.40 -0.35 -0.15 -0.85 0.35 -1.15 1.05 -0.35 0.95 -0.85 1.30 -1.75 1.30 -1.20 0 -1.25 -0.10 -1.25 -3.60 0 -2 0.20 -3.95 0.40 -4.30 0.30 -0.45 1.70 -0.60 5.15 -0.50 l4.70 0.15 0 4.50 c0 4.30 -0.05 4.50 -1.15 4.65 -2.30 0.35 -3.85 4.45 -3.05 8.05 0.85 3.90 2.60 4.90 5.50 3.20 1.35 -0.80 1.45 -0.80 2.40 0.05 2.30 2.10 5.10 -0.40 5.40 -4.80 0.30 -3.65 -0.95 -6.10 -3.20 -6.30 -2.05 -0.20 -2.30 -1.05 -1.75 -5.85 0.45 -4.40 1.40 -4.80 4.45 -1.75 1.85 1.80 2.30 2 4.55 2 2.15 0 2.75 -0.25 4 -1.50 0.80 -0.80 1.65 -2.05 1.80 -2.80 0.85 -3.25 -2.25 -7.20 -5.60 -7.20 -2.10 0 -4.75 1.45 -5.60 3 -0.40 0.75 -0.95 1 -1.90 0.90 -1.35 -0.15 -1.35 -0.20 -1.50 -4.40 l-0.10 -4.25 1.50 -0.85 c1.90 -1.10 3.10 -3.75 2.65 -5.95 -0.15 -0.90 -1.15 -2.40 -2.25 -3.45 l-1.90 -1.90 0 -5.05 c0 -2.75 0.20 -5.05 0.45 -5.05 0.20 0 1.05 0.95 1.85 2.10 2.10 3 5.30 4.90 8.35 4.90 2.95 0 5.10 -0.95 8.05 -3.55 1.20 -1.05 2.35 -1.95 2.50 -1.95 0.45 0 0.35 10.05 -0.20 15.80 -1 11 -3.75 20.45 -8.35 28.45 -9.30 16.20 -17.45 24 -29.25 28 -3.80 1.30 -4.85 1.45 -12.65 1.55 -5.90 0.10 -9.75 -0.05 -12.50 -0.55z"/>
  <path d="M110.30 111.90 c-0.95 -1.35 -1.05 -4.40 -0.15 -5.60 0.40 -0.55 1.15 -0.85 1.90 -0.70 2.45 0.35 2.80 5.65 0.45 6.90 -1.25 0.70 -1.35 0.65 -2.20 -0.60z"/>
  <path d="M81.80 111.70 c-1.80 -1.75 -0.70 -6.70 1.50 -6.70 1 0 2.20 2.05 2.20 3.75 0 1.75 -1.20 3.75 -2.25 3.75 -0.35 0 -1.05 -0.35 -1.45 -0.80z"/>
  <path d="M88 111.55 c-0.65 -1.25 -0.65 -3.10 0 -4.75 0.55 -1.50 2.50 -1.75 3.55 -0.50 0.85 1 0.80 4.40 -0.05 5.45 -0.90 1.05 -2.85 0.95 -3.50 -0.20z"/>
  <path d="M116.50 111.55 c-0.85 -1.60 -0.60 -4.45 0.50 -5.55 1.70 -1.70 3.50 -0.10 3.50 3.15 0 2.80 -2.85 4.50 -4 2.40z"/>
  <path d="M53.10 111.35 c-1.55 -1.80 -1.05 -5.30 0.85 -6.35 2.35 -1.20 4.10 3.30 2.25 5.90 -0.85 1.20 -2.30 1.45 -3.10 0.45z"/>
  <path d="M59.80 111.20 c-1.15 -1.10 -1.05 -4.80 0.10 -5.85 1.20 -1.10 1.75 -1.05 2.75 0.05 1.05 1.15 1.10 4.05 0.05 5.50 -0.90 1.30 -1.85 1.40 -2.90 0.30z"/>
  <path d="M92.75 104.80 c-0.60 -0.90 -1.70 -1.75 -2.65 -2.05 l-1.60 -0.45 0 -4.40 0 -4.40 5.25 0 5.25 0 0 4.25 c0 3.90 -0.10 4.25 -1 4.25 -0.55 0 -1.35 -0.55 -1.80 -1.25 -1.20 -1.85 -1.70 -1.55 -1.75 1.15 -0.05 1.30 -0.20 2.85 -0.35 3.40 -0.35 1 -0.40 1 -1.35 -0.50z"/>
  <path d="M123.80 94.45 c-2.50 -1.95 -1.10 -5.95 2.10 -5.95 3.55 0 4.50 4.95 1.25 6.45 -1.60 0.75 -1.80 0.70 -3.35 -0.50z"/>
  <path d="M40 93.15 c-1.25 -1.60 -1 -3.45 0.60 -4.75 3.10 -2.70 7.45 1.50 4.90 4.75 -0.80 1 -1.50 1.35 -2.75 1.35 -1.25 0 -1.95 -0.35 -2.75 -1.35z"/>
  <path d="M91.15 89.60 l-2.65 -0.15 0 -4 0 -4 2 -1.90 c1.80 -1.70 2 -2.15 2 -4.30 0 -2.15 -0.20 -2.60 -2 -4.25 l-2.05 -1.85 0.15 -7.70 0.15 -7.70 1.30 -0.15 c1.10 -0.15 1.55 0.25 2.85 2.35 1.90 3 3.70 4.05 7.15 4.05 5.05 0 8.40 -1.60 11.35 -5.45 1.75 -2.25 2.10 -1 2.10 7.20 l0 7.75 -1.85 1.70 c-1.70 1.55 -1.90 1.95 -1.90 4.25 0 2.20 0.20 2.70 1.90 4.40 1.75 1.85 1.85 2.10 1.85 5.25 0 4.85 -0.05 4.90 -3.85 4.90 -3.15 0 -3.25 -0.05 -2.90 -1.10 1.45 -4.45 0.55 -8.40 -2.30 -10.10 -1.85 -1.10 -5.60 -1.15 -7.20 -0.10 -2.65 1.75 -3.90 5.70 -2.70 8.55 1.15 2.65 1.15 2.60 -3.40 2.35z"/>
  <path d="M60 85.15 c0 -4.35 0.05 -4.40 1.45 -5.25 1.70 -0.95 2.85 -4.05 2.35 -6.20 -0.20 -0.75 -1.15 -2.10 -2.10 -3 l-1.70 -1.65 0 -7.40 c0 -5.15 0.20 -7.65 0.60 -8.05 1 -1 3.85 -0.70 4.90 0.55 4.20 4.85 4.85 5.35 6.95 5.35 2.50 0 5.45 -1.40 8.65 -4.05 3.85 -3.20 3.90 -3.15 3.90 5.95 l0 7.90 -1.75 1.60 c-2.85 2.70 -2.85 7.05 0.10 8.95 1.05 0.70 1.15 1.10 1.15 5.20 l0 4.45 -3.25 0 c-1.80 0 -3.25 -0.15 -3.25 -0.35 0 -0.25 0.35 -1.35 0.75 -2.55 1.40 -4.05 -0.90 -8.10 -5 -8.90 -2.30 -0.40 -3.85 0 -5.70 1.60 -2.15 1.80 -2.85 4.70 -1.85 7.40 0.45 1.15 0.80 2.25 0.80 2.45 0 0.20 -1.55 0.35 -3.50 0.35 l-3.50 0 0 -4.35z"/>
  <path d="M99.25 88.40 c-1.60 -0.85 -2.25 -1.95 -2.25 -3.90 0 -3.65 4.20 -5.35 6.75 -2.75 1.85 1.80 1.70 4.30 -0.30 5.95 -1.65 1.40 -2.65 1.55 -4.20 0.70z"/>
  <path d="M69.65 87.40 c-1.50 -1.70 -1.70 -2.75 -0.95 -4.60 0.90 -2.20 3.20 -3.15 5.30 -2.30 1.85 0.75 2.50 1.85 2.50 4.15 0 3.45 -4.55 5.25 -6.85 2.75z"/>
  <path d="M85.25 78.40 c-1.40 -0.80 -1.75 -1.40 -1.75 -3.25 0 -2.05 2.10 -3.85 4 -3.40 2.90 0.70 3.90 3.90 1.75 6 -1.30 1.35 -2.45 1.55 -4 0.65z"/>
  <path d="M113 78 c-2.05 -2.05 -0.60 -6 2.25 -6 1.55 0 3.75 2.05 3.75 3.50 0 1.45 -2.20 3.50 -3.75 3.50 -0.70 0 -1.70 -0.45 -2.25 -1z"/>
  <path d="M56.10 77.70 c-0.75 -0.50 -1.10 -1.25 -1.10 -2.35 0 -1.90 0.35 -2.50 1.85 -3.30 3.10 -1.60 6.20 2.90 3.65 5.45 -1.20 1.20 -2.85 1.30 -4.40 0.20z"/>
  <path d="M22.45 76.60 c-1.40 -1.15 -1.50 -3.65 -0.20 -5.10 1.35 -1.50 3.90 -1.35 5.20 0.30 1.35 1.75 1.30 2.95 -0.20 4.45 -1.45 1.50 -3.20 1.60 -4.80 0.35z"/>
  <path d="M162.60 72.40 l0.15 -2.65 2.25 0 c1.60 0 2.30 0.20 2.40 0.75 0.20 1.10 -2.80 4.50 -3.95 4.50 -0.90 0 -1 -0.30 -0.85 -2.60z"/>
  <path d="M162.85 68.20 c-0.50 -0.55 -0.40 -3.15 0.15 -4.25 0.70 -1.25 2.05 -1.20 3.70 0.10 1.05 0.80 1.30 1.40 1.20 2.65 -0.15 1.45 -0.30 1.55 -2.40 1.70 -1.25 0.10 -2.45 0 -2.65 -0.20z"/>
  <path d="M147 63.95 c-0.70 -0.30 -2.20 -1.45 -3.35 -2.60 -2 -1.90 -2.15 -2.25 -2.15 -4.70 l0 -2.65 3.05 0 3.05 0 -1.55 1.55 c-1.95 1.90 -2.05 4 -0.30 5.70 2.35 2.40 6.40 1.25 7.05 -2 l0.30 -1.70 2.20 1.80 c2.50 2.10 2.35 2.65 -1.05 4.20 -2.20 1 -5.30 1.15 -7.25 0.40z"/>
  <path d="M126.75 63.05 c-1.55 -0.65 -4.55 -3.95 -5.50 -6.10 -1.40 -3.05 0 -4.90 1.50 -2 1.30 2.55 3.05 3.55 6.15 3.55 2.65 0 2.90 -0.10 4.90 -2.25 1.95 -2.15 3.75 -2.85 4.45 -1.75 0.80 1.30 -3.70 6.65 -6.85 8.15 -1.95 0.90 -3.10 1 -4.65 0.40z"/>
  <path d="M146.80 60.55 c-1.25 -1.35 -0.85 -3.60 0.75 -4.50 1.20 -0.65 1.45 -0.65 2.65 0.10 1.70 1.10 1.80 3.45 0.20 4.55 -1.50 1.05 -2.55 1 -3.60 -0.15z"/>
  <path d="M156.30 58.45 c-2.70 -2.15 -3.60 -6.10 -2.10 -9.65 0.70 -1.70 2.70 -3.40 4.70 -4 l1.10 -0.35 0 6.55 c0 8.45 -0.70 9.85 -3.70 7.45z"/>
  <path d="M41.25 55.95 c-1.25 -1.15 -2.10 -2.25 -1.95 -2.50 0.35 -0.60 11.70 -0.60 11.70 0.05 0 0.90 -5.05 4.50 -6.30 4.50 -0.75 0 -2.10 -0.80 -3.45 -2.05z"/>
  <path d="M98.45 56.35 c-0.95 -0.60 -1.75 -1.50 -1.85 -2 -0.15 -0.75 0.40 -0.85 5.35 -0.85 3 0 5.60 0.20 5.75 0.45 0.15 0.25 -0.50 1.15 -1.45 2 -2.25 1.95 -5.25 2.15 -7.80 0.40z"/>
  <path d="M70.75 55.50 c-0.80 -0.80 -1.30 -1.65 -1.10 -1.80 0.40 -0.40 8.90 -0.30 9.30 0.10 0.15 0.15 -0.45 0.95 -1.35 1.75 -2.25 2 -4.90 2 -6.85 -0.05z"/>
  <path d="M126.40 55.45 c-0.50 -0.25 -0.90 -0.85 -0.90 -1.20 0 -0.60 0.75 -0.75 3.25 -0.75 2.50 0 3.25 0.15 3.25 0.75 0 1.50 -3.70 2.30 -5.60 1.20z"/>
  <path d="M151 55 c-1.20 -0.95 -1.20 -1 -0.20 -1 0.60 0 1.25 0.35 1.40 0.80 0.45 1.20 0.20 1.25 -1.20 0.20z"/>
  <path d="M11.50 53.15 c-2.45 -0.85 -3.70 -3.80 -2.70 -6.40 0.40 -0.95 2.75 -2.25 4.20 -2.25 1.65 0 4 2.65 4 4.45 0 2.60 -3.15 5 -5.50 4.20z"/>
  <path d="M125.30 50.05 c-0.50 -0.80 1.75 -2.25 3.45 -2.25 1.70 0 3.95 1.45 3.45 2.25 -0.15 0.25 -1.70 0.45 -3.45 0.45 -1.75 0 -3.30 -0.20 -3.45 -0.45z"/>
  <path d="M140.60 49.70 c-1.05 -0.75 -1.45 -6.85 -0.60 -10.10 0.90 -3.60 3.20 -6.85 5.55 -7.80 5.65 -2.25 11.25 0.60 13.45 6.85 0.55 1.55 1 3.05 1 3.35 0 0.25 -1.05 1.05 -2.35 1.70 -2.65 1.35 -4.15 2.80 -5.20 5.05 l-0.70 1.50 -5.20 0 c-3.20 0.05 -5.45 -0.20 -5.95 -0.55z m13.70 -5.90 c1.45 -1.45 1.70 -2.05 1.70 -4 0 -4.40 -4.15 -7.30 -8.15 -5.60 -3.30 1.35 -4.70 5.20 -3.10 8.30 1.10 2.15 2.65 3 5.40 3 2.10 0 2.70 -0.25 4.15 -1.70z"/>
  <path d="M147.90 42.80 c-1.40 -1.05 -1.90 -2.90 -1.15 -4.60 1.65 -4 7.85 -2.20 7.05 2.05 -0.55 2.75 -3.80 4.20 -5.90 2.55z"/>
  <path d="M85 49.25 c-0.45 -0.55 -0.45 -1.90 0 -6.25 0.40 -3.45 0.50 -7.80 0.30 -11.40 -1.15 -20.20 -1.10 -20.40 1.80 -21.90 1.65 -0.85 3.35 -0.35 4.85 1.60 1.40 1.80 1.35 4.70 -0.20 10.60 -1.55 5.95 -2.45 15.90 -2.05 22.40 0.30 4.45 0.25 5.10 -0.45 5.40 -1.45 0.55 -3.60 0.30 -4.25 -0.45z"/>
  <path d="M112.70 49.30 c-0.40 -1.05 0.70 -14.75 1.60 -19.80 1.05 -5.90 3 -10.70 5.50 -13.45 1.90 -2.10 2.30 -2.30 4.45 -2.30 2.05 0 2.55 0.20 4.05 1.85 1.45 1.60 1.70 2.25 1.70 4.25 0 3.15 -2.20 8.10 -7.15 16.25 -2.15 3.50 -4.55 8 -5.35 10 -1.30 3.35 -1.55 3.65 -2.95 3.80 -1.05 0.10 -1.65 -0.10 -1.85 -0.60z"/>
  <path d="M28.55 49.05 c-0.60 -0.40 -0.65 -0.90 -0.15 -3.15 0.75 -3.30 1.55 -13.60 1.60 -19.75 0 -3.60 0.25 -5.25 1.15 -7.45 1.10 -2.85 3.70 -6.20 4.80 -6.20 1.15 0 3.05 2.45 3.05 3.90 0 0.80 -1.35 6.25 -3.05 12.15 -2.75 9.55 -3.05 11.25 -3.15 15.70 l-0.10 5 -1.70 0.15 c-0.95 0.05 -2.05 -0.10 -2.45 -0.35z"/>
  <path d="M56.80 49.10 c-0.15 -0.25 0.35 -1.85 1.05 -3.60 1.45 -3.70 2.20 -10.20 1.60 -15 -0.20 -1.70 -0.50 -6.10 -0.70 -9.75 -0.40 -7.25 0.20 -10.80 2.30 -13.40 1.25 -1.65 3.20 -1.80 4 -0.30 0.60 1.15 0.25 6.10 -0.60 9.10 -0.60 2.05 -1.80 11.85 -2.20 17.60 -0.25 3.25 -0.10 5.70 0.50 8.75 0.45 2.35 0.95 4.85 1.10 5.65 l0.25 1.35 -3.50 0 c-1.95 0 -3.65 -0.20 -3.80 -0.40z"/>
  <path d="M156.85 30.45 c-3.25 -1.90 -0.65 -7.30 2.85 -5.95 2.45 0.90 2.95 3.40 1.05 5.25 -1.30 1.35 -2.45 1.55 -3.90 0.70z"/>
  <path d="M142.75 28.25 c-1.50 -1.50 -1.55 -2.70 -0.20 -4.45 2.10 -2.65 6.10 -1.15 6.10 2.30 0 3.10 -3.65 4.45 -5.90 2.15z"/>
 </g>
</svg>