<?xml version="1.0" encoding="utf-8"?>
<!DOCTYPE svg PUBLIC "-//W3C//DTD SVG 1.0//EN" "http://www.w3.org/TR/2001/REC-SVG-20010904/DTD/svg10.dtd">
<svg version="1.0" xmlns="http://www.w3.org/2000/svg" width="168px" height="64px" viewBox="0 0 168 64" preserveAspectRatio="xMidYMid meet">
 <g fill="#000000">
  <path d="M63.50 62 c0 -0.75 0.35 -1 1.45 -1 3.20 0 6.35 -2.40 6.80 -5.25 0.65 -4.25 0.70 -6.90 0.20 -7.85 -0.50 -0.90 -0.90 -1 -3.50 -0.80 -3.30 0.25 -4.70 1.15 -5.15 3.45 -0.30 1.55 -1.30 1.90 -2.25 0.75 -0.65 -0.80 -0.15 -12.15 0.55 -12.60 0.65 -0.40 1.90 0.75 1.90 1.75 0 0.50 0.50 1.35 1.15 1.95 0.95 0.90 1.75 1.10 4.25 1.10 1.65 0 3.15 -0.15 3.25 -0.35 0.15 -0.25 0.30 -8.85 0.40 -19.15 l0.20 -18.75 -3.50 0 -3.50 0 -0.25 11.25 -0.25 11.25 -9.75 0 -9.75 0 -0.25 -11.50 -0.25 -11.50 -7.05 -0.15 -7.05 -0.15 -0.30 3.40 c-0.20 1.90 -0.35 7.05 -0.35 11.55 l0 8.10 -7.90 0 -7.90 0 -1.15 1.55 c-2.35 3.15 -6 4.30 -8.95 2.75 -2.30 -1.20 -3.70 -3.10 -3.95 -5.40 -0.50 -4.50 2.40 -7.90 6.75 -7.90 2.75 0 4.75 1.05 6.10 3.20 1.30 2.10 2.45 2.40 8.75 2.20 l4.50 -0.15 0.30 -10.50 c0.15 -5.80 0.35 -10.90 0.40 -11.35 0.05 -0.85 0.90 -0.90 10.80 -0.90 8.25 0 10.75 0.15 10.75 0.65 0.05 0.30 0 5.45 0 11.40 l-0.05 10.80 3.85 0.35 c5.75 0.45 8.95 0.35 9.60 -0.30 0.45 -0.45 0.60 -3.70 0.60 -11.45 0 -6 0.15 -11 0.40 -11.10 0.20 -0.10 5.15 -0.10 11 0.05 l10.60 0.20 0 8.25 c0 6.05 0.15 8.20 0.60 8.05 0.30 -0.10 3.05 -3.80 6.15 -8.20 5.05 -7.20 5.70 -7.95 7 -7.95 l1.50 0 -0.15 10.90 c-0.15 8.05 -0.05 11.05 0.40 11.60 0.45 0.55 1.75 0.75 4.85 0.75 4.90 0 4.85 0.05 4.85 -5.25 0.05 -3.45 0.05 -3.50 -1.30 -3.65 -1.15 -0.15 -1.60 0.15 -2.45 1.60 -0.60 1.05 -1.45 1.80 -2 1.80 -0.90 0 -0.95 -0.45 -0.95 -5.45 0 -4.10 0.15 -5.50 0.65 -5.70 0.90 -0.35 1.45 0.10 2.35 1.90 0.60 1.15 1.15 1.50 2.25 1.50 1.35 0 1.50 -0.15 1.65 -1.90 0.20 -2.30 -0.90 -4.20 -2.50 -4.45 -0.85 -0.10 -1.15 -0.50 -1.15 -1.40 0 -1.25 0 -1.25 5.40 -1.40 l5.35 -0.15 0 1.55 c0 1.10 -0.25 1.50 -0.90 1.50 -1.60 0 -2.60 1.65 -2.60 4.15 0 2.10 0.10 2.35 1.15 2.35 1.50 0 2.20 -0.55 2.80 -2.15 0.40 -1.05 0.85 -1.40 1.70 -1.25 1.05 0.15 1.10 0.40 1.25 5.20 0.10 3.85 -0.05 5.20 -0.55 5.65 -0.95 0.75 -2.35 0.20 -2.35 -0.95 0 -1.15 -1.55 -2.50 -2.85 -2.50 -0.95 0 -1.10 0.35 -1.25 3.40 -0.30 5.90 -0.55 5.60 4.90 5.60 2.60 0 4.75 -0.05 4.80 -0.10 0.05 -0.10 0.25 -5.20 0.40 -11.40 l0.25 -11.25 9.25 0 9.25 0 0.05 11.05 c0 6.10 0.20 11.30 0.40 11.60 0.25 0.40 2.10 0.60 5.30 0.60 5.40 0 5.50 -0.05 5.50 -3.30 0 -2.90 -1.20 -5.10 -3.10 -5.60 -1.15 -0.30 -1.70 -0.75 -1.80 -1.50 -0.15 -1.10 -0.15 -1.15 6.25 -1 6.20 0.15 6.40 0.20 6.55 1.30 0.15 0.90 -0.05 1.10 -1.10 1.10 -1.95 0 -3.10 1.50 -3.50 4.60 -0.45 3.65 -0.10 4.40 2.15 4.40 2.50 -0.05 4.15 -1.10 4.80 -3.05 0.40 -1.15 0.95 -1.75 1.65 -1.85 1.10 -0.15 1.10 -0.05 1.10 5.80 0 6.70 -0.20 7.60 -1.55 7.60 -0.65 0 -1.05 -0.60 -1.45 -2 -0.45 -1.70 -0.80 -2.05 -2.45 -2.55 -1.10 -0.30 -2.55 -0.45 -3.25 -0.25 -1.20 0.30 -1.30 0.50 -1.30 3.35 0 2.50 0.20 3.20 1.25 4.20 0.65 0.70 1.70 1.25 2.25 1.25 0.80 0 1.05 0.25 0.90 1.15 -0.15 1.05 -0.40 1.10 -4.75 1.25 -5.25 0.15 -7.85 -0.35 -8.05 -1.55 -0.10 -0.55 0.40 -0.95 1.90 -1.35 1.65 -0.45 2.20 -0.90 2.80 -2.25 0.85 -2.10 0.90 -4.85 0.10 -5.65 -0.40 -0.40 -2.75 -0.60 -7.20 -0.60 -4.85 0 -6.70 -0.15 -6.85 -0.60 -0.10 -0.35 -0.10 -5.45 0.05 -11.30 0.20 -8.85 0.15 -10.80 -0.45 -11.15 -1.15 -0.70 -10.95 -0.55 -11.20 0.15 -0.15 0.35 -0.40 5.60 -0.60 11.65 l-0.40 11 -5.90 -0.20 c-4.15 -0.10 -6.05 0 -6.60 0.45 -0.60 0.50 -0.75 2.25 -0.75 9.90 l0 9.30 2.30 2 c1.55 1.40 2.40 2.60 2.65 3.80 1.40 6.70 -6.20 11.55 -11.35 7.25 -4.05 -3.40 -3.25 -9.60 1.55 -12.05 l1.35 -0.75 0 -9.95 0 -9.95 -6.60 -0.15 -6.65 -0.15 -0.25 -8.45 c-0.30 -9.85 0.40 -9.90 -6.75 0.60 -4.75 6.95 -6.70 8.85 -7.90 7.65 -0.25 -0.25 -0.50 -5.45 -0.50 -11.60 l-0.10 -11.20 -2.50 0 -2.50 0 -0.25 18.75 c-0.15 10.30 -0.15 18.90 0 19.10 0.15 0.20 1.70 0.40 3.40 0.45 3.55 0.10 4.80 -0.65 5.30 -3.10 0.25 -1.25 0.50 -1.50 1.40 -1.35 1.10 0.15 1.15 0.30 1.15 6.40 l0 6.25 -1.20 0 c-0.95 0 -1.35 -0.35 -1.65 -1.60 -0.55 -2.15 -1.80 -2.75 -5.55 -2.55 l-3.10 0.15 -0.15 3 c-0.30 6 1.70 9.35 6.05 10.20 2.65 0.50 3.10 0.75 2.60 1.50 -0.20 0.35 -3.85 0.55 -10.55 0.55 -9.85 0 -10.20 -0.05 -10.20 -1z m50.20 -3.55 c0.95 -0.75 1.30 -1.50 1.30 -2.70 0 -1.85 -1.85 -3.75 -3.60 -3.75 -1.35 0 -3.40 2.25 -3.40 3.75 0 1.50 2.05 3.75 3.40 3.75 0.55 0 1.55 -0.45 2.30 -1.05z m-103.95 -30.70 c1.55 -1.50 1.60 -3.10 0.15 -4.60 -2.10 -2.25 -5.90 -0.85 -5.90 2.20 0 1.70 1.80 3.65 3.35 3.65 0.65 0 1.75 -0.55 2.40 -1.25z"/>
 </g>
 <g fill="#ffffff">
  <path d="M0 32 l0 -32 84 0 84 0 0 32 0 32 -84 0 -84 0 0 -32z m84.25 30.45 c0.50 -0.75 0.05 -1 -2.60 -1.50 -4.35 -0.85 -6.35 -4.20 -6.05 -10.20 l0.15 -3 3.10 -0.15 c3.75 -0.20 5 0.40 5.55 2.55 0.30 1.25 0.70 1.60 1.65 1.60 l1.20 0 0 -6.25 c0 -6.10 -0.05 -6.25 -1.15 -6.40 -0.90 -0.15 -1.15 0.10 -1.40 1.35 -0.50 2.45 -1.75 3.20 -5.30 3.10 -1.70 -0.05 -3.25 -0.25 -3.40 -0.45 -0.15 -0.20 -0.15 -8.80 0 -19.10 l0.25 -18.75 2.50 0 2.50 0 0.10 11.20 c0 6.15 0.25 11.35 0.50 11.60 1.20 1.20 3.15 -0.70 7.90 -7.65 7.15 -10.50 6.45 -10.45 6.75 -0.60 l0.25 8.45 6.65 0.15 6.60 0.15 0 9.95 0 9.95 -1.35 0.75 c-2.40 1.25 -3.75 3.10 -4 5.50 -0.80 7.10 7.15 10.95 12.05 5.85 2.95 -3.10 2.60 -7.25 -0.90 -10.35 l-2.30 -2 0 -9.30 c0 -7.65 0.15 -9.40 0.75 -9.90 0.55 -0.45 2.45 -0.55 6.60 -0.45 l5.90 0.20 0.40 -11 c0.20 -6.05 0.45 -11.30 0.60 -11.65 0.25 -0.70 10.05 -0.85 11.20 -0.15 0.60 0.35 0.65 2.30 0.45 11.15 -0.15 5.85 -0.15 10.95 -0.05 11.30 0.15 0.45 2 0.60 6.85 0.60 4.45 0 6.80 0.20 7.20 0.60 0.80 0.80 0.75 3.55 -0.10 5.65 -0.60 1.35 -1.15 1.80 -2.80 2.25 -1.50 0.40 -2 0.80 -1.90 1.35 0.20 1.20 2.80 1.70 8.05 1.55 4.35 -0.15 4.60 -0.20 4.75 -1.25 0.15 -0.90 -0.10 -1.15 -0.90 -1.15 -0.55 0 -1.60 -0.55 -2.25 -1.25 -1.05 -1 -1.25 -1.70 -1.25 -4.20 0 -2.85 0.10 -3.05 1.30 -3.35 0.70 -0.20 2.15 -0.05 3.25 0.25 1.65 0.50 2 0.85 2.45 2.55 0.40 1.40 0.80 2 1.45 2 1.35 0 1.55 -0.90 1.55 -7.60 0 -5.85 0 -5.95 -1.10 -5.80 -0.70 0.10 -1.25 0.70 -1.65 1.85 -0.65 1.95 -2.30 3 -4.80 3.05 -2.25 0 -2.60 -0.75 -2.15 -4.40 0.40 -3.10 1.55 -4.60 3.50 -4.60 1.05 0 1.25 -0.20 1.10 -1.10 -0.15 -1.10 -0.35 -1.15 -6.55 -1.30 -6.40 -0.15 -6.40 -0.10 -6.25 1 0.10 0.75 0.65 1.20 1.80 1.50 1.90 0.50 3.10 2.70 3.10 5.60 0 3.25 -0.10 3.30 -5.50 3.30 -3.20 0 -5.05 -0.20 -5.30 -0.60 -0.20 -0.30 -0.40 -5.50 -0.40 -11.60 l-0.05 -11.05 -9.25 0 -9.25 0 -0.25 11.25 c-0.15 6.20 -0.35 11.30 -0.40 11.40 -0.05 0.05 -2.20 0.10 -4.80 0.10 -5.45 0 -5.20 0.30 -4.90 -5.60 0.15 -3.05 0.30 -3.40 1.25 -3.40 1.30 0 2.85 1.35 2.85 2.50 0 1.15 1.40 1.70 2.35 0.95 0.50 -0.45 0.65 -1.80 0.55 -5.65 -0.15 -4.80 -0.20 -5.05 -1.25 -5.20 -0.85 -0.15 -1.30 0.20 -1.70 1.25 -0.60 1.60 -1.30 2.15 -2.80 2.15 -1.05 0 -1.15 -0.25 -1.15 -2.35 0 -2.50 1 -4.15 2.60 -4.15 0.65 0 0.90 -0.40 0.90 -1.50 l0 -1.55 -5.35 0.15 c-5.40 0.15 -5.40 0.15 -5.40 1.40 0 0.90 0.30 1.30 1.15 1.40 1.60 0.25 2.70 2.15 2.50 4.45 -0.15 1.75 -0.30 1.90 -1.65 1.90 -1.10 0 -1.65 -0.35 -2.25 -1.50 -0.90 -1.80 -1.45 -2.25 -2.35 -1.90 -0.50 0.20 -0.65 1.60 -0.65 5.70 0 5 0.05 5.45 0.95 5.45 0.55 0 1.40 -0.75 2 -1.80 0.85 -1.45 1.30 -1.75 2.45 -1.60 1.35 0.15 1.35 0.20 1.30 3.65 0 5.30 0.05 5.25 -4.85 5.25 -3.10 0 -4.40 -0.20 -4.85 -0.75 -0.45 -0.55 -0.55 -3.55 -0.40 -11.60 l0.15 -10.90 -1.50 0 c-1.30 0 -1.95 0.75 -7 7.95 -3.10 4.40 -5.85 8.10 -6.15 8.20 -0.45 0.15 -0.60 -2 -0.60 -8.05 l0 -8.25 -10.60 -0.20 c-5.85 -0.15 -10.80 -0.15 -11 -0.05 -0.25 0.10 -0.40 5.10 -0.40 11.10 0 7.75 -0.15 11 -0.60 11.45 -0.65 0.65 -3.85 0.75 -9.60 0.30 l-3.85 -0.35 0.05 -10.80 c0 -5.95 0.05 -11.10 0 -11.40 0 -0.50 -2.50 -0.65 -10.75 -0.65 -9.90 0 -10.75 0.05 -10.80 0.90 -0.05 0.45 -0.25 5.55 -0.40 11.35 l-0.30 10.50 -4.50 0.15 c-6.30 0.20 -7.45 -0.10 -8.75 -2.20 -1.35 -2.15 -3.35 -3.20 -6.10 -3.20 -4.35 0 -7.25 3.40 -6.75 7.90 0.25 2.30 1.65 4.20 3.95 5.40 2.95 1.55 6.60 0.40 8.95 -2.75 l1.15 -1.55 7.90 0 7.90 0 0 -8.10 c0 -4.50 0.15 -9.65 0.35 -11.55 l0.30 -3.40 7.05 0.15 7.05 0.15 0.25 11.50 0.25 11.50 9.75 0 9.75 0 0.25 -11.25 0.25 -11.25 3.50 0 3.50 0 -0.20 18.75 c-0.10 10.30 -0.25 18.90 -0.40 19.15 -0.10 0.20 -1.60 0.35 -3.25 0.35 -2.50 0 -3.30 -0.20 -4.25 -1.10 -0.65 -0.60 -1.15 -1.45 -1.15 -1.95 0 -1 -1.25 -2.15 -1.90 -1.75 -0.70 0.45 -1.20 11.80 -0.55 12.60 0.95 1.15 1.95 0.80 2.25 -0.75 0.45 -2.30 1.85 -3.20 5.15 -3.45 2.60 -0.20 3 -0.10 3.50 0.80 0.50 0.95 0.45 3.60 -0.20 7.85 -0.45 2.85 -3.60 5.25 -6.80 5.25 -1.10 0 -1.45 0.25 -1.45 1 0 0.95 0.35 1 10.20 1 6.70 0 10.35 -0.20 10.55 -0.55z"/>
  <path d="M109.25 58.25 c-0.70 -0.65 -1.25 -1.80 -1.25 -2.50 0 -1.50 2.05 -3.75 3.40 -3.75 1.75 0 3.60 1.90 3.60 3.75 0 1.20 -0.35 1.95 -1.30 2.70 -1.75 1.35 -2.95 1.30 -4.45 -0.20z"/>
  <path d="M5.10 27.85 c-2.15 -2.30 -0.70 -5.85 2.30 -5.85 1.70 0 3.60 1.85 3.60 3.45 0 1.45 -2.15 3.55 -3.65 3.55 -0.65 0 -1.65 -0.50 -2.25 -1.15z"/>
 </g>
</svg>