<?xml version="1.0" encoding="utf-8"?>
<!DOCTYPE svg PUBLIC "-//W3C//DTD SVG 1.0//EN" "http://www.w3.org/TR/2001/REC-SVG-20010904/DTD/svg10.dtd">
<svg version="1.0" xmlns="http://www.w3.org/2000/svg" width="154px" height="140px" viewBox="0 0 154 140" preserveAspectRatio="xMidYMid meet">
 <g fill="#000000">
  <path d="M121.35 139 c-3.50 -0.65 -6.35 -4.45 -6.35 -8.45 0 -2.60 0.60 -4.05 2.50 -6.20 l1.55 -1.80 -6.15 -24.40 -6.20 -24.40 -14.85 -0.15 -14.85 -0.10 0 9.50 0 9.50 8.95 0 c4.90 0 10.25 0.15 11.85 0.30 l3 0.30 2.90 -3.55 c1.75 -2.10 3.30 -3.55 3.85 -3.55 0.90 0 0.95 0.45 0.95 6.90 0 8.40 -0.40 12.10 -1.30 12.10 -0.35 0 -1.90 -1.65 -3.50 -3.70 l-2.80 -3.65 -11.75 -0.35 c-7 -0.25 -11.95 -0.20 -12.25 0.10 -0.25 0.25 -0.35 2.65 -0.30 5.40 l0.15 4.95 9.35 0.15 9.30 0.10 2.35 -2.75 c3.65 -4.25 3.75 -4.10 3.75 5.50 0 9.70 -0.35 10.15 -3.90 5.25 l-2.20 -3 -9.45 0 -9.50 0 0.15 6.15 0.15 6.10 6.80 0.15 6.80 0.15 2.60 -3.05 c1.45 -1.65 2.85 -2.90 3.10 -2.75 0.60 0.40 0.60 15.60 0 16 -0.55 0.30 -2 -1.10 -3.70 -3.60 -0.60 -0.90 -1.55 -1.75 -2.10 -1.90 -0.55 -0.10 -8.15 -0.30 -16.85 -0.45 l-15.85 -0.30 -2.35 2.75 c-1.30 1.50 -2.70 2.75 -3.05 2.75 -0.50 0 -0.65 -1.70 -0.65 -7.75 0 -8.50 0.25 -9.15 2.70 -6.35 3.85 4.45 3 4 9.30 4.35 3.15 0.15 6.05 0.10 6.40 -0.15 0.45 -0.30 0.60 -1.95 0.50 -6.40 l-0.15 -5.95 -8.75 -0.15 -8.75 -0.10 -2.40 3 c-3.75 4.75 -4 4.45 -3.80 -5.20 0.10 -4.50 0.40 -8.40 0.60 -8.65 0.25 -0.20 1.70 1 3.25 2.75 l2.85 3.10 8.65 0 8.60 0 0 -5.20 0 -5.25 -11.60 -0.15 c-6.40 -0.10 -11.85 -0.10 -12.15 0 -0.25 0.10 -1.80 1.85 -3.45 3.90 -1.60 2.05 -3.15 3.65 -3.50 3.55 -0.65 -0.20 -0.45 -18.80 0.20 -19.50 0.45 -0.50 1.95 1 4.30 4.45 l1.75 2.55 4.55 0.35 c2.50 0.15 8 0.30 12.20 0.30 7.55 0 7.70 0 7.95 -1.10 0.15 -0.65 0.20 -4.95 0.15 -9.65 l-0.15 -8.50 -15.10 -0.15 -15.10 -0.10 -0.60 2.10 c-3.05 11.50 -12.55 46.20 -12.70 46.30 -0.10 0.10 0.60 1.20 1.50 2.40 1.85 2.45 2.55 4.85 2.05 7.35 -0.85 4.35 -5.35 7.70 -9.60 7.20 -4.45 -0.50 -8.15 -4.45 -8.20 -8.75 0 -1.85 1.15 -4.85 2.40 -6.25 1.15 -1.30 4.30 -2.85 5.75 -2.85 1.15 0 1.45 -0.90 7.55 -23.30 3.50 -12.85 6.25 -23.65 6.10 -24.05 -0.20 -0.55 -1.35 -0.65 -5.15 -0.55 l-4.90 0.15 -3.50 5.10 c-1.90 2.80 -3.80 5.15 -4.10 5.15 -0.50 0 -0.65 -1.30 -0.65 -4.85 0 -8.20 0.65 -20.65 1.05 -20.65 0.20 0 1.90 2.20 3.75 4.90 1.85 2.65 3.65 5 3.90 5.25 0.30 0.20 3 0.30 6.05 0.25 l5.50 -0.15 1.55 -5.75 c0.90 -3.15 2.75 -10 4.20 -15.15 1.40 -5.20 2.50 -9.50 2.40 -9.60 -0.10 -0.05 -6.15 -0.25 -13.50 -0.40 l-13.40 -0.35 -1.25 2.05 c-3.10 4.90 -9.15 5.85 -13.30 2.10 -4.85 -4.40 -3.35 -12.05 2.80 -14.45 3.95 -1.50 8.70 0.30 10.45 4 l0.85 1.80 9.10 0 9.10 0 0 -3.90 c0 -3.80 0.05 -4.05 1.90 -6.40 1.60 -2 1.85 -2.70 1.60 -3.95 -0.90 -4.45 -0.85 -7.15 0.10 -9.30 1.40 -3.05 3.50 -5.45 5.90 -6.50 1.70 -0.80 3.35 -0.95 11.40 -0.95 5.55 0 9.80 0.20 10.40 0.50 1.05 0.60 1.25 2.50 0.35 3.40 -0.35 0.35 -2.15 0.60 -4.45 0.60 -3.25 0 -3.90 0.15 -4.15 0.90 -2.40 8.45 -6.90 25.65 -6.75 25.80 0.55 0.45 43.95 0.70 43.95 0.25 0 -1.05 -6 -24.55 -6.50 -25.45 -0.45 -0.85 -1.05 -1 -3.80 -1 -3.65 0 -5.20 -0.60 -5.20 -2 0 -2.50 0 -2.50 9.95 -2.50 5.10 0 10.15 0.25 11.20 0.55 2.45 0.65 6.05 4.35 7.15 7.25 0.80 2.15 0.80 3.95 -0.10 9.30 -0.25 1.55 -0.05 2.15 1.20 3.75 2.55 3.30 3.20 6.50 1.90 9.70 -0.30 0.70 0.45 0.85 6.05 1.10 3.50 0.20 9.10 0.35 12.45 0.35 l6.05 0 1.20 -1.85 c1.70 -2.60 3.50 -3.75 6.40 -4.05 3.15 -0.30 6.30 1.15 8 3.70 1 1.45 1.25 2.40 1.20 5 0 2.70 -0.25 3.45 -1.40 5 -3.90 5.10 -11.25 4.55 -14.55 -1.05 l-1.25 -2.20 -15.85 -0.15 c-8.70 -0.10 -16.05 0 -16.35 0.25 -0.30 0.25 0.90 5.95 3.30 15.50 l3.80 15.10 6.90 0 6.95 0 3.55 -5 c2 -2.70 3.85 -5.05 4.20 -5.15 0.40 -0.15 0.55 3.05 0.45 12.45 -0.10 9.25 -0.30 12.65 -0.75 12.80 -0.35 0.15 -2.10 -2.05 -3.95 -4.80 l-3.35 -5.05 -6.20 0 c-3.70 0 -6.15 0.20 -6.15 0.50 0 1 11.55 46.25 11.90 46.55 0.20 0.20 1.20 0.60 2.25 0.95 4.05 1.30 6.80 5.80 6.10 10.05 -0.90 5.15 -5.65 8.05 -11.40 6.95z m6.35 -4.05 c2.15 -1.85 2.70 -4.05 1.60 -6.60 -2.55 -6.15 -11.30 -4.30 -11.30 2.40 0 2.35 0.70 3.55 2.65 4.75 2.45 1.50 4.95 1.30 7.05 -0.55z m-102.75 -0.20 c2.70 -1.35 3.80 -5.55 2.25 -8.25 -3.15 -5.25 -11.20 -3.10 -11.20 3 0 4.60 4.80 7.40 8.95 5.25z m80.15 -66.05 c0.40 -0.40 -7.10 -29.80 -7.80 -30.50 -0.40 -0.45 -7.15 -0.65 -23.75 -0.75 l-23.20 -0.20 -4.15 15.20 c-2.30 8.40 -4.10 15.30 -4.05 15.40 0.10 0.05 6.35 0.30 13.85 0.45 l13.75 0.35 -1.45 -1.70 c-3 -3.50 -3.50 -6.50 -1.70 -10.25 2.10 -4.50 7.25 -6.35 11.65 -4.20 5.75 2.80 6.95 10.50 2.25 14.75 l-1.10 1 10.40 0.25 c5.75 0.15 11.50 0.35 12.75 0.40 1.25 0.05 2.40 -0.05 2.55 -0.20z m-26.80 -3.75 c3.85 -3.65 1.65 -9.95 -3.55 -9.95 -6.05 0 -8.25 7.30 -3.15 10.50 2.05 1.30 5 1.05 6.70 -0.55z m70.15 -24.25 c2.75 -2.30 2.95 -6.20 0.50 -8.65 -3.30 -3.35 -9.05 -1.50 -9.80 3.10 -0.85 5.30 5.25 8.95 9.30 5.55z m-135.60 -2.30 c3.50 -3.55 1.25 -9.60 -3.55 -9.60 -4.50 0 -7.10 4.25 -5 8.25 1.50 3 6.20 3.70 8.55 1.35z m93.60 -6.70 c1.20 -1.55 1.30 -3.10 0.35 -5.35 -1.20 -2.80 -2.60 -3.85 -5.05 -3.85 -1.65 0 -2.25 0.20 -2.25 0.75 0 0.60 1.60 7.10 2.25 9.15 0.15 0.30 1 0.60 1.95 0.60 1.25 0 2 -0.35 2.75 -1.30z m-60 -0.10 c0.40 -0.80 2.55 -8.55 2.55 -9.30 0 -0.50 -5 -0.35 -6.05 0.20 -1.25 0.70 -2.95 4.10 -2.95 5.90 0 2.35 1.70 4.10 4 4.10 1.40 0 2.10 -0.25 2.45 -0.90z m58.50 -14.55 c0.70 -1 1.05 -2.25 1.05 -3.80 0 -2.20 -0.20 -2.60 -2.45 -4.80 -2.30 -2.35 -2.50 -2.45 -5.25 -2.45 -3.35 0 -3.30 0 -1.80 6.15 1.60 6.45 1.55 6.35 4.70 6.35 2.45 0 2.85 -0.15 3.75 -1.45z m-54.70 0.45 c0.35 -0.55 3.25 -10.80 3.25 -11.50 0 -0.30 -1.50 -0.50 -3.45 -0.50 -3.25 0 -3.60 0.10 -5.20 1.65 -1.55 1.45 -2.85 4.30 -2.85 6.35 0 0.40 0.45 1.45 1 2.35 0.80 1.35 1.30 1.60 3.35 1.80 1.30 0.10 2.65 0.20 3 0.25 0.30 0.05 0.75 -0.10 0.90 -0.40z"/>
 </g>
 <g fill="#ffffff">
  <path d="M0 70 l0 -70 77 0 77 0 0 70 0 70 -77 0 -77 0 0 -70z m128.75 68.05 c3.15 -1.80 4.80 -6.15 3.75 -10 -0.65 -2.55 -3.30 -5.25 -5.85 -6.05 -1.05 -0.35 -2.05 -0.75 -2.25 -0.95 -0.35 -0.30 -11.90 -45.55 -11.90 -46.55 0 -0.30 2.45 -0.50 6.15 -0.50 l6.20 0 3.35 5.05 c1.85 2.75 3.60 4.95 3.95 4.80 0.45 -0.15 0.65 -3.55 0.75 -12.80 0.10 -9.40 -0.05 -12.60 -0.45 -12.45 -0.35 0.10 -2.20 2.45 -4.20 5.15 l-3.55 5 -6.95 0 -6.90 0 -3.80 -15.10 c-2.40 -9.55 -3.60 -15.25 -3.30 -15.50 0.30 -0.25 7.65 -0.35 16.35 -0.25 l15.85 0.15 1.25 2.20 c3.30 5.60 10.65 6.15 14.55 1.05 1.15 -1.55 1.40 -2.30 1.40 -5 0.05 -2.60 -0.20 -3.55 -1.20 -5 -1.70 -2.55 -4.85 -4 -8 -3.70 -2.90 0.30 -4.70 1.45 -6.40 4.05 l-1.20 1.85 -6.05 0 c-3.35 0 -8.95 -0.15 -12.45 -0.35 -5.60 -0.25 -6.35 -0.40 -6.05 -1.10 1.30 -3.20 0.65 -6.40 -1.90 -9.70 -1.25 -1.60 -1.45 -2.20 -1.20 -3.75 0.90 -5.35 0.90 -7.15 0.10 -9.30 -1.10 -2.90 -4.70 -6.60 -7.15 -7.25 -1.05 -0.30 -6.10 -0.55 -11.20 -0.55 -9.95 0 -9.95 0 -9.95 2.50 0 1.40 1.55 2 5.20 2 2.75 0 3.35 0.15 3.80 1 0.50 0.90 6.50 24.40 6.50 25.45 0 0.45 -43.40 0.20 -43.95 -0.25 -0.15 -0.15 4.35 -17.35 6.75 -25.80 0.25 -0.75 0.90 -0.90 4.15 -0.90 2.30 0 4.10 -0.25 4.45 -0.60 0.90 -0.90 0.70 -2.80 -0.35 -3.40 -0.60 -0.30 -4.85 -0.50 -10.40 -0.50 -8.05 0 -9.70 0.15 -11.40 0.95 -2.40 1.05 -4.50 3.45 -5.90 6.50 -0.95 2.15 -1 4.85 -0.10 9.30 0.25 1.25 0 1.95 -1.60 3.95 -1.85 2.35 -1.90 2.60 -1.90 6.40 l0 3.90 -9.10 0 -9.10 0 -0.85 -1.80 c-1.75 -3.70 -6.50 -5.50 -10.45 -4 -6.15 2.40 -7.65 10.05 -2.80 14.45 4.15 3.75 10.20 2.80 13.30 -2.10 l1.25 -2.05 13.40 0.35 c7.35 0.15 13.40 0.35 13.50 0.40 0.10 0.10 -1 4.40 -2.40 9.60 -1.45 5.15 -3.30 12 -4.20 15.15 l-1.55 5.75 -5.50 0.15 c-3.05 0.05 -5.75 -0.05 -6.05 -0.25 -0.25 -0.25 -2.05 -2.60 -3.90 -5.25 -1.85 -2.70 -3.55 -4.90 -3.75 -4.90 -0.40 0 -1.05 12.45 -1.05 20.65 0 3.55 0.15 4.85 0.65 4.85 0.30 0 2.20 -2.35 4.10 -5.15 l3.50 -5.10 4.90 -0.15 c3.80 -0.10 4.95 0 5.15 0.55 0.15 0.40 -2.60 11.20 -6.10 24.05 -6.10 22.40 -6.40 23.30 -7.55 23.30 -0.65 0 -2 0.45 -3.05 0.95 -8.05 4.10 -5.90 15.90 3.10 16.90 4.25 0.50 8.75 -2.85 9.60 -7.20 0.50 -2.50 -0.20 -4.90 -2.05 -7.35 -0.90 -1.20 -1.60 -2.30 -1.50 -2.40 0.15 -0.10 9.65 -34.80 12.70 -46.30 l0.60 -2.10 15.10 0.10 15.10 0.15 0.15 8.50 c0.05 4.70 0 9 -0.15 9.65 -0.25 1.10 -0.40 1.10 -7.95 1.10 -4.20 0 -9.70 -0.15 -12.20 -0.30 l-4.55 -0.35 -1.75 -2.55 c-2.35 -3.45 -3.85 -4.95 -4.30 -4.45 -0.65 0.70 -0.85 19.30 -0.20 19.50 0.35 0.10 1.90 -1.50 3.50 -3.55 1.65 -2.05 3.20 -3.80 3.45 -3.90 0.30 -0.10 5.75 -0.10 12.15 0 l11.60 0.15 0 5.25 0 5.20 -8.60 0 -8.65 0 -2.85 -3.10 c-1.55 -1.75 -3 -2.95 -3.25 -2.75 -0.20 0.25 -0.50 4.15 -0.60 8.65 -0.20 9.65 0.05 9.95 3.80 5.20 l2.40 -3 8.75 0.10 8.75 0.15 0.15 5.95 c0.10 4.45 -0.05 6.10 -0.50 6.40 -0.35 0.25 -3.25 0.30 -6.40 0.15 -6.30 -0.35 -5.45 0.10 -9.30 -4.35 -2.45 -2.80 -2.70 -2.15 -2.70 6.35 0 6.05 0.15 7.75 0.65 7.75 0.35 0 1.75 -1.25 3.05 -2.75 l2.35 -2.75 15.85 0.30 c8.70 0.15 16.30 0.35 16.85 0.45 0.55 0.15 1.50 1 2.10 1.90 1.70 2.50 3.15 3.90 3.70 3.60 0.60 -0.40 0.60 -15.60 0 -16 -0.25 -0.15 -1.65 1.10 -3.10 2.75 l-2.60 3.05 -6.80 -0.15 -6.80 -0.15 -0.15 -6.10 -0.15 -6.15 9.50 0 9.45 0 2.20 3 c3.55 4.90 3.90 4.45 3.90 -5.25 0 -9.60 -0.10 -9.75 -3.75 -5.50 l-2.35 2.75 -9.30 -0.10 -9.35 -0.15 -0.15 -4.95 c-0.05 -2.75 0.05 -5.15 0.30 -5.40 0.30 -0.30 5.25 -0.35 12.25 -0.10 l11.75 0.35 2.80 3.65 c1.60 2.05 3.15 3.70 3.50 3.70 0.90 0 1.30 -3.70 1.30 -12.10 0 -6.45 -0.05 -6.90 -0.95 -6.90 -0.55 0 -2.10 1.45 -3.85 3.55 l-2.90 3.55 -3 -0.30 c-1.60 -0.15 -6.95 -0.30 -11.85 -0.30 l-8.95 0 0 -9.50 0 -9.50 14.85 0.10 14.85 0.15 6.20 24.40 6.15 24.40 -1.55 1.80 c-1.90 2.15 -2.50 3.60 -2.50 6.20 0 4 2.85 7.80 6.35 8.45 2.50 0.50 5.55 0.10 7.40 -0.95z"/>
  <path d="M120.65 135.50 c-1.95 -1.20 -2.65 -2.40 -2.65 -4.75 0 -3.55 2.65 -6.25 6.10 -6.25 1.85 0 4.40 1.90 5.20 3.85 2.25 5.35 -3.65 10.25 -8.65 7.15z"/>
  <path d="M18.90 134.70 c-3.85 -2.05 -3.75 -8.45 0.10 -10.45 2.95 -1.55 6.50 -0.55 8.20 2.25 1 1.80 1 3.65 0 5.80 -1.40 2.95 -5.25 4.05 -8.30 2.40z"/>
  <path d="M89.80 68.50 l-10.40 -0.25 1.10 -1 c4.70 -4.25 3.50 -11.95 -2.25 -14.75 -4.40 -2.15 -9.55 -0.30 -11.65 4.20 -1.80 3.75 -1.30 6.75 1.70 10.25 l1.45 1.70 -13.75 -0.35 c-7.50 -0.15 -13.75 -0.40 -13.85 -0.45 -0.05 -0.10 1.75 -7 4.05 -15.40 l4.15 -15.20 23.20 0.20 c16.60 0.10 23.35 0.30 23.75 0.75 0.70 0.70 8.20 30.10 7.80 30.50 -0.15 0.15 -1.30 0.25 -2.55 0.20 -1.25 -0.05 -7 -0.25 -12.75 -0.40z"/>
  <path d="M71.60 65.50 c-5.10 -3.20 -2.90 -10.50 3.15 -10.50 3.75 0 6.45 3.65 5.25 7.20 -1.20 3.70 -5.25 5.30 -8.40 3.30z"/>
  <path d="M141.70 41.05 c-4.10 -2.50 -3.15 -9.25 1.50 -10.45 2.30 -0.60 4.20 -0.10 5.75 1.45 4.90 4.85 -1.35 12.60 -7.25 9z"/>
  <path d="M6.65 39.30 c-2.85 -1.30 -3.95 -5.05 -2.30 -7.80 2.35 -4.05 8.50 -3.40 9.95 1.05 1.55 4.65 -3.15 8.75 -7.65 6.75z"/>
  <path d="M101.75 32.40 c-0.65 -2.05 -2.25 -8.55 -2.25 -9.15 0 -1.30 4.25 -1 5.55 0.40 1.30 1.35 2.45 3.90 2.45 5.50 0 2 -1.80 3.85 -3.80 3.85 -0.95 0 -1.80 -0.30 -1.95 -0.60z"/>
  <path d="M41.05 31.20 c-0.60 -0.75 -1.05 -2 -1.05 -2.80 0 -1.80 1.70 -5.20 2.95 -5.90 1.05 -0.55 6.05 -0.70 6.05 -0.20 0 0.75 -2.15 8.50 -2.55 9.30 -0.80 1.50 -4.15 1.20 -5.40 -0.40z"/>
  <path d="M98 17.40 c-0.70 -1.65 -2.50 -9.15 -2.50 -10.35 0 -0.95 0.30 -1.05 2.80 -1.05 2.75 0 2.95 0.10 5.25 2.45 2.25 2.20 2.45 2.60 2.45 4.80 0 1.55 -0.35 2.80 -1.05 3.80 -0.90 1.30 -1.30 1.45 -3.75 1.45 -2.35 0 -2.80 -0.15 -3.20 -1.10z"/>
  <path d="M46.35 17.65 c-2.05 -0.20 -2.55 -0.45 -3.35 -1.80 -0.55 -0.90 -1 -1.95 -1 -2.35 0 -2.05 1.30 -4.90 2.85 -6.35 1.60 -1.55 1.95 -1.65 5.20 -1.65 1.95 0 3.45 0.20 3.45 0.50 0 0.70 -2.90 10.95 -3.25 11.50 -0.15 0.30 -0.60 0.45 -0.90 0.40 -0.35 -0.05 -1.70 -0.15 -3 -0.25z"/>
 </g>
</svg>