<?xml version="1.0" encoding="utf-8"?>
<!DOCTYPE svg PUBLIC "-//W3C//DTD SVG 1.0//EN" "http://www.w3.org/TR/2001/REC-SVG-20010904/DTD/svg10.dtd">
<svg version="1.0" xmlns="http://www.w3.org/2000/svg" width="161px" height="116px" viewBox="0 0 161 116" preserveAspectRatio="xMidYMid meet">
 <g fill="#000000">
  <path d="M111.25 115 c-0.45 -1.40 0.10 -2 1.85 -2 4.30 0 9.40 -3.30 9.40 -6.10 0 -1.30 -0.95 -2.50 -5.60 -7.35 -3.10 -3.20 -8.80 -9.05 -12.65 -13.05 -3.85 -4 -10.25 -10.60 -14.25 -14.65 l-7.25 -7.45 -0.30 7.95 c-0.20 4.35 -0.35 11.10 -0.40 14.95 l-0.05 7.05 1.90 0.35 c5.30 0.85 8.25 -0.15 9.15 -3.15 0.55 -1.85 0.75 -2.05 2.30 -2.05 l1.70 0 -0.15 7.15 -0.15 7.10 -1.60 0.15 c-1.50 0.15 -1.65 0 -2.15 -1.85 -0.80 -2.95 -1.95 -3.55 -6.85 -3.55 l-4.15 0 0 4.65 c0 6.40 1 7.65 7.20 8.80 3.10 0.55 4.30 1.25 4.30 2.35 0 0.60 -2.40 0.70 -13.70 0.70 -9.15 0 -13.85 -0.20 -14.05 -0.55 -0.70 -1.05 1.30 -2.40 4.20 -2.75 3.35 -0.40 5.10 -1.20 6.50 -3 0.90 -1.10 1.05 -2.05 1.05 -5.70 0 -3.05 -0.20 -4.45 -0.60 -4.60 -0.35 -0.15 -2.25 -0.20 -4.25 -0.20 -3 0.05 -3.75 0.25 -4.80 1.20 -0.70 0.65 -1.35 1.85 -1.55 2.65 -0.25 1.35 -0.45 1.50 -1.90 1.35 -2.05 -0.20 -2.15 -0.80 -1.65 -8.80 l0.35 -5.65 1.50 0.15 c1.25 0.10 1.60 0.50 2.15 2.05 0.95 2.85 1.90 3.30 6.55 3.35 l4.05 0 0.30 -9.85 c0.45 -12.35 0.45 -20.15 0.05 -20.15 -0.20 0 -9.40 8.90 -20.50 19.80 -18.80 18.45 -20.20 19.95 -20.20 21.55 0 1.15 0.40 2.10 1.25 2.95 1.60 1.60 5.05 3.15 7 3.20 1.95 0 2.90 0.65 2.65 1.80 -0.15 0.90 -0.75 0.95 -13.40 0.75 -7.30 -0.10 -13.35 -0.30 -13.50 -0.40 -0.15 -0.15 11.75 -12.10 26.40 -26.60 14.70 -14.45 26.50 -26.45 26.30 -26.65 -0.20 -0.25 -7.65 -0.40 -16.50 -0.40 -17.95 0 -16.20 -0.35 -16.95 3.50 -0.65 3.30 -3.70 8.90 -6.25 11.45 -1.50 1.50 -4.05 3.25 -6.35 4.40 -3.75 1.85 -3.95 1.90 -9.35 1.90 -6.65 -0.05 -9.50 -0.95 -14.05 -4.65 -4.15 -3.35 -4.10 -3.75 0.60 -4.50 7.05 -1.10 12.90 -4.80 15.35 -9.70 1.65 -3.30 1.70 -6.30 0.10 -9.65 -2.45 -5.20 -8.45 -9.15 -15.60 -10.30 -2.05 -0.30 -3.70 -0.75 -3.70 -0.95 0 -0.70 4.85 -4.90 6.80 -5.90 5.10 -2.60 11.20 -3.30 16.25 -1.80 4 1.20 6.05 2.40 9.35 5.45 3.45 3.20 6.20 8.25 7.05 12.95 0.30 1.65 0.65 3.05 0.75 3.15 0.10 0.10 7.55 0.30 16.55 0.50 14.65 0.30 16.35 0.25 16.20 -0.45 -0.10 -0.45 -11.80 -12.65 -25.95 -27.15 -14.15 -14.50 -25.80 -26.55 -25.90 -26.80 -0.25 -0.65 2.45 -0.70 15.15 -0.45 11.45 0.25 12 0.30 12 1.20 0 0.70 -0.50 1.10 -1.75 1.40 -4.90 1.15 -7 2 -8.20 3.45 -2.70 3.15 -2.80 3 13.85 20.05 8.30 8.50 17.65 18.20 20.75 21.45 3.15 3.25 5.95 5.95 6.30 5.95 0.85 0 42.90 -41.20 43.40 -42.50 0.50 -1.40 -0.65 -4.10 -2.20 -5.10 -1.25 -0.80 -4.70 -2 -7.50 -2.60 -0.95 -0.25 -1.40 -0.65 -1.40 -1.30 0 -0.95 0.40 -1 13.75 -1 7.55 0 13.75 0.20 13.75 0.40 0 0.25 -12.05 12.20 -26.75 26.60 -14.70 14.35 -26.75 26.30 -26.75 26.50 0 0.85 2.85 1 17.60 1 l15.35 0 0.55 -2.85 c1.85 -9 8.55 -16.30 17 -18.45 5.10 -1.30 10.10 -0.80 14.65 1.45 3.60 1.80 8.75 6.20 8 6.85 -0.20 0.15 -2.10 0.60 -4.15 0.95 -14.20 2.25 -20.95 13.90 -13.10 22.60 3.45 3.85 8.55 6.35 14.50 7.20 2.35 0.30 2.55 0.40 2.05 1.30 -1 1.90 -6.45 5.45 -10.05 6.50 -2.75 0.85 -4.40 1.05 -7.90 0.85 -3.85 -0.20 -4.90 -0.45 -8.10 -2.05 -6.60 -3.25 -10.85 -8.65 -12.70 -16.10 -0.45 -1.95 -1.10 -3.65 -1.40 -3.85 -0.80 -0.55 -32.40 -0.50 -32.20 0.05 0.10 0.25 9.60 10.20 21.15 22.10 29.50 30.35 30.25 31.15 30.25 31.85 0 0.45 -2.95 0.60 -13.20 0.60 -12.75 0 -13.25 -0.05 -13.55 -1z m33.85 -36.50 c2.60 -0.75 2.80 -1.40 0.60 -2.30 -2.80 -1.15 -4.55 -2.65 -6.40 -5.40 -5.30 -7.85 -4 -19.70 2.85 -25.55 1.10 -0.95 2.20 -1.75 2.40 -1.75 0.15 0 1.20 -0.35 2.25 -0.80 l1.90 -0.80 -1.45 -0.80 c-1 -0.55 -2.75 -0.85 -5.25 -0.85 -3.20 0 -4.10 0.20 -6.40 1.45 -5.25 2.95 -8.50 7.85 -9.70 14.70 -1.65 9.80 3.50 19.65 11.60 22.15 1.85 0.55 5.50 0.50 7.60 -0.05z m-121.45 -1.80 c1.30 -0.45 3.50 -1.80 4.90 -3.05 8.55 -7.70 8.40 -23.10 -0.30 -31.05 -4.10 -3.80 -9.20 -5.05 -13.75 -3.40 -2.10 0.75 -2.10 1.40 0 2 2.65 0.75 6.65 4.85 8.30 8.40 1.30 2.85 1.45 3.65 1.40 8.40 0 4.55 -0.15 5.60 -1.30 8.05 -1.75 3.85 -4.45 6.65 -7.80 8.25 l-2.85 1.35 2 0.90 c2.50 1.15 6.35 1.20 9.40 0.15z"/>
  <path d="M74.75 47.50 c-0.45 -0.70 0.40 -2 1.80 -2.65 0.85 -0.45 1.30 -1.20 1.55 -2.85 0.55 -3.15 0.15 -4 -1.75 -4 -1.95 0 -2.75 0.50 -3.55 2.05 -0.30 0.65 -1 1.20 -1.55 1.20 -0.90 0 -1 -0.40 -1.15 -4.50 -0.10 -2.45 0 -5 0.15 -5.60 0.40 -1.60 2.15 -1.50 2.55 0.10 0.35 1.50 1.55 2.25 3.60 2.25 1.70 0 2.10 -0.70 2.10 -3.45 0 -2.10 -0.70 -3.05 -2.30 -3.05 -0.60 0 -2.65 -0.80 -4.55 -1.75 -6.60 -3.30 -11.50 -10.20 -12.05 -17.05 -0.15 -1.80 -0.50 -3.35 -0.80 -3.45 -0.30 -0.10 -1.20 -0.30 -1.95 -0.50 -1.10 -0.20 -1.40 -0.55 -1.25 -1.40 0.15 -1.05 0.40 -1.10 6.10 -1.25 3.30 -0.05 6.20 0.10 6.45 0.35 0.90 0.90 -0.15 2.50 -1.80 2.65 l-1.60 0.15 0.05 4.25 c0 4.70 0.90 7.10 3.55 9.60 1.65 1.60 6.25 3.75 8.40 4 l1.50 0.15 0.15 -9.10 0.10 -9.10 -2.10 -0.15 c-1.75 -0.10 -2.15 -0.35 -2.15 -1.15 0 -0.95 0.40 -1 6.65 -1.15 l6.60 -0.15 0 1.25 c0 1.10 -0.25 1.25 -2.10 1.40 l-2.15 0.15 -0.15 8.70 c-0.05 4.90 0.10 8.95 0.35 9.20 0.70 0.70 5.45 -0.85 8.20 -2.70 2.80 -1.85 4.65 -4.75 5.40 -8.60 0.75 -3.75 0.25 -6.35 -1.20 -6.35 -1.60 0 -2.50 -0.75 -2.25 -1.80 0.15 -0.85 0.75 -0.95 5.90 -1.10 3.15 -0.05 6.10 0.10 6.50 0.40 1.15 0.75 -0.05 2.20 -1.95 2.40 -1.40 0.15 -1.55 0.35 -1.55 1.75 -0.05 4.25 -2.35 9.90 -5.50 13.50 -3.15 3.55 -7.35 5.90 -12.60 7.05 -1.35 0.30 -1.40 0.45 -1.40 3.30 l0 3 1.95 0 c2.05 0 3.55 -1 3.55 -2.30 0 -0.40 0.50 -0.70 1.25 -0.70 l1.30 0 -0.15 5.40 c-0.15 5.05 -0.20 5.35 -1.25 5.50 -0.70 0.10 -1.15 -0.15 -1.40 -0.85 -0.50 -1.70 -1.70 -2.55 -3.50 -2.55 -1.80 0 -2.25 0.60 -2.25 3 0 2.30 0.85 3.95 2.25 4.30 0.90 0.20 1.25 0.65 1.25 1.50 0 1.20 -0.05 1.20 -5.45 1.20 -3.10 0 -5.65 -0.20 -5.80 -0.50z"/>
 </g>
 <g fill="#ffffff">
  <path d="M0 58 l0 -58 80.50 0 80.50 0 0 58 0 58 -11.50 0 c-8.85 0 -11.50 -0.15 -11.50 -0.60 0 -0.70 -0.75 -1.50 -30.25 -31.85 -11.55 -11.90 -21.05 -21.85 -21.15 -22.10 -0.20 -0.55 31.40 -0.60 32.20 -0.05 0.30 0.20 0.95 1.90 1.40 3.85 1.85 7.45 6.10 12.85 12.70 16.10 3.20 1.60 4.25 1.85 8.10 2.05 3.50 0.20 5.15 0 7.90 -0.85 3.60 -1.05 9.05 -4.60 10.05 -6.50 0.50 -0.90 0.30 -1 -2.05 -1.30 -5.95 -0.85 -11.05 -3.35 -14.50 -7.20 -7.85 -8.70 -1.10 -20.35 13.10 -22.60 2.05 -0.35 3.95 -0.80 4.15 -0.95 0.75 -0.65 -4.40 -5.05 -8 -6.85 -12.90 -6.40 -28.60 2.05 -31.65 17 l-0.55 2.85 -15.35 0 c-14.75 0 -17.60 -0.15 -17.60 -1 0 -0.20 12.05 -12.15 26.75 -26.50 14.70 -14.40 26.75 -26.35 26.75 -26.60 0 -0.20 -6.20 -0.40 -13.75 -0.40 -13.35 0 -13.75 0.05 -13.75 1 0 0.65 0.45 1.05 1.40 1.30 2.80 0.60 6.25 1.80 7.50 2.60 1.55 1 2.70 3.70 2.20 5.10 -0.50 1.30 -42.55 42.50 -43.40 42.50 -0.35 0 -3.15 -2.70 -6.30 -5.95 -3.10 -3.25 -12.45 -12.95 -20.75 -21.45 -16.65 -17.05 -16.55 -16.90 -13.85 -20.05 1.20 -1.45 3.30 -2.30 8.20 -3.45 1.25 -0.30 1.75 -0.70 1.75 -1.40 0 -0.90 -0.55 -0.95 -12 -1.20 -12.70 -0.25 -15.40 -0.20 -15.15 0.45 0.10 0.25 11.75 12.30 25.90 26.80 14.15 14.50 25.85 26.70 25.95 27.15 0.15 0.70 -1.55 0.75 -16.20 0.45 -9 -0.20 -16.45 -0.40 -16.55 -0.50 -0.10 -0.10 -0.45 -1.50 -0.75 -3.15 -0.85 -4.70 -3.60 -9.75 -7.05 -12.95 -3.30 -3.05 -5.35 -4.25 -9.35 -5.45 -5.05 -1.50 -11.15 -0.80 -16.25 1.80 -1.95 1 -6.80 5.20 -6.80 5.90 0 0.20 1.65 0.65 3.70 0.95 7.15 1.15 13.15 5.10 15.60 10.30 3.95 8.40 -3.25 17.40 -15.45 19.35 -4.70 0.75 -4.75 1.15 -0.60 4.50 4.55 3.70 7.40 4.60 14.05 4.65 5.40 0 5.60 -0.05 9.35 -1.90 2.30 -1.15 4.85 -2.90 6.35 -4.40 2.55 -2.55 5.60 -8.15 6.25 -11.45 0.75 -3.85 -1 -3.50 16.95 -3.50 8.85 0 16.30 0.15 16.50 0.40 0.20 0.20 -11.60 12.20 -26.30 26.65 -14.65 14.50 -26.55 26.45 -26.40 26.60 0.15 0.10 6.20 0.30 13.50 0.40 12.65 0.20 13.25 0.15 13.40 -0.75 0.25 -1.15 -0.70 -1.80 -2.65 -1.80 -1.95 -0.05 -5.40 -1.60 -7 -3.20 -0.85 -0.85 -1.25 -1.80 -1.25 -2.95 0 -1.60 1.40 -3.10 20.20 -21.55 11.10 -10.90 20.30 -19.80 20.50 -19.80 0.40 0 0.40 7.80 -0.05 20.15 l-0.30 9.85 -4.05 0 c-4.65 -0.05 -5.60 -0.50 -6.55 -3.35 -0.55 -1.55 -0.90 -1.95 -2.15 -2.05 l-1.50 -0.15 -0.35 5.65 c-0.50 8 -0.40 8.60 1.65 8.80 1.45 0.15 1.65 0 1.90 -1.35 0.20 -0.80 0.85 -2 1.55 -2.65 1.05 -0.95 1.80 -1.15 4.80 -1.20 2 0 3.90 0.05 4.25 0.20 0.40 0.15 0.60 1.55 0.60 4.60 0 3.65 -0.15 4.60 -1.05 5.70 -1.40 1.80 -3.15 2.60 -6.50 3 -2.90 0.35 -4.90 1.70 -4.20 2.75 0.20 0.35 4.90 0.55 14.05 0.55 11.30 0 13.70 -0.10 13.70 -0.70 0 -1.10 -1.20 -1.80 -4.30 -2.35 -6.20 -1.15 -7.20 -2.40 -7.20 -8.80 l0 -4.65 4.15 0 c4.90 0 6.05 0.60 6.85 3.55 0.50 1.85 0.65 2 2.15 1.85 l1.60 -0.15 0.15 -7.10 0.15 -7.15 -1.70 0 c-1.55 0 -1.75 0.20 -2.30 2.05 -0.90 3 -3.85 4 -9.15 3.15 l-1.90 -0.35 0.05 -7.05 c0.05 -3.85 0.20 -10.60 0.40 -14.95 l0.30 -7.95 7.25 7.45 c4 4.05 10.40 10.65 14.25 14.65 3.85 4 9.55 9.85 12.65 13.05 6.50 6.75 6.90 7.70 3.80 10.45 -2.15 1.90 -3.60 2.50 -6.95 2.95 -2.35 0.30 -2.50 0.40 -2.40 1.70 l0.10 1.35 -55.75 0 -55.70 0 0 -58z m86 -11.20 c0 -0.85 -0.35 -1.30 -1.25 -1.50 -1.40 -0.35 -2.25 -2 -2.25 -4.30 0 -2.40 0.45 -3 2.25 -3 1.80 0 3 0.85 3.50 2.55 0.25 0.70 0.70 0.95 1.40 0.85 1.05 -0.15 1.10 -0.45 1.25 -5.50 l0.15 -5.40 -1.30 0 c-0.75 0 -1.25 0.30 -1.25 0.70 0 1.30 -1.50 2.30 -3.55 2.30 l-1.95 0 0 -3 c0 -2.85 0.05 -3 1.40 -3.30 5.25 -1.15 9.45 -3.50 12.60 -7.05 3.15 -3.60 5.45 -9.25 5.50 -13.50 0 -1.40 0.15 -1.60 1.55 -1.75 1.90 -0.20 3.10 -1.65 1.95 -2.40 -0.40 -0.30 -3.35 -0.45 -6.50 -0.40 -5.15 0.15 -5.75 0.25 -5.90 1.10 -0.25 1.05 0.65 1.80 2.25 1.80 1.45 0 1.95 2.60 1.20 6.35 -0.75 3.85 -2.60 6.75 -5.40 8.60 -2.75 1.85 -7.50 3.40 -8.20 2.70 -0.25 -0.25 -0.40 -4.30 -0.35 -9.20 l0.15 -8.70 2.15 -0.15 c1.85 -0.15 2.10 -0.30 2.10 -1.40 l0 -1.25 -6.60 0.15 c-6.25 0.15 -6.65 0.20 -6.65 1.15 0 0.80 0.40 1.05 2.15 1.15 l2.10 0.15 -0.10 9.10 -0.15 9.10 -1.50 -0.15 c-2.15 -0.25 -6.75 -2.40 -8.40 -4 -2.65 -2.50 -3.55 -4.90 -3.55 -9.60 l-0.05 -4.25 1.60 -0.15 c1.65 -0.15 2.70 -1.75 1.80 -2.65 -0.25 -0.25 -3.15 -0.40 -6.45 -0.35 -5.70 0.15 -5.95 0.20 -6.10 1.25 -0.15 0.85 0.15 1.20 1.25 1.40 0.75 0.20 1.65 0.40 1.95 0.50 0.30 0.10 0.65 1.65 0.80 3.45 0.55 6.85 5.45 13.75 12.05 17.05 1.90 0.95 3.95 1.75 4.55 1.75 1.60 0 2.30 0.95 2.30 3.05 0 2.75 -0.40 3.45 -2.10 3.45 -2.05 0 -3.25 -0.75 -3.60 -2.25 -0.40 -1.60 -2.15 -1.70 -2.55 -0.10 -0.15 0.60 -0.25 3.15 -0.15 5.60 0.15 4.10 0.25 4.50 1.15 4.50 0.55 0 1.25 -0.55 1.55 -1.20 0.80 -1.55 1.60 -2.05 3.55 -2.05 1.90 0 2.30 0.85 1.75 4 -0.25 1.65 -0.70 2.40 -1.55 2.85 -1.40 0.65 -2.25 1.95 -1.80 2.65 0.15 0.30 2.70 0.50 5.80 0.50 5.40 0 5.45 0 5.45 -1.20z"/>
  <path d="M137.50 78.55 c-8.10 -2.50 -13.25 -12.35 -11.60 -22.15 1.20 -6.85 4.45 -11.75 9.70 -14.70 2.30 -1.25 3.20 -1.45 6.40 -1.45 2.50 0 4.25 0.30 5.25 0.85 l1.45 0.80 -1.90 0.80 c-1.05 0.45 -2.10 0.80 -2.25 0.80 -0.85 0 -4.55 3.65 -5.70 5.60 -5.75 9.90 -2.35 23.25 6.85 27.10 1.05 0.45 1.75 1 1.55 1.25 -0.75 1.30 -6.90 1.95 -9.75 1.10z"/>
  <path d="M14.25 76.55 l-2 -0.90 2.85 -1.35 c3.35 -1.60 6.05 -4.40 7.80 -8.25 1.15 -2.45 1.30 -3.50 1.30 -8.05 0.05 -4.75 -0.10 -5.55 -1.40 -8.40 -1.65 -3.55 -5.65 -7.65 -8.30 -8.40 -2.10 -0.60 -2.10 -1.25 0 -2 8.60 -3.10 18.25 4.35 20.10 15.50 1.95 11.80 -5.70 22.85 -15.80 22.80 -1.40 0 -3.45 -0.45 -4.55 -0.95z"/>
 </g>
</svg>