<?xml version="1.0" encoding="utf-8"?>
<!DOCTYPE svg PUBLIC "-//W3C//DTD SVG 1.0//EN" "http://www.w3.org/TR/2001/REC-SVG-20010904/DTD/svg10.dtd">
<svg version="1.0" xmlns="http://www.w3.org/2000/svg" width="167px" height="116px" viewBox="0 0 167 116" preserveAspectRatio="xMidYMid meet">
 <g fill="#000000">
  <path d="M32.50 114.15 c-1.60 -0.60 -3.95 -3.35 -4.50 -5.35 -0.45 -1.60 -0.45 -2.65 -0.05 -4.10 0.35 -1.20 0.35 -2 0.05 -2.10 -0.25 -0.10 -1.20 -0.65 -2.10 -1.25 -5.10 -3.45 -5.25 -9.85 -0.35 -13.50 1.45 -1.05 4.60 -1.30 7.35 -0.65 l1.60 0.45 0 -16.85 0 -16.80 -7.50 0 -7.50 0 -1.25 2.45 c-1.40 2.85 -3.25 4.30 -6.15 5 -4.05 0.90 -8.65 -1.15 -10.40 -4.55 -1.05 -2.05 -1.10 -6.70 -0.05 -8.70 1.80 -3.45 6.05 -5.60 9.90 -4.95 1.95 0.35 5.95 2.85 5.95 3.75 0 1.05 1.55 0.35 9.30 -3.90 15.80 -8.80 32.70 -18.10 45.30 -25 7.05 -3.90 13.40 -7.40 14.10 -7.85 1.05 -0.70 1.35 -0.75 1.55 -0.20 0.15 0.40 0.30 9.15 0.35 19.45 l0.15 18.75 6.50 0 c6.25 0 6.50 -0.05 7.05 -1.15 2.85 -5.75 10.35 -6.85 14.35 -2.15 3.10 3.70 2.80 8.60 -0.70 11.80 -2.25 2 -3.65 2.45 -6.90 2.15 -2.65 -0.25 -4.90 -1.70 -6.25 -3.95 l-0.85 -1.50 -6.60 0.15 -6.60 0.15 -0.15 12.95 c-0.10 10.85 0 12.85 0.60 12.65 0.35 -0.15 9.85 -6.55 21.10 -14.25 l20.45 -14 4.40 -13.40 c2.45 -7.35 4.55 -13.65 4.70 -14 0.15 -0.35 -0.70 -1.05 -2.15 -1.65 -3.60 -1.60 -5.45 -3.25 -6.90 -6.15 -2.70 -5.45 -0.75 -11 4.95 -14.05 3.10 -1.65 9 -1.50 13 0.30 5.25 2.45 7.85 5.15 8.75 9.20 0.75 3.15 -0.50 4.40 -1.50 1.45 -0.80 -2.45 -3.75 -5.65 -6.40 -6.95 -3.35 -1.55 -10.85 -1.60 -12.95 -0.05 -6.10 4.50 -4.25 11.65 4.05 15.50 1.40 0.65 3.30 1.20 4.20 1.20 1.90 0 2.05 0.80 0.45 2.30 -0.80 0.75 -2.35 4.95 -5.25 13.80 -2.25 7 -4.10 12.90 -4.10 13.10 0 0.20 4 5.05 8.90 10.85 6.70 7.90 9.20 10.60 10.35 10.85 2.35 0.65 2.15 1.85 -0.35 2.55 -3.35 0.95 -6.60 3.60 -8.10 6.60 -1.50 3 -1.60 4.25 -0.60 6.70 1.95 4.65 8.80 5.05 14.20 0.75 2.70 -2.10 4.60 -5.40 4.60 -7.85 0 -1.95 0.45 -3.25 1.05 -2.85 0.90 0.55 0.45 4.95 -0.80 7.60 -3.05 6.50 -7.40 9.60 -13.55 9.60 -6.95 0 -10.70 -3.15 -10.70 -9.05 0 -3.55 1.70 -7.05 5.05 -10.25 1.35 -1.35 2.45 -2.60 2.45 -2.80 0 -0.45 -14.45 -17.55 -15.25 -18 -0.60 -0.35 -4.20 2.05 -31.25 20.60 -14.60 10.05 -14.80 10.15 -16.25 9.80 l-1.25 -0.30 0 -16.25 0 -16.25 -4.75 0 c-2.60 0 -4.75 0.10 -4.75 0.20 0 0.10 0.35 0.85 0.75 1.60 1.95 3.75 -0.40 9 -4.55 10.15 -1.05 0.30 -1.40 0.65 -1.30 1.35 0.70 3.90 0.65 4.70 -0.45 6.65 -0.75 1.35 -1.85 2.40 -3.20 3.05 -2.55 1.25 -3.45 1.25 -6.10 0.05 -2.90 -1.35 -4.40 -4.25 -3.95 -7.85 0.30 -2.50 0.25 -2.60 -1.20 -3.20 -3.70 -1.55 -5.70 -5.90 -4.25 -9.30 0.40 -1 0.75 -1.90 0.75 -2 0 -0.10 -2.55 -0.20 -5.65 -0.20 l-5.70 0 -0.30 15.80 c-0.20 8.70 -0.25 16 -0.10 16.25 0.15 0.20 0.85 0.20 1.55 -0.05 1.60 -0.60 4.75 -0.65 6.30 -0.05 1.80 0.70 3.85 3 4.45 5.10 1.25 4.15 -1.75 9.05 -6 9.75 -2.95 0.45 -3.10 0.65 -2.20 3.35 0.70 2.20 0.70 2.55 -0.05 4.60 -0.50 1.20 -1.65 2.90 -2.60 3.75 -1.50 1.30 -2.10 1.50 -4.60 1.45 -1.55 0 -3.20 -0.15 -3.60 -0.30z m7.05 -3.60 c2.15 -2.15 2.05 -5.05 -0.25 -7.35 -1.30 -1.30 -2.10 -1.70 -3.55 -1.70 -2.75 0 -5.25 2.60 -5.25 5.50 0 4.55 5.75 6.80 9.05 3.55z m-6.50 -12.50 c1.15 -1.15 1.45 -1.90 1.45 -3.55 0 -2.60 -0.65 -3.80 -2.50 -4.75 -2.45 -1.25 -4.40 -0.95 -6.30 0.95 -3.50 3.50 -1.30 8.75 3.70 8.80 1.75 0 2.45 -0.30 3.65 -1.45z m14.40 -0.35 c3.90 -3.25 1.40 -9.70 -3.75 -9.70 -3.30 0 -6.10 3.85 -5.15 7.15 1.05 3.80 5.80 5.20 8.90 2.55z m18.20 -23.20 c2.80 -2.25 2.55 -6.35 -0.60 -8.20 -4.95 -2.85 -9.85 4 -5.60 7.80 1.90 1.70 4.35 1.85 6.20 0.40z m-5.60 -11.95 c2 -2 2 -4.45 0 -6.65 -1.20 -1.35 -1.80 -1.65 -3.55 -1.65 -1.75 0 -2.35 0.30 -3.60 1.70 -1.30 1.45 -1.50 1.95 -1.25 3.75 0.60 4.20 5.40 5.85 8.40 2.85z m11.90 -0.10 c1.65 -1.55 2.20 -3.30 1.55 -5.20 -1.10 -3.35 -4.45 -4.60 -7.35 -2.80 -2.75 1.70 -3.10 5.45 -0.80 7.80 1.65 1.65 4.95 1.75 6.60 0.20z m-58.55 -5.30 c1.85 -1.15 2.80 -3.95 2.15 -6.15 -0.85 -2.85 -2.70 -4.25 -5.60 -4.25 -2.05 0 -2.65 0.25 -4 1.55 -5.05 5.10 1.35 12.70 7.45 8.85z m99.10 -1.40 c2.80 -1.45 3.85 -5.45 2.15 -8.30 -2.95 -4.95 -10.65 -2.85 -10.65 2.90 0 2.75 0.60 3.90 2.65 5.15 1.90 1.20 3.90 1.25 5.85 0.25z m-42.75 -7.10 l14.25 -0.30 0 -14.90 c0 -8.20 -0.20 -15 -0.40 -15.15 -0.20 -0.15 -3.75 1.60 -7.90 3.90 -38 20.95 -48 26.50 -48.45 26.95 -0.50 0.45 3.45 0.40 42.50 -0.50z"/>
 </g>
 <g fill="#ffffff">
  <path d="M0 58 l0 -58 83.50 0 83.50 0 0 58 0 58 -83.50 0 -83.50 0 0 -58z m40.70 55 c0.95 -0.85 2.10 -2.55 2.60 -3.75 0.75 -2.05 0.75 -2.40 0.05 -4.60 -0.90 -2.70 -0.75 -2.90 2.20 -3.35 4.25 -0.70 7.25 -5.60 6 -9.75 -0.60 -2.10 -2.65 -4.40 -4.45 -5.10 -1.55 -0.60 -4.70 -0.55 -6.30 0.05 -0.70 0.25 -1.40 0.25 -1.55 0.05 -0.15 -0.25 -0.10 -7.55 0.10 -16.25 l0.30 -15.80 5.70 0 c3.10 0 5.65 0.10 5.65 0.20 0 0.10 -0.35 1 -0.75 2 -1.45 3.40 0.55 7.75 4.25 9.30 1.45 0.60 1.50 0.70 1.20 3.20 -0.45 3.60 1.05 6.50 3.95 7.85 2.65 1.20 3.55 1.20 6.10 -0.05 1.35 -0.65 2.45 -1.70 3.20 -3.05 1.10 -1.95 1.15 -2.75 0.45 -6.65 -0.10 -0.70 0.25 -1.05 1.30 -1.35 4.15 -1.15 6.50 -6.40 4.55 -10.15 -0.40 -0.75 -0.75 -1.50 -0.75 -1.60 0 -0.10 2.15 -0.20 4.75 -0.20 l4.75 0 0 16.25 0 16.25 1.25 0.30 c1.45 0.35 1.65 0.25 16.25 -9.80 27.05 -18.55 30.65 -20.95 31.25 -20.60 0.80 0.45 15.25 17.55 15.25 18 0 0.20 -1.10 1.45 -2.45 2.80 -3.35 3.20 -5.05 6.70 -5.05 10.25 0 5.90 3.75 9.05 10.70 9.05 6.15 0 10.50 -3.10 13.55 -9.60 1.25 -2.65 1.70 -7.05 0.80 -7.60 -0.60 -0.40 -1.05 0.90 -1.05 2.85 0 2.45 -1.90 5.75 -4.60 7.85 -5.40 4.30 -12.25 3.90 -14.20 -0.75 -1 -2.45 -0.90 -3.70 0.60 -6.70 1.50 -3 4.75 -5.65 8.10 -6.60 2.50 -0.70 2.70 -1.90 0.35 -2.55 -1.15 -0.25 -3.65 -2.95 -10.35 -10.85 -4.90 -5.80 -8.90 -10.65 -8.90 -10.85 0 -0.20 1.85 -6.10 4.10 -13.10 2.90 -8.85 4.45 -13.05 5.25 -13.80 1.60 -1.50 1.45 -2.30 -0.45 -2.30 -0.90 0 -2.80 -0.55 -4.20 -1.20 -8.30 -3.85 -10.15 -11 -4.05 -15.50 2.10 -1.55 9.60 -1.50 12.95 0.05 2.65 1.30 5.60 4.50 6.40 6.95 1 2.95 2.25 1.70 1.50 -1.45 -0.90 -4.05 -3.50 -6.75 -8.75 -9.20 -4 -1.80 -9.90 -1.95 -13 -0.30 -5.70 3.05 -7.65 8.60 -4.95 14.05 1.45 2.90 3.30 4.55 6.90 6.15 1.45 0.60 2.30 1.30 2.15 1.65 -0.15 0.35 -2.25 6.65 -4.70 14 l-4.40 13.40 -20.45 14 c-11.25 7.70 -20.75 14.10 -21.10 14.25 -0.60 0.20 -0.70 -1.80 -0.60 -12.65 l0.15 -12.95 6.60 -0.15 6.60 -0.15 0.85 1.50 c1.35 2.25 3.60 3.70 6.25 3.95 3.25 0.30 4.65 -0.15 6.90 -2.15 3.50 -3.20 3.80 -8.10 0.70 -11.80 -4 -4.70 -11.50 -3.60 -14.35 2.15 -0.55 1.10 -0.80 1.15 -7.05 1.15 l-6.50 0 -0.15 -18.75 c-0.05 -10.30 -0.20 -19.05 -0.35 -19.45 -0.20 -0.55 -0.50 -0.50 -1.55 0.20 -0.70 0.45 -7.05 3.95 -14.10 7.85 -12.60 6.90 -29.50 16.20 -45.30 25 -7.75 4.25 -9.30 4.95 -9.30 3.90 0 -0.90 -4 -3.40 -5.95 -3.75 -3.85 -0.65 -8.10 1.50 -9.90 4.95 -1.05 2 -1 6.65 0.05 8.70 1.75 3.40 6.35 5.45 10.40 4.55 2.90 -0.70 4.75 -2.15 6.15 -5 l1.25 -2.45 7.50 0 7.50 0 0 16.80 0 16.85 -1.60 -0.45 c-2.75 -0.65 -5.90 -0.40 -7.35 0.65 -4.90 3.65 -4.75 10.05 0.35 13.50 0.90 0.60 1.85 1.15 2.10 1.25 0.30 0.10 0.30 0.90 -0.05 2.10 -0.75 2.65 0.20 5.75 2.25 7.70 1.95 1.85 2.40 2 5.90 2.05 2.50 0.05 3.10 -0.15 4.60 -1.45z"/>
  <path d="M32.05 110.55 c-1.25 -1.20 -1.55 -1.85 -1.55 -3.55 0 -2.90 2.50 -5.50 5.25 -5.50 2.75 0 5.25 2.60 5.25 5.50 0 4.60 -5.50 6.80 -8.95 3.55z"/>
  <path d="M26.20 98.60 c-2.75 -2.20 -2.95 -5.45 -0.50 -7.90 1.90 -1.90 3.85 -2.20 6.30 -0.95 1.85 0.95 2.50 2.15 2.50 4.75 0 2.95 -2.10 5 -5.10 5 -1.30 0 -2.60 -0.35 -3.20 -0.90z"/>
  <path d="M40.35 98 c-2.80 -2.20 -2.60 -6.55 0.40 -8.90 3.80 -3 9.45 0.75 8.55 5.60 -0.70 3.80 -5.90 5.70 -8.95 3.30z"/>
  <path d="M59.45 74.10 c-4.25 -3.80 0.65 -10.65 5.60 -7.80 3.15 1.85 3.40 5.95 0.60 8.20 -1.85 1.45 -4.30 1.30 -6.20 -0.40z"/>
  <path d="M53.25 62.85 c-0.85 -0.70 -1.40 -1.80 -1.60 -3.15 -0.25 -1.80 -0.05 -2.30 1.25 -3.75 1.25 -1.40 1.85 -1.70 3.60 -1.70 1.75 0 2.35 0.30 3.55 1.65 2 2.20 2 4.65 0 6.65 -1.90 1.85 -4.85 2 -6.80 0.30z"/>
  <path d="M65.35 62.25 c-2.30 -2.35 -1.95 -6.10 0.80 -7.80 5.25 -3.30 10.35 3.75 5.80 8 -1.65 1.55 -4.95 1.45 -6.60 -0.20z"/>
  <path d="M8 57.85 c-4.05 -1.40 -5.15 -6.45 -2.05 -9.55 1.35 -1.30 1.95 -1.55 4 -1.55 1.95 0 2.75 0.25 3.75 1.20 4.80 4.50 0.50 11.95 -5.70 9.90z"/>
  <path d="M106.65 55.50 c-2.05 -1.25 -2.65 -2.40 -2.65 -5.15 0 -5.75 7.70 -7.85 10.65 -2.90 3.15 5.35 -2.75 11.30 -8 8.05z"/>
  <path d="M27.25 49.15 c0.45 -0.45 10.45 -6 48.45 -26.95 4.15 -2.30 7.70 -4.05 7.90 -3.90 0.20 0.15 0.40 6.95 0.40 15.15 l0 14.90 -14.25 0.30 c-39.05 0.90 -43 0.95 -42.50 0.50z"/>
 </g>
</svg>