<?xml version="1.0" encoding="utf-8"?>
<!DOCTYPE svg PUBLIC "-//W3C//DTD SVG 1.0//EN" "http://www.w3.org/TR/2001/REC-SVG-20010904/DTD/svg10.dtd">
<svg version="1.0" xmlns="http://www.w3.org/2000/svg" width="164px" height="133px" viewBox="0 0 164 133" preserveAspectRatio="xMidYMid meet">
 <g fill="#000000">
  <path d="M113.65 132 c-2.30 -0.55 -3.85 -1.65 -5.15 -3.70 -0.60 -1 -1.25 -1.80 -1.45 -1.80 -0.15 0 -0.75 0.80 -1.30 1.80 -1.45 2.65 -3.20 3.70 -6.35 3.70 -3.55 0 -6.15 -1.55 -8.15 -4.70 -1.35 -2.20 -1.50 -2.90 -1.50 -6.50 0 -7 2.70 -11.20 11.80 -18.40 l4.35 -3.40 0.35 -4.15 c0.15 -2.25 0.25 -5.80 0.15 -7.85 l-0.15 -3.75 -18.50 -0.30 c-10.15 -0.15 -18.60 -0.20 -18.75 -0.10 -0.10 0.10 0.05 0.65 0.40 1.15 2.10 3.40 1.50 8.50 -1.30 11.45 -2.85 3 -6.75 3.75 -10.35 2.10 -2.40 -1.10 -3.95 -2.70 -5 -5.15 -1.05 -2.60 -0.95 -4.85 0.45 -7.60 0.80 -1.55 1 -2.45 0.60 -2.55 -0.30 -0.10 -11.30 -0.30 -24.40 -0.45 l-23.90 -0.30 -0.35 1.35 c-0.25 0.80 -0.35 4.30 -0.25 7.80 0.10 5.75 0.30 6.95 1.85 11.80 3.25 10 8.15 16.50 13.65 18.05 3 0.80 6.65 0.60 8.45 -0.50 5 -3.05 6.15 -10.90 2.15 -14.75 -1.90 -1.80 -5.70 -2.30 -7.70 -1 -1.50 1 -2.80 3.20 -2.80 4.75 0 1.75 2.25 3.60 4.15 3.40 2.10 -0.20 2.40 -1.60 0.60 -2.95 -1.05 -0.85 -1.15 -1.20 -0.70 -1.80 0.95 -1.10 3.45 -0.60 4.65 1 0.95 1.30 0.95 1.50 0.30 3.45 -0.65 1.80 -1.10 2.25 -3 3.05 -4.60 1.90 -8.50 -0.65 -8.85 -5.85 -0.25 -3.25 0.85 -5.50 3.70 -7.50 1.75 -1.20 2.60 -1.45 5 -1.45 3.35 0 5.45 0.90 7.40 3.25 2.90 3.40 3.45 7.25 1.90 12.25 -2.40 7.65 -9.95 10.80 -17.60 7.35 -7.55 -3.35 -14.80 -15.45 -16.55 -27.55 -1.15 -7.95 1.20 -24.10 4.75 -32.35 2.55 -5.85 5.40 -9.55 10.45 -13.50 l4.15 -3.25 0.35 -5.15 c0.25 -3.25 0.80 -6.50 1.60 -8.80 0.65 -2 1.20 -3.85 1.20 -4.10 0 -0.25 -0.95 -0.70 -2.10 -1.05 -4.50 -1.20 -7.55 -3.75 -8.45 -7.05 -0.40 -1.55 -0.30 -2.20 0.50 -3.80 1.45 -2.90 3.15 -3.80 6.40 -3.45 1.50 0.15 3.40 0.70 4.30 1.20 2.10 1.25 4.30 5.35 4.75 9 l0.35 2.90 7.25 0.15 c7.65 0.15 9.45 -0.20 10.75 -2.10 1 -1.35 0.95 -3.30 -0.25 -7.80 -1.20 -4.55 -1.20 -5.30 -0.20 -5.70 1.25 -0.50 2.85 0.70 6.10 4.55 1.70 1.95 3.30 3.75 3.60 3.90 0.30 0.20 0.50 -0.50 0.50 -1.70 0 -3.65 1.85 -7.50 5.20 -10.80 5.40 -5.25 10.60 -7.10 16.20 -5.75 2 0.45 3.05 1.10 4.75 2.95 1.20 1.30 2.50 3.20 2.85 4.25 0.85 2.55 0.45 9.05 -0.70 11.20 -0.50 0.95 -0.75 1.80 -0.60 1.95 0.10 0.15 5.25 -2.25 11.35 -5.30 6.30 -3.15 11.70 -5.55 12.55 -5.55 l1.40 0 0 13.25 c0 7.30 0.15 13.25 0.30 13.25 0.80 0 18.05 -15.40 20.85 -18.60 1.10 -1.30 1.15 -4.70 0.05 -5.10 -0.90 -0.35 -2.65 0.05 -2.75 0.60 0 0.20 -0.10 0.90 -0.15 1.55 -0.10 0.65 -0.55 1.50 -1.05 1.90 -1.35 0.95 -2.45 -0.25 -2.35 -2.65 0.10 -2.75 0.55 -3.65 2.10 -4.45 2.85 -1.45 6.45 -0.70 8.35 1.75 1.05 1.30 0.75 4.40 -0.65 6.80 l-1.30 2.20 1.80 2 c1.50 1.70 1.80 2.35 1.80 4.30 0 4 -3.55 6.45 -7.60 5.25 -1.30 -0.40 -2.25 -1.10 -2.80 -2.10 -1.05 -1.80 -1.75 -1.80 -3.80 -0.15 -3.15 2.65 -7.80 7.30 -7.80 7.90 0 0.30 0.75 0.90 1.60 1.30 2.15 1 3.55 3.85 3.10 6.25 -0.65 3.55 -5.05 6.15 -8.05 4.80 -0.65 -0.30 -1.45 -0.45 -1.70 -0.30 -0.25 0.20 -0.45 6.45 -0.45 14.75 l0 14.40 6.15 0.35 c3.35 0.15 11.50 0.25 18.10 0.15 l12 -0.15 0.15 -6.85 0.15 -6.90 -3.35 0 -3.30 0 -3 2.75 c-3 2.80 -3.60 3.10 -4.10 2.30 -0.50 -0.80 0.30 -15.05 0.85 -15.05 0.30 0 1.80 1.25 3.40 2.75 l2.90 2.75 3.20 0 3.25 0 0.35 -2.95 c0.20 -1.65 0.20 -3.45 0.05 -3.95 -0.20 -0.55 -1.55 -2.05 -3.05 -3.35 -1.55 -1.30 -2.75 -2.75 -2.75 -3.30 0 -0.85 0.40 -0.95 4.15 -0.95 6.15 0 11.85 0.55 11.85 1.15 0 0.30 -1.45 1.90 -3.25 3.60 l-3.30 3.05 0.15 3.50 0.15 3.45 2.60 0.15 c2.50 0.15 2.70 0.05 5.50 -2.45 1.60 -1.45 3 -2.80 3.05 -3.05 0.10 -0.20 0.40 -0.30 0.65 -0.10 0.65 0.35 0.60 14.05 -0.05 14.45 -0.30 0.20 -1.80 -0.80 -3.35 -2.20 -2.80 -2.50 -2.90 -2.55 -6 -2.55 -3.50 0 -3.25 -0.35 -3.20 4.50 0.05 1.50 -0.15 8.50 -0.40 15.50 -0.60 15.55 -0.95 16.85 -4.75 20.40 -4.45 4.05 -9.75 4.70 -13.95 1.75 -4.55 -3.15 -5.60 -7.45 -3.05 -12.55 1.50 -3 3.05 -4.40 5.75 -5.10 5.75 -1.55 10.60 5.95 6.50 10.05 -1.55 1.55 -3.75 1.90 -5.60 0.90 -1.35 -0.70 -0.45 -1.80 1.90 -2.25 2.15 -0.40 3.10 -2.05 2.25 -3.95 -0.45 -0.95 -0.95 -1.25 -2.05 -1.25 -3.50 0 -5.55 2.20 -5.55 6 0 3.90 2.60 6.50 6.55 6.50 1.95 0 2.40 -0.25 4.70 -2.65 2.35 -2.40 2.65 -3 3.15 -5.90 1 -5.65 1.25 -14.05 0.50 -14.50 -0.35 -0.25 -8.65 -0.45 -18.45 -0.45 l-17.80 0 -0.35 3.05 c-0.15 1.70 -0.30 5.20 -0.30 7.75 l0 4.65 3.15 2.35 c1.70 1.30 3.95 3.15 5 4.15 6.05 5.65 9.95 16.45 7.60 21.10 -1.40 2.80 -4.25 5.40 -6.20 5.75 -1 0.15 -2.15 0.35 -2.55 0.45 -0.40 0.05 -1.50 -0.05 -2.35 -0.25z m-11.10 -4.95 c2.15 -2.15 2.55 -4.10 1.10 -5.65 -1.70 -1.85 -3.90 -0.75 -3 1.55 0.65 1.75 0.20 3.05 -1.05 3.05 -1.40 0 -2.20 -1.20 -2.45 -3.70 -0.35 -2.75 0.40 -4.05 2.65 -4.80 3.15 -1.05 6.25 0.25 7.35 3.15 0.15 0.40 0.70 0.10 1.45 -0.75 1.40 -1.60 3.90 -2.90 5.65 -2.90 0.75 0 1.85 0.55 2.60 1.30 1.10 1.15 1.25 1.55 0.95 3.60 -0.35 2.65 -1.55 4.20 -3 4 -1.45 -0.20 -1.60 -1.80 -0.30 -3.15 1.35 -1.40 1 -2.75 -0.65 -2.75 -1.75 0 -2.85 1.05 -3.15 3 -0.30 2.05 1.15 4.70 3 5.55 1.75 0.80 4.60 0.15 6.40 -1.50 1.45 -1.30 1.60 -1.65 1.55 -4.60 0 -6.75 -5.05 -14.80 -11.30 -18.20 -2.60 -1.35 -2.85 -1.40 -4.20 -0.75 -0.75 0.40 -3.45 2.75 -5.95 5.25 -8 8 -9.25 13.30 -4.30 18.40 2.45 2.50 4.10 2.50 6.65 -0.10z m-38 -32.90 c4.75 -2.80 3.10 -10.25 -2.40 -11 -4.90 -0.65 -8.25 4.35 -5.90 8.85 1.45 2.80 5.45 3.85 8.30 2.15z m42.05 -30.40 c0.20 -8.50 0.25 -15.80 0.15 -16.20 -0.20 -0.55 -0.55 -0.45 -1.45 0.40 -0.95 0.90 -1.15 1.50 -0.95 3.20 0.55 5.70 -6.25 8.90 -10.30 4.80 l-1.50 -1.50 -2.05 2.60 c-4.15 5.25 -1.25 9.05 3.55 4.70 1.25 -1.15 2.25 -1.65 2.50 -1.40 0.70 0.70 0.35 10.25 -0.40 10.50 -0.30 0.15 -1.20 -0.70 -1.95 -1.85 -1.25 -1.90 -1.50 -2.05 -3.40 -1.90 l-2.05 0.15 -0.15 2.95 c-0.15 2.65 0 3.20 1.35 5.10 0.85 1.15 1.55 2.25 1.55 2.40 0 0.15 -2.25 0.30 -5 0.30 -3.25 0 -5 -0.20 -5 -0.55 0 -0.30 0.90 -1.45 2 -2.60 1.95 -1.95 2.05 -2.20 1.90 -4.85 l-0.15 -2.75 -1.90 -0.15 c-1.65 -0.15 -2.30 0.15 -4.70 2.10 -1.50 1.25 -2.95 2.15 -3.20 2 -0.25 -0.15 -0.45 -1.50 -0.45 -3 0 -1.50 -0.20 -2.70 -0.50 -2.70 -0.25 0 -1.30 0.55 -2.30 1.25 -2.30 1.55 -5 1.65 -7.45 0.20 l-1.80 -1.10 -1.95 1.10 c-2.55 1.45 -7.45 1.45 -9.75 0.05 -2.25 -1.40 -3.50 -4.45 -3.50 -8.50 0 -2.75 0.30 -3.85 1.70 -6.60 1.55 -3.10 3.45 -5.25 10.35 -11.75 1.95 -1.75 2.15 -2.20 2.45 -5.25 0.40 -3.85 0.20 -4.40 -3.45 -8.65 -1.45 -1.65 -3.45 -4.20 -4.50 -5.65 -2.65 -3.65 -3.60 -3.40 -3.40 0.90 0.15 2.75 0 3.50 -0.90 4.65 -1.90 2.40 -2.70 2.60 -12.75 2.85 l-9.50 0.25 -1.40 2.95 c-1.15 2.30 -1.50 3.85 -1.70 7.60 l-0.30 4.65 2.50 -0.25 c4.60 -0.55 7.15 1.90 7.15 6.90 0 4.90 -3.50 8.90 -7.70 8.90 -1.25 -0.05 -2.50 -0.40 -3.20 -1 -1.20 -1 -3.05 -4.70 -3.10 -6.10 -0.05 -4 -7.70 4.95 -10.90 12.75 -1.80 4.35 -3.50 11.65 -2.80 12.35 0.45 0.45 59.95 1.40 85.45 1.30 l14.50 -0.05 0.35 -15.50z m-47 0.25 c1.25 -1.30 1.45 -1.80 1.20 -3.10 -0.15 -0.90 -0.70 -2 -1.15 -2.50 -0.45 -0.50 -0.65 -1.05 -0.45 -1.25 0.50 -0.50 6.60 -0.50 7.10 0 0.20 0.20 -0.10 0.85 -0.70 1.50 -2.20 2.30 -0.80 6.35 2.15 6.35 1.85 0 4 -1.25 5.25 -3.05 2.20 -3.05 0.55 -9.70 -3.85 -15.30 -1.15 -1.55 -2.95 -3.40 -3.90 -4.10 l-1.80 -1.25 -1.80 0.95 c-2.45 1.35 -8.05 7.85 -9.55 11.15 -1.50 3.35 -1.95 6.60 -1.10 8.60 1.55 3.70 5.85 4.70 8.60 2z m25.40 -2.75 c0 -1.90 -0.35 -2.70 -2.20 -5.10 -1.25 -1.55 -2.10 -3.05 -1.95 -3.30 0.15 -0.25 2.50 -0.30 5.70 -0.10 5.10 0.35 5.45 0.30 5.45 -0.55 0 -0.55 0.45 -1.90 1 -3.10 1.15 -2.60 3.60 -3.85 6.50 -3.35 1.30 0.20 2 0.10 2.45 -0.40 0.50 -0.65 0.30 -0.85 -1.20 -1.35 -2.50 -0.85 -4.40 -3.50 -4.40 -6.25 0 -4.95 5.10 -8.10 9.80 -6.05 0.80 0.40 0.85 -0.15 0.85 -7.60 0 -4.45 -0.15 -8.15 -0.40 -8.30 -0.40 -0.25 -9.15 4 -19.10 9.30 -6.75 3.60 -10.70 5.25 -16.35 6.90 -4.05 1.15 -5.15 2.25 -5.15 5 0 1.50 0.40 2.20 2.55 4.25 5.15 5 8.95 12.15 8.95 16.80 0 1.45 0.40 2.35 1.55 3.70 1.35 1.50 1.85 1.75 3.75 1.75 l2.20 0 0 -2.25z m-56.35 -5.30 c1.95 -1.50 2.65 -4.25 1.65 -6.60 -0.65 -1.60 -1 -1.85 -2.35 -1.85 -0.85 0 -2.35 0.45 -3.25 1.05 -2.05 1.25 -2.25 2.95 -0.70 5.90 1.40 2.80 2.60 3.15 4.65 1.50z m72.75 -1.75 c2.35 -2.65 0.50 -6.70 -3 -6.70 -2.30 0 -3.80 1.20 -4.20 3.25 -0.80 4.35 4.20 6.75 7.20 3.45z m14.85 -6 c0.95 -0.40 2.25 -2.75 2.25 -4.20 0 -1.45 -2.65 -4 -4.15 -4 -1.70 0 -3.70 1.70 -4.10 3.50 -0.75 3.30 2.65 5.95 6 4.70z m-9.85 -7.50 c1.60 -1.85 1.50 -4.40 -0.35 -6.25 -2.45 -2.45 -6.45 -1.50 -7.50 1.70 -1.60 4.80 4.50 8.35 7.85 4.55z m28.15 -10.65 c2.80 -2.25 0.30 -7.55 -3.25 -6.85 -3.15 0.60 -4.40 4.35 -2.20 6.65 1.35 1.40 3.85 1.50 5.45 0.20z m-67.90 -2.60 c1.25 -0.55 2.35 -2.35 2.35 -3.75 0 -0.40 -0.55 -1.30 -1.25 -1.95 -1.65 -1.70 -3.85 -1.65 -5.20 0.05 -1.70 2.15 -1.25 4.30 1.20 5.60 1.25 0.70 1.45 0.70 2.90 0.05z m8 -1.85 c7.55 -3.50 11.35 -11.65 8.30 -18 -1.60 -3.25 -3.45 -4.20 -7.55 -3.95 -4.20 0.25 -7.75 2.25 -11.70 6.50 -2.65 2.85 -3.70 5.15 -3.70 8.15 0 2.15 0.35 2.30 2.45 1.10 3.90 -2.25 8.05 0.40 8.05 5.15 0 1.35 0.25 2.45 0.50 2.45 0.30 0 1.90 -0.65 3.65 -1.40z m-49.25 -0.70 c0.85 -0.85 0.75 -4.45 -0.15 -5.60 -1.05 -1.40 -3.35 -2.80 -4.55 -2.80 -1.75 0 -3.25 1.55 -3.30 3.40 -0.10 2.80 2.20 4.60 7.15 5.55 0.15 0.05 0.50 -0.20 0.85 -0.55z"/>
 </g>
 <g fill="#ffffff">
  <path d="M0 66.50 l0 -66.50 82 0 82 0 0 66.50 0 66.50 -82 0 -82 0 0 -66.50z m118.55 65.30 c1.95 -0.35 4.80 -2.95 6.20 -5.75 2.35 -4.65 -1.55 -15.45 -7.60 -21.10 -1.05 -1 -3.30 -2.85 -5 -4.15 l-3.15 -2.35 0 -4.65 c0 -2.55 0.15 -6.05 0.30 -7.75 l0.35 -3.05 17.80 0 c9.80 0 18.10 0.20 18.45 0.45 0.75 0.45 0.50 8.85 -0.50 14.50 -0.50 2.90 -0.80 3.50 -3.15 5.90 -2.30 2.40 -2.75 2.65 -4.70 2.65 -3.95 0 -6.55 -2.60 -6.55 -6.50 0 -3.80 2.05 -6 5.55 -6 1.10 0 1.60 0.30 2.05 1.25 0.85 1.90 -0.10 3.55 -2.25 3.95 -2.35 0.45 -3.25 1.55 -1.90 2.25 1.85 1 4.05 0.65 5.60 -0.90 4.10 -4.10 -0.75 -11.60 -6.50 -10.05 -2.70 0.70 -4.25 2.10 -5.75 5.10 -2.55 5.10 -1.50 9.40 3.05 12.55 4.20 2.95 9.50 2.30 13.95 -1.75 3.80 -3.55 4.15 -4.85 4.75 -20.40 0.25 -7 0.45 -14 0.40 -15.50 -0.05 -4.85 -0.30 -4.50 3.20 -4.50 3.10 0 3.20 0.05 6 2.55 1.55 1.40 3.05 2.40 3.35 2.20 0.65 -0.40 0.70 -14.10 0.05 -14.45 -0.25 -0.20 -0.55 -0.10 -0.65 0.10 -0.05 0.25 -1.45 1.60 -3.05 3.05 -2.80 2.50 -3 2.60 -5.50 2.45 l-2.60 -0.15 -0.15 -3.45 -0.15 -3.50 3.30 -3.05 c1.80 -1.70 3.25 -3.30 3.25 -3.60 0 -0.60 -5.70 -1.15 -11.85 -1.15 -3.75 0 -4.15 0.10 -4.15 0.95 0 0.55 1.20 2 2.75 3.30 1.50 1.30 2.85 2.80 3.05 3.35 0.15 0.50 0.15 2.30 -0.05 3.95 l-0.35 2.95 -3.25 0 -3.20 0 -2.90 -2.75 c-1.60 -1.50 -3.10 -2.75 -3.40 -2.75 -0.55 0 -1.35 14.25 -0.85 15.05 0.50 0.80 1.10 0.50 4.10 -2.30 l3 -2.75 3.30 0 3.35 0 -0.15 6.90 -0.15 6.85 -12 0.15 c-6.60 0.10 -14.75 0 -18.10 -0.15 l-6.15 -0.35 0 -14.40 c0 -8.30 0.20 -14.55 0.45 -14.75 0.25 -0.15 1.05 0 1.70 0.30 3 1.35 7.40 -1.25 8.05 -4.80 0.45 -2.40 -0.95 -5.25 -3.10 -6.25 -0.85 -0.40 -1.60 -1 -1.60 -1.30 0 -0.60 4.65 -5.25 7.80 -7.90 2.05 -1.65 2.75 -1.65 3.80 0.15 0.95 1.70 4.05 2.85 6.15 2.35 0.75 -0.20 2 -1 2.80 -1.80 1.20 -1.15 1.45 -1.85 1.45 -3.70 0 -1.95 -0.30 -2.60 -1.80 -4.30 l-1.80 -2 1.30 -2.20 c1.40 -2.40 1.70 -5.50 0.65 -6.80 -1.90 -2.45 -5.50 -3.20 -8.35 -1.75 -1.55 0.80 -2 1.70 -2.10 4.45 -0.10 2.40 1 3.60 2.35 2.65 0.50 -0.40 0.95 -1.25 1.05 -1.90 0.05 -0.65 0.15 -1.35 0.15 -1.55 0.10 -0.55 1.85 -0.95 2.75 -0.60 1.10 0.40 1.05 3.80 -0.05 5.10 -2.80 3.20 -20.05 18.60 -20.85 18.60 -0.15 0 -0.30 -5.95 -0.30 -13.25 l0 -13.25 -1.40 0 c-0.85 0 -6.25 2.40 -12.55 5.55 -6.10 3.05 -11.25 5.45 -11.35 5.30 -0.15 -0.15 0.10 -1 0.60 -1.95 1.15 -2.15 1.55 -8.65 0.70 -11.20 -0.35 -1.05 -1.65 -2.95 -2.85 -4.25 -1.70 -1.85 -2.75 -2.50 -4.75 -2.95 -5.60 -1.35 -10.80 0.50 -16.20 5.75 -3.35 3.30 -5.20 7.15 -5.20 10.80 0 1.20 -0.20 1.90 -0.50 1.70 -0.30 -0.15 -1.90 -1.95 -3.60 -3.90 -3.25 -3.85 -4.85 -5.05 -6.10 -4.55 -1 0.40 -1 1.15 0.20 5.70 1.20 4.50 1.25 6.45 0.25 7.80 -1.30 1.90 -3.10 2.25 -10.75 2.10 l-7.25 -0.15 -0.35 -2.90 c-0.45 -3.65 -2.65 -7.75 -4.75 -9 -0.90 -0.50 -2.80 -1.05 -4.30 -1.20 -3.25 -0.35 -4.95 0.55 -6.40 3.45 -0.80 1.60 -0.90 2.25 -0.50 3.80 0.90 3.30 3.95 5.85 8.45 7.05 1.15 0.35 2.10 0.80 2.10 1.05 0 0.25 -0.55 2.10 -1.20 4.10 -0.80 2.30 -1.35 5.55 -1.60 8.80 l-0.35 5.15 -4.15 3.25 c-5.05 3.95 -7.90 7.65 -10.45 13.50 -3.55 8.25 -5.90 24.40 -4.75 32.35 1.75 12.10 9 24.20 16.55 27.55 5.85 2.65 11.60 1.55 15.30 -2.95 2.75 -3.35 3.95 -9.85 2.50 -13.40 -0.95 -2.20 -3.15 -4.75 -5.05 -5.70 -0.90 -0.45 -2.75 -0.80 -4.45 -0.80 -5.30 0 -9.10 3.85 -8.70 8.95 0.35 5.20 4.25 7.75 8.85 5.85 1.90 -0.80 2.35 -1.25 3 -3.05 0.65 -1.95 0.65 -2.15 -0.30 -3.45 -1.20 -1.60 -3.70 -2.10 -4.65 -1 -0.45 0.60 -0.35 0.95 0.70 1.80 1.80 1.35 1.50 2.75 -0.60 2.95 -1.90 0.20 -4.15 -1.65 -4.15 -3.40 0 -1.55 1.30 -3.75 2.80 -4.75 2 -1.30 5.80 -0.80 7.70 1 4 3.85 2.85 11.70 -2.15 14.75 -1.80 1.10 -5.45 1.30 -8.45 0.50 -5.50 -1.55 -10.40 -8.05 -13.65 -18.05 -1.55 -4.85 -1.75 -6.05 -1.85 -11.80 -0.10 -3.50 0 -7 0.25 -7.80 l0.35 -1.35 23.90 0.30 c13.10 0.15 24.10 0.35 24.40 0.45 0.40 0.10 0.20 1 -0.60 2.55 -1.40 2.75 -1.50 5 -0.45 7.60 1.05 2.45 2.60 4.05 5 5.15 6.85 3.15 14.35 -3.10 12.70 -10.60 -0.25 -1.10 -0.75 -2.40 -1.05 -2.95 -0.35 -0.50 -0.50 -1.05 -0.40 -1.15 0.15 -0.10 8.60 -0.05 18.75 0.10 l18.50 0.30 0.15 3.75 c0.10 2.05 0 5.60 -0.15 7.85 l-0.35 4.15 -4.35 3.40 c-6.05 4.80 -8.40 7.35 -10.20 11.10 -1.40 2.85 -1.60 3.80 -1.60 7.30 0 3.60 0.15 4.30 1.50 6.50 2 3.15 4.60 4.70 8.15 4.70 3.15 0 4.90 -1.05 6.35 -3.70 0.55 -1 1.15 -1.80 1.30 -1.80 0.20 0 0.85 0.80 1.45 1.80 0.60 0.95 1.65 2.10 2.30 2.55 1.40 0.90 4.10 1.60 5.20 1.40 0.40 -0.10 1.55 -0.30 2.55 -0.45z"/>
  <path d="M95.90 127.15 c-4.95 -5.10 -3.70 -10.40 4.30 -18.40 2.50 -2.50 5.20 -4.85 5.95 -5.25 1.35 -0.65 1.60 -0.60 4.20 0.75 6.25 3.40 11.30 11.45 11.30 18.20 0.05 2.95 -0.10 3.30 -1.55 4.60 -1.80 1.65 -4.65 2.30 -6.40 1.50 -4.10 -1.85 -3.95 -8.55 0.15 -8.55 1.65 0 2 1.35 0.65 2.75 -1.30 1.35 -1.15 2.95 0.30 3.15 1.45 0.20 2.65 -1.35 3 -4 0.30 -2.05 0.15 -2.45 -0.95 -3.60 -0.75 -0.75 -1.85 -1.30 -2.60 -1.30 -1.75 0 -4.25 1.30 -5.65 2.90 -0.75 0.85 -1.30 1.15 -1.45 0.75 -1.10 -2.90 -4.20 -4.20 -7.35 -3.15 -2.25 0.75 -3 2.05 -2.65 4.80 0.25 2.50 1.05 3.70 2.45 3.70 1.25 0 1.70 -1.30 1.05 -3.05 -0.90 -2.30 1.30 -3.40 3 -1.55 1.45 1.55 1.05 3.50 -1.10 5.65 -2.55 2.60 -4.20 2.60 -6.65 0.10z"/>
  <path d="M58.40 94.20 c-2.65 -1.40 -3.65 -5.25 -2.15 -8.20 1.70 -3.30 6.60 -3.90 9.35 -1.15 4.90 4.90 -1.10 12.70 -7.20 9.35z"/>
  <path d="M42 78.90 c-20.10 -0.25 -35.45 -0.65 -35.70 -0.90 -0.70 -0.70 1 -8 2.80 -12.35 1.90 -4.65 4.95 -9.35 7.60 -11.75 2.25 -2.05 3.30 -2.40 3.30 -1 0.05 1.40 1.90 5.10 3.10 6.10 0.70 0.60 1.95 0.95 3.20 1 4.20 0 7.70 -4 7.70 -8.90 0 -5 -2.55 -7.45 -7.15 -6.90 l-2.50 0.25 0.30 -4.65 c0.20 -3.75 0.55 -5.30 1.70 -7.60 l1.40 -2.95 9.50 -0.25 c10.05 -0.25 10.85 -0.45 12.75 -2.85 0.90 -1.15 1.05 -1.90 0.90 -4.65 -0.20 -4.30 0.75 -4.55 3.40 -0.90 1.05 1.45 3.05 4 4.50 5.65 3.65 4.25 3.85 4.80 3.45 8.65 -0.30 3.05 -0.50 3.50 -2.45 5.25 -6.90 6.50 -8.80 8.65 -10.35 11.75 -1.40 2.75 -1.70 3.85 -1.70 6.60 0 4.05 1.25 7.10 3.50 8.50 2.30 1.40 7.20 1.40 9.75 -0.05 l1.95 -1.10 1.80 1.10 c2.45 1.45 5.15 1.35 7.45 -0.20 1 -0.70 2.05 -1.25 2.30 -1.25 0.30 0 0.50 1.20 0.50 2.70 0 1.50 0.20 2.85 0.45 3 0.25 0.15 1.70 -0.75 3.20 -2 2.40 -1.95 3.05 -2.25 4.70 -2.10 l1.90 0.15 0.15 2.75 c0.15 2.65 0.05 2.90 -1.90 4.85 -1.10 1.15 -2 2.30 -2 2.60 0 0.35 1.75 0.55 5 0.55 2.75 0 5 -0.15 5 -0.30 0 -0.15 -0.70 -1.25 -1.55 -2.40 -1.35 -1.90 -1.50 -2.45 -1.35 -5.10 l0.15 -2.95 2.05 -0.15 c1.90 -0.15 2.15 0 3.40 1.90 0.75 1.15 1.65 2 1.95 1.85 0.75 -0.25 1.10 -9.80 0.40 -10.50 -0.25 -0.25 -1.25 0.25 -2.50 1.40 -4.80 4.35 -7.70 0.55 -3.55 -4.70 l2.05 -2.60 1.50 1.50 c4.05 4.10 10.85 0.90 10.30 -4.80 -0.20 -1.70 0 -2.30 0.95 -3.20 0.90 -0.85 1.25 -0.95 1.45 -0.40 0.10 0.40 0.05 7.70 -0.15 16.20 l-0.35 15.50 -14.50 0.05 c-7.95 0 -30.35 -0.15 -49.75 -0.40z"/>
  <path d="M52.90 64.50 c-2.80 -2.15 -3.05 -6.15 -0.80 -11.10 1.50 -3.30 7.10 -9.80 9.55 -11.15 l1.80 -0.95 1.80 1.25 c2.35 1.70 5.80 6.25 7.25 9.55 0.65 1.45 1.25 3.95 1.40 5.50 0.20 2.35 0.05 3.10 -0.90 4.35 -1.25 1.80 -3.40 3.05 -5.25 3.05 -2.95 0 -4.35 -4.05 -2.15 -6.35 0.60 -0.65 0.90 -1.30 0.70 -1.50 -0.50 -0.50 -6.60 -0.50 -7.10 0 -0.20 0.20 0 0.75 0.45 1.25 0.45 0.50 1 1.60 1.15 2.50 0.25 1.30 0.05 1.80 -1.20 3.10 -1.85 1.85 -4.75 2.05 -6.70 0.50z"/>
  <path d="M79.05 61.75 c-1.15 -1.35 -1.55 -2.25 -1.55 -3.70 0 -4.65 -3.80 -11.80 -8.95 -16.80 -2.15 -2.05 -2.55 -2.75 -2.55 -4.25 0 -2.75 1.10 -3.85 5.15 -5 5.65 -1.65 9.60 -3.30 16.35 -6.90 9.95 -5.30 18.70 -9.55 19.10 -9.30 0.25 0.15 0.40 3.85 0.40 8.30 0 7.45 -0.05 8 -0.85 7.60 -4.70 -2.05 -9.80 1.10 -9.80 6.05 0 2.75 1.90 5.40 4.40 6.25 1.50 0.50 1.70 0.70 1.20 1.35 -0.45 0.50 -1.15 0.60 -2.45 0.40 -2.90 -0.50 -5.35 0.75 -6.50 3.35 -0.55 1.20 -1 2.55 -1 3.10 0 0.85 -0.35 0.90 -5.45 0.55 -3.20 -0.20 -5.55 -0.15 -5.70 0.10 -0.15 0.25 0.70 1.75 1.95 3.30 1.85 2.40 2.20 3.20 2.20 5.10 l0 2.25 -2.20 0 c-1.90 0 -2.40 -0.25 -3.75 -1.75z"/>
  <path d="M25.60 56.65 c-0.95 -0.35 -2.60 -3.90 -2.60 -5.60 0 -1.80 2.45 -3.55 4.95 -3.55 1.35 0 1.70 0.25 2.35 1.85 1 2.35 0.30 5.10 -1.65 6.60 -1.30 1.05 -1.85 1.20 -3.05 0.70z"/>
  <path d="M96.65 55.50 c-2.80 -1.15 -3.40 -5.55 -1 -7.25 2.70 -1.90 6.85 0 6.85 3.20 0 2.85 -3.30 5.10 -5.85 4.05z"/>
  <path d="M111.95 47.85 c-1.35 -1 -2.05 -2.80 -1.70 -4.35 0.40 -1.80 2.40 -3.50 4.10 -3.50 1.50 0 4.15 2.55 4.15 4 0 1.45 -1.30 3.80 -2.25 4.20 -1.30 0.50 -3.45 0.30 -4.30 -0.35z"/>
  <path d="M101.50 42.15 c-5.15 -2 -3.75 -9.15 1.75 -9.15 2 0 4.25 2.50 4.25 4.70 0 3 -3.35 5.50 -6 4.45z"/>
  <path d="M129.10 29.85 c-2.20 -2.30 -0.95 -6.05 2.20 -6.65 3.55 -0.70 6.05 4.60 3.25 6.85 -1.60 1.30 -4.10 1.20 -5.45 -0.20z"/>
  <path d="M63.75 27.40 c-2.45 -1.30 -2.90 -3.45 -1.20 -5.60 1.35 -1.70 3.55 -1.75 5.20 -0.05 0.70 0.65 1.25 1.55 1.25 1.95 0 1.40 -1.10 3.20 -2.35 3.75 -1.45 0.65 -1.65 0.65 -2.90 -0.05z"/>
  <path d="M70.50 24.55 c0 -4.75 -4.15 -7.40 -8.05 -5.15 -2.10 1.20 -2.45 1.05 -2.45 -1.10 0 -3 1.05 -5.30 3.70 -8.15 3.95 -4.25 7.50 -6.25 11.70 -6.50 4.10 -0.25 5.95 0.70 7.55 3.95 3.05 6.35 -0.75 14.50 -8.30 18 -1.75 0.75 -3.35 1.40 -3.65 1.40 -0.25 0 -0.50 -1.10 -0.50 -2.45z"/>
  <path d="M22.20 24.95 c-2.70 -0.65 -4.85 -2.90 -4.80 -5.05 0.05 -1.85 1.55 -3.40 3.30 -3.40 1.20 0 3.50 1.40 4.55 2.80 1.30 1.70 0.70 6.45 -0.70 6.15 -0.20 -0.05 -1.20 -0.25 -2.35 -0.50z"/>
 </g>
</svg>