<?xml version="1.0" encoding="utf-8"?>
<!DOCTYPE svg PUBLIC "-//W3C//DTD SVG 1.0//EN" "http://www.w3.org/TR/2001/REC-SVG-20010904/DTD/svg10.dtd">
<svg version="1.0" xmlns="http://www.w3.org/2000/svg" width="151px" height="154px" viewBox="0 0 151 154" preserveAspectRatio="xMidYMid meet">
 <g fill="#000000">
  <path d="M66.85 152.25 c-2.30 -0.80 -4.15 -2.40 -4.55 -3.95 -0.25 -1.10 -0.65 -1.15 -5.55 -1.50 -26.75 -1.70 -48.05 -23.10 -54.35 -54.40 -1.60 -8.10 -1.65 -23.60 0 -31.65 2.10 -10.55 6.60 -21.40 12.30 -29.75 3.55 -5.25 11.20 -12.80 16.45 -16.20 7.45 -4.95 15.70 -7.85 24.50 -8.60 3.75 -0.35 4 -0.45 5 -2 1.50 -2.25 3.35 -3.20 6.30 -3.20 7.45 0 9.45 9.95 2.70 13.45 -3 1.55 -7.35 0 -9.25 -3.25 l-1.05 -1.85 -3.25 0.30 c-1.75 0.20 -3.55 0.60 -3.90 0.90 -0.55 0.45 -0.70 3.40 -0.70 15.65 0 8.25 0.15 16.55 0.35 18.45 l0.30 3.35 3.65 0 3.65 0 1.85 -2.25 c2.90 -3.55 3.20 -3.20 3.20 3.70 0 3.80 -0.20 6.10 -0.55 6.35 -0.30 0.15 -1.50 -0.60 -2.65 -1.75 -2.05 -2 -2.15 -2.05 -5.70 -2.05 l-3.60 0 0.10 11.40 0.15 11.35 13.25 0 13.25 0 -0.20 -23.50 c-0.15 -21.70 -0.25 -23.65 -1.10 -25.70 -1.15 -2.60 -1.20 -4.15 -0.20 -6 2.15 -4.25 7.15 -5.45 10.45 -2.55 3.25 2.85 3.50 6.60 0.70 9.80 l-1.50 1.70 1.80 5.75 c3.15 9.70 5.15 21.20 6.10 34.25 0.15 2.60 0.40 4.95 0.55 5.15 0.15 0.25 1 -0.40 1.95 -1.35 3.05 -3.10 6.70 -3.05 9.80 0.25 1.50 1.55 2.20 1.95 3.65 1.95 0.95 0 1.75 -0.15 1.75 -0.30 0 -0.15 -0.90 -1.40 -2 -2.70 -3.40 -4.10 -4.25 -6.50 -4.25 -12.25 0 -4.55 0.15 -5.25 1.50 -7.90 1.90 -3.85 6.35 -7.95 10 -9.30 1.55 -0.60 3 -1.05 3.25 -1.05 0.25 0 0.90 -0.85 1.50 -1.90 1.40 -2.45 3.30 -3.60 6.10 -3.60 5.25 0 8.35 5 6.10 9.80 -1.10 2.30 -3.50 3.70 -6.45 3.70 -2.10 0 -2.60 -0.25 -4.40 -2.05 l-2.05 -2.05 -1.70 0.90 c-2.35 1.25 -5 4.35 -6.55 7.65 -1.10 2.35 -1.30 3.45 -1.30 7.05 0.05 4.90 0.90 7.25 4.20 11.40 l2.05 2.60 4.50 0 4.50 0 0 -6.80 0 -6.75 -1.75 -2.30 c-3.05 -4 -2.80 -4.20 4.60 -4.05 3.95 0.10 6.40 0.35 6.50 0.70 0.10 0.30 -0.60 1.55 -1.60 2.85 l-1.75 2.30 0 7 0 7.05 1.50 0 c1.10 0 1.65 -0.35 2.25 -1.45 1.10 -2.20 3.30 -3.55 5.75 -3.55 6.60 0 9.15 7.30 4.05 11.65 -2.75 2.30 -7.90 1.40 -9.55 -1.65 -0.45 -0.85 -0.95 -1 -2.40 -0.90 l-1.85 0.15 -0.15 6.70 -0.15 6.70 2.10 3.15 c1.10 1.75 1.90 3.40 1.70 3.70 -0.35 0.55 -10.10 0.70 -11.45 0.20 -1.10 -0.45 -1 -0.95 0.70 -3.45 l1.50 -2.20 0 -7.50 0 -7.55 -4.05 0 c-4.05 0 -4.10 0 -5.80 1.80 -7.75 8.25 -5.85 21.20 4 27.10 2.90 1.75 3.85 1.75 3.85 0 0 -0.55 0.90 -1.90 2 -3 1.95 -2 2.05 -2 5 -1.80 2.45 0.15 3.25 0.50 4.50 1.65 2.75 2.65 3.15 6.65 0.95 9.45 -3.05 3.90 -8.55 3.70 -11.70 -0.40 -0.90 -1.20 -1.80 -1.75 -3.15 -2 -5.40 -0.90 -11.50 -5.70 -13.90 -10.95 -2.95 -6.45 -2 -14.05 2.30 -19 1.10 -1.25 2 -2.40 2 -2.55 0 -0.15 -1 -0.30 -2.15 -0.30 -1.85 0 -2.50 0.30 -4.20 1.95 -3.30 3.25 -6.70 3.35 -9.65 0.30 -0.95 -0.95 -1.85 -1.75 -2 -1.75 -0.20 0 -0.50 3.45 -0.65 7.65 -0.55 13.05 -2.60 25.45 -5.85 34.70 l-1.50 4.30 1.75 1.90 c2.90 3.20 2.80 7.25 -0.15 10.15 -2.85 2.70 -6.65 2.80 -9.75 0.25 -3.30 -2.70 -3.60 -6.95 -0.75 -10.20 l1.50 -1.75 -0.30 -19.90 c-0.20 -10.90 -0.45 -21.50 -0.60 -23.50 l-0.30 -3.60 -13.30 0.10 -13.30 0.15 0.15 11 c0.10 7.70 0.30 11.10 0.70 11.35 0.35 0.20 1.65 0.40 3 0.40 2.10 0 2.65 -0.25 4.60 -2.05 1.20 -1.10 2.40 -1.95 2.60 -1.80 0.55 0.35 0.20 13.35 -0.30 13.35 -0.25 0 -1.35 -1.20 -2.45 -2.70 -1.85 -2.45 -2.25 -2.70 -4.40 -2.95 -4.15 -0.45 -3.90 -1.90 -3.50 18.35 0.20 9.95 0.50 18.20 0.70 18.35 0.20 0.20 1.95 0.50 3.95 0.70 l3.60 0.35 2.10 -2.30 c3.45 -3.80 7.30 -4.20 10.70 -1.25 2.25 2 3.10 4.75 2.30 7.40 -0.60 2.15 -3.50 5.05 -5.05 5.05 -0.50 0 -1.20 0.10 -1.60 0.25 -0.35 0.10 -1.50 -0.10 -2.55 -0.50z m5.85 -3 c2.25 -2.45 2.10 -5.40 -0.45 -7.75 -1.90 -1.75 -4.70 -1.70 -6.70 0.20 -2.45 2.35 -2.40 5 0.05 7.70 1.60 1.65 5.50 1.55 7.10 -0.15z m-24.90 -15.50 c-0.15 -3 -0.25 -10.60 -0.25 -16.85 l-0.05 -11.40 -5.85 0 -5.90 0.05 -1.35 1.95 c-2.60 3.80 -7.65 3.85 -10.90 0.15 -1.50 -1.70 -1.60 -2 -1.40 -4.75 0.15 -2.35 0.50 -3.20 1.65 -4.40 3.45 -3.60 9.25 -2.85 11.50 1.55 l0.80 1.45 5.45 0 5.50 0 -0.10 -11.10 -0.15 -11.15 -2.85 0 c-1.60 0.05 -10.35 0.10 -19.45 0.15 l-16.55 0.10 0.35 3.90 c0.80 9.15 3.70 20.20 7.30 28 5.85 12.70 16.95 24.10 27.70 28.45 l4 1.60 0.40 -1.05 c0.20 -0.60 0.30 -3.60 0.15 -6.65z m39.95 2.20 c1.20 -1.20 1.45 -1.85 1.45 -3.50 -0.15 -5.50 -7.60 -7.10 -9.95 -2.10 -1.05 2.15 -0.65 4.10 1.15 5.80 2.35 2.20 4.90 2.15 7.35 -0.20z m-0.25 -24.35 c2.15 -10.70 3.50 -25.25 3.05 -31.95 -0.05 -0.45 -1.10 -0.65 -3.55 -0.65 l-3.50 0 0.30 20.90 c0.15 11.45 0.40 21.20 0.55 21.60 0.50 1.35 1.60 -2.15 3.15 -9.90z m47.55 2.40 c1.10 -0.65 2.45 -3.05 2.45 -4.50 0 -1.70 -1.40 -3.95 -3.05 -4.80 -2.20 -1.10 -4.55 -0.55 -6.20 1.40 -1.15 1.35 -1.30 1.95 -1.10 3.85 0.35 2.95 2.05 4.55 4.90 4.55 1.10 0 2.45 -0.25 3 -0.50z m-103.20 -6.75 c1.70 -1.20 2.35 -3.80 1.45 -5.90 -0.40 -1 -1.15 -2 -1.70 -2.30 -1.80 -0.95 -4.45 -0.65 -5.95 0.65 -1.15 1 -1.40 1.60 -1.40 3.55 0 1.95 0.25 2.55 1.40 3.55 1.65 1.40 4.55 1.60 6.20 0.45z m72.65 -26.50 c0.85 -0.45 1.50 -1.10 1.50 -1.50 0 -0.60 -0.80 -0.75 -4 -0.75 -2.20 0 -4 0.20 -4 0.45 0 0.85 2.60 2.55 3.85 2.55 0.65 0 1.85 -0.35 2.65 -0.75z m42.15 -1.80 c3.15 -3.35 -0.05 -8.70 -4.60 -7.70 -2 0.45 -3.55 2.45 -3.55 4.60 0 2.30 0.75 3.60 2.65 4.40 2.10 0.90 3.80 0.50 5.50 -1.30z m-99.95 -4.35 c0.60 -0.35 -0.10 -22.20 -0.70 -22.60 -0.30 -0.20 -2.60 -0.35 -5.20 -0.45 l-4.70 -0.10 -1.30 1.70 c-2.70 3.55 -7.55 3.85 -10.75 0.65 -1.65 -1.70 -1.80 -2.05 -1.80 -4.80 0 -2.75 0.15 -3.10 1.85 -4.80 1.55 -1.60 2.20 -1.90 4.50 -2.05 3.20 -0.25 5.50 0.95 6.75 3.55 l0.80 1.70 4.80 0.20 c2.65 0.10 5 0.10 5.25 0 0.55 -0.30 -0.05 -33.65 -0.65 -34.25 -0.50 -0.50 -7.70 2.85 -11.80 5.55 -1.65 1.05 -4.50 3.55 -6.35 5.50 -11 11.70 -17.90 28.30 -19.20 46.30 l-0.35 4.95 19.20 -0.40 c10.55 -0.20 19.40 -0.50 19.65 -0.65z m42.20 -0.10 l1.75 0 -0.30 -6.35 c-0.15 -3.55 -0.75 -9.45 -1.30 -13.15 -1.75 -11.60 -4.95 -24.50 -6.10 -24.50 -0.70 0 0.15 42.95 0.85 44.10 0.20 0.30 1 0.35 1.80 0.20 0.85 -0.15 2.30 -0.30 3.30 -0.30z m17.60 -0.45 c0 -0.95 -2.70 -2.55 -4.25 -2.55 -1.55 0 -4.25 1.60 -4.25 2.55 0 0.25 1.90 0.45 4.25 0.45 2.35 0 4.25 -0.20 4.25 -0.45z m-74.20 -21.75 c2.20 -2.20 2.25 -4.15 0.25 -6.40 -1.85 -2.10 -4.80 -2.30 -6.75 -0.45 -1.75 1.65 -1.85 5.40 -0.15 6.90 2.35 2.20 4.45 2.15 6.65 -0.05z m99.75 -6.75 c1.05 -1.05 1.45 -1.95 1.45 -3.20 0 -2.10 -1.85 -4.60 -3.75 -5.05 -1.95 -0.50 -4.60 0.90 -5.55 2.85 -2.40 5 3.90 9.30 7.85 5.40z m-46.40 -18.60 c1.85 -0.95 2.85 -2.60 2.85 -4.70 0 -2.10 -1 -3.75 -2.85 -4.70 -4.15 -2.10 -9.05 2.80 -6.90 6.90 1.40 2.80 4.30 3.80 6.90 2.50z m-15.60 -15.35 c1.25 -1.15 1.60 -1.80 1.65 -3.55 0.05 -1.80 -0.20 -2.35 -1.60 -3.60 -2.75 -2.45 -7 -1.55 -8.10 1.75 -0.70 2.25 -0.20 4 1.60 5.55 2.05 1.70 4.40 1.65 6.45 -0.15z"/>
 </g>
 <g fill="#ffffff">
  <path d="M0 77 l0 -77 75.50 0 75.50 0 0 77 0 77 -75.50 0 -75.50 0 0 -77z m71 75.50 c1.55 0 4.45 -2.90 5.05 -5.05 0.80 -2.65 -0.05 -5.40 -2.30 -7.40 -3.40 -2.95 -7.25 -2.55 -10.70 1.25 l-2.10 2.30 -3.60 -0.35 c-2 -0.20 -3.75 -0.50 -3.95 -0.70 -0.20 -0.15 -0.50 -8.40 -0.70 -18.35 -0.40 -20.25 -0.65 -18.80 3.50 -18.35 2.15 0.25 2.55 0.50 4.40 2.95 1.10 1.50 2.20 2.70 2.45 2.70 0.50 0 0.85 -13 0.30 -13.35 -0.20 -0.15 -1.40 0.70 -2.60 1.80 -1.95 1.80 -2.50 2.05 -4.60 2.05 -1.35 0 -2.65 -0.20 -3 -0.40 -0.40 -0.25 -0.60 -3.65 -0.70 -11.35 l-0.15 -11 13.30 -0.15 13.30 -0.10 0.30 3.60 c0.15 2 0.40 12.60 0.60 23.50 l0.30 19.90 -1.50 1.75 c-2.85 3.25 -2.55 7.50 0.75 10.20 3.10 2.55 6.90 2.45 9.75 -0.25 2.95 -2.90 3.05 -6.95 0.15 -10.15 l-1.75 -1.90 1.50 -4.30 c3.25 -9.25 5.30 -21.65 5.85 -34.70 0.15 -4.20 0.45 -7.65 0.65 -7.65 0.15 0 1.05 0.80 2 1.75 2.95 3.05 6.35 2.95 9.65 -0.30 1.70 -1.65 2.35 -1.95 4.20 -1.95 1.15 0 2.15 0.15 2.15 0.30 0 0.15 -0.90 1.30 -2 2.55 -4.30 4.95 -5.25 12.55 -2.30 19 2.40 5.25 8.50 10.05 13.90 10.95 1.35 0.25 2.25 0.80 3.15 2 3.15 4.10 8.65 4.30 11.70 0.40 2.20 -2.80 1.80 -6.80 -0.95 -9.45 -1.25 -1.15 -2.05 -1.50 -4.50 -1.65 -2.95 -0.20 -3.05 -0.20 -5 1.80 -1.10 1.10 -2 2.45 -2 3 0 1.75 -0.95 1.75 -3.85 0 -4.65 -2.75 -7.40 -6.75 -8.60 -12.25 -1 -4.75 0.90 -10.95 4.60 -14.85 1.70 -1.80 1.75 -1.80 5.80 -1.80 l4.05 0 0 7.55 0 7.50 -1.50 2.20 c-1.70 2.50 -1.80 3 -0.70 3.45 1.35 0.50 11.10 0.35 11.45 -0.20 0.20 -0.30 -0.60 -1.95 -1.70 -3.70 l-2.10 -3.15 0.15 -6.70 0.15 -6.70 1.85 -0.15 c1.45 -0.10 1.95 0.05 2.40 0.90 0.30 0.60 1.30 1.50 2.15 2 6 3.70 12.80 -3.45 8.95 -9.40 -2.50 -3.90 -9.15 -3.35 -11.35 0.95 -0.60 1.10 -1.15 1.45 -2.25 1.45 l-1.50 0 0 -7.05 0 -7 1.75 -2.30 c1 -1.30 1.70 -2.55 1.60 -2.85 -0.10 -0.35 -2.55 -0.60 -6.50 -0.70 -7.40 -0.15 -7.65 0.05 -4.60 4.05 l1.75 2.30 0 6.75 0 6.80 -4.50 0 -4.50 0 -2.05 -2.60 c-3.30 -4.15 -4.15 -6.50 -4.20 -11.40 0 -3.60 0.20 -4.70 1.30 -7.05 1.55 -3.30 4.20 -6.40 6.55 -7.65 l1.70 -0.90 2.05 2.05 c1.80 1.80 2.30 2.05 4.40 2.05 2.95 0 5.35 -1.40 6.45 -3.70 2.25 -4.80 -0.85 -9.80 -6.10 -9.80 -2.80 0 -4.70 1.15 -6.10 3.60 -0.60 1.05 -1.25 1.90 -1.50 1.90 -0.25 0 -1.70 0.45 -3.25 1.05 -3.65 1.35 -8.10 5.45 -10 9.30 -1.35 2.65 -1.50 3.35 -1.50 7.90 0 5.75 0.85 8.15 4.25 12.25 1.10 1.30 2 2.55 2 2.70 0 0.15 -0.80 0.30 -1.75 0.30 -1.45 0 -2.15 -0.40 -3.65 -1.95 -3.10 -3.30 -6.75 -3.35 -9.80 -0.25 -0.95 0.95 -1.80 1.60 -1.95 1.35 -0.15 -0.20 -0.40 -2.55 -0.55 -5.15 -0.95 -13.05 -2.95 -24.55 -6.10 -34.25 l-1.80 -5.75 1.50 -1.70 c2.80 -3.20 2.55 -6.95 -0.70 -9.80 -3.30 -2.90 -8.30 -1.70 -10.45 2.55 -1 1.85 -0.95 3.40 0.20 6 0.85 2.05 0.95 4 1.10 25.70 l0.20 23.50 -13.25 0 -13.25 0 -0.15 -11.35 -0.10 -11.40 3.60 0 c3.55 0 3.65 0.05 5.70 2.05 1.15 1.15 2.35 1.90 2.65 1.75 0.35 -0.25 0.55 -2.55 0.55 -6.35 0 -6.90 -0.30 -7.25 -3.20 -3.70 l-1.85 2.25 -3.65 0 -3.65 0 -0.30 -3.35 c-0.20 -1.90 -0.35 -10.20 -0.35 -18.45 0 -12.25 0.15 -15.20 0.70 -15.65 0.35 -0.30 2.15 -0.70 3.90 -0.90 l3.25 -0.30 1.05 1.85 c1.35 2.30 3.85 3.80 6.25 3.80 6.70 0 9.65 -8 4.60 -12.45 -1.50 -1.30 -2.20 -1.55 -4.30 -1.55 -2.95 0 -4.80 0.95 -6.30 3.20 -1 1.55 -1.25 1.65 -5 2 -8.80 0.75 -17.05 3.65 -24.50 8.60 -5.25 3.40 -12.90 10.95 -16.45 16.20 -5.70 8.35 -10.20 19.20 -12.30 29.75 -1.65 8.05 -1.60 23.55 0 31.65 2.20 10.85 5.80 19.80 11.45 28.30 10.60 15.90 25.50 25 42.90 26.10 4.90 0.35 5.30 0.40 5.55 1.50 0.15 0.60 0.80 1.60 1.45 2.20 1.35 1.25 4.70 2.55 5.65 2.25 0.40 -0.15 1.10 -0.25 1.60 -0.25z"/>
  <path d="M65.60 149.40 c-2.45 -2.70 -2.50 -5.35 -0.05 -7.70 2 -1.90 4.80 -1.95 6.70 -0.20 2.55 2.35 2.70 5.30 0.45 7.75 -1.60 1.70 -5.50 1.80 -7.10 0.15z"/>
  <path d="M43.25 139.85 c-10.75 -4.35 -21.85 -15.75 -27.70 -28.45 -3.60 -7.80 -6.50 -18.85 -7.30 -28 l-0.35 -3.90 16.55 -0.10 c9.10 -0.05 17.85 -0.10 19.45 -0.15 l2.85 0 0.15 11.15 0.10 11.10 -5.50 0 -5.45 0 -0.80 -1.45 c-2.25 -4.40 -8.05 -5.15 -11.50 -1.55 -1.15 1.20 -1.50 2.05 -1.65 4.40 -0.20 2.75 -0.10 3.05 1.40 4.75 3.25 3.70 8.30 3.65 10.90 -0.15 l1.35 -1.95 5.90 -0.05 5.85 0 0.05 11.40 c0 6.25 0.10 13.85 0.25 16.85 0.15 3.05 0.05 6.05 -0.15 6.65 l-0.40 1.05 -4 -1.60z"/>
  <path d="M82.75 137.65 c-1.50 -0.35 -3.65 -2.60 -4 -4.20 -0.40 -1.80 0.90 -4.60 2.55 -5.50 3.50 -1.85 7.80 0.55 7.90 4.50 0 1.65 -0.25 2.30 -1.45 3.50 -1.55 1.50 -3.30 2.05 -5 1.70z"/>
  <path d="M84.35 121.50 c-0.15 -0.40 -0.40 -10.15 -0.55 -21.60 l-0.30 -20.90 3.50 0 c2.45 0 3.50 0.20 3.55 0.65 0.20 2.95 -0.25 12.35 -0.85 17.85 -1.30 11.55 -4.55 26.25 -5.35 24z"/>
  <path d="M128.75 113.35 c-1 -0.80 -1.40 -1.75 -1.60 -3.40 -0.20 -1.90 -0.05 -2.50 1.10 -3.85 1.65 -1.95 4 -2.50 6.20 -1.40 1.65 0.85 3.05 3.10 3.05 4.80 0 1.45 -1.35 3.85 -2.45 4.50 -1.75 0.90 -4.90 0.60 -6.30 -0.65z"/>
  <path d="M25.65 106.80 c-1.15 -1 -1.40 -1.60 -1.40 -3.55 0 -1.95 0.25 -2.55 1.40 -3.55 1.50 -1.30 4.15 -1.60 5.95 -0.65 0.55 0.30 1.30 1.30 1.70 2.30 0.90 2.10 0.25 4.70 -1.45 5.90 -1.65 1.15 -4.55 0.95 -6.20 -0.45z"/>
  <path d="M99.30 80.45 c-0.70 -0.55 -1.30 -1.25 -1.30 -1.50 0 -0.25 1.80 -0.45 4 -0.45 3.20 0 4 0.15 4 0.75 0 0.90 -2.50 2.25 -4.15 2.25 -0.65 0 -1.80 -0.45 -2.55 -1.05z"/>
  <path d="M141.15 80.25 c-1.90 -0.80 -2.65 -2.10 -2.65 -4.40 0 -2.15 1.55 -4.15 3.55 -4.60 4.55 -1 7.75 4.35 4.60 7.70 -1.70 1.80 -3.40 2.20 -5.50 1.30z"/>
  <path d="M8.20 70.70 c1.30 -18 8.20 -34.60 19.20 -46.30 1.85 -1.95 4.70 -4.45 6.35 -5.50 4.10 -2.70 11.30 -6.05 11.80 -5.55 0.60 0.60 1.20 33.95 0.65 34.25 -0.25 0.10 -2.60 0.10 -5.25 0 l-4.80 -0.20 -0.80 -1.70 c-1.25 -2.60 -3.55 -3.80 -6.75 -3.55 -2.30 0.15 -2.95 0.45 -4.50 2.05 -1.70 1.70 -1.85 2.05 -1.85 4.80 0 2.75 0.15 3.10 1.80 4.80 3.20 3.20 8.05 2.90 10.75 -0.65 l1.30 -1.70 4.70 0.10 c2.60 0.10 4.90 0.25 5.20 0.45 0.60 0.40 1.30 22.25 0.70 22.60 -0.25 0.15 -9.10 0.45 -19.65 0.65 l-19.20 0.40 0.35 -4.95z"/>
  <path d="M83.80 74.60 c-0.70 -1.15 -1.55 -44.10 -0.85 -44.10 1.15 0 4.35 12.90 6.10 24.50 0.55 3.70 1.15 9.60 1.30 13.15 l0.30 6.35 -1.75 0 c-1 0 -2.45 0.15 -3.30 0.30 -0.80 0.15 -1.60 0.10 -1.80 -0.20z"/>
  <path d="M98 74.05 c0 -0.95 2.70 -2.55 4.25 -2.55 1.55 0 4.25 1.60 4.25 2.55 0 0.25 -1.90 0.45 -4.25 0.45 -2.35 0 -4.25 -0.20 -4.25 -0.45z"/>
  <path d="M27.50 53.65 c-3.20 -1.15 -4.20 -5.85 -1.70 -8.20 1.95 -1.85 4.90 -1.65 6.75 0.45 2 2.25 1.95 4.20 -0.25 6.40 -1.65 1.65 -3 2 -4.80 1.35z"/>
  <path d="M125.25 45.80 c-1.70 -1.70 -2.05 -3.55 -1.05 -5.65 0.95 -1.95 3.60 -3.35 5.55 -2.85 1.90 0.45 3.75 2.95 3.75 5.05 0 4 -5.45 6.25 -8.25 3.45z"/>
  <path d="M80.60 26.70 c-3.10 -2.15 -3.10 -6.80 0.05 -8.70 3.70 -2.30 7.85 -0.05 7.85 4.25 0 4.10 -4.65 6.75 -7.90 4.45z"/>
  <path d="M63.60 11.75 c-3.80 -3.20 -1.65 -8.75 3.35 -8.75 1 0 2.10 0.55 3.15 1.45 1.40 1.25 1.65 1.80 1.60 3.60 -0.15 4.30 -4.85 6.45 -8.10 3.70z"/>
 </g>
</svg>