<?xml version="1.0" encoding="utf-8"?>
<!DOCTYPE svg PUBLIC "-//W3C//DTD SVG 1.0//EN" "http://www.w3.org/TR/2001/REC-SVG-20010904/DTD/svg10.dtd">
<svg version="1.0" xmlns="http://www.w3.org/2000/svg" width="125px" height="145px" viewBox="0 0 125 145" preserveAspectRatio="xMidYMid meet">
 <g fill="#000000">
  <path d="M58.10 144 c-2.20 -0.50 -3.40 -1.70 -4.35 -4.25 -1.10 -2.85 -0.40 -5.60 2 -7.70 1 -0.85 2 -1.55 2.30 -1.55 0.30 0 0.45 -0.50 0.35 -1.10 -0.15 -1 -0.60 -1.15 -5.15 -1.75 -5 -0.65 -9.50 -1.75 -13.80 -3.40 -2.65 -1.05 -3.95 -0.75 -3.95 0.85 0 1.65 -1.75 4.25 -3.60 5.40 -2 1.20 -5.80 1.30 -7.90 0.25 -2.25 -1.15 -4 -4.10 -4 -6.65 0 -2.30 1.60 -5.95 2.75 -6.45 1.25 -0.45 0.90 -1.10 -2.75 -5 -2.25 -2.40 -4.15 -5.10 -5.35 -7.55 l-1.90 -3.80 0.05 -7.30 c0.05 -6.15 0.20 -7.70 1.10 -10.20 3.20 -8.65 8.60 -12.95 17.15 -13.65 l3.35 -0.30 0.35 -9.55 c0.15 -5.25 0.25 -12.60 0.15 -16.30 l-0.15 -6.75 -9.15 -0.15 c-5.85 -0.05 -9.50 0.05 -10.15 0.40 -1.70 0.95 -2.95 3.55 -2.95 6.15 0 4.40 2.30 6.85 6.40 6.85 3.80 0 5.80 -3.10 3.80 -5.90 -1.10 -1.60 -2.45 -1.35 -3.65 0.70 -0.80 1.30 -1.35 1.75 -2.20 1.60 -0.90 -0.10 -1.15 -0.50 -1.25 -2.05 -0.15 -1.50 0.10 -2.15 1.35 -3.35 2.20 -2.20 4.40 -2.05 7.05 0.40 1.85 1.80 2 2.15 2 4.60 0 5.15 -3.10 7.75 -8.70 7.40 -5.55 -0.35 -7.80 -3.15 -8.20 -10.20 -0.35 -6.15 1.30 -8.80 6.45 -10.25 1.20 -0.35 2.35 -0.75 2.60 -0.95 0.20 -0.15 -2.05 -4.55 -5.05 -9.75 -5.15 -9.05 -5.50 -9.50 -7.10 -9.80 -2.65 -0.40 -4 -1.35 -4.80 -3.20 -0.90 -2.20 -0.90 -3.45 0.10 -5.50 1.35 -2.85 5.25 -4.05 8.20 -2.50 2.75 1.40 3.45 4.15 2.25 8.75 -0.25 1 0.45 2.55 3.15 7.25 1.90 3.30 4.25 7.50 5.30 9.40 1 1.85 1.90 3.35 2 3.35 0.05 0 2.35 -2.70 5.10 -5.95 2.70 -3.30 5.30 -6 5.70 -6 0.40 -0.05 2.20 1.75 4 4 1.75 2.20 3.45 4.15 3.70 4.30 0.25 0.20 1.90 -1.25 3.65 -3.15 l3.15 -3.45 1.65 1.75 c0.85 0.95 2.30 2.65 3.15 3.70 l1.50 1.95 3.90 -4.60 c2.15 -2.50 4.10 -4.55 4.35 -4.55 0.25 0 2.05 2.05 4.05 4.50 1.95 2.50 3.75 4.50 3.95 4.50 0.20 0 1.65 -1.45 3.20 -3.25 1.60 -1.80 3.15 -3.25 3.45 -3.25 0.30 0 1.70 1.45 3.05 3.25 1.35 1.80 2.70 3.25 3 3.25 0.35 0 2.25 -1.90 4.30 -4.25 2.05 -2.35 3.85 -4.25 4.05 -4.25 0.20 0 2.50 2.75 5.20 6.10 2.65 3.40 5 6.20 5.20 6.30 0.20 0.10 1.45 -1.70 2.80 -4 1.30 -2.30 3.85 -6.50 5.65 -9.35 3.05 -4.90 3.20 -5.25 2.65 -6.75 -1.05 -2.90 -0.75 -4.75 1.05 -6.55 2.85 -2.85 5.55 -2.90 8.50 -0.30 1.45 1.30 1.60 1.75 1.60 4.25 0 2.35 -0.20 3 -1.35 4.15 -0.90 0.85 -2.10 1.45 -3.50 1.60 l-2.15 0.30 -5.60 9 c-3.05 4.95 -5.60 9.25 -5.60 9.55 -0.05 0.30 1.30 1.05 2.90 1.65 5 1.80 6.45 4.45 5.95 10.80 -0.30 3.55 -1.85 6.80 -4 8.40 -2.10 1.55 -6.30 1.75 -9.10 0.40 -6.25 -3.05 -5.25 -12 1.55 -13.35 2.20 -0.45 4.60 1.80 5 4.60 0.20 1.60 0.10 2.10 -0.55 2.35 -1.25 0.50 -2.15 -0.05 -3.25 -1.95 -1.15 -1.95 -1.65 -2.10 -3.05 -0.70 -1.30 1.30 -1.30 4.05 -0.05 5.20 2.35 2.15 7.20 1.20 9.05 -1.80 2.05 -3.35 0.75 -8.60 -2.50 -10.25 -0.85 -0.45 -4 -0.65 -10.05 -0.65 l-8.80 0 -0.30 10.90 c-0.20 5.95 -0.35 13.25 -0.35 16.20 0 6.10 -0.40 5.55 4.75 6.10 3.95 0.45 9.60 3.55 11.85 6.55 3.60 4.70 5.20 11.40 4.80 19.65 -0.35 6.45 -2.50 10.75 -8.05 16.25 l-3.95 3.95 1 1.05 c5.10 5.65 2.05 13.85 -5.15 13.85 -4.10 0 -7.75 -3.10 -7.75 -6.65 0 -1.90 -1 -2.10 -4.35 -0.85 -3.90 1.45 -11.65 3 -15.10 3 -2.60 0 -4.05 0.55 -4.05 1.60 0 0.20 0.90 0.95 1.95 1.70 5.70 3.75 4.15 11.95 -2.45 12.90 -0.95 0.10 -2.50 0.05 -3.40 -0.20z m5 -3.85 c1.80 -1.60 1.25 -5.50 -0.85 -6.35 -2.70 -1 -5.75 0.75 -5.75 3.40 0 3.60 3.90 5.40 6.60 2.95z m33.45 -12.10 c1.05 -1.10 1.45 -1.95 1.45 -3.30 0 -1.35 -0.40 -2.20 -1.45 -3.30 -3.10 -3.05 -8.05 -0.95 -8.05 3.45 0 1.65 0.30 2.25 1.55 3.30 2.15 1.80 4.55 1.75 6.50 -0.15z m-65.45 -0.90 c3 -2.90 0.85 -8.15 -3.35 -8.15 -1.35 0 -2.20 0.40 -3.30 1.45 -4.40 4.40 2.15 11 6.65 6.70z m27.45 -7.40 c0.15 -2.75 0.40 -16.45 0.50 -30.50 l0.20 -25.50 -3.65 -0.15 c-3.05 -0.10 -3.95 0.05 -5.45 0.95 -1.70 1.10 -3.60 4.20 -3.65 6.10 0 0.65 -0.40 0.85 -1.75 0.85 l-1.80 0 0.10 -9.60 c0.05 -5.30 0.20 -9.90 0.30 -10.25 0.15 -0.35 1 -0.65 1.95 -0.65 1.55 0 1.70 0.15 1.70 1.50 0 0.85 0.45 2.40 1 3.45 1.25 2.55 3.80 3.70 8 3.75 l3.25 0.05 0.35 -5 c0.25 -4.50 0.20 -5.25 -0.75 -7.25 -1.25 -2.55 -3.80 -4.50 -5.90 -4.50 -1.65 0 -2.15 -0.65 -1.75 -2.30 0.30 -1.20 0.40 -1.20 5.70 -1.15 2.95 0.05 7.60 0.20 10.35 0.40 4.25 0.25 5 0.45 5.15 1.20 0.25 1.40 -0.85 2.35 -2.70 2.35 -1.95 0 -4.75 2.20 -5.65 4.40 -0.35 0.85 -0.55 3.45 -0.45 6.60 l0.15 5.25 3.25 0.15 c5.10 0.20 8.25 -2 8.95 -6.25 0.30 -1.80 0.45 -1.90 2.05 -1.90 l1.75 0 -0.05 5.50 c0 3.05 -0.05 7.60 -0.10 10.15 l-0.10 4.60 -1.70 0 c-1.55 0 -1.70 -0.10 -2 -2.05 -0.20 -1.35 -0.95 -2.65 -2.20 -4 -1.75 -1.95 -2 -2 -5.65 -2.30 -3.50 -0.25 -3.90 -0.20 -4.35 0.70 -0.30 0.55 -0.55 1.40 -0.50 1.95 0.05 0.50 -0.10 14 -0.35 29.90 l-0.40 28.95 4.85 -0.30 c7.70 -0.50 14.80 -2.80 23.05 -7.45 10.90 -6.15 15.35 -11.70 16.05 -20 0.90 -10.35 -3.45 -19.20 -10.70 -21.90 -3.85 -1.45 -9.30 -1.85 -11.65 -0.85 -5.70 2.35 -6.45 10.50 -1.25 13.05 2.30 1.15 3.95 0.75 5.45 -1.30 0.95 -1.25 0.95 -1.40 0.15 -2.60 -1 -1.55 -1.85 -1.65 -3.05 -0.30 -1.20 1.30 -2.95 1.10 -3.15 -0.30 -0.10 -0.60 0.45 -1.75 1.15 -2.65 1.70 -2 4.50 -2.15 6.55 -0.40 1.70 1.45 2.20 5.20 1.05 7.90 -1.85 4.45 -9.25 4.60 -13.35 0.20 -1.15 -1.20 -1.25 -1.70 -1.25 -5.90 0 -5.90 0.80 -7.45 5.05 -9.70 l3.05 -1.65 0.35 -16.30 c0.30 -12.25 0.25 -16.45 -0.20 -16.70 -0.75 -0.45 -45.15 -1 -45.55 -0.55 -0.20 0.15 -0.45 7.65 -0.60 16.70 l-0.25 16.40 1.80 0.75 c1 0.40 2.55 1.30 3.45 2 3.05 2.30 4.05 9.50 1.95 13.65 -0.95 1.80 -3.90 3.45 -6.90 3.85 -3.20 0.40 -6.45 -1.40 -7.30 -4.05 -0.90 -2.75 -0.35 -5.60 1.50 -7.40 1.25 -1.25 1.70 -1.45 3.25 -1.20 2.35 0.40 4.15 2.10 4.15 3.95 0 1.90 -1.25 2.30 -2.70 0.95 -1.25 -1.20 -2.30 -1.35 -3.20 -0.45 -1.65 1.65 0.35 4.90 3.05 4.90 2.10 0 4.60 -1.35 5.30 -2.80 0.30 -0.70 0.55 -2.35 0.55 -3.65 0 -3.10 -1.50 -5.40 -4.50 -6.95 -1.95 -1 -2.70 -1.15 -5.60 -0.90 -6.70 0.60 -11 3.10 -14.15 8.30 -3 4.95 -4.15 13.75 -2.50 19.30 1.60 5.45 6.65 10.85 14.30 15.40 9.85 5.90 18.75 8.85 25.70 8.60 l2 -0.05 0.30 -5z m24.95 -85.65 c0 -0.65 -0.60 -1.10 -1.10 -0.80 -0.50 0.30 -0.05 1.20 0.65 1.20 0.25 0 0.45 -0.20 0.45 -0.40z m15.90 0 c-0.05 -0.25 -1.95 -2.70 -4.15 -5.50 l-4 -5.10 -3.10 3.35 c-1.70 1.90 -3.15 3.50 -3.15 3.65 0 0.15 0.70 1.10 1.55 2.15 l1.50 1.85 5.80 0 c3.15 0 5.65 -0.20 5.55 -0.40z m-49.60 -1.80 c0.95 -0.95 1.70 -2 1.70 -2.35 -0.05 -0.40 -0.95 -1.70 -2 -2.90 -2.25 -2.45 -2.35 -2.40 -5 0.95 l-1.45 1.85 1.25 1.70 c1.10 1.55 2.20 2.30 3.40 2.40 0.20 0.05 1.15 -0.70 2.10 -1.65z m4.25 1.05 c-0.05 -0.60 -0.75 -0.45 -0.95 0.20 -0.15 0.30 0.05 0.50 0.40 0.40 0.30 -0.15 0.55 -0.40 0.55 -0.60z m12.35 -1.30 l1.60 -1.95 -2.80 -3.55 c-1.50 -1.95 -2.95 -3.55 -3.20 -3.55 -0.45 0 -6 6.50 -6 7 0 0.15 0.70 1.10 1.55 2.15 1.45 1.75 1.70 1.85 4.40 1.85 2.75 0 2.95 -0.10 4.45 -1.95z m12.70 0.60 c0.75 -0.75 1.40 -1.70 1.40 -2.10 0 -0.45 -0.95 -1.80 -2 -3.05 l-2 -2.25 -2 2.25 c-1.10 1.25 -2 2.50 -2 2.85 0 0.30 0.60 1.25 1.30 2.10 1.65 1.95 3.40 2 5.30 0.20z m-41.95 -0.55 c0.75 -0.75 1.35 -1.75 1.35 -2.15 0 -0.80 -4.90 -6.95 -5.50 -6.95 -0.50 0 -8.50 9.40 -8.50 10.05 0 0.25 2.45 0.45 5.65 0.45 5.55 0 5.70 -0.05 7 -1.40z m83.25 -21.45 c1.55 -2.05 0.05 -5.15 -2.45 -5.15 -1.75 0 -3.60 2.20 -3.15 3.70 0.75 2.65 4 3.50 5.60 1.45z m-111.70 -1.45 c1 -1 1 -3.40 0 -4.40 -1.75 -1.80 -5.20 -0.35 -5.20 2.10 0 2.65 3.40 4.15 5.20 2.30z"/>
 </g>
 <g fill="#ffffff">
  <path d="M0 72.50 l0 -72.50 62.50 0 62.50 0 0 72.50 0 72.50 -62.50 0 -62.50 0 0 -72.50z m64.40 70.70 c4.20 -2.75 4 -9 -0.45 -11.90 -1.05 -0.75 -1.95 -1.50 -1.95 -1.70 0 -1.05 1.45 -1.60 4.05 -1.60 3.45 0 11.20 -1.55 15.10 -3 3.35 -1.25 4.35 -1.05 4.35 0.85 0 3.55 3.65 6.65 7.75 6.65 7.20 0 10.25 -8.20 5.15 -13.85 l-1 -1.05 3.95 -3.95 c5.55 -5.50 7.70 -9.80 8.05 -16.25 0.40 -8.25 -1.20 -14.95 -4.80 -19.65 -2.25 -3 -7.90 -6.10 -11.85 -6.55 -5.15 -0.55 -4.75 0 -4.75 -6.10 0 -2.95 0.15 -10.25 0.35 -16.20 l0.30 -10.90 8.80 0 c6.05 0 9.20 0.20 10.05 0.65 3.25 1.65 4.55 6.90 2.50 10.25 -1.85 3 -6.70 3.95 -9.05 1.80 -1.25 -1.15 -1.25 -3.90 0.05 -5.20 1.40 -1.40 1.90 -1.25 3.05 0.70 1.10 1.90 2 2.45 3.25 1.95 0.65 -0.25 0.75 -0.75 0.55 -2.35 -0.40 -2.80 -2.80 -5.05 -5 -4.60 -6.80 1.35 -7.80 10.30 -1.55 13.35 2.80 1.35 7 1.15 9.10 -0.40 2.15 -1.60 3.70 -4.85 4 -8.40 0.50 -6.35 -0.95 -9 -5.95 -10.80 -1.60 -0.60 -2.95 -1.35 -2.90 -1.65 0 -0.30 2.55 -4.60 5.60 -9.55 l5.60 -9 2.15 -0.30 c1.40 -0.15 2.60 -0.75 3.50 -1.60 1.15 -1.15 1.35 -1.80 1.35 -4.15 0 -2.50 -0.15 -2.95 -1.60 -4.25 -2.95 -2.60 -5.65 -2.55 -8.50 0.30 -1.80 1.80 -2.10 3.65 -1.05 6.55 0.55 1.50 0.40 1.85 -2.65 6.75 -1.80 2.85 -4.35 7.05 -5.65 9.35 -1.35 2.30 -2.60 4.10 -2.80 4 -0.20 -0.10 -2.55 -2.90 -5.20 -6.30 -2.70 -3.35 -5 -6.10 -5.20 -6.10 -0.20 0 -2 1.90 -4.05 4.25 -2.05 2.35 -3.95 4.25 -4.30 4.25 -0.30 0 -1.65 -1.45 -3 -3.25 -1.35 -1.80 -2.75 -3.25 -3.05 -3.25 -0.30 0 -1.85 1.45 -3.45 3.25 -1.55 1.80 -3 3.25 -3.20 3.25 -0.20 0 -2 -2 -3.95 -4.50 -2 -2.45 -3.80 -4.50 -4.05 -4.50 -0.25 0 -2.20 2.05 -4.35 4.55 l-3.90 4.60 -1.50 -1.95 c-0.85 -1.05 -2.30 -2.75 -3.15 -3.70 l-1.65 -1.75 -3.15 3.45 c-1.75 1.90 -3.40 3.35 -3.65 3.15 -0.25 -0.15 -1.95 -2.10 -3.70 -4.30 -1.80 -2.25 -3.60 -4.05 -4 -4 -0.40 0 -3 2.70 -5.70 6 -2.75 3.25 -5.05 5.95 -5.10 5.95 -0.10 0 -1 -1.50 -2 -3.35 -1.05 -1.90 -3.40 -6.10 -5.30 -9.40 -2.70 -4.70 -3.40 -6.25 -3.15 -7.25 1.20 -4.60 0.50 -7.35 -2.25 -8.75 -2.95 -1.55 -6.85 -0.35 -8.20 2.50 -1 2.05 -1 3.30 -0.10 5.50 0.80 1.85 2.15 2.80 4.80 3.20 1.60 0.30 1.95 0.75 7.10 9.80 3 5.20 5.25 9.60 5.05 9.75 -0.25 0.20 -1.40 0.60 -2.60 0.95 -3.10 0.90 -4.45 1.90 -5.65 4.20 -0.85 1.70 -1 2.70 -0.80 6.05 0.40 7.05 2.65 9.85 8.20 10.20 5.60 0.35 8.70 -2.25 8.70 -7.40 0 -2.45 -0.15 -2.80 -2 -4.60 -2.65 -2.45 -4.85 -2.60 -7.05 -0.40 -1.25 1.20 -1.50 1.85 -1.35 3.35 0.10 1.55 0.35 1.95 1.25 2.05 0.85 0.15 1.40 -0.30 2.20 -1.60 1.20 -2.05 2.55 -2.30 3.65 -0.70 2 2.80 0 5.90 -3.80 5.90 -4.10 0 -6.40 -2.45 -6.40 -6.85 0 -2.60 1.25 -5.20 2.95 -6.15 0.65 -0.35 4.30 -0.45 10.15 -0.40 l9.15 0.15 0.15 6.75 c0.10 3.70 0 11.05 -0.15 16.30 l-0.35 9.55 -3.35 0.30 c-8.55 0.70 -13.95 5 -17.15 13.65 -0.90 2.50 -1.05 4.05 -1.10 10.20 l-0.05 7.30 1.90 3.80 c1.20 2.45 3.10 5.15 5.35 7.55 3.65 3.90 4 4.55 2.75 5 -1.15 0.50 -2.75 4.15 -2.75 6.45 0 2.55 1.75 5.50 4 6.65 2.10 1.05 5.90 0.95 7.90 -0.25 1.85 -1.15 3.60 -3.75 3.60 -5.40 0 -1.60 1.30 -1.90 3.95 -0.85 4.30 1.65 8.80 2.75 13.80 3.40 4.55 0.60 5 0.75 5.15 1.75 0.10 0.60 -0.05 1.10 -0.35 1.10 -1.20 0 -4.05 3.20 -4.60 5.10 -0.95 3.65 1.20 7.55 4.65 8.40 2.05 0.55 4.80 0.15 6.30 -0.80z"/>
  <path d="M58.75 140.95 c-1.60 -0.90 -2.25 -2 -2.25 -3.75 0 -2.65 3.05 -4.40 5.75 -3.40 1.15 0.45 2.30 3 1.95 4.40 -0.60 2.35 -3.50 3.80 -5.45 2.75z"/>
  <path d="M90.05 128.20 c-3.25 -2.70 -1.10 -8.20 3.20 -8.20 1.35 0 2.20 0.40 3.30 1.45 1.05 1.10 1.45 1.95 1.45 3.30 0 1.35 -0.40 2.20 -1.45 3.30 -1.95 1.90 -4.35 1.95 -6.50 0.15z"/>
  <path d="M24.45 127.05 c-1.05 -1.10 -1.45 -1.95 -1.45 -3.30 0 -2.55 2.20 -4.75 4.75 -4.75 4.20 0 6.35 5.25 3.35 8.15 -2 1.90 -4.65 1.85 -6.65 -0.10z"/>
  <path d="M51.45 124.50 c-7.75 -1 -20.75 -7.10 -27.65 -12.95 -3.25 -2.75 -6.60 -7.55 -7.55 -10.75 -1.65 -5.55 -0.50 -14.35 2.50 -19.30 3.15 -5.20 7.45 -7.70 14.15 -8.30 2.90 -0.25 3.65 -0.10 5.60 0.90 3 1.55 4.50 3.85 4.50 6.95 0 1.30 -0.25 2.95 -0.55 3.65 -0.70 1.45 -3.20 2.80 -5.30 2.80 -2.70 0 -4.70 -3.25 -3.05 -4.90 0.90 -0.90 1.95 -0.75 3.20 0.45 1.45 1.35 2.70 0.95 2.70 -0.95 0 -1.85 -1.80 -3.55 -4.15 -3.95 -1.55 -0.25 -2 -0.05 -3.25 1.20 -1.85 1.80 -2.40 4.65 -1.50 7.40 0.85 2.65 4.10 4.45 7.30 4.05 3 -0.40 5.95 -2.05 6.90 -3.85 2.10 -4.15 1.10 -11.35 -1.95 -13.65 -0.90 -0.70 -2.45 -1.60 -3.45 -2 l-1.80 -0.75 0.25 -16.40 c0.15 -9.05 0.40 -16.55 0.60 -16.70 0.40 -0.45 44.80 0.10 45.55 0.55 0.45 0.25 0.50 4.45 0.20 16.70 l-0.35 16.30 -3.05 1.65 c-4.25 2.25 -5.05 3.80 -5.05 9.70 0 4.20 0.10 4.70 1.25 5.90 4.10 4.40 11.50 4.25 13.35 -0.20 1.15 -2.70 0.65 -6.45 -1.05 -7.90 -2.05 -1.75 -4.85 -1.60 -6.55 0.40 -0.70 0.90 -1.25 2.05 -1.15 2.65 0.20 1.40 1.95 1.60 3.15 0.30 1.20 -1.35 2.05 -1.25 3.05 0.30 0.80 1.20 0.80 1.35 -0.15 2.60 -1.50 2.05 -3.15 2.45 -5.45 1.30 -5.20 -2.55 -4.45 -10.70 1.25 -13.05 2.35 -1 7.80 -0.60 11.65 0.85 7.25 2.70 11.60 11.55 10.70 21.90 -0.70 8.30 -5.15 13.85 -16.05 20 -8.25 4.65 -15.35 6.95 -23.05 7.45 l-4.85 0.30 0.40 -28.95 c0.25 -15.90 0.40 -29.40 0.35 -29.90 -0.05 -0.55 0.20 -1.40 0.50 -1.95 0.45 -0.90 0.85 -0.95 4.35 -0.70 3.65 0.30 3.90 0.35 5.65 2.30 1.25 1.35 2 2.65 2.20 4 0.30 1.95 0.45 2.05 2 2.05 l1.70 0 0.10 -4.60 c0.05 -2.55 0.10 -7.10 0.10 -10.15 l0.05 -5.50 -1.75 0 c-1.60 0 -1.75 0.10 -2.05 1.90 -0.70 4.25 -3.85 6.45 -8.95 6.25 l-3.25 -0.15 -0.15 -5.25 c-0.10 -3.15 0.10 -5.75 0.45 -6.60 0.90 -2.20 3.70 -4.40 5.65 -4.40 1.85 0 2.95 -0.95 2.70 -2.35 -0.15 -0.75 -0.90 -0.95 -5.15 -1.20 -2.75 -0.20 -7.40 -0.35 -10.35 -0.40 -5.30 -0.05 -5.40 -0.05 -5.70 1.15 -0.40 1.65 0.10 2.30 1.75 2.30 2.10 0 4.65 1.95 5.90 4.50 0.95 2 1 2.75 0.75 7.25 l-0.35 5 -3.25 -0.05 c-4.20 -0.05 -6.75 -1.20 -8 -3.75 -0.55 -1.05 -1 -2.60 -1 -3.45 0 -1.35 -0.15 -1.50 -1.70 -1.50 -0.95 0 -1.80 0.30 -1.95 0.65 -0.10 0.35 -0.25 4.95 -0.30 10.25 l-0.10 9.60 1.80 0 c1.35 0 1.75 -0.20 1.75 -0.85 0.05 -1.90 1.95 -5 3.65 -6.10 1.50 -0.90 2.40 -1.05 5.45 -0.95 l3.65 0.15 -0.20 25.50 c-0.10 14.05 -0.35 27.75 -0.50 30.50 l-0.30 5 -2 0.05 c-1.10 0.05 -3.25 -0.10 -4.80 -0.30z"/>
  <path d="M82.25 34.05 c-0.30 -0.55 0.45 -1.15 0.95 -0.70 0.45 0.45 0.35 1.15 -0.15 1.15 -0.30 0 -0.60 -0.20 -0.80 -0.45z"/>
  <path d="M86.55 32.65 c-0.85 -1.05 -1.55 -2 -1.55 -2.15 0 -0.15 1.45 -1.75 3.15 -3.65 l3.10 -3.35 4 5.10 c2.20 2.80 4.10 5.25 4.15 5.50 0.10 0.20 -2.40 0.40 -5.55 0.40 l-5.80 0 -1.50 -1.85z"/>
  <path d="M46.40 33.60 c-0.45 -0.20 -1.40 -1.10 -2.10 -2.05 l-1.25 -1.70 1.45 -1.85 c2.65 -3.35 2.75 -3.40 5 -0.95 1.05 1.20 1.95 2.50 2 2.90 0 0.70 -3.15 4.05 -3.80 4 -0.25 0 -0.85 -0.15 -1.30 -0.35z"/>
  <path d="M53.10 33.55 c0.10 -0.35 0.35 -0.60 0.55 -0.60 0.60 0.05 0.45 0.75 -0.15 1 -0.35 0.10 -0.55 -0.10 -0.40 -0.40z"/>
  <path d="M57.55 32.15 c-0.85 -1.05 -1.55 -2 -1.55 -2.15 0 -0.50 5.55 -7 6 -7 0.25 0 1.70 1.60 3.20 3.55 l2.80 3.55 -1.60 1.95 c-1.50 1.85 -1.70 1.95 -4.45 1.95 -2.70 0 -2.95 -0.10 -4.40 -1.85z"/>
  <path d="M73.80 32.45 c-0.70 -0.85 -1.30 -1.80 -1.30 -2.10 0 -0.35 0.90 -1.60 2 -2.85 l2 -2.25 2 2.25 c1.05 1.25 2 2.60 2 3.05 0 1.20 -2.65 3.45 -4.10 3.45 -0.85 0 -1.75 -0.55 -2.60 -1.55z"/>
  <path d="M24.50 33.05 c0 -0.65 8 -10.05 8.50 -10.05 0.60 0 5.50 6.15 5.50 6.95 0 0.40 -0.60 1.40 -1.35 2.15 -1.30 1.35 -1.45 1.40 -7 1.40 -3.20 0 -5.65 -0.20 -5.65 -0.45z"/>
  <path d="M116.15 11.15 c-1.60 -1.40 -1.80 -2.80 -0.60 -4.30 1.85 -2.40 5.45 -1.30 5.45 1.70 0 2.70 -2.95 4.25 -4.85 2.60z"/>
  <path d="M4.35 9.10 c-1.85 -2 -0.45 -5.10 2.30 -5.10 0.70 0 1.65 0.35 2.05 0.80 1 1 1 3.40 0 4.40 -1.05 1.10 -3.35 1 -4.35 -0.10z"/>
 </g>
</svg>