<?xml version="1.0" encoding="utf-8"?>
<!DOCTYPE svg PUBLIC "-//W3C//DTD SVG 1.0//EN" "http://www.w3.org/TR/2001/REC-SVG-20010904/DTD/svg10.dtd">
<svg version="1.0" xmlns="http://www.w3.org/2000/svg" width="116px" height="140px" viewBox="0 0 116 140" preserveAspectRatio="xMidYMid meet">
 <g fill="#000000">
  <path d="M37 137.85 c0 -0.30 3.30 -4.45 7.30 -9.10 4 -4.70 8.40 -9.80 9.75 -11.40 l2.45 -2.95 -0.10 -9.05 -0.15 -9.10 -11.60 -0.15 -11.65 -0.10 -0.05 2.60 c0 1.45 -0.10 3.60 -0.25 4.80 -0.50 3.55 0 4.60 2.10 4.60 2.40 0 3.65 -0.75 4.50 -2.80 0.50 -1.20 1 -1.70 1.60 -1.60 0.75 0.15 0.85 0.95 1 5.60 0.15 5.50 -0.25 7 -1.70 6.45 -0.40 -0.15 -0.70 -0.55 -0.70 -0.90 0 -0.35 -0.45 -1.20 -1.05 -1.95 -0.80 -1.05 -1.45 -1.30 -3.20 -1.30 -2.50 0 -3.05 0.85 -2.55 3.70 0.35 1.90 1.45 3.05 3.45 3.50 1 0.25 1.35 0.60 1.25 1.20 -0.15 0.75 -0.95 0.85 -6.20 1 -4.95 0.10 -6.15 0 -6.35 -0.60 -0.35 -0.85 0.40 -1.55 2.20 -1.95 1.55 -0.40 2.45 -2.20 2.45 -4.80 0 -2.35 -0.80 -2.80 -3.60 -2.05 -1.55 0.45 -2.15 0.90 -2.70 2.30 -0.45 1.10 -1.05 1.70 -1.70 1.70 -0.95 0 -1 -0.35 -1 -6 0 -5.65 0.05 -6 1 -6 0.65 0 1.25 0.60 1.70 1.70 0.85 2.05 2.30 2.90 4.45 2.70 l1.60 -0.15 0.15 -5.85 0.15 -5.90 -5.80 0 -5.85 0 0.40 1.65 c1.25 4.90 -0.60 8.75 -4.95 10.60 -2.40 1 -4.15 0.95 -6.70 -0.20 -7.05 -3.25 -6.10 -13.55 1.40 -15.75 l2.20 -0.65 0.25 -11.45 c0.15 -6.30 0.30 -22.50 0.40 -36.05 l0.15 -24.60 -2.10 -0.55 c-8.20 -2.20 -6.55 -14.50 1.90 -14.50 4.50 0 8 4 7.40 8.55 l-0.25 2.30 3.35 0.30 c5.25 0.50 15.55 0.40 15.90 -0.15 0.15 -0.25 -0.15 -1.10 -0.70 -1.85 -1.65 -2.25 -1.85 -5.50 -0.45 -8.15 1.60 -3.15 3.85 -4.50 7.40 -4.50 4.55 0 7.90 2.85 8.35 7.10 0.25 2.10 -0.20 3.50 -2.25 7.55 -0.10 0.20 4 0.35 9.10 0.35 7.55 0 9.30 -0.15 9.30 -0.70 0 -0.35 -0.30 -0.95 -0.70 -1.25 -0.35 -0.30 -0.95 -1.55 -1.30 -2.75 -1.50 -5.50 2.90 -10.70 8.75 -10.20 3.25 0.25 5.55 1.85 6.80 4.60 1.25 2.75 1.20 4.65 -0.30 7.60 -0.70 1.35 -1.25 2.50 -1.25 2.60 0 0.05 4.45 0.10 9.90 0.10 l9.85 0 -0.20 -2.85 c-0.10 -2 0.10 -3.35 0.65 -4.40 3.20 -5.80 12.10 -4.65 13.80 1.80 1.05 3.90 -1.10 7.65 -5.25 9.10 l-2 0.70 -0.35 32.45 c-0.25 17.85 -0.35 34 -0.25 35.90 l0.10 3.40 2.65 1 c3.90 1.45 5.35 3.60 5.35 7.90 0 2.85 -0.20 3.60 -1.35 5.10 -1.85 2.40 -5.05 3.65 -8.25 3.15 -4.50 -0.65 -7.90 -5.80 -6.65 -10.15 0.25 -1 0.50 -2 0.50 -2.20 0 -0.25 -2.60 -0.40 -5.75 -0.40 l-5.75 0 0 5.70 c0 5.95 0.20 6.45 2.35 6.05 3.55 -0.70 3.65 -0.75 4.05 -2.40 0.30 -1.10 0.75 -1.65 1.50 -1.75 1.10 -0.15 1.10 -0.05 1.10 5.85 0 5.65 -0.05 6.05 -0.95 6.05 -0.60 0 -1.30 -0.70 -1.90 -1.85 -0.75 -1.60 -1.25 -1.95 -3.05 -2.35 -2.65 -0.55 -3.25 -0.10 -3.20 2.65 0.05 2.70 0.80 3.95 2.75 4.45 1.10 0.30 1.65 0.75 1.75 1.50 0.15 1.10 0.15 1.15 -6 1 -5.70 -0.15 -6.15 -0.20 -6.15 -1.10 0 -0.65 0.50 -1.10 1.50 -1.40 2.05 -0.55 2.75 -1.65 2.75 -4.50 0 -2.80 -0.65 -3.30 -3.45 -2.60 -1.35 0.35 -2 0.90 -2.65 2.20 -0.50 1 -1.25 1.75 -1.75 1.75 -0.80 0 -0.90 -0.65 -1.05 -5.85 l-0.15 -5.90 1.30 0 c0.90 0 1.25 0.25 1.25 1 0 1.75 1.75 3 4.25 3 l2.25 0 0 -5.70 0 -5.70 -11.10 -0.20 c-6.15 -0.10 -11.45 -0.10 -11.75 0 -0.50 0.15 -0.65 2.45 -0.65 9.30 l0 9.05 9.75 11.65 c5.35 6.40 9.75 11.75 9.75 11.85 0 0.15 -9.55 0.25 -21.25 0.25 -16.70 0 -21.25 -0.15 -21.25 -0.65z m34.50 -2.85 c0 -0.75 -12.50 -15.70 -13.30 -15.90 -0.60 -0.15 -13.70 14.65 -13.70 15.45 0 0.40 3.55 0.55 19.15 0.85 5.45 0.10 7.85 -0.05 7.85 -0.40z m38.05 -30.45 c3.10 -3.15 1 -8.55 -3.30 -8.55 -1.45 0 -2.25 0.40 -3.55 1.70 -1.90 1.90 -2.10 3.10 -0.90 5.55 1.45 3.05 5.30 3.70 7.75 1.30z m-96.15 -0.30 c1.95 -1.65 2.40 -3.70 1.35 -5.90 -1.50 -3.15 -5.35 -3.85 -7.80 -1.40 -2.35 2.40 -1.90 6.20 0.95 7.75 2 1.10 3.85 0.95 5.50 -0.45z m58.30 -11.65 c0.10 -0.20 0.40 -16.70 0.60 -36.65 l0.35 -36.30 -9.15 -0.30 c-12 -0.45 -17.90 -0.45 -18.15 0.05 -0.15 0.20 -0.30 16.65 -0.40 36.60 l-0.20 36.25 4.50 0.30 c7.25 0.45 22.15 0.50 22.45 0.05z m31 -1.70 c0.20 -1.20 0.25 -17.65 0.20 -36.65 l-0.15 -34.50 -13.30 -0.15 -13.30 -0.10 -0.30 23.30 c-0.45 29.85 -0.45 49.45 0 49.85 0.15 0.20 6.25 0.35 13.45 0.35 l13.15 0 0.25 -2.10z m-61.45 -2.50 c0.15 -2.30 0.25 -18.75 0.15 -36.65 l-0.15 -32.50 -13.30 -0.15 -13.30 -0.10 -0.30 13.55 c-0.45 17.70 -0.45 59.20 0 59.60 0.15 0.20 6.20 0.35 13.45 0.35 l13.10 0 0.35 -4.10z m68.50 -73.15 c1.75 -1.70 1.65 -3.90 -0.25 -5.85 -1.30 -1.25 -1.80 -1.45 -3.15 -1.20 -2.05 0.40 -3.85 2.40 -3.85 4.35 0 2.15 1.95 3.95 4.25 3.95 1.25 0 2.20 -0.40 3 -1.25z m-96 -0.50 c2.35 -2.30 1.25 -6.20 -1.95 -7.05 -2.70 -0.65 -5.80 2.30 -5.10 4.95 0.80 3.30 4.75 4.45 7.05 2.10z m33.40 -2.15 c1 -1 1.35 -1.75 1.35 -3.25 0 -2.45 -0.65 -3.65 -2.50 -4.60 -2.30 -1.20 -3.90 -0.95 -5.80 0.95 -2.15 2.15 -2.30 4.50 -0.45 6.75 2 2.35 4.95 2.40 7.40 0.15z m30.70 0.30 c1.75 -1.80 2 -4.25 0.55 -6.40 -2.95 -4.35 -9.40 -2.50 -9.40 2.70 0 2.10 0.95 3.70 2.75 4.75 1.50 0.85 4.70 0.30 6.10 -1.05z"/>
  <path d="M55.20 60.55 c-4.60 -2.10 -6.40 -7.20 -4.10 -11.55 3.75 -7 14.25 -5.45 15.70 2.40 0.75 3.80 -1.25 7.45 -5.05 9.15 -2.55 1.15 -3.95 1.15 -6.55 0z m5.75 -3.25 c2.85 -1.50 3.40 -5.50 1.10 -7.85 -3 -3 -7.80 -1.35 -8.40 2.80 -0.50 4.05 3.65 6.90 7.30 5.05z"/>
  <path d="M85.75 60.80 c-2.05 -0.90 -4.10 -3.35 -4.80 -5.80 -1.50 -5 2.90 -10.50 8.30 -10.50 5.40 0 9.65 5.35 8.25 10.50 -1.40 5.15 -6.95 7.90 -11.75 5.80z m6.45 -3.85 c2.55 -2 2.50 -5.90 -0.05 -7.95 -3.65 -2.85 -9.10 0.95 -7.65 5.30 1.15 3.45 5 4.75 7.70 2.65z"/>
  <path d="M24.25 60.30 c-1.85 -0.80 -4.10 -3.35 -4.55 -5.10 -0.55 -2.20 0.10 -6 1.30 -7.70 1.30 -1.80 4.50 -3.50 6.75 -3.50 2.10 0 5.35 1.60 6.65 3.25 3.40 4.30 1.95 10.45 -3 13.05 -1.70 0.85 -5.15 0.85 -7.15 0z m7 -3.95 c0.90 -0.75 1.40 -1.80 1.60 -3.20 0.25 -1.95 0.10 -2.30 -1.50 -3.90 -1.35 -1.35 -2.15 -1.75 -3.50 -1.75 -2.20 0 -4.65 1.95 -5.10 4 -0.40 1.80 0.85 4.65 2.40 5.40 1.95 0.95 4.70 0.70 6.10 -0.55z"/>
 </g>
 <g fill="#ffffff">
  <path d="M0 70 l0 -70 58 0 58 0 0 70 0 70 -58 0 -58 0 0 -70z m79.50 68.25 c0 -0.10 -4.40 -5.45 -9.75 -11.85 l-9.75 -11.65 0 -9.05 c0 -6.85 0.15 -9.15 0.65 -9.30 0.30 -0.10 5.60 -0.10 11.75 0 l11.10 0.20 0 5.70 0 5.70 -2.25 0 c-2.50 0 -4.25 -1.25 -4.25 -3 0 -0.75 -0.35 -1 -1.25 -1 l-1.30 0 0.15 5.90 c0.15 5.20 0.25 5.85 1.05 5.85 0.50 0 1.25 -0.75 1.75 -1.75 0.65 -1.30 1.30 -1.85 2.65 -2.20 2.80 -0.70 3.45 -0.20 3.45 2.60 0 2.85 -0.70 3.95 -2.75 4.50 -1 0.30 -1.50 0.75 -1.50 1.40 0 0.90 0.45 0.95 6.15 1.10 6.15 0.15 6.15 0.10 6 -1 -0.10 -0.75 -0.65 -1.20 -1.75 -1.50 -1.95 -0.50 -2.70 -1.75 -2.75 -4.45 -0.05 -2.75 0.55 -3.20 3.20 -2.65 1.80 0.40 2.30 0.75 3.05 2.35 0.60 1.15 1.30 1.85 1.90 1.85 0.90 0 0.95 -0.40 0.95 -6.05 0 -5.90 0 -6 -1.10 -5.85 -0.75 0.10 -1.20 0.65 -1.50 1.75 -0.40 1.65 -0.50 1.70 -4.05 2.40 -2.15 0.40 -2.35 -0.10 -2.35 -6.05 l0 -5.70 5.75 0 c3.15 0 5.75 0.15 5.75 0.40 0 0.20 -0.25 1.20 -0.50 2.20 -1.25 4.35 2.15 9.50 6.65 10.15 3.20 0.50 6.40 -0.75 8.25 -3.15 1.15 -1.50 1.35 -2.25 1.35 -5.10 0 -4.30 -1.45 -6.45 -5.35 -7.90 l-2.65 -1 -0.10 -3.40 c-0.10 -1.90 0 -18.05 0.25 -35.90 l0.35 -32.45 2 -0.70 c4.15 -1.45 6.30 -5.20 5.25 -9.10 -1.70 -6.45 -10.60 -7.60 -13.80 -1.80 -0.55 1.05 -0.75 2.40 -0.65 4.40 l0.20 2.85 -9.85 0 c-5.45 0 -9.90 -0.05 -9.90 -0.10 0 -0.10 0.55 -1.25 1.25 -2.60 1.50 -2.95 1.55 -4.85 0.30 -7.60 -1.25 -2.75 -3.55 -4.35 -6.80 -4.60 -5.85 -0.50 -10.25 4.70 -8.75 10.20 0.35 1.20 0.95 2.45 1.30 2.75 0.40 0.30 0.70 0.90 0.70 1.25 0 0.55 -1.75 0.70 -9.30 0.70 -5.10 0 -9.20 -0.15 -9.10 -0.35 2.05 -4.05 2.50 -5.45 2.25 -7.55 -0.45 -4.25 -3.80 -7.10 -8.35 -7.10 -3.55 0 -5.80 1.35 -7.40 4.50 -1.40 2.65 -1.20 5.90 0.45 8.15 0.55 0.75 0.85 1.60 0.70 1.85 -0.35 0.55 -10.65 0.65 -15.90 0.15 l-3.35 -0.30 0.25 -2.30 c0.60 -4.55 -2.90 -8.55 -7.40 -8.55 -8.45 0 -10.10 12.30 -1.90 14.50 l2.10 0.55 -0.15 24.60 c-0.10 13.55 -0.25 29.75 -0.40 36.05 l-0.25 11.45 -2.20 0.65 c-7.50 2.20 -8.45 12.50 -1.40 15.75 2.55 1.15 4.30 1.20 6.70 0.20 4.35 -1.85 6.20 -5.70 4.95 -10.60 l-0.40 -1.65 5.85 0 5.80 0 -0.15 5.90 -0.15 5.85 -1.60 0.15 c-2.15 0.20 -3.60 -0.65 -4.45 -2.70 -0.45 -1.10 -1.05 -1.70 -1.70 -1.70 -0.95 0 -1 0.35 -1 6 0 5.65 0.05 6 1 6 0.65 0 1.25 -0.60 1.70 -1.70 0.55 -1.40 1.15 -1.85 2.70 -2.30 2.80 -0.75 3.60 -0.30 3.60 2.05 0 2.60 -0.90 4.40 -2.45 4.80 -1.80 0.40 -2.55 1.10 -2.20 1.95 0.20 0.60 1.40 0.70 6.35 0.60 5.25 -0.15 6.05 -0.25 6.20 -1 0.10 -0.60 -0.25 -0.95 -1.25 -1.20 -2 -0.45 -3.10 -1.60 -3.45 -3.50 -0.50 -2.85 0.05 -3.70 2.55 -3.70 1.75 0 2.40 0.25 3.20 1.30 0.60 0.75 1.05 1.60 1.05 1.95 0 0.35 0.30 0.75 0.70 0.90 1.45 0.55 1.85 -0.95 1.70 -6.45 -0.15 -4.65 -0.25 -5.45 -1 -5.60 -0.60 -0.10 -1.10 0.40 -1.60 1.60 -0.85 2.05 -2.10 2.80 -4.50 2.80 -2.10 0 -2.60 -1.05 -2.10 -4.60 0.15 -1.20 0.25 -3.35 0.25 -4.80 l0.05 -2.60 11.65 0.10 11.60 0.15 0.15 9.10 0.10 9.05 -2.45 2.95 c-1.35 1.60 -5.75 6.70 -9.75 11.40 -4 4.65 -7.30 8.80 -7.30 9.10 0 0.50 4.55 0.65 21.25 0.65 11.70 0 21.25 -0.10 21.25 -0.25z"/>
  <path d="M50.15 135.10 c-3.10 -0.05 -5.65 -0.30 -5.65 -0.55 0 -0.80 13.10 -15.60 13.70 -15.45 0.80 0.20 13.30 15.15 13.30 15.90 0 0.50 -4.30 0.55 -21.35 0.10z"/>
  <path d="M103.65 105.40 c-1.25 -0.60 -2.65 -3.20 -2.65 -4.90 0 -0.60 0.75 -1.85 1.70 -2.80 2.25 -2.25 4.75 -2.35 6.85 -0.25 4.10 4.10 -0.65 10.50 -5.90 7.95z"/>
  <path d="M7.90 104.70 c-2.85 -1.55 -3.30 -5.35 -0.95 -7.75 2.45 -2.45 6.30 -1.75 7.80 1.40 1.05 2.20 0.60 4.25 -1.35 5.90 -1.65 1.40 -3.50 1.55 -5.50 0.45z"/>
  <path d="M49.25 92.55 l-4.50 -0.30 0.20 -36.25 c0.10 -19.95 0.25 -36.40 0.40 -36.60 0.25 -0.50 6.15 -0.50 18.15 -0.05 l9.15 0.30 -0.35 36.30 c-0.20 19.95 -0.50 36.45 -0.60 36.65 -0.30 0.45 -15.20 0.40 -22.45 -0.05z m12.50 -32 c3.80 -1.70 5.80 -5.35 5.05 -9.15 -1.45 -7.85 -11.95 -9.40 -15.70 -2.40 -2.30 4.35 -0.50 9.45 4.10 11.55 2.60 1.15 4 1.15 6.55 0z"/>
  <path d="M56.70 57.50 c-0.60 -0.20 -1.55 -1.05 -2.20 -1.85 -0.85 -1.10 -1.05 -1.80 -0.85 -3.40 0.60 -4.15 5.40 -5.80 8.40 -2.80 3.80 3.80 -0.35 10.10 -5.35 8.05z"/>
  <path d="M75.85 92.65 c-0.45 -0.40 -0.45 -20 0 -49.85 l0.30 -23.30 13.30 0.10 13.30 0.15 0.15 34.50 c0.05 19 0 35.45 -0.20 36.65 l-0.25 2.10 -13.15 0 c-7.20 0 -13.30 -0.15 -13.45 -0.35z m16.80 -31.85 c3.60 -1.50 5.85 -6.05 4.85 -9.80 -1.80 -6.75 -10.25 -8.80 -14.65 -3.55 -1.95 2.35 -2.65 5.10 -1.90 7.55 1.55 5.20 6.85 7.85 11.70 5.80z"/>
  <path d="M86.35 57 c-2.75 -2.15 -2.80 -5.80 -0.05 -7.95 3.65 -2.90 8.85 0.70 7.60 5.30 -0.85 3.30 -4.90 4.70 -7.55 2.65z"/>
  <path d="M14.35 92.15 c-0.45 -0.40 -0.45 -41.90 0 -59.60 l0.30 -13.55 13.30 0.10 13.30 0.15 0.15 32.50 c0.10 17.90 0 34.35 -0.15 36.65 l-0.35 4.10 -13.10 0 c-7.25 0 -13.30 -0.15 -13.45 -0.35z m17.05 -31.85 c4.95 -2.60 6.40 -8.75 3 -13.05 -1.30 -1.65 -4.55 -3.25 -6.65 -3.25 -2.25 0 -5.45 1.70 -6.75 3.50 -1.20 1.70 -1.85 5.50 -1.30 7.70 0.45 1.75 2.70 4.30 4.55 5.10 2 0.85 5.45 0.85 7.15 0z"/>
  <path d="M25.15 56.90 c-1.55 -0.75 -2.80 -3.60 -2.40 -5.40 0.45 -2.05 2.90 -4 5.10 -4 1.35 0 2.15 0.40 3.50 1.75 1.60 1.60 1.75 1.95 1.50 3.90 -0.50 3.65 -4.20 5.45 -7.70 3.75z"/>
  <path d="M103.75 15.25 c-2.40 -2.35 -0.90 -6.40 2.60 -7.05 1.35 -0.25 1.85 -0.05 3.15 1.20 2.85 2.90 1.25 7.10 -2.75 7.10 -1.25 0 -2.20 -0.40 -3 -1.25z"/>
  <path d="M8.10 15 c-2.35 -2.20 -1.80 -5.55 1.10 -6.90 2.75 -1.35 5.80 0.60 5.80 3.65 0 3.60 -4.35 5.65 -6.90 3.25z"/>
  <path d="M42.15 14.15 c-1.75 -0.35 -3.65 -2.95 -3.65 -5 0 -1.35 0.40 -2.15 1.70 -3.45 1.90 -1.90 3.50 -2.15 5.80 -0.95 1.85 0.95 2.50 2.15 2.50 4.60 0 3.10 -3.05 5.40 -6.35 4.80z"/>
  <path d="M71.75 13.95 c-1.80 -1.05 -2.75 -2.65 -2.75 -4.75 0 -5.20 6.45 -7.05 9.40 -2.70 1.45 2.15 1.20 4.60 -0.55 6.40 -1.40 1.35 -4.60 1.90 -6.10 1.05z"/>
 </g>
</svg>