<?xml version="1.0" encoding="utf-8"?>
<!DOCTYPE svg PUBLIC "-//W3C//DTD SVG 1.0//EN" "http://www.w3.org/TR/2001/REC-SVG-20010904/DTD/svg10.dtd">
<svg version="1.0" xmlns="http://www.w3.org/2000/svg" width="150px" height="144px" viewBox="0 0 150 144" preserveAspectRatio="xMidYMid meet">
 <g fill="#000000">
  <path d="M60.15 142.65 c-3.65 -0.10 -6.65 -0.35 -6.65 -0.55 0 -0.20 2.50 -2.85 5.50 -5.85 5.25 -5.20 5.50 -5.60 5.50 -7.55 0 -2.40 -0.45 -2.70 -3.80 -2.70 -2.15 0 -2.50 0.25 -6.25 3.80 -2.15 2.05 -4.15 3.60 -4.45 3.45 -1.05 -0.65 -0.35 -23.75 0.70 -23.75 0.35 0 2.10 2.15 3.95 4.75 l3.40 4.75 3.20 0 3.25 0 0 -7.90 0 -7.95 -9.35 -0.30 c-5.20 -0.20 -15.50 -0.35 -22.90 -0.35 -7.45 0 -14.30 -0.20 -15.25 -0.50 -2.05 -0.60 -6.80 -5.10 -9.50 -9 -2.60 -3.85 -4.20 -7.15 -5.55 -11.50 -1.50 -4.85 -1.60 -14 -0.25 -19 1.95 -7.15 8.30 -16.80 13.30 -20.25 l2.15 -1.50 24.20 0.20 24.15 0.20 0 -8.05 0 -8 -2.75 -0.35 c-1.50 -0.15 -2.95 -0.20 -3.25 0 -0.25 0.15 -2.05 2.45 -4 5.05 -1.95 2.60 -3.75 4.60 -4 4.45 -0.30 -0.20 -0.50 -5 -0.50 -12.05 0 -13.85 0 -13.85 5 -8.25 2.95 3.25 3.20 3.45 5.85 3.75 3.25 0.40 3.90 0 4.05 -2.40 0.10 -1.60 -0.35 -2.25 -5.35 -7.65 -3 -3.20 -5.35 -6.05 -5.25 -6.25 0.60 -0.95 25.20 -0.20 25.20 0.80 0 0.30 -1.90 2.45 -4.25 4.80 l-4.25 4.25 -0.10 3.25 -0.15 3.25 2.40 0.15 c2.30 0.15 2.55 0 6.35 -3.10 2.20 -1.80 4.30 -3.30 4.75 -3.30 0.65 0 0.75 1.40 0.75 10.45 0 10.60 -0.15 12.05 -1.20 12.05 -0.30 0 -2.45 -2 -4.70 -4.50 -4.05 -4.35 -4.25 -4.50 -6.40 -4.50 l-2.20 0 0 7.90 0 7.95 7.15 0.30 c3.90 0.20 9.85 0.35 13.15 0.35 l6.05 0 -0.05 -3.35 c-0.05 -4 1.05 -6.20 4.20 -8.40 1.70 -1.20 2.35 -1.35 4.50 -1.15 3.05 0.30 4.80 1.70 5.55 4.60 0.80 2.95 -0.10 5.40 -3.10 8.40 -1.35 1.35 -2.45 2.65 -2.45 2.85 0 0.25 0.55 1.40 1.20 2.60 1.45 2.65 2.05 6.20 1.35 8 -0.75 2.10 -3.85 4.80 -5.80 5.10 -6.40 1.05 -12.55 -6.85 -8.50 -10.90 1.45 -1.50 3.45 -1.60 6 -0.40 2.05 1 2.70 2.40 1.55 3.55 -0.75 0.75 -1 0.75 -3 -0.35 -3.30 -1.80 -4.45 -0.45 -2 2.40 2.55 3.05 7.20 2.50 8.25 -1 0.55 -1.70 0.45 -2.20 -0.65 -4.30 l-1.20 -2.40 -16 -0.30 c-8.75 -0.20 -16.10 -0.25 -16.30 -0.10 -0.25 0.10 -0.40 5.35 -0.40 11.70 l0 11.45 8.90 0 c4.85 0 11.65 0.15 15.10 0.30 l6.25 0.35 2 -2.70 c2.50 -3.35 5.20 -4.95 8.40 -4.95 4.25 0 7.55 2 9.40 5.65 0.85 1.60 1.25 1.90 2.35 1.75 l1.35 -0.15 0.15 -4.95 c0.05 -2.75 0.40 -5.30 0.70 -5.65 0.85 -1.05 21.75 -0.70 22.40 0.35 0.30 0.40 0.50 6.30 0.50 13.40 0 12.25 -0.05 12.65 -1.10 13.70 -1.05 1.05 -1.25 1.05 -11.35 0.75 -8.85 -0.30 -10.40 -0.45 -10.90 -1.20 -0.40 -0.55 -0.65 -2.60 -0.65 -5.70 0 -5 -0.25 -5.55 -2.10 -5.05 -0.50 0.10 -1 0.65 -1.20 1.20 -0.15 0.55 -1.10 1.90 -2.05 2.95 -4.45 4.95 -12.40 3.95 -16.05 -1.95 l-1.50 -2.45 -15.15 -0.30 c-8.30 -0.20 -15.20 -0.25 -15.30 -0.15 -0.10 0.05 -0.20 5.30 -0.30 11.60 l-0.10 11.45 15.75 0.30 c10.95 0.20 15.95 0.10 16.45 -0.25 0.40 -0.30 1.15 -1.50 1.65 -2.70 0.80 -1.80 0.85 -2.40 0.40 -3.85 -0.65 -2 -1.75 -2.75 -4 -2.75 -2.10 0 -4.30 1.35 -5.05 3.10 -0.90 2.20 0.05 2.80 2.20 1.45 2.20 -1.35 3.70 -1.35 4.10 0 0.65 2.05 -3.20 4.35 -6.25 3.70 -5.90 -1.30 -2.35 -11.20 4.35 -12.10 2.60 -0.35 5.20 0.80 6.95 3.15 1.95 2.55 1.95 6 0.05 9.70 -0.75 1.40 -1.35 2.85 -1.35 3.20 0 0.35 0.80 1.40 1.80 2.35 1.95 1.85 3.65 5 3.70 6.80 0 2.25 -1.50 5.05 -3.25 5.85 -3.05 1.45 -5.60 0.95 -8.40 -1.65 -2.65 -2.40 -3.70 -6.15 -2.65 -9.40 0.35 -1.05 0.20 -1.10 -4.05 -1.25 -2.40 -0.10 -8.45 -0.20 -13.40 -0.20 l-9 0.05 -0.15 7.90 -0.15 7.85 1.40 0.05 c2.50 0.10 2.85 -0.10 7.20 -4.35 4.40 -4.30 5.40 -4.90 5.50 -3.30 0.55 7.30 0 21.60 -0.80 21.60 -0.35 0 -2.30 -1.45 -4.40 -3.25 -3.60 -3.05 -3.95 -3.25 -6.35 -3.25 l-2.50 0 0 3.35 0 3.40 4.30 4.30 c2.45 2.50 4.20 4.60 4 4.90 -0.35 0.55 -2.25 0.55 -18.65 0.20z m46.35 -30.65 c1.25 -1.25 1.25 -1.70 0.05 -4.35 -1.20 -2.65 -3.20 -4.05 -4.35 -3.10 -2.10 1.70 -1.70 5 0.85 7.40 1.40 1.30 2.15 1.35 3.45 0.05z m-41.75 -21.60 c0.15 -4.20 0.25 -9.45 0.15 -11.65 l-0.15 -4 -12 -0.30 c-14 -0.40 -45.75 -0.60 -46 -0.35 -0.55 0.55 1.50 7.60 3.30 11.25 1.50 3.15 3 5.25 5.70 8.10 l3.65 3.80 16.95 0.25 c9.30 0.15 19.40 0.35 22.45 0.40 l5.60 0.10 0.35 -7.60z m79.45 -7.70 c0.15 -0.45 0.30 -5.15 0.30 -10.45 l0 -9.65 -3.10 -0.35 c-1.75 -0.15 -5.05 -0.25 -7.40 -0.15 l-4.25 0.15 -0.15 4 -0.15 4 1.65 -1.80 c4.30 -4.70 10.75 -3.05 12.40 3.10 0.50 1.75 0.40 2.35 -0.50 4.20 -2.50 5.15 -8.60 5.75 -12.20 1.15 -0.85 -1.05 -1.30 -1.40 -1.35 -0.90 -0.25 2.55 -0.30 5.90 -0.10 6.65 0.20 0.75 1 0.85 7.40 0.85 6.05 0 7.20 -0.10 7.45 -0.80z m-30 -3.90 c2.20 -0.90 4 -2.85 3.20 -3.40 -0.90 -0.55 -11.40 -0.50 -11.40 0.05 0 1 2.20 3.05 3.65 3.50 2.25 0.65 2.65 0.65 4.55 -0.15z m24.55 -4.10 c1.25 -1.25 0.80 -3.75 -0.85 -4.65 -1.25 -0.70 -1.45 -0.70 -2.75 0.25 -1.70 1.30 -2 2.40 -0.95 3.95 0.95 1.45 3.30 1.70 4.55 0.45z m-20.75 -5.15 c0 -0.80 -3.50 -3.55 -4.65 -3.60 -3.25 -0.15 -5.95 0.80 -6.85 2.50 -0.25 0.55 -0.50 1.10 -0.50 1.25 0 0.15 2.70 0.30 6 0.30 3.30 0 6 -0.20 6 -0.45z m-53 -11.30 c0.15 -6.05 0.20 -11.25 0.10 -11.55 -0.10 -0.40 -6.95 -0.65 -22.15 -0.90 -25.45 -0.40 -23.25 -0.80 -28.25 5.05 -4.10 4.85 -7.70 12.70 -7.70 16.75 l0 1.40 18.90 0.15 c10.35 0.05 23.35 0.10 28.85 0.10 l10 0 0.25 -11z m40.90 -18.90 c2 -2.05 2.70 -4.30 1.90 -5.90 -1.15 -2.40 -3.95 -1.45 -5.50 1.80 -0.95 2 -0.80 3.70 0.50 4.95 1.05 1.10 1.30 1.05 3.10 -0.85z"/>
  <path d="M42.10 92.65 c-6.10 -3 -5.80 -12.20 0.45 -15.45 3.10 -1.55 7.70 -0.55 10.10 2.25 4.75 5.65 0.90 14.05 -6.45 14.05 -1.35 0 -3.20 -0.40 -4.10 -0.85z m6.20 -2.90 c1.20 -0.50 1.95 -1.25 2.50 -2.55 1 -2.35 0.55 -4.35 -1.40 -5.95 -3.40 -2.85 -8.40 -0.45 -8.40 4.10 0 1.85 1.25 3.60 3.20 4.45 1.95 0.85 2 0.85 4.10 -0.05z"/>
  <path d="M43.50 66.65 c-3.10 -1.15 -5.50 -4.75 -5.50 -8.15 0 -2.85 1.10 -5.15 3.30 -6.80 1.65 -1.25 2.30 -1.45 5.25 -1.45 3.65 0 5.15 0.70 7.15 3.40 1.55 2.10 1.65 6.55 0.20 9.10 -1.85 3.20 -7.05 5.15 -10.40 3.90z m6.55 -4.60 c2.65 -2.65 1.70 -6.85 -1.85 -8.35 -1.45 -0.60 -1.95 -0.60 -3.40 0 -5.30 2.20 -3.95 9.80 1.70 9.80 1.65 0 2.40 -0.30 3.55 -1.45z"/>
  <path d="M77.25 92.80 c-5.75 -2.55 -7 -10.10 -2.45 -14.40 3.75 -3.50 9.10 -3.20 12.55 0.75 5.95 6.75 -1.90 17.30 -10.10 13.65z m6.80 -4.75 c1.05 -1.10 1.45 -1.95 1.45 -3.30 0 -1.35 -0.40 -2.20 -1.45 -3.30 -1.10 -1.05 -1.95 -1.45 -3.30 -1.45 -1.35 0 -2.20 0.40 -3.30 1.45 -1.05 1.10 -1.45 1.95 -1.45 3.30 0 1.35 0.40 2.20 1.45 3.30 1.10 1.05 1.95 1.45 3.30 1.45 1.35 0 2.20 -0.40 3.30 -1.45z"/>
  <path d="M78.20 67.95 c-1.85 -0.50 -5.05 -3.85 -5.50 -5.70 -0.55 -2.20 0.10 -6.05 1.25 -7.70 5.40 -7.55 17.90 -1.85 15.50 7.05 -1.40 5.35 -5.95 7.90 -11.25 6.35z m5.25 -4.20 c4.40 -2.25 2.50 -8.75 -2.55 -8.75 -3.55 0 -5.70 3.40 -4.15 6.65 1.25 2.70 3.95 3.55 6.70 2.10z"/>
 </g>
 <g fill="#ffffff">
  <path d="M0 72 l0 -72 75 0 75 0 0 72 0 72 -75 0 -75 0 0 -72z m78.80 70.45 c0.20 -0.30 -1.55 -2.40 -4 -4.90 l-4.30 -4.30 0 -3.40 0 -3.35 2.50 0 c2.40 0 2.75 0.20 6.35 3.25 2.10 1.80 4.05 3.25 4.40 3.25 0.80 0 1.35 -14.30 0.80 -21.60 -0.10 -1.60 -1.10 -1 -5.50 3.30 -4.35 4.25 -4.70 4.45 -7.20 4.35 l-1.40 -0.05 0.15 -7.85 0.15 -7.90 9 -0.05 c4.95 0 11 0.10 13.40 0.20 4.25 0.15 4.40 0.20 4.05 1.25 -1.05 3.25 0 7 2.65 9.40 2.80 2.60 5.35 3.10 8.40 1.65 1.75 -0.80 3.25 -3.60 3.25 -5.85 -0.05 -1.80 -1.75 -4.95 -3.70 -6.80 -1 -0.95 -1.80 -2 -1.80 -2.35 0 -0.35 0.60 -1.80 1.35 -3.20 1.90 -3.70 1.90 -7.15 -0.05 -9.70 -1.75 -2.35 -4.35 -3.50 -6.95 -3.15 -6.70 0.90 -10.25 10.80 -4.35 12.10 3.05 0.65 6.90 -1.65 6.25 -3.70 -0.40 -1.35 -1.90 -1.35 -4.10 0 -2.15 1.35 -3.10 0.75 -2.20 -1.45 0.75 -1.75 2.95 -3.10 5.05 -3.10 2.25 0 3.35 0.75 4 2.75 0.45 1.45 0.40 2.05 -0.40 3.85 -0.50 1.20 -1.25 2.40 -1.65 2.70 -0.50 0.35 -5.50 0.45 -16.45 0.25 l-15.75 -0.30 0.10 -11.45 c0.10 -6.30 0.20 -11.55 0.30 -11.60 0.10 -0.10 7 -0.05 15.30 0.15 l15.15 0.30 1.50 2.45 c2.60 4.20 7.15 6 11.75 4.65 2.60 -0.75 5.70 -3.50 6.35 -5.65 0.20 -0.55 0.70 -1.10 1.20 -1.20 1.85 -0.50 2.10 0.05 2.10 5.05 0 3.10 0.25 5.15 0.65 5.70 0.50 0.75 2.05 0.90 10.90 1.20 10.10 0.30 10.30 0.30 11.35 -0.75 1.05 -1.05 1.10 -1.45 1.10 -13.70 0 -7.10 -0.20 -13 -0.50 -13.40 -0.65 -1.05 -21.55 -1.40 -22.40 -0.35 -0.30 0.35 -0.65 2.90 -0.70 5.65 l-0.15 4.95 -1.35 0.15 c-1.10 0.15 -1.50 -0.15 -2.35 -1.75 -1.85 -3.65 -5.15 -5.65 -9.40 -5.65 -3.20 0 -5.90 1.60 -8.40 4.95 l-2 2.70 -6.25 -0.35 c-3.45 -0.15 -10.25 -0.30 -15.10 -0.30 l-8.90 0 0 -11.45 c0 -6.35 0.15 -11.60 0.40 -11.70 0.20 -0.15 7.55 -0.10 16.30 0.10 l16 0.30 1.20 2.40 c1.10 2.10 1.20 2.60 0.65 4.30 -1.05 3.50 -5.70 4.05 -8.25 1 -2.45 -2.85 -1.30 -4.20 2 -2.40 2 1.10 2.25 1.10 3 0.35 1.15 -1.15 0.50 -2.55 -1.55 -3.55 -5.10 -2.45 -8.75 1.10 -6.55 6.30 1.35 3.30 5.50 5.60 9.05 5 1.95 -0.30 5.05 -3 5.80 -5.10 0.70 -1.80 0.10 -5.35 -1.35 -8 -0.65 -1.20 -1.20 -2.35 -1.20 -2.60 0 -0.20 1.10 -1.50 2.45 -2.85 3 -3 3.90 -5.45 3.10 -8.40 -0.75 -2.90 -2.50 -4.30 -5.55 -4.60 -2.15 -0.20 -2.80 -0.05 -4.50 1.15 -3.15 2.20 -4.25 4.40 -4.20 8.40 l0.05 3.35 -6.05 0 c-3.30 0 -9.25 -0.15 -13.15 -0.35 l-7.15 -0.30 0 -7.95 0 -7.90 2.20 0 c2.15 0 2.35 0.15 6.40 4.50 2.25 2.50 4.40 4.50 4.70 4.50 1.05 0 1.20 -1.45 1.20 -12.05 0 -9.05 -0.10 -10.45 -0.75 -10.45 -0.45 0 -2.55 1.50 -4.75 3.30 -3.80 3.10 -4.05 3.25 -6.35 3.10 l-2.40 -0.15 0.15 -3.25 0.10 -3.25 4.25 -4.25 c2.35 -2.35 4.25 -4.50 4.25 -4.80 0 -1 -24.60 -1.75 -25.20 -0.80 -0.10 0.20 2.25 3.05 5.25 6.25 5 5.40 5.45 6.05 5.35 7.65 -0.15 2.40 -0.80 2.80 -4.05 2.40 -2.65 -0.30 -2.90 -0.50 -5.85 -3.75 -5 -5.60 -5 -5.60 -5 8.25 0 7.05 0.20 11.85 0.50 12.05 0.25 0.15 2.05 -1.85 4 -4.45 1.95 -2.60 3.75 -4.90 4 -5.05 0.30 -0.20 1.75 -0.15 3.25 0 l2.75 0.35 0 8 0 8.05 -24.15 -0.20 -24.20 -0.20 -2.15 1.50 c-5 3.45 -11.35 13.10 -13.30 20.25 -1.35 5 -1.25 14.15 0.25 19 1.35 4.35 2.95 7.65 5.55 11.50 2.70 3.90 7.45 8.40 9.50 9 0.95 0.30 7.80 0.50 15.25 0.50 7.40 0 17.70 0.15 22.90 0.35 l9.35 0.30 0 7.95 0 7.90 -3.25 0 -3.20 0 -3.40 -4.75 c-1.85 -2.60 -3.60 -4.75 -3.95 -4.75 -1.05 0 -1.75 23.10 -0.70 23.75 0.30 0.15 2.30 -1.40 4.45 -3.45 3.75 -3.55 4.10 -3.80 6.25 -3.80 3.35 0 3.80 0.30 3.80 2.70 0 1.95 -0.25 2.35 -5.50 7.55 -3 3 -5.50 5.65 -5.50 5.85 0 0.35 4 0.50 19.10 0.80 3.85 0.05 5.95 -0.10 6.20 -0.45z m5.70 -49.90 c5.20 -2.75 6.55 -9.15 2.85 -13.40 -4.35 -5 -12.10 -3.80 -14.65 2.20 -3.15 7.30 4.90 14.90 11.80 11.20z m0.30 -25 c6.50 -2.95 6.60 -12.30 0.15 -15.55 -5.40 -2.75 -11.75 0.60 -12.35 6.55 -0.30 3.30 0.10 4.65 2.20 6.95 2.70 3 6.30 3.75 10 2.05z"/>
  <path d="M103.05 111.95 c-2.55 -2.40 -2.95 -5.70 -0.85 -7.40 1.15 -0.95 3.15 0.45 4.35 3.10 1.20 2.65 1.20 3.10 -0.05 4.35 -1.30 1.30 -2.05 1.25 -3.45 -0.05z"/>
  <path d="M36.35 97.50 l-16.95 -0.25 -3.65 -3.80 c-2.70 -2.85 -4.20 -4.95 -5.70 -8.10 -1.80 -3.65 -3.85 -10.70 -3.30 -11.25 0.25 -0.25 32 -0.05 46 0.35 l12 0.30 0.15 4 c0.10 2.20 0 7.45 -0.15 11.65 l-0.35 7.60 -5.60 -0.10 c-3.05 -0.05 -13.15 -0.25 -22.45 -0.40z m14.15 -5.05 c3.15 -1.75 4.95 -6 4 -9.45 -1.40 -5.15 -7.45 -8.10 -11.95 -5.80 -5 2.60 -6.40 8.60 -3.10 13.25 2.20 3.05 7.45 4 11.05 2z"/>
  <path d="M44.20 89.80 c-5.35 -2.35 -3.60 -9.80 2.30 -9.80 1.80 0 4.35 2.10 4.75 3.95 0.50 2.25 -0.90 4.95 -2.95 5.80 -2.10 0.90 -2.15 0.90 -4.10 0.05z"/>
  <path d="M129.35 82.65 c-0.20 -0.75 -0.15 -4.10 0.10 -6.65 0.05 -0.50 0.50 -0.15 1.35 0.90 3.60 4.60 9.70 4 12.20 -1.15 0.90 -1.85 1 -2.45 0.50 -4.20 -1.65 -6.15 -8.10 -7.80 -12.40 -3.10 l-1.65 1.80 0.15 -4 0.15 -4 4.25 -0.15 c2.35 -0.10 5.65 0 7.40 0.15 l3.10 0.35 0 9.65 c0 5.30 -0.15 10 -0.30 10.45 -0.25 0.70 -1.40 0.80 -7.45 0.80 -6.40 0 -7.20 -0.10 -7.40 -0.85z"/>
  <path d="M109.65 78.95 c-1.45 -0.45 -3.65 -2.50 -3.65 -3.50 0 -0.55 10.50 -0.60 11.40 -0.05 0.80 0.55 -1 2.50 -3.20 3.40 -1.90 0.80 -2.30 0.80 -4.55 0.15z"/>
  <path d="M134.20 74.25 c-1.05 -1.55 -0.75 -2.65 0.95 -3.95 1.30 -0.95 1.50 -0.95 2.75 -0.25 1.65 0.90 2.10 3.40 0.85 4.65 -1.25 1.25 -3.60 1 -4.55 -0.45z"/>
  <path d="M106 69.70 c0 -0.15 0.25 -0.70 0.50 -1.25 0.90 -1.70 3.60 -2.65 6.85 -2.50 1.15 0.05 4.65 2.80 4.65 3.60 0 0.25 -2.70 0.45 -6 0.45 -3.30 0 -6 -0.15 -6 -0.30z"/>
  <path d="M25.90 69.15 l-18.90 -0.15 0 -1.40 c0 -4.05 3.60 -11.90 7.70 -16.75 5 -5.85 2.80 -5.45 28.25 -5.05 15.20 0.25 22.05 0.50 22.15 0.90 0.10 0.30 0.05 5.50 -0.10 11.55 l-0.25 11 -10 0 c-5.50 0 -18.50 -0.05 -28.85 -0.10z m24.60 -3.25 c3.20 -1.60 4.60 -4.25 4.35 -8.05 -0.20 -3.05 -1.10 -4.75 -3.55 -6.55 -1.05 -0.80 -2.10 -1.05 -4.75 -1.05 -2.95 0 -3.60 0.20 -5.25 1.45 -5.20 3.95 -3.95 12.65 2.20 14.95 1.75 0.65 4.90 0.30 7 -0.75z"/>
  <path d="M42.95 62.05 c-2.65 -2.65 -1.70 -6.85 1.85 -8.35 1.45 -0.60 1.95 -0.60 3.40 0 5.30 2.20 3.95 9.80 -1.70 9.80 -1.65 0 -2.40 -0.30 -3.55 -1.45z"/>
  <path d="M102.80 40.20 c-1.30 -1.25 -1.45 -2.95 -0.50 -4.95 1.55 -3.25 4.35 -4.20 5.50 -1.80 0.80 1.60 0.10 3.85 -1.90 5.90 -1.80 1.90 -2.05 1.95 -3.10 0.85z"/>
  <path d="M77.45 88.05 c-1.05 -1.10 -1.45 -1.95 -1.45 -3.30 0 -1.35 0.40 -2.20 1.45 -3.30 1.10 -1.05 1.95 -1.45 3.30 -1.45 1.35 0 2.20 0.40 3.30 1.45 1.05 1.10 1.45 1.95 1.45 3.30 0 1.35 -0.40 2.20 -1.45 3.30 -1.10 1.05 -1.95 1.45 -3.30 1.45 -1.35 0 -2.20 -0.40 -3.30 -1.45z"/>
  <path d="M78.65 63.90 c-1.45 -0.70 -2.80 -3.65 -2.40 -5.25 0.80 -3.35 5.15 -4.80 7.90 -2.65 4.45 3.55 -0.30 10.40 -5.50 7.90z"/>
 </g>
</svg>