<?xml version="1.0" encoding="utf-8"?>
<!DOCTYPE svg PUBLIC "-//W3C//DTD SVG 1.0//EN" "http://www.w3.org/TR/2001/REC-SVG-20010904/DTD/svg10.dtd">
<svg version="1.0" xmlns="http://www.w3.org/2000/svg" width="153px" height="130px" viewBox="0 0 153 130" preserveAspectRatio="xMidYMid meet">
 <g fill="#000000">
  <path d="M49.35 128.55 c-3.25 -0.45 -10.45 -3.75 -16 -7.35 -4.60 -3 -9.05 -7.50 -12.05 -12.30 -3.55 -5.75 -4.40 -8.55 -4.70 -16 -0.20 -5.45 -0.10 -6.90 0.90 -10.50 1.80 -6.75 7.30 -16.20 12.35 -21.05 3.20 -3.15 7.40 -6.05 12.90 -9.10 5.35 -2.90 5.25 -2.75 5.25 -7.85 l0 -4.40 -5.25 0 -5.25 0 -0.55 1.35 c-2.25 5.60 -4.30 9 -7 11.70 -4.25 4.15 -10.50 6.95 -15.70 6.95 -1.85 0 -2.40 0.40 -7.35 5.05 -3 2.75 -5.65 4.85 -5.95 4.70 -0.55 -0.40 -0.40 -19.50 0.20 -20.10 0.20 -0.15 1.65 0.95 3.25 2.50 3.40 3.20 4.70 3.60 10.50 3.25 4.95 -0.30 8.80 -2.20 12.50 -6.10 2.40 -2.50 5.10 -7.10 5.10 -8.65 0 -0.50 -2.35 -0.65 -10 -0.65 l-10 0 -5.20 3.25 c-2.85 1.80 -5.45 3.25 -5.75 3.25 -0.40 0 -0.55 -3.15 -0.55 -11 0 -6.05 0.20 -11 0.45 -11 0.25 0 3.55 2.35 7.30 5.25 l6.90 5.25 8.65 0 8.70 0 0 -1.95 c0 -3.05 -1.80 -8.05 -3.85 -10.80 -4 -5.20 -9.25 -7.80 -15.70 -7.85 -4.30 0 -5.25 0.35 -8.55 3.40 -3.90 3.60 -3.90 3.60 -3.90 -7.30 0 -8.05 0.10 -9.50 0.75 -9.50 0.40 0 2.75 1.90 5.20 4.25 4.70 4.45 4.95 4.55 10 4.95 6.50 0.45 14.45 6.15 17.75 12.75 1.45 2.80 2.80 7.75 2.80 10.20 0 1.55 0.15 1.75 1.55 1.95 2.90 0.45 8.35 0.45 8.60 0.05 0.15 -0.20 0.40 -3.45 0.60 -7.15 l0.35 -6.75 -4.35 -4.90 c-3.05 -3.40 -4.25 -5.05 -3.85 -5.45 0.60 -0.60 19.80 -0.40 20.40 0.25 0.25 0.25 -1.45 2.25 -3.70 4.45 l-4.10 4.05 0 7.90 0 7.95 10.25 0 10.25 0 0 -6.55 0 -6.50 -4.75 -5.35 c-2.65 -2.90 -4.70 -5.55 -4.60 -5.80 0.15 -0.40 4.10 -0.50 12.40 -0.35 6.70 0.10 12.30 0.25 12.40 0.35 0.10 0.10 -2.10 2.65 -4.90 5.65 l-5.05 5.45 0 6.55 0 6.55 10.25 0 10.25 0 0 -7.90 0 -7.85 -4 -4 c-2.20 -2.20 -4 -4.15 -4 -4.35 0 -0.25 4.65 -0.35 10.40 -0.30 7.70 0.10 10.35 0.30 10.35 0.75 0 0.35 -1.70 2.50 -3.80 4.75 l-3.80 4.15 -0.25 7.40 -0.25 7.35 5.15 0 c5 0 5.20 -0.05 5.40 -1.15 0.10 -0.60 0.45 -2.45 0.75 -4.10 1.95 -10.65 11.05 -18.80 21.95 -19.60 l3.65 -0.30 4.60 -4.15 c2.55 -2.30 4.90 -4.20 5.25 -4.20 0.85 0 0.65 18.55 -0.20 18.85 -0.30 0.10 -1.90 -1.05 -3.60 -2.55 -2.45 -2.20 -3.55 -2.80 -5.40 -3.10 -3.85 -0.55 -7.60 0.10 -11.50 2.05 -5.80 2.85 -9.55 8.05 -10.85 14.85 -0.45 2.50 -0.40 3.05 0.20 3.45 0.40 0.25 4.30 0.45 8.75 0.45 l8.05 0 7 -5.25 c3.85 -2.90 7.30 -5.25 7.60 -5.25 0.40 0 0.55 3.25 0.55 11 0 8.80 -0.15 11 -0.65 11 -0.40 0 -3 -1.50 -5.90 -3.40 l-5.20 -3.35 -9.85 -0.15 c-11.45 -0.20 -11.05 -0.40 -8.45 4.80 2.90 5.75 9.35 10.30 15.55 10.95 5.25 0.55 7.30 -0.10 10.50 -3.15 1.55 -1.50 3.10 -2.70 3.40 -2.70 0.80 0 0.85 19.80 0.10 20.25 -0.30 0.20 -2.95 -1.95 -5.90 -4.70 -4.35 -4.10 -5.65 -5.05 -6.85 -5.05 -2.40 0 -6.95 -1.35 -10.15 -2.95 -5.65 -2.90 -9.50 -7.40 -11.95 -14.10 l-1.30 -3.50 -5.30 0.15 -5.30 0.15 -0.15 4.05 c-0.15 4.05 -0.10 4.10 1.45 5.40 0.85 0.75 2.50 1.80 3.65 2.40 3.90 1.95 11.15 7.35 13.95 10.40 4.75 5.10 9.60 14.25 11.30 21.35 1.05 4.30 1.10 4.90 0.55 10.25 -0.70 6.70 -2 10.50 -5.15 15.25 -4.70 7.05 -10 11.35 -20.15 16.30 l-5.40 2.60 -7.05 0.15 c-6.85 0.20 -7.15 0.15 -9.75 -1.15 -3.45 -1.75 -7 -5.10 -8.45 -8.05 -1.55 -3.05 -1.25 -6.90 0.75 -9.75 1.70 -2.45 6.05 -5.25 9.40 -6 5.10 -1.10 11.30 2.10 12.05 6.25 1.05 5.55 -4 10.70 -9.20 9.30 -3.80 -1 -5.55 -4.65 -3.80 -8 1.40 -2.70 3.75 -1.50 3.75 1.85 0 1.95 1.30 3.65 2.75 3.65 1.75 0 2.75 -1.80 2.75 -4.80 0 -2.30 -0.20 -2.75 -1.60 -3.95 -1.40 -1.20 -1.90 -1.35 -4 -1.10 -3.25 0.40 -6.65 2.45 -7.35 4.45 -1.20 3.45 -0.35 8.65 1.85 11.05 2.70 3 8.35 3.65 16.15 1.90 5.35 -1.20 5.90 -1.40 10.70 -4.55 5.05 -3.30 10.45 -8.50 12.10 -11.75 2.10 -4.10 4.15 -12.40 4.15 -17 0 -4.70 -2.10 -13.60 -4.15 -17.50 -1.30 -2.60 -6.70 -9.50 -9.15 -11.85 -0.80 -0.75 -4.05 -2.80 -7.20 -4.60 -3.15 -1.80 -6.75 -3.85 -7.90 -4.55 l-2.20 -1.30 0.20 -5.35 0.15 -5.35 -10.25 0 -10.25 0 0 16.25 0 16.25 5.65 0.15 5.65 0.15 4.65 -4.30 c2.55 -2.35 4.95 -4.25 5.25 -4.25 0.45 0 0.55 2.75 0.25 11.65 -0.15 6.35 -0.40 11.70 -0.50 11.80 -0.50 0.55 -1.90 -0.80 -4.95 -4.90 l-3.40 -4.60 -6.30 0.15 -6.30 0.15 -0.15 2.90 -0.15 2.90 6 6.65 c3.35 3.70 6.05 6.95 6.05 7.25 0 0.40 -4.25 0.55 -14.60 0.45 -10.90 -0.10 -14.65 -0.30 -14.65 -0.75 0 -0.30 2.70 -3.55 6 -7.25 l6 -6.60 0 -2.80 0 -2.75 -6.50 -0.15 -6.50 -0.15 -3.70 4.80 c-2 2.60 -4 4.75 -4.35 4.75 -0.60 0 -0.70 -2.15 -0.70 -12 0 -6.60 0.15 -12 0.40 -12 0.20 0 2.55 2.05 5.25 4.50 l4.85 4.50 5.45 0 5.40 0 0.30 -7.85 c0.20 -4.35 0.35 -11.80 0.35 -16.50 l0 -8.65 -5.65 0 c-3.15 0 -7.75 -0.15 -10.25 -0.30 l-4.60 -0.35 0 5.50 c0 4.60 -0.15 5.60 -0.85 6.30 -0.50 0.40 -3.95 2.40 -7.65 4.40 -7.35 4 -10.40 6.50 -14.70 12.15 -3.70 4.80 -4.50 6.60 -6.30 13.30 -1.95 7.50 -1.95 11 0 18.70 1.80 6.90 3.15 9.50 7.10 13.40 3 2.95 10.50 8.25 13.15 9.30 2.50 0.95 10.60 2.60 12.95 2.60 6.70 0 10.45 -3.85 10.40 -10.65 0 -2.90 -0.20 -3.65 -1.20 -4.70 -2.75 -3 -8.10 -4.05 -10.60 -2.10 -1.15 0.90 -1.30 1.35 -1.30 4.20 0 2.85 0.15 3.30 1.20 4 2.15 1.45 4.30 -0.50 4.30 -3.90 0 -3.25 2.30 -3.60 3.70 -0.60 1.05 2.20 1 3.35 -0.25 4.95 -4.45 5.65 -13 2.20 -12.95 -5.30 0.05 -2.80 0.85 -4.15 3.45 -5.95 3.95 -2.65 8.55 -2.45 13.85 0.55 3.60 2.10 5.35 4.80 5.60 8.70 0.15 2.45 0 3.55 -0.80 5.10 -1.20 2.40 -4.50 5.50 -7.85 7.50 -2.20 1.25 -3 1.45 -7.25 1.50 -2.60 0.10 -6.05 -0.05 -7.65 -0.25z"/>
 </g>
 <g fill="#ffffff">
  <path d="M0 65 l0 -65 76.50 0 76.50 0 0 65 0 65 -76.50 0 -76.50 0 0 -65z m64.25 62.30 c3.35 -2 6.65 -5.10 7.85 -7.50 0.80 -1.55 0.95 -2.65 0.80 -5.10 -0.25 -3.90 -2 -6.60 -5.60 -8.70 -5.30 -3 -9.90 -3.20 -13.85 -0.55 -2.60 1.80 -3.40 3.15 -3.45 5.95 -0.05 7.50 8.50 10.95 12.95 5.30 1.25 -1.60 1.30 -2.75 0.25 -4.95 -1.40 -3 -3.70 -2.65 -3.70 0.60 0 3.40 -2.15 5.35 -4.30 3.90 -1.05 -0.70 -1.20 -1.15 -1.20 -4 0 -2.85 0.15 -3.30 1.30 -4.20 2.50 -1.95 7.85 -0.90 10.60 2.10 1 1.05 1.20 1.80 1.20 4.70 0 3.60 -1 6.50 -2.95 8.25 -1.40 1.25 -4.95 2.40 -7.45 2.40 -2.35 0 -10.45 -1.65 -12.95 -2.60 -2.65 -1.05 -10.15 -6.35 -13.15 -9.30 -3.95 -3.90 -5.30 -6.50 -7.10 -13.40 -1.95 -7.70 -1.95 -11.20 0 -18.70 1.80 -6.70 2.60 -8.50 6.30 -13.30 4.30 -5.65 7.35 -8.15 14.70 -12.15 3.70 -2 7.15 -4 7.65 -4.40 0.70 -0.70 0.85 -1.70 0.85 -6.30 l0 -5.50 4.60 0.35 c2.50 0.15 7.10 0.30 10.25 0.30 l5.65 0 0 8.65 c0 4.70 -0.15 12.15 -0.35 16.50 l-0.30 7.85 -5.40 0 -5.45 0 -4.85 -4.50 c-2.70 -2.45 -5.05 -4.50 -5.25 -4.50 -0.25 0 -0.40 5.40 -0.40 12 0 9.85 0.10 12 0.70 12 0.35 0 2.35 -2.15 4.35 -4.75 l3.70 -4.80 6.50 0.15 6.50 0.15 0 2.75 0 2.80 -6 6.60 c-3.30 3.70 -6 6.95 -6 7.25 0 0.45 3.75 0.65 14.65 0.75 10.35 0.10 14.60 -0.05 14.60 -0.45 0 -0.30 -2.70 -3.55 -6.05 -7.25 l-6 -6.65 0.15 -2.90 0.15 -2.90 6.30 -0.15 6.30 -0.15 3.40 4.60 c3.05 4.10 4.45 5.45 4.95 4.90 0.10 -0.10 0.35 -5.45 0.50 -11.80 0.30 -8.90 0.20 -11.65 -0.25 -11.65 -0.30 0 -2.70 1.90 -5.25 4.25 l-4.65 4.30 -5.65 -0.15 -5.65 -0.15 0 -16.25 0 -16.25 10.25 0 10.25 0 -0.15 5.35 -0.20 5.35 2.20 1.30 c1.15 0.70 4.75 2.75 7.90 4.55 3.15 1.80 6.40 3.85 7.20 4.60 2.45 2.35 7.85 9.25 9.15 11.85 2.05 3.90 4.15 12.80 4.15 17.50 0 4.60 -2.05 12.90 -4.15 17 -1.65 3.25 -7.05 8.45 -12.10 11.75 -4.80 3.15 -5.35 3.35 -10.70 4.55 -7.80 1.75 -13.45 1.10 -16.15 -1.90 -2.20 -2.40 -3.05 -7.60 -1.85 -11.05 0.70 -2 4.10 -4.05 7.35 -4.45 2.10 -0.25 2.60 -0.10 4 1.10 1.40 1.20 1.60 1.65 1.60 3.95 0 1.50 -0.30 3.05 -0.80 3.70 -1.60 2.30 -4.70 0.65 -4.70 -2.55 0 -3.35 -2.35 -4.55 -3.75 -1.85 -1.75 3.35 0 7 3.80 8 5.20 1.40 10.25 -3.75 9.20 -9.30 -0.75 -4.15 -6.95 -7.35 -12.05 -6.25 -3.35 0.75 -7.70 3.55 -9.40 6 -2 2.85 -2.30 6.70 -0.75 9.75 1.45 2.95 5 6.30 8.45 8.05 2.60 1.30 2.90 1.35 9.75 1.15 l7.05 -0.15 5.40 -2.60 c10.15 -4.95 15.45 -9.25 20.15 -16.30 3.15 -4.75 4.45 -8.55 5.15 -15.25 0.55 -5.35 0.50 -5.95 -0.55 -10.25 -1.70 -7.10 -6.55 -16.25 -11.30 -21.35 -2.80 -3.05 -10.05 -8.45 -13.95 -10.40 -1.15 -0.60 -2.80 -1.65 -3.65 -2.40 -1.55 -1.30 -1.60 -1.35 -1.45 -5.40 l0.15 -4.05 5.30 -0.15 5.30 -0.15 1.30 3.50 c2.45 6.70 6.30 11.20 11.95 14.10 3.20 1.60 7.75 2.95 10.15 2.95 1.20 0 2.50 0.95 6.85 5.05 2.95 2.75 5.60 4.90 5.90 4.70 0.75 -0.45 0.70 -20.25 -0.10 -20.25 -0.30 0 -1.85 1.20 -3.40 2.70 -3.20 3.05 -5.25 3.70 -10.50 3.15 -6.20 -0.65 -12.65 -5.20 -15.55 -10.95 -2.60 -5.20 -3 -5 8.45 -4.80 l9.85 0.15 5.20 3.35 c2.90 1.90 5.50 3.40 5.90 3.40 0.50 0 0.65 -2.20 0.65 -11 0 -7.75 -0.15 -11 -0.55 -11 -0.30 0 -3.75 2.35 -7.60 5.25 l-7 5.25 -8.05 0 c-4.45 0 -8.35 -0.20 -8.75 -0.45 -1 -0.65 -0.10 -5.40 1.65 -9.20 3.70 -7.75 12.20 -12.40 20.50 -11.15 1.85 0.30 2.95 0.90 5.40 3.10 1.70 1.50 3.30 2.65 3.60 2.55 0.85 -0.30 1.05 -18.85 0.20 -18.85 -0.35 0 -2.70 1.90 -5.25 4.20 l-4.60 4.15 -3.65 0.30 c-10.90 0.80 -20 8.95 -21.95 19.60 -0.30 1.65 -0.65 3.50 -0.75 4.10 -0.20 1.10 -0.40 1.15 -5.40 1.15 l-5.15 0 0.25 -7.35 0.25 -7.40 3.80 -4.15 c2.10 -2.25 3.80 -4.40 3.80 -4.75 0 -0.45 -2.65 -0.65 -10.35 -0.75 -5.75 -0.05 -10.40 0.05 -10.40 0.30 0 0.20 1.80 2.15 4 4.35 l4 4 0 7.85 0 7.90 -10.25 0 -10.25 0 0 -6.55 0 -6.55 5.05 -5.45 c2.80 -3 5 -5.55 4.90 -5.65 -0.10 -0.10 -5.70 -0.25 -12.40 -0.35 -8.30 -0.15 -12.25 -0.05 -12.40 0.35 -0.10 0.25 1.95 2.90 4.60 5.80 l4.75 5.35 0 6.50 0 6.55 -10.25 0 -10.25 0 0 -7.95 0 -7.90 4.10 -4.05 c2.25 -2.20 3.95 -4.20 3.70 -4.45 -0.60 -0.65 -19.80 -0.85 -20.40 -0.25 -0.40 0.40 0.80 2.05 3.85 5.45 l4.35 4.90 -0.35 6.75 c-0.20 3.70 -0.45 6.95 -0.60 7.15 -0.25 0.40 -5.70 0.40 -8.60 -0.05 -1.40 -0.20 -1.55 -0.40 -1.55 -1.95 0 -2.45 -1.35 -7.40 -2.80 -10.20 -3.30 -6.60 -11.25 -12.30 -17.75 -12.75 -5.05 -0.40 -5.30 -0.50 -10 -4.95 -2.45 -2.35 -4.80 -4.25 -5.20 -4.25 -0.65 0 -0.75 1.45 -0.75 9.50 0 10.90 0 10.90 3.90 7.30 3.30 -3.05 4.25 -3.40 8.55 -3.40 6.45 0.05 11.70 2.65 15.70 7.85 2.05 2.75 3.85 7.75 3.85 10.80 l0 1.95 -8.70 0 -8.65 0 -6.90 -5.25 c-3.75 -2.90 -7.05 -5.25 -7.30 -5.25 -0.25 0 -0.45 4.95 -0.45 11 0 7.85 0.15 11 0.55 11 0.30 0 2.90 -1.45 5.75 -3.25 l5.20 -3.25 10 0 c7.65 0 10 0.15 10 0.65 0 1.55 -2.70 6.15 -5.10 8.65 -3.70 3.90 -7.55 5.80 -12.50 6.10 -5.80 0.35 -7.10 -0.05 -10.50 -3.25 -1.60 -1.55 -3.05 -2.65 -3.25 -2.50 -0.60 0.60 -0.75 19.70 -0.20 20.10 0.30 0.15 2.95 -1.95 5.95 -4.70 4.95 -4.65 5.50 -5.05 7.35 -5.05 5.20 0 11.45 -2.80 15.70 -6.95 2.70 -2.70 4.75 -6.10 7 -11.70 l0.55 -1.35 5.25 0 5.25 0 0 4.40 c0 5.10 0.10 4.95 -5.25 7.85 -5.50 3.05 -9.70 5.95 -12.90 9.10 -5.05 4.85 -10.55 14.30 -12.35 21.05 -1 3.60 -1.10 5.05 -0.90 10.50 0.30 7.45 1.15 10.25 4.70 16 4.50 7.20 10.40 12.10 20.45 16.95 5.35 2.55 8.15 3.10 15.25 2.95 4.25 -0.05 5.05 -0.25 7.25 -1.50z"/>
 </g>
</svg>