<?xml version="1.0" encoding="utf-8"?>
<!DOCTYPE svg PUBLIC "-//W3C//DTD SVG 1.0//EN" "http://www.w3.org/TR/2001/REC-SVG-20010904/DTD/svg10.dtd">
<svg version="1.0" xmlns="http://www.w3.org/2000/svg" width="163px" height="142px" viewBox="0 0 163 142" preserveAspectRatio="xMidYMid meet">
 <g fill="#000000">
  <path d="M78.80 140.50 c-4.25 -1.30 -6.65 -7 -4.55 -10.95 0.85 -1.70 3.50 -4.05 4.55 -4.05 0.55 0 0.70 -0.80 0.70 -3.50 l0 -3.50 -3.65 0 c-4.20 0 -5.35 0.60 -6.85 3.55 -0.55 1.05 -1.35 1.95 -1.75 1.95 -0.65 0 -0.75 -1.20 -0.75 -7.40 0 -4.10 0.15 -7.60 0.35 -7.75 0.40 -0.45 2.15 1.10 2.15 1.85 0 0.35 0.65 1.35 1.45 2.30 1.30 1.60 1.60 1.70 5.05 1.90 2.70 0.15 3.75 0.05 4.05 -0.45 0.55 -0.90 0.60 -20.30 0 -20.65 -0.20 -0.15 -9.60 -0.45 -20.80 -0.60 -17.25 -0.30 -20.40 -0.25 -20.80 0.35 -0.25 0.40 -0.45 5.30 -0.45 10.95 0 11.50 0.30 12.80 3.50 14.75 2.05 1.25 5 4 5 4.65 0 0.25 -0.30 0.55 -0.60 0.65 -1.50 0.45 -18.40 -0.35 -18.90 -0.85 -0.90 -0.90 0 -2.15 2.60 -3.55 1.60 -0.90 2.90 -2.05 3.70 -3.40 1.15 -2.05 1.20 -2.35 1.20 -12.90 l0 -10.85 -2.10 0 c-3.45 0 -8.35 -1.40 -12.90 -3.60 -7.60 -3.75 -13.80 -11.10 -16.80 -19.90 -0.75 -2.20 -0.95 -4.20 -0.95 -9.75 0 -6.35 0.15 -7.35 1.35 -10.65 1.90 -5.20 4.15 -8.80 7.95 -12.60 5.55 -5.65 13 -9.20 20.70 -9.85 l3.75 -0.30 0 -7.55 0 -7.55 -1.50 -1.85 c-0.85 -1 -2.75 -2.55 -4.25 -3.40 -2.75 -1.55 -4.25 -3.15 -4.25 -4.40 0 -0.55 2.05 -0.65 11.70 -0.50 6.45 0.05 11.90 0.30 12.10 0.50 0.80 0.85 -0.80 2.65 -3.80 4.35 -1.70 1 -3.85 2.65 -4.70 3.70 l-1.55 1.95 -0.20 7.35 -0.15 7.40 6.90 0.30 c9.30 0.45 24.70 0.45 24.70 -0.05 0 -0.20 -0.25 -1.15 -0.50 -2.10 -1.20 -4 1.80 -8.55 6.10 -9.25 1.55 -0.30 2.50 -0.05 4.60 0.95 l2.70 1.30 1.70 -0.95 c2.75 -1.55 4.60 -1.75 7.10 -0.60 3.35 1.45 4.40 3.40 4.20 7.80 l-0.15 3.50 18.50 0.25 c10.20 0.15 18.80 0.50 19.15 0.70 0.55 0.30 0.60 3.30 0.30 15 l-0.35 14.65 4.90 0.30 c3.30 0.25 5.15 0.15 5.60 -0.20 0.45 -0.40 0.65 -2.05 0.65 -5.75 0 -5 -0.05 -5.20 -1.30 -6 -3.05 -2 -3.60 -6.15 -1.15 -8.90 2.50 -2.90 6.25 -2.90 8.95 -0.05 2.35 2.50 1.60 7.20 -1.35 8.80 -1.55 0.80 -1.70 1.75 -1.55 7.45 l0.15 4.75 3.60 0.15 c4.35 0.15 4.60 0 7.20 -6 1.35 -3.10 2.05 -4.15 2.75 -4.15 0.85 0 0.95 0.35 0.80 2.75 -0.05 1.50 -0.30 6.80 -0.50 11.70 -0.40 10.10 -0.85 11.20 -2.65 6.30 -0.60 -1.70 -1.75 -3.95 -2.55 -5.05 l-1.40 -1.95 -3.75 0 -3.75 0 0 5.75 c0 5.50 0.05 5.75 1.20 6.50 4.20 2.75 3.10 9.45 -1.70 10.75 -3.90 1.05 -7.50 -1.80 -7.50 -5.90 0 -2 0.25 -2.50 2.10 -4.25 l2.15 -2.05 0.15 -5.15 c0.25 -6.10 0.50 -5.90 -6.15 -5.90 l-4.50 0 -0.30 10 c-0.20 5.50 -0.35 12.80 -0.40 16.20 l-0.05 6.15 -24.60 -0.15 -24.65 -0.20 -0.25 10 c-0.15 5.50 -0.20 10.30 -0.10 10.65 0.15 0.40 1.40 0.60 3.90 0.60 4.25 0 5.75 -0.90 6.80 -4.25 0.50 -1.45 0.95 -2 1.65 -2 1.10 0 1.05 -0.50 0.85 11 -0.10 4.75 -0.25 5.75 -0.85 5.75 -0.75 0 -0.95 -0.35 -2.25 -3.90 -0.85 -2.20 -2.75 -3.10 -6.65 -3.10 -3.70 0 -3.85 0.15 -3.85 4 0 2.30 0.10 2.50 2 3.55 2.70 1.55 4.10 3.85 4.15 6.90 0.10 5.45 -4.95 9.15 -10.35 7.55z m5.35 -4.20 c1.85 -1.70 2.15 -3.45 1 -5.40 -2.35 -4.05 -8.15 -2.50 -8.15 2.15 0 1.45 0.35 2.15 1.55 3.15 1.90 1.65 3.90 1.65 5.60 0.10z m46.05 -75.20 c0.25 -16.05 0.35 -29.20 0.25 -29.30 -0.85 -0.80 -45.20 -1.25 -45.90 -0.50 -0.25 0.25 -0.50 13.50 -0.60 29.45 l-0.20 29 7.50 0.25 c4.15 0.15 14.50 0.30 23 0.25 l15.50 0 0.45 -29.15z m-50.55 28.55 c0.75 -1.25 1.30 -57.90 0.60 -58.60 -0.50 -0.45 -41.05 -0.95 -41.50 -0.50 -0.10 0.15 -0.35 13.45 -0.55 29.60 l-0.35 29.30 8.20 0.20 c19 0.35 33.40 0.35 33.60 0z m-45.50 -1 c0.15 -0.50 0.35 -13.85 0.45 -29.65 l0.15 -28.75 -1.90 -0.15 c-3.05 -0.25 -9.70 1.70 -13.50 3.95 -9.15 5.45 -14.85 15.20 -14.85 25.50 0 5.25 0.70 8.45 3 13.20 3.25 6.75 9.15 12.20 15.90 14.75 5.50 2.05 10.35 2.60 10.75 1.15z m113.25 -6.95 c1.25 -0.85 1.55 -3.55 0.50 -4.60 -0.85 -0.85 -3.20 -0.75 -4.15 0.20 -1.20 1.25 -0.80 3.80 0.75 4.55 1.60 0.80 1.55 0.80 2.90 -0.15z m0.40 -38.10 c0.30 -0.20 0.80 -0.85 1.15 -1.50 1.25 -2.40 -1.90 -4.90 -4.20 -3.40 -1.45 0.95 -1.65 3 -0.40 4.40 0.80 0.90 2.45 1.15 3.45 0.50z m-56.40 -16.85 c1.90 -1.60 2.35 -3.35 1.35 -5.45 -1.45 -3.05 -4.95 -3.70 -7.30 -1.35 -4.20 4.20 1.40 10.60 5.95 6.80z m-12.70 0.05 c1.20 -0.50 1.85 -1.20 2.25 -2.40 1.60 -4.90 -3.90 -8.55 -7.50 -4.95 -2.30 2.30 -1.65 6.05 1.30 7.35 1.90 0.85 1.95 0.85 3.95 0z"/>
  <path d="M92.55 87.45 c-0.90 -0.20 -2.35 -1 -3.15 -1.80 -3.75 -3.80 -2 -10.20 3.25 -11.75 1.05 -0.30 2.10 -0.95 2.35 -1.35 0.20 -0.45 1.90 -5.25 3.75 -10.60 l3.30 -9.80 -1.30 -1.95 c-1.15 -1.65 -1.30 -2.35 -1.10 -4.65 0.15 -2.35 0.45 -2.95 2 -4.35 2.40 -2.20 4.60 -2.60 7.55 -1.25 1.90 0.80 2.55 1.45 3.35 3.35 1.25 2.75 1 5 -0.80 7.15 -0.70 0.80 -1.25 1.65 -1.25 1.95 0 0.30 1.45 5.15 3.25 10.85 1.80 5.65 3.25 10.40 3.25 10.50 0 0.15 0.35 0.25 0.80 0.25 1.60 0 4.20 1.65 5.20 3.25 0.60 0.95 1 2.50 1 3.80 0 7.10 -8.80 9.40 -12.50 3.30 -1.65 -2.65 -1.25 -5.60 1.05 -8.10 0.90 -1.05 0.85 -1.25 -2.45 -11.75 -1.85 -5.85 -3.55 -10.75 -3.85 -10.85 -0.25 -0.05 -2.15 4.60 -4.15 10.45 l-3.60 10.60 1.25 1.80 c2.05 2.95 1.55 7.20 -1.15 9.65 -1.30 1.20 -3.90 1.75 -6.05 1.30z m26.85 -3.80 c1.75 -1.50 1.90 -3.40 0.40 -4.85 -2.30 -2.35 -5.80 -1.05 -5.80 2.20 0 2.95 3.20 4.50 5.40 2.65z m-22.65 -0.65 c1.90 -2.10 0.45 -5.50 -2.40 -5.50 -0.85 0 -1.95 0.35 -2.45 0.85 -1.10 1 -1.15 3.50 -0.05 4.75 1.10 1.20 3.75 1.15 4.90 -0.10z m12.40 -35.10 c0.85 -1.15 0.90 -1.55 0.40 -2.85 -0.35 -0.80 -1.30 -1.75 -2.10 -2.10 -1.30 -0.50 -1.70 -0.45 -2.85 0.40 -1.70 1.25 -2.05 3.80 -0.80 5.20 1.30 1.45 4.05 1.10 5.35 -0.65z"/>
  <path d="M67.60 87.15 c-1.75 -0.35 -4.50 -3.40 -4.90 -5.40 -0.40 -2.30 0 -3.85 1.60 -5.70 l1.25 -1.50 -3.10 -9.90 c-3.45 -11.10 -3.90 -12.15 -4.45 -11.10 -0.20 0.40 -1.90 5.15 -3.75 10.55 l-3.35 9.85 1.35 2.75 c1.70 3.45 1.45 5.55 -0.90 8.15 -2.85 3.05 -7.60 2.75 -10.30 -0.65 -0.80 -1 -1.05 -2.05 -1.05 -4.10 0 -2.50 0.15 -2.90 1.95 -4.65 1.20 -1.25 2.40 -1.95 3.20 -1.95 0.65 0 1.45 -0.30 1.70 -0.60 0.25 -0.35 2.10 -5.35 4.05 -11.05 l3.60 -10.40 -1.30 -1.95 c-1.15 -1.70 -1.30 -2.40 -1.10 -4.85 0.20 -2.35 0.50 -3.05 1.80 -4.20 2.75 -2.45 6.25 -2.50 9.05 -0.20 2.85 2.45 3.25 6.80 0.80 9.65 l-1.20 1.45 3.45 10.70 c1.85 5.85 3.70 10.85 4.10 11 0.35 0.20 1.50 0.70 2.55 1.15 2.70 1.15 3.95 3.40 3.70 6.70 -0.35 4.60 -3.95 7.15 -8.75 6.25z m4.80 -4.50 c0.85 -1.20 0.75 -3.65 -0.25 -4.75 -1.10 -1.20 -3.85 -1.20 -5.15 0.10 -1.35 1.35 -1.25 3.30 0.30 4.85 1 1 1.55 1.20 2.85 0.95 0.90 -0.15 1.90 -0.70 2.25 -1.15z m-23.20 -0.25 c1.80 -2.50 0.30 -5.55 -2.70 -5.55 -3.10 0 -4.65 3.50 -2.50 5.65 1.40 1.40 4.20 1.35 5.20 -0.10z m11.80 -34.40 c1.20 -1.20 1.30 -3.85 0.15 -5.10 -1.20 -1.35 -4.35 -1.20 -5.35 0.20 -2.50 3.55 2.15 7.95 5.20 4.90z"/>
 </g>
 <g fill="#ffffff">
  <path d="M0 71 l0 -71 81.50 0 81.50 0 0 24.15 0 24.20 -1.05 -0.05 c-0.85 -0.05 -1.40 0.75 -2.90 4.10 -2.65 6 -2.85 6.15 -7.20 6 l-3.60 -0.15 -0.15 -4.75 c-0.15 -5.70 0 -6.65 1.55 -7.45 2.95 -1.60 3.70 -6.30 1.35 -8.80 -2.70 -2.85 -6.45 -2.85 -8.95 0.05 -2.45 2.75 -1.90 6.90 1.15 8.90 1.25 0.80 1.30 1 1.30 6 0 3.70 -0.20 5.35 -0.65 5.75 -0.45 0.35 -2.30 0.45 -5.60 0.20 l-4.90 -0.30 0.35 -14.65 c0.30 -11.70 0.25 -14.70 -0.30 -15 -0.35 -0.20 -8.95 -0.55 -19.15 -0.70 l-18.50 -0.25 0.15 -3.50 c0.20 -4.40 -0.85 -6.35 -4.20 -7.80 -2.50 -1.15 -4.35 -0.95 -7.10 0.60 l-1.70 0.95 -2.70 -1.30 c-2.10 -1 -3.05 -1.25 -4.60 -0.95 -4.30 0.70 -7.30 5.25 -6.10 9.25 0.25 0.95 0.50 1.90 0.50 2.10 0 0.50 -15.40 0.50 -24.70 0.05 l-6.90 -0.30 0.15 -7.40 0.20 -7.35 1.55 -1.95 c0.85 -1.05 3 -2.70 4.70 -3.70 3 -1.70 4.60 -3.50 3.80 -4.35 -0.20 -0.20 -5.65 -0.45 -12.10 -0.50 -9.65 -0.15 -11.70 -0.05 -11.70 0.50 0 1.25 1.50 2.85 4.25 4.40 1.50 0.85 3.40 2.40 4.25 3.40 l1.50 1.85 0 7.55 0 7.55 -3.75 0.30 c-7.70 0.65 -15.15 4.20 -20.70 9.85 -3.80 3.80 -6.05 7.40 -7.95 12.60 -1.20 3.30 -1.35 4.30 -1.35 10.65 0 5.55 0.20 7.55 0.95 9.75 3 8.80 9.20 16.15 16.80 19.90 4.55 2.20 9.45 3.60 12.90 3.60 l2.10 0 0 10.85 c0 10.55 -0.05 10.85 -1.20 12.90 -0.80 1.35 -2.10 2.50 -3.70 3.40 -2.60 1.40 -3.50 2.65 -2.60 3.55 0.50 0.50 17.40 1.30 18.90 0.85 0.30 -0.10 0.60 -0.40 0.60 -0.65 0 -0.65 -2.95 -3.40 -5 -4.65 -3.20 -1.95 -3.50 -3.25 -3.50 -14.75 0 -5.65 0.20 -10.55 0.45 -10.95 0.40 -0.60 3.55 -0.65 20.80 -0.35 11.20 0.15 20.60 0.45 20.80 0.60 0.60 0.35 0.55 19.75 0 20.65 -0.30 0.50 -1.35 0.60 -4.05 0.45 -3.45 -0.20 -3.75 -0.30 -5.05 -1.90 -0.80 -0.95 -1.45 -1.95 -1.45 -2.30 0 -0.75 -1.75 -2.30 -2.15 -1.85 -0.20 0.15 -0.35 3.65 -0.35 7.75 0 6.20 0.10 7.40 0.75 7.40 0.40 0 1.20 -0.90 1.75 -1.95 1.50 -2.95 2.65 -3.55 6.85 -3.55 l3.65 0 0 3.50 c0 2.70 -0.15 3.50 -0.70 3.50 -1.05 0 -3.70 2.35 -4.55 4.05 -0.95 1.80 -0.95 5.10 0 6.90 3.80 7.45 15.05 4.80 14.90 -3.50 -0.05 -3.05 -1.45 -5.35 -4.15 -6.90 -1.90 -1.05 -2 -1.25 -2 -3.55 0 -3.85 0.15 -4 3.85 -4 3.90 0 5.80 0.90 6.65 3.10 1.30 3.55 1.50 3.90 2.25 3.90 0.60 0 0.75 -1 0.85 -5.75 0.20 -11.50 0.25 -11 -0.85 -11 -0.70 0 -1.15 0.55 -1.65 2 -1.05 3.35 -2.55 4.25 -6.80 4.25 -2.50 0 -3.75 -0.20 -3.90 -0.60 -0.10 -0.35 -0.05 -5.15 0.10 -10.65 l0.25 -10 24.60 0.20 24.65 0.15 0.05 -6.15 c0.05 -3.40 0.20 -10.70 0.40 -16.20 l0.30 -10 4.50 0 c6.65 0 6.40 -0.20 6.15 5.90 l-0.15 5.15 -2.15 2.05 c-1.85 1.75 -2.10 2.25 -2.10 4.25 0 7.40 10.40 8.40 11.80 1.15 0.35 -2 -0.85 -4.85 -2.60 -6 -1.15 -0.75 -1.20 -1 -1.20 -6.50 l0 -5.75 3.75 0 3.75 0 1.40 1.95 c0.80 1.10 1.95 3.35 2.55 5.05 1.80 4.95 2.25 3.80 2.55 -6.40 0.15 -4.95 0.40 -9.20 0.65 -9.40 0.20 -0.20 0.35 19.70 0.35 44.20 l0 44.60 -81.50 0 -81.50 0 0 -71z"/>
  <path d="M78.55 136.20 c-1.20 -1 -1.55 -1.70 -1.55 -3.15 0 -4.65 5.80 -6.20 8.15 -2.15 1.15 1.95 0.85 3.70 -1 5.40 -1.70 1.55 -3.70 1.55 -5.60 -0.10z"/>
  <path d="M91.25 90 l-7.50 -0.25 0.20 -29 c0.10 -15.95 0.35 -29.20 0.60 -29.45 0.70 -0.75 45.05 -0.30 45.90 0.50 0.10 0.10 0 13.25 -0.25 29.30 l-0.45 29.15 -15.50 0 c-8.50 0.05 -18.85 -0.10 -23 -0.25z m7.35 -3.85 c2.70 -2.45 3.20 -6.70 1.15 -9.65 l-1.25 -1.80 3.60 -10.60 c2 -5.85 3.90 -10.50 4.15 -10.45 0.30 0.10 2 5 3.85 10.85 3.30 10.50 3.35 10.70 2.45 11.75 -2.30 2.50 -2.70 5.45 -1.05 8.10 3.70 6.10 12.50 3.80 12.50 -3.30 0 -1.30 -0.40 -2.85 -1 -3.80 -1 -1.60 -3.60 -3.25 -5.20 -3.25 -0.45 0 -0.80 -0.10 -0.80 -0.25 0 -0.10 -1.45 -4.85 -3.25 -10.50 -1.80 -5.70 -3.25 -10.55 -3.25 -10.85 0 -0.30 0.55 -1.15 1.25 -1.95 1.80 -2.15 2.05 -4.40 0.80 -7.15 -0.80 -1.90 -1.45 -2.55 -3.35 -3.35 -2.95 -1.35 -5.15 -0.95 -7.55 1.25 -1.55 1.40 -1.85 2 -2 4.35 -0.20 2.30 -0.05 3 1.10 4.65 l1.30 1.95 -3.30 9.80 c-1.85 5.35 -3.55 10.15 -3.75 10.60 -0.25 0.40 -1.30 1.05 -2.35 1.35 -5.25 1.55 -7 7.95 -3.25 11.75 2.40 2.40 6.85 2.65 9.20 0.50z"/>
  <path d="M115 83.50 c-2.05 -2.05 -0.60 -6 2.25 -6 1.95 0 3.95 2.20 3.55 3.90 -0.70 2.85 -3.90 4 -5.80 2.10z"/>
  <path d="M91.85 83.10 c-1.10 -1.25 -1.05 -3.75 0.05 -4.75 2.10 -1.95 5.75 -0.40 5.75 2.40 0 2.85 -3.95 4.40 -5.80 2.35z"/>
  <path d="M103.80 48.55 c-1.25 -1.40 -0.90 -3.95 0.80 -5.20 1.15 -0.85 1.55 -0.90 2.85 -0.40 0.80 0.35 1.75 1.30 2.10 2.10 0.50 1.30 0.45 1.70 -0.40 2.85 -1.30 1.75 -4.05 2.10 -5.35 0.65z"/>
  <path d="M46.05 89.65 l-8.20 -0.20 0.35 -29.30 c0.20 -16.15 0.45 -29.45 0.55 -29.60 0.45 -0.45 41 0.05 41.50 0.50 0.70 0.70 0.15 57.35 -0.60 58.60 -0.20 0.35 -14.60 0.35 -33.60 0z m26.10 -2.85 c2.70 -1.15 4 -2.95 4.20 -5.90 0.25 -3.30 -1 -5.55 -3.70 -6.70 -1.05 -0.45 -2.20 -0.95 -2.55 -1.15 -0.40 -0.15 -2.25 -5.15 -4.10 -11 l-3.45 -10.70 1.20 -1.45 c2.45 -2.85 2.05 -7.20 -0.80 -9.65 -2.80 -2.30 -6.30 -2.25 -9.05 0.20 -1.30 1.15 -1.60 1.85 -1.80 4.20 -0.20 2.45 -0.05 3.15 1.10 4.85 l1.30 1.95 -3.60 10.40 c-1.95 5.70 -3.80 10.70 -4.05 11.05 -0.25 0.30 -1.05 0.60 -1.70 0.60 -0.80 0 -2 0.70 -3.20 1.95 -1.80 1.75 -1.95 2.15 -1.95 4.65 0 2.05 0.25 3.10 1.05 4.10 2.70 3.40 7.45 3.70 10.30 0.65 2.35 -2.60 2.60 -4.70 0.90 -8.15 l-1.35 -2.75 3.35 -9.85 c1.85 -5.40 3.55 -10.15 3.75 -10.55 0.55 -1.05 1 0 4.45 11.10 l3.10 9.90 -1.25 1.50 c-2.50 2.95 -2.30 6.40 0.45 9.15 2.25 2.30 4.65 2.80 7.40 1.60z"/>
  <path d="M67.30 82.85 c-2.45 -2.45 -1.05 -5.85 2.35 -5.85 2.05 0 3.35 1.30 3.35 3.30 0 2 -0.90 3.10 -2.85 3.50 -1.30 0.25 -1.85 0.05 -2.85 -0.95z"/>
  <path d="M44 82.50 c-2.15 -2.15 -0.60 -5.65 2.50 -5.65 3 0 4.50 3.05 2.70 5.55 -1 1.45 -3.80 1.50 -5.20 0.10z"/>
  <path d="M56.10 47.85 c-2.25 -2.40 -0.85 -5.85 2.35 -5.85 2.30 0 3.55 1.20 3.55 3.40 0 3.25 -3.70 4.80 -5.90 2.45z"/>
  <path d="M28.25 89 c-8.90 -1.80 -16.75 -7.95 -20.75 -16.25 -2.30 -4.75 -3 -7.95 -3 -13.20 0 -10.30 5.70 -20.05 14.85 -25.50 3.80 -2.25 10.45 -4.20 13.50 -3.95 l1.90 0.15 -0.15 28.75 c-0.10 15.80 -0.30 29.15 -0.45 29.65 -0.25 0.95 -2.30 1.05 -5.90 0.35z"/>
  <path d="M144.50 81.85 c-1.55 -0.75 -1.95 -3.30 -0.75 -4.55 0.95 -0.95 3.30 -1.05 4.15 -0.20 1.05 1.05 0.75 3.75 -0.50 4.60 -1.35 0.95 -1.30 0.95 -2.90 0.15z"/>
  <path d="M144.35 43.10 c-1.25 -1.40 -1.05 -3.45 0.40 -4.40 1.45 -0.95 3 -0.55 4.05 1.05 1.80 2.75 -2.25 5.75 -4.45 3.35z"/>
  <path d="M86.70 27.50 c-2.95 -1.20 -3.60 -5.20 -1.25 -7.55 2.35 -2.35 5.85 -1.70 7.30 1.35 1 2.10 0.55 3.85 -1.35 5.45 -1.50 1.30 -2.85 1.50 -4.70 0.75z"/>
  <path d="M74.75 26.80 c-2.95 -1.30 -3.60 -5.05 -1.30 -7.35 3.60 -3.60 9.10 0.05 7.50 4.95 -0.40 1.20 -1.05 1.90 -2.25 2.40 -2 0.85 -2.05 0.85 -3.95 0z"/>
 </g>
</svg>