<?xml version="1.0" encoding="utf-8"?>
<!DOCTYPE svg PUBLIC "-//W3C//DTD SVG 1.0//EN" "http://www.w3.org/TR/2001/REC-SVG-20010904/DTD/svg10.dtd">
<svg version="1.0" xmlns="http://www.w3.org/2000/svg" width="173px" height="131px" viewBox="0 0 173 131" preserveAspectRatio="xMidYMid meet">
 <g fill="#000000">
  <path d="M68.30 129.50 c-1.95 -0.60 -3.20 -1.85 -4.60 -4.60 l-1.20 -2.35 -2.80 1.45 c-3.90 2.10 -7.20 2.10 -9.25 0.05 -1.20 -1.20 -1.45 -1.90 -1.45 -3.90 0 -6.05 5.50 -8.85 10.90 -5.55 1.30 0.80 1.80 0.90 2.25 0.45 0.70 -0.70 1.40 -42.45 0.75 -43.25 -0.50 -0.60 -22.90 -1.10 -22.90 -0.50 0 0.25 2.15 5.35 4.80 11.30 5.50 12.35 4 10.85 12.30 12.65 4 0.85 4.85 1.30 3.75 2.10 -1.25 1 -20.95 9.15 -21.40 8.85 -0.90 -0.55 -0.40 -1.85 2.55 -6.20 1.65 -2.45 3 -4.65 3 -4.90 0 -0.60 -8.95 -20.75 -9.45 -21.25 -0.45 -0.45 -1.20 1.75 -2.80 8.15 -0.95 3.70 -3.85 12 -5.50 15.75 -2.70 6.10 -8.35 8.65 -13.65 6.25 -4.65 -2.10 -5.40 -8.70 -1.45 -13.20 1.25 -1.45 2.10 -1.95 3.70 -2.15 1.85 -0.25 2.30 -0.10 3.65 1.25 1.40 1.45 1.55 1.80 1.40 4.40 -0.10 2.05 -0.40 3 -1 3.40 -1.10 0.70 -2.60 -0.10 -2.80 -1.50 -0.40 -2.70 -0.65 -3.20 -1.65 -3.20 -0.70 0 -1.25 0.55 -1.75 1.80 -1.45 3.50 0.50 6.70 4 6.70 3.85 0 6.50 -2.80 8.50 -8.95 1.60 -4.75 5.30 -19.25 5.30 -20.55 0 -0.95 -0.35 -1 -7.45 -1 l-7.45 0 -0.60 1.55 c-1.55 3.75 -7.25 5.60 -11 3.55 -2.75 -1.50 -4 -3.75 -4 -7.10 0 -3.35 1.30 -5.65 4 -7.05 3.70 -2 8.80 -0.45 10.75 3.20 l1 1.85 7.80 0 7.85 0 0.30 -1.60 c2.15 -12.25 2.20 -22.45 0.05 -38.85 -1.50 -11.65 -2.90 -15.95 -6.45 -19.90 -1.70 -1.90 -2.35 -2.25 -3.85 -2.25 -2.50 0 -4.25 1.30 -5.20 3.85 -0.90 2.35 -0.75 3.65 0.85 5.85 1.15 1.65 2.50 2.15 3.90 1.40 1.75 -0.95 0.75 -2.95 -1.15 -2.20 -0.35 0.10 -1.05 -0.20 -1.60 -0.75 -1.30 -1.50 -0.25 -2.55 2.50 -2.55 2.30 0 4.45 1.30 5 3 0.45 1.45 -1 4.35 -2.70 5.20 -1.95 1.05 -5 1 -6.50 0 -0.65 -0.45 -1.80 -1.85 -2.60 -3.10 -2.60 -4.10 -1.70 -9.05 2.30 -12.50 1.50 -1.35 2.20 -1.60 4.30 -1.60 2.75 0 5.55 1.20 7.25 3.10 3.70 4.05 6.35 10.65 7.40 18.40 2.15 15.55 2.40 18.65 2.10 28.40 -0.20 8.45 -0.15 9.60 0.50 9.05 1.55 -1.25 8.70 -11.90 10.70 -15.95 4.75 -9.45 7.55 -21.05 6.85 -28.60 -0.30 -3.60 -2.35 -7.50 -4.60 -8.65 -3.65 -2 -8.90 0.25 -8.90 3.80 0 2.05 2.15 4.10 4.10 3.85 1.90 -0.20 1.95 -1.70 0.10 -2.80 -1.80 -1 -1.95 -1.85 -0.55 -2.60 3.60 -1.95 7.15 3.75 4.45 7.20 -0.85 1.05 -1.45 1.30 -3.25 1.30 -4.35 0 -7.70 -3 -7.70 -6.85 0 -5.25 3.30 -7.90 9.45 -7.55 4.15 0.20 6.10 1.50 8.30 5.45 1.50 2.65 1.50 2.80 1.50 10.20 -0.05 6.65 -0.20 8.10 -1.40 12.50 -0.80 2.75 -1.85 6.25 -2.40 7.75 -2.25 6.10 -8.55 16.65 -15.20 25.35 -1.35 1.75 -1.60 2.45 -1.15 2.75 0.35 0.20 10.55 0.40 22.70 0.40 l22.05 0 0.35 -3.05 c0.15 -1.70 0.30 -9.95 0.30 -18.25 l0 -15.20 -4.25 0 -4.20 0 -3.55 5 c-3.70 5.10 -4.35 5.85 -4.90 5.30 -0.50 -0.55 -0.05 -23.50 0.50 -24.20 0.75 -0.90 1.40 -0.20 5.25 5.25 l3.20 4.65 4 0 3.95 0 0 -5.40 0 -5.35 -4.50 -4.50 c-5 -4.95 -5.60 -6.50 -2.60 -6.45 0.85 0 6.10 0.05 11.60 0.10 8.65 0.10 10.05 0.20 10.35 0.90 0.20 0.55 -1.15 2.25 -4.50 5.60 l-4.75 4.85 -0.35 4.65 c-0.40 5.85 -0.25 6.10 4.30 6.10 l3.40 0 3.60 -4.85 c4.05 -5.45 4.40 -5.80 5.30 -5.05 0.50 0.40 0.65 2.85 0.60 10.10 -0.05 10.05 -0.35 14.05 -1.20 14.05 -0.25 0 -2.15 -2.40 -4.15 -5.35 l-3.65 -5.40 -4 0 c-2.75 0 -4.05 0.20 -4.20 0.60 -0.10 0.35 -0.30 8.55 -0.40 18.25 l-0.30 17.60 3.10 0.25 c6.30 0.55 42.35 0.85 42.35 0.35 0 -0.25 -2.30 -3.90 -5.15 -8.15 -8 -11.90 -11.20 -19.15 -13.55 -30.60 -1.05 -4.95 -1.05 -13.80 0 -17.25 0.80 -2.80 3.45 -6.15 5.75 -7.35 2.05 -1.05 7.10 -0.90 9.40 0.25 2.45 1.25 2.90 1.85 3.50 4.60 1.10 4.85 -1.60 8.40 -6.60 8.85 -3.20 0.25 -4.75 -0.80 -5.20 -3.50 -0.35 -2.25 0.75 -4.20 2.75 -4.95 3.20 -1.25 5.05 1.30 2.05 2.80 -1 0.55 -1.45 1.05 -1.25 1.55 0.15 0.45 0.30 0.90 0.30 1 0 0.10 0.65 0.20 1.45 0.20 1 0 1.85 -0.45 2.75 -1.55 2.60 -3.10 1.15 -5.90 -3.65 -7 -2.40 -0.55 -4.65 0.50 -6.45 3 -2.25 3.10 -2.80 5.80 -2.45 12.20 0.35 6.80 2.65 15.30 6.05 22.40 2 4.20 8.80 15.05 10.60 16.95 0.60 0.60 0.70 -0.75 0.70 -9.80 0 -9.85 0.70 -18.15 1.95 -23.20 0.25 -0.95 0.60 -3.10 0.80 -4.75 0.65 -6.20 3.90 -14.05 7.35 -17.70 3.35 -3.55 8.65 -4.60 11.70 -2.30 1.75 1.35 4.20 5.95 4.20 7.90 0 3.45 -3.25 7.95 -6.40 8.85 -2.65 0.70 -5.50 -0.65 -6.60 -3.15 -0.50 -1.05 -0.75 -2.40 -0.60 -2.95 0.35 -1.40 3 -2.90 5.15 -2.90 3.65 0 3.90 3.10 0.25 3.40 -1.85 0.15 -2.30 0.90 -1.20 2 1.85 1.85 5.90 -1.40 5.90 -4.70 0 -5.15 -4.90 -7.95 -8.75 -5 -1.85 1.40 -4.80 6.80 -5.95 10.80 -0.40 1.50 -1.10 5.25 -1.55 8.25 -0.40 3.05 -1.10 7.75 -1.50 10.50 -0.40 2.75 -0.75 7.95 -0.75 11.50 0 6.60 0.90 18.75 1.45 19.65 0.50 0.80 15.70 0.95 15.95 0.15 0.40 -1.15 2.70 -3.60 4.15 -4.30 2 -1.05 5.25 -0.95 7.40 0.30 2.05 1.15 2.75 2.05 3.75 4.95 0.60 1.70 0.55 2.30 -0.05 4.25 -2.35 7.05 -12.15 7.65 -14.95 0.90 l-0.70 -1.65 -7.50 0 c-4.80 0 -7.50 0.20 -7.50 0.50 0 0.30 0.80 4.20 1.80 8.65 3.15 14.20 5 18.70 8.45 20.85 4.40 2.70 8.90 -0.80 7.25 -5.70 -0.55 -1.70 -1.85 -2.65 -2.55 -1.95 -0.25 0.25 -0.60 1.30 -0.85 2.40 -0.30 1.55 -0.65 2.05 -1.50 2.15 -1.80 0.25 -2.60 -0.75 -2.60 -3.40 0 -3.55 1.75 -5.50 4.85 -5.50 1.95 0 2.50 0.25 3.95 1.75 4.75 5.05 2.75 13.05 -3.50 14.20 -1.35 0.25 -3.05 0.25 -3.80 0.05 -2.15 -0.60 -5.40 -3 -6.45 -4.70 -1.65 -2.70 -4.95 -12.50 -6.60 -19.40 -0.85 -3.65 -1.75 -6.95 -1.90 -7.30 -0.25 -0.40 -2.30 3.45 -5.25 9.65 -2.65 5.70 -5 10.60 -5.10 11 -0.15 0.35 1.10 2.75 2.75 5.35 3.10 4.80 3.65 6.40 2.30 6.40 -1 0 -20.30 -8.90 -21.20 -9.75 -0.90 -0.90 -0.85 -0.90 5.90 -2.20 2.85 -0.50 5.35 -1.15 5.55 -1.40 0.65 -0.70 10 -20.80 10 -21.50 0 -0.50 -2.35 -0.65 -11.40 -0.65 l-11.45 0 -0.30 11.35 c-0.50 16 -0.40 31.25 0.15 32.15 0.40 0.60 0.75 0.55 2.40 -0.40 3.60 -2 8.20 -1.10 9.90 2 0.90 1.60 0.85 5.95 -0.05 7.20 -0.40 0.60 -1.40 1.35 -2.25 1.70 -2 0.85 -6.15 0 -8.80 -1.80 -1 -0.70 -1.85 -1.20 -1.95 -1.10 -0.05 0.10 -0.60 1.25 -1.25 2.55 -1.60 3.40 -3.30 4.35 -7.90 4.35 -4.60 0 -6.30 -0.90 -7.40 -3.85 -1.05 -2.65 -0.60 -5.15 1.20 -7.20 2.80 -3.15 7.20 -2.20 8.95 1.95 0.65 1.60 0.65 1.80 -0.25 2.75 -1.30 1.25 -3 0.75 -3.40 -1.05 -0.15 -0.75 -0.40 -1.65 -0.50 -2 -0.30 -1.05 -1.85 -0.50 -2.65 1 -1.10 1.90 -0.30 3.90 1.95 5 3.40 1.70 6.95 -0.45 8.50 -5.05 0.60 -1.90 0.60 -2.35 -0.30 -4.70 -0.90 -2.45 -0.95 -3.85 -0.75 -23.55 0.15 -17.25 0.05 -21 -0.50 -21.35 -0.40 -0.25 -4.10 -0.45 -8.25 -0.45 l-7.55 0 -0.30 15.15 -0.25 15.10 2.20 2 c3.40 3.15 4.10 6.40 2.05 9.95 -2.85 5 -10.30 5.10 -13.40 0.20 -0.80 -1.30 -0.95 -2.25 -0.80 -4.60 0.15 -2.85 0.30 -3.10 2.65 -5.20 l2.45 -2.25 0.15 -15.15 0.20 -15.20 -8.25 0 -8.25 0 -0.30 20.40 c-0.30 18.75 -0.40 20.60 -1.40 23.80 -0.95 2.95 -1 3.65 -0.45 5.25 0.95 2.65 1.90 4 3.70 5.05 2.30 1.40 4.15 1.25 5.90 -0.45 1.70 -1.70 1.85 -3.45 0.50 -5.10 -0.75 -0.95 -1.05 -1.05 -1.70 -0.55 -0.40 0.35 -0.85 1.25 -1 2.05 -0.30 1.55 -1.65 2.30 -3 1.75 -1.10 -0.40 -1.40 -1.50 -0.80 -3.10 0.75 -1.95 1.80 -3 3.75 -3.60 1.35 -0.45 2 -0.40 3.45 0.30 1.90 0.90 3.75 3.75 3.75 5.80 -0.05 2.25 -1.80 5.20 -3.65 6.05 -1.85 0.90 -5.65 1.05 -8.05 0.35z m50.70 -7.40 c1.90 -1.55 0.20 -4.60 -2.55 -4.60 -1.85 0 -4.45 1.30 -4.45 2.20 0 1.25 3 3.20 5.05 3.25 0.45 0.05 1.35 -0.35 1.95 -0.85z m-61.05 -0.85 c2.65 -1.35 2.45 -3.05 -0.45 -4.25 -2.05 -0.85 -3.85 -0.25 -4.80 1.55 -0.70 1.40 -0.70 1.60 0.10 2.50 1 1.15 3.20 1.25 5.15 0.20z m30.25 -6.75 c1.85 -0.70 3.40 -3.40 3.05 -5.25 -0.35 -2.15 -2.85 -4.25 -5.05 -4.25 -2.30 0 -3.50 0.70 -4.45 2.50 -2.30 4.45 1.70 8.85 6.45 7z m79.85 -39.95 c3.20 -3.25 1 -8.55 -3.55 -8.55 -5.10 0 -7.05 6.80 -2.60 9.20 2.25 1.25 4.50 1 6.15 -0.65z m-156.25 -1.45 c2.70 -2.15 2.90 -5 0.50 -7.40 -2.15 -2.15 -4.50 -2.30 -6.70 -0.45 -3.65 3.05 -1.60 8.75 3.10 8.75 1.20 0 2.50 -0.40 3.10 -0.90z"/>
 </g>
 <g fill="#ffffff">
  <path d="M0 65.50 l0 -65.50 86.50 0 86.50 0 -0.05 35.40 c0 24.65 -0.15 34.95 -0.55 34.10 -1.35 -3.35 -2.15 -4.45 -3.90 -5.45 -2.20 -1.25 -5.40 -1.35 -7.45 -0.30 -1.45 0.70 -3.75 3.15 -4.15 4.30 -0.25 0.80 -15.45 0.65 -15.95 -0.15 -0.55 -0.90 -1.45 -13.05 -1.45 -19.65 0 -3.55 0.35 -8.75 0.75 -11.50 0.40 -2.75 1.10 -7.45 1.50 -10.50 0.45 -3 1.15 -6.75 1.55 -8.25 1.15 -4 4.10 -9.40 5.95 -10.80 3.85 -2.95 8.75 -0.15 8.75 5 0 3.30 -4.05 6.55 -5.90 4.70 -1.10 -1.10 -0.65 -1.85 1.20 -2 3.65 -0.30 3.40 -3.40 -0.25 -3.40 -2.15 0 -4.80 1.50 -5.15 2.90 -0.15 0.55 0.10 1.90 0.60 2.95 1.10 2.50 3.95 3.85 6.60 3.15 3.15 -0.90 6.40 -5.40 6.40 -8.85 0 -1.95 -2.45 -6.55 -4.20 -7.90 -3.05 -2.30 -8.35 -1.25 -11.70 2.30 -3.45 3.65 -6.70 11.50 -7.35 17.70 -0.20 1.65 -0.55 3.80 -0.80 4.75 -1.25 5.05 -1.95 13.35 -1.95 23.20 0 9.05 -0.10 10.40 -0.70 9.80 -1.80 -1.90 -8.60 -12.75 -10.60 -16.95 -3.40 -7.10 -5.70 -15.60 -6.05 -22.40 -0.35 -6.40 0.20 -9.10 2.45 -12.20 1.80 -2.50 4.05 -3.55 6.45 -3 4.80 1.10 6.25 3.90 3.65 7 -1.45 1.70 -3.85 2.15 -4.40 0.75 -0.45 -1.10 -0.45 -1.10 1.20 -1.95 2.95 -1.55 1.10 -4 -2.10 -2.80 -2 0.75 -3.10 2.70 -2.75 4.95 0.45 2.70 2 3.75 5.20 3.50 5 -0.45 7.70 -4 6.60 -8.85 -0.60 -2.75 -1.05 -3.35 -3.50 -4.60 -2.30 -1.15 -7.35 -1.30 -9.40 -0.25 -2.30 1.20 -4.95 4.55 -5.75 7.35 -1.05 3.45 -1.05 12.30 0 17.25 2.35 11.45 5.55 18.70 13.55 30.60 2.85 4.25 5.15 7.90 5.15 8.15 0 0.50 -36.05 0.20 -42.35 -0.35 l-3.10 -0.25 0.30 -17.60 c0.10 -9.70 0.30 -17.90 0.40 -18.25 0.15 -0.40 1.45 -0.60 4.20 -0.60 l4 0 3.65 5.35 c2 2.95 3.90 5.35 4.15 5.35 0.85 0.05 1.15 -3.95 1.20 -14 0.05 -7.25 -0.10 -9.70 -0.60 -10.10 -0.90 -0.75 -1.25 -0.40 -5.30 5.05 l-3.60 4.85 -3.40 0 c-4.55 0 -4.70 -0.25 -4.30 -6.10 l0.35 -4.65 4.75 -4.85 c3.35 -3.35 4.70 -5.05 4.50 -5.60 -0.30 -0.70 -1.70 -0.80 -10.35 -0.90 -5.50 -0.05 -10.75 -0.10 -11.60 -0.10 -3 -0.05 -2.40 1.50 2.60 6.45 l4.50 4.50 0 5.35 0 5.40 -3.95 0 -4 0 -3.20 -4.65 c-3.85 -5.45 -4.50 -6.15 -5.25 -5.25 -0.55 0.70 -1 23.65 -0.50 24.20 0.55 0.55 1.20 -0.20 4.90 -5.30 l3.55 -5 4.20 0 4.25 0 0 15.20 c0 8.30 -0.15 16.55 -0.30 18.25 l-0.35 3.05 -22.05 0 c-12.15 0 -22.35 -0.20 -22.70 -0.40 -0.45 -0.30 -0.20 -1 1.15 -2.75 6.65 -8.70 12.95 -19.25 15.20 -25.35 0.55 -1.50 1.60 -5 2.40 -7.75 1.20 -4.40 1.35 -5.85 1.40 -12.50 0 -7.40 0 -7.55 -1.50 -10.20 -2.20 -3.95 -4.15 -5.25 -8.30 -5.45 -6.15 -0.35 -9.45 2.30 -9.45 7.55 0 3.85 3.35 6.85 7.70 6.85 1.80 0 2.40 -0.25 3.25 -1.30 2.70 -3.45 -0.85 -9.15 -4.45 -7.20 -1.40 0.75 -1.25 1.60 0.55 2.60 1.85 1.10 1.80 2.60 -0.10 2.80 -1.95 0.25 -4.10 -1.80 -4.10 -3.85 0 -3.55 5.25 -5.80 8.90 -3.80 2.25 1.15 4.30 5.05 4.60 8.65 0.70 7.55 -2.10 19.15 -6.85 28.60 -2 4.05 -9.15 14.70 -10.70 15.95 -0.65 0.55 -0.70 -0.60 -0.50 -9.05 0.30 -9.75 0.05 -12.85 -2.10 -28.40 -1.05 -7.75 -3.70 -14.35 -7.40 -18.40 -1.70 -1.90 -4.50 -3.10 -7.25 -3.10 -2.10 0 -2.80 0.25 -4.30 1.60 -4 3.45 -4.90 8.40 -2.30 12.50 0.80 1.25 1.95 2.65 2.60 3.10 1.50 1 4.55 1.05 6.50 0 1.70 -0.85 3.15 -3.75 2.70 -5.20 -0.55 -1.70 -2.70 -3 -5 -3 -2.75 0 -3.80 1.05 -2.50 2.55 0.55 0.55 1.25 0.85 1.60 0.75 1.90 -0.75 2.90 1.25 1.15 2.20 -1.40 0.75 -2.75 0.25 -3.90 -1.40 -1.60 -2.20 -1.75 -3.50 -0.85 -5.85 0.95 -2.55 2.70 -3.85 5.20 -3.85 1.50 0 2.15 0.35 3.85 2.25 3.55 3.95 4.95 8.25 6.45 19.90 2.15 16.40 2.10 26.60 -0.05 38.85 l-0.30 1.60 -7.85 0 -7.80 0 -1 -1.85 c-1.95 -3.65 -7.05 -5.20 -10.75 -3.20 -2.70 1.40 -4 3.70 -4 7.05 0 3.35 1.25 5.60 4 7.10 3.75 2.05 9.45 0.20 11 -3.55 l0.60 -1.55 7.45 0 c7.10 0 7.45 0.05 7.45 1 0 1.30 -3.70 15.80 -5.30 20.55 -2 6.15 -4.65 8.95 -8.50 8.95 -3.50 0 -5.45 -3.20 -4 -6.70 0.50 -1.25 1.05 -1.80 1.75 -1.80 1 0 1.25 0.50 1.65 3.20 0.20 1.40 1.70 2.20 2.75 1.50 0.65 -0.40 0.95 -1.35 1.05 -3.40 0.15 -2.60 0 -2.95 -1.40 -4.40 -1.35 -1.35 -1.80 -1.50 -3.65 -1.25 -1.60 0.20 -2.45 0.70 -3.70 2.15 -2.75 3.10 -3.30 6.50 -1.65 10.10 0.75 1.65 1.45 2.35 3.10 3.10 5.30 2.40 10.95 -0.15 13.65 -6.25 1.65 -3.75 4.55 -12.05 5.50 -15.75 1.60 -6.40 2.35 -8.60 2.80 -8.15 0.50 0.50 9.45 20.65 9.45 21.25 0 0.25 -1.35 2.45 -3 4.90 -2.95 4.35 -3.45 5.65 -2.55 6.20 0.45 0.30 20.15 -7.85 21.40 -8.85 1.10 -0.80 0.25 -1.25 -3.75 -2.10 -8.30 -1.80 -6.80 -0.30 -12.30 -12.65 -2.65 -5.95 -4.80 -11.05 -4.80 -11.30 0 -0.60 22.40 -0.10 22.90 0.50 0.65 0.80 -0.05 42.55 -0.75 43.25 -0.45 0.45 -0.95 0.35 -2.25 -0.45 -5.40 -3.30 -10.90 -0.50 -10.90 5.55 0 5.20 4.85 6.95 10.70 3.90 l2.75 -1.50 1.40 2.55 c1.90 3.50 3.35 4.45 7.25 4.75 4.30 0.35 6.65 -0.70 7.95 -3.55 1.20 -2.60 1.20 -3.90 -0.05 -6.25 -2.35 -4.60 -8.10 -4.30 -9.95 0.55 -0.60 1.65 -0.30 2.75 0.95 3.15 1.40 0.45 2.55 -0.25 2.85 -1.80 0.15 -0.80 0.60 -1.70 1 -2.05 0.65 -0.50 0.95 -0.40 1.70 0.55 1.35 1.65 1.20 3.40 -0.50 5.10 -3.15 3.10 -7.65 0.95 -9.60 -4.60 -0.55 -1.60 -0.50 -2.30 0.45 -5.25 1 -3.20 1.10 -5.05 1.40 -23.80 l0.30 -20.40 8.25 0 8.25 0 -0.20 15.20 -0.15 15.15 -2.45 2.25 c-2.35 2.10 -2.50 2.35 -2.65 5.20 -0.15 2.35 0 3.30 0.80 4.60 3.10 4.90 10.55 4.80 13.40 -0.20 2.05 -3.55 1.35 -6.80 -2.05 -9.95 l-2.20 -2 0.25 -15.10 0.30 -15.15 7.55 0 c4.15 0 7.85 0.20 8.25 0.45 0.55 0.35 0.65 4.10 0.50 21.35 -0.20 19.70 -0.15 21.10 0.75 23.55 0.90 2.35 0.90 2.80 0.30 4.70 -1.55 4.60 -5.10 6.75 -8.50 5.05 -2.25 -1.10 -3.05 -3.10 -1.95 -5 0.80 -1.50 2.35 -2.05 2.65 -1 0.10 0.35 0.35 1.25 0.50 2 0.40 1.80 2.10 2.30 3.40 1.05 0.90 -0.95 0.90 -1.15 0.25 -2.75 -1.75 -4.15 -6.15 -5.10 -8.95 -1.95 -1.80 2.05 -2.25 4.55 -1.20 7.20 1.10 2.95 2.80 3.85 7.40 3.85 4.60 0 6.30 -0.95 7.90 -4.35 0.65 -1.30 1.20 -2.45 1.25 -2.55 0.10 -0.10 0.95 0.40 1.95 1.10 2.65 1.80 6.80 2.65 8.80 1.80 0.85 -0.35 1.85 -1.10 2.25 -1.70 0.90 -1.25 0.95 -5.60 0.05 -7.20 -1.70 -3.10 -6.30 -4 -9.90 -2 -1.65 0.95 -2 1 -2.40 0.40 -0.55 -0.90 -0.65 -16.15 -0.15 -32.15 l0.30 -11.35 11.45 0 c9.05 0 11.40 0.15 11.40 0.65 0 0.70 -9.35 20.80 -10 21.50 -0.20 0.25 -2.70 0.90 -5.55 1.40 -6.75 1.30 -6.80 1.30 -5.90 2.20 0.90 0.85 20.20 9.75 21.20 9.75 1.35 0 0.80 -1.60 -2.30 -6.40 -1.65 -2.60 -2.90 -5 -2.75 -5.35 0.10 -0.40 2.45 -5.30 5.10 -11 2.95 -6.20 5 -10.05 5.25 -9.65 0.15 0.35 1.05 3.65 1.90 7.30 1.65 6.90 4.95 16.70 6.60 19.40 1.05 1.70 4.30 4.10 6.45 4.70 0.75 0.20 2.45 0.20 3.80 -0.05 6.25 -1.15 8.25 -9.15 3.50 -14.20 -1.45 -1.50 -2 -1.75 -3.95 -1.75 -3.10 0 -4.85 1.95 -4.85 5.50 0 2.65 0.80 3.65 2.60 3.40 0.85 -0.10 1.20 -0.60 1.50 -2.15 0.25 -1.10 0.60 -2.15 0.85 -2.40 0.70 -0.70 2 0.25 2.55 1.95 1.65 4.90 -2.85 8.40 -7.25 5.70 -3.45 -2.15 -5.30 -6.65 -8.45 -20.85 -1 -4.45 -1.80 -8.35 -1.80 -8.65 0 -0.30 2.70 -0.50 7.50 -0.50 l7.50 0 0.70 1.65 c1.40 3.40 5.20 5.35 9.05 4.65 2.45 -0.45 5.10 -2.95 5.75 -5.35 0.30 -1.05 0.65 -1.95 0.75 -1.95 0.15 0 0.25 13.40 0.25 29.75 l0 29.75 -86.50 0 -86.50 0 0 -65.50z"/>
  <path d="M115 122.45 c-1.60 -0.65 -3 -1.95 -3 -2.75 0 -0.90 2.60 -2.20 4.45 -2.20 2.75 0 4.45 3.05 2.55 4.60 -1.25 1 -2.15 1.10 -4 0.35z"/>
  <path d="M52.80 121.05 c-0.80 -0.90 -0.80 -1.10 -0.10 -2.50 0.95 -1.80 2.75 -2.40 4.80 -1.55 2.90 1.20 3.10 2.90 0.45 4.25 -1.95 1.05 -4.15 0.95 -5.15 -0.20z"/>
  <path d="M83.55 114.30 c-2.40 -1.35 -3.15 -4.20 -1.80 -6.80 1.50 -2.90 5.20 -3.45 7.75 -1.10 2 1.80 2.35 3.85 1 6 -1.55 2.45 -4.45 3.30 -6.95 1.90z"/>
  <path d="M161.90 75.20 c-4.45 -2.40 -2.50 -9.20 2.60 -9.20 2.90 0 5 2.10 5 5 0 4 -3.95 6.20 -7.60 4.20z"/>
  <path d="M5.55 72.95 c-2.45 -2.30 -2.45 -5.60 0.05 -7.70 2.20 -1.85 4.55 -1.70 6.70 0.45 2.40 2.40 2.20 5.25 -0.50 7.40 -1.50 1.25 -4.85 1.15 -6.25 -0.15z"/>
 </g>
</svg>