<?xml version="1.0" encoding="utf-8"?>
<!DOCTYPE svg PUBLIC "-//W3C//DTD SVG 1.0//EN" "http://www.w3.org/TR/2001/REC-SVG-20010904/DTD/svg10.dtd">
<svg version="1.0" xmlns="http://www.w3.org/2000/svg" width="160px" height="126px" viewBox="0 0 160 126" preserveAspectRatio="xMidYMid meet">
 <g fill="#000000">
  <path d="M124.20 124.45 c-0.15 -0.30 0.60 -1.50 1.75 -2.65 2.05 -2.10 2.05 -2.10 2.05 -5.90 l0 -3.80 -12.95 -0.35 c-7.15 -0.20 -13.20 -0.20 -13.50 -0.05 -0.70 0.45 -0.25 1.55 2.20 5.05 1.15 1.65 2.70 4.05 3.45 5.40 l1.40 2.35 -9.30 0 c-5.10 0 -9.30 -0.20 -9.30 -0.40 0 -0.25 1.70 -2.85 3.75 -5.80 2.05 -2.95 3.75 -5.65 3.75 -6 0 -0.50 -3.85 -0.70 -17.85 -1 -9.80 -0.20 -18 -0.15 -18.25 0.10 -0.25 0.25 0.85 2.40 2.40 4.90 1.55 2.45 3.30 5.20 3.80 6.10 l1 1.60 -9 0 c-5 0 -9.15 -0.20 -9.30 -0.40 -0.30 -0.45 1 -2.50 4.75 -7.65 1.35 -1.85 2.45 -3.70 2.45 -4.10 0 -0.70 -1.55 -0.80 -12.85 -0.95 -7.10 -0.10 -13.20 0.05 -13.50 0.30 -0.40 0.25 -0.65 1.70 -0.65 3.85 0 3.35 0.05 3.55 2.05 5.70 1.10 1.20 1.90 2.45 1.70 2.75 -0.40 0.70 -11.15 0.60 -11.55 -0.10 -0.20 -0.25 0.75 -1.55 2 -2.85 l2.35 -2.40 -0.15 -3.70 -0.15 -3.70 -5.65 -0.15 -5.60 -0.15 -0.05 3.40 c-0.10 4.70 -0.10 4.65 2.10 6.90 1.05 1.15 1.95 2.20 1.95 2.40 0 0.45 -11.70 0.45 -12.20 0 -0.15 -0.20 0.75 -1.40 2.05 -2.75 l2.35 -2.40 0.05 -9.85 0 -9.90 -2.25 -0.75 c-3.15 -1.05 -7.25 -5.10 -8 -7.90 -0.65 -2.45 -0.10 -6 1.30 -8.65 1.05 -2.10 4.90 -4.45 7.30 -4.45 2.35 0 5.15 1.35 7.10 3.45 1.15 1.20 1.50 2.10 1.65 4.15 0.20 2.25 0 2.95 -1.15 4.75 -0.75 1.15 -1.90 2.35 -2.60 2.75 -1.50 0.75 -4.50 0.75 -6.05 -0.05 -2.45 -1.35 -3.10 -6.45 -1 -7.60 0.80 -0.40 0.95 -0.30 0.95 0.65 0 1.55 1.35 3.40 2.40 3.40 1.60 0 3.10 -1.45 3.10 -3 0 -2.70 -3.85 -4.40 -6.60 -2.95 -1.30 0.70 -3.05 4.70 -2.70 6.15 0.45 1.80 2.20 3.75 4.45 4.90 1.80 0.95 3.15 1.10 9.75 1.30 6.20 0.20 7.60 0.10 7.65 -0.45 0 -0.40 0.30 -18.75 0.60 -40.80 l0.60 -40.05 1.55 -1.95 c2.15 -2.70 6.15 -4.95 9.85 -5.60 3.30 -0.55 9.65 -0.10 13.25 0.95 1.75 0.55 2.15 0.45 5.10 -1.15 6.50 -3.55 8.80 -3.95 22 -3.85 6.45 0 12.65 0.25 13.75 0.55 3.50 0.90 8.65 3 10.60 4.30 1.50 1 2.20 1.20 3.60 0.90 1 -0.20 2.80 -0.55 4.05 -0.75 5.65 -1.10 11.65 -0.20 15.45 2.25 2.30 1.45 4.35 3.65 4.95 5.25 0.30 0.80 0.30 16.20 0 40.90 -0.25 21.80 -0.35 40 -0.20 40.45 0.45 1.15 15.35 0.75 17.60 -0.45 4.05 -2.20 5.30 -6.10 3.05 -9.45 -0.95 -1.45 -1.50 -1.70 -3.30 -1.85 -2.80 -0.20 -4.55 0.90 -4.55 2.90 0 1.70 1.15 3 2.70 3 1.50 0 2.30 -0.90 2.30 -2.60 0 -0.80 0.25 -1.40 0.65 -1.40 1.20 0 1.85 1.20 1.85 3.40 0 3.05 -2.05 5.10 -5 5.10 -2.65 0 -3.70 -0.60 -5.50 -3.10 -2.80 -3.80 -1.80 -8.30 2.40 -10.95 4.75 -3 10.40 -1.25 12.70 3.90 0.80 1.75 0.95 3.05 0.80 5.70 -0.20 3.35 -0.25 3.50 -2.65 5.95 -1.45 1.45 -3.40 2.85 -4.75 3.35 -1.25 0.45 -2.55 1.05 -2.85 1.30 -0.50 0.35 -0.65 2.95 -0.65 9.95 l0 9.50 2.25 2.55 2.25 2.60 -6.05 0.15 c-3.35 0.05 -6.20 0 -6.35 -0.15 -0.15 -0.15 0.80 -1.35 2.10 -2.70 l2.35 -2.40 -0.15 -3.70 -0.15 -3.70 -5.75 0 -5.75 0 -0.15 3.60 -0.15 3.65 2.30 2.40 c1.25 1.35 2.25 2.60 2.25 2.80 0 0.55 -11.40 0.35 -11.80 -0.25z m19.20 -20.30 c0.15 -4 0.10 -4.15 -1 -4.20 -0.65 0 -3.15 -0.05 -5.65 -0.10 l-4.50 -0.10 -0.15 3.95 c-0.10 2.85 0.05 4.10 0.50 4.40 0.35 0.20 2.90 0.35 5.65 0.30 l5 -0.15 0.15 -4.10z m-46.20 3.40 c0.45 -0.70 0.55 -7.50 0.10 -7.90 -0.20 -0.20 -8.35 -0.50 -18.10 -0.60 l-17.70 -0.15 0 4.30 0 4.30 14.40 0.15 c7.90 0.05 15.85 0.15 17.70 0.25 1.85 0.05 3.45 -0.10 3.60 -0.35z m30.70 -3.65 l-0.15 -4.15 -13.10 -0.15 -13.15 -0.10 0 4.25 0 4.25 13.25 0 13.30 0 -0.15 -4.10z m-70.50 2.75 c0.60 -1.25 0.70 -6.25 0.15 -7.10 -0.35 -0.55 -2.85 -0.70 -13.40 -0.75 l-12.90 -0.05 -0.15 4.10 -0.15 4.10 7.65 0.20 c4.20 0.05 10.05 0.20 13 0.25 4.70 0.10 5.40 0 5.80 -0.75z m-30.40 -3.85 l0 -4.20 -4.65 -0.35 c-6.85 -0.50 -6.55 -0.65 -6.75 3.70 -0.10 2.05 -0.05 4 0.10 4.40 0.20 0.50 1.65 0.65 5.80 0.65 l5.50 0 0 -4.20z m101.20 -7.65 c0.10 -0.50 0.35 -17.95 0.55 -38.75 0.25 -28.20 0.20 -38.25 -0.25 -39.60 -1.10 -3.45 -6.90 -6.80 -11.70 -6.80 -2.75 0 -6.95 1.25 -9.25 2.80 -2.10 1.35 -4.45 4.90 -5.55 8.15 -0.40 1.30 -1.05 2.30 -1.45 2.30 -0.55 0 -0.70 -1 -0.75 -4.50 -0.05 -4.95 -0.95 -7.30 -3.65 -9.85 -3.45 -3.25 -11.15 -4.75 -20.50 -3.95 -5.75 0.55 -8.75 1.65 -11.35 4.35 -2.20 2.25 -2.95 4.75 -3.05 9.70 -0.10 4.45 -1 5.05 -2.25 1.50 -1.20 -3.40 -3.45 -6.90 -5.20 -8.25 -1.80 -1.35 -7.15 -3.25 -9.25 -3.25 -2.30 0 -7.85 1.90 -9.45 3.25 -3.25 2.70 -3.10 0.95 -3.70 43.30 -0.30 22.45 -0.35 38.70 -0.10 38.95 0.45 0.45 45.20 1.25 78.30 1.40 17.05 0.10 18.35 0.05 18.60 -0.75z"/>
  <path d="M72.65 81.60 l5.35 -5.35 0 -7.90 0 -7.85 -2.60 0 c-1.45 0 -5.20 -0.15 -8.25 -0.35 l-5.65 -0.30 -5.15 5.05 c-2.85 2.80 -5.45 5.10 -5.75 5.10 -0.70 0 -0.80 -4.75 -0.25 -16.40 0.20 -5.05 0.50 -7.60 0.85 -7.60 0.30 0 2.80 2.25 5.55 5 l5 5 8.05 0 8.05 0 0.35 -2.60 c0.15 -1.45 0.30 -5.10 0.30 -8.05 l0 -5.40 -5 -5.15 c-2.75 -2.85 -5 -5.40 -5 -5.75 0 -0.45 2.90 -0.50 11.90 -0.25 6.50 0.20 11.95 0.45 12.05 0.55 0.15 0.10 -2.15 2.60 -5.10 5.55 l-5.40 5.40 0.15 7.95 0.15 8 7.90 0.15 7.90 0.15 5.25 -4.90 c2.90 -2.70 5.60 -5 6.05 -5.05 0.65 -0.15 0.75 1.15 0.60 11.80 -0.10 6.60 -0.40 12.20 -0.60 12.45 -0.25 0.20 -2.75 -2 -5.65 -4.95 l-5.15 -5.40 -8.20 0 -8.20 0 -0.40 7.80 -0.35 7.85 3.70 3.80 c2 2.10 4.35 4.55 5.15 5.45 l1.45 1.60 -12.20 0 -12.25 0 5.40 -5.40z"/>
  <path d="M112.80 39.10 c-0.75 -0.15 -0.65 -0.50 0.95 -2.10 1.55 -1.60 1.80 -2.15 1.65 -3.80 -0.15 -1.85 -0.25 -1.95 -1.90 -2.10 -1.45 -0.10 -2.05 0.15 -3.50 1.65 -2.70 2.75 -3 2.45 -3 -3 0 -3.25 0.20 -4.75 0.55 -4.75 0.35 0 1.40 0.80 2.30 1.80 1.50 1.45 2.05 1.75 3.60 1.60 1.65 -0.15 1.80 -0.30 1.95 -1.90 0.10 -1.40 -0.15 -2.05 -1.40 -3.25 -2.50 -2.40 -2.10 -2.75 3.25 -2.75 2.60 0 4.75 0.20 4.75 0.40 0 0.20 -0.90 1.30 -2 2.35 -1.55 1.50 -2 2.35 -2 3.60 0 1.55 0.10 1.65 1.80 1.65 1.30 0 2.30 -0.45 3.55 -1.55 0.95 -0.80 2 -1.40 2.30 -1.30 0.80 0.25 1.10 7.80 0.35 8.55 -0.35 0.35 -1.10 -0.05 -2.45 -1.40 -1.60 -1.55 -2.20 -1.85 -3.60 -1.70 -1.60 0.15 -1.70 0.30 -1.85 2.10 -0.15 1.65 0.10 2.20 1.65 3.80 1.10 1.10 1.65 2 1.30 2.20 -0.50 0.35 -6.40 0.25 -8.25 -0.10z"/>
  <path d="M39.50 37.90 c0 -0.35 0.70 -1.25 1.55 -1.95 1.35 -1.10 1.60 -1.65 1.65 -3.50 0.05 -2.15 0 -2.20 -1.60 -2.35 -1.30 -0.15 -2.05 0.20 -3.65 1.60 -3.10 2.85 -3.25 2.65 -3.05 -3.20 0.20 -4.55 0.75 -5 3.10 -2.50 1.10 1.20 1.80 1.50 3.45 1.50 2 0 2.05 -0.05 2.05 -1.65 0 -1.25 -0.45 -2.10 -1.75 -3.35 -2.75 -2.65 -2.40 -3 2.75 -3 5.10 0 5.50 0.35 3 2.75 -1.15 1.10 -1.50 1.90 -1.50 3.35 l0 1.90 2.15 0 c1.75 0 2.45 -0.30 3.60 -1.50 0.80 -0.80 1.60 -1.50 1.85 -1.50 0.20 0 0.40 2.15 0.40 4.75 0 2.60 -0.15 4.75 -0.30 4.75 -0.20 0 -1.35 -0.90 -2.55 -2.05 -1.65 -1.50 -2.55 -1.95 -3.55 -1.85 -1.20 0.15 -1.35 0.35 -1.50 2.40 -0.10 1.90 0.05 2.50 1.15 3.50 2.20 2.10 1.70 2.50 -3 2.50 -3.05 0 -4.25 -0.15 -4.25 -0.60z"/>
 </g>
 <g fill="#ffffff">
  <path d="M0 63 l0 -63 80 0 80 0 0 63 0 63 -80 0 -80 0 0 -63z m136 61.70 c0 -0.20 -1 -1.45 -2.25 -2.80 l-2.30 -2.40 0.15 -3.65 0.15 -3.60 5.75 0 5.75 0 0.15 3.70 0.15 3.70 -2.35 2.40 c-1.30 1.35 -2.25 2.55 -2.10 2.70 0.15 0.15 3 0.20 6.35 0.15 l6.05 -0.15 -2.25 -2.60 -2.25 -2.55 0 -9.50 c0 -7 0.15 -9.60 0.65 -9.95 0.30 -0.25 1.60 -0.85 2.85 -1.30 1.35 -0.50 3.30 -1.90 4.75 -3.35 2.40 -2.45 2.45 -2.60 2.65 -5.95 0.15 -2.65 0 -3.95 -0.80 -5.70 -2.30 -5.15 -7.95 -6.90 -12.70 -3.90 -4.20 2.65 -5.20 7.15 -2.40 10.95 1.80 2.50 2.85 3.10 5.50 3.10 2.95 0 5 -2.05 5 -5.10 0 -2.20 -0.65 -3.40 -1.85 -3.40 -0.40 0 -0.65 0.60 -0.65 1.40 0 1.70 -0.80 2.60 -2.30 2.60 -1.55 0 -2.70 -1.30 -2.70 -3 0 -2 1.75 -3.10 4.55 -2.90 1.80 0.15 2.35 0.40 3.30 1.85 2.25 3.35 1 7.25 -3.05 9.45 -2.25 1.20 -17.15 1.60 -17.60 0.45 -0.15 -0.45 -0.05 -18.65 0.20 -40.45 0.30 -24.70 0.30 -40.10 0 -40.90 -0.60 -1.60 -2.65 -3.80 -4.95 -5.25 -3.80 -2.45 -9.80 -3.35 -15.45 -2.25 -1.25 0.20 -3.05 0.55 -4.05 0.75 -1.40 0.30 -2.10 0.10 -3.60 -0.90 -1.95 -1.30 -7.10 -3.40 -10.60 -4.30 -1.10 -0.30 -7.30 -0.55 -13.75 -0.55 -13.20 -0.10 -15.50 0.30 -22 3.85 -2.95 1.60 -3.35 1.70 -5.10 1.15 -3.60 -1.05 -9.95 -1.50 -13.25 -0.95 -3.70 0.65 -7.70 2.90 -9.85 5.60 l-1.55 1.95 -0.60 40.05 c-0.30 22.05 -0.60 40.40 -0.60 40.80 -0.05 0.55 -1.45 0.65 -7.65 0.45 -6.60 -0.20 -7.95 -0.35 -9.75 -1.30 -2.25 -1.15 -4 -3.10 -4.45 -4.90 -0.35 -1.45 1.40 -5.45 2.70 -6.15 2.75 -1.45 6.60 0.25 6.60 2.95 0 1.55 -1.50 3 -3.10 3 -1.05 0 -2.40 -1.85 -2.40 -3.40 0 -0.95 -0.15 -1.05 -0.95 -0.65 -2.10 1.15 -1.45 6.25 1 7.60 1.55 0.80 4.55 0.80 6.05 0.05 0.70 -0.40 1.85 -1.60 2.60 -2.75 1.15 -1.80 1.35 -2.50 1.15 -4.75 -0.15 -2.05 -0.50 -2.95 -1.65 -4.15 -1.95 -2.10 -4.75 -3.45 -7.10 -3.45 -2.40 0 -6.25 2.35 -7.30 4.45 -1.40 2.65 -1.95 6.20 -1.30 8.65 0.75 2.80 4.85 6.85 8 7.90 l2.25 0.75 0 9.90 -0.05 9.85 -2.35 2.40 c-1.30 1.35 -2.20 2.55 -2.05 2.75 0.50 0.45 12.20 0.45 12.20 0 0 -0.20 -0.90 -1.25 -1.95 -2.40 -2.20 -2.25 -2.20 -2.20 -2.10 -6.90 l0.05 -3.40 5.60 0.15 5.65 0.15 0.15 3.70 0.15 3.70 -2.35 2.40 c-1.25 1.30 -2.20 2.60 -2 2.85 0.40 0.70 11.15 0.80 11.55 0.10 0.20 -0.30 -0.60 -1.55 -1.70 -2.75 -2 -2.15 -2.05 -2.35 -2.05 -5.70 0 -2.15 0.25 -3.60 0.65 -3.85 0.30 -0.25 6.40 -0.40 13.50 -0.30 11.30 0.15 12.85 0.25 12.85 0.95 0 0.40 -1.10 2.25 -2.45 4.10 -3.75 5.15 -5.05 7.20 -4.75 7.65 0.15 0.20 4.30 0.40 9.30 0.40 l9 0 -1 -1.60 c-0.50 -0.90 -2.25 -3.65 -3.80 -6.10 -1.55 -2.50 -2.65 -4.65 -2.40 -4.90 0.25 -0.25 8.45 -0.30 18.25 -0.10 14 0.30 17.85 0.50 17.85 1 0 0.35 -1.70 3.05 -3.75 6 -2.05 2.95 -3.75 5.55 -3.75 5.80 0 0.20 4.20 0.40 9.30 0.40 l9.30 0 -1.40 -2.35 c-0.75 -1.35 -2.30 -3.75 -3.45 -5.40 -2.45 -3.50 -2.90 -4.60 -2.20 -5.05 0.30 -0.15 6.35 -0.15 13.50 0.05 l12.95 0.35 0 3.80 c0 3.80 0 3.80 -2.05 5.90 -1.15 1.15 -1.90 2.35 -1.75 2.65 0.40 0.60 11.80 0.80 11.80 0.25z"/>
  <path d="M132.60 108.10 c-0.45 -0.30 -0.60 -1.55 -0.50 -4.40 l0.15 -3.95 4.50 0.10 c2.50 0.05 5 0.10 5.65 0.10 1.10 0.05 1.15 0.20 1 4.20 l-0.15 4.10 -5 0.15 c-2.75 0.05 -5.30 -0.10 -5.65 -0.30z"/>
  <path d="M75.90 107.65 l-14.40 -0.15 0 -4.30 0 -4.30 17.70 0.15 c9.75 0.10 17.90 0.40 18.10 0.60 0.45 0.40 0.35 7.20 -0.10 7.90 -0.15 0.25 -1.75 0.40 -3.60 0.35 -1.85 -0.10 -9.80 -0.20 -17.70 -0.25z"/>
  <path d="M101.50 103.75 l0 -4.25 13.15 0.10 13.10 0.15 0.15 4.15 0.15 4.10 -13.30 0 -13.25 0 0 -4.25z"/>
  <path d="M38.60 107.15 l-7.65 -0.20 0.15 -4.10 0.15 -4.10 12.90 0.05 c10.55 0.05 13.05 0.20 13.40 0.75 0.55 0.85 0.45 5.85 -0.15 7.10 -0.40 0.75 -1.10 0.85 -5.80 0.75 -2.95 -0.05 -8.80 -0.20 -13 -0.25z"/>
  <path d="M15.70 106.35 c-0.15 -0.40 -0.20 -2.35 -0.10 -4.40 0.20 -4.35 -0.10 -4.20 6.75 -3.70 l4.65 0.35 0 4.20 0 4.20 -5.50 0 c-4.15 0 -5.60 -0.15 -5.80 -0.65z"/>
  <path d="M61.50 95.40 c-16.35 -0.25 -29.95 -0.65 -30.20 -0.90 -0.25 -0.25 -0.20 -16.50 0.10 -38.95 0.60 -42.35 0.45 -40.60 3.70 -43.30 1.60 -1.35 7.15 -3.25 9.45 -3.25 2.10 0 7.45 1.90 9.25 3.25 1.75 1.35 4 4.85 5.20 8.25 1.25 3.55 2.15 2.95 2.25 -1.50 0.10 -4.95 0.85 -7.45 3.05 -9.70 2.60 -2.70 5.60 -3.80 11.35 -4.35 9.35 -0.80 17.05 0.70 20.50 3.95 2.70 2.55 3.60 4.90 3.65 9.85 0.05 3.50 0.20 4.50 0.75 4.50 0.40 0 1.05 -1 1.45 -2.30 1.10 -3.25 3.45 -6.80 5.55 -8.15 2.30 -1.55 6.50 -2.80 9.25 -2.80 4.80 0 10.60 3.35 11.70 6.80 0.45 1.35 0.50 11.40 0.25 39.60 -0.20 20.80 -0.45 38.25 -0.55 38.75 -0.25 0.80 -1.55 0.85 -18.60 0.75 -10.10 -0.05 -31.75 -0.25 -48.10 -0.50z m28.75 -10 c-0.80 -0.90 -3.15 -3.35 -5.15 -5.45 l-3.70 -3.80 0.35 -7.85 0.40 -7.80 8.20 0 8.20 0 5.15 5.40 c2.90 2.95 5.40 5.15 5.65 4.95 0.20 -0.25 0.50 -5.85 0.60 -12.45 0.15 -10.65 0.05 -11.95 -0.60 -11.80 -0.45 0.05 -3.15 2.35 -6.05 5.05 l-5.25 4.90 -7.90 -0.15 -7.90 -0.15 -0.15 -8 -0.15 -7.95 5.40 -5.40 c2.95 -2.95 5.25 -5.45 5.10 -5.55 -0.10 -0.10 -5.55 -0.35 -12.05 -0.55 -9 -0.25 -11.90 -0.20 -11.90 0.25 0 0.35 2.25 2.90 5 5.75 l5 5.15 0 5.40 c0 2.95 -0.15 6.60 -0.30 8.05 l-0.35 2.60 -8.05 0 -8.05 0 -5 -5 c-2.75 -2.75 -5.25 -5 -5.55 -5 -0.35 0 -0.65 2.55 -0.85 7.60 -0.55 11.65 -0.45 16.40 0.25 16.40 0.30 0 2.90 -2.30 5.75 -5.10 l5.15 -5.05 5.65 0.30 c3.05 0.20 6.80 0.35 8.25 0.35 l2.60 0 0 7.85 0 7.90 -5.35 5.35 -5.40 5.40 12.25 0 12.20 0 -1.45 -1.60z m30.80 -46.20 c0.35 -0.20 -0.20 -1.10 -1.30 -2.20 -1.55 -1.60 -1.80 -2.15 -1.65 -3.80 0.15 -1.80 0.25 -1.95 1.85 -2.10 1.40 -0.15 2 0.15 3.60 1.70 1.35 1.35 2.10 1.75 2.45 1.40 0.75 -0.75 0.45 -8.30 -0.35 -8.55 -0.30 -0.10 -1.35 0.50 -2.30 1.30 -1.25 1.10 -2.25 1.55 -3.55 1.55 -1.70 0 -1.80 -0.10 -1.80 -1.65 0 -1.25 0.45 -2.10 2 -3.60 1.10 -1.05 2 -2.15 2 -2.35 0 -0.20 -2.15 -0.40 -4.75 -0.40 -5.35 0 -5.75 0.35 -3.25 2.75 1.25 1.20 1.50 1.85 1.40 3.25 -0.15 1.60 -0.30 1.75 -1.95 1.90 -1.55 0.15 -2.10 -0.15 -3.60 -1.60 -0.90 -1 -1.95 -1.80 -2.30 -1.80 -0.35 0 -0.55 1.50 -0.55 4.75 0 5.45 0.30 5.75 3 3 1.45 -1.50 2.05 -1.75 3.50 -1.65 1.65 0.15 1.75 0.25 1.90 2.10 0.15 1.65 -0.10 2.20 -1.65 3.80 -1.60 1.60 -1.70 1.95 -0.95 2.10 1.85 0.35 7.75 0.45 8.25 0.10z m-73.05 -1.35 c0 -0.40 -0.55 -1.20 -1.25 -1.85 -1.10 -1 -1.25 -1.60 -1.15 -3.50 0.15 -2.05 0.30 -2.25 1.50 -2.40 1 -0.10 1.90 0.35 3.55 1.85 1.20 1.15 2.35 2.05 2.55 2.05 0.15 0 0.30 -2.15 0.30 -4.75 0 -2.60 -0.20 -4.75 -0.40 -4.75 -0.25 0 -1.05 0.70 -1.85 1.50 -1.15 1.20 -1.85 1.50 -3.60 1.50 l-2.15 0 0 -1.90 c0 -1.45 0.35 -2.25 1.50 -3.35 2.50 -2.40 2.10 -2.75 -3 -2.75 -5.15 0 -5.50 0.35 -2.75 3 1.30 1.25 1.75 2.10 1.75 3.35 0 1.60 -0.05 1.65 -2.05 1.65 -1.65 0 -2.35 -0.30 -3.45 -1.50 -2.35 -2.50 -2.90 -2.05 -3.10 2.50 -0.20 5.85 -0.05 6.05 3.05 3.20 1.60 -1.40 2.35 -1.75 3.65 -1.60 1.60 0.15 1.65 0.20 1.60 2.35 -0.05 1.85 -0.30 2.40 -1.65 3.50 -2.55 2.10 -2.10 2.55 2.70 2.55 3.20 0 4.25 -0.15 4.25 -0.65z"/>
 </g>
</svg>