<?xml version="1.0" encoding="utf-8"?>
<!DOCTYPE svg PUBLIC "-//W3C//DTD SVG 1.0//EN" "http://www.w3.org/TR/2001/REC-SVG-20010904/DTD/svg10.dtd">
<svg version="1.0" xmlns="http://www.w3.org/2000/svg" width="150px" height="155px" viewBox="0 0 150 155" preserveAspectRatio="xMidYMid meet">
 <g fill="#000000">
  <path d="M93.65 153.50 c-6.10 -3.10 -5.90 -11.75 0.35 -14.60 l2.40 -1.10 0.35 -7.25 c0.25 -4.55 0.20 -7.50 -0.10 -8 -0.60 -1 -21.75 -16.60 -22.05 -16.30 -0.10 0.10 -0.35 5.30 -0.45 11.50 l-0.25 11.25 3.15 0.05 c1.75 0.05 3.55 0.05 3.95 0 1.45 -0.20 3.40 -2.95 4.05 -5.75 0.35 -1.75 0.85 -2.80 1.30 -2.80 0.55 0 0.65 1.75 0.55 9.50 -0.10 5.50 -0.35 9.50 -0.60 9.55 -0.30 0 -1 -1.50 -1.60 -3.35 -1.45 -4.55 -2.35 -5.20 -7 -5.20 l-3.70 0 0 4.30 c0 2.35 0.25 4.70 0.55 5.25 0.60 1.15 5.15 3.45 6.85 3.45 0.65 0 1.10 0.30 1.10 0.75 0 0.65 -1.40 0.75 -9.50 0.75 -7.90 0 -9.50 -0.10 -9.50 -0.70 0 -0.50 1 -0.95 2.85 -1.30 2.10 -0.45 3.30 -1.05 4.50 -2.25 1.60 -1.60 1.65 -1.75 1.65 -5.90 0 -4.80 -0.05 -4.85 -3.90 -4.85 -4.05 0 -6.20 1.90 -7.35 6.35 -0.35 1.40 -0.90 2.40 -1.30 2.40 -0.75 0 -0.75 0.25 -0.55 -12.30 0.10 -7.85 0.65 -8.80 2.10 -3.50 0.50 1.70 1.40 3.65 2 4.30 1.05 1.10 1.60 1.25 5.10 1.25 l3.90 0 0 -11.25 c0 -6.20 -0.10 -11.25 -0.20 -11.25 -0.10 0 -2.65 1.75 -5.65 3.90 -2.95 2.10 -7.70 5.40 -10.50 7.30 l-5.15 3.50 0 8.10 0 8.10 1.65 0.55 c4.40 1.50 6.60 7 4.55 11.40 -1.90 4 -7.10 5.75 -11.05 3.70 -6.50 -3.30 -6.10 -12.20 0.70 -15.10 l2.15 -0.90 0 -7.05 c0 -6.55 -0.05 -7 -0.85 -6.55 -0.50 0.25 -3.95 2.60 -7.65 5.20 -3.70 2.60 -6.80 4.55 -6.90 4.30 -0.20 -0.55 0.45 -2.60 8.45 -25.85 3.55 -10.25 6.45 -18.85 6.45 -19.15 0 -0.25 -5.70 -0.45 -14.25 -0.45 -15 0 -15.85 0.10 -17.80 2.30 -3.05 3.50 -0.35 7.70 4.95 7.70 2.25 0 4.60 -1.55 4.60 -3 0 -1.05 -2.25 -3 -3.45 -3 -0.45 0 -1.45 0.45 -2.30 1 -0.80 0.55 -1.65 1 -1.85 1 -0.90 0 -0.30 -1.50 1 -2.50 1.05 -0.85 1.80 -1.05 3.50 -0.85 6.10 0.65 6.20 7.10 0.15 8.90 -4.20 1.25 -9.55 -2 -9.55 -5.75 0 -2.35 1.10 -4.45 3.05 -5.85 l1.55 -1.10 -1.55 -1.20 c-5.60 -4.40 -2.85 -11.65 4.45 -11.65 3.10 0 5.35 1.15 6.35 3.25 0.80 1.65 0.80 1.95 0.15 3.15 -1.15 2.05 -3.85 3.20 -6.05 2.60 -2 -0.55 -3.70 -2.15 -3.20 -3 0.20 -0.35 0.85 -0.20 1.95 0.50 2 1.20 3.20 1.25 4.70 0.20 2.95 -2.05 -0.65 -5.65 -4.95 -4.95 -5.60 0.95 -6.25 6.55 -1.05 9.20 1.75 0.90 3.05 1 14.90 1.05 7.10 0.05 13.15 0.05 13.35 0.05 0.25 -0.05 -1.70 -1.70 -4.30 -3.65 -28.75 -21.95 -32.80 -25.15 -32.30 -25.60 0.10 -0.10 8.95 0.05 19.60 0.30 10.70 0.30 19.50 0.40 19.55 0.30 0.10 -0.05 0.30 -8.15 0.45 -17.90 l0.35 -17.75 -2.45 -1.15 c-4.45 -2.05 -6.15 -6.80 -3.95 -11.10 1.55 -3.05 3.85 -4.50 7.05 -4.50 4.90 0 8.35 3.45 8.35 8.35 0 3.35 -1.50 5.55 -4.85 7.15 l-2.60 1.25 -0.15 17.50 c-0.10 9.60 0 17.70 0.20 17.95 0.15 0.20 1.75 0.50 3.55 0.65 l3.20 0.30 0.85 -2.20 c0.45 -1.20 3.95 -11.50 7.75 -22.90 3.85 -11.40 7.20 -20.90 7.45 -21.15 0.25 -0.25 0.85 1 1.45 2.95 0.60 1.85 2.55 8.25 4.40 14.15 1.85 5.90 4.60 14.90 6.20 20 l2.85 9.25 3.80 0.15 3.80 0.15 0.20 -3.65 c0.15 -2 0.25 -10.20 0.35 -18.25 l0.10 -14.55 -1.70 -0.55 c-3.25 -1.10 -5.35 -4.20 -5.35 -7.95 0 -4.35 3.10 -7.65 7.60 -7.95 3.55 -0.25 6.20 1.25 7.80 4.35 1.40 2.80 1.40 4.70 0 7.50 -0.90 1.75 -1.70 2.50 -3.75 3.50 l-2.60 1.25 -0.15 4.75 c-0.10 2.60 -0.25 10.75 -0.30 18.05 l-0.15 13.30 12.10 0.30 c6.65 0.20 15.55 0.35 19.80 0.35 4.20 0 7.65 0.15 7.65 0.40 0 0.20 -1.65 1.50 -3.65 2.90 -1.95 1.40 -10.55 7.45 -19 13.50 l-15.45 10.95 13.70 0.15 c14.75 0.15 15.55 0 17.65 -2.50 1.65 -1.90 1.60 -3.90 -0.05 -5.55 -2.40 -2.40 -7.50 -2.40 -9.05 -0.05 -1 1.55 -0.55 2.60 1.60 3.65 1.30 0.65 1.65 0.60 3.35 -0.35 2.20 -1.30 2.40 -1.35 2.40 -0.40 0 1.25 -2.50 2.80 -4.55 2.80 -4.20 0 -6.50 -4.45 -3.75 -7.25 3.70 -3.70 10.85 -2.15 12.70 2.80 0.80 2.05 0.10 4 -2.20 6.25 l-2.20 2.10 1.30 0.80 c0.70 0.50 1.70 1.55 2.20 2.45 2.75 4.50 -0.75 9.35 -6.75 9.35 -2.85 0 -5 -1.05 -6 -3 -1 -1.90 -0.95 -2.60 0.25 -4.15 2 -2.55 6.40 -2.65 8.45 -0.15 1.15 1.40 -0.05 2 -1.55 0.80 -1.55 -1.20 -3.25 -1.30 -4.80 -0.20 -2.75 1.90 -0.35 4.90 3.90 4.90 6.50 0 7.85 -6.15 2 -9.05 -2.15 -1.10 -2.70 -1.15 -16.15 -1.15 -10.95 0 -13.90 0.15 -13.70 0.65 0.85 2.25 13.85 43.90 13.85 44.35 0 0.95 -1.05 0.30 -7.90 -4.70 -3.55 -2.65 -6.65 -4.80 -6.80 -4.80 -0.15 0 -0.30 3.15 -0.30 6.95 l0 6.95 1.65 0.55 c3.60 1.20 6.20 5.55 5.50 9.25 -1 5.40 -7.05 8.30 -12 5.80z m6.65 -1.30 c4.60 -2.20 4.95 -8.85 0.60 -11.45 -5.95 -3.50 -12.50 3.25 -8.90 9.15 1.75 2.80 5.20 3.75 8.30 2.30z m-46.80 -1.10 c1.95 -1.40 3.15 -4.30 2.75 -6.45 -0.45 -2.40 -3 -4.95 -5.40 -5.40 -3.75 -0.70 -7.60 2.55 -7.60 6.50 0 5.25 6.05 8.40 10.25 5.35z m57.50 -20.90 c0 -0.25 -8.55 -27.60 -10.90 -34.95 -0.80 -2.50 -0.80 -2.35 -1.20 11.25 -0.25 7.55 -0.30 14.20 -0.15 14.75 0.15 0.55 2.80 2.85 5.85 5.10 5.40 3.95 6.40 4.55 6.40 3.85z m-62.80 -8.70 c0.85 -0.80 0.95 -2.05 1.10 -16.05 0.15 -10.10 0.05 -14.85 -0.25 -14.20 -0.70 1.35 -13.05 37.75 -13.05 38.35 0 0.45 10.45 -6.50 12.20 -8.10z m48.90 -16.10 c0.10 -8.05 0 -14.85 -0.15 -15.05 -0.15 -0.20 -4.95 2.90 -10.65 6.95 -9.85 7.05 -10.30 7.45 -9.45 8.25 1.35 1.30 19.25 14.45 19.70 14.45 0.20 0 0.45 -6.60 0.55 -14.60z m-39.75 9.75 c3 -2.15 7.40 -5.25 9.80 -6.90 2.40 -1.65 4.25 -3.20 4.20 -3.50 -0.10 -0.25 -4.55 -3.80 -9.90 -7.80 l-9.70 -7.30 -0.30 4.30 c-0.55 6.75 -0.50 25.05 0 25.05 0.25 0 2.90 -1.75 5.90 -3.85z m30.05 -21.35 c5.25 -3.75 9.60 -7.05 9.60 -7.30 0 -0.80 -8.05 -26.20 -8.40 -26.60 -0.20 -0.15 -6.65 -0.40 -14.35 -0.50 l-14 -0.15 -4.35 12.25 c-2.55 7.20 -4.30 12.90 -4.25 13.80 0.10 1.40 1.15 2.30 10.45 9.30 7.50 5.60 10.40 7.55 10.60 7.05 0.15 -0.40 0.30 -3.65 0.30 -7.20 l0 -6.45 -1.35 -0.60 c-2.55 -1.10 -4.15 -2.45 -5.15 -4.40 -1.30 -2.55 -1.25 -5.30 0.15 -7.70 1.65 -2.85 3.35 -3.95 6.70 -4.20 2.45 -0.15 3.20 0 4.65 1 2.65 1.80 4 4.15 4 7 0 3.85 -1.85 6.50 -5.60 8.10 l-1.90 0.75 0 7.60 0 7.55 1.65 -1.20 c0.85 -0.65 5.95 -4.30 11.25 -8.10z m-9.90 -9.20 c1.90 -1.35 3.15 -4.30 2.80 -6.35 -0.70 -3.60 -4.40 -6.10 -7.90 -5.40 -0.85 0.15 -2.30 1.10 -3.25 2.05 -1.70 1.65 -1.75 1.85 -1.55 4.65 0.15 2.20 0.50 3.25 1.40 4.20 2.20 2.35 5.95 2.70 8.50 0.85z m36 -9.05 c7 -5 14.65 -10.50 17 -12.20 l4.25 -3.10 -17.40 -0.45 c-9.55 -0.20 -17.45 -0.35 -17.55 -0.25 -0.10 0.10 -0.35 6 -0.55 13.10 -0.30 12.45 -0.30 12.90 0.60 12.45 0.50 -0.30 6.65 -4.60 13.65 -9.55z m-63.90 -4.30 l0.15 -12.50 -8.75 -0.35 c-13.55 -0.50 -26.50 -0.70 -26.50 -0.35 0 0.65 34.20 26.45 34.55 26.10 0.20 -0.25 0.45 -6 0.55 -12.90z m47.70 -11.60 c-0.10 -0.10 -1.50 -0.15 -3.15 -0.05 l-3 0.15 2.90 9.25 c1.60 5.10 2.95 9.35 3.05 9.50 0.05 0.15 0.20 -4 0.25 -9.20 0.10 -5.20 0.10 -9.55 -0.05 -9.65z m-42.15 7.35 c1.50 -4.25 2.55 -7.95 2.35 -8.15 -0.20 -0.25 -1.55 -0.35 -3.05 -0.25 l-2.70 0.15 -0.10 9 c-0.05 5.70 0.05 8.65 0.35 8 0.25 -0.55 1.70 -4.50 3.15 -8.75z m32.55 -9.90 c0.25 -0.40 -12 -40.55 -12.50 -41.05 -0.10 -0.10 -0.35 -0.10 -0.50 0.05 -0.35 0.35 -13.70 39.75 -13.70 40.45 0 0.25 4.35 0.50 9.65 0.60 5.25 0.05 11.20 0.15 13.20 0.25 1.95 0.05 3.70 -0.10 3.85 -0.30z m15.20 -38.50 c4.20 -2.75 3.10 -9.85 -1.75 -11.60 -1.95 -0.65 -2.30 -0.60 -4.45 0.25 -3 1.25 -4.35 3.55 -4.05 6.65 0.50 4.85 6.10 7.45 10.25 4.70z m-47.15 -1.10 c2.75 -2.60 2.80 -6.85 0.15 -9.45 -2.65 -2.55 -6 -2.70 -8.85 -0.25 -3.35 2.80 -2.90 7.65 0.95 10.40 1.80 1.25 6.05 0.90 7.75 -0.70z"/>
  <path d="M117 142.65 c-1.05 -0.40 -1.50 -1.20 -1.50 -2.70 0 -2.45 3.80 -3 4.70 -0.65 0.45 1.25 0.35 1.65 -0.70 2.70 -1.05 1.05 -1.25 1.10 -2.50 0.65z"/>
  <path d="M27.10 140.90 c-0.90 -0.90 -0.75 -2.65 0.30 -3.55 1.20 -1.10 2.25 -1.05 3.25 0.05 1.70 1.85 0.75 4.10 -1.65 4.10 -0.70 0 -1.55 -0.25 -1.90 -0.60z"/>
  <path d="M108.25 140.70 c-0.95 -1 -0.80 -3.15 0.30 -3.85 1.30 -0.80 3.40 0 3.75 1.45 0.60 2.40 -2.30 4.15 -4.05 2.40z"/>
  <path d="M35.10 139.90 c-0.90 -0.90 -0.75 -2.65 0.30 -3.55 1.20 -1.10 2.25 -1.05 3.25 0.05 1.70 1.85 0.75 4.10 -1.65 4.10 -0.70 0 -1.55 -0.25 -1.90 -0.60z"/>
  <path d="M117.90 134.40 c-0.45 -0.35 -0.95 -1.10 -1.10 -1.65 -0.80 -2.80 3.85 -4.20 4.90 -1.45 0.45 1.25 0.35 1.65 -0.70 2.70 -1.15 1.15 -2 1.25 -3.10 0.40z"/>
  <path d="M26.25 132.80 c-0.80 -0.80 -1.15 -1.55 -0.95 -2.15 0.40 -1.10 1.65 -2.15 2.55 -2.15 0.90 0 2.65 1.85 2.65 2.75 0 0.85 -1.75 2.75 -2.50 2.75 -0.30 0 -1.10 -0.55 -1.75 -1.20z"/>
  <path d="M140.50 65.50 c-0.55 -0.55 -1 -1.35 -1 -1.75 0 -0.40 0.45 -1.20 1 -1.75 0.55 -0.55 1.35 -1 1.75 -1 0.40 0 1.20 0.45 1.75 1 0.55 0.55 1 1.35 1 1.75 0 0.40 -0.45 1.20 -1 1.75 -0.55 0.55 -1.35 1 -1.75 1 -0.40 0 -1.20 -0.45 -1.75 -1z"/>
  <path d="M5 63 c-1.20 -1.20 -1.25 -2.15 -0.20 -3.20 0.90 -0.95 2.75 -1.05 3.60 -0.20 0.95 0.95 0.75 3.30 -0.35 3.90 -1.40 0.70 -1.90 0.65 -3.05 -0.50z"/>
  <path d="M144.10 58.40 c-0.90 -0.90 -0.70 -2.65 0.45 -3.70 0.95 -0.85 1.15 -0.85 2.35 -0.15 1.50 0.80 2 2.60 1.10 3.75 -0.75 0.85 -3.05 0.95 -3.90 0.10z"/>
  <path d="M1.60 55.90 c-0.75 -0.75 -0.75 -3.05 0 -3.80 1 -1 2.80 -0.70 3.70 0.65 0.75 1.15 0.75 1.35 0 2.50 -0.90 1.35 -2.70 1.65 -3.70 0.65z"/>
  <path d="M136.95 54.45 c-0.70 -0.70 -0.90 -1.35 -0.65 -2.10 0.65 -2.20 2.70 -2.85 4.15 -1.40 1.30 1.30 1.30 2.30 0.05 3.55 -1.25 1.25 -2.25 1.25 -3.55 -0.05z"/>
  <path d="M8.60 52.40 c-1.40 -1.40 -0.10 -4.40 1.90 -4.40 2 0 3.30 3 1.90 4.40 -0.75 0.75 -3.05 0.75 -3.80 0z"/>
  <path d="M67.30 10.90 c-1 -1.40 -1 -2.15 0 -3.10 1.20 -1.20 3.05 -1 4 0.45 0.75 1.15 0.75 1.35 0 2.50 -1.05 1.60 -2.95 1.65 -4 0.15z"/>
  <path d="M78.80 11.20 c-1.05 -1 -1 -1.85 0.10 -3.20 1.90 -2.35 5.55 0.25 3.85 2.80 -0.90 1.40 -2.80 1.60 -3.95 0.40z"/>
  <path d="M73.25 5.50 c-1.35 -1.45 -0.50 -3.70 1.40 -3.90 1.85 -0.20 2.85 0.65 2.85 2.45 0 2.35 -2.65 3.25 -4.25 1.45z"/>
 </g>
 <g fill="#ffffff">
  <path d="M0 77.50 l0 -77.50 75 0 75 0 0 77.50 0 77.50 -75 0 -75 0 0 -77.50z m102.05 75.65 c2.80 -1.65 4.25 -5.35 3.45 -8.85 -0.50 -2.30 -3.05 -5.10 -5.35 -5.85 l-1.65 -0.55 0 -6.95 c0 -3.80 0.15 -6.95 0.30 -6.95 0.15 0 3.25 2.15 6.80 4.80 6.85 5 7.90 5.65 7.90 4.70 0 -0.45 -13 -42.10 -13.85 -44.35 -0.20 -0.50 2.75 -0.65 13.70 -0.65 13.45 0 14 0.05 16.15 1.15 5.85 2.90 4.50 9.05 -2 9.05 -4.25 0 -6.65 -3 -3.90 -4.90 1.55 -1.10 3.25 -1 4.80 0.20 1.50 1.20 2.70 0.60 1.55 -0.80 -2.05 -2.50 -6.45 -2.40 -8.45 0.15 -1.20 1.55 -1.25 2.25 -0.25 4.15 2.15 4.10 10.25 4 12.80 -0.20 1.75 -2.85 0.75 -6.60 -2.25 -8.60 l-1.30 -0.80 2.20 -2.10 c1.15 -1.15 2.25 -2.75 2.40 -3.55 0.90 -4.55 -4.70 -8.75 -9.70 -7.30 -2.80 0.85 -4.40 2.60 -4.40 4.75 0 3.60 5.15 5.65 8.20 3.25 0.70 -0.55 1.30 -1.35 1.30 -1.75 0 -0.95 -0.20 -0.90 -2.40 0.40 -1.70 0.95 -2.05 1 -3.35 0.35 -2.15 -1.05 -2.60 -2.10 -1.60 -3.65 1.55 -2.35 6.65 -2.35 9.05 0.05 1.65 1.65 1.70 3.65 0.05 5.55 -2.10 2.50 -2.90 2.65 -17.65 2.50 l-13.70 -0.15 15.45 -10.95 c8.45 -6.05 17.05 -12.10 19 -13.50 2 -1.40 3.65 -2.70 3.65 -2.90 0 -0.25 -3.45 -0.40 -7.65 -0.40 -4.25 0 -13.15 -0.15 -19.80 -0.35 l-12.10 -0.30 0.15 -13.30 c0.05 -7.30 0.20 -15.45 0.30 -18.05 l0.15 -4.75 2.60 -1.25 c2.05 -1 2.85 -1.75 3.75 -3.50 1.40 -2.80 1.40 -4.70 0 -7.50 -1.60 -3.10 -4.25 -4.60 -7.80 -4.35 -4.50 0.30 -7.60 3.60 -7.60 7.95 0 3.75 2.10 6.85 5.35 7.95 l1.70 0.55 -0.10 14.55 c-0.10 8.05 -0.20 16.25 -0.35 18.25 l-0.20 3.65 -3.80 -0.15 -3.80 -0.15 -2.85 -9.25 c-1.60 -5.10 -4.35 -14.10 -6.20 -20 -1.85 -5.90 -3.80 -12.30 -4.40 -14.15 -0.60 -1.95 -1.20 -3.20 -1.45 -2.95 -0.25 0.25 -3.60 9.75 -7.45 21.15 -3.80 11.40 -7.30 21.70 -7.75 22.90 l-0.85 2.20 -3.20 -0.30 c-1.80 -0.15 -3.40 -0.45 -3.55 -0.65 -0.20 -0.25 -0.30 -8.35 -0.20 -17.95 l0.15 -17.50 2.60 -1.25 c3.35 -1.60 4.85 -3.80 4.85 -7.15 0 -4.90 -3.45 -8.35 -8.35 -8.35 -3.20 0 -5.50 1.45 -7.05 4.50 -2.20 4.30 -0.50 9.05 3.95 11.10 l2.45 1.15 -0.35 17.75 c-0.15 9.75 -0.35 17.85 -0.45 17.90 -0.05 0.10 -8.85 0 -19.55 -0.30 -10.65 -0.25 -19.50 -0.40 -19.60 -0.30 -0.50 0.45 3.55 3.65 32.30 25.60 2.60 1.95 4.55 3.60 4.30 3.65 -0.20 0 -6.25 0 -13.35 -0.05 -11.85 -0.05 -13.15 -0.15 -14.90 -1.05 -5.20 -2.65 -4.55 -8.25 1.05 -9.20 4.30 -0.70 7.90 2.90 4.95 4.95 -1.50 1.05 -2.70 1 -4.70 -0.20 -1.10 -0.70 -1.75 -0.85 -1.95 -0.50 -0.50 0.85 1.20 2.45 3.20 3 2.20 0.60 4.90 -0.55 6.05 -2.60 0.65 -1.20 0.65 -1.50 -0.15 -3.15 -2.05 -4.30 -10.25 -4.40 -12.85 -0.15 -1.80 2.95 -1 6.15 2.05 8.55 l1.55 1.20 -1.55 1.10 c-1.95 1.40 -3.05 3.50 -3.05 5.85 0 3.75 5.35 7 9.55 5.75 6.05 -1.80 5.95 -8.25 -0.15 -8.90 -1.70 -0.20 -2.45 0 -3.50 0.85 -1.30 1 -1.90 2.50 -1 2.50 0.20 0 1.05 -0.45 1.85 -1 1.90 -1.25 2.80 -1.25 4.45 0.05 3.80 3 -2.05 6.50 -6.95 4.15 -2.80 -1.30 -3.40 -4.50 -1.30 -6.90 1.95 -2.20 2.80 -2.30 17.80 -2.30 8.55 0 14.25 0.20 14.25 0.45 0 0.30 -2.90 8.90 -6.45 19.15 -8 23.25 -8.65 25.30 -8.45 25.85 0.10 0.25 3.20 -1.70 6.90 -4.30 3.70 -2.60 7.15 -4.95 7.65 -5.20 0.80 -0.45 0.85 0 0.85 6.55 l0 7.05 -2.15 0.90 c-6.80 2.90 -7.20 11.80 -0.70 15.10 3.95 2.05 9.15 0.30 11.05 -3.70 2.05 -4.40 -0.15 -9.90 -4.55 -11.40 l-1.65 -0.55 0 -8.10 0 -8.10 5.15 -3.50 c2.80 -1.90 7.55 -5.20 10.50 -7.30 3 -2.15 5.55 -3.90 5.65 -3.90 0.10 0 0.20 5.05 0.20 11.25 l0 11.25 -3.90 0 c-3.50 0 -4.05 -0.15 -5.10 -1.25 -0.60 -0.65 -1.50 -2.60 -2 -4.30 -1.45 -5.30 -2 -4.35 -2.10 3.50 -0.20 12.55 -0.20 12.30 0.55 12.30 0.40 0 0.95 -1 1.30 -2.40 1.15 -4.45 3.30 -6.35 7.35 -6.35 3.85 0 3.90 0.05 3.90 4.85 0 4.15 -0.05 4.30 -1.65 5.90 -1.20 1.20 -2.40 1.80 -4.50 2.25 -1.85 0.35 -2.85 0.80 -2.85 1.30 0 0.60 1.60 0.70 9.50 0.70 8.10 0 9.50 -0.10 9.50 -0.75 0 -0.45 -0.45 -0.75 -1.10 -0.75 -1.70 0 -6.25 -2.30 -6.85 -3.45 -0.30 -0.55 -0.55 -2.90 -0.55 -5.25 l0 -4.30 3.70 0 c4.65 0 5.55 0.65 7 5.20 0.60 1.85 1.30 3.35 1.60 3.35 0.25 -0.05 0.50 -4.05 0.60 -9.55 0.10 -7.75 0 -9.50 -0.55 -9.50 -0.45 0 -0.95 1.05 -1.30 2.80 -0.65 2.80 -2.60 5.55 -4.05 5.75 -0.40 0.05 -2.20 0.05 -3.95 0 l-3.15 -0.05 0.25 -11.25 c0.10 -6.20 0.35 -11.40 0.45 -11.50 0.30 -0.30 21.45 15.30 22.05 16.30 0.30 0.50 0.35 3.45 0.10 8 l-0.35 7.25 -2.40 1.10 c-8.35 3.85 -4.95 16.40 4.15 15.40 1.30 -0.15 3.05 -0.65 3.90 -1.15z m17.45 -11.15 c1.05 -1.05 1.15 -1.45 0.70 -2.70 -0.90 -2.35 -4.70 -1.80 -4.70 0.65 0 1.50 0.45 2.30 1.50 2.70 1.25 0.45 1.45 0.40 2.50 -0.65z m-88.60 -1.10 c1.30 -1.30 0 -4.40 -1.80 -4.40 -1.15 0 -2.60 1.50 -2.60 2.75 0 1.40 0.90 2.25 2.50 2.25 0.70 0 1.55 -0.25 1.90 -0.60z m80.85 -0.40 c1.20 -1.35 0.65 -3.40 -1.10 -3.80 -1.65 -0.45 -2.85 0.30 -3.05 1.90 -0.30 2.50 2.45 3.80 4.15 1.90z m-72.85 -0.60 c1.30 -1.30 0 -4.40 -1.80 -4.40 -1.15 0 -2.60 1.50 -2.60 2.75 0 1.40 0.90 2.25 2.50 2.25 0.70 0 1.55 -0.25 1.90 -0.60z m82.10 -5.90 c1.05 -1.05 1.15 -1.45 0.70 -2.70 -0.75 -1.90 -3.60 -1.95 -4.80 -0.10 -0.80 1.20 0.85 3.80 2.45 3.80 0.35 0 1.10 -0.45 1.65 -1z m-91.50 -1 c0.55 -0.55 1 -1.35 1 -1.75 0 -0.90 -1.75 -2.75 -2.65 -2.75 -0.90 0 -2.15 1.05 -2.55 2.15 -0.20 0.60 0.15 1.35 0.95 2.15 1.45 1.45 1.95 1.50 3.25 0.20z m114.50 -67.50 c0.55 -0.55 1 -1.35 1 -1.75 0 -0.40 -0.45 -1.20 -1 -1.75 -0.55 -0.55 -1.35 -1 -1.75 -1 -0.40 0 -1.20 0.45 -1.75 1 -0.55 0.55 -1 1.35 -1 1.75 0 0.40 0.45 1.20 1 1.75 0.55 0.55 1.35 1 1.75 1 0.40 0 1.20 -0.45 1.75 -1z m-135.95 -2 c1.10 -0.60 1.30 -2.95 0.35 -3.90 -1.35 -1.35 -4.40 -0.15 -4.40 1.70 0 0.80 1.75 2.70 2.55 2.70 0.30 0 0.95 -0.25 1.50 -0.50z m139.95 -5.20 c0.90 -1.15 0.40 -2.95 -1.10 -3.75 -1.20 -0.70 -1.40 -0.70 -2.35 0.15 -1.15 1.05 -1.35 2.80 -0.45 3.70 0.85 0.85 3.15 0.75 3.90 -0.10z m-142.70 -3.05 c0.75 -1.15 0.75 -1.35 0 -2.50 -1.45 -2.20 -4.30 -1.40 -4.30 1.25 0 2.65 2.85 3.45 4.30 1.25z m135.20 -0.75 c1.25 -1.25 1.25 -2.25 -0.05 -3.55 -0.70 -0.70 -1.35 -0.90 -2.10 -0.65 -2.20 0.65 -2.85 2.70 -1.40 4.15 1.30 1.30 2.30 1.30 3.55 0.05z m-128.10 -2.10 c1.40 -1.40 0.10 -4.40 -1.90 -4.40 -2 0 -3.30 3 -1.90 4.40 0.75 0.75 3.05 0.75 3.80 0z m58.90 -41.65 c0.75 -1.15 0.75 -1.35 0 -2.50 -0.95 -1.45 -2.80 -1.65 -4 -0.45 -1 0.95 -1 1.70 0 3.10 1.05 1.50 2.95 1.45 4 -0.15z m11.45 0.05 c1.70 -2.55 -1.95 -5.15 -3.85 -2.80 -1.10 1.35 -1.15 2.20 -0.10 3.20 1.15 1.20 3.05 1 3.95 -0.40z m-6.20 -4.80 c1.15 -0.65 1.30 -3.10 0.25 -3.95 -2.30 -1.90 -5.55 1.25 -3.55 3.45 1 1.10 1.85 1.25 3.30 0.50z"/>
  <path d="M94.65 152.25 c-3.35 -1.45 -4.65 -6.25 -2.65 -9.50 2.45 -3.95 8.80 -3.80 11.20 0.25 1.80 3.10 0.40 7.65 -2.90 9.20 -2.05 0.95 -3.55 1 -5.65 0.05z"/>
  <path d="M47.05 151.65 c-2.50 -1.30 -3.80 -3.30 -3.80 -5.90 0 -3.95 3.85 -7.20 7.60 -6.50 2.40 0.45 4.95 3 5.40 5.40 0.95 5 -4.75 9.35 -9.20 7z"/>
  <path d="M104.60 126.35 c-3.05 -2.25 -5.70 -4.55 -5.85 -5.10 -0.15 -0.55 -0.10 -7.20 0.15 -14.75 0.40 -13.60 0.40 -13.75 1.20 -11.25 2.35 7.35 10.90 34.70 10.90 34.95 0 0.70 -1 0.10 -6.40 -3.85z"/>
  <path d="M36 129.60 c0 -0.60 12.35 -37 13.05 -38.35 0.30 -0.65 0.40 4.10 0.25 14.20 -0.15 14 -0.25 15.25 -1.10 16.05 -1.75 1.60 -12.20 8.55 -12.20 8.10z"/>
  <path d="M86.95 113.20 c-5.05 -3.70 -9.60 -7.15 -10.10 -7.65 -0.85 -0.80 -0.40 -1.20 9.45 -8.25 5.70 -4.05 10.50 -7.15 10.65 -6.95 0.45 0.60 0.05 29.65 -0.40 29.65 -0.20 0 -4.50 -3.05 -9.60 -6.80z"/>
  <path d="M51.05 108.65 c0.05 -5.75 0.20 -12.35 0.40 -14.70 l0.30 -4.30 9.70 7.30 c5.35 4 9.80 7.55 9.90 7.80 0.05 0.30 -1.80 1.85 -4.20 3.50 -2.40 1.65 -6.80 4.75 -9.80 6.90 -3 2.10 -5.65 3.85 -5.90 3.85 -0.25 0 -0.45 -4.40 -0.40 -10.35z"/>
  <path d="M74.50 95.55 l0 -7.60 1.90 -0.75 c6.85 -2.85 7.70 -10.95 1.60 -15.10 -1.45 -1 -2.20 -1.15 -4.65 -1 -3.35 0.25 -5.05 1.35 -6.70 4.20 -2.65 4.55 -0.50 9.75 5 12.10 l1.35 0.60 0 6.45 c0 3.55 -0.15 6.80 -0.30 7.20 -0.20 0.50 -3.10 -1.45 -10.60 -7.05 -9.30 -7 -10.35 -7.90 -10.45 -9.30 -0.05 -0.90 1.70 -6.60 4.25 -13.80 l4.35 -12.25 14 0.15 c7.70 0.10 14.15 0.35 14.35 0.50 0.35 0.40 8.40 25.80 8.40 26.60 0 0.25 -4.35 3.55 -9.60 7.30 -5.30 3.80 -10.40 7.45 -11.25 8.10 l-1.65 1.20 0 -7.55z"/>
  <path d="M71.70 85.50 c-2.60 -0.80 -3.85 -2.65 -4.10 -5.95 -0.20 -2.80 -0.15 -3 1.55 -4.65 0.95 -0.95 2.40 -1.90 3.25 -2.05 5.20 -1.05 9.55 4.35 7.30 8.95 -1.65 3.25 -4.70 4.65 -8 3.70z"/>
  <path d="M99.25 72.65 c0.20 -7.10 0.45 -13 0.55 -13.10 0.10 -0.10 8 0.05 17.55 0.25 l17.40 0.45 -4.25 3.10 c-7.45 5.45 -29.70 21.20 -30.65 21.75 -0.90 0.45 -0.90 0 -0.60 -12.45z"/>
  <path d="M31.60 71.45 c-9.40 -7.20 -17.10 -13.20 -17.10 -13.40 0 -0.35 12.95 -0.15 26.50 0.35 l8.75 0.35 -0.15 12.50 c-0.10 6.90 -0.35 12.65 -0.55 12.90 -0.20 0.20 -8.05 -5.50 -17.45 -12.70z"/>
  <path d="M97.10 78.50 c-0.10 -0.15 -1.45 -4.40 -3.05 -9.50 l-2.90 -9.25 3 -0.15 c1.65 -0.10 3.05 -0.05 3.15 0.05 0.15 0.10 0.15 4.45 0.05 9.65 -0.05 5.20 -0.20 9.35 -0.25 9.20z"/>
  <path d="M51.65 67.75 l0.10 -9 2.70 -0.15 c1.50 -0.10 2.85 0 3.05 0.25 0.30 0.35 -4 13.60 -5.50 16.90 -0.30 0.65 -0.40 -2.30 -0.35 -8z"/>
  <path d="M70.65 57.15 c-5.30 -0.10 -9.65 -0.35 -9.65 -0.60 0 -0.70 13.35 -40.10 13.70 -40.45 0.15 -0.15 0.40 -0.15 0.50 -0.05 0.50 0.50 12.75 40.65 12.50 41.05 -0.15 0.20 -1.90 0.35 -3.85 0.30 -2 -0.10 -7.95 -0.20 -13.20 -0.25z"/>
  <path d="M97.25 19.45 c-2.40 -0.70 -4.35 -3 -4.60 -5.55 -0.30 -3.10 1.05 -5.40 4.05 -6.65 2.15 -0.85 2.50 -0.90 4.45 -0.25 3.75 1.35 5.50 5.85 3.65 9.45 -1.35 2.55 -4.65 3.90 -7.55 3z"/>
  <path d="M48 18.20 c-3.85 -2.75 -4.30 -7.60 -0.95 -10.40 2.85 -2.45 6.20 -2.30 8.85 0.25 2.65 2.60 2.60 6.85 -0.15 9.45 -1.70 1.60 -5.95 1.95 -7.75 0.70z"/>
 </g>
</svg>