<?xml version="1.0" encoding="utf-8"?>
<!DOCTYPE svg PUBLIC "-//W3C//DTD SVG 1.0//EN" "http://www.w3.org/TR/2001/REC-SVG-20010904/DTD/svg10.dtd">
<svg version="1.0" xmlns="http://www.w3.org/2000/svg" width="165px" height="134px" viewBox="0 0 165 134" preserveAspectRatio="xMidYMid meet">
 <g fill="#000000">
  <path d="M90 133.55 c0 -0.20 -2 -0.55 -4.45 -0.70 -2.50 -0.15 -5 -0.55 -5.60 -0.85 -1 -0.55 -1.05 -0.85 -0.75 -4.45 0.20 -2.10 1.10 -8.30 2.05 -13.80 4.40 -25.40 5.80 -34.35 5.55 -35 -0.15 -0.50 -0.95 -0.75 -2.15 -0.75 -1.05 -0.05 -3.70 -0.35 -5.90 -0.75 -2.20 -0.40 -4.20 -0.50 -4.40 -0.30 -0.50 0.50 -2.35 9.65 -2.35 11.55 0 0.70 0.70 1.90 1.65 2.90 1.45 1.50 1.60 1.90 1.60 4.85 0 2.70 -0.20 3.35 -1.25 4.50 -4.80 5.15 -12.65 2.35 -12.65 -4.50 0 -2.90 1.45 -5.20 4.20 -6.55 l2.25 -1.15 1.20 -6.30 c0.75 -3.85 1 -6.40 0.70 -6.65 -0.25 -0.25 -2.25 -0.95 -4.45 -1.55 -2.20 -0.65 -5.35 -1.70 -6.95 -2.35 -2.30 -0.95 -3.10 -1.05 -3.40 -0.60 -0.50 0.85 -8.90 25.85 -8.90 26.60 0 0.30 2.85 1.45 6.40 2.50 3.50 1.05 7.30 2.40 8.50 2.95 2.65 1.20 2.65 1.75 0.60 11.10 -1.50 6.95 -3.55 12.45 -4.90 13.20 -2.15 1.20 -21 -5.80 -21.90 -8.15 -0.10 -0.30 3.50 -11.55 8.05 -25 4.55 -13.40 8.25 -24.80 8.25 -25.35 0 -0.50 -0.20 -0.95 -0.40 -0.95 -0.25 0 -2.60 -1.35 -5.25 -3 -2.60 -1.65 -4.90 -3 -5.05 -3 -0.40 0 -3.80 7.40 -3.80 8.30 0 0.35 0.55 1.50 1.25 2.50 4.40 6.50 -3.75 14.35 -10.15 9.75 -2 -1.40 -3.35 -4.90 -2.85 -7.35 0.45 -2.60 3.05 -5.10 5.65 -5.50 2.05 -0.30 2.05 -0.35 4.15 -5.20 1.15 -2.70 2 -5.10 1.90 -5.40 -0.25 -0.65 -6.30 -5.60 -6.85 -5.60 -0.50 0 -14.60 21.25 -14.60 21.95 0 0.65 3.30 3.50 8.70 7.55 4.80 3.60 4.80 3.65 4.50 5.45 -0.90 5.25 -6.25 15.95 -8.70 17.45 -1 0.60 -1.30 0.45 -3.35 -1.75 -2.90 -3.15 -8.05 -10.90 -10.45 -15.75 l-1.90 -3.80 7.40 -11.20 c4.05 -6.15 9.20 -13.90 11.35 -17.20 l4 -6.10 -1.90 -2.95 c-1.05 -1.65 -2.25 -3.95 -2.65 -5.10 -0.50 -1.55 -1.25 -2.50 -2.55 -3.35 -2.40 -1.50 -2.65 -1.90 -2.95 -5.20 -0.15 -1.50 -0.45 -2.75 -0.70 -2.75 -0.25 0 -1.45 1.45 -2.70 3.25 -1.95 2.85 -2.15 3.45 -1.95 5.20 0.55 4.05 -2.30 7.25 -5.85 6.60 -3.15 -0.60 -4.70 -3.15 -4.10 -6.60 0.40 -2.05 2.65 -3.70 5.15 -3.70 1.45 0 1.80 -0.30 2.85 -2.35 0.65 -1.35 1.80 -3.15 2.50 -4.10 1.65 -2.25 1.65 -2.55 -0.25 -2.55 -3.20 0 -5.45 -2.15 -5.45 -5.25 0 -4.10 3.85 -6.40 7.50 -4.50 1.85 0.95 2.60 2.40 2.60 4.85 -0.05 1.80 0.50 2.45 1.15 1.45 0.50 -0.85 17.05 -10.55 24.05 -14.10 10.05 -5.10 15.75 -6.65 28.15 -7.45 16.75 -1.15 29.60 1.30 43.25 8.10 12.10 6.05 22.30 14.10 27.40 21.55 2 2.95 4.60 8.20 6.10 12.45 1.30 3.60 2.90 4.90 6 4.90 1.50 0 3.25 -0.35 4.30 -0.90 4.45 -2.35 4.70 -10.05 0.40 -11.55 -3.50 -1.20 -7.40 0.95 -7.40 4.10 0 2 1.25 3.35 3.15 3.35 1.60 0 1.65 -0.15 0.35 -1.90 -1.25 -1.70 -0.90 -2.85 1.10 -3.55 2.80 -1 4.40 1 3.70 4.70 -0.40 2.10 -2 3.30 -4.95 3.60 -2.70 0.30 -4.45 -1 -5.55 -4.20 -1.20 -3.55 -1.05 -5 0.85 -6.90 2.90 -2.90 9.35 -2.85 13.20 0.05 3.95 3 3.05 11 -1.75 15.30 -6.35 5.75 -12.30 4.15 -17.10 -4.50 -1.10 -1.95 -1.25 -2.05 -1.60 -1.10 -0.20 0.55 -0.55 4.05 -0.70 7.75 -0.30 5.40 -0.20 6.75 0.30 6.75 0.35 0 3.40 1.10 6.80 2.50 5.30 2.10 6.35 2.40 7.75 2 1.75 -0.50 4.55 0 6 1.15 0.45 0.35 1.30 1.40 1.90 2.35 3.20 5.30 -1.85 11.95 -8.05 10.55 l-1.90 -0.45 2.20 2.10 c6.40 6.25 2.70 16.85 -6 17 -2.30 0 -2.90 -0.20 -4.15 -1.40 -2.50 -2.40 -3.90 -8.30 -2.55 -10.80 0.80 -1.50 3.85 -2.20 6.40 -1.55 1.15 0.35 2.30 1 2.60 1.50 0.60 1.20 0.80 3.65 0.30 4.45 -0.40 0.65 -2.30 0.85 -2.30 0.20 0 -0.85 -2.05 -2.55 -2.75 -2.30 -1.75 0.70 -1.35 3.10 0.90 5.55 1.80 2 4.70 1.30 6.10 -1.35 1.90 -3.70 0.15 -8.25 -3.95 -10.25 -2.65 -1.30 -6.75 -2.25 -9.55 -2.25 l-1.65 0 -0.30 3.65 c-1.05 12.75 -1.05 12.10 0.50 13.30 2.25 1.75 3.20 3.60 3.20 6.05 0 7.30 -9.50 9.85 -13.20 3.55 -2.25 -3.90 -0.25 -8.90 4.30 -10.65 0.15 -0.10 0.45 -3.85 0.65 -8.35 l0.40 -8.20 -5.05 0.35 c-2.80 0.20 -5.70 0.55 -6.45 0.75 l-1.40 0.35 -0.60 7 c-0.35 3.80 -1 10.10 -1.40 13.90 -0.40 3.85 -0.60 7.15 -0.45 7.40 0.15 0.20 2.35 0.40 4.95 0.40 2.55 0 5 0.15 5.45 0.30 0.70 0.25 0.80 1.40 0.80 7.45 0 3.95 -0.15 7.50 -0.30 7.95 -0.85 2.20 -14.25 8.45 -16.40 7.65 -1.10 -0.45 -1.05 -2.15 0.40 -16 0.70 -6.40 1.40 -13.50 1.55 -15.85 0.20 -2.35 0.65 -7.30 1.05 -11 1.05 -10.35 1.25 -9.50 -2.40 -9.50 -5.40 0 -5.15 -0.30 -6.15 7 l-0.85 6.45 1.80 1.55 c5.65 5 1.15 13.70 -6.40 12.30 -3.70 -0.70 -6.30 -5.05 -5.30 -8.85 0.55 -1.95 3.45 -4.95 4.80 -4.95 0.40 0 0.90 -0.50 1.15 -1.10 0.60 -1.75 1.70 -11.40 1.30 -11.80 -0.35 -0.35 -11.60 -1 -12.55 -0.70 -0.55 0.15 -5.05 25.90 -4.60 26.35 0.15 0.20 13.40 2.25 14.50 2.25 0.20 0 0.45 0.40 0.60 0.90 0.40 1.30 -2.95 23.95 -3.70 24.85 -0.45 0.55 -1.65 0.75 -4.55 0.75 -2.20 0 -3.95 -0.20 -3.95 -0.45z m5 -6.05 c0.60 -1.15 2.50 -11.90 2.50 -14.25 0 -0.95 -0.15 -1.80 -0.35 -1.90 -0.25 -0.15 -2.85 -0.30 -5.90 -0.40 l-5.50 -0.20 -1.30 8.25 c-0.85 5.40 -1.10 8.45 -0.80 8.90 0.30 0.40 2.10 0.60 5.65 0.60 4.60 0 5.20 -0.10 5.70 -1z m27 -3.90 l3.75 -1.95 0.45 -4.05 c0.60 -5.65 0.60 -5.65 -4.05 -5.50 l-3.90 0.15 -0.60 5.75 c-0.75 7.45 -0.75 7.50 0 7.50 0.30 0 2.30 -0.85 4.35 -1.90z m-67.05 -3.75 c1.55 -4.25 2.50 -7.90 2.65 -10.35 l0.15 -2.25 -6.45 -2.15 c-5.25 -1.75 -6.60 -2 -7.10 -1.50 -0.60 0.65 -4.20 11.90 -4.20 13.15 0 0.35 2.20 1.50 4.90 2.50 2.65 1.05 5.55 2.20 6.35 2.55 2.35 1 2.60 0.85 3.70 -1.95z m82.35 -16.15 c2.15 -2.10 0.75 -5.35 -2.35 -5.35 -1.75 0 -3.45 1.55 -3.45 3.25 0 1.25 2.20 3.40 3.50 3.40 0.60 0 1.60 -0.55 2.30 -1.30z m-30.85 -2.50 c1.35 -1.70 1.30 -2.50 -0.20 -3.95 -1.40 -1.45 -2.75 -1.60 -4.15 -0.35 -1.55 1.35 -1.75 2.75 -0.55 4.25 1.40 1.80 3.50 1.80 4.90 0.05z m-85.85 -3.15 c1.60 -1.90 3 -5.05 3.65 -8.40 0.30 -1.55 0.25 -1.65 -5.50 -5.35 -3.20 -2.10 -6.10 -3.80 -6.45 -3.80 -0.60 0 -4.30 4.90 -4.30 5.70 0 0.60 10.10 13.80 10.55 13.80 0.20 0 1.15 -0.90 2.05 -1.95z m49.80 0.65 c2.30 -1.60 0.85 -5.70 -2.05 -5.70 -1.10 0 -3.35 2.15 -3.35 3.25 0 1.10 2.25 3.25 3.35 3.25 0.50 0 1.45 -0.35 2.05 -0.80z m-36.20 -19.25 c3.60 -2.85 -0.75 -8.35 -4.55 -5.70 -1.45 1 -1.85 2.95 -0.90 4.70 1.15 2.30 3.30 2.70 5.45 1z m117.10 -3.50 c-1.45 -1.70 -1.70 -2.60 -1.90 -5.95 l-0.15 -2.25 -3.40 -1.65 c-1.90 -0.90 -4.05 -1.75 -4.80 -1.90 -1.75 -0.35 -2.05 0.45 -2.05 6.10 l0 4.05 4 0.60 c2.15 0.30 5.15 1 6.60 1.55 1.45 0.50 2.75 0.95 2.80 0.95 0.10 0.05 -0.40 -0.65 -1.10 -1.50z m-45.20 -6.70 c1.05 -6.35 3.50 -24.85 3.30 -25 -0.45 -0.35 -11.90 -0.65 -12.15 -0.25 -0.45 0.70 -4.80 27.65 -4.65 28.75 0.15 0.85 0.65 1.05 3.40 1.30 1.80 0.15 4.60 0.30 6.25 0.25 l3 -0.05 0.85 -5z m11.35 4.35 c0.25 -0.50 0.55 -2.65 0.65 -4.85 l0.15 -4 -1.95 -0.15 c-1.10 -0.10 -2.65 -0.60 -3.40 -1.15 -1.05 -0.80 -1.45 -0.85 -1.60 -0.35 -0.50 1.65 -1.75 10.60 -1.50 11 0.15 0.20 1.80 0.40 3.70 0.40 2.80 0 3.55 -0.15 3.95 -0.90z m12.55 0.40 l4.40 0 0.30 -1.85 c0.15 -1.05 0.35 -3.60 0.40 -5.65 0.15 -3.65 0.10 -3.75 -1.25 -4.40 -0.80 -0.40 -3.50 -0.80 -6.05 -0.95 l-4.65 -0.30 -0.30 2.45 c-0.70 5.65 -0.95 9.70 -0.65 10.50 0.25 0.60 0.70 0.75 1.85 0.50 0.90 -0.15 3.55 -0.30 5.95 -0.30z m28.70 -0.55 c1.75 -1.40 1.65 -3.65 -0.25 -5.10 -3.20 -2.35 -6.80 2.30 -3.95 5.15 1.30 1.30 2.55 1.25 4.20 -0.05z m-70.50 -1.30 c0.75 -2.50 4.80 -28.85 4.45 -29.15 -0.55 -0.45 -8.05 -2.10 -9.85 -2.20 -1.75 -0.05 -1.25 -1.70 -4.80 16.45 -1.45 7.50 -2.20 12.70 -1.95 13.05 0.25 0.30 2.30 0.95 4.55 1.40 2.30 0.50 4.40 1 4.65 1.05 1.40 0.45 2.70 0.15 2.95 -0.60z m-16.95 -3.65 c0.35 -0.55 5.75 -27.80 5.75 -29.05 0 -0.55 -1.45 -1.40 -4.35 -2.65 -2.45 -1 -4.60 -1.80 -4.90 -1.80 -0.70 0 -10 27.65 -9.65 28.60 0.25 0.60 4.95 2.70 11.40 5.05 1.15 0.40 1.40 0.40 1.75 -0.15z m-12.85 -20.70 c2.60 -7.55 4.60 -14.10 4.50 -14.55 -0.25 -1.20 -7.20 -4.85 -7.85 -4.10 -0.85 1.05 -12.10 26.50 -11.90 27 0.20 0.65 8.85 5.35 9.85 5.35 0.55 0 2.10 -3.95 5.40 -13.70z m60.40 12.50 c0.65 -1.10 0.70 -1.45 0.10 -2.65 -0.55 -1.15 -1 -1.40 -2.40 -1.40 -1.35 0 -1.90 0.30 -2.45 1.30 -0.65 1.20 -0.65 1.45 0.10 2.65 1.15 1.75 3.50 1.80 4.65 0.10z m17.25 -5.80 c0.20 -1.80 0.50 -6.25 0.70 -9.95 0.35 -6.40 0.35 -6.70 -0.55 -6.40 -3.10 0.95 -10.85 3.85 -11.10 4.10 -0.20 0.15 -0.60 3.40 -0.90 7.15 -0.50 5.25 -0.50 6.95 -0.05 7.20 0.35 0.20 1.85 0.40 3.35 0.40 1.50 0.05 3.65 0.25 4.75 0.50 3.35 0.70 3.45 0.55 3.80 -3z m-19.05 -1.45 l2.75 -0.30 0.30 -3 c0.20 -1.65 0.35 -3.85 0.40 -4.85 l0.05 -1.85 -2.60 0.30 c-3.95 0.45 -4.20 0.70 -4.60 4.25 -0.20 1.75 -0.50 3.90 -0.65 4.85 -0.25 1.55 -0.20 1.65 0.65 1.30 0.50 -0.25 2.20 -0.55 3.70 -0.70z m-71.80 -12.65 c3.20 -7.25 5.80 -13.55 5.80 -14 0 -0.75 -1.35 -1.90 -2.20 -1.90 -0.70 0 -15.50 22.85 -15.55 23.95 0 0.90 0.70 1.75 2.50 3.15 1.40 1.05 2.75 1.90 3.05 1.90 0.30 0 3.20 -5.90 6.40 -13.10z m-7.65 -6.90 c4.10 -6.20 7.40 -11.50 7.45 -11.80 0 -0.35 -0.80 -1.45 -1.75 -2.50 -1 -1.10 -2.15 -2.55 -2.60 -3.35 -0.50 -0.75 -1.10 -1.35 -1.40 -1.35 -2 0 -13.95 7.15 -18.25 10.95 -2.55 2.20 -2.40 2.95 0.75 3.35 2.65 0.30 3.75 1.05 4.60 3.05 0.80 2 0.55 3.65 -0.90 5.75 l-1 1.40 1.65 2.30 c0.90 1.30 1.90 2.65 2.15 3 0.30 0.40 0.80 0.65 1.20 0.60 0.40 -0.10 4.05 -5.20 8.10 -11.40z m-29.85 8.70 c0.95 -0.90 1.05 -2.75 0.20 -3.60 -0.35 -0.35 -1.20 -0.60 -1.90 -0.60 -0.70 0 -1.55 0.25 -1.90 0.60 -0.75 0.75 -0.75 3.05 0 3.80 0.85 0.85 2.70 0.75 3.60 -0.20z m103.15 -4.50 c0.45 -1.25 -1.15 -5.80 -4.90 -13.65 -1.90 -4 -3.60 -7.35 -3.70 -7.50 -0.30 -0.30 -18.25 17.50 -18.25 18.10 0 0.80 5.40 2.85 8.80 3.30 1.90 0.20 6.65 0.45 10.60 0.50 6.15 0.05 7.15 -0.05 7.45 -0.75z m13.85 0.05 c3.75 -0.80 5.45 -1.75 3.15 -1.75 -2.90 0 -4.85 -1.90 -4.85 -4.75 0 -2.05 -0.70 -1.45 -2.40 2 -2.70 5.50 -2.40 5.85 4.10 4.50z m-101.30 -1.85 c0.35 -0.35 0.60 -1.20 0.60 -1.90 0 -1.65 -0.85 -2.50 -2.50 -2.50 -1.65 0 -2.50 0.85 -2.50 2.50 0 0.70 0.25 1.55 0.60 1.90 0.75 0.75 3.05 0.75 3.80 0z m110.85 -1.50 c1.30 -0.65 2.25 -1.45 2.25 -1.90 0 -1 -5.10 -7.20 -7.15 -8.70 l-1.35 -1 -2 1.95 c-1.10 1.05 -1.85 2.05 -1.75 2.20 0.15 0.10 0.55 -0.05 0.85 -0.35 0.35 -0.35 1.60 -0.60 2.80 -0.60 4.30 0 6.70 4.80 4.05 8.20 -1.25 1.60 -0.70 1.65 2.30 0.20z m-16.45 -2.95 c3.10 -4.85 3.20 -5.25 1.15 -4 -2.25 1.40 -4.05 1.30 -5.90 -0.25 -1.90 -1.60 -2.45 -4 -1.35 -6.10 1 -1.95 2.20 -2.60 4.70 -2.60 1.45 0 2.30 0.35 3.30 1.30 1.30 1.30 1.55 2.20 1.35 4.70 l-0.05 1.25 1 -1.20 c1.15 -1.35 1.75 -3.20 1.35 -4.25 -0.85 -2.15 -17.85 -9.85 -17.85 -8.10 0 1.45 8.95 22.80 9.55 22.80 0.25 0 1.50 -1.60 2.75 -3.55z m11.90 1.25 c0.95 -0.90 1.05 -2.75 0.20 -3.60 -0.35 -0.35 -1.20 -0.60 -1.90 -0.60 -1.65 0 -2.50 0.85 -2.50 2.50 0 0.70 0.25 1.55 0.60 1.90 0.85 0.85 2.70 0.75 3.60 -0.20z m-51.70 -0.05 c0 -0.25 -0.45 -1.70 -1 -3.30 -0.75 -2.30 -3.25 -11.95 -4.75 -18.70 -0.15 -0.65 -0.50 -1.15 -0.75 -1.15 -0.50 0 -9.45 6.85 -12.95 9.90 -1.55 1.35 -2.10 2.20 -1.90 2.75 0.65 1.70 9.10 6.95 15.10 9.40 3.35 1.35 6.25 1.85 6.25 1.10z m7.35 -5.45 c5.15 -3.90 15.15 -14.70 15.15 -16.45 0 -0.40 -0.85 -0.95 -1.85 -1.20 -6.90 -1.85 -11 -2.60 -15.40 -2.85 -6.55 -0.40 -6.95 -0.10 -6.90 4.60 0 2.75 0.50 4.85 2.30 10.10 1.30 3.65 2.45 6.85 2.60 7.10 0.55 0.90 1.65 0.55 4.10 -1.30z m32.90 -2.20 c2.05 -2.25 -0.90 -5.50 -3.50 -3.80 -1.45 0.95 -1.60 2.55 -0.40 3.90 1.05 1.20 2.75 1.15 3.90 -0.10z m-105.85 -1.80 c1.90 -1.30 1 -4.70 -1.25 -4.70 -1.25 0 -2.65 1.50 -2.65 2.80 0 0.95 1.60 2.70 2.50 2.70 0.15 0 0.80 -0.35 1.40 -0.80z m41.15 -4.70 c1.40 -0.75 1.15 -1.50 -0.45 -1.50 -2.70 0 -5.45 -3.35 -4.75 -5.90 0.20 -0.85 0.05 -1.10 -0.70 -1.10 -0.55 0 -1.40 0.30 -1.90 0.70 -1.20 0.85 -0.80 1.90 2.20 5.70 2.15 2.70 3.50 3.20 5.60 2.10z m8.95 -5.90 c4.75 -3.45 6.90 -6.60 4.50 -6.60 -1.85 0 -8.75 1.15 -9.15 1.50 -0.25 0.20 -0.05 1.10 0.40 2 0.60 1.15 0.75 2.15 0.50 3.60 -0.35 1.95 -0.35 2 0.80 1.35 0.65 -0.35 2 -1.20 2.95 -1.85z m-7.40 1.05 c1.90 -1.75 0.70 -4.35 -1.95 -4.05 -1.90 0.20 -2.75 2.45 -1.40 3.90 1.10 1.20 2.10 1.25 3.35 0.15z"/>
  <path d="M95.70 34.50 c-1.65 -0.65 -2.70 -2.50 -2.70 -4.75 0 -2.60 1.05 -4.10 3.45 -4.80 3.50 -1.05 6.55 1.35 6.55 5.10 0 2.05 -0.75 3.30 -2.50 4.20 -1.60 0.85 -3.20 0.90 -4.80 0.25z m3.70 -2.60 c0.35 -0.35 0.60 -1.20 0.60 -1.90 0 -0.70 -0.25 -1.55 -0.60 -1.90 -0.75 -0.75 -3.05 -0.75 -3.80 0 -0.85 0.85 -0.75 2.70 0.20 3.60 0.90 0.95 2.75 1.05 3.60 0.20z"/>
  <path d="M65.65 25.65 c-0.60 -0.10 -1.70 -0.90 -2.45 -1.80 -1.05 -1.25 -1.25 -1.90 -1.05 -3.45 0.30 -2.30 1.10 -3.35 3.10 -4.20 3.25 -1.35 6.75 0.90 6.75 4.40 0 1.10 -0.25 2.40 -0.55 3 -0.50 0.90 -3.40 2.50 -4.30 2.35 -0.20 -0.05 -0.90 -0.20 -1.50 -0.30z m3.35 -3.15 c0.55 -0.55 1 -1.35 1 -1.75 0 -1 -1.80 -2.75 -2.85 -2.75 -1.15 0 -2.65 1.50 -2.65 2.65 0 1.30 1.40 2.85 2.60 2.85 0.50 0 1.35 -0.45 1.90 -1z"/>
  <path d="M82.05 18.95 c-2.50 -2.35 -2.50 -5.55 0.05 -7.70 4.85 -4.10 11.45 2.80 6.95 7.30 -1.85 1.85 -5.20 2.05 -7 0.40z m5.45 -2.40 c0.25 -0.55 0.50 -1.30 0.50 -1.75 0 -1.05 -1.40 -2.30 -2.60 -2.30 -1.30 0 -2.90 1.35 -2.90 2.40 0 2.30 3.95 3.55 5 1.65z"/>
 </g>
 <g fill="#ffffff">
  <path d="M0 67 l0 -67 82.50 0 82.50 0 0 67 0 67 -33.55 0 c-30 0 -33.50 -0.10 -32.95 -0.75 0.75 -0.90 4.10 -23.55 3.70 -24.85 -0.15 -0.50 -0.40 -0.90 -0.60 -0.90 -1.10 0 -14.35 -2.05 -14.50 -2.25 -0.45 -0.45 4.05 -26.20 4.60 -26.35 0.95 -0.30 12.20 0.35 12.55 0.70 0.40 0.40 -0.70 10.05 -1.30 11.80 -0.25 0.60 -0.75 1.10 -1.15 1.10 -1.35 0 -4.25 3 -4.80 4.95 -1.85 6.85 6.70 12 11.90 7.10 3.15 -2.90 3.05 -7.65 -0.20 -10.55 l-1.80 -1.55 0.85 -6.45 c1 -7.30 0.75 -7 6.15 -7 3.65 0 3.45 -0.85 2.40 9.50 -0.40 3.70 -0.85 8.65 -1.05 11 -0.15 2.35 -0.85 9.45 -1.55 15.85 -1.45 13.85 -1.50 15.55 -0.40 16 2.15 0.80 15.55 -5.45 16.40 -7.65 0.15 -0.45 0.30 -4 0.30 -7.95 0 -6.05 -0.10 -7.20 -0.80 -7.45 -0.45 -0.15 -2.90 -0.30 -5.45 -0.30 -2.60 0 -4.80 -0.20 -4.95 -0.40 -0.15 -0.25 0.05 -3.55 0.45 -7.40 0.40 -3.80 1.05 -10.10 1.40 -13.90 l0.60 -7 1.40 -0.35 c0.75 -0.20 3.65 -0.55 6.45 -0.75 l5.05 -0.35 -0.40 8.20 c-0.20 4.50 -0.50 8.25 -0.65 8.35 -4.55 1.75 -6.55 6.75 -4.30 10.65 3.70 6.30 13.20 3.75 13.20 -3.55 0 -2.45 -0.95 -4.30 -3.20 -6.05 -1.55 -1.20 -1.55 -0.55 -0.50 -13.30 l0.30 -3.65 1.65 0 c2.80 0 6.90 0.95 9.55 2.25 4.10 2 5.85 6.55 3.95 10.25 -1.40 2.65 -4.30 3.35 -6.10 1.40 -2.25 -2.50 -2.65 -4.90 -0.90 -5.60 0.70 -0.25 2.75 1.45 2.75 2.30 0 0.65 1.90 0.45 2.30 -0.20 0.50 -0.80 0.30 -3.25 -0.30 -4.45 -0.30 -0.50 -1.45 -1.15 -2.60 -1.50 -2.55 -0.65 -5.60 0.05 -6.40 1.55 -1.35 2.50 0.05 8.40 2.55 10.80 1.25 1.20 1.85 1.40 4.15 1.40 8.70 -0.15 12.40 -10.75 6 -17 l-2.20 -2.10 1.90 0.45 c6.20 1.40 11.25 -5.25 8.05 -10.55 -0.60 -0.95 -1.45 -2 -1.90 -2.35 -1.45 -1.15 -4.25 -1.65 -6 -1.15 -1.40 0.40 -2.45 0.10 -7.75 -2 -3.40 -1.40 -6.45 -2.50 -6.80 -2.50 -0.50 0 -0.60 -1.35 -0.30 -6.75 0.15 -3.70 0.50 -7.20 0.70 -7.75 0.35 -0.95 0.50 -0.85 1.60 1.10 2.85 5.15 6.20 7.90 9.60 7.90 6.95 0 13.25 -8.55 11.40 -15.45 -1.45 -5.35 -11.20 -7.45 -15.35 -3.30 -1.90 1.90 -2.05 3.35 -0.85 6.90 1.10 3.20 2.85 4.50 5.55 4.20 2.95 -0.30 4.55 -1.50 4.95 -3.60 0.70 -3.70 -0.90 -5.70 -3.70 -4.70 -2 0.70 -2.35 1.85 -1.10 3.55 1.30 1.75 1.25 1.90 -0.40 1.90 -1.85 0 -3.10 -1.40 -3.10 -3.45 0 -3.05 3.95 -5.20 7.40 -4 4.30 1.50 4.05 9.20 -0.40 11.55 -1.05 0.55 -2.80 0.90 -4.30 0.90 -3.10 0 -4.70 -1.30 -6 -4.90 -1.50 -4.25 -4.10 -9.50 -6.10 -12.45 -5.10 -7.45 -15.30 -15.50 -27.40 -21.55 -13.65 -6.80 -26.50 -9.25 -43.25 -8.10 -12.40 0.80 -18.10 2.35 -28.15 7.45 -7 3.55 -23.55 13.25 -24.05 14.10 -0.65 1 -1.20 0.35 -1.15 -1.45 0 -2.45 -0.75 -3.90 -2.60 -4.85 -3.65 -1.90 -7.50 0.40 -7.50 4.50 0 3.10 2.25 5.25 5.45 5.25 1.90 0 1.90 0.30 0.25 2.55 -0.70 0.95 -1.85 2.75 -2.50 4.10 -1.05 2.05 -1.40 2.35 -2.85 2.35 -2.50 0 -4.75 1.65 -5.15 3.70 -0.60 3.45 0.95 6 4.10 6.60 3.55 0.65 6.40 -2.55 5.85 -6.60 -0.20 -1.75 0 -2.35 1.90 -5.15 1.20 -1.75 2.45 -3.20 2.70 -3.25 0.30 -0.05 0.60 1.20 0.75 2.70 0.30 3.30 0.55 3.70 2.95 5.20 1.30 0.85 2.05 1.80 2.55 3.35 0.40 1.15 1.60 3.45 2.65 5.10 l1.90 2.95 -4 6.10 c-2.15 3.30 -7.30 11.05 -11.35 17.20 l-7.40 11.20 1.90 3.80 c2.40 4.85 7.55 12.60 10.45 15.75 2.05 2.20 2.35 2.35 3.35 1.75 2.45 -1.50 7.80 -12.20 8.70 -17.45 0.30 -1.80 0.30 -1.85 -4.50 -5.45 -5.40 -4.05 -8.70 -6.90 -8.70 -7.55 0 -0.70 14.10 -21.95 14.60 -21.95 0.55 0 6.60 4.95 6.85 5.60 0.10 0.30 -0.75 2.70 -1.90 5.40 -2.10 4.85 -2.10 4.90 -4.15 5.20 -2.60 0.40 -5.20 2.90 -5.65 5.50 -0.50 2.45 0.85 5.95 2.85 7.35 6.40 4.60 14.55 -3.25 10.15 -9.75 -0.70 -1 -1.25 -2.15 -1.25 -2.50 0 -0.90 3.40 -8.30 3.80 -8.30 0.15 0 2.45 1.35 5.05 3 2.65 1.65 5 3 5.25 3 0.20 0 0.40 0.45 0.40 0.95 0 0.55 -3.70 11.95 -8.25 25.35 -4.55 13.45 -8.15 24.70 -8.05 25 0.90 2.35 19.75 9.35 21.90 8.15 1.35 -0.75 3.40 -6.25 4.90 -13.20 2.05 -9.35 2.05 -9.90 -0.60 -11.10 -1.20 -0.55 -5 -1.90 -8.50 -2.95 -3.55 -1.05 -6.40 -2.20 -6.40 -2.50 0 -0.75 8.40 -25.75 8.90 -26.60 0.30 -0.45 1.10 -0.35 3.40 0.60 1.60 0.65 4.75 1.70 6.95 2.35 2.20 0.60 4.20 1.30 4.45 1.55 0.30 0.25 0.05 2.80 -0.70 6.65 l-1.20 6.30 -2.25 1.15 c-2.75 1.35 -4.20 3.65 -4.20 6.55 0 6.85 7.85 9.65 12.65 4.50 1.05 -1.15 1.25 -1.80 1.25 -4.50 0 -2.95 -0.15 -3.35 -1.60 -4.85 -0.95 -1 -1.65 -2.20 -1.65 -2.90 0 -1.90 1.85 -11.05 2.35 -11.55 0.20 -0.20 2.20 -0.10 4.40 0.30 2.20 0.40 4.85 0.70 5.90 0.75 1.20 0 2 0.25 2.15 0.75 0.25 0.65 -1.15 9.60 -5.55 35 -0.95 5.50 -1.85 11.70 -2.05 13.80 -0.30 3.60 -0.25 3.90 0.75 4.45 0.60 0.30 3.10 0.70 5.60 0.85 2.45 0.15 4.45 0.50 4.45 0.70 0 0.25 -20.25 0.45 -45 0.45 l-45 0 0 -67z"/>
  <path d="M83.65 127.90 c-0.30 -0.45 -0.05 -3.50 0.80 -8.90 l1.30 -8.25 5.50 0.20 c3.05 0.10 5.65 0.25 5.90 0.40 0.20 0.10 0.35 0.95 0.35 1.90 0 2.35 -1.90 13.10 -2.50 14.25 -0.50 0.90 -1.10 1 -5.70 1 -3.55 0 -5.35 -0.20 -5.65 -0.60z"/>
  <path d="M117.05 124.65 c0 -0.50 0.30 -3.50 0.60 -6.65 l0.60 -5.75 3.90 -0.15 c4.65 -0.15 4.65 -0.15 4.05 5.50 l-0.45 4.05 -3.75 1.95 c-4.20 2.10 -5 2.30 -4.95 1.05z"/>
  <path d="M51.25 121.80 c-0.80 -0.35 -3.70 -1.50 -6.35 -2.55 -2.70 -1 -4.90 -2.15 -4.90 -2.50 0 -1.25 3.60 -12.50 4.20 -13.15 0.50 -0.50 1.85 -0.25 7.10 1.50 l6.45 2.15 -0.15 2.25 c-0.25 3.95 -3.20 13.05 -4.25 12.95 -0.35 0 -1.25 -0.30 -2.10 -0.65z"/>
  <path d="M132.75 103.75 c-1.50 -1.45 -1.60 -2.75 -0.35 -4.30 1.10 -1.30 3.75 -1.55 4.85 -0.40 1.40 1.45 1.45 3.30 0.05 4.65 -1.60 1.65 -3 1.65 -4.55 0.05z"/>
  <path d="M101.55 101.15 c-1.20 -1.50 -1 -2.90 0.55 -4.25 1.40 -1.25 2.75 -1.10 4.15 0.35 1.50 1.45 1.55 2.25 0.20 3.95 -1.40 1.75 -3.50 1.75 -4.90 -0.05z"/>
  <path d="M13.05 93.30 c-2.75 -3.70 -5.05 -6.90 -5.05 -7.10 0 -0.80 3.70 -5.70 4.30 -5.70 0.35 0 3.25 1.70 6.45 3.80 6.55 4.25 6.30 3.70 4.35 9.35 -0.80 2.30 -3.70 6.35 -4.55 6.35 -0.25 0 -2.70 -3 -5.50 -6.70z"/>
  <path d="M66.25 98.25 c-0.70 -0.65 -1.25 -1.55 -1.25 -2 0 -1.10 2.25 -3.25 3.35 -3.25 2.90 0 4.35 4.10 2.05 5.70 -1.60 1.10 -2.75 1 -4.15 -0.45z"/>
  <path d="M30.10 80.15 c-0.35 -0.15 -0.95 -0.90 -1.35 -1.70 -1.95 -3.75 2.10 -7.05 5.45 -4.40 3.30 2.60 -0.10 7.70 -4.10 6.10z"/>
  <path d="M149.60 76.50 c-1.45 -0.55 -4.45 -1.25 -6.60 -1.55 l-4 -0.60 0 -4.05 c0 -5.65 0.30 -6.45 2.05 -6.10 0.75 0.15 2.90 1 4.80 1.90 l3.40 1.65 0.15 2.25 c0.20 3.35 0.45 4.25 1.90 5.95 0.70 0.85 1.20 1.55 1.10 1.50 -0.05 0 -1.35 -0.45 -2.80 -0.95z"/>
  <path d="M96 74.05 c-2.75 -0.25 -3.25 -0.45 -3.40 -1.30 -0.15 -1.10 4.20 -28.05 4.65 -28.75 0.25 -0.40 11.70 -0.10 12.15 0.25 0.20 0.15 -2.25 18.65 -3.30 25 l-0.85 5 -3 0.05 c-1.65 0.05 -4.45 -0.10 -6.25 -0.25z"/>
  <path d="M109.80 74.10 c-0.25 -0.40 1 -9.35 1.50 -11 0.15 -0.50 0.55 -0.45 1.60 0.35 0.75 0.55 2.30 1.05 3.40 1.15 l1.95 0.15 -0.15 4 c-0.25 5.55 -0.40 5.75 -4.60 5.75 -1.90 0 -3.55 -0.20 -3.70 -0.40z"/>
  <path d="M122.20 73.80 c-0.30 -0.80 -0.05 -4.85 0.65 -10.50 l0.30 -2.45 4.65 0.30 c2.55 0.15 5.25 0.55 6.05 0.95 1.35 0.65 1.40 0.75 1.25 4.40 -0.05 2.05 -0.25 4.60 -0.40 5.65 l-0.30 1.85 -4.40 0 c-2.40 0 -5.05 0.15 -5.95 0.30 -1.15 0.25 -1.60 0.10 -1.85 -0.50z"/>
  <path d="M154.50 73.50 c-2.85 -2.85 0.75 -7.50 3.95 -5.15 1.90 1.45 2 3.70 0.25 5.10 -1.65 1.30 -2.90 1.35 -4.20 0.05z"/>
  <path d="M85.25 72.75 c-0.25 -0.05 -2.35 -0.55 -4.65 -1.05 -2.25 -0.45 -4.30 -1.10 -4.55 -1.40 -0.25 -0.35 0.50 -5.55 1.95 -13.05 3.55 -18.15 3.05 -16.50 4.80 -16.45 1.80 0.10 9.30 1.75 9.85 2.20 0.35 0.30 -3.70 26.65 -4.45 29.15 -0.25 0.75 -1.55 1.05 -2.95 0.60z"/>
  <path d="M69.50 68.65 c-6.45 -2.35 -11.15 -4.45 -11.40 -5.05 -0.35 -0.95 8.95 -28.60 9.65 -28.60 0.30 0 2.45 0.80 4.90 1.80 2.90 1.25 4.35 2.10 4.35 2.65 0 1.25 -5.40 28.50 -5.75 29.05 -0.35 0.55 -0.60 0.55 -1.75 0.15z"/>
  <path d="M47.80 59.10 c-2.50 -1.35 -4.55 -2.65 -4.65 -2.95 -0.20 -0.50 11.05 -25.95 11.90 -27 0.65 -0.75 7.60 2.90 7.85 4.10 0.10 0.45 -1.90 7 -4.50 14.55 -3.30 9.75 -4.85 13.70 -5.40 13.70 -0.40 0 -2.75 -1.10 -5.20 -2.40z"/>
  <path d="M114.15 60.20 c-0.75 -1.20 -0.75 -1.45 -0.10 -2.65 0.55 -1 1.10 -1.30 2.45 -1.30 1.40 0 1.85 0.25 2.40 1.40 1.50 3.15 -2.80 5.50 -4.75 2.55z"/>
  <path d="M132.25 57.50 c-1.10 -0.25 -3.25 -0.45 -4.75 -0.50 -1.50 0 -3 -0.20 -3.35 -0.40 -0.45 -0.25 -0.45 -1.95 0.05 -7.20 0.30 -3.75 0.70 -7 0.90 -7.15 0.25 -0.25 8 -3.15 11.10 -4.10 0.90 -0.30 0.90 0 0.55 6.40 -0.80 14.20 -0.60 13.75 -4.50 12.95z"/>
  <path d="M112.65 52.45 c0.15 -0.95 0.45 -3.10 0.65 -4.85 0.40 -3.55 0.65 -3.80 4.60 -4.25 l2.60 -0.30 -0.05 1.85 c-0.05 1 -0.20 3.20 -0.40 4.85 l-0.30 3 -2.75 0.30 c-1.50 0.15 -3.20 0.45 -3.70 0.70 -0.85 0.35 -0.90 0.25 -0.65 -1.30z"/>
  <path d="M35.75 51.60 c-1.80 -1.40 -2.50 -2.25 -2.50 -3.15 0.05 -1.10 14.85 -23.95 15.55 -23.95 0.85 0 2.20 1.15 2.20 1.90 0 1.35 -11.55 27.10 -12.20 27.10 -0.30 0 -1.65 -0.85 -3.05 -1.90z"/>
  <path d="M28.25 44.30 c-0.25 -0.35 -1.25 -1.70 -2.15 -3 l-1.65 -2.30 1 -1.40 c1.45 -2.10 1.70 -3.75 0.90 -5.75 -0.85 -2 -1.95 -2.75 -4.60 -3.05 -3.15 -0.40 -3.30 -1.15 -0.75 -3.35 4.30 -3.80 16.25 -10.95 18.25 -10.95 0.30 0 0.90 0.60 1.40 1.35 0.45 0.80 1.60 2.25 2.60 3.35 0.95 1.05 1.75 2.15 1.75 2.50 -0.05 1 -14.80 23.05 -15.55 23.20 -0.40 0.05 -0.90 -0.20 -1.20 -0.60z"/>
  <path d="M4.10 42.40 c-0.75 -0.75 -0.75 -3.05 0 -3.80 0.35 -0.35 1.20 -0.60 1.90 -0.60 1.60 0 2.50 0.85 2.50 2.30 0 2.20 -2.90 3.60 -4.40 2.10z"/>
  <path d="M92.80 37.95 c-3.40 -0.45 -8.80 -2.50 -8.80 -3.30 0 -0.60 17.95 -18.40 18.25 -18.10 0.65 0.70 7.25 15.05 8 17.50 1.40 4.45 1.45 4.45 -6.85 4.40 -3.95 -0.05 -8.70 -0.30 -10.60 -0.50z m7.70 -3.70 c3.60 -1.85 3.35 -7.25 -0.40 -9.05 -1.45 -0.65 -2.05 -0.70 -3.65 -0.25 -2.40 0.70 -3.45 2.20 -3.45 4.80 0 4.25 3.70 6.45 7.50 4.50z"/>
  <path d="M95.80 31.70 c-0.95 -0.90 -1.05 -2.75 -0.20 -3.60 0.75 -0.75 3.05 -0.75 3.80 0 0.35 0.35 0.60 1.20 0.60 1.90 0 0.70 -0.25 1.55 -0.60 1.90 -0.85 0.85 -2.70 0.75 -3.60 -0.20z"/>
  <path d="M119 37.50 c0 -1.15 3.05 -7.50 3.60 -7.50 0.20 0 0.40 0.55 0.40 1.25 0 2.85 1.95 4.75 4.85 4.75 2.30 0 0.60 0.95 -3.15 1.75 -4.75 1 -5.70 0.95 -5.70 -0.25z"/>
  <path d="M19.60 35.90 c-0.35 -0.35 -0.60 -1.20 -0.60 -1.90 0 -1.65 0.85 -2.50 2.50 -2.50 1.65 0 2.50 0.85 2.50 2.50 0 0.70 -0.25 1.55 -0.60 1.90 -0.75 0.75 -3.05 0.75 -3.80 0z"/>
  <path d="M131.95 34.20 c2.65 -3.40 0.25 -8.20 -4.05 -8.20 -1.20 0 -2.45 0.25 -2.80 0.60 -0.30 0.30 -0.70 0.45 -0.85 0.35 -0.10 -0.15 0.65 -1.15 1.75 -2.20 l2 -1.95 1.35 1 c2.05 1.50 7.15 7.70 7.15 8.70 0 0.45 -0.95 1.25 -2.25 1.90 -3 1.45 -3.55 1.40 -2.30 -0.20z"/>
  <path d="M111.55 27.75 c-2.75 -6.55 -6.05 -14.95 -6.05 -15.55 0 -1.75 17 5.95 17.85 8.10 0.40 1.05 -0.20 2.90 -1.35 4.25 l-1 1.20 0.05 -1.25 c0.20 -2.50 -0.05 -3.40 -1.35 -4.70 -1 -0.95 -1.85 -1.30 -3.30 -1.30 -2.50 0 -3.70 0.65 -4.70 2.60 -1.10 2.10 -0.55 4.50 1.35 6.10 1.85 1.55 3.65 1.65 5.90 0.25 1.20 -0.70 1.60 -0.80 1.40 -0.30 -0.55 1.50 -4.85 7.85 -5.30 7.85 -0.25 0 -1.85 -3.25 -3.50 -7.25z"/>
  <path d="M126.10 32.90 c-0.35 -0.35 -0.60 -1.20 -0.60 -1.90 0 -1.65 0.85 -2.50 2.50 -2.50 1.60 0 2.50 0.85 2.50 2.30 0 2.20 -2.90 3.60 -4.40 2.10z"/>
  <path d="M71.75 31.55 c-6 -2.45 -14.45 -7.70 -15.10 -9.40 -0.20 -0.55 0.35 -1.40 1.90 -2.75 3.50 -3.05 12.45 -9.90 12.95 -9.90 0.25 0 0.60 0.50 0.75 1.15 1.50 6.75 4 16.40 4.75 18.70 0.55 1.60 1 3.05 1 3.30 0 0.75 -2.90 0.25 -6.25 -1.10z m-2.50 -6.25 c2 -0.85 2.75 -2.10 2.75 -4.70 0 -3.50 -3.50 -5.75 -6.75 -4.40 -2 0.85 -2.80 1.90 -3.10 4.20 -0.20 1.55 0 2.20 1.05 3.45 1.15 1.40 1.80 1.70 3.95 2.10 0.20 0 1.15 -0.25 2.10 -0.65z"/>
  <path d="M65.35 22.60 c-0.50 -0.50 -0.85 -1.40 -0.85 -1.95 0 -1.15 1.50 -2.65 2.65 -2.65 1.05 0 2.85 1.75 2.85 2.75 0 1.05 -1.80 2.75 -2.90 2.75 -0.55 0 -1.30 -0.40 -1.75 -0.90z"/>
  <path d="M81.25 28.50 c-0.15 -0.25 -1.30 -3.45 -2.60 -7.10 -1.80 -5.25 -2.30 -7.35 -2.30 -10.10 -0.05 -4.70 0.35 -5 6.90 -4.60 4.40 0.25 8.50 1 15.40 2.85 1 0.25 1.85 0.80 1.85 1.20 0 1.75 -10 12.55 -15.15 16.45 -2.45 1.85 -3.55 2.20 -4.10 1.30z m7.80 -9.95 c4.50 -4.50 -2.10 -11.40 -6.95 -7.30 -3.75 3.15 -1.65 8.75 3.30 8.75 1.75 0 2.45 -0.30 3.65 -1.45z"/>
  <path d="M83.35 16.60 c-1.10 -1.20 -1.05 -2.25 0.05 -3.25 1.65 -1.50 4.60 -0.55 4.60 1.45 0 2.55 -3 3.65 -4.65 1.80z"/>
  <path d="M114.35 25.10 c-1.20 -1.35 -1.05 -2.95 0.40 -3.90 1.65 -1.05 3.60 -0.30 4.05 1.55 0.65 2.60 -2.65 4.30 -4.45 2.35z"/>
  <path d="M9.60 23.20 c-1.35 -0.90 -1.45 -2.75 -0.20 -3.85 1.75 -1.60 4.10 -0.50 4.10 1.90 0 1 -1.60 2.75 -2.50 2.75 -0.15 0 -0.80 -0.35 -1.40 -0.80z"/>
  <path d="M47.95 16.40 c-3 -3.80 -3.40 -4.85 -2.20 -5.70 0.50 -0.40 1.35 -0.70 1.90 -0.70 0.75 0 0.90 0.25 0.70 1.10 -0.70 2.55 2.05 5.90 4.75 5.90 1.60 0 1.85 0.75 0.45 1.50 -2.10 1.10 -3.45 0.60 -5.60 -2.10z"/>
  <path d="M58.75 13.10 c0.25 -1.45 0.10 -2.45 -0.50 -3.60 -0.45 -0.90 -0.65 -1.80 -0.40 -2 0.40 -0.35 7.30 -1.50 9.15 -1.50 1.60 0 1.20 1.60 -0.85 3.55 -2.10 1.95 -4.80 4 -6.60 4.90 -1.15 0.65 -1.15 0.60 -0.80 -1.35z"/>
  <path d="M51.75 13.50 c-1.35 -1.45 -0.50 -3.70 1.40 -3.90 2.65 -0.30 3.85 2.30 1.95 4.05 -1.25 1.10 -2.25 1.05 -3.35 -0.15z"/>
 </g>
</svg>