<?xml version="1.0" encoding="utf-8"?>
<!DOCTYPE svg PUBLIC "-//W3C//DTD SVG 1.0//EN" "http://www.w3.org/TR/2001/REC-SVG-20010904/DTD/svg10.dtd">
<svg version="1.0" xmlns="http://www.w3.org/2000/svg" width="148px" height="147px" viewBox="0 0 148 147" preserveAspectRatio="xMidYMid meet">
 <g fill="#000000">
  <path d="M69.70 145.50 c-1.50 -0.60 -3.10 -2.80 -3.50 -4.70 -0.40 -2.25 0.80 -4.85 3 -6.55 l1.80 -1.35 0 -7.15 0 -7.10 -3.60 -0.35 c-2 -0.15 -12.20 -0.30 -22.65 -0.35 -15.45 -0.05 -19 0.10 -19.20 0.65 -0.10 0.35 -0.95 1.40 -1.90 2.35 -1.55 1.55 -1.85 1.65 -4 1.40 -3.25 -0.35 -5.15 -2.45 -5.15 -5.55 0 -1.75 0.30 -2.50 1.45 -3.75 0.80 -0.85 1.80 -1.55 2.20 -1.55 0.50 0 0.80 -0.80 1 -2.60 0.25 -1.95 0.50 -35.05 0.35 -40.75 0 -0.50 -1.60 -0.65 -6.40 -0.65 -7.35 0 -8.20 0.35 -9.20 3.55 -0.30 1.15 -0.90 2.15 -1.30 2.30 -1.55 0.60 -1.85 -0.95 -1.70 -8.50 l0.15 -7.40 1.35 0.15 c1 0.10 1.40 0.50 1.60 1.65 0.45 2.05 1.45 3.60 2.85 4.20 0.65 0.30 3.75 0.55 6.90 0.55 5 0 5.70 -0.10 5.95 -0.85 0.10 -0.50 0.30 -9.90 0.40 -20.85 l0.15 -19.95 -1.95 -0.70 c-1.10 -0.35 -2.35 -1 -2.85 -1.45 -3.70 -3.35 -1.25 -9.70 3.80 -9.70 3.45 0 5.40 1.85 5.85 5.50 l0.15 1.25 23 0.35 c12.65 0.20 23.30 0.25 23.65 0.15 0.40 -0.15 0.60 -1.55 0.60 -4.75 0 -6.40 -0.65 -7.50 -4.75 -8.10 -0.70 -0.10 -1.05 -0.60 -1.15 -1.80 l-0.15 -1.65 7.90 0.15 7.90 0.15 0 1.50 c0 1.35 -0.20 1.50 -1.95 1.80 -1.25 0.20 -2.40 0.80 -3.15 1.65 -1.05 1.20 -1.15 1.85 -1.15 6.25 l0 4.90 23.25 0.35 c12.80 0.20 23.50 0.20 23.75 0.05 0.30 -0.15 0.50 -0.80 0.50 -1.40 0 -0.60 0.45 -1.80 1 -2.70 1.75 -2.95 6.45 -3.15 9.05 -0.35 1.85 1.95 1.70 5.60 -0.30 7.70 -0.90 0.95 -2.15 1.65 -3.30 1.80 l-1.80 0.30 -0.35 20.50 c-0.25 12.85 -0.20 20.70 0.10 21 0.30 0.30 3.20 0.40 6.80 0.30 7.15 -0.15 8.20 -0.65 8.75 -4.25 0.25 -1.60 0.50 -1.90 1.70 -2.05 l1.35 -0.15 0 8.05 0 8.05 -1.35 -0.15 c-1.10 -0.10 -1.45 -0.50 -1.70 -1.90 -0.20 -0.95 -0.95 -2.25 -1.70 -2.85 -1.20 -1.05 -1.75 -1.15 -7.80 -1.15 l-6.45 0 0 5.65 c0 3.05 -0.15 12.80 -0.35 21.60 l-0.30 16 1.75 0.85 c1.80 0.85 3.40 3.35 3.40 5.40 0 3 -2.85 5.50 -6.30 5.50 -1.40 0 -2.20 -0.40 -3.50 -1.70 -0.95 -0.95 -1.70 -2.05 -1.70 -2.45 0 -0.65 -2.40 -0.80 -16.60 -1.10 -9.15 -0.15 -19.45 -0.25 -22.90 -0.15 l-6.25 0.15 -0.15 7.10 -0.15 7.10 1.75 1.15 c3.75 2.45 4.20 7.10 1.05 10.25 -1.45 1.45 -1.95 1.65 -4.05 1.60 -1.35 0 -2.95 -0.20 -3.50 -0.45z m5.55 -3.25 c0.70 -0.65 1.25 -1.80 1.25 -2.50 0 -1.65 -2.10 -3.75 -3.75 -3.75 -1.40 0 -3.75 2 -3.75 3.20 0 1.35 1.10 3.20 2.20 3.70 1.70 0.85 2.75 0.70 4.05 -0.65z m53.05 -22.50 c1.70 -2.60 -1.55 -5.55 -3.80 -3.50 -1.20 1.10 -1.30 2.60 -0.15 3.85 1.15 1.30 2.95 1.15 3.95 -0.35z m-105.80 -1.75 c1.20 -2.30 -1.55 -4.80 -3.95 -3.55 -1.35 0.75 -1.85 2.80 -1 3.85 1.55 1.85 3.85 1.75 4.95 -0.30z m69 -11 c0.15 -5.40 0.50 -8.65 0.90 -9.40 2.15 -3.80 10.05 -4.25 12.45 -0.70 0.75 1.15 0.95 2.75 1.15 9.85 l0.25 8.50 7.25 0.15 7.30 0.15 1.30 -1.40 1.35 -1.40 0.35 -21.90 0.35 -21.85 -3.30 0 c-2.95 0 -3.40 0.15 -4.30 1.30 -0.60 0.75 -1.05 2 -1.05 2.75 0 1.30 -0.15 1.45 -1.75 1.45 l-1.75 0 0.05 -5.10 c0.05 -2.85 0.20 -6.40 0.35 -7.90 0.30 -2.50 0.45 -2.75 1.60 -2.75 1.05 0 1.30 0.30 1.60 2.05 0.25 1.10 0.85 2.50 1.40 3.10 1 1.05 4.85 1.95 6.15 1.45 1.05 -0.40 1.35 -6.05 1.35 -25.65 l0 -17.60 -3.85 -0.20 c-5.90 -0.30 -5.65 -0.60 -5.65 7.65 0 6.05 0.10 7 0.85 7.30 1.15 0.45 3.25 -0.85 4.05 -2.50 0.40 -0.85 1 -1.35 1.50 -1.25 0.70 0.15 0.90 0.90 1 4.55 0.15 4.20 -0.35 6.35 -1.45 6.35 -0.30 0 -0.80 -0.70 -1.10 -1.50 -0.40 -1.05 -1.05 -1.65 -2.10 -1.95 -2.35 -0.60 -2.75 -0.20 -2.75 2.65 0 2.80 0.65 4.10 2.25 4.40 0.60 0.10 1 0.55 1 1.15 0 0.90 -0.40 1 -5.10 1.15 -4.90 0.15 -5.15 0.10 -5.15 -0.90 0 -0.65 0.50 -1.20 1.35 -1.55 1.85 -0.70 2.15 -1.25 2.15 -4.35 0 -2.90 -0.55 -3.45 -2.80 -2.90 -0.80 0.20 -1.50 0.90 -1.85 1.80 -0.35 0.90 -0.95 1.50 -1.45 1.50 -0.80 0 -0.90 -0.55 -0.90 -5.30 0 -5.15 0 -5.25 1.10 -5.10 0.70 0.10 1.20 0.60 1.40 1.40 0.30 1.35 2.60 2.75 3.80 2.30 0.60 -0.25 0.70 -1.55 0.60 -7.65 l-0.15 -7.40 -4.45 -0.15 c-2.45 -0.10 -4.65 0.05 -4.85 0.25 -0.20 0.20 -0.55 12.50 -0.75 27.30 l-0.35 26.90 2.05 1.70 c2.55 2.20 3.45 4.65 2.65 7.20 -1.75 5.85 -9.60 6.80 -12.35 1.50 -0.55 -1.15 -0.75 -2.35 -0.55 -4.15 0.20 -2.45 1.15 -3.75 3.95 -5.55 0.70 -0.45 0.85 -3.60 1 -27.75 l0.15 -27.25 -10.80 -0.15 -10.80 -0.10 -0.30 2.90 c-0.35 3.20 0.25 6.15 1.45 7.15 0.40 0.35 1.60 0.75 2.60 0.90 1.65 0.30 1.85 0.50 1.85 1.80 l0 1.50 -5.75 0.15 c-7.50 0.15 -9.75 -0.25 -9.75 -1.90 0 -0.95 0.35 -1.30 1.60 -1.55 2.45 -0.50 4 -1.70 4.35 -3.50 0.50 -2.60 0.35 -6.70 -0.30 -7.35 -0.90 -0.90 -21.35 -0.85 -21.60 0.05 -0.15 0.30 -0.35 12.65 -0.50 27.35 l-0.25 26.75 1.45 0.85 c2.35 1.35 3.60 3.75 3.35 6.55 -0.50 5.75 -7.25 8.05 -11.40 3.90 -2.85 -2.85 -2.30 -7.75 1.10 -9.95 l1.80 -1.20 0.35 -10.55 c0.15 -5.85 0.35 -18.15 0.40 -27.35 l0.10 -16.75 -4.30 -0.25 c-6.45 -0.40 -5.90 -1.05 -5.90 7.30 0 7.85 0.15 8.20 2.70 7.20 0.80 -0.30 1.55 -1.10 1.85 -2 0.55 -1.55 2.15 -2.10 2.55 -0.85 0.10 0.30 0.05 2.75 -0.10 5.35 -0.20 3.85 -0.40 4.75 -1.05 4.90 -0.55 0.10 -1 -0.35 -1.35 -1.35 -0.60 -1.70 -2.20 -2.75 -3.60 -2.30 -0.85 0.25 -1 0.80 -1 3.30 0 2.90 0.05 3 1.75 4 3.40 2 1.90 2.95 -4.15 2.60 -4.05 -0.25 -4.60 -0.40 -4.60 -1.20 0 -0.55 0.25 -0.95 0.50 -0.95 0.30 0 1.10 -0.55 1.75 -1.25 1 -0.95 1.25 -1.70 1.25 -3.75 0 -1.85 -0.20 -2.60 -0.80 -2.85 -1.30 -0.50 -3.40 0.50 -4.10 2 -0.45 0.85 -1 1.35 -1.50 1.25 -0.75 -0.15 -0.85 -0.90 -0.85 -5.15 0 -4.70 0.05 -5 1.05 -5.15 0.80 -0.10 1.15 0.20 1.40 1.10 0.35 1.50 2.35 2.95 3.65 2.70 0.80 -0.15 0.95 -0.95 1.15 -6.90 0.15 -3.70 0.10 -7.15 -0.10 -7.60 -0.35 -0.75 -1.15 -0.90 -4.60 -0.90 -3.10 0 -4.25 0.20 -4.45 0.70 -0.20 0.55 -0.55 39.45 -0.40 42.20 0.05 0.40 0.90 0.60 2.50 0.60 3.10 0 5.25 -1.60 5.90 -4.40 0.35 -1.50 0.65 -1.85 1.65 -1.85 l1.25 0 0.15 7.90 0.15 7.85 -1.45 0 c-1.25 0 -1.50 -0.25 -2.05 -1.95 -0.85 -2.90 -2.65 -4.15 -5.75 -3.95 l-2.55 0.15 -0.35 21.65 -0.40 21.65 1.40 1.75 1.35 1.70 7.30 0 7.30 0 0.35 -1.85 c0.15 -1.05 0.30 -4.55 0.30 -7.80 0 -7.45 0.55 -9 3.80 -10.40 3 -1.35 6.10 -0.95 8.35 1.05 l1.60 1.40 0.25 8.95 0.25 8.90 8.05 0.15 8.10 0.10 0.35 -5.60 c0.15 -3.10 0.25 -13.30 0.15 -22.65 l-0.15 -17 -4.05 -0.15 c-4.80 -0.15 -5.90 0.45 -8.30 4.70 -1 1.80 -1.80 2.70 -2.45 2.70 -0.95 0 -0.95 -0.40 -0.85 -8.85 0.15 -8.35 0.20 -8.90 1.10 -8.90 0.50 0 1.10 0.35 1.30 0.75 3 6.50 2.80 6.35 9.30 6.45 4.70 0.05 4.70 0.10 4.70 -4.55 0 -1.95 -0.30 -3.50 -0.85 -4.45 -1.05 -1.75 -4.30 -3.45 -6.60 -3.45 -1.55 0 -1.60 -0.05 -1.45 -1.85 l0.15 -1.90 10.50 0.15 c5.80 0.10 10.70 0.35 10.90 0.60 0.25 0.20 0.35 1 0.25 1.80 -0.15 1.35 -0.35 1.45 -2.65 1.70 -2.80 0.30 -4 0.85 -5.65 2.65 -1.05 1.10 -1.15 1.60 -1 5.15 l0.15 3.95 4.80 0.15 4.85 0.15 1.35 -1.65 c0.80 -0.90 1.70 -2.40 2.10 -3.30 0.55 -1.30 0.95 -1.65 1.80 -1.50 1.25 0.15 1.15 -0.60 0.95 11.65 -0.10 6.20 -0.10 6.25 -1.30 6.25 -1 0 -1.35 -0.45 -2.05 -2.60 -0.45 -1.45 -1.30 -3.25 -1.85 -4 -0.95 -1.35 -1.10 -1.40 -5.90 -1.40 -3.75 0 -4.95 0.15 -5.15 0.70 -0.20 0.55 -0.55 40.60 -0.40 43.65 0.05 0.65 4.20 1 11.80 0.95 l4.50 -0.05 0.25 -8.25z m10.90 0.40 c0.10 -7.35 0.05 -7.95 -0.90 -8.90 -0.60 -0.60 -1.65 -1 -2.60 -1 -3.45 0 -3.90 1.25 -3.90 10.15 0 3.95 0.15 7.35 0.35 7.55 0.20 0.20 1.85 0.30 3.65 0.20 l3.25 -0.15 0.15 -7.85z m-51.75 7.25 c0.15 -0.25 0.40 -3.80 0.60 -7.90 0.30 -6.90 0.25 -7.65 -0.60 -8.65 -1.40 -1.70 -3.70 -1.95 -5.35 -0.50 -1.35 1.15 -1.35 1.25 -1.65 8.50 -0.15 4.05 -0.15 7.70 0 8.15 0.25 0.55 1.10 0.75 3.55 0.75 1.80 0 3.35 -0.15 3.45 -0.35z m51 -29.05 c0.45 -0.45 0.85 -1.45 0.85 -2.35 0 -3.65 -5.05 -4.85 -6.55 -1.55 -0.85 1.85 -0.15 3.75 1.65 4.55 1.70 0.70 2.65 0.55 4.05 -0.65z m-51.40 -0.85 c0.70 -0.65 1.25 -1.65 1.25 -2.25 0 -1.45 -2.20 -3.50 -3.75 -3.50 -1.70 0 -3.25 1.65 -3.25 3.50 0 3.20 3.50 4.55 5.75 2.25z m80.75 -65.25 c0.55 -0.55 1 -1.45 1 -2 0 -1.10 -1.65 -3 -2.65 -3 -2.40 0 -3.70 3.25 -2 5.10 1.05 1.20 2.40 1.15 3.65 -0.10z m-109.50 -1.50 c1.30 -1.30 1.25 -2.30 -0.25 -3.75 -1.45 -1.50 -2.45 -1.55 -3.75 -0.25 -1.20 1.20 -1.30 2.85 -0.15 4.10 1.05 1.20 2.90 1.15 4.15 -0.10z"/>
 </g>
 <g fill="#ffffff">
  <path d="M0 73.50 l0 -73.50 74 0 74 0 0 73.50 0 73.50 -74 0 -74 0 0 -73.50z m77.25 70.85 c3.15 -3.15 2.70 -7.80 -1.05 -10.25 l-1.75 -1.15 0.15 -7.10 0.15 -7.10 6.25 -0.15 c3.45 -0.10 13.75 0 22.90 0.15 14.20 0.30 16.60 0.45 16.60 1.10 0 0.40 0.75 1.50 1.70 2.45 1.30 1.30 2.10 1.70 3.50 1.70 3.45 0 6.30 -2.50 6.30 -5.50 0 -2.05 -1.60 -4.55 -3.40 -5.40 l-1.75 -0.85 0.30 -16 c0.20 -8.80 0.35 -18.55 0.35 -21.60 l0 -5.65 6.45 0 c6.05 0 6.60 0.10 7.80 1.15 0.75 0.60 1.50 1.90 1.70 2.85 0.25 1.40 0.60 1.80 1.70 1.90 l1.35 0.15 0 -8.05 0 -8.05 -1.35 0.15 c-1.20 0.15 -1.45 0.45 -1.70 2.05 -0.55 3.60 -1.60 4.10 -8.75 4.25 -3.60 0.10 -6.50 0 -6.80 -0.30 -0.30 -0.30 -0.35 -8.15 -0.10 -21 l0.35 -20.50 1.80 -0.30 c1.15 -0.15 2.40 -0.85 3.30 -1.80 2 -2.10 2.15 -5.75 0.30 -7.70 -2.60 -2.80 -7.30 -2.60 -9.05 0.35 -0.55 0.90 -1 2.10 -1 2.70 0 0.60 -0.20 1.25 -0.50 1.40 -0.25 0.15 -10.95 0.15 -23.75 -0.05 l-23.25 -0.35 0 -4.90 c0 -4.40 0.10 -5.05 1.15 -6.25 0.75 -0.85 1.90 -1.45 3.15 -1.65 1.75 -0.30 1.95 -0.45 1.95 -1.80 l0 -1.50 -7.90 -0.15 -7.90 -0.15 0.15 1.65 c0.10 1.20 0.45 1.70 1.15 1.80 4.10 0.60 4.75 1.70 4.75 8.10 0 3.20 -0.20 4.60 -0.60 4.75 -0.35 0.10 -11 0.05 -23.65 -0.15 l-23 -0.35 -0.15 -1.25 c-0.45 -3.65 -2.40 -5.50 -5.85 -5.50 -5.05 0 -7.50 6.35 -3.80 9.70 0.50 0.45 1.75 1.10 2.85 1.45 l1.95 0.70 -0.15 19.95 c-0.10 10.95 -0.30 20.35 -0.40 20.85 -0.25 0.75 -0.95 0.85 -5.95 0.85 -3.15 0 -6.25 -0.25 -6.90 -0.55 -1.40 -0.60 -2.40 -2.15 -2.85 -4.20 -0.20 -1.15 -0.60 -1.55 -1.60 -1.65 l-1.35 -0.15 -0.15 7.40 c-0.15 7.55 0.15 9.10 1.70 8.50 0.40 -0.15 1 -1.15 1.30 -2.30 1 -3.20 1.85 -3.55 9.20 -3.55 4.80 0 6.40 0.15 6.40 0.65 0.15 5.70 -0.10 38.80 -0.35 40.75 -0.20 1.80 -0.50 2.60 -1 2.60 -0.40 0 -1.40 0.70 -2.20 1.55 -1.15 1.25 -1.45 2 -1.45 3.75 0 3.10 1.90 5.20 5.15 5.55 2.15 0.25 2.45 0.15 4 -1.40 0.95 -0.95 1.80 -2 1.90 -2.35 0.20 -0.55 3.75 -0.70 19.20 -0.65 10.45 0.05 20.65 0.20 22.65 0.35 l3.60 0.35 0 7.10 0 7.15 -1.80 1.35 c-3.30 2.50 -4 6.50 -1.60 9.50 1.30 1.70 2.55 2.20 5.60 2.20 2.10 0.05 2.60 -0.15 4.05 -1.60z"/>
  <path d="M71.20 142.90 c-1.10 -0.50 -2.20 -2.35 -2.20 -3.70 0 -1.20 2.35 -3.20 3.75 -3.20 1.65 0 3.75 2.10 3.75 3.75 0 1.50 -2.05 3.75 -3.35 3.70 -0.50 0 -1.40 -0.25 -1.95 -0.55z"/>
  <path d="M124.35 120.10 c-1.15 -1.25 -1.05 -2.75 0.15 -3.85 1.25 -1.15 3.35 -0.65 4.10 1 1.20 2.65 -2.30 5 -4.25 2.85z"/>
  <path d="M19.25 119.50 c-1.60 -0.60 -2.40 -1.85 -2.05 -3.25 0.65 -2.55 4.40 -2.90 5.30 -0.45 0.85 2.20 -1.15 4.50 -3.25 3.70z"/>
  <path d="M78.65 115.15 c-2.40 -0.15 -3.65 -0.40 -3.70 -0.80 -0.15 -3.05 0.20 -43.10 0.40 -43.65 0.20 -0.55 1.40 -0.70 5.15 -0.70 4.80 0 4.95 0.05 5.90 1.40 0.55 0.75 1.40 2.55 1.85 4 0.70 2.15 1.05 2.60 2.05 2.60 1.20 0 1.20 -0.05 1.30 -6.25 0.20 -12.25 0.30 -11.50 -0.95 -11.65 -0.85 -0.15 -1.25 0.20 -1.80 1.50 -0.40 0.90 -1.30 2.40 -2.10 3.30 l-1.35 1.65 -4.85 -0.15 -4.80 -0.15 -0.15 -3.95 c-0.15 -3.55 -0.05 -4.05 1 -5.15 1.65 -1.80 2.85 -2.35 5.65 -2.65 2.30 -0.25 2.50 -0.35 2.65 -1.70 0.10 -0.80 0 -1.60 -0.25 -1.80 -0.20 -0.25 -5.10 -0.50 -10.90 -0.60 l-10.50 -0.15 -0.15 1.90 c-0.15 1.80 -0.10 1.85 1.45 1.85 2.30 0 5.55 1.70 6.60 3.45 0.55 0.95 0.85 2.50 0.85 4.45 0 4.65 0 4.60 -4.70 4.55 -6.50 -0.10 -6.30 0.05 -9.30 -6.45 -0.20 -0.40 -0.80 -0.75 -1.30 -0.75 -0.90 0 -0.95 0.55 -1.10 8.90 -0.10 8.45 -0.10 8.85 0.85 8.85 0.65 0 1.45 -0.90 2.45 -2.70 2.40 -4.25 3.50 -4.85 8.30 -4.70 l4.05 0.15 0.15 17 c0.10 9.35 0 19.55 -0.15 22.65 l-0.35 5.60 -8.10 -0.10 -8.05 -0.15 -0.25 -8.90 -0.25 -8.95 -1.60 -1.40 c-2.25 -2 -5.35 -2.40 -8.35 -1.05 -3.25 1.40 -3.80 2.95 -3.80 10.40 0 3.25 -0.15 6.75 -0.30 7.80 l-0.35 1.85 -7.30 0 -7.30 0 -1.35 -1.70 -1.40 -1.75 0.40 -21.65 0.35 -21.65 2.55 -0.15 c3.10 -0.20 4.90 1.05 5.75 3.95 0.55 1.70 0.80 1.95 2.05 1.95 l1.45 0 -0.15 -7.85 -0.15 -7.90 -1.25 0 c-1 0 -1.30 0.35 -1.65 1.85 -0.65 2.80 -2.80 4.40 -5.90 4.40 -1.60 0 -2.45 -0.20 -2.50 -0.60 -0.15 -2.75 0.20 -41.65 0.40 -42.20 0.20 -0.50 1.35 -0.70 4.45 -0.70 3.45 0 4.25 0.15 4.60 0.90 0.20 0.45 0.25 3.90 0.10 7.60 -0.20 5.95 -0.35 6.75 -1.15 6.90 -1.30 0.25 -3.30 -1.20 -3.65 -2.70 -0.25 -0.90 -0.60 -1.20 -1.40 -1.10 -1 0.15 -1.05 0.45 -1.05 5.15 0 4.25 0.10 5 0.85 5.15 0.50 0.10 1.05 -0.40 1.50 -1.25 0.70 -1.50 2.80 -2.50 4.10 -2 0.60 0.25 0.80 1 0.80 2.85 0 2.05 -0.25 2.80 -1.25 3.75 -0.65 0.70 -1.45 1.25 -1.75 1.25 -0.25 0 -0.50 0.40 -0.50 0.95 0 0.80 0.55 0.95 4.60 1.20 6.05 0.35 7.55 -0.60 4.15 -2.60 -1.70 -1 -1.75 -1.10 -1.75 -4 0 -2.50 0.15 -3.05 1 -3.30 1.40 -0.45 3 0.60 3.60 2.30 0.35 1 0.80 1.45 1.35 1.35 0.65 -0.15 0.85 -1.05 1.05 -4.90 0.15 -2.60 0.20 -5.05 0.10 -5.35 -0.40 -1.25 -2 -0.70 -2.55 0.85 -0.30 0.90 -1.05 1.70 -1.85 2 -2.55 1 -2.70 0.65 -2.70 -7.20 0 -8.35 -0.55 -7.70 5.90 -7.30 l4.30 0.25 -0.10 16.75 c-0.05 9.20 -0.25 21.50 -0.40 27.35 l-0.35 10.55 -1.80 1.20 c-3.40 2.20 -3.95 7.10 -1.10 9.95 4.15 4.15 10.90 1.85 11.40 -3.90 0.25 -2.80 -1 -5.20 -3.35 -6.55 l-1.45 -0.85 0.25 -26.75 c0.15 -14.70 0.35 -27.05 0.50 -27.35 0.25 -0.90 20.70 -0.95 21.60 -0.05 0.65 0.65 0.80 4.75 0.30 7.35 -0.35 1.80 -1.90 3 -4.35 3.50 -1.25 0.25 -1.60 0.60 -1.60 1.55 0 1.65 2.25 2.05 9.75 1.90 l5.75 -0.15 0 -1.50 c0 -1.30 -0.20 -1.50 -1.85 -1.80 -1 -0.15 -2.20 -0.55 -2.60 -0.90 -1.20 -1 -1.80 -3.95 -1.45 -7.15 l0.30 -2.90 10.80 0.10 10.80 0.15 -0.15 27.25 c-0.15 24.15 -0.30 27.30 -1 27.75 -2.80 1.80 -3.75 3.10 -3.95 5.55 -0.20 1.80 0 3 0.55 4.15 2.75 5.30 10.60 4.35 12.35 -1.50 0.80 -2.55 -0.10 -5 -2.65 -7.20 l-2.05 -1.70 0.35 -26.90 c0.20 -14.80 0.55 -27.10 0.75 -27.30 0.20 -0.20 2.40 -0.35 4.85 -0.25 l4.45 0.15 0.15 7.40 c0.10 6.10 0 7.40 -0.60 7.65 -1.20 0.45 -3.50 -0.95 -3.80 -2.30 -0.20 -0.80 -0.70 -1.30 -1.40 -1.40 -1.10 -0.15 -1.10 -0.05 -1.10 5.10 0 4.75 0.10 5.30 0.90 5.30 0.50 0 1.10 -0.60 1.45 -1.50 0.35 -0.90 1.05 -1.60 1.85 -1.80 2.25 -0.55 2.80 0 2.80 2.90 0 3.10 -0.30 3.65 -2.15 4.35 -0.85 0.35 -1.35 0.90 -1.35 1.55 0 1 0.25 1.05 5.15 0.90 4.70 -0.15 5.10 -0.25 5.10 -1.15 0 -0.60 -0.40 -1.05 -1 -1.15 -1.60 -0.30 -2.25 -1.60 -2.25 -4.40 0 -2.85 0.40 -3.25 2.75 -2.65 1.05 0.30 1.70 0.90 2.10 1.95 0.30 0.80 0.80 1.50 1.10 1.50 1.10 0 1.60 -2.15 1.45 -6.35 -0.10 -3.65 -0.30 -4.40 -1 -4.55 -0.50 -0.10 -1.10 0.40 -1.50 1.25 -0.80 1.65 -2.90 2.95 -4.05 2.50 -0.75 -0.30 -0.85 -1.25 -0.85 -7.30 0 -8.25 -0.25 -7.95 5.65 -7.65 l3.85 0.20 0 17.60 c0 19.60 -0.30 25.25 -1.35 25.65 -1.30 0.50 -5.15 -0.40 -6.15 -1.45 -0.55 -0.60 -1.15 -2 -1.40 -3.10 -0.30 -1.75 -0.55 -2.05 -1.60 -2.05 -1.15 0 -1.30 0.25 -1.60 2.75 -0.15 1.50 -0.30 5.05 -0.35 7.90 l-0.05 5.10 1.75 0 c1.60 0 1.75 -0.15 1.75 -1.45 0 -0.75 0.45 -2 1.05 -2.75 0.90 -1.15 1.35 -1.30 4.30 -1.30 l3.30 0 -0.35 21.85 -0.35 21.90 -1.35 1.40 -1.30 1.40 -7.30 -0.15 -7.25 -0.15 -0.25 -8.50 c-0.20 -7.10 -0.40 -8.70 -1.15 -9.85 -2.40 -3.55 -10.30 -3.10 -12.45 0.70 -0.40 0.75 -0.75 4 -0.90 9.40 l-0.25 8.25 -4.50 0.05 c-2.45 0 -6.15 -0.05 -8.10 -0.15z"/>
  <path d="M95.35 115.20 c-0.20 -0.20 -0.35 -3.60 -0.35 -7.55 0 -8.90 0.45 -10.15 3.90 -10.15 0.95 0 2 0.40 2.60 1 0.95 0.95 1 1.55 0.90 8.90 l-0.15 7.85 -3.25 0.15 c-1.80 0.10 -3.45 0 -3.65 -0.20z"/>
  <path d="M43.65 114.25 c-0.15 -0.45 -0.15 -4.10 0 -8.15 0.30 -7.25 0.30 -7.35 1.65 -8.50 1.65 -1.45 3.95 -1.20 5.35 0.50 0.85 1 0.90 1.75 0.60 8.65 -0.20 4.10 -0.45 7.65 -0.60 7.90 -0.10 0.20 -1.65 0.35 -3.45 0.35 -2.45 0 -3.30 -0.20 -3.55 -0.75z"/>
  <path d="M97.60 86.25 c-1.80 -0.80 -2.50 -2.70 -1.65 -4.55 1.50 -3.30 6.55 -2.10 6.55 1.55 0 2.65 -2.30 4.05 -4.90 3z"/>
  <path d="M45.50 85 c-2.05 -2.05 -0.60 -6 2.25 -6 1.55 0 3.75 2.05 3.75 3.50 0 1.45 -2.20 3.50 -3.75 3.50 -0.70 0 -1.70 -0.45 -2.25 -1z"/>
  <path d="M127.35 19.60 c-1.70 -1.85 -0.40 -5.10 2 -5.10 1 0 2.65 1.90 2.65 3 0 1.25 -1.70 3 -2.90 3 -0.55 0 -1.30 -0.40 -1.75 -0.90z"/>
  <path d="M17.35 18.10 c-1.15 -1.25 -1.05 -2.90 0.15 -4.10 1.30 -1.30 2.30 -1.25 3.75 0.25 1.50 1.45 1.55 2.45 0.25 3.75 -1.25 1.25 -3.10 1.30 -4.15 0.10z"/>
 </g>
</svg>