<?xml version="1.0" encoding="utf-8"?>
<!DOCTYPE svg PUBLIC "-//W3C//DTD SVG 1.0//EN" "http://www.w3.org/TR/2001/REC-SVG-20010904/DTD/svg10.dtd">
<svg version="1.0" xmlns="http://www.w3.org/2000/svg" width="157px" height="125px" viewBox="0 0 157 125" preserveAspectRatio="xMidYMid meet">
 <g fill="#000000">
  <path d="M16.90 123.50 c-3.75 -1.10 -8.80 -5.95 -11.05 -10.55 -0.70 -1.50 -1.80 -4.70 -2.35 -7.20 -0.95 -3.90 -1.05 -5.55 -0.85 -12.25 0.30 -9.20 1 -12.30 4.35 -19.25 3.10 -6.30 7.40 -11.45 12.30 -14.80 3.85 -2.60 3.70 -2.35 4.40 -7.35 0.45 -3 -1.70 -8.10 -3.40 -8.10 -0.30 0 -1.95 0.65 -3.70 1.50 -4.75 2.25 -8.70 3.15 -11 2.50 -3.40 -0.90 -4.85 -3.20 -4.65 -7.35 0.10 -2.15 4.35 -4.95 8.15 -5.45 2.10 -0.25 4.50 0.25 9.50 2.05 2.20 0.80 2.50 0.80 3.60 0.05 0.70 -0.45 1.70 -2 2.30 -3.65 0.95 -2.45 1.05 -3.60 0.85 -7.30 -0.25 -5.25 -1.60 -8.30 -4.70 -10.65 -1.80 -1.40 -2.50 -1.55 -6.60 -1.85 -2.55 -0.15 -5.95 -0.05 -7.60 0.25 -1.60 0.25 -3.30 0.40 -3.70 0.20 -1.40 -0.50 -0.15 -1.80 2.65 -2.60 3.45 -1 11.10 -0.80 13.35 0.40 0.85 0.45 3.20 2.50 5.25 4.60 5.30 5.40 6.30 5.80 14.45 5.80 7.65 0 8.40 -0.25 11.50 -3.95 5 -5.95 14.05 -10.40 17.45 -8.60 1.85 1 2.75 3.40 2.45 6.50 -0.25 2.75 -0.55 3.55 -4.45 10.15 -1.80 3.05 -2.10 4.40 -0.90 4.40 0.80 0 19.15 -9 20.10 -9.85 0.65 -0.60 0.90 -1.55 0.90 -3.40 0 -5.05 3.45 -12.05 7.40 -15.10 1.45 -1.05 2.50 -1.40 4.95 -1.55 3.75 -0.25 5.35 0.55 6.45 3.25 2 4.75 -2.50 10.80 -12.20 16.40 l-4.35 2.55 0.15 9.20 c0.10 6.95 0.35 10.20 1.10 13 1.15 4.80 3.05 9.50 4 10.15 0.60 0.35 2.30 -1.05 7.50 -6.25 14.95 -14.75 20.05 -18.45 26.80 -19.65 3.80 -0.65 4 -0.75 6.10 -3.20 1.20 -1.40 2.55 -2.55 3 -2.55 0.45 0 1.40 0.60 2.20 1.35 2.45 2.35 6.25 1.30 7.75 -2.25 1.30 -3.05 0.15 -6.10 -2.30 -6.10 -1.85 0 -3.15 1.05 -3.80 3.05 -1.15 3.40 -3.70 3.15 -3.05 -0.25 0.45 -2.45 2.95 -5.20 5.05 -5.60 2.25 -0.40 3.20 -0.05 5.40 2.10 1.70 1.70 1.85 2.05 1.85 4.70 0 2.35 -0.25 3.20 -1.50 4.90 -2.40 3.30 -5.35 4.45 -8.60 3.30 -1.10 -0.40 -2.45 -0.70 -2.95 -0.70 -1.50 0 -1.15 1.70 0.55 2.65 2 1.20 3 3.25 3 6.10 0 2.75 -0.90 4.65 -3 6.45 -2.25 1.85 -6.25 1.85 -8.45 0 -1.35 -1.10 -1.55 -1.60 -1.55 -3.75 0 -1.35 0.35 -3.35 0.80 -4.45 1.15 -2.85 0.50 -3.45 -2.60 -2.25 -3.95 1.50 -8.85 5.20 -17.25 13 -9.90 9.20 -12.45 12.20 -12.45 14.55 0 1.10 0.30 1.85 0.75 2 0.40 0.20 2.50 -0.15 4.65 -0.75 4.30 -1.15 10.65 -1.40 15.15 -0.55 3.50 0.65 9.65 3.75 10.75 5.40 2 3.05 1.15 7.60 -1.90 10.50 -1.95 1.75 -6.50 2.75 -9.85 2.10 -6.25 -1.25 -11.65 -3.75 -15.55 -7.30 -1.05 -0.95 -2.10 -1.70 -2.40 -1.70 -0.70 0 -1.30 3.75 -0.75 4.70 0.20 0.40 1.15 1.25 2.10 1.90 2.85 1.95 3.70 3.50 3.75 6.85 0.05 3.35 -0.85 5.05 -3.60 6.80 -0.85 0.55 -1.50 1.25 -1.40 1.50 0.10 0.30 3.40 0.50 8.60 0.50 l8.45 0 -0.15 -3.30 c-0.30 -5.65 1.65 -7.95 6.80 -7.95 5.05 0 7.30 2.70 7 8.45 l-0.15 3.30 6.70 0.15 c4.50 0.10 6.90 -0.05 7.35 -0.45 0.50 -0.40 0.70 -1.75 0.70 -4.50 0 -4.40 -0.40 -4.95 -3.80 -4.95 -1.55 0 -2.20 0.35 -3.90 2.25 -3.15 3.40 -3.35 3.15 -3.20 -3.60 0.15 -5.10 0.25 -5.90 1 -6.05 0.60 -0.10 1.10 0.40 1.55 1.50 1.05 2.50 1.90 2.95 5.20 2.80 l2.90 -0.15 0.15 -2.35 c0.20 -2.95 -0.50 -4.30 -2.70 -5.20 -1.10 -0.45 -1.70 -1.05 -1.70 -1.70 0 -0.95 0.35 -1 5.70 -1 6.10 0 7.45 0.50 5.30 1.95 -3 2.05 -4 3.45 -4 5.45 0 2.15 0.50 2.80 2.70 3.30 2.15 0.55 4.10 -0.55 5.55 -3.05 2.05 -3.40 2.50 -2.65 2.65 4.40 0.15 8.05 -0.70 9.50 -2.85 4.75 -0.75 -1.70 -1.35 -2.30 -2.75 -2.80 -2.40 -0.75 -4.60 -0.25 -5 1.15 -0.15 0.60 -0.30 5.60 -0.30 11.10 0 5.50 -0.25 10.80 -0.50 11.80 -1.35 4.75 -5.20 7.70 -10.25 7.70 -3.35 0 -6.70 -1.50 -7.75 -3.50 -1.20 -2.20 0.65 -3 2.85 -1.25 3.65 2.85 8.95 2.10 11.55 -1.70 0.85 -1.30 1.05 -2.40 1.15 -6.70 0.10 -2.95 -0.10 -5.35 -0.35 -5.60 -0.35 -0.35 -3.30 -0.45 -7.50 -0.40 l-6.95 0.15 -0.15 4 c-0.15 4.55 -0.65 5.35 -4 6.85 -1.85 0.85 -2.40 0.90 -4 0.35 -3.85 -1.20 -5.90 -4.25 -5.40 -8.15 0.40 -3.40 -0.05 -3.80 -4.40 -3.80 -4.70 0 -5.45 0.50 -3.70 2.35 0.75 0.75 1.60 2.05 1.85 2.80 0.85 2.15 0.65 5.90 -0.35 7.85 -1.75 3.35 -7.60 5.05 -11.10 3.25 -1.35 -0.70 -1.75 -0.70 -4 0.05 -3.05 1 -5.45 0.70 -8 -1 -3.95 -2.60 -4.70 -8.40 -1.60 -12.25 0.90 -1.10 1.60 -2.20 1.60 -2.45 0 -0.85 -3 -1 -17 -0.95 l-13.75 0.10 0.15 3.05 c0.20 3.70 -0.65 5.65 -3.05 7.15 -3.20 1.95 -7.60 0.95 -9.70 -2.25 -0.60 -0.95 -0.85 -2.30 -0.85 -4.75 l0.05 -3.35 -4.05 -0.35 c-2.25 -0.15 -10 -0.25 -17.30 -0.15 l-13.25 0.15 -0.15 1.95 c-0.40 4.90 1.60 12.15 4.70 16.80 3.90 5.95 9.40 8.45 13.55 6.25 5.05 -2.75 4.70 -10.15 -0.45 -10.35 -2.50 -0.10 -3.80 1.15 -4 3.80 -0.10 1.40 -0.40 2.05 -0.90 2.05 -1.10 0 -1.75 -2.40 -1.20 -4.55 0.55 -2.30 2.45 -3.75 5.25 -4.05 2.70 -0.30 5.25 1.20 6.60 3.95 1.80 3.70 -0.60 10.30 -4.40 12.10 -1.75 0.85 -5.10 1 -7.35 0.30z m75.20 -14.60 l2 -1.15 1.90 1.15 c3.90 2.25 7.90 1 9.05 -2.85 1.45 -4.85 -4.60 -9.15 -8.55 -6.05 -1.65 1.25 -2.70 1.25 -4.55 -0.10 -2.80 -2.10 -7.05 -0.80 -8.45 2.60 -1.40 3.40 1.45 7.50 5.20 7.50 0.75 0 2.30 -0.50 3.40 -1.10z m-42.30 -5.45 c1.55 -1.50 1.65 -4.75 0.15 -6.65 -1.40 -1.80 -4.45 -1.85 -6.20 -0.05 -1.80 1.75 -1.75 5.30 0.05 7.10 1.05 1.05 1.60 1.20 3.05 1 1 -0.20 2.30 -0.80 2.95 -1.40z m73.95 0.30 c1.75 -1.70 1.70 -4.30 -0.10 -6 -2.85 -2.60 -7.15 -0.85 -7.15 3 0 1.25 0.40 2.20 1.25 3 0.80 0.85 1.75 1.25 3 1.25 1.25 0 2.20 -0.40 3 -1.25z m-31.90 -11.50 c0.05 -0.25 -0.65 -1 -1.60 -1.60 -2.20 -1.45 -3.45 -3.80 -3.45 -6.65 0 -3 1.20 -5.10 3.95 -7 l2.25 -1.55 0 -3.20 c0 -2.80 -0.15 -3.25 -0.90 -3.25 -1.25 0 -2.10 1 -2.10 2.40 0 3.85 -3.30 6.45 -7.35 5.85 -2.75 -0.40 -4.65 -2.90 -4.65 -6 0.05 -3.65 2.90 -5.90 7.10 -5.65 2.50 0.15 2.60 0.10 4.25 -2 0.90 -1.20 1.65 -2.65 1.65 -3.25 0 -0.55 -0.90 -3.35 -2 -6.20 -2.70 -6.80 -3.35 -10.35 -3.85 -20 -0.25 -5.10 -0.65 -8.35 -1 -8.70 -0.50 -0.50 -1.75 -0.10 -5.75 1.75 -8.35 3.90 -21.10 10.35 -22.05 11.20 -0.75 0.70 -0.85 1.30 -0.60 3.60 0.60 5.10 -1.85 8.55 -6.35 8.85 -4.80 0.35 -7.90 -2.55 -7.90 -7.45 0 -2.05 0.25 -2.70 1.85 -4.45 l1.90 -2.10 3.60 0.30 3.60 0.25 4.50 -4.55 c2.45 -2.55 5.30 -5.70 6.30 -7 3.75 -4.90 5.50 -10.95 3.80 -13 -2.35 -2.90 -11.15 1.85 -17.30 9.35 l-1.90 2.35 0.85 2.50 c0.90 2.45 0.90 2.50 -0.25 4.85 -0.65 1.30 -1.80 2.65 -2.50 3.05 -1.20 0.65 -1.55 0.65 -3.35 -0.15 -1.85 -0.85 -2.10 -0.85 -3.15 -0.10 -0.65 0.45 -2 0.80 -3 0.80 -1.45 0 -2.15 -0.35 -3.15 -1.55 -1.65 -1.95 -2 -3.40 -1.60 -6.45 0.30 -2.25 0.20 -2.55 -0.90 -3.25 -2.50 -1.65 -3 -1 -3.40 4.40 -0.30 4.35 -0.55 5.30 -2.15 8.15 -2.05 3.80 -2.10 4.30 -0.65 7.80 0.70 1.70 1.20 4.25 1.35 7.10 l0.30 4.45 1.75 0.95 c3.65 2 5.40 5.45 4.80 9.50 -0.90 6.10 -7.55 8.45 -12.10 4.25 -1.45 -1.30 -1.75 -1.95 -1.80 -3.65 0 -1.10 0.35 -2.75 0.80 -3.60 0.80 -1.50 0.75 -1.60 -0.05 -1.60 -0.90 0 -5.10 4.75 -8 9 -2.75 4.10 -4.60 8.20 -5.65 12.65 -1.15 5.05 -1.25 7 -0.35 7.75 0.40 0.30 13.45 0.65 36.35 0.95 42.80 0.60 49.60 0.55 49.85 -0.10z m31.15 0 c0.85 -0.45 1.65 -1.40 2 -2.50 1.45 -4.45 -4.15 -7.60 -7.50 -4.25 -1.85 1.85 -1.15 5.35 1.40 6.70 1.70 0.95 2.30 0.95 4.10 0.05z m-30.10 -8.20 c0.10 -2.15 -0.10 -3.95 -0.40 -4.25 -0.75 -0.75 -2.90 1.55 -3.25 3.45 -0.35 1.90 1.35 4.90 2.65 4.65 0.70 -0.15 0.90 -0.85 1 -3.85z m6.20 1.85 c0.95 -1.85 0.95 -1.95 0.05 -3.75 -0.60 -1.25 -1.25 -1.90 -1.90 -1.90 -0.90 0 -1 0.40 -1.15 3.20 -0.10 1.75 -0.05 3.50 0.10 3.90 0.50 1.20 1.90 0.50 2.90 -1.45z m22.65 -9.50 c3.25 -1.45 4.35 -7.05 1.75 -9 -0.70 -0.50 -3.25 -1.60 -5.75 -2.45 -4.05 -1.40 -4.95 -1.50 -8.75 -1.30 -2.35 0.15 -5.50 0.65 -7 1.20 -3.70 1.30 -3.85 2.35 -0.65 5.15 5.85 5.15 16.10 8.40 20.40 6.40z m-35.15 -2.75 c1.90 -1.75 0.35 -5.25 -2.35 -5.25 -1.85 0 -3.95 2.25 -3.45 3.75 0.65 2.35 3.95 3.20 5.80 1.50z m-57.85 -4.90 c1 -0.95 1.25 -1.70 1.25 -3.75 0 -2.20 -0.25 -2.80 -1.45 -4.05 -2.50 -2.45 -4.05 -1.80 -6 2.55 -1.35 3 -1.30 4.25 0.25 5.45 1.85 1.45 4.45 1.35 5.95 -0.20z m22.80 -21.70 c3 -3 1.20 -7.55 -2.95 -7.55 -4.50 0 -6.10 6.10 -2.15 8.25 2 1.10 3.50 0.90 5.10 -0.70z m-38.90 -2.50 c3.35 -1.15 5.30 -2.50 5.35 -3.60 0 -1.20 -0.85 -1.75 -4.40 -2.70 -2.70 -0.75 -3.55 -0.80 -5.85 -0.30 -4.25 0.95 -6.10 4.20 -3.75 6.55 1.30 1.30 4.90 1.35 8.65 0.05z m123 -3.40 c0.45 -0.45 1.10 -1.70 1.45 -2.75 0.50 -1.70 0.45 -2.10 -0.45 -3.30 -1.45 -1.95 -3.35 -2.50 -4.60 -1.40 -1.30 1.15 -2.70 4.80 -2.45 6.35 0.30 2.30 3.95 2.95 6.05 1.10z m-97.60 -9.25 c0.35 -0.65 0.75 -1.80 0.95 -2.65 0.45 -2.25 1.75 -2.15 2.95 0.15 1.45 2.85 2.35 3.45 3.55 2.35 1.25 -1.15 1.30 -3.75 0.05 -5.30 -0.85 -1.05 -1.25 -1.15 -5.35 -1 -5.20 0.15 -5.85 0.55 -5.90 3.70 -0.10 3.50 2.40 5.30 3.75 2.75z m54.65 -14.95 c5.75 -3.60 9.30 -7.65 9.30 -10.60 0 -1.45 -2.05 -3.35 -3.60 -3.35 -3.80 0 -9.15 7.05 -9.75 12.80 -0.25 2.45 -0.20 2.70 0.70 2.70 0.50 0 2.05 -0.70 3.35 -1.55z"/>
  <path d="M57.90 88.65 c-2.90 -0.25 -3.25 -1.35 -0.75 -2.40 0.95 -0.40 1.95 -1.05 2.30 -1.45 0.95 -1.10 1.25 -4.50 0.55 -5.75 -0.45 -0.90 -0.95 -1.10 -2.65 -0.95 l-2.10 0.15 -0.05 2.50 c0 4.40 -0.55 5.65 -2.85 6.80 -2.55 1.35 -5.15 1.05 -8 -0.85 l-2.10 -1.35 -2.35 1.30 c-3.40 1.90 -6.80 1.85 -9 -0.10 -1.55 -1.35 -1.65 -1.70 -1.65 -4.65 0 -2.45 0.30 -3.60 1.20 -5.10 1.40 -2.25 10.90 -12.50 11.80 -12.70 0.30 -0.10 1.45 0.95 2.50 2.25 1.05 1.30 3.40 3.90 5.20 5.80 l3.25 3.35 3.05 0 c3.55 0 4.25 -0.50 4.25 -3.05 0 -2.85 -0.80 -4.35 -2.75 -5.30 -1.10 -0.50 -1.75 -1.15 -1.65 -1.65 0.15 -0.60 1.05 -0.80 4.65 -0.90 2.50 -0.10 5 0 5.65 0.15 1.45 0.35 1.40 1.65 -0.10 2.25 -2.30 0.85 -3.30 2.45 -3.30 5.25 0 2.90 0.60 3.75 2.65 3.75 2.30 0 4.70 -1.40 5.60 -3.30 0.85 -1.80 1.95 -2.20 2.45 -0.90 0.40 1 0.40 4.75 0 8.10 -0.30 2.10 -0.50 2.60 -1.25 2.60 -0.55 0 -0.95 -0.35 -0.95 -0.80 0 -0.40 -0.65 -1.45 -1.50 -2.25 -1.30 -1.35 -1.75 -1.50 -4.10 -1.35 -2.45 0.15 -2.65 0.25 -3.05 1.65 -0.70 2.45 0.55 5.30 2.80 6.50 1.95 1.05 2.35 1.95 1.05 2.45 -0.80 0.30 -4.45 0.30 -8.80 -0.05z m-19.05 -4.10 c0.60 -0.45 1.35 -1.45 1.65 -2.30 1.30 -3.40 1.50 -3.80 1.95 -3.55 0.20 0.15 0.55 1.15 0.70 2.20 0.65 3.95 5.60 6.35 8.50 4.10 1.10 -0.85 1.35 -1.45 1.35 -3.25 0 -1.70 -0.40 -2.65 -1.90 -4.65 -2.95 -3.95 -8 -9.10 -8.95 -9.10 -0.95 0 -7.60 6.80 -9.70 9.95 -2.20 3.40 -1.95 6.20 0.75 7.30 1.75 0.75 4 0.45 5.65 -0.70z"/>
 </g>
 <g fill="#ffffff">
  <path d="M0 62.50 l0 -62.50 78.50 0 78.50 0 0 62.50 0 62.50 -78.50 0 -78.50 0 0 -62.50z m24.25 60.70 c3.80 -1.80 6.20 -8.40 4.40 -12.10 -1.35 -2.75 -3.90 -4.25 -6.60 -3.95 -2.80 0.30 -4.70 1.75 -5.25 4.05 -0.55 2.15 0.10 4.55 1.20 4.55 0.50 0 0.80 -0.65 0.90 -2.05 0.20 -2.65 1.50 -3.90 4 -3.80 5.15 0.20 5.50 7.60 0.45 10.35 -4.15 2.20 -9.65 -0.30 -13.55 -6.25 -3.10 -4.65 -5.10 -11.90 -4.70 -16.80 l0.15 -1.95 13.25 -0.15 c7.30 -0.10 15.05 0 17.30 0.15 l4.05 0.35 -0.05 3.35 c0 2.45 0.25 3.80 0.85 4.75 2.10 3.20 6.50 4.20 9.70 2.25 2.40 -1.50 3.25 -3.45 3.05 -7.15 l-0.15 -3.05 13.75 -0.10 c14 -0.05 17 0.10 17 0.95 0 0.25 -0.70 1.35 -1.60 2.45 -3.10 3.85 -2.35 9.65 1.60 12.25 2.55 1.70 4.95 2 8 1 2.25 -0.75 2.65 -0.75 4 -0.05 3.50 1.80 9.35 0.10 11.10 -3.25 1 -1.95 1.20 -5.70 0.35 -7.85 -0.25 -0.75 -1.10 -2.05 -1.85 -2.80 -1.75 -1.85 -1 -2.35 3.70 -2.35 4.35 0 4.80 0.40 4.40 3.80 -0.50 3.90 1.55 6.95 5.40 8.15 1.60 0.55 2.15 0.50 4 -0.35 3.35 -1.50 3.85 -2.30 4 -6.85 l0.15 -4 6.95 -0.15 c4.20 -0.05 7.15 0.05 7.50 0.40 0.25 0.25 0.45 2.65 0.35 5.60 -0.10 4.30 -0.30 5.40 -1.15 6.70 -2.60 3.80 -7.90 4.55 -11.55 1.70 -2.20 -1.75 -4.05 -0.95 -2.85 1.25 1.05 2 4.40 3.50 7.75 3.50 5.05 0 8.90 -2.95 10.25 -7.70 0.25 -1 0.50 -6.30 0.50 -11.80 0 -5.50 0.15 -10.50 0.30 -11.10 0.40 -1.40 2.60 -1.90 5 -1.15 1.40 0.50 2 1.10 2.75 2.80 2.15 4.75 3 3.30 2.85 -4.75 -0.15 -7.05 -0.60 -7.80 -2.65 -4.40 -1.45 2.50 -3.40 3.60 -5.55 3.05 -2.20 -0.50 -2.70 -1.15 -2.70 -3.30 0 -2 1 -3.40 4 -5.45 2.15 -1.45 0.80 -1.95 -5.30 -1.95 -5.35 0 -5.70 0.05 -5.70 1 0 0.65 0.60 1.25 1.70 1.70 2.20 0.90 2.90 2.25 2.70 5.20 l-0.15 2.35 -2.90 0.15 c-3.30 0.15 -4.15 -0.30 -5.20 -2.80 -0.45 -1.10 -0.95 -1.60 -1.55 -1.50 -0.75 0.15 -0.85 0.95 -1 6.05 -0.15 6.75 0.05 7 3.20 3.60 1.70 -1.90 2.35 -2.25 3.90 -2.25 3.40 0 3.80 0.55 3.80 4.95 0 2.75 -0.20 4.10 -0.70 4.50 -0.45 0.40 -2.85 0.55 -7.35 0.45 l-6.70 -0.15 0.15 -3.30 c0.30 -5.75 -1.95 -8.45 -7 -8.45 -5.15 0 -7.10 2.30 -6.80 7.95 l0.15 3.30 -8.45 0 c-5.20 0 -8.50 -0.20 -8.60 -0.50 -0.10 -0.25 0.55 -0.95 1.40 -1.50 2.75 -1.75 3.65 -3.45 3.60 -6.80 -0.05 -3.35 -0.90 -4.90 -3.75 -6.85 -0.95 -0.65 -1.90 -1.50 -2.10 -1.90 -0.55 -0.95 0.05 -4.70 0.75 -4.70 0.30 0 1.35 0.75 2.40 1.70 3.90 3.55 9.30 6.05 15.55 7.30 3.35 0.65 7.90 -0.35 9.85 -2.10 3.05 -2.90 3.90 -7.45 1.90 -10.50 -1.10 -1.65 -7.25 -4.75 -10.75 -5.40 -4.50 -0.85 -10.85 -0.60 -15.15 0.55 -2.15 0.60 -4.25 0.95 -4.65 0.75 -0.45 -0.15 -0.75 -0.90 -0.75 -2 0 -2.35 2.55 -5.35 12.45 -14.55 8.40 -7.80 13.30 -11.50 17.25 -13 3.10 -1.20 3.75 -0.60 2.60 2.25 -0.45 1.10 -0.80 3.10 -0.80 4.45 0 2.15 0.20 2.65 1.55 3.75 2.20 1.85 6.20 1.85 8.45 0 2.10 -1.80 3 -3.70 3 -6.45 0 -2.85 -1 -4.90 -3 -6.10 -1.70 -0.95 -2.05 -2.65 -0.55 -2.65 0.50 0 1.85 0.30 2.95 0.70 3.25 1.15 6.20 0 8.60 -3.30 1.25 -1.70 1.50 -2.55 1.50 -4.90 0 -2.65 -0.15 -3 -1.85 -4.70 -2.20 -2.15 -3.15 -2.50 -5.40 -2.10 -2.10 0.40 -4.60 3.15 -5.05 5.60 -0.65 3.40 1.90 3.65 3.05 0.25 0.65 -2 1.95 -3.05 3.80 -3.05 2.45 0 3.60 3.05 2.30 6.10 -1.50 3.55 -5.30 4.60 -7.75 2.25 -0.80 -0.75 -1.75 -1.35 -2.20 -1.35 -0.45 0 -1.80 1.15 -3 2.55 -2.10 2.45 -2.30 2.55 -6.10 3.20 -6.75 1.20 -11.85 4.90 -26.80 19.65 -5.20 5.20 -6.90 6.60 -7.50 6.25 -0.95 -0.65 -2.85 -5.35 -4 -10.15 -0.75 -2.80 -1 -6.05 -1.10 -13 l-0.15 -9.20 4.35 -2.55 c9.70 -5.60 14.20 -11.65 12.20 -16.40 -1.10 -2.70 -2.70 -3.50 -6.45 -3.25 -2.45 0.15 -3.50 0.50 -4.95 1.55 -3.95 3.05 -7.40 10.05 -7.40 15.10 0 1.85 -0.25 2.80 -0.90 3.40 -0.95 0.85 -19.30 9.85 -20.10 9.85 -1.20 0 -0.90 -1.35 0.90 -4.40 3.90 -6.60 4.20 -7.40 4.45 -10.15 0.30 -3.10 -0.60 -5.50 -2.45 -6.50 -3.40 -1.80 -12.45 2.65 -17.45 8.60 -3.10 3.70 -3.85 3.95 -11.50 3.95 -8.15 0 -9.15 -0.40 -14.45 -5.80 -2.05 -2.10 -4.40 -4.15 -5.25 -4.60 -2.25 -1.20 -9.90 -1.40 -13.35 -0.40 -2.80 0.80 -4.05 2.10 -2.65 2.60 0.40 0.20 2.10 0.05 3.70 -0.20 1.65 -0.30 5.05 -0.40 7.60 -0.25 4.10 0.30 4.80 0.45 6.60 1.85 3.10 2.35 4.45 5.40 4.70 10.65 0.20 3.70 0.10 4.85 -0.85 7.30 -0.60 1.65 -1.60 3.20 -2.30 3.65 -1.10 0.75 -1.40 0.75 -3.60 -0.05 -5 -1.80 -7.40 -2.30 -9.50 -2.05 -3.80 0.50 -8.05 3.30 -8.15 5.45 -0.20 4.15 1.25 6.45 4.65 7.35 2.30 0.65 6.25 -0.25 11 -2.50 1.75 -0.85 3.40 -1.50 3.70 -1.50 1.70 0 3.85 5.10 3.40 8.10 -0.70 5 -0.55 4.75 -4.40 7.35 -4.90 3.35 -9.20 8.50 -12.30 14.80 -3.35 6.95 -4.05 10.05 -4.35 19.25 -0.20 6.70 -0.10 8.35 0.85 12.25 0.55 2.50 1.65 5.70 2.35 7.20 2.25 4.60 7.30 9.45 11.05 10.55 2.25 0.70 5.60 0.55 7.35 -0.30z"/>
  <path d="M85.65 109 c-2.10 -1.25 -3.10 -4.25 -2.15 -6.50 1.40 -3.40 5.65 -4.70 8.45 -2.60 1.85 1.35 2.90 1.35 4.55 0.10 2.60 -2 6.75 -0.85 8.25 2.30 0.70 1.55 0.75 2.15 0.30 3.75 -1.15 3.85 -5.15 5.10 -9.05 2.85 l-1.90 -1.15 -2 1.15 c-2.45 1.35 -4.35 1.40 -6.45 0.10z"/>
  <path d="M43.80 103.85 c-1 -1.05 -1.30 -1.80 -1.30 -3.60 0 -3.05 1.60 -4.75 4.45 -4.75 2.60 0 4.05 1.70 4.05 4.75 0 2.50 -1.45 4.15 -4.15 4.60 -1.45 0.20 -2 0.05 -3.05 -1z"/>
  <path d="M117.75 103.75 c-2.65 -2.60 -0.80 -7.25 2.85 -7.25 1.10 0 2.15 0.45 3.05 1.25 2.85 2.65 1 7.25 -2.90 7.25 -1.25 0 -2.20 -0.40 -3 -1.25z"/>
  <path d="M42 92.35 c-22.90 -0.30 -35.95 -0.65 -36.35 -0.95 -0.90 -0.75 -0.80 -2.70 0.35 -7.75 1.05 -4.45 2.90 -8.55 5.65 -12.65 2.90 -4.25 7.10 -9 8 -9 0.80 0 0.85 0.10 0.05 1.60 -0.45 0.85 -0.80 2.50 -0.80 3.60 0.05 1.70 0.35 2.35 1.80 3.65 4.55 4.20 11.20 1.85 12.10 -4.25 0.60 -4.05 -1.15 -7.50 -4.80 -9.50 l-1.75 -0.95 -0.30 -4.45 c-0.15 -2.85 -0.65 -5.40 -1.35 -7.10 -1.45 -3.50 -1.40 -4 0.65 -7.80 1.60 -2.85 1.85 -3.80 2.15 -8.15 0.40 -5.40 0.90 -6.05 3.40 -4.40 1.10 0.70 1.20 1 0.90 3.25 -0.40 3.05 -0.05 4.50 1.60 6.45 1 1.20 1.70 1.55 3.15 1.55 1 0 2.35 -0.35 3 -0.80 1.05 -0.75 1.30 -0.75 3.15 0.10 1.80 0.80 2.15 0.80 3.35 0.15 0.70 -0.40 1.85 -1.75 2.50 -3.05 1.15 -2.35 1.15 -2.40 0.25 -4.85 l-0.85 -2.50 1.90 -2.35 c3.30 -4.05 6.30 -6.55 9.90 -8.40 5.55 -2.90 8.15 -2.25 8.05 1.95 -0.10 4.40 -3.30 9.50 -10.75 17.10 l-4.50 4.55 -3.60 -0.25 -3.60 -0.30 -1.90 2.10 c-1.60 1.75 -1.85 2.40 -1.85 4.45 0 4.90 3.10 7.80 7.90 7.45 4.50 -0.30 6.95 -3.75 6.35 -8.85 -0.25 -2.30 -0.15 -2.90 0.60 -3.60 0.95 -0.85 13.70 -7.30 22.05 -11.20 4 -1.85 5.25 -2.25 5.75 -1.75 0.35 0.35 0.75 3.60 1 8.70 0.50 9.65 1.15 13.20 3.85 20 1.10 2.85 2 5.65 2 6.20 0 0.60 -0.75 2.05 -1.65 3.25 -1.65 2.10 -1.75 2.15 -4.25 2 -1.40 -0.10 -3.05 0.10 -3.70 0.45 -3.45 1.80 -4.40 5.75 -2.15 9.05 3.10 4.60 10.75 1.95 10.75 -3.70 0 -1.40 0.85 -2.40 2.10 -2.40 0.75 0 0.90 0.45 0.90 3.25 l0 3.20 -2.25 1.55 c-2.75 1.90 -3.95 4 -3.95 7 0 2.85 1.25 5.20 3.45 6.65 3.85 2.45 4.90 2.40 -48.25 1.70z m24.70 -3.65 c1.30 -0.50 0.90 -1.40 -1.05 -2.45 -2.25 -1.20 -3.50 -4.05 -2.80 -6.50 0.40 -1.40 0.60 -1.50 3.05 -1.65 2.35 -0.15 2.80 0 4.10 1.35 0.85 0.80 1.50 1.85 1.50 2.25 0 0.45 0.40 0.80 0.95 0.80 0.75 0 0.95 -0.50 1.25 -2.60 0.40 -3.35 0.40 -7.10 0 -8.10 -0.50 -1.30 -1.60 -0.90 -2.45 0.90 -0.90 1.90 -3.30 3.30 -5.60 3.30 -2.05 0 -2.65 -0.85 -2.65 -3.75 0 -2.80 1 -4.40 3.30 -5.25 1.50 -0.60 1.55 -1.90 0.10 -2.25 -0.65 -0.15 -3.15 -0.25 -5.65 -0.15 -3.60 0.10 -4.50 0.30 -4.65 0.90 -0.10 0.50 0.55 1.15 1.65 1.65 1.95 0.95 2.75 2.45 2.75 5.30 0 2.55 -0.70 3.05 -4.25 3.05 l-3.05 0 -3.25 -3.35 c-1.80 -1.90 -4.15 -4.50 -5.20 -5.80 -1.05 -1.30 -2.20 -2.35 -2.50 -2.25 -0.90 0.20 -10.40 10.45 -11.80 12.70 -0.90 1.50 -1.20 2.65 -1.20 5.10 0 2.95 0.10 3.30 1.65 4.65 2.20 1.95 5.60 2 9 0.10 l2.35 -1.30 2.10 1.35 c2.85 1.90 5.45 2.20 8 0.85 2.30 -1.15 2.85 -2.40 2.85 -6.80 l0.05 -2.50 2.10 -0.15 c1.70 -0.15 2.20 0.05 2.65 0.95 0.70 1.25 0.40 4.65 -0.55 5.75 -0.35 0.40 -1.35 1.05 -2.30 1.45 -2.50 1.05 -2.15 2.15 0.75 2.40 4.35 0.35 8 0.35 8.80 0.05z"/>
  <path d="M33.20 85.25 c-2.70 -1.10 -2.95 -3.90 -0.75 -7.30 2.10 -3.15 8.75 -9.95 9.70 -9.95 0.95 0 6 5.15 8.95 9.10 1.50 2 1.90 2.95 1.90 4.65 0 1.80 -0.25 2.40 -1.35 3.25 -2.90 2.25 -7.85 -0.15 -8.50 -4.10 -0.15 -1.05 -0.50 -2.05 -0.70 -2.20 -0.45 -0.25 -0.65 0.15 -1.95 3.55 -1.05 2.80 -4.45 4.20 -7.30 3z"/>
  <path d="M118.90 92.20 c-3.65 -1.95 -3.05 -7 0.90 -8 1.95 -0.50 3.75 0.35 4.85 2.15 0.80 1.40 0.85 1.90 0.35 3.40 -0.35 1.10 -1.15 2.05 -2 2.50 -1.80 0.90 -2.40 0.90 -4.10 -0.05z"/>
  <path d="M90 86.40 c-1.25 -2 -1 -4.15 0.75 -5.90 1.80 -1.75 2.35 -0.85 2.15 3.55 -0.10 3 -0.30 3.70 -1 3.85 -0.55 0.10 -1.25 -0.45 -1.90 -1.50z"/>
  <path d="M96.20 87.35 c-0.15 -0.40 -0.20 -2.15 -0.10 -3.90 0.15 -2.80 0.25 -3.20 1.15 -3.20 0.65 0 1.30 0.65 1.90 1.90 0.90 1.80 0.90 1.90 -0.05 3.75 -1 1.95 -2.40 2.65 -2.90 1.45z"/>
  <path d="M112.50 76.05 c-6.50 -2.10 -13.70 -7.05 -13.40 -9.20 0.20 -1.50 4.65 -2.90 9.90 -3.20 3.80 -0.20 4.70 -0.10 8.75 1.30 2.50 0.85 5.05 1.95 5.75 2.45 2.60 1.95 1.50 7.55 -1.75 9 -1.85 0.85 -6.05 0.70 -9.25 -0.35z"/>
  <path d="M81.90 73.90 c-2.25 -1.80 -0.65 -5.50 2.35 -5.50 2.70 0 4.25 3.50 2.35 5.25 -1.10 1 -3.60 1.10 -4.70 0.25z"/>
  <path d="M22.80 68.95 c-1.55 -1.20 -1.60 -2.45 -0.25 -5.45 1.95 -4.35 3.50 -5 6 -2.55 1.20 1.25 1.45 1.85 1.45 4.05 0 2.05 -0.25 2.80 -1.25 3.75 -1.50 1.55 -4.10 1.65 -5.95 0.20z"/>
  <path d="M46.45 47.75 c-3.95 -2.15 -2.35 -8.25 2.15 -8.25 4.15 0 5.95 4.55 2.95 7.55 -1.60 1.60 -3.10 1.80 -5.10 0.70z"/>
  <path d="M4 44.50 c-2.35 -2.35 -0.50 -5.60 3.75 -6.55 2.30 -0.50 3.15 -0.45 5.85 0.30 3.55 0.95 4.40 1.50 4.40 2.70 -0.05 1.10 -2 2.45 -5.35 3.60 -3.75 1.30 -7.35 1.25 -8.65 -0.05z"/>
  <path d="M131 41.85 c-1.55 -0.80 -1.80 -2.40 -0.80 -5.10 1.60 -4.15 4.10 -4.80 6.45 -1.65 0.90 1.20 0.95 1.60 0.45 3.30 -1 3.25 -3.65 4.75 -6.10 3.45z"/>
  <path d="M34.95 32.15 c-0.90 -1.05 -0.80 -5 0.10 -5.90 0.45 -0.45 2.20 -0.75 5.15 -0.80 4.10 -0.15 4.50 -0.05 5.35 1 1.25 1.55 1.20 4.15 -0.05 5.30 -1.20 1.10 -2.10 0.50 -3.55 -2.35 -1.20 -2.30 -2.50 -2.40 -2.95 -0.15 -0.75 3.45 -2.55 4.75 -4.05 2.90z"/>
  <path d="M88.65 15.80 c0.60 -5.75 5.95 -12.80 9.75 -12.80 1.55 0 3.60 1.90 3.60 3.35 0 1.90 -2.05 5.10 -4.65 7.25 -3.15 2.65 -6.90 4.90 -8 4.90 -0.90 0 -0.95 -0.25 -0.70 -2.70z"/>
 </g>
</svg>