<?xml version="1.0" encoding="utf-8"?>
<!DOCTYPE svg PUBLIC "-//W3C//DTD SVG 1.0//EN" "http://www.w3.org/TR/2001/REC-SVG-20010904/DTD/svg10.dtd">
<svg version="1.0" xmlns="http://www.w3.org/2000/svg" width="171px" height="107px" viewBox="0 0 171 107" preserveAspectRatio="xMidYMid meet">
 <g fill="#000000">
  <path d="M77.65 97.65 c-12.95 -19.85 -13.75 -21.10 -13.55 -22.25 0.15 -1.15 0.20 -1.15 9.30 -1.30 l9.15 -0.10 -0.15 -5.65 -0.15 -5.60 -12.50 -0.15 c-6.85 -0.05 -12.65 -0.30 -12.95 -0.60 -0.25 -0.25 0.30 -1.25 1.40 -2.55 1.65 -1.95 1.80 -2.40 1.80 -5.25 0 -2.30 -0.20 -3.15 -0.75 -3.40 -1.15 -0.45 -2.15 0.15 -3.30 2 -3.10 5.05 -11.25 4.85 -14.70 -0.40 l-1.25 -1.90 -3.50 0 -3.50 0 0 6.40 c0 7.55 -1.15 18.80 -2.25 22.50 -1.50 4.90 0.45 12.35 3.65 14.25 2.40 1.35 4.95 1.10 6.60 -0.65 2.40 -2.60 2.30 -6.45 -0.25 -9.20 -1.55 -1.70 -3.20 -1.55 -4.20 0.30 -0.65 1.10 -0.65 1.50 -0.10 2.55 0.35 0.70 1.20 1.50 1.90 1.80 1.60 0.75 1.35 2.25 -0.45 2.45 -2.05 0.25 -4.30 -2.10 -4.65 -4.90 -0.60 -4.70 2.90 -7.85 7.25 -6.55 5.80 1.75 8.10 7.70 5.20 13.50 -1.55 3.05 -4.10 5 -7.15 5.40 -2.60 0.35 -6.90 -1.65 -9.05 -4.25 -1.60 -1.95 -3 -5.50 -3 -7.70 0 -0.75 -0.25 -1.40 -0.50 -1.40 -0.30 0 -2 1 -3.80 2.25 -3.50 2.40 -5.50 3.15 -9.45 3.55 -2.10 0.25 -2.95 0.05 -5.25 -1.15 -2.30 -1.15 -3 -1.85 -4.10 -4.10 -3.10 -6.10 -0.70 -13.05 4.50 -13.05 3.40 0 6.60 2.80 6.60 5.85 0 2.25 -0.70 3.45 -2.50 4.40 -3.05 1.60 -4 0.35 -1.75 -2.35 1.50 -1.75 1.50 -2 0.40 -3.30 -1.55 -1.80 -3.85 -1.65 -4.90 0.40 -1.70 3.25 1.25 8.40 5.35 9.55 2.65 0.70 5.10 -0.10 8.40 -2.75 5.70 -4.60 7.40 -9.70 7.85 -23.80 0.45 -12.95 -0.35 -19.35 -3.45 -28.75 -3.50 -10.50 -7.25 -17.65 -11.20 -21.60 -3.40 -3.35 -5.70 -4.25 -8 -3.20 -1.50 0.65 -1.65 3.10 -0.25 5.40 1.15 1.80 2.60 2.45 4.05 1.65 1.20 -0.65 1.30 -1.65 0.25 -2.50 -1.10 -0.90 -0.90 -1.50 0.50 -1.50 2.30 0 3.05 3.60 1.15 5.35 -2.55 2.30 -5.80 1.55 -8.15 -1.85 -1.75 -2.55 -1.95 -6.35 -0.40 -8.40 0.85 -1.10 1.45 -1.40 3.65 -1.50 4.25 -0.25 8.15 1.95 12.35 6.95 1.80 2.15 3.35 3.95 3.45 3.95 0.05 0 0.70 -1.80 1.45 -3.95 1.50 -4.50 3.55 -7.65 5.70 -8.80 2.20 -1.10 7.60 -1 10.05 0.25 2.65 1.35 4.15 3.60 4.15 6.25 0 4.05 -3.15 7.25 -7.15 7.25 -1.70 0 -2.40 -0.30 -3.80 -1.70 -1.45 -1.45 -1.70 -2.05 -1.70 -3.95 0 -1.85 0.25 -2.45 1.30 -3.30 1.60 -1.25 2.85 -1.35 3.90 -0.25 0.95 0.90 0.60 1.80 -0.45 1.35 -1.10 -0.40 -2.25 0.80 -2.25 2.35 0 4.30 6.50 2.85 6.60 -1.45 0.10 -2.35 -2.30 -4.60 -5.15 -4.90 -1.85 -0.20 -2.40 0 -3.60 1.10 -0.75 0.70 -1.85 2.25 -2.50 3.40 -0.95 1.85 -1.10 2.75 -1.05 8.10 0.05 5.75 0.20 6.45 3.30 17.75 l3.25 11.75 2.90 0.30 c3.50 0.40 4.05 0.25 4.45 -1.20 0.15 -0.60 0.85 -1.70 1.55 -2.45 4.40 -4.75 11.60 -3.80 14.35 1.85 0.85 1.70 1.40 2.25 2.25 2.25 1.15 0 1.15 -0.10 1.20 -5.60 0 -3.10 0.10 -6.35 0.25 -7.25 0.15 -1.45 -0.15 -1.85 -2.80 -4.20 -1.65 -1.45 -3 -2.90 -3 -3.25 0 -0.60 2.60 -0.70 14.25 -0.70 16.75 0 16.50 -0.10 12.10 4.40 l-2.80 2.85 -0.15 6.60 c-0.05 3.60 -0.05 6.65 0.10 6.80 0.15 0.10 3.10 0.35 6.60 0.55 5.95 0.30 6.40 0.25 6.90 -0.65 0.25 -0.55 0.50 -3.55 0.50 -6.75 0 -6.30 0.10 -6.10 -4.45 -10.90 -0.95 -1.05 -1.55 -2.05 -1.35 -2.25 0.55 -0.60 28.45 -0.15 29.05 0.45 0.35 0.30 -0.55 1.45 -2.65 3.30 l-3.10 2.85 0 7.15 0 7.10 1.20 0 c0.85 0 1.35 -0.45 1.80 -1.50 0.85 -2.05 3.55 -4.35 6 -5.05 3.75 -1.15 7.90 1 10.05 5.20 0.95 1.85 0.95 1.85 4.20 1.85 l3.20 0 1.05 -3.60 c0.60 -2 2.05 -6.90 3.25 -10.90 2.85 -9.60 3.25 -11.70 3.25 -16.95 0 -3.85 -0.20 -4.80 -1.40 -7.10 -2.45 -4.80 -6.70 -5.60 -9.85 -1.90 -1.65 2 -1.60 3.70 0.20 5.50 1.70 1.65 3.50 1.85 4.70 0.55 1.60 -1.80 0.75 -4.10 -1.50 -4.10 -1.25 0 -1.45 -0.50 -0.55 -1.40 0.95 -0.95 2.85 -0.70 4.15 0.65 3.30 3.25 -0.70 9.45 -5.55 8.50 -3.65 -0.65 -6.65 -4.90 -6 -8.50 0.45 -2.20 4.05 -5.55 6.55 -6.05 6.90 -1.30 11.35 2.20 13.50 10.50 0.40 1.60 0.85 3.05 1 3.20 0.15 0.15 1.10 -0.70 2.10 -1.95 4.90 -5.85 9.10 -8.45 13.60 -8.45 3.55 0 5.30 1.55 5.25 4.60 -0.05 2.55 -1.65 5.90 -3.50 7.35 -1.65 1.30 -4.50 1.35 -6.15 0.10 -2.10 -1.60 -1.35 -5.55 1 -5.55 1 0 1.25 0.75 0.45 1.25 -0.95 0.60 -0.50 2.25 0.75 2.85 1.05 0.45 1.40 0.40 2.30 -0.40 3.45 -3.10 3.05 -7.20 -0.70 -7.20 -1.80 0.05 -2.80 0.55 -5.75 2.95 -6.40 5.25 -14.10 22.60 -15.80 35.80 -1.25 9.35 -0.85 25.35 0.75 30.25 1.80 5.40 7.60 10.95 11.90 11.40 3.80 0.35 6.80 -1.75 8 -5.50 1.40 -4.40 -2.35 -7.85 -4.90 -4.60 -1.35 1.70 -1.30 1.80 0.25 3.65 2.55 3.05 0.10 4 -2.90 1.15 -3.50 -3.25 -0.10 -9 5.35 -9.20 1.95 -0.05 3.80 1.30 5.10 3.80 1.05 2.05 0.65 6.45 -0.90 9.55 -3.05 6 -11.50 6.50 -18.70 1.05 -3.40 -2.55 -4.25 -2.80 -4.25 -1.15 0 2 -1.45 5.55 -3.05 7.50 -3 3.65 -8.60 5.35 -11.85 3.65 -3.30 -1.70 -5.60 -5.55 -5.60 -9.25 0 -4.60 1.95 -7.45 6 -8.80 2.15 -0.70 2.55 -0.70 4.40 0 1.40 0.55 2.20 1.30 2.65 2.35 1.35 3.30 0.35 7.35 -2.15 8.55 -2.80 1.35 -5.15 -0.50 -2.40 -1.90 2.65 -1.40 3.25 -4.55 1 -5.75 -2.45 -1.30 -5.95 3.20 -5.35 6.85 0.45 2.65 2.55 4.65 4.95 4.65 4.20 0 6.40 -2.60 7.40 -8.70 0.45 -2.70 0.35 -3.90 -0.30 -6.45 -1.10 -4.25 -1.70 -13.85 -1.35 -21.20 0.25 -4.60 0.15 -6.30 -0.35 -6.90 -0.80 -0.95 -6.20 -1.05 -6.95 -0.10 -0.30 0.30 -1.10 1.30 -1.80 2.15 -3.65 4.60 -10.70 4.10 -14 -0.90 -0.85 -1.30 -1.65 -1.90 -2.45 -1.90 -1.05 0 -1.20 0.30 -1.55 2.75 -0.25 2.30 -0.15 3.05 0.70 4.45 0.60 0.95 1.40 1.95 1.80 2.30 0.40 0.35 0.75 0.95 0.75 1.40 0 0.65 -1.65 0.70 -12.85 0.55 l-12.90 -0.20 -0.40 4.95 c-0.25 2.70 -0.30 5.20 -0.15 5.55 0.15 0.45 2.75 0.75 9 1 6.45 0.25 8.90 0.55 9.35 1.05 0.70 0.90 0.25 1.65 -10.70 17.70 -5.90 8.65 -9.05 12.80 -9.70 12.90 -0.80 0.10 -2.10 -1.50 -6.50 -8.25z m12.30 -5.20 c7.40 -11 9.60 -14.60 9.15 -15 -0.20 -0.20 -6.85 -0.45 -14.75 -0.55 -15.45 -0.25 -15.60 -0.25 -14.30 2.20 0.60 1.10 8.30 13.45 11.80 18.80 0.95 1.45 1.95 2.60 2.30 2.50 0.35 -0.15 2.95 -3.70 5.80 -7.95z m12.75 -33 c1.75 -2.05 2.75 -5.50 2.15 -7.15 -0.40 -0.95 -7.10 -1.65 -8.10 -0.80 -0.50 0.40 -0.75 1.55 -0.75 3.30 0 2.40 0.20 2.90 1.80 4.70 1 1.10 2.10 2 2.45 2 0.40 0 1.45 -0.95 2.45 -2.05z m-31.40 -0.15 c1.60 -1.60 1.70 -1.90 1.70 -5 l0 -3.30 -4.25 0 -4.25 0 0 2.65 c0 2.60 0.50 3.85 2.65 6.25 1.40 1.50 2.15 1.40 4.15 -0.60z m11.30 -2.90 c0.10 -2.30 0.10 -4.45 0 -4.75 -0.10 -0.40 -1.10 -0.65 -2.35 -0.65 -1.80 0 -2.20 0.20 -2.45 1.15 -0.70 2.70 -0.35 4.05 1.80 6.20 1.15 1.20 2.25 2.15 2.45 2.15 0.20 0 0.45 -1.85 0.55 -4.10z m6.85 2.30 c2.05 -1.80 2.10 -1.85 1.95 -4.65 l-0.15 -2.80 -2.25 0 -2.25 0 -0.15 4.65 c-0.05 2.50 0.05 4.60 0.30 4.60 0.25 0 1.35 -0.80 2.55 -1.80z m33.20 -4.15 c1.35 -0.50 2.85 -1.90 2.85 -2.60 0 -0.25 -2.25 -0.45 -5 -0.45 -2.75 0 -5 0.20 -5 0.40 0 0.65 1.60 2 3 2.55 1.60 0.65 2.65 0.65 4.15 0.10z m-70.60 -1.70 c0.95 -0.60 1.65 -1.35 1.60 -1.60 -0.10 -0.30 -2.45 -0.55 -5.20 -0.65 l-5.10 -0.15 0.75 1.15 c1.70 2.55 5.20 3.10 7.95 1.25z m73.70 -5.85 c0.50 -0.75 -0.65 -2.45 -2.25 -3.25 -2.85 -1.50 -6.80 -0.50 -7.95 2.05 -0.45 1.10 -0.40 1.15 1.60 1.35 4.45 0.40 8.30 0.35 8.60 -0.15z m-20.85 -7.10 l0.15 -6.85 -1.85 -2.05 c-1 -1.10 -2.05 -2 -2.35 -2 -0.30 0 -1.40 0.85 -2.45 1.85 l-1.90 1.85 0 7.15 0 7.20 4.15 -0.15 4.10 -0.15 0.15 -6.85z m-50.75 6.30 c1.10 -1.10 -2.90 -4.20 -5.40 -4.20 -2.50 0 -6.50 3.10 -5.40 4.20 0.40 0.40 10.40 0.40 10.80 0z m18.85 -6.85 l0 -7.15 -2 -1.95 -2 -1.95 -2.15 2.10 -2.10 2.10 -0.15 6.30 c-0.10 3.45 -0.05 6.60 0.10 7 0.20 0.50 1.25 0.70 4.30 0.70 l4 0 0 -7.15z"/>
  <path d="M81.45 92.40 c-1.15 -2 -3.20 -5.30 -4.55 -7.35 -3.80 -5.80 -4.10 -5.55 7.30 -5.55 6.30 0 9.85 0.20 10.05 0.55 0.35 0.50 -9.30 15.55 -10.15 15.85 -0.25 0.05 -1.45 -1.50 -2.65 -3.50z m6 -5.25 c1.70 -2.40 3.05 -4.65 3.05 -5 0 -0.50 -1.50 -0.65 -6.25 -0.65 -3.80 0 -6.25 0.20 -6.25 0.50 0 0.90 5.70 9.50 6.30 9.50 0.05 0 1.50 -1.95 3.15 -4.35z"/>
  <path d="M89.40 72.05 c-2.05 -1.85 -2.20 -4.45 -0.35 -6.30 1.75 -1.70 3.40 -1.95 5.35 -0.75 3 1.85 3.20 4.95 0.50 7.25 -1.95 1.65 -3.50 1.60 -5.50 -0.20z"/>
  <path d="M73.45 71.55 c-2.25 -2.30 -1.70 -5.45 1.25 -6.85 3.20 -1.55 6.30 0.40 6.30 3.90 0 4.15 -4.55 5.90 -7.55 2.95z"/>
 </g>
 <g fill="#ffffff">
  <path d="M0 53.50 l0 -53.50 85.50 0 85.50 0 0 53.50 0 53.50 -85.50 0 -85.50 0 0 -53.50z m93.85 39.50 c10.95 -16.05 11.40 -16.80 10.70 -17.70 -0.45 -0.50 -2.90 -0.80 -9.35 -1.05 -6.25 -0.25 -8.85 -0.55 -9 -1 -0.15 -0.35 -0.10 -2.85 0.15 -5.55 l0.40 -4.95 12.90 0.20 c11.20 0.15 12.85 0.10 12.85 -0.55 0 -0.45 -0.35 -1.05 -0.75 -1.40 -0.40 -0.35 -1.20 -1.35 -1.80 -2.30 -0.85 -1.40 -0.95 -2.15 -0.70 -4.45 0.35 -2.45 0.50 -2.75 1.55 -2.75 0.80 0 1.60 0.60 2.45 1.90 3.30 5 10.35 5.50 14 0.90 0.70 -0.85 1.50 -1.85 1.80 -2.15 0.75 -0.95 6.15 -0.85 6.95 0.10 0.50 0.60 0.60 2.30 0.35 6.90 -0.35 7.35 0.25 16.95 1.35 21.20 1.40 5.45 -0.45 12.70 -3.70 14.40 -5.40 2.80 -10.30 -2.25 -7.55 -7.90 1.70 -3.55 5.05 -4.20 5.85 -1.15 0.40 1.60 -0.50 3.10 -2.30 4.05 -2.75 1.40 -0.40 3.25 2.40 1.90 2.50 -1.20 3.50 -5.25 2.15 -8.55 -0.45 -1.05 -1.25 -1.80 -2.65 -2.35 -1.85 -0.70 -2.25 -0.70 -4.40 0 -4.05 1.35 -6 4.20 -6 8.80 0 3.70 2.30 7.55 5.60 9.25 3.25 1.70 8.85 0 11.85 -3.65 1.60 -1.95 3.05 -5.50 3.05 -7.50 0 -1.65 0.85 -1.40 4.25 1.15 5.15 3.85 10.60 4.80 15.05 2.60 1.90 -0.95 2.65 -1.75 3.65 -3.65 4 -8 -0.70 -16 -7.40 -12.55 -3.65 1.90 -4.70 6 -2.15 8.40 3 2.85 5.45 1.90 2.90 -1.15 -1.55 -1.85 -1.60 -1.95 -0.25 -3.65 2.55 -3.25 6.30 0.20 4.90 4.60 -1.20 3.75 -4.20 5.85 -8 5.50 -4.30 -0.45 -10.10 -6 -11.90 -11.40 -1.60 -4.90 -2 -20.90 -0.75 -30.25 1.70 -13.20 9.40 -30.55 15.80 -35.80 2.95 -2.40 3.95 -2.90 5.75 -2.95 3.75 0 4.15 4.10 0.70 7.20 -0.90 0.80 -1.25 0.85 -2.30 0.40 -1.25 -0.60 -1.70 -2.25 -0.75 -2.85 0.80 -0.50 0.55 -1.25 -0.45 -1.25 -2.35 0 -3.10 3.95 -1 5.55 1.65 1.25 4.50 1.20 6.15 -0.10 1.85 -1.45 3.45 -4.80 3.50 -7.35 0.05 -3.05 -1.70 -4.60 -5.25 -4.60 -4.50 0 -8.70 2.60 -13.60 8.45 -1 1.25 -1.95 2.10 -2.10 1.95 -0.15 -0.15 -0.60 -1.60 -1 -3.20 -2.15 -8.30 -6.60 -11.80 -13.50 -10.50 -2.50 0.50 -6.10 3.85 -6.55 6.05 -0.65 3.60 2.35 7.85 6 8.50 4.85 0.95 8.85 -5.25 5.55 -8.50 -1.30 -1.35 -3.20 -1.60 -4.15 -0.65 -0.90 0.90 -0.70 1.40 0.55 1.40 2.25 0 3.10 2.30 1.50 4.10 -1.20 1.30 -3 1.10 -4.70 -0.55 -1.80 -1.80 -1.85 -3.50 -0.20 -5.50 3.15 -3.70 7.40 -2.90 9.85 1.90 1.20 2.30 1.40 3.25 1.40 7.10 0 5.25 -0.40 7.35 -3.25 16.95 -1.20 4 -2.65 8.90 -3.25 10.90 l-1.05 3.60 -3.20 0 c-3.25 0 -3.25 0 -4.20 -1.85 -2.15 -4.20 -6.30 -6.35 -10.05 -5.20 -2.45 0.70 -5.15 3 -6 5.05 -0.45 1.05 -0.95 1.50 -1.80 1.50 l-1.20 0 0 -7.10 0 -7.15 3.10 -2.85 c2.10 -1.85 3 -3 2.65 -3.30 -0.60 -0.60 -28.50 -1.05 -29.05 -0.45 -0.20 0.20 0.40 1.20 1.35 2.25 4.55 4.80 4.45 4.60 4.45 10.90 0 3.20 -0.25 6.20 -0.50 6.75 -0.50 0.90 -0.95 0.95 -6.90 0.65 -3.50 -0.20 -6.45 -0.45 -6.60 -0.55 -0.15 -0.15 -0.15 -3.20 -0.10 -6.80 l0.15 -6.60 2.80 -2.85 c4.40 -4.50 4.65 -4.40 -12.10 -4.40 -11.65 0 -14.25 0.10 -14.25 0.70 0 0.35 1.35 1.80 3 3.25 2.65 2.35 2.95 2.75 2.80 4.20 -0.15 0.90 -0.25 4.15 -0.25 7.25 -0.05 5.50 -0.05 5.60 -1.20 5.60 -0.85 0 -1.40 -0.55 -2.25 -2.25 -2.75 -5.65 -9.95 -6.60 -14.35 -1.85 -0.70 0.75 -1.40 1.85 -1.55 2.45 -0.40 1.45 -0.95 1.60 -4.45 1.20 l-2.90 -0.30 -3.25 -11.75 c-3.10 -11.30 -3.25 -12 -3.30 -17.75 -0.05 -5.35 0.10 -6.25 1.05 -8.10 0.65 -1.15 1.75 -2.70 2.50 -3.40 1.20 -1.10 1.75 -1.30 3.60 -1.10 2.85 0.30 5.25 2.55 5.15 4.90 -0.10 4.30 -6.60 5.75 -6.60 1.45 0 -1.55 1.15 -2.75 2.25 -2.35 1.05 0.45 1.40 -0.45 0.45 -1.35 -1.05 -1.10 -2.30 -1 -3.90 0.25 -1.05 0.85 -1.30 1.45 -1.30 3.30 0 1.90 0.25 2.50 1.70 3.95 1.40 1.40 2.10 1.70 3.80 1.70 4 0 7.15 -3.20 7.15 -7.25 0 -2.65 -1.50 -4.90 -4.15 -6.25 -2.45 -1.25 -7.85 -1.35 -10.05 -0.25 -2.15 1.15 -4.20 4.30 -5.70 8.80 -0.75 2.15 -1.40 3.95 -1.45 3.95 -0.10 0 -1.65 -1.80 -3.45 -3.95 -4.20 -5 -8.10 -7.20 -12.35 -6.95 -2.20 0.10 -2.80 0.40 -3.65 1.50 -1.55 2.05 -1.35 5.85 0.40 8.40 2.35 3.40 5.60 4.15 8.15 1.85 1.90 -1.75 1.15 -5.35 -1.15 -5.35 -1.40 0 -1.60 0.60 -0.50 1.50 1.05 0.85 0.95 1.85 -0.25 2.50 -1.45 0.80 -2.90 0.15 -4.05 -1.65 -1.40 -2.30 -1.25 -4.75 0.25 -5.40 2.30 -1.05 4.60 -0.15 8 3.20 3.95 3.95 7.70 11.10 11.20 21.60 3.10 9.40 3.90 15.80 3.45 28.75 -0.45 14.10 -2.15 19.20 -7.85 23.80 -3.30 2.65 -5.75 3.45 -8.40 2.75 -4.10 -1.15 -7.05 -6.30 -5.35 -9.55 1.05 -2.05 3.35 -2.20 4.90 -0.40 1.10 1.30 1.10 1.55 -0.40 3.30 -2.25 2.70 -1.30 3.95 1.75 2.35 5.05 -2.60 2 -10.25 -4.10 -10.25 -5.20 0 -7.60 6.95 -4.50 13.05 1.10 2.25 1.80 2.95 4.10 4.10 2.30 1.20 3.15 1.40 5.25 1.15 3.95 -0.40 5.95 -1.15 9.45 -3.55 1.80 -1.25 3.50 -2.25 3.80 -2.25 0.25 0 0.50 0.65 0.50 1.40 0 2.20 1.40 5.75 3 7.70 2.15 2.60 6.45 4.60 9.05 4.25 3.05 -0.40 5.60 -2.35 7.15 -5.40 2.90 -5.80 0.60 -11.75 -5.20 -13.50 -4.35 -1.30 -7.85 1.85 -7.25 6.55 0.35 2.80 2.60 5.15 4.65 4.90 1.80 -0.20 2.05 -1.70 0.45 -2.45 -0.70 -0.30 -1.55 -1.10 -1.90 -1.80 -0.55 -1.05 -0.55 -1.45 0.10 -2.55 1 -1.85 2.65 -2 4.20 -0.30 2.55 2.75 2.65 6.60 0.25 9.20 -1.05 1.15 -1.85 1.50 -3.25 1.50 -4.05 0 -6.30 -2.80 -7.25 -8.90 -0.45 -2.90 -0.45 -3.95 0.25 -6.20 1.10 -3.70 2.25 -14.95 2.25 -22.50 l0 -6.40 3.50 0 3.50 0 1.25 1.90 c3.45 5.25 11.60 5.45 14.70 0.40 1.15 -1.85 2.15 -2.45 3.30 -2 0.55 0.25 0.75 1.10 0.75 3.40 0 2.85 -0.15 3.30 -1.80 5.25 -1.10 1.30 -1.65 2.30 -1.40 2.55 0.30 0.30 6.10 0.55 12.95 0.60 l12.50 0.15 0.15 5.60 0.15 5.65 -9.15 0.10 c-9.10 0.15 -9.15 0.15 -9.30 1.30 -0.10 0.75 1.20 3.25 3.95 7.50 14.30 22.05 15.05 23.15 16.10 23 0.65 -0.10 3.80 -4.25 9.70 -12.90z m1.05 -20.75 c2.70 -2.30 2.50 -5.40 -0.50 -7.25 -1.95 -1.20 -3.60 -0.95 -5.35 0.75 -1.85 1.85 -1.70 4.45 0.35 6.30 2 1.80 3.55 1.85 5.50 0.20z m-15.15 -0.50 c2.45 -2.40 1.25 -6.75 -2.05 -7.55 -1.75 -0.45 -4.60 0.95 -5.20 2.60 -0.80 2.10 -0.60 3.20 0.95 4.75 1.90 1.90 4.55 2 6.30 0.20z"/>
  <path d="M81.85 97.90 c-3.50 -5.35 -11.20 -17.70 -11.80 -18.80 -1.30 -2.45 -1.15 -2.45 14.30 -2.20 7.90 0.10 14.55 0.35 14.75 0.55 0.60 0.55 -13.75 22.55 -14.95 22.95 -0.35 0.10 -1.35 -1.05 -2.30 -2.50z m7.75 -9.75 c2.75 -4.20 4.85 -7.85 4.65 -8.10 -0.20 -0.35 -3.75 -0.55 -10.05 -0.55 -11.40 0 -11.10 -0.25 -7.30 5.55 1.35 2.05 3.40 5.35 4.55 7.35 1.20 2 2.40 3.55 2.65 3.50 0.25 -0.10 2.75 -3.60 5.50 -7.75z"/>
  <path d="M83.40 90.65 c-1.20 -1.40 -5.40 -8.10 -5.40 -8.65 0 -0.30 2.45 -0.50 6.25 -0.50 4.75 0 6.25 0.15 6.25 0.65 0 0.55 -5.85 9.35 -6.20 9.35 -0.10 0 -0.50 -0.40 -0.90 -0.85z"/>
  <path d="M97.80 59.50 c-1.60 -1.80 -1.80 -2.30 -1.80 -4.70 0 -3.60 0.55 -4 5.05 -3.55 3.95 0.40 4.25 0.65 3.75 3.95 -0.35 2.25 -3.25 6.30 -4.55 6.30 -0.35 0 -1.45 -0.90 -2.45 -2z"/>
  <path d="M67.15 59.90 c-2.15 -2.40 -2.65 -3.65 -2.65 -6.25 l0 -2.65 4.25 0 4.25 0 0 3.30 c0 3.10 -0.10 3.40 -1.70 5 -2 2 -2.75 2.10 -4.15 0.60z"/>
  <path d="M79.60 58.35 c-2.15 -2.15 -2.50 -3.50 -1.80 -6.20 0.25 -0.95 0.65 -1.15 2.45 -1.15 1.25 0 2.25 0.25 2.35 0.65 0.35 0.95 -0.15 8.85 -0.55 8.85 -0.20 0 -1.30 -0.95 -2.45 -2.15z"/>
  <path d="M86.60 55.90 l0.15 -4.65 2.25 0 2.25 0 0.15 2.80 c0.15 2.80 0.10 2.85 -1.95 4.65 -1.20 1 -2.30 1.80 -2.55 1.80 -0.25 0 -0.35 -2.10 -0.30 -4.60z"/>
  <path d="M118.50 54.45 c-1.40 -0.55 -3 -1.90 -3 -2.55 0 -0.20 2.25 -0.40 5 -0.40 2.75 0 5 0.20 5 0.45 0 0.70 -1.50 2.10 -2.85 2.60 -1.50 0.55 -2.55 0.55 -4.15 -0.10z"/>
  <path d="M46.05 53.35 c-0.65 -0.30 -1.55 -1.10 -1.95 -1.75 l-0.75 -1.15 5.10 0.15 c2.75 0.10 5.10 0.35 5.20 0.65 0.20 0.80 -3.20 2.75 -4.85 2.75 -0.85 0 -2.10 -0.30 -2.75 -0.65z"/>
  <path d="M117.15 47.15 c-2 -0.20 -2.05 -0.25 -1.60 -1.35 1.15 -2.55 5.10 -3.55 7.95 -2.05 1.60 0.80 2.75 2.50 2.25 3.25 -0.30 0.50 -4.15 0.55 -8.60 0.15z"/>
  <path d="M96.50 39.85 l0 -7.15 1.90 -1.85 c1.05 -1 2.15 -1.85 2.45 -1.85 0.30 0 1.35 0.90 2.35 2 l1.85 2.05 -0.15 6.85 -0.15 6.85 -4.10 0.15 -4.15 0.15 0 -7.20z"/>
  <path d="M43.35 46.20 c-1.10 -1.10 2.90 -4.20 5.40 -4.20 2.50 0 6.50 3.10 5.40 4.20 -0.40 0.40 -10.40 0.40 -10.80 0z"/>
  <path d="M64.70 45.80 c-0.15 -0.40 -0.20 -3.55 -0.10 -7 l0.15 -6.30 2.10 -2.10 2.15 -2.10 2 1.95 2 1.95 0 7.15 0 7.15 -4 0 c-3.05 0 -4.10 -0.20 -4.30 -0.70z"/>
 </g>
</svg>