<?xml version="1.0" encoding="utf-8"?>
<!DOCTYPE svg PUBLIC "-//W3C//DTD SVG 1.0//EN" "http://www.w3.org/TR/2001/REC-SVG-20010904/DTD/svg10.dtd">
<svg version="1.0" xmlns="http://www.w3.org/2000/svg" width="179px" height="126px" viewBox="0 0 179 126" preserveAspectRatio="xMidYMid meet">
 <g fill="#000000">
  <path d="M86.20 124.05 c-4.40 -2 -6.85 -7.20 -5.70 -12.10 1.05 -4.30 5.25 -7.95 9.15 -7.95 0.95 0 1.95 -0.30 2.20 -0.60 0.30 -0.35 3.60 -8.95 7.35 -19.05 l6.80 -18.45 -2.65 -6.05 c-1.50 -3.35 -4.25 -9.80 -6.15 -14.30 -1.90 -4.50 -3.65 -8.25 -3.95 -8.30 -0.25 -0.10 -1.55 -0.50 -2.85 -0.90 -2.05 -0.60 -2.40 -0.60 -2.65 0 -0.15 0.40 -0.25 8.40 -0.25 17.80 0 9.40 -0.25 19.70 -0.50 22.85 -1.45 17.45 -9.15 31.10 -20.95 37.20 -6.30 3.25 -8.70 3.80 -16 3.80 -5.40 0 -6.70 -0.20 -9.10 -1.20 -4.05 -1.65 -10.60 -6.35 -15.25 -11 -4.55 -4.55 -6.60 -8.25 -8.20 -14.80 -1.70 -6.80 -1.85 -9.90 -1.60 -33.45 0.25 -22.60 0.20 -23.20 -0.70 -22.80 -0.55 0.25 -2.35 0.55 -4 0.65 -6.45 0.40 -10.50 -3.75 -10.10 -10.15 0.20 -3.55 1.50 -5.85 4.20 -7.70 1.60 -1.10 1.60 -1.15 0.90 -2.80 -1.65 -3.95 -0.50 -8.20 2.95 -10.95 1.75 -1.40 2.25 -1.55 5.55 -1.55 3.25 0 3.85 0.15 5.50 1.45 3.30 2.50 4.65 7.55 3.05 11.45 -0.30 0.75 0.05 0.85 3.75 0.85 l4.10 0 -0.35 -1.60 c-1.50 -6.65 2.55 -12.05 9 -12.10 3.05 0 5.25 1.15 7.45 3.85 1.45 1.80 1.55 2.20 1.55 5.90 l-0.05 3.95 2.55 0.05 c1.35 0 3.80 0.15 5.45 0.30 l2.95 0.25 -0.45 -1.90 c-0.65 -2.95 -0.40 -5.50 0.60 -7.25 3.35 -5.65 10.65 -6.65 14.90 -1.95 2.25 2.50 3.05 5.40 2.35 8.30 -0.30 1.20 -0.55 2.25 -0.55 2.40 0 0.15 1.45 0.30 3.25 0.30 1.80 0 3.25 -0.05 3.25 -0.10 0 -0.10 -0.35 -1.25 -0.75 -2.60 -2 -6.60 2.95 -13.30 9.75 -13.30 2 0 5.05 1 6.60 2.15 1.85 1.35 3.90 5.55 3.90 7.95 0 1.05 -0.35 2.75 -0.75 3.75 -0.40 0.95 -0.75 1.95 -0.75 2.20 0 0.25 3.15 0.45 6.95 0.45 l6.95 0 0.20 -3.85 c0.10 -2.15 0 -4.30 -0.20 -4.75 -0.25 -0.50 -1.35 -1.10 -2.45 -1.40 -1.65 -0.45 -2 -0.75 -1.85 -1.65 0.15 -1.05 0.35 -1.10 8.40 -1.25 10.05 -0.20 11.60 0.05 11.40 1.55 -0.10 0.75 -0.80 1.30 -2.40 1.85 l-2.25 0.80 -0.15 4.35 -0.15 4.35 4.85 0 c4.75 0 4.80 0 4.45 -1.10 -0.20 -0.65 -0.50 -2.45 -0.60 -4.05 -0.30 -3.95 1.30 -6.75 4.95 -8.55 1.40 -0.70 3.05 -1.30 3.60 -1.30 3.55 0 7.85 2.75 9.10 5.85 0.90 2.15 0.90 5.25 -0.05 7.50 -0.40 0.95 -0.75 1.85 -0.75 1.95 0 0.10 1.35 0.20 3.05 0.20 2.75 0 3.25 -0.15 5 -1.70 2.20 -1.90 5.70 -3 7.85 -2.50 8.50 2.05 11.20 11.50 4.85 17.05 l-2.20 2 -0.10 11.10 -0.05 11.15 2.40 1.65 c3.40 2.30 5.90 5 5.55 5.95 -0.25 0.60 -1.05 0.80 -3.25 0.80 -3.15 0 -4.75 0.85 -7.25 3.75 -2.90 3.50 -5.85 11.45 -5.85 15.90 0 2.35 1.35 5.75 2.55 6.35 2.55 1.40 8.10 -1 11.55 -5 1.20 -1.35 2.30 -2.50 2.55 -2.50 1.20 0 -0.60 6.45 -3.25 11.65 -3.45 6.85 -10 14.10 -14.90 16.60 -7.20 3.65 -14.40 0.10 -17.70 -8.80 -0.70 -1.90 -1.30 -4.05 -1.30 -4.70 0 -0.65 -0.25 -1.80 -0.55 -2.60 -0.50 -1.30 -0.60 -1.35 -0.95 -0.40 -0.20 0.55 -0.85 3.40 -1.40 6.30 -1.20 6.20 -4.10 13.50 -6 15 -0.80 0.60 -1.85 0.95 -2.80 0.85 -1.80 -0.20 -1.90 -0.30 -7.85 -14.40 -10 -23.75 -11.35 -26.75 -11.75 -26.65 -0.20 0.05 -1.30 2.40 -2.35 5.25 -5.80 15.25 -9.35 25.15 -9.35 25.90 0 0.45 0.50 1.25 1.05 1.80 1.60 1.40 2.95 4.65 2.95 7.20 0 7.60 -8.25 12.75 -15.30 9.55z m9.10 -5.25 c1.40 -1.40 1.70 -2.10 1.70 -3.75 0 -4.15 -2.25 -6.55 -6.05 -6.55 -2.95 0 -5.15 1.70 -6 4.50 -0.50 1.65 -0.45 2.20 0.50 4.15 1.25 2.60 2.40 3.25 5.75 3.30 2.10 0.05 2.60 -0.15 4.10 -1.65z m-36.10 -5.60 c3.80 -0.95 8.80 -3.70 11.30 -6.20 8.30 -8.30 11.75 -20.60 12.05 -43 l0.10 -7.75 -2.70 -0.30 c-1.50 -0.15 -2.85 -0.15 -3.05 0 -0.20 0.20 -0.05 1.20 0.35 2.30 1.40 4 0.60 7.55 -2.45 10.55 -5.65 5.65 -14.90 3.40 -17.10 -4.20 -0.65 -2.20 -0.70 -3.10 -0.20 -5 0.30 -1.30 0.80 -2.60 1.10 -2.95 0.75 -0.90 -0.75 -1.40 -2.05 -0.65 -1 0.50 -1.05 0.90 -1.05 11.75 l0 11.25 1.95 0 c1.05 0 2.65 0.15 3.50 0.30 1.45 0.30 1.85 0.05 4.60 -2.75 5.15 -5.35 6.10 -4.05 5.85 7.80 -0.15 6.40 -0.25 7.30 -1.10 7.90 -1.40 1.05 -2.35 0.30 -5.35 -4 l-2.55 -3.75 -3.15 0 c-1.70 0 -3.20 0.15 -3.35 0.30 -0.45 0.40 0.80 4.65 2 6.95 1.25 2.50 5.15 6.45 8 8.10 1.65 1 2.10 1.55 2.10 2.65 0 1.75 -0.70 2.30 -3.50 2.65 -3.45 0.45 -25 -0.50 -26.90 -1.15 -3.65 -1.35 -3.10 -4.05 1 -5.05 4.65 -1.10 10.35 -7.75 11.25 -13.10 l0.30 -1.85 -4.10 0 -4.10 0 -3.95 3.75 c-2.15 2.05 -4.15 3.75 -4.35 3.75 -1.10 0 -2.10 -1.40 -2.15 -3 -0.05 -0.95 -0.10 -4.95 -0.05 -8.80 0.05 -6.10 0.15 -7.15 0.90 -7.40 0.95 -0.40 3.45 1.20 6.65 4.25 2.20 2.15 2.30 2.20 6.40 2.45 2.30 0.15 4.35 0.15 4.60 0 0.20 -0.15 0.45 -5.40 0.55 -11.75 l0.20 -11.50 -1.20 -0.15 c-1.10 -0.15 -1.15 -0.05 -0.75 1.25 0.25 0.75 0.45 2.90 0.45 4.70 -0.05 4.40 -1.55 6.80 -5.50 8.70 -2.40 1.20 -3.20 1.35 -5.60 1.10 -5.45 -0.55 -9.30 -4.85 -9.30 -10.30 0 -1.55 0.25 -3.30 0.60 -3.95 0.30 -0.60 0.45 -1.35 0.30 -1.60 -0.15 -0.30 -2.20 -0.50 -4.50 -0.50 -3.55 0 -4.20 0.15 -4.40 0.90 -0.75 2.55 -0.10 16 1.25 26.10 0.90 7.05 4.10 15 8.20 20.45 2.45 3.25 7.90 7.65 12.40 10 2.70 1.45 3.25 1.55 8.15 1.55 3.15 0 6.50 -0.30 8.35 -0.80z m76.50 -25.35 c6.40 -22.25 7.45 -24.40 14.95 -30.55 3 -2.45 5.45 -3.40 9.85 -3.75 l3.75 -0.30 0 -10.15 0 -10.20 -1.95 -0.65 c-1.95 -0.70 -4.50 -2.75 -5.40 -4.45 -0.30 -0.50 -0.75 -2 -1.10 -3.25 -0.55 -2.25 -0.60 -2.30 -2.65 -2.45 -1.20 -0.10 -2.15 -0.05 -2.15 0.05 0 0.15 0.35 1.05 0.75 2 1.95 4.70 -0.45 10 -5.35 12.10 -5.05 2.05 -10.85 -0.85 -12.50 -6.30 -0.55 -1.95 -0.30 -4 0.85 -7.10 0.35 -0.75 -0.05 -0.85 -4.20 -0.85 l-4.60 0 0.15 4.10 0.15 4.05 1.75 0.60 c1.45 0.50 1.75 0.85 1.75 2.05 0 1.45 -0.05 1.45 -3.05 1.60 l-3.10 0.15 -5.85 15.75 -5.90 15.75 7.65 17.85 c10.25 24 9.95 23.35 10.45 22.80 0.25 -0.25 2.80 -8.75 5.75 -18.85z m26.20 14.85 c1.45 -0.70 3.35 -2.25 4.30 -3.35 2 -2.50 5.05 -7.80 4.65 -8.15 -0.45 -0.45 -3.25 1.25 -5.85 3.55 -1.40 1.25 -2.95 2.25 -3.50 2.25 -2.45 0 -5.50 -6.55 -5.50 -11.95 0 -4.50 1.85 -12.45 4 -16.90 2 -4.30 2.05 -4.35 8.80 -8.45 1.50 -0.90 0.15 -1.85 -2.90 -2.05 -2.35 -0.20 -3.10 0.05 -7.15 2.10 -2.45 1.30 -5.15 2.95 -5.95 3.65 -2.50 2.35 -5.35 7.10 -7.35 12.15 -2.55 6.40 -3.10 9.25 -2.85 14.15 0.35 6.75 3.05 10.55 9.35 13.15 3.75 1.50 6.70 1.50 9.95 -0.15z m-119.85 -35.95 c1.90 -1 3.45 -3.55 3.45 -5.70 0 -2.70 -2.60 -6.15 -4 -5.30 -0.20 0.10 -0.50 1.10 -0.65 2.15 -0.20 1 -0.65 2.30 -1.10 2.85 -0.75 1 -0.75 1 -1.50 0.05 -0.40 -0.55 -0.75 -1.85 -0.75 -2.90 0 -1.30 -0.25 -2.05 -0.80 -2.25 -1.05 -0.40 -3.10 1.70 -3.75 3.90 -0.50 1.60 -0.45 2.15 0.50 4.10 1.70 3.50 5.30 4.80 8.60 3.10z m27.95 0.10 c0.65 -0.35 1.75 -1.40 2.40 -2.35 1.55 -2.30 1.30 -5.50 -0.55 -7.35 -1.55 -1.55 -2.15 -1.25 -2.60 1.35 -0.20 1.10 -0.75 2.50 -1.25 3.10 -1.25 1.60 -2.30 0.55 -2.65 -2.60 -0.15 -1.40 -0.45 -2.75 -0.60 -3 -0.60 -0.95 -2.35 0.55 -3.35 2.85 -0.95 2.15 -0.95 2.35 -0.15 4.50 1.40 3.60 5.40 5.20 8.75 3.50z m40.75 -13.60 c0.75 -2.20 2.60 -7.25 4.05 -11.20 1.50 -3.95 2.55 -7.35 2.40 -7.60 -0.15 -0.25 -1.45 -0.45 -2.95 -0.45 -3.85 0 -4.05 -1.55 -0.35 -3.45 1.05 -0.55 1.15 -0.85 1 -4.70 l-0.15 -4.10 -6.45 -0.15 c-6 -0.10 -6.40 -0.05 -6.05 0.75 1.80 4.40 1.10 8.30 -2.15 11.75 l-1.25 1.35 4.65 10.90 c2.55 6 4.75 11.10 4.90 11.30 0.35 0.70 0.90 -0.25 2.35 -4.40z m-46 -5.75 l0 -3.25 -10.55 -0.25 c-5.80 -0.15 -10.95 -0.20 -11.40 -0.10 -0.65 0.15 -0.80 0.80 -0.80 3.35 l0 3.20 6.40 0.20 c3.50 0.05 8.60 0.15 11.35 0.10 l5 0 0 -3.25z m17.75 0.30 l0 -3.20 -5.45 -0.35 c-3 -0.20 -5.70 -0.20 -5.95 -0.05 -0.60 0.35 -1.30 5.60 -0.85 6.30 0.20 0.30 2.75 0.50 6.30 0.50 l5.95 0 0 -3.20z m-45.60 -0.65 l-0.15 -3.40 -7.75 0 -7.75 0 -0.15 2.70 c-0.10 1.45 -0.05 3 0.10 3.35 0.20 0.55 1.95 0.70 8.05 0.70 l7.80 0 -0.15 -3.35z m45.85 -8.80 c0.20 -0.65 0.25 -2.50 0.15 -4.10 l-0.15 -3 -14 -0.30 c-7.70 -0.20 -21.60 -0.35 -30.85 -0.40 l-16.90 -0.05 0 4 0 4 3.65 0.05 c1.95 0.05 13.40 0.25 25.35 0.40 11.95 0.20 24.15 0.40 27.10 0.45 5.25 0.10 5.40 0.05 5.65 -1.05z m13.80 -6.50 c3.65 -2.45 3.60 -7.75 0 -10.20 -5.80 -3.90 -12.65 3.55 -8.20 8.85 2.30 2.75 5.40 3.25 8.20 1.35z m50.25 -0.55 c1.25 -1.25 1.70 -2.15 1.70 -3.35 0 -5.65 -7.20 -7.95 -10.05 -3.25 -1.50 2.45 -1.25 4.60 0.75 6.60 1.40 1.40 2.10 1.70 3.80 1.70 1.70 0 2.40 -0.30 3.80 -1.70z m-133.65 0 c2.90 -1.20 4.35 -4.65 3.15 -7.45 -2.05 -4.90 -8.80 -5.25 -11.05 -0.55 -1.45 3.05 -0.10 6.65 2.90 7.95 2.05 0.90 3 0.90 5 0.05z m155.90 -4.35 c1.15 -1.25 1.45 -2 1.45 -3.80 0 -1.85 -0.25 -2.50 -1.50 -3.65 -1.70 -1.60 -3.10 -2 -5.35 -1.40 -3.75 0.95 -5 6.10 -2.20 8.95 1.20 1.20 1.90 1.45 3.80 1.45 2 0 2.60 -0.25 3.80 -1.55z m-103.90 -2.70 c0.55 -3.40 0.95 -3.30 -11.60 -3.15 l-11.30 0.15 -0.15 2.10 c-0.15 2.05 -0.10 2.10 1.50 2.25 0.90 0.10 6.05 0.25 11.45 0.30 l9.80 0.15 0.30 -1.80z m17.85 -0.45 l0 -2.25 -5.75 -0.15 c-3.20 -0.10 -6 -0.05 -6.25 0 -0.30 0.10 -0.50 1.20 -0.50 2.40 l0 2.20 6.25 0 6.25 0 0 -2.20z m-45.85 -0.15 c0.35 -2.90 -0.25 -3.15 -8.45 -3.15 -6.85 0 -7.10 0.05 -7.35 1.05 -0.15 0.60 -0.15 1.75 0 2.50 l0.30 1.45 7.60 0 7.65 0 0.25 -1.85z m35.40 -7.10 c1.65 -1.65 1.95 -2.25 1.95 -4.10 0 -6.30 -7.20 -9.30 -11.35 -4.75 -1.40 1.55 -1.65 2.15 -1.65 4.35 0 2.30 0.20 2.75 1.95 4.50 1.75 1.75 2.20 1.95 4.55 1.95 2.35 0 2.80 -0.20 4.55 -1.95z m-30.10 0.25 c4.30 -2.25 4 -8.95 -0.45 -10.80 -4.55 -1.90 -9.55 2.55 -8 7.20 1.20 3.70 5.05 5.30 8.45 3.60z m-23.65 -1.45 c3.20 -2.90 2.75 -7.60 -0.95 -9.90 -3.85 -2.40 -9.35 0.55 -9.35 5.05 0 4.05 2.35 6.45 6.40 6.50 1.70 0 2.45 -0.30 3.90 -1.65z m76.20 0.90 c4.30 -2.25 3.75 -9.15 -0.85 -11.10 -1.65 -0.65 -2.15 -0.65 -4.15 -0.05 -3.10 0.95 -4.70 3.30 -4.35 6.40 0.50 4.45 5.30 6.85 9.35 4.75z m51.85 -0.95 c1.60 -1.45 1.90 -2.05 1.90 -3.75 0 -1.65 -0.35 -2.35 -1.65 -3.70 -1.35 -1.35 -2 -1.60 -3.90 -1.60 -1.95 0 -2.50 0.25 -3.75 1.65 -4.65 5.20 2.30 12.10 7.40 7.40z"/>
 </g>
 <g fill="#ffffff">
  <path d="M0 63 l0 -63 89.50 0 89.50 0 0 63 0 63 -89.50 0 -89.50 0 0 -63z m94.90 61.20 c5.45 -2.25 8.10 -8.70 5.65 -13.95 -0.50 -1.10 -1.40 -2.45 -2 -2.95 -0.55 -0.55 -1.05 -1.35 -1.05 -1.80 0 -0.75 3.55 -10.65 9.35 -25.90 1.05 -2.85 2.15 -5.20 2.35 -5.25 0.40 -0.10 1.75 2.90 11.75 26.65 5.95 14.10 6.05 14.20 7.85 14.40 0.95 0.10 2 -0.25 2.80 -0.85 1.90 -1.50 4.80 -8.80 6 -15 0.55 -2.90 1.20 -5.75 1.40 -6.30 0.35 -0.95 0.45 -0.90 0.95 0.40 0.30 0.80 0.55 1.95 0.55 2.60 0 0.65 0.60 2.80 1.30 4.70 3.30 8.90 10.50 12.45 17.70 8.80 4.90 -2.50 11.45 -9.75 14.90 -16.60 2.65 -5.20 4.45 -11.65 3.25 -11.65 -0.25 0 -1.35 1.15 -2.55 2.50 -3.45 4 -9 6.40 -11.55 5 -1.20 -0.60 -2.55 -4 -2.55 -6.35 0 -4.45 2.95 -12.40 5.85 -15.90 2.50 -2.90 4.10 -3.75 7.25 -3.75 2.20 0 3 -0.20 3.25 -0.80 0.35 -0.95 -2.15 -3.65 -5.55 -5.95 l-2.40 -1.65 0.05 -11.15 0.10 -11.10 2.20 -2 c4.05 -3.50 4.65 -9 1.40 -13.25 -1.25 -1.65 -3.80 -3.20 -6.25 -3.80 -2.15 -0.50 -5.65 0.60 -7.85 2.50 -1.75 1.55 -2.25 1.70 -5 1.70 -1.70 0 -3.05 -0.10 -3.05 -0.20 0 -0.10 0.35 -1 0.75 -1.95 0.95 -2.25 0.95 -5.35 0.05 -7.50 -1.25 -3.10 -5.55 -5.85 -9.10 -5.85 -0.55 0 -2.20 0.60 -3.60 1.30 -3.65 1.80 -5.25 4.60 -4.95 8.55 0.10 1.60 0.40 3.40 0.60 4.05 0.35 1.10 0.30 1.10 -4.45 1.10 l-4.85 0 0.15 -4.35 0.15 -4.35 2.25 -0.80 c1.60 -0.55 2.30 -1.10 2.40 -1.85 0.20 -1.50 -1.35 -1.75 -11.40 -1.55 -8.05 0.15 -8.25 0.20 -8.40 1.25 -0.15 0.90 0.20 1.20 1.85 1.65 1.10 0.30 2.20 0.90 2.45 1.40 0.20 0.45 0.30 2.60 0.20 4.75 l-0.20 3.85 -6.95 0 c-3.80 0 -6.95 -0.20 -6.95 -0.45 0 -0.25 0.35 -1.25 0.75 -2.20 1.10 -2.65 0.90 -5.30 -0.50 -8.15 -2.30 -4.65 -7.05 -6.65 -12.35 -5.20 -5.15 1.45 -8.30 7.45 -6.65 12.80 0.40 1.35 0.75 2.50 0.75 2.60 0 0.05 -1.45 0.10 -3.25 0.10 -1.80 0 -3.25 -0.15 -3.25 -0.30 0 -0.15 0.25 -1.20 0.55 -2.40 0.70 -2.90 -0.10 -5.80 -2.35 -8.30 -3.20 -3.50 -8.55 -4 -12.10 -1.15 -3.40 2.75 -4.40 5.75 -3.40 10.35 l0.45 1.90 -2.95 -0.25 c-1.65 -0.15 -4.10 -0.30 -5.45 -0.30 l-2.55 -0.05 0.05 -3.95 c0 -3.70 -0.10 -4.10 -1.55 -5.90 -2.20 -2.70 -4.40 -3.85 -7.45 -3.85 -6.45 0.05 -10.50 5.45 -9 12.10 l0.35 1.60 -4.10 0 c-3.70 0 -4.05 -0.10 -3.75 -0.85 1.60 -3.90 0.25 -8.95 -3.05 -11.45 -1.65 -1.30 -2.25 -1.45 -5.50 -1.45 -3.30 0 -3.80 0.15 -5.55 1.55 -3.45 2.75 -4.60 7 -2.95 10.95 0.70 1.65 0.70 1.70 -0.90 2.80 -2.70 1.85 -4 4.15 -4.20 7.70 -0.40 6.40 3.65 10.55 10.10 10.15 1.65 -0.10 3.45 -0.40 4 -0.65 0.90 -0.40 0.95 0.20 0.70 22.80 -0.25 23.55 -0.10 26.65 1.60 33.45 1.60 6.55 3.65 10.25 8.20 14.80 4.65 4.65 11.20 9.35 15.25 11 2.40 1 3.70 1.20 9.10 1.20 7.30 0 9.70 -0.55 16 -3.80 11.80 -6.10 19.50 -19.75 20.95 -37.20 0.25 -3.15 0.50 -13.45 0.50 -22.85 0 -9.40 0.10 -17.40 0.25 -17.80 0.25 -0.60 0.60 -0.60 2.65 0 1.30 0.40 2.60 0.80 2.85 0.90 0.30 0.05 2.05 3.80 3.95 8.30 1.90 4.50 4.65 10.95 6.15 14.30 l2.65 6.05 -6.80 18.45 c-3.75 10.10 -7.05 18.70 -7.35 19.05 -0.25 0.30 -1.25 0.60 -2.20 0.60 -3.90 0 -8.10 3.65 -9.15 7.95 -2 8.45 6.40 15.60 14.40 12.25z"/>
  <path d="M87.65 119.90 c-0.65 -0.30 -1.60 -1.55 -2.20 -2.75 -0.95 -1.95 -1 -2.50 -0.50 -4.15 0.85 -2.80 3.05 -4.50 6 -4.50 3.80 0 6.05 2.40 6.05 6.55 0 1.65 -0.30 2.35 -1.70 3.75 -1.50 1.50 -2 1.70 -4.10 1.65 -1.35 0 -2.95 -0.25 -3.55 -0.55z"/>
  <path d="M42.70 112.45 c-4.50 -2.35 -9.95 -6.75 -12.40 -10 -4.10 -5.45 -7.30 -13.40 -8.20 -20.45 -1.35 -10.10 -2 -23.55 -1.25 -26.10 0.20 -0.75 0.85 -0.90 4.40 -0.90 2.30 0 4.35 0.20 4.50 0.50 0.15 0.25 0 1 -0.30 1.60 -0.35 0.65 -0.60 2.40 -0.60 3.95 0 5.45 3.85 9.75 9.30 10.30 2.40 0.25 3.20 0.10 5.60 -1.10 3.95 -1.90 5.45 -4.30 5.50 -8.70 0 -1.80 -0.20 -3.95 -0.45 -4.70 -0.40 -1.30 -0.35 -1.40 0.75 -1.25 l1.20 0.15 -0.20 11.50 c-0.10 6.35 -0.35 11.60 -0.55 11.75 -0.25 0.15 -2.30 0.15 -4.60 0 -4.10 -0.25 -4.20 -0.30 -6.40 -2.45 -3.20 -3.05 -5.70 -4.65 -6.65 -4.25 -0.75 0.25 -0.85 1.30 -0.90 7.40 -0.05 3.85 0 7.85 0.05 8.80 0.05 1.60 1.05 3 2.15 3 0.20 0 2.20 -1.70 4.35 -3.75 l3.95 -3.75 4.10 0 4.10 0 -0.30 1.85 c-0.90 5.35 -6.60 12 -11.25 13.10 -4.10 1 -4.65 3.70 -1 5.05 1.90 0.65 23.45 1.60 26.90 1.15 2.80 -0.35 3.50 -0.90 3.50 -2.65 0 -1.10 -0.45 -1.65 -2.10 -2.65 -2.85 -1.65 -6.75 -5.60 -8 -8.10 -1.20 -2.30 -2.45 -6.55 -2 -6.95 0.15 -0.15 1.65 -0.30 3.35 -0.30 l3.15 0 2.55 3.75 c3 4.30 3.95 5.05 5.35 4 0.85 -0.60 0.95 -1.50 1.10 -7.90 0.25 -11.85 -0.70 -13.15 -5.85 -7.80 -2.75 2.80 -3.15 3.05 -4.60 2.75 -0.85 -0.15 -2.45 -0.30 -3.50 -0.30 l-1.95 0 0 -11.25 c0 -10.85 0.05 -11.25 1.05 -11.75 1.30 -0.75 2.80 -0.25 2.05 0.65 -0.30 0.35 -0.80 1.65 -1.10 2.95 -0.50 1.90 -0.45 2.80 0.20 5 2.20 7.60 11.45 9.85 17.10 4.20 3.05 -3 3.85 -6.55 2.45 -10.55 -0.40 -1.10 -0.55 -2.10 -0.35 -2.30 0.20 -0.15 1.55 -0.15 3.05 0 l2.70 0.30 -0.10 7.75 c-0.25 18.90 -2.60 30 -8.10 38.05 -2.85 4.20 -5.30 6.55 -9 8.60 -4.40 2.45 -8.35 3.35 -14.60 3.35 -4.90 0 -5.45 -0.10 -8.15 -1.55z"/>
  <path d="M128.35 104.45 c-0.70 -1.50 -4.65 -10.75 -8.85 -20.55 l-7.65 -17.85 5.90 -15.75 5.85 -15.75 3.10 -0.15 c3 -0.15 3.05 -0.15 3.05 -1.60 0 -1.20 -0.30 -1.55 -1.75 -2.05 l-1.75 -0.60 -0.15 -4.05 -0.15 -4.10 4.60 0 c4.15 0 4.55 0.10 4.20 0.85 -1.75 4.60 -1.40 7.70 1.10 10.70 4.50 5.30 12.75 4.10 15.70 -2.30 1.15 -2.45 1.20 -4.70 0.20 -7.10 -0.40 -0.95 -0.75 -1.85 -0.75 -2 0 -0.10 0.95 -0.15 2.15 -0.05 2.05 0.15 2.10 0.20 2.65 2.45 0.35 1.25 0.80 2.75 1.10 3.25 0.90 1.70 3.45 3.75 5.40 4.45 l1.95 0.65 0 10.20 0 10.15 -3.75 0.30 c-4.40 0.35 -6.85 1.30 -9.85 3.75 -7.50 6.15 -8.55 8.30 -14.95 30.55 -2.95 10.10 -5.50 18.60 -5.75 18.85 -0.25 0.30 -0.95 -0.65 -1.60 -2.25z"/>
  <path d="M151.95 102.85 c-6.30 -2.60 -9 -6.40 -9.35 -13.15 -0.25 -4.90 0.30 -7.75 2.85 -14.15 2 -5.05 4.85 -9.80 7.35 -12.15 0.80 -0.70 3.50 -2.35 5.95 -3.65 4.05 -2.05 4.80 -2.30 7.15 -2.10 3.05 0.20 4.40 1.15 2.90 2.05 -6.75 4.10 -6.80 4.15 -8.80 8.45 -2.15 4.45 -4 12.40 -4 16.90 0 5.40 3.05 11.95 5.50 11.95 0.55 0 2.10 -1 3.50 -2.25 2.60 -2.30 5.40 -4 5.85 -3.55 0.40 0.35 -2.65 5.65 -4.65 8.15 -2.15 2.65 -6.15 4.65 -9.15 4.65 -1.30 0 -3.55 -0.55 -5.10 -1.15z"/>
  <path d="M36.15 66.70 c-1.05 -0.50 -2 -1.60 -2.70 -3.05 -0.95 -1.95 -1 -2.50 -0.50 -4.10 0.65 -2.20 2.70 -4.30 3.75 -3.90 0.55 0.20 0.80 0.95 0.80 2.25 0 1.05 0.35 2.35 0.75 2.90 0.75 0.95 0.75 0.95 1.50 -0.05 0.45 -0.55 0.90 -1.85 1.10 -2.85 0.15 -1.05 0.45 -2.05 0.65 -2.15 1.40 -0.85 4 2.60 4 5.30 0 3.35 -3.10 6.45 -6.35 6.45 -0.75 0 -2.10 -0.40 -3 -0.80z"/>
  <path d="M63.70 66.55 c-1 -0.60 -1.90 -1.80 -2.45 -3.20 -0.80 -2.15 -0.80 -2.35 0.15 -4.50 1 -2.30 2.75 -3.80 3.35 -2.85 0.15 0.25 0.45 1.60 0.60 3 0.35 3.15 1.40 4.20 2.65 2.60 0.50 -0.60 1.05 -2 1.25 -3.10 0.20 -1.10 0.55 -2.15 0.85 -2.30 1 -0.60 3 2.10 3.25 4.35 0.55 5.20 -5.15 8.75 -9.65 6z"/>
  <path d="M108.40 57.65 c-0.15 -0.20 -2.35 -5.30 -4.90 -11.30 l-4.65 -10.90 1.25 -1.35 c3.25 -3.45 3.95 -7.35 2.15 -11.75 -0.35 -0.80 0.05 -0.85 6.05 -0.75 l6.45 0.15 0.15 4.10 c0.15 3.85 0.05 4.15 -1 4.70 -3.70 1.90 -3.50 3.45 0.35 3.45 1.50 0 2.80 0.20 2.95 0.45 0.15 0.25 -0.90 3.65 -2.40 7.60 -1.45 3.95 -3.30 9 -4.05 11.20 -1.45 4.15 -2 5.10 -2.35 4.40z"/>
  <path d="M48.40 50.65 l-6.40 -0.20 0 -3.20 c0 -2.55 0.15 -3.20 0.80 -3.35 0.45 -0.10 5.60 -0.05 11.40 0.10 l10.55 0.25 0 3.25 0 3.25 -5 0 c-2.75 0.05 -7.85 -0.05 -11.35 -0.10z"/>
  <path d="M70.25 50.50 c-0.45 -0.70 0.25 -5.95 0.85 -6.30 0.25 -0.15 2.95 -0.15 5.95 0.05 l5.45 0.35 0 3.20 0 3.20 -5.95 0 c-3.55 0 -6.10 -0.20 -6.30 -0.50z"/>
  <path d="M21.20 49.80 c-0.15 -0.35 -0.20 -1.90 -0.10 -3.35 l0.15 -2.70 7.75 0 7.75 0 0.15 3.40 0.15 3.35 -7.80 0 c-6.10 0 -7.85 -0.15 -8.05 -0.70z"/>
  <path d="M50 38.95 c-11.95 -0.15 -23.40 -0.35 -25.35 -0.40 l-3.65 -0.05 0 -4 0 -4 16.90 0.05 c9.25 0.05 23.15 0.20 30.85 0.40 l14 0.30 0.15 3 c0.30 5.40 0.40 5.25 -5.80 5.15 -2.95 -0.05 -15.15 -0.25 -27.10 -0.45z"/>
  <path d="M90.70 32.50 c-0.55 -0.20 -1.65 -1.10 -2.35 -2 -3.35 -3.95 -0.25 -10 5.05 -10 2.05 0 4.70 1.95 5.50 4.10 1.90 4.95 -3.25 9.90 -8.20 7.90z"/>
  <path d="M139.20 31.30 c-2 -2 -2.25 -4.15 -0.75 -6.60 2.85 -4.70 10.05 -2.40 10.05 3.25 0 2.55 -2.70 5.05 -5.50 5.05 -1.70 0 -2.40 -0.30 -3.80 -1.70z"/>
  <path d="M8.15 31.25 c-3 -1.30 -4.35 -4.90 -2.90 -7.95 2.25 -4.70 9 -4.35 11.05 0.55 1.20 2.80 -0.25 6.25 -3.15 7.45 -2 0.85 -2.95 0.85 -5 -0.05z"/>
  <path d="M161.45 27.05 c-2.80 -2.85 -1.55 -8 2.20 -8.95 2.25 -0.60 3.65 -0.20 5.35 1.40 1.25 1.15 1.50 1.80 1.50 3.65 0 1.80 -0.30 2.55 -1.45 3.80 -1.20 1.30 -1.80 1.55 -3.80 1.55 -1.90 0 -2.60 -0.25 -3.80 -1.45z"/>
  <path d="M43.60 25.60 c-1.60 -0.15 -1.65 -0.20 -1.50 -2.25 l0.15 -2.10 11.30 -0.15 c12.55 -0.15 12.15 -0.25 11.60 3.15 l-0.30 1.80 -9.80 -0.15 c-5.40 -0.05 -10.55 -0.20 -11.45 -0.30z"/>
  <path d="M70.50 23.80 c0 -1.20 0.20 -2.30 0.50 -2.40 0.25 -0.05 3.05 -0.10 6.25 0 l5.75 0.15 0 2.25 0 2.20 -6.25 0 -6.25 0 0 -2.20z"/>
  <path d="M21.35 24.05 c-0.15 -0.75 -0.15 -1.90 0 -2.50 0.25 -1 0.50 -1.05 7.35 -1.05 8.20 0 8.80 0.25 8.45 3.15 l-0.25 1.85 -7.65 0 -7.60 0 -0.30 -1.45z"/>
  <path d="M63.45 16.55 c-1.75 -1.75 -1.95 -2.20 -1.95 -4.50 0 -2.20 0.25 -2.80 1.65 -4.35 4.15 -4.55 11.35 -1.55 11.35 4.75 0 1.85 -0.30 2.45 -1.95 4.10 -1.75 1.75 -2.20 1.95 -4.55 1.95 -2.35 0 -2.80 -0.20 -4.55 -1.95z"/>
  <path d="M37.50 17.15 c-1.40 -0.50 -2.95 -2.30 -3.50 -3.95 -1.55 -4.65 3.45 -9.10 8 -7.20 4.45 1.85 4.75 8.55 0.45 10.80 -1.40 0.70 -3.55 0.85 -4.95 0.35z"/>
  <path d="M11.40 16.20 c-1.80 -0.95 -2.90 -3.15 -2.90 -5.70 0 -4.50 5.50 -7.45 9.35 -5.05 3.70 2.30 4.15 7 0.95 9.90 -1.45 1.35 -2.20 1.65 -3.90 1.65 -1.20 -0.05 -2.75 -0.35 -3.50 -0.80z"/>
  <path d="M87.70 15.35 c-3.70 -3.40 -2.50 -8.75 2.30 -10.25 2 -0.60 2.50 -0.60 4.15 0.05 4.60 1.95 5.15 8.85 0.85 11.10 -2.55 1.30 -5.25 1 -7.30 -0.90z"/>
  <path d="M141.20 16.50 c-3.30 -1.35 -4.20 -5.85 -1.75 -8.60 1.25 -1.40 1.80 -1.65 3.75 -1.65 1.90 0 2.55 0.25 3.90 1.60 1.30 1.35 1.65 2.05 1.65 3.70 0 1.70 -0.30 2.30 -1.90 3.75 -1.85 1.75 -3.50 2.10 -5.65 1.20z"/>
 </g>
</svg>