<?xml version="1.0" encoding="utf-8"?>
<!DOCTYPE svg PUBLIC "-//W3C//DTD SVG 1.0//EN" "http://www.w3.org/TR/2001/REC-SVG-20010904/DTD/svg10.dtd">
<svg version="1.0" xmlns="http://www.w3.org/2000/svg" width="160px" height="139px" viewBox="0 0 160 139" preserveAspectRatio="xMidYMid meet">
 <g fill="#000000">
  <path d="M46.50 138.55 c-0.40 -0.20 -1.60 -0.80 -2.60 -1.30 -2.90 -1.40 -4.60 -4.25 -4.65 -7.80 0 -1.65 -0.15 -2.95 -0.35 -2.95 -0.20 0 -1.55 0.45 -3 1.05 -11.30 4.50 -23.95 4.15 -27.80 -0.80 -2.10 -2.70 -1.10 -7 2.30 -9.65 5.70 -4.55 12.90 -5.75 22.70 -3.85 l1.90 0.35 -2.05 -4.15 c-1.15 -2.30 -2.15 -4.30 -2.25 -4.40 -0.10 -0.10 -0.75 0.55 -1.50 1.40 -5.30 6.35 -15.70 3.70 -17 -4.25 -1.10 -7.05 6.40 -12.65 13.30 -9.90 1.15 0.45 2.15 0.75 2.25 0.60 0.10 -0.10 0 -2.30 -0.25 -4.90 -0.25 -2.60 -0.50 -6.25 -0.50 -8.10 l0 -3.40 -10.35 0 c-5.75 0 -11.60 -0.15 -13.05 -0.35 l-2.70 -0.30 0.20 -6.05 c0.15 -5.10 0.35 -6.40 1.35 -8.30 2.60 -5 4 -5.70 11.55 -5.80 8.20 -0.05 11.50 -1.70 11.50 -5.65 0 -3.65 -3.55 -6.20 -9.85 -7.10 -1.85 -0.25 -4.25 -0.75 -5.30 -1.05 -6.45 -1.95 -8.30 -9.60 -3.35 -14.05 3.05 -2.80 4.60 -3 19.95 -2.90 l13.70 0.10 -1.60 -2 c-5.30 -6.70 -3.20 -16.70 4.30 -20.35 2.30 -1.10 8.40 -1.55 10.80 -0.75 2.35 0.80 6.15 4.20 7.45 6.70 1.30 2.55 1.70 7.10 0.90 9.65 -0.35 1.05 -1.40 3 -2.30 4.35 -1.20 1.65 -1.50 2.45 -1.10 2.60 0.35 0.10 6.75 0.30 14.20 0.35 l13.50 0.15 3 1.50 c2.35 1.20 3.15 1.95 4.10 3.75 0.60 1.20 1.10 2.90 1.10 3.75 0 0.85 -0.50 2.55 -1.10 3.75 -1.50 2.95 -4.15 4.40 -9 4.95 -5.25 0.60 -7.85 1.50 -10 3.60 -1.45 1.35 -1.90 2.20 -1.90 3.40 0 4.10 2.85 5.60 11.30 6 5.35 0.30 6.25 0.45 7.85 1.55 3.20 2.20 5.35 7.85 5.35 14.20 0 1.40 0.20 1.85 0.70 1.65 0.75 -0.30 26.75 -16.40 28.95 -17.95 l1.35 -1 -1.55 -1.45 c-1.25 -1.20 -1.50 -1.75 -1.35 -3.30 0.15 -1.85 0.10 -1.85 -2.25 -2.55 -3.15 -0.90 -4.05 -2.30 -3.75 -5.70 0.25 -2.25 0.55 -2.85 2.20 -4.30 2.70 -2.35 12.70 -9.60 13.30 -9.60 0.80 0 1.05 1.50 0.35 2.30 -0.35 0.40 -3 2.55 -5.90 4.80 -6.30 4.80 -7.05 5.55 -7.05 7.45 0 1.70 1.15 2.45 3.85 2.45 1.60 0 2.80 -0.65 7.15 -3.80 6 -4.30 7.85 -5.35 8.50 -4.95 1.35 0.85 0.15 2.30 -4.85 6 -7.10 5.25 -8.65 6.65 -8.65 7.75 0 1.30 0.85 1.70 3.50 1.65 2 -0.05 3.05 -0.50 7.70 -3.60 5.10 -3.35 7.80 -4.35 7.80 -2.90 0 0.95 -1.55 2.25 -7.60 6.30 -3.95 2.60 -5.45 3.90 -5.70 4.90 -0.50 1.90 0.35 2.90 2.70 3.05 1.80 0.15 2.85 -0.30 8.40 -3.60 6.55 -3.90 6.95 -4.10 7.40 -3.40 0.50 0.85 -1.35 2.60 -6.65 6.30 -3 2.10 -5.85 4.30 -6.25 4.90 -1.05 1.45 -1 3.60 0.05 4.65 1.35 1.40 3.45 0.55 10.15 -4 6.55 -4.45 9.25 -5.50 7.60 -2.95 -0.55 0.90 -12.10 9.25 -13.50 9.75 -2.50 0.95 -4.60 0.55 -6.45 -1.30 -1.65 -1.65 -1.75 -1.90 -1.55 -4.60 l0.15 -2.85 -1.75 -0.35 c-1.60 -0.35 -3.15 -1.65 -3.60 -3.05 -0.20 -0.50 -50.55 31.10 -52.35 32.90 -0.65 0.55 -0.60 0.70 0.25 1 4.80 1.70 7.50 7.70 5.50 12.35 -0.85 2.15 -3.80 4.65 -6.25 5.40 -3.35 1 -6.30 0.20 -9.10 -2.40 -1.35 -1.25 -2.55 -2.20 -2.60 -2.10 -0.10 0.10 -1.15 1.95 -2.30 4.15 l-2.05 3.90 1.60 -0.30 c0.90 -0.20 4 -0.50 6.85 -0.65 6.30 -0.35 10.15 0.55 14.45 3.35 3.55 2.30 4.90 3.95 5.35 6.50 0.85 5 -3.30 7.90 -12 8.40 -5.25 0.25 -11.15 -0.95 -16.45 -3.35 -1.75 -0.80 -3.35 -1.35 -3.50 -1.15 -0.15 0.15 -0.30 1.35 -0.30 2.70 0 1.35 -0.35 3.10 -0.70 3.85 -1.10 2.05 -4.15 4.55 -5.55 4.55 -0.70 0 -1.25 0.25 -1.25 0.50 0 0.60 -2.90 0.60 -4 0.05z m5 -3.80 c3.30 -1.70 4.50 -5.65 2.70 -8.75 -2.60 -4.30 -9.55 -3.85 -11.50 0.80 -2.25 5.35 3.60 10.65 8.80 7.95z m30.45 -7.80 c1.35 -0.25 2.85 -0.95 3.35 -1.50 0.80 -0.90 0.80 -1.10 0.05 -2.65 -1.85 -3.90 -7.15 -6 -14.85 -6 -4.65 0.05 -12.80 1.35 -13.70 2.25 -0.80 0.75 2.20 3.40 5.95 5.20 5.90 2.85 13.55 3.90 19.20 2.70z m-50.45 -1.85 c5.10 -1.65 10.50 -5.30 9.45 -6.35 -0.15 -0.15 -2.40 -0.75 -5 -1.30 -6.25 -1.45 -14.15 -1.55 -17.90 -0.25 -4.55 1.55 -8 6 -5.90 7.70 2.25 1.90 13.80 2 19.35 0.20z m21.85 -9.10 c5.85 -3.35 10.20 -11.65 12.40 -23.75 0.20 -1.10 0.50 -5.70 0.70 -10.25 l0.30 -8.25 13.50 -0.25 13.50 -0.25 0.15 -2.80 c0.20 -3.65 -1.40 -8 -3.45 -9.45 -1.10 -0.80 -2.45 -1.10 -5.80 -1.30 -8.50 -0.50 -12.30 -2.10 -14.15 -6 -1.40 -2.80 -1.10 -5.10 0.85 -7.90 1.35 -1.90 4.95 -4.25 7.55 -4.90 1.10 -0.30 1.15 -0.45 1 -6 l-0.15 -5.65 -14.30 -0.15 -14.30 -0.10 -0.35 20.35 c-0.15 11.15 -0.15 20.50 0.05 20.70 0.25 0.20 2.25 0.45 4.50 0.55 2.25 0.10 4.25 0.35 4.45 0.55 0.75 0.75 -0.60 2.10 -5 5 l-4.35 2.90 0.15 3.10 0.15 3.10 2.35 0.15 2.30 0.15 3.20 -4.50 c3.10 -4.40 4.05 -5.35 4.95 -4.75 0.50 0.30 0.60 13.75 0.10 18.85 -0.25 2.95 -0.40 3.40 -1.25 3.25 -0.55 -0.10 -2.20 -2.10 -4.05 -4.90 l-3.10 -4.75 -2.25 0 -2.25 0 -0.25 3.30 c-0.15 1.80 -0.20 3.65 -0.10 4.05 0.10 0.45 2.15 2.15 4.65 3.90 6.45 4.45 6.25 4.70 -3.80 4.90 -9.50 0.15 -14 -0.30 -14 -1.40 0 -0.40 1.90 -2 4.25 -3.60 5.90 -3.90 5.55 -3.45 5.40 -7.55 l-0.15 -3.60 -2.25 -0.15 -2.30 -0.15 -3.10 4.50 c-3.45 5 -3.90 5.45 -4.75 4.60 -0.65 -0.65 -0.55 -21 0.10 -21.70 0.80 -0.80 1.90 0.30 4.75 4.65 l2.95 4.50 2.40 0 2.45 0 0 -3 0 -2.95 -4.50 -3.15 c-3.35 -2.35 -4.50 -3.45 -4.50 -4.25 0 -1.10 0.15 -1.15 4.45 -1.15 3.60 0 4.50 -0.15 4.75 -0.80 0.15 -0.45 0.30 -9.75 0.30 -20.65 l0 -19.90 -2.60 -0.35 c-1.45 -0.15 -7.75 -0.30 -13.95 -0.30 l-11.30 0 -0.35 1.85 c-0.15 1.05 -0.30 3.60 -0.30 5.70 l0 3.75 2.70 1.15 c8.05 3.35 9.75 11.10 3.35 15.40 -2.45 1.65 -4.60 2.15 -10.80 2.50 -5.30 0.30 -5.55 0.35 -7.10 1.90 -1.75 1.75 -2.65 4.55 -2.80 8.65 l-0.10 2.85 13 0.40 c7.15 0.20 13.30 0.50 13.70 0.60 0.50 0.20 0.60 0.90 0.35 2.90 -0.20 1.45 -0.10 6.05 0.20 10.25 0.90 12.70 3.55 20.85 8.65 26.40 4.45 4.85 8.55 5.85 13.20 3.20z m24.95 -8.95 c2.05 -0.95 3.70 -3.35 3.70 -5.45 0 -4.40 -4.75 -7.50 -8.95 -5.80 -5.15 2.05 -5.35 9 -0.35 11.25 1.15 0.50 2.40 0.95 2.80 0.95 0.40 0 1.65 -0.45 2.80 -0.95z m-53.80 -0.80 c3.30 -1.70 4.50 -5.65 2.70 -8.75 -2.75 -4.60 -9.90 -3.75 -11.70 1.40 -0.65 1.95 -0.65 2.25 0.35 4.25 1.65 3.40 5.40 4.75 8.65 3.10z m57.35 -22.10 l10.30 -6.40 -2.70 -0.35 c-1.50 -0.15 -6.20 -0.30 -10.50 -0.35 l-7.80 -0.05 -0.35 4.90 c-0.20 2.65 -0.45 5.85 -0.65 7.05 -0.25 1.95 -0.20 2.15 0.55 1.90 0.50 -0.20 5.50 -3.20 11.15 -6.70z m8.25 -46 c0.55 -0.50 1.20 -1.45 1.45 -2.05 1 -2.65 -2.60 -6.60 -6 -6.60 l-1.55 0 0 5.15 c0 2.85 0.15 5.30 0.30 5.50 0.45 0.45 4.70 -1 5.80 -2z m-75.10 -4.15 l0 -5.50 -1.25 0 c-3 0 -6.25 3 -6.25 5.75 0 1.80 1.35 3.30 4 4.45 3.45 1.50 3.50 1.45 3.50 -4.70z m38.25 -11.45 c3.60 -1.65 5.25 -4.30 5.25 -8.40 0 -6.65 -7.30 -10.85 -13.35 -7.75 -5.10 2.65 -6.50 9.25 -2.85 13.60 2.85 3.35 7.10 4.35 10.95 2.55z"/>
 </g>
 <g fill="#ffffff">
  <path d="M0 69.50 l0 -69.50 80 0 80 0 0 69.50 0 69.50 -54.75 0 c-36.15 0 -54.75 -0.15 -54.75 -0.50 0 -0.25 0.55 -0.50 1.25 -0.50 1.40 0 4.45 -2.50 5.55 -4.55 0.35 -0.75 0.70 -2.50 0.70 -3.85 0 -1.35 0.15 -2.55 0.30 -2.70 0.15 -0.20 1.75 0.35 3.50 1.15 5.30 2.40 11.20 3.60 16.45 3.35 8.70 -0.50 12.85 -3.40 12 -8.40 -0.45 -2.55 -1.80 -4.20 -5.35 -6.50 -4.30 -2.80 -8.15 -3.70 -14.45 -3.35 -2.85 0.15 -5.95 0.45 -6.85 0.65 l-1.60 0.30 2.05 -3.90 c1.15 -2.20 2.20 -4.05 2.30 -4.15 0.05 -0.10 1.25 0.85 2.60 2.10 2.80 2.60 5.75 3.40 9.10 2.40 2.45 -0.75 5.40 -3.25 6.25 -5.40 2 -4.65 -0.70 -10.65 -5.50 -12.35 -0.85 -0.30 -0.90 -0.45 -0.25 -1 1.80 -1.80 52.15 -33.40 52.35 -32.90 0.45 1.40 2 2.70 3.60 3.05 l1.75 0.35 -0.15 2.85 c-0.20 2.70 -0.10 2.95 1.55 4.60 1.85 1.85 3.95 2.25 6.45 1.30 1.40 -0.50 12.95 -8.85 13.50 -9.75 1.65 -2.55 -1.05 -1.50 -7.60 2.95 -6.70 4.55 -8.80 5.40 -10.15 4 -1.05 -1.05 -1.10 -3.20 -0.05 -4.65 0.40 -0.60 3.25 -2.80 6.25 -4.90 5.30 -3.70 7.15 -5.45 6.65 -6.30 -0.45 -0.70 -0.85 -0.50 -7.40 3.40 -5.55 3.30 -6.60 3.75 -8.40 3.60 -2.35 -0.15 -3.20 -1.15 -2.70 -3.05 0.25 -1 1.75 -2.30 5.70 -4.90 6.05 -4.05 7.60 -5.35 7.60 -6.30 0 -1.45 -2.70 -0.45 -7.80 2.90 -4.65 3.10 -5.70 3.55 -7.70 3.60 -2.65 0.05 -3.50 -0.35 -3.50 -1.65 0 -1.10 1.55 -2.50 8.65 -7.75 5 -3.70 6.20 -5.15 4.85 -6 -0.65 -0.40 -2.50 0.65 -8.50 4.95 -4.35 3.15 -5.55 3.80 -7.15 3.80 -2.70 0 -3.85 -0.75 -3.85 -2.45 0 -1.90 0.75 -2.65 7.05 -7.45 2.90 -2.25 5.55 -4.40 5.90 -4.80 0.70 -0.80 0.45 -2.30 -0.35 -2.30 -0.60 0 -10.60 7.25 -13.30 9.60 -1.65 1.45 -1.95 2.05 -2.20 4.30 -0.30 3.40 0.60 4.80 3.75 5.70 2.35 0.70 2.40 0.70 2.25 2.55 -0.15 1.55 0.10 2.10 1.35 3.30 l1.55 1.45 -1.35 1 c-2.20 1.55 -28.20 17.65 -28.95 17.95 -0.50 0.20 -0.70 -0.25 -0.70 -1.65 0 -6.35 -2.15 -12 -5.35 -14.20 -1.60 -1.10 -2.50 -1.25 -7.85 -1.55 -8.45 -0.40 -11.30 -1.90 -11.30 -6 0 -1.20 0.45 -2.05 1.90 -3.40 2.15 -2.10 4.75 -3 10 -3.60 4.85 -0.55 7.50 -2 9 -4.95 1.40 -2.80 1.40 -4.70 0 -7.50 -0.95 -1.80 -1.75 -2.55 -4.10 -3.75 l-3 -1.50 -13.50 -0.15 c-7.45 -0.05 -13.85 -0.25 -14.20 -0.35 -0.40 -0.15 -0.10 -0.95 1.10 -2.60 0.90 -1.35 1.95 -3.30 2.30 -4.35 0.80 -2.55 0.40 -7.10 -0.90 -9.65 -1.30 -2.50 -5.10 -5.90 -7.45 -6.70 -2.40 -0.80 -8.50 -0.35 -10.80 0.75 -7.50 3.65 -9.60 13.65 -4.30 20.35 l1.60 2 -13.70 -0.10 c-15.35 -0.10 -16.90 0.10 -19.95 2.90 -4.95 4.45 -3.10 12.10 3.35 14.05 1.05 0.30 3.45 0.80 5.30 1.05 6.30 0.90 9.85 3.45 9.85 7.10 0 3.95 -3.30 5.60 -11.50 5.65 -7.55 0.10 -8.95 0.80 -11.55 5.80 -1 1.90 -1.20 3.20 -1.35 8.30 l-0.20 6.05 2.70 0.30 c1.45 0.20 7.30 0.35 13.05 0.35 l10.35 0 0 3.40 c0 1.85 0.25 5.50 0.50 8.10 0.25 2.60 0.35 4.80 0.25 4.90 -0.10 0.15 -1.10 -0.15 -2.25 -0.60 -6.90 -2.75 -14.40 2.85 -13.30 9.90 1.30 7.95 11.70 10.60 17 4.25 0.75 -0.85 1.40 -1.50 1.50 -1.40 0.10 0.10 1.10 2.10 2.25 4.40 l2.05 4.15 -1.90 -0.35 c-7.45 -1.45 -13.05 -1.15 -17.85 0.95 -5.55 2.50 -8.25 5.55 -8.25 9.45 0 7.40 15.05 9.40 28.90 3.90 3.45 -1.35 3.60 -1.35 3.25 0.60 -0.60 3.80 2.60 9 5.90 9.70 4.55 0.90 -0.20 1.15 -21.50 1.15 l-23.55 0 0 -69.50z"/>
  <path d="M45.65 134.70 c-5.95 -2.95 -3.65 -11.70 3 -11.70 6.75 0 8.80 8.65 2.85 11.75 -1.85 0.95 -3.85 0.95 -5.85 -0.05z"/>
  <path d="M69.75 126.70 c-6.20 -1.35 -14.50 -6.20 -12.95 -7.65 0.90 -0.90 9.05 -2.20 13.70 -2.25 7.70 0 13 2.10 14.85 6 0.75 1.55 0.75 1.75 -0.05 2.65 -1.85 2.05 -9.10 2.60 -15.55 1.25z"/>
  <path d="M14.50 125.95 c-3.65 -1.10 -4 -2.95 -1.05 -5.90 2.80 -2.80 6.05 -3.80 12.55 -3.75 4.70 0.05 14.05 1.60 14.95 2.45 1.05 1.05 -4.35 4.70 -9.45 6.35 -3.75 1.20 -14.05 1.75 -17 0.85z"/>
  <path d="M44.65 116.45 c-4.90 -2.40 -9.25 -9.15 -11.40 -17.60 -1.35 -5.45 -2.50 -18.45 -1.95 -22.70 0.25 -2 0.15 -2.70 -0.35 -2.90 -0.40 -0.10 -6.55 -0.40 -13.70 -0.60 l-13 -0.40 0.10 -2.85 c0.15 -4.10 1.05 -6.90 2.80 -8.65 1.55 -1.55 1.80 -1.60 7.10 -1.90 6.20 -0.35 8.35 -0.85 10.80 -2.50 6.40 -4.30 4.70 -12.05 -3.35 -15.40 l-2.70 -1.15 0 -3.75 c0 -2.10 0.15 -4.65 0.30 -5.70 l0.35 -1.85 11.30 0 c6.20 0 12.50 0.15 13.95 0.30 l2.60 0.35 0 19.90 c0 10.90 -0.15 20.20 -0.30 20.65 -0.25 0.65 -1.15 0.80 -4.75 0.80 -4.30 0 -4.45 0.05 -4.45 1.15 0 0.80 1.15 1.90 4.50 4.25 l4.50 3.15 0 2.95 0 3 -2.45 0 -2.40 0 -2.95 -4.50 c-2.85 -4.35 -3.95 -5.45 -4.75 -4.65 -0.65 0.70 -0.75 21.05 -0.10 21.70 0.85 0.85 1.30 0.40 4.75 -4.60 l3.10 -4.50 2.30 0.15 2.25 0.15 0.15 3.60 c0.15 4.10 0.50 3.65 -5.40 7.55 -2.35 1.60 -4.25 3.20 -4.25 3.60 0 1.10 4.50 1.55 14 1.40 10.05 -0.20 10.25 -0.45 3.80 -4.90 -2.50 -1.75 -4.55 -3.45 -4.65 -3.90 -0.10 -0.40 -0.05 -2.25 0.10 -4.05 l0.25 -3.30 2.25 0 2.25 0 3.10 4.75 c1.85 2.80 3.50 4.80 4.05 4.90 0.85 0.15 1 -0.30 1.25 -3.25 0.50 -5.10 0.40 -18.55 -0.10 -18.85 -0.90 -0.60 -1.85 0.35 -4.95 4.75 l-3.20 4.50 -2.30 -0.15 -2.35 -0.15 -0.15 -3.10 -0.15 -3.10 4.35 -2.90 c4.40 -2.90 5.75 -4.25 5 -5 -0.20 -0.20 -2.20 -0.45 -4.45 -0.55 -2.25 -0.10 -4.25 -0.35 -4.50 -0.55 -0.20 -0.20 -0.20 -9.55 -0.05 -20.70 l0.35 -20.35 14.30 0.10 14.30 0.15 0.15 5.65 c0.15 5.55 0.10 5.70 -1 6 -2.60 0.65 -6.20 3 -7.55 4.90 -1.95 2.80 -2.25 5.10 -0.85 7.90 1.85 3.90 5.65 5.50 14.15 6 3.35 0.20 4.70 0.50 5.80 1.30 2.05 1.45 3.65 5.80 3.45 9.45 l-0.15 2.80 -13.50 0.25 -13.50 0.25 -0.30 8.25 c-0.20 4.55 -0.50 9.15 -0.70 10.25 -2.20 12.10 -6.55 20.40 -12.40 23.75 -3.15 1.80 -5.70 1.95 -8.70 0.45z"/>
  <path d="M72.70 107.05 c-5 -2.25 -4.80 -9.20 0.35 -11.25 4.20 -1.70 8.95 1.40 8.95 5.80 0 2.10 -1.65 4.50 -3.70 5.45 -1.15 0.50 -2.40 0.95 -2.80 0.95 -0.40 0 -1.65 -0.45 -2.80 -0.95z"/>
  <path d="M18.60 106.15 c-1.10 -0.55 -2.05 -1.60 -2.75 -3 -1 -2 -1 -2.30 -0.35 -4.25 0.95 -2.65 3.35 -4.40 6.10 -4.40 6.80 0 8.90 8.65 2.90 11.75 -1.85 0.95 -3.85 0.95 -5.90 -0.10z"/>
  <path d="M70.15 88.95 c0.20 -1.20 0.45 -4.40 0.65 -7.05 l0.35 -4.90 7.80 0.05 c4.30 0.05 9 0.20 10.50 0.35 l2.70 0.35 -10.30 6.40 c-5.65 3.50 -10.65 6.50 -11.15 6.70 -0.75 0.25 -0.80 0.05 -0.55 -1.90z"/>
  <path d="M84.30 40.15 c-0.15 -0.20 -0.30 -2.65 -0.30 -5.50 l0 -5.15 1.55 0 c3.40 0 7 3.95 6 6.60 -0.25 0.60 -0.90 1.55 -1.45 2.05 -1.10 1 -5.35 2.45 -5.80 2z"/>
  <path d="M11.50 38.70 c-2.65 -1.15 -4 -2.65 -4 -4.45 0 -2.75 3.25 -5.75 6.25 -5.75 l1.25 0 0 5.50 c0 6.15 -0.05 6.20 -3.50 4.70z"/>
  <path d="M45.45 22.50 c-6.75 -3.55 -6.90 -12.65 -0.30 -16.10 7.50 -3.85 15.80 3.55 12.80 11.45 -1.75 4.65 -8.10 7 -12.50 4.65z"/>
 </g>
</svg>