<?xml version="1.0" encoding="utf-8"?>
<!DOCTYPE svg PUBLIC "-//W3C//DTD SVG 1.0//EN" "http://www.w3.org/TR/2001/REC-SVG-20010904/DTD/svg10.dtd">
<svg version="1.0" xmlns="http://www.w3.org/2000/svg" width="162px" height="117px" viewBox="0 0 162 117" preserveAspectRatio="xMidYMid meet">
 <g fill="#000000">
  <path d="M75.25 115.70 c-1.35 -0.10 -6 -0.40 -10.30 -0.70 -9 -0.60 -13.85 -1.80 -21.70 -5.40 -9.50 -4.35 -13.10 -6.95 -18.35 -13.20 -3.95 -4.75 -7.25 -9.90 -9 -14.10 -0.75 -1.90 -1.65 -3.75 -1.90 -4.05 -1.50 -1.85 -6.65 -17.90 -8.70 -27.25 -0.70 -3.15 -1.50 -7.90 -1.75 -10.55 -0.30 -2.65 -0.90 -5.75 -1.30 -6.95 -1 -2.90 -0.95 -4.60 0.35 -7.60 l1.10 -2.55 -1.30 -2.30 c-3.25 -5.90 -1.60 -12.15 3.85 -14.60 4.50 -2.05 9.80 -0.20 12.10 4.30 0.70 1.35 1 4.95 0.55 7.50 -0.15 0.95 0.15 1 5.30 1.15 l5.40 0.15 -0.40 -1.90 c-0.85 -4.10 -0.30 -6.45 2.10 -9.15 4.15 -4.55 11.20 -4.05 14.60 1.10 1.10 1.70 1.35 2.60 1.30 4.85 -0.05 1.55 -0.20 3.40 -0.45 4.20 l-0.35 1.35 7.55 0 c6.40 0 7.55 -0.10 7.55 -0.75 0 -1.50 -5.05 -9.65 -7.20 -11.65 -2.25 -2.05 -5.70 -4.10 -6.95 -4.10 -1.05 0 -2.55 -1.80 -1.85 -2.25 0.80 -0.50 18.50 0.25 18.50 0.80 0 0.25 -0.80 0.95 -1.70 1.55 -0.95 0.65 -1.85 1.50 -1.95 1.95 -0.45 1.70 1.10 4.80 6.35 12.60 1.30 1.85 1.30 1.85 4.70 1.85 l3.45 0 2.80 -4.25 c4.75 -7.20 4.75 -9.25 0 -11.70 l-2.90 -1.50 9.60 -0.05 c5.25 0 9.70 0.20 9.85 0.40 0.15 0.25 -1.25 1.40 -3.10 2.65 -3.55 2.35 -7.55 7.10 -9.85 11.70 -1.20 2.30 -1.20 2.50 -0.40 2.85 0.50 0.15 6.15 0.35 12.55 0.35 l11.60 0.05 0 -2.20 c0 -2.10 -0.20 -2.40 -2.75 -4.60 -1.50 -1.30 -2.75 -2.55 -2.75 -2.80 0 -0.20 3.70 -0.40 8.25 -0.40 7.30 0 8.30 0.10 8.60 0.85 0.25 0.60 -0.35 1.40 -2 2.85 -2.10 1.85 -2.35 2.25 -2.35 4.15 l0 2.05 4.25 0.35 c5.05 0.45 6 0.20 5.40 -1.35 -0.65 -1.80 -0.40 -5.50 0.50 -7.25 3.15 -6.05 12.55 -6.05 15.65 -0.05 0.85 1.65 1.05 4.45 0.55 7.05 l-0.40 1.85 2.05 0 2 0 0 -2.55 c0 -2.25 -0.25 -2.85 -1.75 -4.50 -0.95 -1.10 -1.75 -2.40 -1.75 -2.95 0 -1 0.25 -1 9.10 -0.90 6.05 0.10 9.15 0.35 9.25 0.70 0.10 0.30 -0.85 1.70 -2.10 3.10 -2 2.20 -2.25 2.75 -2.25 4.80 l0 2.30 2.40 0.05 c6.30 0.15 5.85 -0.10 6 2.80 l0.15 2.60 -4.40 0.15 -4.40 0.15 -0.15 3.25 c-0.15 3.20 -0.10 3.35 2.15 6.20 1.25 1.60 2.25 3.15 2.25 3.40 0 0.25 -4.05 0.40 -9.75 0.30 l-9.75 -0.15 0 2.05 c0 5.55 -4.75 22.55 -9 32.20 -1.15 2.60 -3 6.85 -4.15 9.45 -7.35 16.70 -20.05 28.25 -34.85 31.70 -3.10 0.70 -8.20 0.90 -13.75 0.55z m17.30 -6.65 c3.65 -1.25 7.95 -3.45 7.95 -4.05 0 -0.30 -0.20 -0.50 -0.40 -0.50 -0.25 0 -1.45 -0.70 -2.75 -1.55 -7.30 -4.80 -6 -16.25 2.25 -19.65 5 -2.10 11.65 0.40 14.20 5.35 0.45 0.80 0.95 1.25 1.20 1.05 0.95 -1 6.45 -12.70 7.40 -15.70 0.55 -1.80 2.05 -5.85 3.35 -9 3.75 -9 5.15 -13.70 6.05 -19.65 0.85 -5.85 0.65 -6.90 -1.20 -5.90 -1.40 0.75 -4.80 0.70 -6.75 -0.15 -3.30 -1.35 -5.75 -5.75 -5.15 -9.25 0.65 -4.15 0.90 -3.80 -2.95 -3.80 l-3.50 0 -0.15 2.85 -0.15 2.85 2.55 1.85 c1.50 1.05 2.50 2.15 2.50 2.75 0 0.90 -0.45 0.95 -8.35 0.95 -4.65 0 -8.75 -0.25 -9.15 -0.50 -0.60 -0.40 -0.15 -1.05 2.40 -3.35 3.10 -2.85 3.20 -2.95 3 -5.15 l-0.15 -2.25 -12.25 -0.35 c-6.75 -0.20 -12.55 -0.25 -12.85 -0.15 -1.05 0.35 -0.75 2 0.60 3.25 1.10 1.05 1.80 1.20 4.90 1.25 l3.60 0 0.15 11.35 0.10 11.35 -7.10 0.15 -7.15 0.15 -0.35 23.75 c-0.25 13.05 -0.30 24.20 -0.15 24.80 0.25 1.20 2.75 2.95 8.60 6 4.65 2.45 5.80 2.60 9.70 1.25z m-30.20 -3.30 c2.55 -1.25 4.85 -2.65 5.10 -3.15 0.20 -0.45 0.50 -11.75 0.60 -25.10 l0.20 -24.25 -7.25 -0.30 c-4 -0.20 -7.55 -0.35 -7.85 -0.40 -0.95 -0.10 -0.95 -22.20 0 -22.90 0.30 -0.30 2.10 -0.65 3.90 -0.75 3.65 -0.30 6.20 -1.30 6.20 -2.40 0 -0.65 -1.45 -0.75 -9.15 -0.90 l-9.20 -0.10 0.45 1.60 c1.55 6.20 -2.10 11.80 -8.05 12.30 -5.70 0.45 -10.05 -3.40 -10.05 -8.85 0 -1.55 0.20 -3.40 0.45 -4.15 l0.40 -1.40 -4.35 0 -4.35 0 0.40 2.15 c0.55 3.20 0.35 5.15 -0.80 7.35 -1.35 2.60 -4.15 4.45 -7.40 4.85 -2.55 0.30 -2.60 0.35 -2.60 1.90 0 1.70 3.30 16.25 5.05 22.50 2.35 8.20 8.60 23.20 9.80 23.60 0.30 0.10 0.80 -0.55 1.15 -1.40 1.75 -4.10 5.30 -6.45 9.85 -6.45 3.75 0 6.35 1.45 8.55 4.70 1.30 2 1.60 2.90 1.60 5.20 0 5.05 -3.40 9.55 -7.80 10.40 -0.95 0.15 -1.70 0.50 -1.70 0.70 0 0.40 10.90 6.15 13.85 7.25 3.30 1.30 7.65 0.60 13 -2z m45.50 -5.75 c2.35 -1.40 3.30 -3.60 3.05 -6.90 -0.20 -2.45 -0.45 -2.95 -2.30 -4.70 -1.80 -1.65 -2.40 -1.90 -4.40 -1.90 -4.70 0 -7.80 2.90 -7.80 7.25 0 2.60 1.25 4.85 3.40 6.30 1.95 1.30 5.90 1.25 8.05 -0.05z m-69.85 -4.75 c3.95 -2.05 4 -8.95 0.10 -10.95 -2.75 -1.40 -5.50 -1.25 -7.55 0.50 -4.50 3.75 -1.80 11.20 4.10 11.20 1.05 0 2.55 -0.35 3.35 -0.75z m46.20 -53.25 c0.20 -3.30 0.25 -6.20 0.10 -6.45 -0.15 -0.20 -1.20 -0.55 -2.30 -0.70 -2.60 -0.35 -6.40 -2.20 -7.05 -3.45 -0.30 -0.55 -0.70 -2.05 -0.90 -3.35 l-0.30 -2.30 -2.35 -0.15 -2.35 -0.15 -0.55 2 c-0.90 3.40 -4.60 6.05 -8.45 6.05 -1.55 0 -1.80 1.15 -1.80 7.85 l0 5.90 2.25 0.30 c1.25 0.15 7 0.35 12.80 0.35 l10.55 0.10 0.35 -6z m56.85 -7.35 c0.80 -1.25 0.95 -2.30 0.85 -4.75 l-0.15 -3.15 -1.80 -0.15 -1.80 -0.15 -0.30 3.85 c-0.20 2.10 -0.35 4.85 -0.35 6.10 l0 2.25 1.30 -1.20 c0.70 -0.65 1.70 -1.90 2.25 -2.80z m-10.85 1.15 c3.55 -1.50 4.45 -5.50 1.85 -8.40 -1.25 -1.40 -1.80 -1.65 -3.80 -1.65 -2 0 -2.55 0.25 -3.80 1.65 -1.80 2 -1.95 4.80 -0.40 6.80 1.80 2.25 3.50 2.70 6.15 1.60z m-116.15 -0.65 c1.55 -0.90 2.95 -3.35 2.95 -5.15 0 -3 -2.85 -5.50 -6.30 -5.50 -2.50 0 -5.20 2.65 -5.20 5.15 0 2.65 0.80 4.25 2.60 5.35 2 1.20 4.05 1.25 5.95 0.15z m26.75 -1.35 c1.45 -1.45 1.70 -2.05 1.70 -4.05 0 -2 -0.25 -2.60 -1.70 -4.05 -1.50 -1.50 -2.05 -1.70 -4.20 -1.70 -3.05 0 -4.85 1.25 -5.65 4 -1.15 3.80 1.75 7.50 5.90 7.50 1.90 0 2.50 -0.25 3.95 -1.70z m91.40 -12.80 c1.50 -0.55 3.30 -3.25 3.30 -4.90 0 -1.90 -1.35 -3.90 -3.25 -4.85 -2.15 -1 -3.60 -0.75 -5.65 1 -4.60 3.85 -0.05 10.90 5.60 8.75z m-118.10 -2.45 c3.05 -3.40 1.10 -8.80 -3.40 -9.40 -4.85 -0.65 -8.20 4.05 -5.95 8.35 1.75 3.40 6.75 3.95 9.35 1.05z m27.55 -1.05 c3.80 -4.25 -1.05 -10.90 -6.10 -8.25 -3.65 1.85 -3.95 6.85 -0.55 9.15 2.30 1.55 4.70 1.25 6.65 -0.90z"/>
 </g>
 <g fill="#ffffff">
  <path d="M0 58.50 l0 -58.50 81 0 81 0 0 58.50 0 58.50 -81 0 -81 0 0 -58.50z m89 56.65 c9.55 -2.25 18.15 -7.70 25.05 -15.95 4.35 -5.25 7.15 -9.65 9.80 -15.75 1.15 -2.60 3 -6.85 4.15 -9.45 4.25 -9.65 9 -26.65 9 -32.20 l0 -2.05 9.75 0.15 c5.70 0.10 9.75 -0.05 9.75 -0.30 0 -0.25 -1 -1.80 -2.25 -3.40 -2.25 -2.85 -2.30 -3 -2.15 -6.20 l0.15 -3.25 4.40 -0.15 4.40 -0.15 -0.15 -2.60 c-0.15 -2.90 0.30 -2.65 -6 -2.80 l-2.40 -0.05 0 -2.30 c0 -2.05 0.25 -2.60 2.25 -4.80 1.25 -1.40 2.20 -2.80 2.10 -3.10 -0.10 -0.35 -3.20 -0.60 -9.25 -0.70 -8.85 -0.10 -9.10 -0.10 -9.10 0.90 0 0.55 0.80 1.85 1.75 2.95 1.50 1.65 1.75 2.25 1.75 4.50 l0 2.55 -2 0 -2.05 0 0.40 -1.85 c0.50 -2.60 0.30 -5.40 -0.55 -7.05 -3.10 -6 -12.50 -6 -15.65 0.05 -0.90 1.75 -1.15 5.45 -0.50 7.25 0.60 1.55 -0.35 1.80 -5.40 1.35 l-4.25 -0.35 0 -2.05 c0 -1.90 0.25 -2.30 2.35 -4.15 1.65 -1.45 2.25 -2.25 2 -2.85 -0.30 -0.75 -1.30 -0.85 -8.60 -0.85 -4.55 0 -8.25 0.20 -8.25 0.40 0 0.25 1.25 1.50 2.75 2.80 2.55 2.20 2.75 2.50 2.75 4.60 l0 2.20 -11.60 -0.05 c-6.40 0 -12.05 -0.20 -12.55 -0.35 -0.80 -0.35 -0.80 -0.55 0.40 -2.85 2.30 -4.60 6.30 -9.35 9.85 -11.70 1.85 -1.25 3.25 -2.40 3.10 -2.65 -0.15 -0.20 -4.60 -0.40 -9.85 -0.40 l-9.60 0.05 2.90 1.50 c4.75 2.45 4.75 4.50 0 11.70 l-2.80 4.25 -3.45 0 c-3.40 0 -3.40 0 -4.70 -1.85 -5.25 -7.80 -6.80 -10.90 -6.35 -12.60 0.10 -0.45 1 -1.30 1.95 -1.95 0.90 -0.60 1.70 -1.30 1.70 -1.55 0 -0.55 -17.70 -1.30 -18.50 -0.80 -0.70 0.45 0.80 2.25 1.85 2.25 1.25 0 4.70 2.05 6.95 4.10 2.15 2 7.20 10.15 7.20 11.65 0 0.65 -1.15 0.75 -7.55 0.75 l-7.55 0 0.35 -1.35 c0.25 -0.80 0.40 -2.65 0.45 -4.20 0.15 -8.35 -10.20 -12.25 -15.90 -5.95 -2.40 2.70 -2.95 5.05 -2.10 9.15 l0.40 1.90 -5.40 -0.15 c-5.15 -0.15 -5.45 -0.20 -5.30 -1.15 0.45 -2.55 0.15 -6.15 -0.55 -7.50 -2.30 -4.50 -7.60 -6.35 -12.10 -4.30 -5.45 2.45 -7.10 8.70 -3.85 14.60 l1.30 2.30 -1.10 2.55 c-1.30 3 -1.35 4.70 -0.35 7.60 0.40 1.20 1 4.30 1.30 6.95 0.25 2.65 1.05 7.40 1.75 10.55 2.05 9.35 7.20 25.40 8.70 27.25 0.25 0.30 1.15 2.15 1.90 4.05 1.75 4.20 5.05 9.35 9 14.10 5.25 6.25 8.85 8.85 18.35 13.20 7.85 3.60 12.70 4.80 21.70 5.40 4.30 0.30 8.95 0.60 10.30 0.70 5.55 0.35 10.65 0.15 13.75 -0.55z"/>
  <path d="M82.85 107.80 c-5.85 -3.05 -8.35 -4.80 -8.60 -6 -0.15 -0.60 -0.10 -11.75 0.15 -24.80 l0.35 -23.75 7.15 -0.15 7.10 -0.15 -0.10 -11.35 -0.15 -11.35 -3.60 0 c-3.10 -0.05 -3.80 -0.20 -4.90 -1.25 -1.35 -1.25 -1.65 -2.90 -0.60 -3.25 0.30 -0.10 6.10 -0.05 12.85 0.15 l12.25 0.35 0.15 2.25 c0.20 2.20 0.10 2.30 -3 5.15 -2.55 2.30 -3 2.95 -2.40 3.35 0.40 0.25 4.50 0.50 9.15 0.50 7.90 0 8.35 -0.05 8.35 -0.95 0 -0.60 -1 -1.70 -2.50 -2.75 l-2.55 -1.85 0.15 -2.85 0.15 -2.85 3.50 0 c3.85 0 3.60 -0.35 2.95 3.80 -0.60 3.50 1.85 7.90 5.15 9.25 1.95 0.85 5.35 0.90 6.75 0.15 1.85 -1 2.05 0.05 1.20 5.90 -0.90 5.95 -2.30 10.65 -6.05 19.65 -1.30 3.15 -2.80 7.20 -3.35 9 -0.95 3 -6.45 14.70 -7.40 15.70 -0.25 0.20 -0.75 -0.25 -1.20 -1.05 -2.55 -4.95 -9.20 -7.45 -14.20 -5.35 -8.25 3.40 -9.55 14.85 -2.25 19.65 1.30 0.85 2.50 1.55 2.75 1.55 0.20 0 0.40 0.20 0.40 0.50 0 1.10 -9.35 5 -12.05 5 -0.80 0 -3.30 -1 -5.60 -2.20z"/>
  <path d="M49.35 107.75 c-2.95 -1.10 -13.85 -6.85 -13.85 -7.25 0 -0.20 0.75 -0.55 1.70 -0.70 4.40 -0.85 7.80 -5.35 7.80 -10.40 0 -2.30 -0.30 -3.20 -1.60 -5.20 -2.20 -3.25 -4.80 -4.70 -8.55 -4.70 -4.55 0 -8.10 2.35 -9.85 6.45 -0.35 0.85 -0.85 1.50 -1.15 1.40 -1.20 -0.40 -7.45 -15.40 -9.80 -23.60 -1.75 -6.25 -5.05 -20.80 -5.05 -22.50 0 -1.55 0.05 -1.60 2.60 -1.90 3.25 -0.40 6.05 -2.25 7.40 -4.85 1.15 -2.20 1.35 -4.15 0.80 -7.35 l-0.40 -2.15 4.35 0 4.35 0 -0.40 1.40 c-0.25 0.75 -0.45 2.60 -0.45 4.15 0 5.45 4.35 9.30 10.05 8.85 5.95 -0.50 9.60 -6.10 8.05 -12.30 l-0.45 -1.60 9.20 0.10 c7.70 0.15 9.15 0.25 9.15 0.90 0 1.10 -2.55 2.10 -6.20 2.40 -1.80 0.10 -3.60 0.45 -3.90 0.75 -0.95 0.70 -0.95 22.80 0 22.90 0.30 0.05 3.85 0.20 7.85 0.40 l7.25 0.30 -0.20 24.25 c-0.10 13.35 -0.40 24.65 -0.60 25.10 -0.25 0.50 -2.55 1.90 -5.10 3.15 -5.35 2.60 -9.70 3.30 -13 2z"/>
  <path d="M99.80 100.05 c-2.15 -1.45 -3.40 -3.70 -3.40 -6.30 0 -4.35 3.10 -7.25 7.80 -7.25 2 0 2.60 0.25 4.40 1.90 1.85 1.75 2.10 2.25 2.30 4.70 0.25 3.30 -0.70 5.50 -3.05 6.90 -2.15 1.30 -6.10 1.35 -8.05 0.05z"/>
  <path d="M31.20 95.05 c-2.20 -1.35 -3.40 -4.50 -2.70 -7.05 1.10 -4.10 5.50 -5.80 9.60 -3.70 3.90 2 3.85 8.90 -0.10 10.95 -2 1 -4.95 0.95 -6.80 -0.20z"/>
  <path d="M60.50 47.55 l-2.25 -0.30 0 -5.90 c0 -6.70 0.25 -7.85 1.80 -7.85 3.85 0 7.55 -2.65 8.45 -6.05 l0.55 -2 2.35 0.15 2.35 0.15 0.30 2.30 c0.20 1.30 0.60 2.80 0.90 3.35 0.65 1.25 4.45 3.10 7.05 3.45 1.10 0.15 2.15 0.50 2.30 0.70 0.15 0.25 0.10 3.15 -0.10 6.45 l-0.35 6 -10.55 -0.10 c-5.80 0 -11.55 -0.20 -12.80 -0.35z"/>
  <path d="M137.50 36.40 c0 -1.25 0.15 -4 0.35 -6.10 l0.30 -3.85 1.80 0.15 1.80 0.15 0.15 3.15 c0.15 3.40 -0.55 5.15 -3.10 7.55 l-1.30 1.20 0 -2.25z"/>
  <path d="M126.20 36 c-3.30 -1.35 -4.20 -5.85 -1.75 -8.60 1.25 -1.40 1.80 -1.65 3.80 -1.65 2 0 2.55 0.25 3.80 1.65 2.60 2.90 1.70 6.90 -1.85 8.40 -1.90 0.80 -2.50 0.80 -4 0.20z"/>
  <path d="M8.10 35 c-1.80 -1.10 -2.60 -2.70 -2.60 -5.35 0 -2.50 2.70 -5.15 5.20 -5.15 2.45 0 4.60 1.15 5.55 3 0.95 1.85 0.95 3.20 0 5.20 -1.50 3.15 -5.10 4.15 -8.15 2.30z"/>
  <path d="M33.10 34.25 c-2.20 -1.80 -2.90 -3.85 -2.15 -6.25 0.80 -2.75 2.60 -4 5.65 -4 2.15 0 2.70 0.20 4.20 1.70 1.45 1.45 1.70 2.05 1.70 4.05 0 2 -0.25 2.60 -1.70 4.05 -1.45 1.45 -2.05 1.70 -3.95 1.70 -1.70 0 -2.65 -0.30 -3.75 -1.25z"/>
  <path d="M127.15 20.50 c-2.90 -1.75 -3.20 -6.05 -0.55 -8.25 2.05 -1.75 3.50 -2 5.65 -1 3.10 1.50 4.05 4.65 2.25 7.65 -1.65 2.65 -4.55 3.30 -7.35 1.60z"/>
  <path d="M6.90 19.75 c-3.85 -2.15 -3.70 -8 0.20 -10.05 5.65 -2.90 11.20 4.15 7 8.85 -1.70 1.90 -5 2.45 -7.20 1.20z"/>
  <path d="M35 18.40 c-3.40 -2.30 -3.10 -7.30 0.55 -9.15 5.05 -2.65 9.90 4 6.10 8.25 -1.95 2.15 -4.35 2.45 -6.65 0.90z"/>
 </g>
</svg>