<?xml version="1.0" encoding="utf-8"?>
<!DOCTYPE svg PUBLIC "-//W3C//DTD SVG 1.0//EN" "http://www.w3.org/TR/2001/REC-SVG-20010904/DTD/svg10.dtd">
<svg version="1.0" xmlns="http://www.w3.org/2000/svg" width="168px" height="133px" viewBox="0 0 168 133" preserveAspectRatio="xMidYMid meet">
 <g fill="#000000">
  <path d="M26.60 131.20 c-2.80 -1.45 -4.30 -3.85 -4.50 -7.40 -0.20 -3.65 0.85 -5.65 4.35 -8 l2.20 -1.45 -0.35 -4.50 c-0.15 -2.50 -0.30 -5.85 -0.30 -7.45 l0 -3 -8.65 0.20 c-8.65 0.15 -8.70 0.15 -10.50 1.55 -2.15 1.65 -3.70 4.35 -4.15 7.45 -0.40 2.40 -0.85 2.90 -2.25 2.55 -0.85 -0.25 -0.95 -0.75 -0.95 -4.60 0 -2.35 -0.15 -7.85 -0.35 -12.20 l-0.30 -7.95 1.45 0.20 c1.20 0.15 1.45 0.45 1.80 2.10 0.60 2.75 2.50 5.05 5 6 1.75 0.70 3.75 0.80 10.40 0.70 l8.25 -0.15 0 -19 0 -19 9 -0.30 c4.95 -0.20 11.10 -0.35 13.65 -0.40 l4.60 -0.05 0 -10.20 c0 -5.60 -0.15 -11.20 -0.30 -12.50 l-0.35 -2.30 -4.30 0 c-2.35 0 -5.85 0.15 -7.70 0.35 -2.85 0.25 -3.50 0.50 -3.85 1.35 -0.70 1.80 -2.95 3.65 -5.15 4.25 -7.15 1.75 -12.35 -6.25 -8.05 -12.40 0.95 -1.35 4.35 -3 6.15 -3.05 2.20 0 5.50 2 6.70 4.05 l1.10 1.95 6.50 0 c9.40 0 8.75 0.45 8.75 -5.95 l0 -5.40 -1.85 -1.20 c-3.90 -2.55 -5.10 -6.25 -3.20 -10.05 1.45 -2.95 3.15 -4.05 6.55 -4.30 2.25 -0.15 3.05 0 4.45 1 4.95 3.35 4.95 10.05 0 13.15 l-2 1.30 0.15 5.35 0.15 5.35 7.45 0 7.45 0 1.05 -1.90 c3.70 -6.60 13.65 -4.85 14.65 2.60 0.35 2.40 -1.25 6.10 -3.05 7.30 -3.75 2.45 -7.60 1.85 -10.80 -1.70 l-2.25 -2.55 -7.25 0.40 -7.25 0.35 0.20 12 c0.10 6.60 0.30 12.20 0.40 12.40 0.15 0.20 7.85 0.25 17.10 0.05 10.15 -0.20 17 -0.15 17.20 0.10 0.15 0.25 -2.85 13.05 -6.70 28.45 -3.80 15.40 -7.05 28.50 -7.20 29.15 l-0.25 1.10 9.60 -0.05 c5.30 0 13.80 -0.20 18.90 -0.40 10.30 -0.40 10.95 -0.60 16.35 -4.65 4.05 -3.10 17.65 -18.25 17.65 -19.75 0 -0.20 -1.05 -1.05 -2.35 -1.85 -2.25 -1.35 -2.55 -1.40 -6.45 -1.05 -2.80 0.20 -4.20 0.15 -4.45 -0.20 -0.45 -0.75 6.85 -12.25 7.85 -12.45 0.60 -0.10 1 0.45 1.40 2 1.05 3.80 2.35 5.70 5 7.35 1.40 0.85 2.75 1.55 3 1.55 0.70 0 6.30 -8.55 6.70 -10.25 0.25 -1.05 0 -1.70 -1.20 -3.10 -2 -2.25 -2.50 -3.60 -2.50 -6.60 0 -6.30 6.85 -10.40 12.75 -7.55 2.85 1.40 4.40 3.60 4.65 6.85 0.30 3.50 -0.10 4.80 -2.20 7.15 -1.40 1.50 -2.35 2.10 -4.50 2.55 -2.30 0.50 -2.75 0.80 -3.05 1.90 -0.45 1.85 -3.05 6.95 -4.80 9.40 -1.70 2.35 -1.50 3.05 1.15 4.15 1.30 0.55 2 0.45 5.05 -0.50 2.40 -0.80 3.65 -1 4.05 -0.60 0.35 0.35 -0.70 2.40 -3.40 6.65 -2.10 3.40 -4.20 6.60 -4.60 7.05 -1.15 1.40 -2.10 0.55 -2.15 -2.05 -0.10 -4.25 -0.50 -5.10 -3.10 -6.50 l-2.40 -1.30 -1.25 1.50 c-0.70 0.85 -2.15 2.80 -3.30 4.40 -2.85 4.20 -8.40 10.45 -11.50 13.15 -3.15 2.70 -7.55 4.90 -11.65 5.90 -3.55 0.85 -43.95 1.70 -44.40 0.95 -0.15 -0.25 0.80 -4.85 2.15 -10.20 3.65 -14.35 12 -48.05 12 -48.35 0 -0.30 -44.30 0.40 -51.75 0.85 l-5.50 0.30 0.20 16.50 c0.10 11.95 0.30 16.70 0.75 17.15 0.45 0.50 2.25 0.55 7.70 0.30 l7.10 -0.35 0 -3.35 c0 -3.20 -0.10 -3.45 -2 -5.65 -1.10 -1.25 -2.80 -2.55 -3.70 -2.85 -2.25 -0.70 -3.25 -1.90 -2.25 -2.55 0.40 -0.25 5.50 -0.45 11.35 -0.45 11.85 0 12.15 0.10 7.60 2.80 -3.70 2.20 -4 2.70 -4 7.55 l0 4.15 1.95 0 c3.40 0 5.80 -2.75 7.55 -8.45 0.75 -2.60 2.05 -4.15 2.80 -3.40 0.20 0.20 0.45 6.45 0.60 13.90 0.25 15.40 0.20 15.70 -3.05 9.55 -2 -3.80 -4 -5.70 -6.85 -6.45 -2.80 -0.80 -3 -0.50 -3 4.15 0 6.10 0.65 7.35 4.75 9.20 1.80 0.80 3.25 1.65 3.25 1.90 0 0.40 -11.75 1.10 -18.85 1.10 -4.05 0 -4.15 -0.85 -0.25 -2.65 4.05 -1.85 4.70 -3.20 4.50 -9.35 l-0.15 -4.75 -3.50 -0.15 c-1.90 -0.10 -5.35 0 -7.60 0.15 l-4.15 0.35 0 7.45 0 7.50 1.65 0.70 c2.25 0.95 3.80 2.55 4.95 5.10 1.60 3.60 0.30 7.70 -3.20 10.30 -1.90 1.40 -6.55 1.70 -8.80 0.55z m6.35 -3.40 c4.35 -2.25 2.70 -9.30 -2.20 -9.30 -2.35 0 -3.55 0.65 -4.50 2.50 -1.20 2.30 -0.95 3.90 0.95 5.80 1.85 1.85 3.50 2.15 5.75 1z m128 -58.10 c1.90 -1.60 2.45 -4 1.35 -6.10 -1 -1.95 -2.20 -2.60 -4.65 -2.60 -3.20 0.05 -5.50 2.70 -4.95 5.75 0.45 2.20 2.85 4.25 5.05 4.25 1.05 0 2.25 -0.45 3.20 -1.30z m-127.50 -35.95 c1.55 -0.75 2.70 -3.25 2.20 -4.65 -1.10 -3.05 -4.75 -4.10 -7 -2 -2.05 1.95 -1.50 5.60 1.05 6.70 1.95 0.85 2.05 0.85 3.75 -0.05z m51.10 -1.70 c1.85 -1.85 1.90 -3.90 0.20 -5.75 -2.55 -2.75 -7.25 -0.95 -7.25 2.90 0 1.30 0.35 2 1.55 3 2 1.70 3.70 1.65 5.50 -0.15z m-26.10 -19.80 c3.80 -1.95 2.20 -7.75 -2.15 -7.75 -3.55 0 -5.35 4.95 -2.60 7.30 1.55 1.40 2.80 1.50 4.75 0.45z"/>
  <path d="M34.10 54 c-4.65 -1.05 -7.20 -7.55 -4.45 -11.50 1.80 -2.65 3.55 -3.70 6.25 -3.70 2.75 0 5.20 1.20 6.80 3.35 0.80 1.05 1.05 2.15 1.05 4.35 0 2.20 -0.25 3.30 -1.05 4.35 -1.95 2.60 -5.40 3.85 -8.60 3.15z m4.65 -4.75 c2.05 -2 1.65 -5.25 -0.80 -6.50 -2.10 -1.10 -3.35 -0.90 -5.05 0.75 -1.25 1.30 -1.45 1.80 -1.20 3.15 0.65 3.50 4.70 5 7.05 2.60z"/>
  <path d="M73.50 52.40 c-2.10 -1.45 -3.50 -4.10 -3.50 -6.55 0 -6.05 6.45 -9.75 11.70 -6.70 6.80 3.90 3.95 14.35 -3.95 14.35 -1.90 0 -3.05 -0.30 -4.25 -1.10z m6.15 -3 c4.05 -2.15 2.45 -7.90 -2.20 -7.90 -1.30 0 -3.95 2.65 -3.95 3.95 0 3.40 3.30 5.50 6.15 3.95z"/>
  <path d="M32.20 20.05 c-3.90 -1.80 -5.50 -5.75 -4 -9.80 2.10 -5.40 8.70 -6.75 12.70 -2.60 2.10 2.20 2.75 4.35 2 7.20 -0.65 2.65 -2.80 4.95 -5.30 5.65 -2.50 0.65 -3 0.65 -5.40 -0.45z m5.25 -3.30 c3.70 -1.90 2.30 -7.75 -1.90 -7.75 -4.40 0 -5.70 5.80 -1.80 7.90 1.35 0.75 2.05 0.75 3.70 -0.15z"/>
  <path d="M74.25 19.80 c-7.70 -3.40 -5.40 -14.80 2.95 -14.80 8.45 0 10.90 10.55 3.30 14.40 -2.50 1.25 -4.10 1.35 -6.25 0.40z m5.15 -4.10 c2.55 -1.80 2.30 -5.55 -0.50 -7 -2.70 -1.40 -5.55 0.05 -6.20 3.10 -0.20 1.20 0 1.85 1.05 3.10 1.55 1.85 3.75 2.15 5.65 0.80z"/>
 </g>
 <g fill="#ffffff">
  <path d="M0 66.50 l0 -66.50 84 0 84 0 0 66.50 0 66.50 -84 0 -84 0 0 -66.50z m35.40 64.15 c3.50 -2.60 4.80 -6.70 3.20 -10.30 -1.15 -2.55 -2.70 -4.15 -4.95 -5.10 l-1.65 -0.70 0 -7.50 0 -7.45 4.15 -0.35 c2.25 -0.15 5.70 -0.25 7.60 -0.15 l3.50 0.15 0.15 4.75 c0.20 6.15 -0.45 7.50 -4.50 9.35 -3.90 1.80 -3.80 2.65 0.25 2.65 7.10 0 18.85 -0.70 18.85 -1.10 0 -0.25 -1.45 -1.10 -3.25 -1.90 -4.10 -1.85 -4.75 -3.10 -4.75 -9.20 0 -4.65 0.20 -4.95 3 -4.15 2.85 0.75 4.85 2.65 6.85 6.45 3.25 6.15 3.30 5.85 3.05 -9.55 -0.15 -7.45 -0.40 -13.70 -0.60 -13.90 -0.75 -0.75 -2.05 0.80 -2.80 3.40 -1.75 5.70 -4.15 8.45 -7.55 8.45 l-1.95 0 0 -4.15 c0 -4.85 0.30 -5.35 4 -7.55 4.55 -2.70 4.25 -2.80 -7.60 -2.80 -5.85 0 -10.95 0.20 -11.35 0.45 -1 0.65 0 1.85 2.25 2.55 0.90 0.30 2.60 1.60 3.70 2.85 1.90 2.20 2 2.45 2 5.65 l0 3.35 -7.10 0.35 c-5.45 0.25 -7.25 0.20 -7.70 -0.30 -0.45 -0.45 -0.65 -5.20 -0.75 -17.15 l-0.20 -16.50 5.50 -0.30 c7.45 -0.45 51.75 -1.15 51.75 -0.85 0 0.30 -8.35 34 -12 48.35 -1.35 5.35 -2.30 9.95 -2.15 10.20 0.45 0.75 40.85 -0.10 44.40 -0.95 4.10 -1 8.50 -3.20 11.65 -5.90 3.10 -2.70 8.65 -8.95 11.50 -13.15 1.15 -1.60 2.60 -3.55 3.30 -4.40 l1.25 -1.50 2.40 1.30 c2.60 1.40 3 2.25 3.10 6.50 0.05 2.60 1 3.45 2.15 2.05 0.40 -0.45 2.50 -3.65 4.60 -7.05 2.70 -4.25 3.75 -6.30 3.40 -6.65 -0.40 -0.40 -1.65 -0.20 -4.05 0.60 -3.05 0.95 -3.75 1.05 -5.05 0.50 -2.65 -1.10 -2.85 -1.80 -1.15 -4.15 1.75 -2.45 4.35 -7.55 4.80 -9.40 0.30 -1.10 0.75 -1.40 3.05 -1.90 2.15 -0.45 3.10 -1.05 4.50 -2.55 2.10 -2.35 2.50 -3.65 2.20 -7.15 -0.25 -3.25 -1.80 -5.45 -4.65 -6.85 -5.90 -2.85 -12.75 1.25 -12.75 7.55 0 3 0.50 4.35 2.50 6.60 1.20 1.40 1.45 2.05 1.20 3.10 -0.40 1.70 -6 10.25 -6.70 10.25 -0.25 0 -1.60 -0.70 -3 -1.55 -2.65 -1.65 -3.95 -3.55 -5 -7.35 -0.40 -1.55 -0.80 -2.10 -1.40 -2 -1 0.20 -8.30 11.70 -7.85 12.45 0.25 0.35 1.65 0.40 4.45 0.20 3.90 -0.35 4.20 -0.30 6.45 1.05 1.30 0.80 2.35 1.65 2.35 1.85 0 1.50 -13.60 16.65 -17.65 19.75 -5.40 4.05 -6.05 4.25 -16.35 4.65 -5.10 0.20 -13.60 0.40 -18.90 0.40 l-9.60 0.05 0.25 -1.10 c0.15 -0.65 3.40 -13.75 7.20 -29.15 3.85 -15.40 6.85 -28.20 6.70 -28.45 -0.20 -0.25 -7.05 -0.30 -17.20 -0.10 -9.25 0.20 -16.95 0.15 -17.10 -0.05 -0.10 -0.20 -0.30 -5.80 -0.40 -12.40 l-0.20 -12 7.25 -0.35 7.25 -0.40 2.25 2.55 c2.50 2.80 4.70 3.65 7.75 2.95 2.70 -0.60 4.25 -1.85 5.35 -4.35 4.05 -9.15 -9 -15.50 -13.90 -6.80 l-1.05 1.90 -7.45 0 -7.45 0 -0.15 -5.35 -0.15 -5.35 2 -1.30 c4.95 -3.10 4.95 -9.80 0 -13.15 -1.40 -1 -2.20 -1.15 -4.45 -1 -3.40 0.25 -5.10 1.35 -6.55 4.30 -1.90 3.80 -0.70 7.50 3.20 10.05 l1.85 1.20 0 5.40 c0 6.40 0.65 5.95 -8.75 5.95 l-6.50 0 -1.10 -1.95 c-1.20 -2.05 -4.50 -4.05 -6.70 -4.05 -1.80 0.05 -5.20 1.70 -6.15 3.05 -4.30 6.15 0.90 14.15 8.05 12.40 2.20 -0.60 4.45 -2.45 5.15 -4.25 0.35 -0.85 1 -1.10 3.85 -1.35 1.85 -0.20 5.35 -0.35 7.70 -0.35 l4.30 0 0.35 2.30 c0.15 1.30 0.30 6.90 0.30 12.50 l0 10.20 -4.60 0.05 c-2.55 0.05 -8.70 0.20 -13.65 0.40 l-9 0.30 0 19 0 19 -8.25 0.15 c-6.65 0.10 -8.65 0 -10.40 -0.70 -2.50 -0.95 -4.40 -3.25 -5 -6 -0.35 -1.65 -0.60 -1.95 -1.80 -2.10 l-1.45 -0.20 0.30 7.95 c0.20 4.35 0.35 9.85 0.35 12.20 0 3.85 0.10 4.35 0.95 4.60 1.40 0.35 1.85 -0.15 2.25 -2.55 0.45 -3.10 2 -5.80 4.15 -7.45 1.80 -1.40 1.85 -1.40 10.50 -1.55 l8.65 -0.20 0 3 c0 1.60 0.15 4.95 0.30 7.45 l0.35 4.50 -2.20 1.45 c-3.50 2.35 -4.55 4.35 -4.35 8 0.20 3.55 1.70 5.95 4.50 7.40 2.25 1.15 6.90 0.85 8.80 -0.55z m4.80 -77.60 c2.55 -1.40 3.55 -3.30 3.55 -6.55 0 -3.35 -1 -5.10 -3.75 -6.70 -6.40 -3.75 -13.75 2.95 -10.80 9.85 1.80 4.30 6.70 5.80 11 3.40z m41.80 -0.65 c4.75 -3.25 4.60 -10.45 -0.30 -13.25 -3.85 -2.20 -8.80 -0.90 -10.70 2.85 -2.80 5.50 0.70 11.50 6.75 11.50 1.90 0 3.05 -0.30 4.25 -1.10z m-44.40 -31.90 c2.50 -0.70 4.65 -3 5.30 -5.65 0.75 -2.85 0.10 -5 -2 -7.20 -4 -4.15 -10.60 -2.80 -12.70 2.60 -1.50 4.05 0.10 8 4 9.80 2.40 1.10 2.90 1.10 5.40 0.45z m42.90 -1.10 c2.95 -1.50 4.50 -3.85 4.50 -6.85 0 -4.45 -3.20 -7.55 -7.80 -7.55 -8.35 0 -10.65 11.40 -2.95 14.80 2.15 0.95 3.75 0.85 6.25 -0.40z"/>
  <path d="M27.20 126.80 c-1.90 -1.90 -2.15 -3.50 -0.95 -5.80 0.95 -1.85 2.15 -2.50 4.50 -2.50 4.90 0 6.55 7.05 2.20 9.30 -2.25 1.15 -3.90 0.85 -5.75 -1z"/>
  <path d="M154.55 69.70 c-3.70 -3.10 -1.70 -8.65 3.10 -8.70 2.45 0 3.65 0.65 4.65 2.60 1.65 3.20 -0.90 7.40 -4.55 7.40 -1.05 0 -2.25 -0.45 -3.20 -1.30z"/>
  <path d="M29.70 33.80 c-2.55 -1.10 -3.10 -4.75 -1.05 -6.70 2.25 -2.10 5.90 -1.05 7 2 0.50 1.40 -0.65 3.90 -2.20 4.65 -1.70 0.90 -1.80 0.90 -3.75 0.05z"/>
  <path d="M79.05 32.20 c-1.20 -1 -1.55 -1.70 -1.55 -3 0 -3.85 4.70 -5.65 7.25 -2.90 1.70 1.85 1.65 3.90 -0.20 5.75 -1.80 1.80 -3.50 1.85 -5.50 0.15z"/>
  <path d="M53.70 11.80 c-2.75 -2.35 -0.95 -7.30 2.60 -7.30 4.35 0 5.95 5.80 2.15 7.75 -1.95 1.05 -3.20 0.95 -4.75 -0.45z"/>
  <path d="M33.30 49.40 c-0.75 -0.65 -1.45 -1.85 -1.60 -2.75 -0.25 -1.35 -0.05 -1.85 1.20 -3.15 0.85 -0.80 2 -1.50 2.60 -1.50 1.45 0 3.80 1.30 4.20 2.25 1.65 4.40 -3 8.15 -6.40 5.15z"/>
  <path d="M75.70 49.40 c-1.20 -0.55 -2.20 -2.40 -2.20 -3.95 0 -1.30 2.65 -3.95 3.95 -3.95 2.55 0 4.55 2.05 4.55 4.65 -0.05 2.80 -3.55 4.60 -6.30 3.25z"/>
  <path d="M33.75 16.90 c-2.55 -1.35 -3.10 -4.90 -1.10 -6.80 2.55 -2.40 6.85 -0.65 6.85 2.75 0 2.25 -0.45 3.10 -2.05 3.90 -1.65 0.90 -2.35 0.90 -3.70 0.15z"/>
  <path d="M73.75 14.90 c-1.05 -1.25 -1.25 -1.90 -1.05 -3.10 0.65 -3.05 3.50 -4.50 6.20 -3.10 2.80 1.45 3.05 5.20 0.50 7 -1.90 1.35 -4.10 1.05 -5.65 -0.80z"/>
 </g>
</svg>