<?xml version="1.0" encoding="utf-8"?>
<!DOCTYPE svg PUBLIC "-//W3C//DTD SVG 1.0//EN" "http://www.w3.org/TR/2001/REC-SVG-20010904/DTD/svg10.dtd">
<svg version="1.0" xmlns="http://www.w3.org/2000/svg" width="176px" height="116px" viewBox="0 0 176 116" preserveAspectRatio="xMidYMid meet">
 <g fill="#000000">
  <path d="M145.25 114.25 c-2.60 -0.90 -4.10 -2.85 -4.80 -6.15 -0.80 -4.05 -0.15 -5.95 2.80 -8.20 4.40 -3.35 8.55 -3.05 10.30 0.80 1.70 3.75 0.80 6.55 -2 6.20 -1.05 -0.10 -1.35 -0.45 -1.60 -2.05 -0.35 -2.30 -0.60 -2.55 -1.95 -2.10 -2.85 0.90 -2.10 4.90 1.20 6.45 2.90 1.40 6.05 1.20 8.15 -0.50 2.95 -2.40 3.75 -4.35 3.50 -8.60 -0.30 -5.45 -2.65 -8.10 -7.55 -8.50 -2.45 -0.20 -3.20 0 -6.40 1.65 -2 1 -5.10 3 -6.90 4.45 -10.55 8.45 -13.05 10.40 -15.95 12.25 -5.85 3.75 -11 4.95 -14.70 3.40 -1.95 -0.85 -4.90 -4.05 -6.35 -6.90 -1.15 -2.25 -1.40 -5.75 -0.55 -7.40 0.85 -1.50 3.50 -3.30 6.25 -4.25 6.20 -2.05 9.80 -0.05 10.60 5.85 0.30 2 0.20 2.25 -1.75 4 -1.15 1 -2.50 1.85 -3 1.85 -0.85 0 -0.95 -0.40 -0.85 -3.60 l0.05 -3.65 -1.70 0.10 c-2.50 0.10 -4.25 1.60 -4.45 3.85 -0.15 1.65 0.10 2.15 2.30 4.35 2.10 2.10 2.75 2.45 4.40 2.45 4.10 -0.05 9.70 -3.60 21.45 -13.70 4.80 -4.10 8.95 -7 11.90 -8.25 l2.20 -0.95 0.30 -19.90 c0.20 -11 0.35 -24.15 0.35 -29.30 l0 -9.30 -5.60 -0.35 c-3.10 -0.20 -7 -0.25 -8.65 -0.15 l-3 0.15 -0.30 3.75 c-0.20 2.05 -0.35 11 -0.40 19.80 l-0.05 16.10 1.45 0.60 c3.50 1.40 5.35 5.45 4.60 10 -0.80 4.90 -2.90 6.50 -8.45 6.50 -2.30 0 -4.30 -0.30 -5.30 -0.75 -2.35 -1.10 -3.80 -4 -3.80 -7.45 0 -4.15 0.95 -5.95 4.25 -8.05 l2.80 -1.80 -0.15 -2.35 c-0.15 -2.10 -0.25 -2.30 -1.75 -2.70 -0.90 -0.25 -5.85 -0.35 -11 -0.30 l-9.40 0.15 -0.15 2.90 c-0.15 2.40 0 2.90 0.75 3.20 4.95 1.75 6.95 7.90 4.35 13.40 -2.40 5.10 -13.05 5 -15.65 -0.20 -2.40 -4.60 -0.85 -10.45 3.25 -12.60 1.85 -1 2.15 -1.40 2.45 -3.20 0.55 -3.75 0.60 -3.75 -7.95 -3.75 -4.15 0 -9.90 -0.15 -12.75 -0.35 -5.95 -0.35 -6.55 -0.05 -6.55 3.45 0 1.75 0.20 2.05 2.40 3.35 3.20 2 4.20 3.90 4.20 7.80 0 6.40 -2.80 9 -9.40 8.65 -2.70 -0.10 -4 -0.45 -5.05 -1.20 -2.25 -1.70 -3.30 -3.95 -3.35 -7.15 0 -3.95 1.25 -6.30 4.30 -7.95 l2.40 -1.35 -0.10 -2.75 -0.15 -2.75 -11 0 -11 0 -0.15 1.70 c-0.25 2.65 0.25 3.80 2.10 4.65 0.95 0.45 2.30 1.65 3.05 2.60 2.65 3.50 1.55 10.70 -1.95 12.85 -2 1.25 -8.15 1.30 -10.60 0.15 -2.50 -1.20 -3.85 -4.35 -3.60 -8.45 0.25 -3.75 1.20 -5.40 4.15 -7.10 1.05 -0.60 2.10 -1.40 2.30 -1.80 0.30 -0.55 0.60 -24.30 0.45 -37.70 0 -1.15 0 -1.15 -8.95 -1.15 l-8.90 0 -0.30 9.60 c-0.20 5.30 -0.40 18.10 -0.40 28.40 l-0.10 18.75 2.95 1.65 c3.80 2.15 6.35 4.65 11.35 11.10 6.35 8.25 8.85 11 11 12.10 3.60 1.80 7.20 0.35 9.25 -3.75 2.30 -4.65 0.60 -8.35 -3.85 -8.35 -1.65 0 -3.20 1.55 -4.05 4.15 -0.35 1.20 -0.90 1.85 -1.45 1.85 -1.45 0 -2.05 -1.10 -2.05 -3.80 0 -2.20 0.20 -2.85 1.45 -4.05 2.40 -2.40 6.65 -3.25 10.80 -2.10 4.35 1.20 5.25 3.65 4.05 10.70 -1.30 7.45 -4.05 10.50 -9.40 10.35 -8.05 -0.15 -16.05 -5.70 -20.35 -14.05 -1.20 -2.35 -3.05 -5.20 -4.15 -6.35 -2.50 -2.70 -6.85 -4.90 -8.85 -4.45 -3.10 0.70 -8.30 8.40 -8.30 12.35 0 3.40 3 5.45 9.70 6.60 1.40 0.25 1.90 0.05 3.35 -1.40 2.90 -2.90 1.95 -6.80 -1.60 -6.80 -1.15 0 -3.40 2.30 -3.95 4.05 -0.40 1.25 -1.75 1.05 -2.25 -0.30 -0.60 -1.60 1 -5.75 2.65 -6.95 4 -2.95 10.45 0.60 11.20 6.10 0.55 4.15 -3.50 9.95 -7.85 11.10 -5.35 1.45 -11.35 -2.75 -14 -9.80 -2.60 -7 0.45 -15.30 6.80 -18.50 l2.95 -1.45 0.35 -21 c0.25 -11.55 0.35 -24.35 0.25 -28.50 l-0.10 -7.50 -3.45 -0.35 c-7.80 -0.75 -12.50 -2.90 -14.25 -6.55 -2.80 -5.75 0.05 -13.90 5.90 -16.95 l2.65 -1.40 10.50 0 10.45 0 -0.15 2.40 -0.15 2.35 -3.25 0.25 -3.25 0.25 0 7.75 0 7.75 8.80 0.15 c8.65 0.10 8.85 0.10 9.10 -0.95 0.30 -1 -0.30 -5.50 -0.95 -7.60 -0.65 -2.10 -3.25 -5.35 -5.50 -6.90 -2.05 -1.40 -2.25 -1.70 -2.10 -3.35 0.20 -2.35 -0.10 -2.30 13.25 -1.85 11.30 0.40 11.60 0.45 10.70 2.90 -0.30 0.70 -1.30 1.40 -2.95 2 -4.75 1.70 -8.30 7.60 -8 13.05 l0.15 2.55 10.10 0.45 c5.55 0.20 10.70 0.25 11.40 0.10 1.20 -0.30 1.25 -0.45 1.25 -4.15 0 -2.90 -0.25 -4.40 -1.05 -6 -1.15 -2.35 -3.70 -4.70 -5.55 -5.15 -1 -0.25 -1.15 -0.65 -1.30 -2.90 l-0.15 -2.60 11.75 0 c6.45 0 12.05 0.15 12.50 0.30 0.95 0.35 1.10 3.45 0.20 4.05 -0.35 0.20 -2.20 0.80 -4.15 1.25 -4.65 1.20 -7.05 2.85 -7.70 5.25 -0.75 2.70 -0.70 8.90 0.10 9.55 0.45 0.40 22.25 0.95 26.25 0.65 0.45 -0.05 0.60 -1.45 0.60 -5.25 0 -4.40 -0.15 -5.35 -1 -6.45 -1.40 -1.75 -4.25 -3.45 -7 -4.15 -2.20 -0.55 -2.25 -0.60 -2.40 -2.65 l-0.15 -2.05 13.30 0 c14.65 0 14.35 -0.05 13.45 3.10 -0.35 1.25 -0.95 1.70 -3.15 2.50 -5.25 2 -8.80 7.30 -8.45 12.75 l0.15 2.40 11 0 11 0 -0.05 -4.25 c-0.05 -5.45 -1.15 -8.05 -4.65 -11 -2.60 -2.20 -3.20 -3.65 -1.95 -4.90 0.70 -0.70 6 -0.80 14.80 -0.25 l5.60 0.30 0 1.60 c0 1.35 -0.35 1.85 -1.95 2.90 -3.70 2.45 -7.05 9.05 -7.05 13.85 0 1.85 0.10 1.90 1.90 2.15 1 0.15 4.85 0.25 8.50 0.30 l6.60 0.10 0.50 -1.35 c0.30 -0.75 0.45 -4.30 0.40 -7.90 l-0.15 -6.55 -2 -0.25 c-2 -0.25 -2 -0.25 -2.15 -2.65 l-0.15 -2.35 10.30 0 c11.20 0 12.35 0.20 14.95 2.80 2.95 2.95 4.10 8.15 2.80 12.65 -1.15 4 -5.85 7.10 -13.60 9 l-5.65 1.40 -0.30 15.45 c-0.20 8.50 -0.35 21.55 -0.40 28.95 l-0.05 13.55 1.85 0.65 c5.35 1.95 10.15 10.10 10.15 17.30 0 4.80 -2.85 7.25 -10.70 9.25 -4.60 1.15 -7.75 1.25 -10.55 0.25z m-12.25 -34.50 c1.25 -1.15 1.65 -3.05 1 -5.05 -0.70 -2 -1.75 -2.70 -4.25 -2.70 -4.55 0 -6 6.15 -2 8.45 1.25 0.70 4.10 0.35 5.25 -0.70z m-27.50 0.25 c1.15 -0.60 2 -3.35 1.65 -5.20 -0.40 -2.10 -2.50 -3.45 -4.90 -3.15 -2.60 0.35 -3.75 1.80 -3.75 4.60 0 1.75 0.25 2.40 1.30 3.20 1.45 1.15 4.15 1.40 5.70 0.55z m-57.85 -1.60 c0.50 -0.60 0.85 -1.85 0.85 -3.20 0 -2.95 -1.25 -4.20 -4.25 -4.20 -3 0 -4.25 1.25 -4.25 4.15 0 1.15 0.35 2.60 0.75 3.20 1.30 1.90 5.30 1.90 6.90 0.05z m26.85 0.60 c1.25 -1.25 1.35 -4.75 0.25 -6.35 -1.55 -2.20 -6.55 -1.75 -7.45 0.60 -0.65 1.80 -0.30 4.45 0.80 5.60 1.45 1.55 4.95 1.60 6.40 0.15z m52.55 -22 c0.90 -0.50 0.95 -1.20 0.95 -14.75 l0 -14.25 -10.95 0 -10.95 0 -0.35 5.15 c-0.15 2.80 -0.25 9.25 -0.15 14.35 l0.15 9.25 10 0.25 c5.50 0.15 10.05 0.35 10.15 0.40 0.10 0.05 0.60 -0.15 1.15 -0.40z m-26.30 -1.10 c0.15 -0.65 0.20 -7.20 0.15 -14.65 l-0.15 -13.50 -12.95 -0.15 c-10.05 -0.10 -13.05 0.05 -13.40 0.50 -0.20 0.35 -0.40 6.90 -0.40 14.50 l0 13.85 5.90 0.20 c3.20 0.05 9.15 0.20 13.20 0.25 7.30 0.10 7.40 0.10 7.65 -1z m-31.55 -2 c0.15 -1.45 0.30 -7.95 0.30 -14.45 l0 -11.80 -3.85 -0.35 c-2.10 -0.15 -7 -0.30 -10.90 -0.30 -6.05 0 -7.20 0.10 -7.45 0.80 -0.15 0.45 -0.30 6.95 -0.30 14.45 0 10.45 0.15 13.75 0.65 13.90 0.30 0.15 5.25 0.30 10.90 0.30 l10.30 0.05 0.35 -2.60z m93 -31.75 c1.65 -0.70 3.80 -1.85 4.70 -2.50 1.35 -1 1.60 -1.50 1.60 -3.25 0 -1.15 -0.45 -2.70 -1 -3.65 -1.35 -2.20 -5.40 -4.30 -9.05 -4.60 l-2.95 -0.30 0 7.85 0 7.80 1.80 0 c1 0 3.20 -0.60 4.90 -1.35z m-142.90 -0.05 c0.60 -0.40 1.40 -13.50 0.90 -14.80 -0.25 -0.65 -1.25 -0.80 -5.20 -0.80 -4.25 0 -5.05 0.15 -6.25 1.10 -1.85 1.45 -3.25 4.65 -3.25 7.55 0 2.95 0.55 4.10 2.65 5.20 2.80 1.45 9.90 2.60 11.15 1.75z"/>
 </g>
 <g fill="#ffffff">
  <path d="M0 58 l0 -58 88 0 88 0 0 58 0 58 -88 0 -88 0 0 -58z m155.80 56 c7.85 -2 10.70 -4.45 10.70 -9.25 0 -7.20 -4.80 -15.35 -10.15 -17.30 l-1.85 -0.65 0.05 -13.55 c0.05 -7.40 0.20 -20.45 0.40 -28.95 l0.30 -15.45 5.65 -1.40 c5.80 -1.40 9.05 -3.05 11.75 -5.85 3.55 -3.70 3.10 -11.75 -0.95 -15.80 -2.60 -2.60 -3.75 -2.80 -14.95 -2.80 l-10.30 0 0.15 2.35 c0.15 2.40 0.15 2.40 2.15 2.65 l2 0.25 0.15 6.55 c0.05 3.60 -0.10 7.15 -0.40 7.90 l-0.50 1.35 -6.60 -0.10 c-3.65 -0.05 -7.50 -0.15 -8.50 -0.30 -1.80 -0.25 -1.90 -0.30 -1.90 -2.15 0 -4.80 3.35 -11.40 7.05 -13.85 1.60 -1.05 1.95 -1.55 1.95 -2.90 l0 -1.60 -5.60 -0.30 c-8.80 -0.55 -14.10 -0.45 -14.80 0.25 -1.25 1.25 -0.65 2.70 1.95 4.90 3.50 2.95 4.60 5.55 4.65 11 l0.05 4.25 -11 0 -11 0 -0.15 -2.40 c-0.35 -5.45 3.20 -10.75 8.45 -12.75 2.20 -0.80 2.80 -1.25 3.15 -2.50 0.90 -3.15 1.20 -3.10 -13.45 -3.10 l-13.30 0 0.15 2.05 c0.15 2.05 0.20 2.10 2.40 2.65 2.75 0.70 5.60 2.40 7 4.15 0.85 1.10 1 2.05 1 6.45 0 3.80 -0.15 5.20 -0.60 5.25 -4 0.30 -25.80 -0.25 -26.25 -0.65 -0.80 -0.65 -0.85 -6.85 -0.10 -9.55 0.65 -2.40 3.05 -4.05 7.70 -5.25 1.95 -0.45 3.80 -1.05 4.15 -1.25 0.90 -0.60 0.75 -3.70 -0.20 -4.05 -0.45 -0.15 -6.05 -0.30 -12.50 -0.30 l-11.75 0 0.15 2.60 c0.15 2.25 0.30 2.65 1.30 2.90 1.85 0.45 4.40 2.80 5.55 5.15 0.80 1.60 1.05 3.10 1.05 6 0 3.70 -0.05 3.85 -1.25 4.15 -0.70 0.15 -5.85 0.10 -11.40 -0.10 l-10.10 -0.45 -0.15 -2.55 c-0.30 -5.45 3.25 -11.35 8 -13.05 1.65 -0.60 2.65 -1.30 2.95 -2 0.90 -2.45 0.60 -2.50 -10.70 -2.90 -13.35 -0.45 -13.05 -0.50 -13.25 1.85 -0.15 1.65 0.05 1.95 2.10 3.35 2.25 1.55 4.85 4.80 5.50 6.90 0.65 2.10 1.25 6.60 0.95 7.60 -0.25 1.05 -0.45 1.05 -9.10 0.95 l-8.80 -0.15 0 -7.75 0 -7.75 3.25 -0.25 3.25 -0.25 0.15 -2.35 0.15 -2.40 -10.45 0 -10.50 0 -2.65 1.40 c-5.85 3.05 -8.70 11.20 -5.90 16.95 1.75 3.65 6.45 5.80 14.25 6.55 l3.45 0.35 0.10 7.50 c0.10 4.15 0 16.95 -0.25 28.50 l-0.35 21 -2.95 1.45 c-6.35 3.20 -9.40 11.50 -6.80 18.50 1.95 5.15 6.15 9.25 10.25 10 7.20 1.35 14.45 -8.50 10.55 -14.45 -2.45 -3.75 -7.20 -5.15 -10.15 -2.95 -1.65 1.20 -3.25 5.35 -2.65 6.95 0.50 1.35 1.85 1.55 2.25 0.30 0.55 -1.75 2.80 -4.05 3.95 -4.05 3.55 0 4.50 3.90 1.60 6.80 -1.45 1.45 -1.95 1.65 -3.35 1.40 -6.70 -1.15 -9.70 -3.20 -9.70 -6.60 0 -3.95 5.20 -11.65 8.30 -12.35 2 -0.45 6.35 1.75 8.85 4.45 1.10 1.15 2.95 4 4.15 6.35 4.30 8.35 12.30 13.90 20.35 14.05 5.35 0.15 8.10 -2.90 9.40 -10.35 1.20 -7.05 0.30 -9.50 -4.05 -10.70 -4.15 -1.15 -8.40 -0.30 -10.80 2.10 -1.25 1.20 -1.45 1.85 -1.45 4.05 0 2.70 0.60 3.80 2.05 3.80 0.55 0 1.10 -0.65 1.45 -1.85 0.85 -2.60 2.40 -4.15 4.05 -4.15 4.45 0 6.15 3.70 3.85 8.35 -2.05 4.10 -5.65 5.55 -9.25 3.75 -2.15 -1.10 -4.65 -3.85 -11 -12.10 -5 -6.45 -7.55 -8.95 -11.35 -11.10 l-2.95 -1.65 0.10 -18.75 c0 -10.30 0.20 -23.10 0.40 -28.40 l0.30 -9.60 8.90 0 c8.95 0 8.95 0 8.95 1.15 0.15 13.40 -0.15 37.15 -0.45 37.70 -0.20 0.40 -1.25 1.20 -2.30 1.80 -2.95 1.70 -3.90 3.35 -4.15 7.10 -0.25 4.10 1.10 7.25 3.60 8.45 2.45 1.15 8.60 1.10 10.60 -0.15 2.20 -1.35 3.40 -4.15 3.35 -7.90 0 -2.60 -0.25 -3.45 -1.40 -4.95 -0.75 -0.95 -2.10 -2.15 -3.05 -2.60 -1.85 -0.85 -2.35 -2 -2.10 -4.65 l0.15 -1.70 11 0 11 0 0.15 2.75 0.10 2.75 -2.40 1.35 c-3.05 1.65 -4.30 4 -4.30 7.95 0.05 3.20 1.10 5.45 3.35 7.15 1.05 0.75 2.35 1.10 5.05 1.20 6.60 0.35 9.40 -2.25 9.40 -8.65 0 -3.90 -1 -5.80 -4.20 -7.80 -2.20 -1.30 -2.40 -1.60 -2.40 -3.35 0 -3.50 0.60 -3.80 6.55 -3.45 2.85 0.20 8.60 0.35 12.75 0.35 8.55 0 8.50 0 7.95 3.75 -0.30 1.80 -0.60 2.20 -2.45 3.20 -4.10 2.15 -5.65 8 -3.25 12.60 2.60 5.20 13.25 5.30 15.65 0.20 2.60 -5.50 0.60 -11.65 -4.35 -13.40 -0.75 -0.30 -0.90 -0.80 -0.75 -3.20 l0.15 -2.90 9.40 -0.15 c5.15 -0.05 10.10 0.05 11 0.30 1.50 0.40 1.60 0.60 1.75 2.70 l0.15 2.35 -2.80 1.80 c-3.30 2.10 -4.25 3.90 -4.25 8.05 0 3.45 1.45 6.35 3.80 7.45 1 0.45 3 0.75 5.30 0.75 5.55 0 7.65 -1.60 8.45 -6.50 0.75 -4.55 -1.10 -8.60 -4.60 -10 l-1.45 -0.60 0.05 -16.10 c0.05 -8.80 0.20 -17.75 0.40 -19.80 l0.30 -3.75 3 -0.15 c1.65 -0.10 5.55 -0.05 8.65 0.15 l5.60 0.35 0 9.30 c0 5.15 -0.15 18.30 -0.35 29.30 l-0.30 19.90 -2.20 0.95 c-2.95 1.25 -7.10 4.15 -11.90 8.25 -11.75 10.10 -17.35 13.65 -21.45 13.70 -1.65 0 -2.30 -0.35 -4.40 -2.45 -2.20 -2.20 -2.45 -2.70 -2.30 -4.35 0.20 -2.25 1.95 -3.75 4.45 -3.85 l1.70 -0.10 -0.05 3.65 c-0.10 3.20 0 3.60 0.85 3.60 0.50 0 1.85 -0.85 3 -1.85 1.95 -1.75 2.05 -2 1.75 -4 -0.80 -5.90 -4.40 -7.90 -10.60 -5.85 -2.75 0.95 -5.40 2.75 -6.25 4.25 -1.50 2.85 -0.10 7.60 3.45 11.55 5.50 6.10 12.55 4.30 26.10 -6.50 2.60 -2.10 6.20 -4.95 8 -6.40 1.80 -1.45 4.90 -3.45 6.90 -4.45 3.20 -1.65 3.95 -1.85 6.40 -1.65 4.90 0.40 7.25 3.05 7.55 8.50 0.25 4.25 -0.55 6.20 -3.50 8.60 -2.10 1.70 -5.25 1.90 -8.15 0.50 -3.30 -1.55 -4.05 -5.55 -1.20 -6.45 1.35 -0.45 1.60 -0.20 1.95 2.10 0.25 1.60 0.55 1.95 1.60 2.05 2.80 0.35 3.70 -2.45 2 -6.20 -1.75 -3.85 -5.90 -4.15 -10.30 -0.80 -2.95 2.25 -3.60 4.15 -2.80 8.20 1.35 6.30 6.25 8.20 15.35 5.90z"/>
  <path d="M127.75 80.45 c-1.65 -0.95 -2.25 -2.05 -2.25 -4.05 0 -2.60 1.75 -4.40 4.25 -4.40 2.50 0 3.55 0.70 4.25 2.70 0.65 2 0.25 3.90 -1 5.05 -1.15 1.05 -4 1.40 -5.25 0.70z"/>
  <path d="M99.80 79.45 c-1.05 -0.80 -1.30 -1.45 -1.30 -3.20 0 -2.80 1.15 -4.25 3.75 -4.60 2.40 -0.30 4.50 1.05 4.90 3.15 0.35 1.85 -0.50 4.60 -1.65 5.20 -1.55 0.85 -4.25 0.60 -5.70 -0.55z"/>
  <path d="M42.90 79.65 c-1.85 -0.30 -2.90 -1.90 -2.90 -4.50 0 -2.90 1.25 -4.15 4.25 -4.15 3 0 4.25 1.25 4.25 4.20 0 3.50 -1.95 5.05 -5.60 4.45z"/>
  <path d="M68.10 78.85 c-1.10 -1.15 -1.45 -3.80 -0.80 -5.60 0.90 -2.35 5.90 -2.80 7.45 -0.60 1.10 1.60 1 5.10 -0.25 6.35 -1.45 1.45 -4.95 1.40 -6.40 -0.15z"/>
  <path d="M115.75 57 l-10 -0.25 -0.15 -9.25 c-0.10 -5.10 0 -11.55 0.15 -14.35 l0.35 -5.15 10.95 0 10.95 0 0 14.25 c0 13.55 -0.05 14.25 -0.95 14.75 -0.55 0.25 -1.05 0.45 -1.15 0.40 -0.10 -0.05 -4.65 -0.25 -10.15 -0.40z"/>
  <path d="M79.90 56.65 l-5.90 -0.20 0 -13.85 c0 -7.60 0.20 -14.15 0.40 -14.50 0.35 -0.45 3.35 -0.60 13.40 -0.50 l12.95 0.15 0.15 13.50 c0.05 7.45 0 14 -0.15 14.65 -0.25 1.10 -0.35 1.10 -7.65 1 -4.05 -0.05 -10 -0.20 -13.20 -0.25z"/>
  <path d="M47.65 56.15 c-0.50 -0.15 -0.65 -3.45 -0.65 -13.90 0 -7.50 0.15 -14 0.30 -14.45 0.25 -0.70 1.40 -0.80 7.45 -0.80 3.90 0 8.80 0.15 10.90 0.30 l3.85 0.35 0 11.80 c0 6.50 -0.15 13 -0.30 14.45 l-0.35 2.60 -10.30 -0.05 c-5.65 0 -10.60 -0.15 -10.90 -0.30z"/>
  <path d="M155.50 15.70 l0 -7.85 2.95 0.30 c3.65 0.30 7.70 2.40 9.05 4.60 0.55 0.95 1 2.50 1 3.65 0 1.75 -0.25 2.25 -1.60 3.25 -2.50 1.80 -7.55 3.85 -9.60 3.85 l-1.80 0 0 -7.80z"/>
  <path d="M12.75 21.80 c-3.50 -0.70 -6 -1.95 -6.75 -3.25 -0.80 -1.55 -0.55 -5.60 0.45 -7.85 1.60 -3.55 2.95 -4.20 8.55 -4.20 3.95 0 4.95 0.15 5.20 0.80 0.50 1.30 -0.30 14.40 -0.90 14.80 -0.75 0.50 -3 0.40 -6.55 -0.30z"/>
 </g>
</svg>