<?xml version="1.0" encoding="utf-8"?>
<!DOCTYPE svg PUBLIC "-//W3C//DTD SVG 1.0//EN" "http://www.w3.org/TR/2001/REC-SVG-20010904/DTD/svg10.dtd">
<svg version="1.0" xmlns="http://www.w3.org/2000/svg" width="132px" height="134px" viewBox="0 0 132 134" preserveAspectRatio="xMidYMid meet">
 <g fill="#000000">
  <path d="M64.75 133.55 c1.50 -0.25 0.65 -0.40 -3.35 -0.60 -5.05 -0.25 -5.65 -0.40 -9.55 -2.35 -10.15 -5 -16.10 -15.35 -18.60 -32.35 -0.95 -6.55 -1.75 -17.20 -1.75 -23.85 l0 -5.35 -4.10 -0.15 -4.15 -0.15 0 -7.60 c-0.05 -4.25 -0.25 -7.85 -0.55 -8.15 -0.25 -0.25 -3.60 -0.55 -7.45 -0.60 l-7 -0.15 0.15 -11.10 0.15 -11.10 -1.90 -0.95 c-2.60 -1.35 -4.55 -3.25 -4.95 -4.85 -0.85 -3.50 1.40 -8.45 5.20 -11.35 3.50 -2.75 6.80 -1.20 7.55 3.60 0.55 3.45 2.25 5.15 4.95 4.90 1.35 -0.10 2 -0.50 2.55 -1.50 0.70 -1.25 0.65 -1.45 -1.10 -4.10 -1.05 -1.55 -2 -3.45 -2.15 -4.25 -0.40 -1.85 1 -4.75 2.80 -6.05 2.65 -1.85 9.20 -0.95 10.45 1.40 0.85 1.60 0.65 3.25 -0.70 6.30 -1.45 3.30 -1.55 4.20 -0.45 5.70 0.60 0.85 1.25 1.10 2.95 1.10 1.80 0 2.35 -0.25 3.50 -1.60 1.30 -1.55 1.35 -1.80 1 -4.90 -0.60 -5.45 -0.50 -6.90 0.55 -8.35 2.15 -3 7.70 -4.55 10.70 -3 0.65 0.35 1.75 1.40 2.35 2.30 1.25 1.85 1.15 2.95 -0.40 5 -1.30 1.60 -1.25 5.10 0 6.25 1.50 1.35 5.45 0.90 6.70 -0.75 0.85 -1.20 0.90 -1.60 0.35 -3.75 -1.20 -5 -1.20 -6.15 0.05 -7.55 1.85 -1.95 3.65 -2.65 6.80 -2.65 5 0.05 9.15 2.80 9.15 6.10 0 0.80 -0.35 2.25 -0.75 3.25 -1.15 2.75 -0.95 5 0.55 6.40 1.70 1.60 4.05 2.10 5.10 1.05 0.70 -0.65 0.70 -1.25 0.10 -5 -0.85 -5.50 -0.30 -7.75 2.40 -9.55 1 -0.65 2.45 -1.35 3.20 -1.50 1.70 -0.45 4.50 0.50 6.40 2.10 1.35 1.10 1.50 1.55 1.50 4.05 -0.05 1.60 -0.35 3.75 -0.75 4.85 -0.40 1.10 -0.75 2.40 -0.75 2.85 0 2.50 4.15 3.30 6.25 1.15 1.35 -1.35 1.55 -2.90 0.70 -5.75 -1.20 -3.90 2.30 -7.65 7.10 -7.70 2 -0.05 2.65 0.20 4 1.45 2.05 1.95 3.65 5.45 3.20 7.10 -0.15 0.75 -0.95 2.10 -1.80 3.10 -1.80 2.20 -1.80 3.05 -0.15 5.05 2.15 2.50 3.60 2 5.50 -1.95 2.05 -4.25 4.25 -6.25 6.50 -5.90 2.25 0.40 5.65 2.70 7.10 4.85 1 1.50 1.15 2.20 1 4.85 -0.15 2.65 -0.45 3.40 -1.65 4.70 -0.85 0.85 -2.35 2 -3.35 2.50 l-1.90 0.95 0 9.45 c0 5.15 -0.15 10.45 -0.30 11.75 l-0.35 2.30 -7.15 0 c-4.45 0 -7.20 0.20 -7.25 0.50 -0.05 0.30 -0.15 0.75 -0.20 1 -0.05 0.30 -0.15 3.60 -0.20 7.45 l-0.05 6.95 -3.55 0.20 c-2.10 0.10 -3.65 0.45 -3.90 0.85 -0.20 0.35 -0.55 4.15 -0.70 8.45 -0.60 16.60 -3.50 29.85 -8.45 39.25 -4.50 8.40 -14.05 14.85 -22.10 14.85 -1.80 0 -2.35 0.15 -1.80 0.50 0.55 0.35 -0.15 0.45 -2.25 0.40 -2.75 -0.05 -2.80 -0.05 -1 -0.35z m6.85 -3.60 c10.50 -2.20 18.40 -11.25 21.90 -25.20 2.30 -9 3 -14.10 3.40 -24.15 0.25 -5.15 0.30 -9.60 0.25 -9.90 -0.15 -0.35 -2.40 -0.70 -5.70 -0.85 -3.05 -0.20 -5.75 -0.45 -6 -0.65 -0.30 -0.15 -0.45 -3.40 -0.40 -7.80 0 -4.15 -0.15 -7.70 -0.45 -8 -0.25 -0.25 -1.80 -0.40 -3.40 -0.30 l-2.95 0.15 -0.30 7.25 c-0.20 4 -0.35 7.65 -0.40 8.10 -0.05 0.75 -0.75 0.90 -4.90 1 l-4.90 0.15 -0.40 13 c-0.20 7.15 -0.25 13.50 -0.10 14.15 0.25 1 0.55 1.10 3.75 1.10 3.15 0 3.60 -0.15 5.20 -1.55 0.95 -0.85 2.25 -2.35 2.85 -3.35 1.50 -2.50 3 -4.10 3.80 -4.10 0.50 0 0.65 1.90 0.65 9.15 0 10.65 -0.25 12.85 -1.50 12.85 -1.15 0 -2.25 -1.30 -3.25 -3.85 -1.60 -4 -5.40 -6.10 -10.05 -5.55 l-1.45 0.15 -0.15 5 c-0.10 3.70 0.05 5.55 0.65 7.10 1.10 2.90 4.90 6.20 8.45 7.40 2.30 0.80 2.80 1.15 2.70 2 -0.15 0.95 -0.55 1 -6.65 1.15 -3.55 0.10 -9.70 0 -13.65 -0.15 -6.90 -0.35 -7.15 -0.40 -7 -1.40 0.10 -0.80 0.75 -1.20 2.55 -1.65 3.35 -0.85 6.15 -2.85 7.90 -5.55 1.40 -2.25 1.45 -2.55 1.45 -8.25 l0 -5.90 -2.85 0 c-3.65 0 -5.35 1 -8.20 4.75 -2.10 2.80 -3.75 4.10 -4.35 3.50 -0.35 -0.35 -0.40 -1.95 -0.20 -13.35 0.10 -6.25 0.25 -7.90 0.75 -7.90 1 0 2.40 1.70 3.85 4.65 1.75 3.65 3.85 4.95 7.75 4.75 l3 -0.15 0.40 -13.50 c0.20 -7.40 0.25 -13.80 0.10 -14.10 -0.15 -0.45 -1.40 -0.65 -3.95 -0.65 -2.05 0 -4.05 -0.15 -4.50 -0.30 -0.70 -0.25 -0.80 -1.45 -0.80 -7.90 0 -5.25 -0.20 -7.80 -0.60 -8.20 -0.70 -0.70 -4.85 -0.80 -5.90 -0.10 -0.60 0.35 -0.80 2.10 -1 8.35 l-0.25 7.90 -5.75 0.25 -5.75 0.25 -0.15 8 c-0.25 10.95 1.40 23.70 4.10 31.65 3.90 11.40 11.05 18.85 19.85 20.55 3.20 0.65 9.50 0.65 12.55 0z m-8.40 -63.75 c0.65 -0.25 0.80 -1.35 0.80 -6.80 l0 -6.45 -3.35 0.15 -3.40 0.15 -0.15 5.95 c-0.05 3.30 0 6.30 0.10 6.65 0.30 0.70 4.50 0.90 6 0.35z m10.75 -0.40 c0.40 -0.45 0.55 -2.70 0.45 -6.60 l-0.15 -5.95 -3.25 0 -3.25 0 -0.35 5.70 c-0.45 7.10 -0.25 7.55 3.30 7.55 1.70 0 2.90 -0.25 3.25 -0.70z m32.30 -0.40 c0.15 -0.65 0.30 -4.30 0.40 -8.15 l0.10 -7 6.25 0 c3.45 0 6.55 -0.20 6.90 -0.40 0.45 -0.30 0.60 -3.15 0.60 -11.30 l0 -10.95 2.25 -0.55 c3.30 -0.85 4.25 -2 4.25 -5.25 0 -2.25 -0.20 -2.95 -1.40 -4.20 -1.65 -1.75 -3.80 -2.50 -4.80 -1.65 -0.40 0.35 -1.20 2.15 -1.75 4.05 -1.70 5.50 -3.85 6.45 -8.15 3.45 -4.60 -3.10 -5.30 -4.80 -3.20 -7.30 2.45 -3 3 -5.65 1.55 -7.85 -1.60 -2.40 -5.70 -2.90 -7.85 -0.95 -1.20 1.05 -1.15 2.15 0.15 4.65 1 1.85 1 2.25 0.45 4 -1.25 3.70 -4.20 5.15 -8.35 4.05 -4.35 -1.20 -5.75 -4.45 -3.55 -8.60 0.95 -1.90 1 -2.20 0.35 -3.40 -1.45 -2.55 -5.35 -3.20 -7.50 -1.25 -1.25 1.15 -1.20 2.30 0.35 5.70 0.70 1.60 1.20 3.50 1.10 4.25 -0.20 1.90 -2.30 3.35 -5.30 3.65 -3.15 0.30 -5.55 -0.50 -7.40 -2.45 -1.40 -1.50 -1.45 -1.65 -1.35 -6.10 0.15 -5.10 -0.30 -6.20 -3 -7.85 -2 -1.25 -4.40 -1.25 -5.90 -0.05 -1.15 0.90 -1.15 1 -0.50 4.20 0.80 4.15 0.40 6.85 -1.35 8.50 -3.65 3.50 -8.95 3.05 -10.85 -0.90 -0.80 -1.75 -0.80 -2 0 -4.15 1.35 -3.85 1.45 -5.05 0.50 -6.10 -1.15 -1.25 -2.90 -1.25 -5.60 -0.05 -2.90 1.35 -3.85 2.95 -3.20 5.40 1.70 6.05 -0.50 10.35 -5.60 11.15 -6.50 0.95 -9.15 -3 -6.10 -9 1.60 -3.15 1.55 -3.75 -0.20 -5.55 -1.65 -1.65 -3.35 -1.85 -5.55 -0.70 -1.75 0.90 -2.50 2.15 -2.50 4.25 0 1.90 0.65 3.25 2.50 5.25 0.80 0.85 1.50 1.85 1.55 2.25 0.30 1.60 -0.60 3.45 -2.30 4.50 -3.60 2.20 -6.15 1.10 -8.60 -3.75 -2.30 -4.55 -3.40 -5.10 -6.50 -3.20 -4.25 2.65 -4.15 8.70 0.25 9.90 1 0.30 2.35 0.55 3 0.55 l1.10 0 0 11.25 0 11.25 4.40 0.05 c2.40 0.05 5.70 0.20 7.30 0.40 l2.95 0.30 -0.10 7.55 c-0.10 6.05 0.05 7.65 0.60 8.15 0.50 0.40 3.05 0.55 8.65 0.45 l7.95 -0.15 0.30 -5.75 c0.20 -3.15 0.35 -6.80 0.40 -8.10 l0.05 -2.40 9.80 0 c5.40 0.05 9.90 -0.05 10 -0.10 0.35 -0.35 0.35 -17.25 0 -17.80 -0.25 -0.40 -2.15 -0.60 -5.50 -0.60 l-5.10 0 -1.85 2 c-2.05 2.15 -4.15 2.80 -7.20 2.35 -2.60 -0.45 -4.10 -1.65 -5.25 -4.20 -3.15 -7.15 5.15 -13.65 11.40 -8.90 0.85 0.65 1.80 1.85 2.15 2.65 l0.60 1.45 8.30 0.30 c4.55 0.20 10.25 0.35 12.65 0.35 l4.35 0 1.20 -1.85 c3.55 -5.50 10.45 -5.55 13.30 -0.15 1.45 2.70 1.45 4.20 0.05 7 -1.55 2.95 -3.80 4.15 -7.35 3.85 -2.40 -0.15 -2.90 -0.40 -4.90 -2.50 l-2.25 -2.35 -4.85 0 c-3.10 0 -5.05 0.20 -5.45 0.60 -0.40 0.40 -0.60 3.20 -0.60 9.25 0 4.75 0.05 8.70 0.15 8.75 0.05 0.05 4.70 0.20 10.35 0.35 l10.25 0.30 0.15 7.50 c0.05 4.15 0.20 7.80 0.35 8.15 0.15 0.45 2.40 0.60 8.70 0.60 8.45 0 8.55 0 8.80 -1.10z m-57.65 -34.25 c1.80 -1.60 1.55 -4.90 -0.55 -6.50 -1.35 -1.05 -3.95 -0.75 -5.30 0.60 -3.75 3.75 1.85 9.40 5.85 5.90z m40.10 0.30 c1 -0.80 1.30 -1.45 1.30 -2.95 0 -1.50 -0.30 -2.15 -1.30 -2.95 -0.75 -0.60 -1.85 -1.05 -2.45 -1.05 -0.60 0 -1.70 0.45 -2.45 1.05 -1 0.80 -1.30 1.45 -1.30 2.95 0 1.50 0.30 2.15 1.30 2.95 0.75 0.60 1.85 1.05 2.45 1.05 0.60 0 1.70 -0.45 2.45 -1.05z"/>
  <path d="M94.20 44.50 c-1.90 -0.75 -3.20 -2.95 -3.20 -5.35 0 -1.90 0.25 -2.50 1.70 -3.95 1.30 -1.30 2.10 -1.70 3.50 -1.70 2.45 0 4.60 1.15 5.55 3 2.55 4.95 -2.35 10.10 -7.55 8z m3.45 -2.55 c2.10 -1.15 2.45 -2.85 0.85 -4.45 -1.35 -1.35 -3.25 -1.30 -4.20 0.10 -1.05 1.50 -1 2.70 0.20 3.90 1.15 1.15 1.65 1.20 3.15 0.45z"/>
  <path d="M106.70 43.30 c-1.95 -1.95 -2.25 -4.30 -0.95 -6.80 2.05 -3.95 8 -3.85 10.05 0.10 2 3.90 -0.70 8.40 -5.10 8.40 -1.95 0 -2.55 -0.25 -4 -1.70z m5.70 -1.60 c2.15 -1.50 1 -5.20 -1.65 -5.20 -2.65 0 -3.80 3.70 -1.65 5.20 0.60 0.45 1.35 0.80 1.65 0.80 0.30 0 1.05 -0.35 1.65 -0.80z"/>
  <path d="M17 43.60 c-2.50 -1.25 -3.80 -4.05 -3.05 -6.60 0.75 -2.55 2.65 -4 5.15 -4 3.85 0 5.90 2.10 5.90 5.90 0 2.35 -1.10 4 -3.30 4.90 -2.15 0.90 -2.60 0.90 -4.70 -0.20z m4.20 -2.75 c1.30 -0.95 1.20 -3.35 -0.20 -4.45 -1.35 -1.10 -1.95 -1.10 -3.40 -0.10 -1.30 0.90 -1.50 3.25 -0.30 4.40 0.95 0.95 2.70 1.05 3.90 0.15z"/>
  <path d="M31.25 44.05 c-2.50 -1.05 -4.05 -4.30 -3.25 -6.85 1.65 -5 8.50 -5.65 10.70 -1 1 2.10 1 2.95 0 5.05 -1.20 2.60 -4.75 3.90 -7.45 2.80z m4.35 -3.40 c1.10 -1 1.15 -2.55 0.05 -3.75 -1.60 -1.80 -5.15 -0.60 -5.15 1.75 0 2.45 3.20 3.75 5.10 2z"/>
 </g>
 <g fill="#ffffff">
  <path d="M0 67 l0 -67 66 0 66 0 0 67 0 67 -31.60 0 c-19.60 0 -31.95 -0.20 -32.40 -0.50 -0.55 -0.35 0 -0.50 1.80 -0.50 5.90 0 12.75 -3.40 17.70 -8.80 7.60 -8.25 12.05 -23.95 12.85 -45.30 0.15 -4.30 0.50 -8.10 0.70 -8.45 0.25 -0.40 1.80 -0.75 3.90 -0.85 l3.55 -0.20 0.05 -6.95 c0.05 -3.85 0.15 -7.15 0.20 -7.45 0.05 -0.25 0.15 -0.70 0.20 -1 0.05 -0.30 2.80 -0.50 7.25 -0.50 l7.15 0 0.35 -2.30 c0.15 -1.30 0.30 -6.60 0.30 -11.75 l0 -9.45 1.90 -0.95 c1 -0.50 2.50 -1.65 3.35 -2.50 1.20 -1.30 1.50 -2.05 1.65 -4.70 0.15 -2.65 0 -3.35 -1 -4.85 -1.45 -2.15 -4.85 -4.45 -7.10 -4.85 -2.25 -0.35 -4.45 1.65 -6.50 5.90 -1.90 3.95 -3.35 4.45 -5.50 1.95 -1.65 -2 -1.65 -2.85 0.15 -5.05 0.85 -1 1.65 -2.35 1.80 -3.10 0.45 -1.65 -1.15 -5.15 -3.20 -7.10 -1.35 -1.25 -2 -1.50 -4 -1.45 -3.10 0.05 -5.55 1.45 -6.75 3.90 -0.80 1.60 -0.85 2.20 -0.35 3.80 0.85 2.85 0.65 4.40 -0.70 5.75 -2.10 2.15 -6.25 1.35 -6.25 -1.15 0 -0.45 0.35 -1.75 0.75 -2.85 0.40 -1.10 0.70 -3.25 0.75 -4.85 0 -2.50 -0.15 -2.95 -1.50 -4.05 -1.90 -1.60 -4.70 -2.55 -6.40 -2.10 -0.75 0.15 -2.20 0.85 -3.20 1.50 -2.70 1.80 -3.25 4.05 -2.40 9.55 0.60 3.75 0.60 4.35 -0.10 5 -1.05 1.05 -3.40 0.55 -5.10 -1.05 -1.50 -1.40 -1.70 -3.65 -0.55 -6.40 0.40 -1 0.75 -2.45 0.75 -3.25 0 -3.30 -4.15 -6.05 -9.15 -6.10 -3.15 0 -4.95 0.70 -6.80 2.65 -1.25 1.40 -1.25 2.55 -0.05 7.55 0.55 2.15 0.50 2.55 -0.35 3.75 -1.25 1.65 -5.20 2.10 -6.70 0.75 -1.25 -1.15 -1.30 -4.65 0 -6.25 1.55 -2.05 1.65 -3.15 0.40 -5 -0.60 -0.90 -1.70 -1.95 -2.35 -2.30 -3 -1.55 -8.55 0 -10.70 3 -1.05 1.45 -1.15 2.90 -0.55 8.35 0.35 3.10 0.30 3.35 -1 4.90 -1.15 1.35 -1.70 1.60 -3.50 1.60 -1.70 0 -2.35 -0.25 -2.95 -1.10 -1.10 -1.50 -1 -2.40 0.45 -5.70 1.35 -3.05 1.55 -4.70 0.70 -6.30 -1.25 -2.35 -7.80 -3.25 -10.45 -1.40 -1.80 1.30 -3.20 4.20 -2.80 6.05 0.15 0.80 1.10 2.70 2.15 4.25 1.75 2.65 1.80 2.85 1.10 4.10 -0.55 1 -1.20 1.40 -2.55 1.50 -2.70 0.25 -4.40 -1.45 -4.95 -4.90 -0.75 -4.80 -4.05 -6.35 -7.55 -3.60 -3.80 2.90 -6.05 7.85 -5.20 11.35 0.40 1.60 2.35 3.50 4.95 4.85 l1.90 0.95 -0.15 11.10 -0.15 11.10 7 0.15 c3.85 0.05 7.20 0.35 7.45 0.60 0.30 0.30 0.50 3.90 0.55 8.15 l0 7.60 4.15 0.15 4.10 0.15 0 5.35 c0 6.65 0.80 17.30 1.75 23.85 2.50 17 8.45 27.35 18.60 32.35 3.90 1.95 4.50 2.10 9.55 2.35 11.90 0.55 0.05 1 -30.25 1 l-31.15 0.05 0 -67z"/>
  <path d="M59.05 129.95 c-8.80 -1.70 -15.95 -9.15 -19.85 -20.55 -2.70 -7.95 -4.35 -20.70 -4.10 -31.65 l0.15 -8 5.75 -0.25 5.75 -0.25 0.25 -7.90 c0.20 -6.25 0.40 -8 1 -8.35 1.05 -0.70 5.20 -0.60 5.90 0.10 0.40 0.40 0.60 2.95 0.60 8.20 0 6.45 0.10 7.65 0.80 7.90 0.45 0.15 2.45 0.30 4.50 0.30 2.55 0 3.80 0.20 3.95 0.65 0.15 0.30 0.10 6.70 -0.10 14.10 l-0.40 13.50 -3 0.15 c-3.90 0.20 -6 -1.10 -7.75 -4.75 -1.45 -2.95 -2.85 -4.65 -3.85 -4.65 -0.50 0 -0.65 1.65 -0.75 7.90 -0.20 11.40 -0.15 13 0.20 13.35 0.60 0.60 2.25 -0.70 4.35 -3.50 2.85 -3.75 4.55 -4.75 8.20 -4.75 l2.85 0 0 5.90 c0 5.70 -0.05 6 -1.45 8.25 -1.75 2.70 -4.55 4.70 -7.90 5.55 -1.80 0.45 -2.45 0.85 -2.55 1.65 -0.15 1 0.10 1.05 7 1.40 3.95 0.15 10.10 0.25 13.65 0.15 6.10 -0.15 6.50 -0.20 6.65 -1.15 0.10 -0.85 -0.40 -1.20 -2.70 -2 -3.55 -1.20 -7.35 -4.50 -8.45 -7.40 -0.60 -1.55 -0.75 -3.40 -0.65 -7.10 l0.15 -5 1.45 -0.15 c4.65 -0.55 8.45 1.55 10.05 5.55 1 2.55 2.10 3.85 3.25 3.85 1.25 0 1.50 -2.20 1.50 -12.85 0 -7.25 -0.15 -9.15 -0.65 -9.15 -0.80 0 -2.30 1.60 -3.80 4.10 -0.60 1 -1.90 2.50 -2.85 3.35 -1.60 1.40 -2.05 1.55 -5.20 1.55 -3.20 0 -3.50 -0.10 -3.75 -1.10 -0.15 -0.65 -0.10 -7 0.10 -14.15 l0.40 -13 4.90 -0.15 c4.15 -0.10 4.85 -0.25 4.90 -1 0.05 -0.45 0.20 -4.10 0.40 -8.10 l0.30 -7.25 2.95 -0.15 c1.60 -0.10 3.15 0.05 3.40 0.30 0.30 0.30 0.45 3.85 0.45 8 -0.05 4.40 0.10 7.65 0.40 7.80 0.25 0.20 2.95 0.45 6 0.65 3.30 0.15 5.55 0.50 5.70 0.85 0.05 0.30 0 4.75 -0.25 9.90 -0.40 10.05 -1.10 15.15 -3.40 24.15 -3.50 13.95 -11.40 23 -21.90 25.20 -3.05 0.65 -9.35 0.65 -12.55 0z"/>
  <path d="M57.20 65.85 c-0.10 -0.35 -0.15 -3.35 -0.10 -6.65 l0.15 -5.95 3.40 -0.15 3.35 -0.15 0 6.45 c0 7.35 0.15 7.10 -4.05 7.10 -1.60 0 -2.55 -0.25 -2.75 -0.65z"/>
  <path d="M67.55 65.55 c-0.30 -0.55 -0.40 -3.05 -0.15 -6.60 l0.35 -5.70 3.25 0 3.25 0 0.15 5.95 c0.10 3.90 -0.05 6.15 -0.45 6.60 -0.35 0.45 -1.55 0.70 -3.25 0.70 -2.10 0 -2.75 -0.20 -3.15 -0.95z"/>
  <path d="M88.75 65.90 c-0.15 -0.35 -0.30 -4 -0.35 -8.15 l-0.15 -7.50 -10.25 -0.30 c-5.65 -0.15 -10.30 -0.30 -10.35 -0.35 -0.10 -0.05 -0.15 -4 -0.15 -8.75 0 -6.05 0.20 -8.85 0.60 -9.25 0.40 -0.40 2.35 -0.60 5.45 -0.60 l4.85 0 2.25 2.35 c2 2.10 2.50 2.35 4.90 2.50 3.55 0.30 5.80 -0.90 7.35 -3.85 1.40 -2.80 1.40 -4.30 -0.05 -7 -2.85 -5.40 -9.75 -5.35 -13.30 0.15 l-1.20 1.85 -4.35 0 c-2.40 0 -8.10 -0.15 -12.65 -0.35 l-8.30 -0.30 -0.60 -1.45 c-0.35 -0.80 -1.30 -2 -2.15 -2.65 -6.25 -4.75 -14.55 1.75 -11.40 8.90 1.15 2.55 2.65 3.75 5.25 4.20 3.05 0.45 5.15 -0.20 7.20 -2.35 l1.85 -2 5.10 0 c3.35 0 5.25 0.20 5.50 0.60 0.35 0.55 0.35 17.45 0 17.80 -0.10 0.05 -4.60 0.15 -10 0.10 l-9.80 0 -0.05 2.40 c-0.05 1.30 -0.20 4.95 -0.40 8.10 l-0.30 5.75 -7.95 0.15 c-5.60 0.10 -8.15 -0.05 -8.65 -0.45 -0.55 -0.50 -0.70 -2.10 -0.60 -8.15 l0.10 -7.55 -2.95 -0.30 c-1.60 -0.20 -4.90 -0.35 -7.30 -0.40 l-4.40 -0.05 0 -11.25 0 -11.25 -1.10 0 c-0.65 0 -2 -0.25 -3 -0.55 -4.40 -1.20 -4.50 -7.25 -0.25 -9.90 3.10 -1.90 4.20 -1.35 6.50 3.20 2.45 4.85 5 5.95 8.60 3.75 1.70 -1.05 2.60 -2.90 2.30 -4.50 -0.05 -0.40 -0.75 -1.40 -1.55 -2.25 -1.85 -2 -2.50 -3.35 -2.50 -5.25 0 -2.10 0.75 -3.35 2.50 -4.25 2.20 -1.15 3.90 -0.95 5.55 0.70 1.75 1.80 1.80 2.40 0.20 5.55 -3.05 6 -0.40 9.95 6.10 9 5.10 -0.80 7.30 -5.10 5.60 -11.15 -0.65 -2.45 0.30 -4.05 3.20 -5.40 2.70 -1.20 4.45 -1.20 5.60 0.05 0.95 1.05 0.85 2.25 -0.50 6.10 -0.80 2.15 -0.80 2.40 0 4.15 1.90 3.95 7.20 4.40 10.85 0.90 1.75 -1.65 2.15 -4.35 1.35 -8.50 -0.65 -3.20 -0.65 -3.30 0.50 -4.20 1.50 -1.20 3.90 -1.20 5.90 0.05 2.70 1.65 3.15 2.75 3 7.85 -0.10 4.45 -0.05 4.60 1.35 6.10 1.85 1.95 4.25 2.75 7.40 2.45 3 -0.30 5.10 -1.75 5.30 -3.65 0.10 -0.75 -0.40 -2.65 -1.10 -4.25 -1.55 -3.40 -1.60 -4.55 -0.35 -5.70 2.15 -1.95 6.05 -1.30 7.50 1.25 0.65 1.20 0.60 1.50 -0.35 3.40 -2.20 4.15 -0.80 7.40 3.55 8.60 4.15 1.10 7.10 -0.35 8.35 -4.05 0.55 -1.75 0.55 -2.15 -0.45 -4 -1.30 -2.50 -1.35 -3.60 -0.15 -4.65 2.15 -1.95 6.25 -1.45 7.85 0.95 1.45 2.20 0.90 4.85 -1.55 7.85 -2.10 2.50 -1.40 4.20 3.20 7.30 4.30 3 6.45 2.05 8.15 -3.45 0.55 -1.90 1.35 -3.70 1.75 -4.05 1 -0.85 3.15 -0.10 4.80 1.65 1.20 1.25 1.40 1.95 1.40 4.20 0 3.25 -0.95 4.40 -4.25 5.25 l-2.25 0.55 0 10.95 c0 8.15 -0.15 11 -0.60 11.30 -0.35 0.20 -3.45 0.40 -6.90 0.40 l-6.25 0 -0.10 7 c-0.20 10.35 0.85 9.25 -9.20 9.25 -6.30 0 -8.55 -0.15 -8.70 -0.60z m10.75 -21.65 c0.80 -0.45 1.80 -1.45 2.25 -2.25 2.10 -4.10 -0.70 -8.50 -5.55 -8.50 -1.40 0 -2.20 0.40 -3.50 1.70 -4.75 4.75 0.80 12.15 6.80 9.05z m15 -0.60 c2.95 -2.65 2.40 -7.65 -1 -9.40 -4.10 -2.10 -8.50 0.70 -8.50 5.55 0 1.40 0.40 2.20 1.70 3.50 1.45 1.45 2.05 1.70 4 1.70 1.80 0 2.60 -0.30 3.80 -1.35z m-92.80 0.15 c2.20 -0.90 3.30 -2.55 3.30 -4.90 0 -3.80 -2.05 -5.90 -5.90 -5.90 -2.50 0 -4.40 1.45 -5.15 4 -0.75 2.55 0.55 5.35 3.05 6.60 2.10 1.10 2.55 1.10 4.70 0.20z m14.55 -0.10 c1.65 -0.75 3.25 -3.25 3.25 -4.95 0 -1.60 -1.65 -4.30 -3.05 -5 -0.75 -0.40 -2.20 -0.75 -3.15 -0.75 -3.45 0 -6.45 4.20 -5.30 7.30 1.45 3.75 4.70 5.10 8.25 3.40z"/>
  <path d="M94.50 41.50 c-1.20 -1.20 -1.25 -2.40 -0.20 -3.90 0.95 -1.40 2.85 -1.45 4.20 -0.10 1.60 1.60 1.25 3.30 -0.85 4.45 -1.50 0.75 -2 0.70 -3.15 -0.45z"/>
  <path d="M109.10 41.70 c-2.15 -1.50 -1 -5.20 1.65 -5.20 2.65 0 3.80 3.70 1.65 5.20 -0.60 0.45 -1.35 0.80 -1.65 0.80 -0.30 0 -1.05 -0.35 -1.65 -0.80z"/>
  <path d="M17.30 40.70 c-1.70 -1.65 -0.30 -5.20 2 -5.20 1.25 0 2.85 1.85 2.85 3.25 0 2.45 -3.15 3.70 -4.85 1.95z"/>
  <path d="M31.35 40.60 c-1.10 -1.20 -1.05 -2.75 0.05 -3.75 1.90 -1.75 5.10 -0.45 5.10 2 0 2.35 -3.55 3.55 -5.15 1.75z"/>
  <path d="M44.65 32.15 c-1.55 -0.30 -3.15 -2.45 -3.15 -4.25 0 -2.95 4.20 -5.05 6.55 -3.25 3.70 2.85 1.20 8.35 -3.40 7.50z"/>
  <path d="M83.80 31.45 c-1 -0.80 -1.30 -1.45 -1.30 -2.95 0 -1.50 0.30 -2.15 1.30 -2.95 0.75 -0.60 1.85 -1.05 2.45 -1.05 0.60 0 1.70 0.45 2.45 1.05 1 0.80 1.30 1.45 1.30 2.95 0 1.50 -0.30 2.15 -1.30 2.95 -0.75 0.60 -1.85 1.05 -2.45 1.05 -0.60 0 -1.70 -0.45 -2.45 -1.05z"/>
 </g>
</svg>