<?xml version="1.0" encoding="utf-8"?>
<!DOCTYPE svg PUBLIC "-//W3C//DTD SVG 1.0//EN" "http://www.w3.org/TR/2001/REC-SVG-20010904/DTD/svg10.dtd">
<svg version="1.0" xmlns="http://www.w3.org/2000/svg" width="133px" height="125px" viewBox="0 0 133 125" preserveAspectRatio="xMidYMid meet">
 <g fill="#000000">
  <path d="M55.35 122.25 c-5.50 -1.45 -11.70 -4.10 -17.05 -7.25 -4.85 -2.90 -10.85 -8.85 -13.60 -13.65 l-1.85 -3.25 -3.95 -0.20 c-7.15 -0.40 -13.85 -4.90 -16.75 -11.20 -1.15 -2.55 -1.25 -3.20 -1.05 -8.60 0.15 -5.70 0.20 -5.95 2.05 -9.25 4.45 -7.90 8.35 -10.20 19.30 -11.30 5.95 -0.65 8.60 -1.90 10.35 -4.90 2.35 -3.95 2.10 -8.40 -0.65 -11.65 -1.10 -1.35 -1.50 -1.50 -4.30 -1.50 -3.65 0 -6.40 -1.15 -8.60 -3.45 -1.95 -2.10 -2.10 -5.20 -0.30 -7.60 0.95 -1.30 1.10 -1.75 0.60 -2.40 -2.15 -3.05 -2 -6.80 0.50 -9.35 0.90 -0.95 1.80 -1.70 2 -1.70 0.20 0 0.95 -0.20 1.65 -0.50 1.25 -0.45 1.25 -0.45 0.45 -2.45 -2.15 -5.45 3.20 -11.30 8.80 -9.60 3.80 1.10 6.30 5.60 5.10 9.10 -0.30 0.85 -0.40 1.75 -0.25 2 0.15 0.25 5.35 0.45 11.55 0.45 l11.25 0 -0.35 -1.15 c-0.60 -1.85 -0.85 -4.80 -0.55 -6.10 0.55 -2.10 3.20 -4.70 5.45 -5.30 2.75 -0.75 5.15 0 7.30 2.25 1.40 1.45 1.75 2.25 1.95 4.45 0.15 1.85 -0.05 3.15 -0.60 4.25 l-0.80 1.55 2.15 0.30 c1.15 0.15 6.40 0.25 11.60 0.15 8.15 -0.15 9.45 -0.25 9.30 -0.90 -0.10 -0.40 -0.20 -1.80 -0.20 -3.15 -0.05 -2.65 1 -4.40 3.65 -6.25 5.60 -3.80 13 2.65 10.35 9 l-0.75 1.85 2.30 1.15 c4.15 2.05 5.75 7.35 3.10 10.15 -1 1.10 -1.10 1.45 -0.60 2.15 2.55 3.50 2.55 6.50 -0.05 9 -2.25 2.20 -4.80 3.10 -8.60 3.10 l-3.25 0 -1.50 2.35 c-1.90 2.95 -2.30 5.10 -1.45 8 1.25 4.60 5.65 7.65 10.95 7.65 2.25 0 8.85 1.65 11.40 2.85 2.70 1.30 5.65 4.55 7.90 8.75 1.80 3.45 1.95 3.95 2.10 8.90 0.15 4.45 0.05 5.70 -0.90 8.10 -1.45 3.95 -4.70 7.35 -9.10 9.70 -3.25 1.70 -4.15 1.90 -7.95 2.10 l-4.35 0.20 -2.25 3.60 c-5.75 9.10 -16.20 15.95 -29.85 19.55 -6.55 1.70 -15.20 1.75 -21.65 0z m15.15 -3.25 c6.15 -0.80 9.55 -1.80 15.75 -4.75 6.10 -2.90 9.75 -5.55 13.70 -9.95 4.65 -5.15 6.15 -8.15 5.25 -10.50 -0.45 -1.20 -1.10 -1 -3.90 1.35 -6.45 5.45 -12.05 8.80 -18.65 11.05 -11.75 4.10 -17.25 4.65 -24.65 2.60 -5.40 -1.50 -13.10 -4.45 -16 -6.15 -3.10 -1.80 -10.45 -7.25 -12.20 -9.10 -1.65 -1.70 -2.55 -1.95 -3 -0.75 -0.90 2.30 0.30 4.90 4.65 10.25 6.30 7.65 16.10 13.25 27.05 15.40 1.50 0.30 3.20 0.65 3.75 0.75 1.85 0.35 4 0.30 8.25 -0.20z m0.30 -14.05 c9.40 -0.90 17.80 -3.55 23.55 -7.50 4.40 -3 6.65 -5.10 6.65 -6.25 0 -1.45 -0.85 -1.70 -5.45 -1.70 -3.25 0 -4.75 0.35 -10.25 2.25 -15.05 5.30 -25.85 4.90 -41.45 -1.60 -2.50 -1 -3.55 -1.15 -7.75 -1.05 -4.50 0.15 -4.85 0.20 -5 1.20 -0.25 1.60 6.25 6.85 12.15 9.85 3.50 1.75 10.30 3.75 15.55 4.55 5.70 0.90 5.55 0.90 12 0.25z m49.15 -10.20 c5.70 -3 9 -7.50 9.45 -13 0.50 -6.35 -2.05 -12.85 -6.75 -17.30 -3.65 -3.45 -4.10 -2.40 -0.60 1.45 3.40 3.70 4.55 6.40 4.85 11.20 0.20 3.20 0 4.45 -0.95 7 -2.05 5.60 -9.35 11.40 -14.35 11.40 -2 0 -2.55 0.40 -1.70 1.20 0.20 0.25 1.75 0.30 3.40 0.15 2.25 -0.15 4 -0.70 6.65 -2.10z m-97.65 0.70 c0.50 -0.85 -0.80 -1.45 -3.10 -1.45 -1.50 0 -2.80 -0.50 -5 -1.90 -6.40 -4.15 -8.90 -8.85 -8.60 -16.10 0.20 -5.25 1.30 -7.70 5.15 -11.65 2.95 -3 3.15 -3.35 2 -3.35 -1.35 0 -6.10 5.35 -7.75 8.70 -1.40 2.80 -1.70 4 -1.90 8 -0.20 4.25 -0.10 4.95 1.05 7.45 2.75 6 9.65 10.60 16.20 10.80 0.85 0.05 1.75 -0.20 1.95 -0.50z m92.60 -2.60 c0.85 -0.65 0.75 -2.85 -0.25 -3.95 -1.80 -2 -4.80 -0.50 -4.55 2.30 0.25 2.40 2.70 3.25 4.80 1.65z m-93.40 -1.10 c0.35 -0.40 0.65 -1.30 0.65 -2 0 -1.70 -1 -2.75 -2.70 -2.75 -2.60 0 -3.85 2.65 -2.10 4.60 1 1.10 3.30 1.20 4.15 0.15z m60.50 -1 c9.70 -3.10 15.70 -6.50 20.90 -11.90 3.60 -3.75 5.10 -6.85 5.45 -11.20 0.45 -5 0.10 -5.20 -3.25 -2.05 -6.40 6.10 -12.60 9.70 -23.40 13.60 -7.65 2.75 -11.25 3.40 -16.70 3.20 -5.75 -0.25 -12.35 -2.35 -21.90 -6.90 -6.50 -3.15 -10.60 -5.95 -15.25 -10.60 -1.60 -1.60 -3.15 -2.75 -3.45 -2.60 -0.80 0.50 -0.15 6.60 1.10 9.85 1.30 3.45 7.15 9.65 11.80 12.45 4 2.45 13.25 6.20 16.95 6.85 1.65 0.30 3.55 0.65 4.25 0.75 0.70 0.15 5.30 0.15 10.25 0.05 8.20 -0.10 9.40 -0.25 13.25 -1.50z m38.40 -1.85 c0.55 -0.65 1.75 -2.70 2.65 -4.55 1.45 -3.15 1.55 -3.70 1.35 -7.50 -0.30 -5.65 -1.65 -8.55 -5.70 -12.35 -3.15 -2.90 -6.15 -4.25 -7.20 -3.20 -0.25 0.25 -0.25 4.45 0 9.45 0.25 4.95 0.30 10.35 0.15 12.05 l-0.30 3 2 0.60 c1.05 0.30 2.60 1.25 3.40 2.10 1.70 1.80 2.25 1.85 3.65 0.40z m-105.25 -1.35 c0.75 -0.80 2.25 -1.75 3.35 -2.15 l2 -0.65 0.25 -8.95 c0.15 -4.95 0.50 -10.30 0.75 -11.90 0.30 -1.60 0.40 -3.15 0.25 -3.40 -0.40 -0.65 -2.35 -0.65 -4.10 0.05 -2 0.75 -6.55 5.30 -7.90 8 -1.40 2.75 -2.40 8.10 -1.90 10.50 0.60 3.30 4.40 9.95 5.60 9.95 0.15 0 0.90 -0.65 1.70 -1.45z m57.20 -9.55 c3.80 -0.40 5.55 -0.95 16.20 -5.10 5.15 -1.95 9.55 -4.60 12.90 -7.70 3.10 -2.90 3.15 -3.60 0.15 -5.15 -2.20 -1.10 -4.70 -4.05 -5.85 -6.75 -0.40 -0.95 -0.75 -3.20 -0.75 -4.90 0 -2.55 0.30 -3.65 1.50 -5.75 0.80 -1.40 2.25 -3.15 3.15 -3.85 1.45 -1.10 2.20 -1.30 5.25 -1.30 5.80 0 9.15 -2.35 7.55 -5.30 -0.35 -0.75 -1.15 -1.50 -1.70 -1.70 -1.65 -0.65 -11.25 -0.60 -12 0 -1.15 0.95 -1.75 0.10 -1.75 -2.50 0 -2.50 0.65 -3.55 1.65 -2.55 0.35 0.35 2.85 0.55 6.65 0.55 5.80 0 6.20 -0.05 6.90 -1.10 1.10 -1.55 1 -4.20 -0.20 -5.40 -0.95 -0.95 -1.65 -1 -21.50 -1 l-20.50 0 -0.10 8.75 c-0.05 4.80 -0.10 9.15 -0.10 9.65 -0.05 0.75 0.60 0.85 5.40 1 l5.50 0.15 2.60 -1.80 c1.45 -1 3.45 -3.05 4.50 -4.55 1.05 -1.50 2.10 -2.65 2.40 -2.55 1.05 0.35 0.90 23.35 -0.15 23.35 -0.20 0 -1.25 -1.25 -2.30 -2.75 -1.05 -1.55 -3.10 -3.90 -4.65 -5.30 l-2.70 -2.50 -5.35 0.15 -5.30 0.15 -0.15 3.75 c-0.15 3.70 -0.10 3.80 1.70 5.90 1 1.20 3.60 3.50 5.75 5.15 2.20 1.65 3.95 3.20 3.95 3.50 0 0.30 -5.35 0.40 -14.35 0.35 -12.15 -0.15 -14.40 -0.25 -14.40 -0.85 0 -0.40 1.70 -1.95 3.75 -3.40 2.05 -1.45 4.60 -3.50 5.65 -4.60 1.80 -2 1.85 -2.05 1.85 -6.05 l0 -4 -5.45 0 -5.40 0 -2.45 2 c-1.35 1.15 -3.45 3.35 -4.70 5 -1.25 1.65 -2.40 2.95 -2.65 3 -0.65 0 -0.20 -23.15 0.50 -23.35 0.30 -0.10 1.35 1 2.30 2.50 0.95 1.45 2.95 3.55 4.40 4.65 2.65 1.95 2.70 1.95 8.05 2.10 l5.35 0.20 0.15 -9.45 c0.10 -5.15 0 -9.60 -0.15 -9.80 -0.20 -0.25 -9.40 -0.65 -20.45 -0.95 l-20.15 -0.60 -1.15 1.40 c-1.45 1.65 -1.50 3.25 -0.15 5 1 1.30 1.15 1.30 7.15 1.30 4 0 6.30 -0.20 6.70 -0.60 0.80 -0.80 1.20 0.40 1 3.15 -0.15 1.85 -0.30 2.20 -1.15 2.10 -0.55 -0.05 -3.60 -0.25 -6.80 -0.45 l-5.75 -0.35 -1.10 1.40 c-1.40 1.75 -1.40 2.80 0.05 4.10 1.90 1.75 3.15 2.15 6.80 2.15 3.05 0 3.65 0.15 5.10 1.35 0.90 0.75 2.25 2.40 3.05 3.60 1.20 1.95 1.40 2.75 1.40 5.90 0 5.45 -2.25 9.35 -7.05 12 -1.35 0.80 -2.45 1.60 -2.45 1.90 0 0.25 1.45 1.85 3.20 3.55 3.60 3.45 10.40 7.10 20.05 10.75 7.50 2.85 12.35 3.40 20.60 2.45z m33.20 -63.50 c1.40 -0.80 2.55 -3.35 2.20 -4.95 -0.35 -1.70 -2.05 -3.35 -3.80 -3.80 -1.55 -0.40 -4.15 0.80 -4.95 2.20 -0.70 1.35 -0.65 4.20 0.15 5.15 1.40 1.80 4.40 2.45 6.40 1.40z m-72.80 -0.70 c1.95 -0.85 2.75 -2.10 2.75 -4.40 0 -2.10 -1 -3.60 -3 -4.40 -2.90 -1.20 -6 1.10 -6 4.40 0 2.25 0.80 3.55 2.65 4.35 2 0.90 1.60 0.85 3.60 0.05z m37.90 -1.80 c1.50 -1.70 1.70 -3.35 0.60 -5.50 -0.90 -1.70 -2.15 -2.50 -3.95 -2.50 -4.25 0 -6.75 4.55 -4.25 7.70 2.15 2.70 5.25 2.85 7.60 0.30z"/>
 </g>
 <g fill="#ffffff">
  <path d="M0 62.50 l0 -62.50 66.50 0 66.50 0 0 62.50 0 62.50 -66.50 0 -66.50 0 0 -62.50z m77 59.75 c13.65 -3.60 24.10 -10.45 29.85 -19.55 l2.25 -3.60 4.35 -0.20 c3.80 -0.20 4.70 -0.40 7.95 -2.10 4.40 -2.35 7.65 -5.75 9.10 -9.70 0.95 -2.40 1.05 -3.65 0.90 -8.10 -0.15 -4.95 -0.30 -5.45 -2.10 -8.90 -2.25 -4.20 -5.20 -7.45 -7.90 -8.75 -2.55 -1.20 -9.15 -2.85 -11.40 -2.85 -5.30 0 -9.70 -3.05 -10.95 -7.65 -0.85 -2.90 -0.45 -5.05 1.45 -8 l1.50 -2.35 3.25 0 c3.80 0 6.35 -0.90 8.60 -3.10 2.60 -2.50 2.60 -5.50 0.05 -9 -0.50 -0.70 -0.40 -1.05 0.60 -2.15 2.65 -2.80 1.05 -8.10 -3.10 -10.15 l-2.30 -1.15 0.75 -1.85 c2.65 -6.35 -4.75 -12.80 -10.35 -9 -2.65 1.85 -3.70 3.60 -3.65 6.25 0 1.35 0.10 2.75 0.20 3.15 0.15 0.65 -1.15 0.75 -9.30 0.90 -5.20 0.10 -10.45 0 -11.60 -0.15 l-2.15 -0.30 0.80 -1.55 c0.55 -1.10 0.75 -2.40 0.60 -4.25 -0.20 -2.20 -0.55 -3 -1.95 -4.45 -2.15 -2.25 -4.55 -3 -7.30 -2.25 -2.25 0.60 -4.90 3.20 -5.45 5.30 -0.30 1.30 -0.05 4.25 0.55 6.10 l0.35 1.15 -11.25 0 c-6.20 0 -11.40 -0.20 -11.55 -0.45 -0.15 -0.25 -0.05 -1.15 0.25 -2 0.80 -2.20 0.15 -4.75 -1.60 -6.80 -3.05 -3.45 -7.85 -3.45 -10.90 0 -1.95 2.25 -2.40 4.70 -1.40 7.30 0.80 2 0.80 2 -0.45 2.45 -0.70 0.30 -1.45 0.50 -1.65 0.50 -0.20 0 -1.10 0.75 -2 1.70 -2.50 2.55 -2.65 6.30 -0.50 9.35 0.50 0.65 0.35 1.10 -0.60 2.40 -3.70 5 1.10 11 8.90 11.05 2.80 0 3.20 0.15 4.30 1.50 2.75 3.25 3 7.70 0.65 11.65 -1.75 3 -4.40 4.25 -10.35 4.90 -10.95 1.10 -14.85 3.40 -19.30 11.30 -1.85 3.30 -1.90 3.55 -2.05 9.25 -0.20 5.40 -0.10 6.05 1.05 8.60 1.80 3.95 4.75 6.85 9.10 9.05 3.15 1.60 4.35 1.95 7.65 2.15 l3.95 0.20 1.85 3.25 c2.75 4.80 8.75 10.75 13.60 13.65 5.35 3.15 11.55 5.80 17.05 7.25 6.45 1.75 15.10 1.70 21.65 0z"/>
  <path d="M62.25 119.20 c-0.55 -0.10 -2.25 -0.45 -3.75 -0.75 -4.85 -0.95 -8.95 -2.40 -13.55 -4.75 -5.85 -3.05 -9.80 -6.10 -13.50 -10.65 -4.35 -5.35 -5.55 -7.95 -4.65 -10.25 0.45 -1.20 1.35 -0.95 3 0.75 1.75 1.85 9.10 7.30 12.20 9.10 2.90 1.70 10.60 4.65 16 6.15 7.40 2.05 12.90 1.50 24.65 -2.60 6.60 -2.25 12.20 -5.60 18.65 -11.05 1.40 -1.20 2.80 -2.15 3.10 -2.15 0.60 0 1.10 1.20 1.10 2.70 0 2.40 -5.80 9.65 -10.95 13.75 -3.25 2.55 -12.50 7.10 -16.80 8.20 -5.10 1.35 -12.65 2.10 -15.50 1.55z"/>
  <path d="M58.80 104.70 c-5.25 -0.80 -12.05 -2.80 -15.55 -4.55 -5.90 -3 -12.40 -8.25 -12.15 -9.85 0.15 -1 0.50 -1.05 5 -1.20 4.20 -0.10 5.25 0.05 7.75 1.05 8.35 3.50 16.35 5.35 22.90 5.35 5.05 0 11.85 -1.40 18.55 -3.75 5.50 -1.90 7 -2.25 10.25 -2.25 4.60 0 5.45 0.25 5.45 1.70 0 1.15 -2.25 3.25 -6.65 6.25 -5.75 3.95 -14.15 6.60 -23.55 7.50 -6.45 0.65 -6.30 0.65 -12 -0.25z"/>
  <path d="M109.90 96.70 c-0.85 -0.80 -0.30 -1.20 1.70 -1.20 5 0 12.30 -5.80 14.35 -11.40 0.95 -2.55 1.15 -3.80 0.95 -7 -0.30 -4.80 -1.45 -7.50 -4.85 -11.20 -3.50 -3.85 -3.05 -4.90 0.60 -1.45 6.15 5.80 8.65 16.10 5.45 22.30 -2.75 5.40 -9 9.65 -14.80 10.10 -1.65 0.15 -3.20 0.10 -3.40 -0.15z"/>
  <path d="M16.85 95.45 c-5.25 -1.25 -10.50 -5.50 -12.70 -10.30 -1.15 -2.50 -1.25 -3.20 -1.05 -7.45 0.20 -4 0.50 -5.20 1.90 -8 1.65 -3.35 6.40 -8.70 7.75 -8.70 1.15 0 0.95 0.35 -2 3.35 -3.85 3.95 -4.95 6.40 -5.15 11.65 -0.30 7.25 2.20 11.95 8.60 16.10 2.20 1.40 3.50 1.90 5 1.90 2.30 0 3.60 0.60 3.10 1.45 -0.40 0.65 -2.75 0.65 -5.45 0z"/>
  <path d="M111.45 93.30 c-1.50 -0.70 -1.90 -3.30 -0.70 -4.50 1.80 -1.75 4.75 -0.35 4.75 2.30 0 2.05 -2.10 3.20 -4.05 2.20z"/>
  <path d="M17.35 91.60 c-1.75 -1.95 -0.50 -4.60 2.10 -4.60 1.70 0 2.70 1.05 2.70 2.75 0 0.70 -0.30 1.60 -0.65 2 -0.85 1.05 -3.15 0.95 -4.15 -0.15z"/>
  <path d="M58.50 92.20 c-0.70 -0.10 -2.60 -0.45 -4.25 -0.75 -3.70 -0.65 -12.95 -4.40 -16.95 -6.85 -4.65 -2.80 -10.50 -9 -11.80 -12.45 -1.25 -3.25 -1.90 -9.35 -1.10 -9.85 0.30 -0.15 1.85 1 3.45 2.60 4.65 4.65 8.75 7.45 15.25 10.60 16.95 8.10 24.35 8.80 38.60 3.70 10.80 -3.90 17 -7.50 23.40 -13.60 3.35 -3.15 3.70 -2.95 3.25 2.05 -0.35 4.35 -1.85 7.45 -5.45 11.20 -5.20 5.40 -11.20 8.80 -20.90 11.90 -3.85 1.25 -5.05 1.40 -13.25 1.50 -4.95 0.10 -9.55 0.10 -10.25 -0.05z"/>
  <path d="M116.75 88.50 c-0.80 -0.85 -2.35 -1.80 -3.40 -2.10 l-2 -0.60 0.30 -3 c0.15 -1.70 0.10 -7.10 -0.15 -12.05 -0.25 -5 -0.25 -9.20 0 -9.45 1.05 -1.05 4.05 0.30 7.20 3.20 4.05 3.80 5.40 6.70 5.70 12.35 0.20 3.80 0.10 4.35 -1.35 7.50 -1.65 3.50 -3.30 5.65 -4.30 5.65 -0.30 0 -1.20 -0.70 -2 -1.50z"/>
  <path d="M12.10 87.85 c-1.35 -1.45 -3.85 -6.55 -4.25 -8.80 -0.50 -2.40 0.50 -7.75 1.90 -10.50 1.35 -2.70 5.90 -7.25 7.90 -8 1.75 -0.70 3.70 -0.70 4.10 -0.05 0.15 0.25 0.05 1.80 -0.25 3.40 -0.25 1.60 -0.60 6.95 -0.75 11.90 l-0.25 8.95 -2 0.65 c-1.10 0.40 -2.60 1.35 -3.35 2.15 -0.80 0.80 -1.55 1.45 -1.70 1.45 -0.15 0 -0.75 -0.50 -1.35 -1.15z"/>
  <path d="M60 78 c-3.50 -0.45 -12.10 -3.70 -19.40 -7.30 -4.25 -2.10 -6.45 -3.55 -8.90 -5.90 -1.75 -1.70 -3.20 -3.30 -3.20 -3.55 0 -0.30 1.10 -1.10 2.45 -1.90 4.80 -2.65 7.05 -6.55 7.05 -12 0 -3.15 -0.20 -3.95 -1.40 -5.90 -0.80 -1.20 -2.15 -2.85 -3.05 -3.60 -1.45 -1.20 -2.05 -1.35 -5.10 -1.35 -3.65 0 -4.90 -0.40 -6.80 -2.15 -1.45 -1.30 -1.45 -2.35 -0.05 -4.10 l1.10 -1.40 5.75 0.35 c3.20 0.20 6.25 0.40 6.80 0.45 0.85 0.10 1 -0.25 1.15 -2.10 0.20 -2.75 -0.20 -3.95 -1 -3.15 -0.40 0.40 -2.70 0.60 -6.70 0.60 -6 0 -6.15 0 -7.15 -1.30 -1.35 -1.75 -1.30 -3.35 0.15 -5 l1.15 -1.40 20.15 0.60 c11.05 0.30 20.25 0.70 20.45 0.95 0.15 0.20 0.25 4.65 0.15 9.80 l-0.15 9.45 -5.35 -0.20 c-5.35 -0.15 -5.40 -0.15 -8.05 -2.10 -1.45 -1.10 -3.45 -3.20 -4.40 -4.65 -0.95 -1.50 -2 -2.60 -2.30 -2.50 -0.70 0.20 -1.15 23.35 -0.50 23.35 0.25 -0.05 1.40 -1.35 2.65 -3 1.25 -1.65 3.35 -3.85 4.70 -5 l2.45 -2 5.40 0 5.45 0 0 4 c0 4 -0.05 4.05 -1.85 6.05 -1.05 1.10 -3.60 3.15 -5.65 4.60 -2.05 1.45 -3.75 3 -3.75 3.40 0 0.60 2.25 0.70 14.40 0.85 9 0.05 14.35 -0.05 14.35 -0.35 0 -0.30 -1.75 -1.85 -3.95 -3.50 -2.15 -1.65 -4.75 -3.95 -5.75 -5.15 -1.80 -2.10 -1.85 -2.20 -1.70 -5.90 l0.15 -3.75 5.30 -0.15 5.35 -0.15 2.70 2.50 c1.55 1.40 3.60 3.75 4.65 5.30 1.05 1.50 2.10 2.75 2.30 2.75 1.05 0 1.20 -23 0.15 -23.35 -0.30 -0.10 -1.35 1.05 -2.40 2.55 -1.05 1.50 -3.05 3.55 -4.50 4.55 l-2.60 1.80 -5.50 -0.15 c-4.80 -0.15 -5.45 -0.25 -5.40 -1 0 -0.50 0.05 -4.85 0.10 -9.65 l0.10 -8.75 20.50 0 c19.85 0 20.55 0.05 21.50 1 1.20 1.20 1.30 3.85 0.20 5.40 -0.70 1.05 -1.10 1.10 -6.90 1.10 -3.80 0 -6.30 -0.20 -6.65 -0.55 -1 -1 -1.65 0.05 -1.65 2.55 0 2.60 0.60 3.45 1.75 2.50 0.75 -0.60 10.35 -0.65 12 0 0.55 0.20 1.35 0.95 1.70 1.70 1.60 2.95 -1.75 5.30 -7.55 5.30 -3.05 0 -3.80 0.20 -5.25 1.30 -0.90 0.70 -2.35 2.45 -3.15 3.85 -2.60 4.50 -2 9.95 1.55 14.40 0.85 1.10 2.45 2.45 3.55 3 1.05 0.55 2.10 1.35 2.25 1.80 0.40 1.10 -4.10 5.25 -8.30 7.75 -3 1.75 -4.85 2.50 -14.95 6.35 -5.95 2.30 -13.45 3 -20.60 2.05z"/>
  <path d="M100.75 14.40 c-1.60 -0.85 -2.25 -1.95 -2.25 -3.80 0 -2.20 0.70 -3.40 2.55 -4.40 3.95 -2 8.25 2.35 6.25 6.25 -0.45 0.85 -1.25 1.75 -1.75 2.05 -1.25 0.65 -3.55 0.60 -4.80 -0.10z"/>
  <path d="M29.15 13.75 c-1.85 -0.80 -2.65 -2.10 -2.65 -4.35 0 -2.10 1 -3.60 3 -4.40 2.90 -1.20 6 1.10 6 4.40 0 2.30 -0.80 3.55 -2.75 4.40 -2 0.80 -1.60 0.85 -3.60 -0.05z"/>
  <path d="M65.20 13.55 c-1.50 -0.65 -3.20 -2.95 -3.20 -4.40 0 -3.75 4.30 -6.35 7.55 -4.65 1.20 0.65 2.45 3.05 2.45 4.70 0 2.80 -4.15 5.45 -6.80 4.35z"/>
 </g>
</svg>