<?xml version="1.0" encoding="utf-8"?>
<!DOCTYPE svg PUBLIC "-//W3C//DTD SVG 1.0//EN" "http://www.w3.org/TR/2001/REC-SVG-20010904/DTD/svg10.dtd">
<svg version="1.0" xmlns="http://www.w3.org/2000/svg" width="150px" height="142px" viewBox="0 0 150 142" preserveAspectRatio="xMidYMid meet">
 <g fill="#000000">
  <path d="M88.25 141.20 c-2.25 -0.80 -4.05 -2.35 -5.05 -4.30 -0.90 -1.75 -0.90 -6.05 0.05 -7.90 0.75 -1.45 3.25 -3.60 4.90 -4.15 0.70 -0.25 0.85 -0.90 0.85 -3.35 0 -1.70 -0.20 -3 -0.50 -3 -0.30 0 -1.35 0.55 -2.40 1.25 -6.30 4.15 -16.95 4.15 -23.15 -0.05 -1.40 -0.95 -2.75 -1.70 -3 -1.70 -0.25 0 -0.45 1.35 -0.45 3 0 2.75 0.10 3.05 1.45 3.70 2.10 1.10 4.45 4.05 4.85 6.05 1.05 5.65 -2.60 10.25 -8.15 10.25 -1.50 0 -3.55 -0.35 -4.50 -0.85 -1.95 -0.90 -3.90 -3.55 -4.40 -6 -0.70 -3.45 1.55 -7.75 5 -9.35 l1.75 -0.85 0 -4.70 c0 -2.60 -0.10 -4.75 -0.20 -4.75 -0.10 0 -1.35 0.80 -2.80 1.75 -3.45 2.35 -5.90 2.90 -11 2.65 -6.70 -0.40 -10.65 -2.85 -13.10 -8.15 -1.15 -2.45 -1.15 -2.80 -1.15 -20.25 l0 -17.75 -3 0 -3 0 -0.15 1.75 c-0.35 4.10 -2.20 6 -6 6 l-1.95 0 -0.30 4.15 c-0.20 2.25 -0.35 9.40 -0.35 15.85 l0 11.75 1.85 1 c4.95 2.65 6.10 9.10 2.30 13.30 -3.95 4.35 -11.05 3.50 -13.70 -1.70 -1.30 -2.55 -1.10 -6.70 0.40 -8.75 0.85 -1.20 3.45 -3.25 4.60 -3.70 0.25 -0.10 0.50 -7.25 0.60 -15.90 l0.20 -15.75 -2.25 -0.25 c-2.60 -0.35 -4.30 -1.15 -4.90 -2.40 -0.95 -1.80 -1.05 -4.20 -0.35 -6.20 0.45 -1.40 0.55 -2.35 0.20 -2.95 -0.70 -1.40 -0.55 -5.35 0.35 -6.70 0.85 -1.35 3.10 -2.25 5.45 -2.25 l1.60 0 0.35 -4.60 c0.15 -2.50 0.30 -9.60 0.30 -15.75 l0 -11.15 -2.70 0 c-2.35 0 -2.85 -0.20 -3.75 -1.30 -1.50 -1.90 -1.30 -2.60 0.85 -3.15 1 -0.30 2.30 -0.85 2.85 -1.25 1.65 -1.15 3.15 -4.75 3.70 -9.05 0.30 -2.20 0.75 -4.15 1 -4.40 0.85 -0.85 1.45 0.15 1.80 2.95 0.85 6.85 2.85 10.25 6.65 11.30 2.80 0.80 3.15 1.75 1.25 3.60 -1.30 1.35 -1.60 1.40 -4.45 1.15 l-3.05 -0.30 -0.40 15.80 c-0.35 16.65 -0.35 17.05 1.85 16.35 1.05 -0.30 3.90 0.85 4.90 2.05 0.40 0.50 0.85 2.05 1 3.45 l0.25 2.55 3.05 0.15 3.05 0.15 0.30 -14.15 c0.35 -15.95 0.60 -17.35 3.85 -21.05 2.95 -3.35 6.15 -4.55 12 -4.60 5.25 0 8.40 1.05 11.10 3.60 0.75 0.75 1.50 1.25 1.60 1.10 0.10 -0.10 0.35 -3.30 0.55 -7.10 l0.40 -6.85 -2.45 0 c-2.40 0 -2.60 0.15 -5.70 3.25 -1.75 1.75 -3.35 3.10 -3.60 2.95 -0.55 -0.35 -0.50 -17.25 0.05 -18.15 0.70 -1.05 2.40 0.20 4.55 3.40 1.70 2.45 1.85 2.55 4.15 2.55 2.75 0 2.95 -0.50 1.30 -3.85 -0.70 -1.40 -2.05 -2.85 -3.95 -4.25 -2.05 -1.50 -2.95 -2.50 -2.95 -3.25 l-0.05 -1.15 10.70 0 c5.90 0 10.85 0.20 11 0.45 0.55 0.85 -0.30 2 -3 4.05 -2.60 2.05 -5.70 6 -5.70 7.35 0 0.45 0.75 0.65 2.40 0.65 2.50 0 4.75 -1.05 7.20 -3.40 2.30 -2.15 2.55 -1.30 2.10 7.80 -0.20 4.05 -0.50 6.60 -0.85 6.60 -0.25 0 -1.70 -1.10 -3.15 -2.50 -2.50 -2.40 -2.75 -2.50 -5.40 -2.50 l-2.80 0 -0.05 4.15 c-0.10 6.50 0 6.95 1.40 5.75 3.30 -2.90 10.80 -4.45 16.70 -3.45 4.05 0.65 7.60 2.05 9.30 3.65 0.65 0.60 1.25 1 1.35 0.85 0.40 -0.45 0.65 -10 0.25 -10.25 -0.20 -0.10 -1.65 -0.25 -3.20 -0.30 -2.75 -0.10 -2.85 0 -5.40 2.50 -1.45 1.45 -2.80 2.45 -3 2.30 -0.40 -0.40 -0.50 -15.70 -0.10 -15.70 0.15 0 1.75 1.15 3.55 2.50 2.75 2.10 3.60 2.50 5.45 2.50 1.20 0 2.30 -0.15 2.45 -0.40 0.55 -0.95 -1.55 -4.10 -4.95 -7.35 -3.75 -3.55 -4.30 -4.45 -3.10 -4.85 0.30 -0.15 5.25 -0.15 11 0 10.25 0.20 10.35 0.25 10.35 1.35 0 0.75 -0.80 1.65 -2.75 3 -2.85 1.95 -5.25 5.20 -5.25 7.15 0 0.95 0.30 1.10 2.25 1.10 2.10 0 2.30 -0.15 4.30 -2.75 1.90 -2.50 3.60 -3.75 4.30 -3.05 0.35 0.35 0.20 17.35 -0.20 17.95 -0.15 0.25 -1.80 -1.05 -3.65 -2.90 -3.20 -3.20 -3.40 -3.30 -5.55 -3.15 l-2.20 0.15 -0.15 6.90 c-0.10 3.75 -0.05 6.85 0.15 6.85 0.15 0 1.05 -0.55 1.90 -1.20 3.25 -2.50 5.80 -3.30 10.45 -3.30 7.40 0 11.70 2.25 14.35 7.55 l1.55 3.10 0 14.65 0 14.70 1.20 0.30 c0.65 0.15 1.90 0.20 2.85 0.10 1.60 -0.15 1.70 -0.25 2.20 -2.75 0.70 -3.60 2.35 -5.20 5.65 -5.55 l2.50 -0.20 0.35 -15.15 c0.20 -8.35 0.25 -15.45 0.15 -15.80 -0.15 -0.45 -1.20 -0.70 -3.25 -0.70 -2.55 0 -3.30 -0.20 -4.35 -1.20 -1.80 -1.70 -1.70 -2.90 0.35 -3.30 4.30 -0.95 6.40 -3.70 7.60 -10 0.40 -2.10 0.90 -4.05 1.05 -4.30 0.70 -1.15 1.60 0.80 1.90 4.15 0.55 6.10 2.75 9.75 6.45 10.65 1.85 0.50 2.05 0.95 1.15 2.70 -0.95 1.75 -2.20 2.25 -4.80 1.80 l-1.90 -0.30 -0.35 3.65 c-0.15 2 -0.25 9.15 -0.15 15.90 l0.15 12.25 2.70 0.25 c2.15 0.25 2.90 0.60 3.90 1.70 1.10 1.30 1.20 1.75 0.95 4.25 -0.40 3.60 -0.40 4.80 0 7.60 0.55 4.20 -1.50 6.45 -5.80 6.45 -1.05 0 -2.05 0.20 -2.20 0.40 -0.15 0.25 -0.30 7.35 -0.35 15.85 l-0.05 15.45 1.90 1.30 c3 2 4.20 4.15 4.20 7.45 0 9.20 -11.85 11.70 -16.05 3.40 -2.05 -3.95 -0.15 -9.20 4 -11.05 l2.05 -0.95 0.10 -15.20 c0 -8.30 0.05 -15.45 0.10 -15.75 0.05 -0.40 -0.85 -0.75 -2.20 -0.90 -1.25 -0.15 -2.80 -0.60 -3.40 -0.95 -1.35 -0.75 -2.60 -3.35 -2.60 -5.50 0 -1.40 -0.10 -1.45 -2.55 -1.65 -1.40 -0.05 -2.80 0 -3.10 0.20 -0.45 0.25 -0.65 5.35 -0.85 17.50 l-0.25 17.20 -1.65 3.35 c-2.75 5.55 -6.35 7.50 -13.85 7.50 -5 0 -8.65 -1.15 -10.80 -3.45 -2.05 -2.20 -2.45 -1.65 -2.45 3.55 l0 4.70 1.80 0.85 c4.90 2.35 6.30 9.30 2.65 13.45 -1.40 1.55 -2.30 2 -6.45 3 -0.40 0.10 -1.65 -0.15 -2.75 -0.55z m-29.05 -3.90 c3.70 -1.55 4.40 -5.30 1.60 -8.10 -1.95 -1.95 -4.25 -2.25 -6.25 -0.90 -1.40 1 -2.65 3.80 -2.25 5.05 0.70 2.20 1.55 3.35 2.95 3.95 1.90 0.85 1.95 0.85 3.95 0z m35.35 -0.75 c3.20 -3.25 1 -8.55 -3.55 -8.55 -1.65 0 -2.40 0.30 -3.55 1.45 -3.20 3.25 -1 8.55 3.55 8.55 1.65 0 2.40 -0.30 3.55 -1.45z m46.60 -10.05 c1.55 -1.25 2.50 -4.10 1.85 -5.75 -0.65 -1.75 -2.90 -3.25 -4.85 -3.25 -2.25 0 -3.45 0.70 -4.45 2.60 -2.35 4.60 3.40 9.55 7.45 6.40z m-128.20 -1.20 c3.65 -1.90 3.30 -7.40 -0.65 -9.05 -2.10 -0.90 -4.05 -0.40 -5.55 1.35 -3.65 4.30 1.15 10.30 6.20 7.70z m70.65 -7.95 c1.55 -0.75 3.35 -2.10 4.05 -3 1.15 -1.50 1.25 -2.15 1.45 -7.70 0.05 -3.35 0 -6.20 -0.15 -6.35 -0.15 -0.15 -6.75 -0.45 -14.60 -0.65 l-14.35 -0.30 -0.10 4.70 c-0.20 8.75 -0.10 9.15 3.25 11.95 2.75 2.25 6 3 12.10 2.90 4.85 -0.15 5.85 -0.30 8.35 -1.55z m28.10 -2.40 c4.50 -2.35 6.25 -5.35 6.30 -10.75 l0 -3.55 -6.10 -0.30 c-3.30 -0.20 -8.80 -0.35 -12.15 -0.35 l-6.10 0 -0.30 2.90 c-0.70 6.75 2.90 11.80 9.05 12.65 3.35 0.45 7.75 0.15 9.30 -0.60z m-61.95 -0.90 c4 -1.80 6.40 -6.20 6.15 -11.30 l-0.15 -3 -12.35 -0.15 -12.40 -0.10 0 3.60 c0.05 5.70 2.40 9.60 6.80 11.15 2.90 1.05 9.50 0.95 11.95 -0.20z m68.40 -20.15 c0.20 -1.45 0.35 -11.25 0.35 -21.75 l0 -19.15 -6.85 0 c-3.80 0 -9.15 -0.15 -11.90 -0.30 -3.95 -0.25 -5.15 -0.15 -5.60 0.35 -0.40 0.50 -0.60 7.15 -0.70 21.70 l-0.20 21 2.50 0.25 c1.40 0.15 6.90 0.35 12.30 0.40 l9.80 0.15 0.30 -2.65z m-28.65 -19.15 c0.15 -11.55 0.15 -21.30 0.05 -21.60 -0.10 -0.50 -3.45 -0.65 -14.50 -0.65 l-14.40 0 -0.30 10.60 c-0.20 5.80 -0.35 15.45 -0.35 21.45 l0 10.90 2.15 0.20 c1.15 0.10 7.75 0.15 14.60 0.15 l12.50 -0.05 0.25 -21z m-33.25 8.15 c0.15 -6.95 0.25 -16.70 0.15 -21.65 l-0.15 -9 -12.25 0 -12.25 0 -0.45 20.85 c-0.25 11.45 -0.30 21.20 -0.15 21.60 0.30 0.70 1.90 0.80 12.55 0.80 l12.20 0 0.35 -12.60z m88.30 -5.35 c1.05 -0.85 1.10 -1.10 0.55 -2.25 -0.50 -1.20 -0.85 -1.35 -2.45 -1.20 -2.20 0.20 -2.70 1.25 -1.45 3.15 1 1.50 1.80 1.55 3.35 0.30z m-7.55 -0.55 c0.30 -0.60 0.40 -1.50 0.25 -2.05 -0.30 -0.85 -0.70 -1 -2.40 -0.85 -1.75 0.15 -2.15 0.35 -2.25 1.30 -0.30 1.95 0.25 2.60 2.10 2.60 1.25 0 1.90 -0.30 2.30 -1z m-128.30 -1.30 c0.15 -0.45 0.30 -1.35 0.30 -2 0 -1.15 -0.15 -1.25 -2.10 -1.10 -1.80 0.15 -2.20 0.35 -2.30 1.30 -0.10 0.65 0.10 1.50 0.40 1.90 0.85 0.95 3.30 0.90 3.70 -0.10z m8.60 -0.45 c0.45 -1.85 -0.60 -2.85 -2.75 -2.65 -1.45 0.10 -1.85 0.40 -1.95 1.30 -0.25 1.65 0.75 2.60 2.70 2.60 1.40 0 1.75 -0.25 2 -1.25z m119.60 -7.25 c0.25 -2.55 -1.90 -3.90 -3.60 -2.20 -1.85 1.80 -0.45 4.35 2.20 4.05 1.05 -0.10 1.30 -0.40 1.40 -1.85z m8 1.40 c1.45 -1.45 0.15 -3.90 -2.10 -3.90 -1.10 0 -2.45 2.25 -2.05 3.50 0.25 0.75 0.75 1 1.95 1 0.85 0 1.85 -0.25 2.20 -0.60z m-135.90 -1.65 c0.40 -0.50 0.45 -1.15 0.15 -2.10 -0.85 -2.50 -4.65 -2 -4.65 0.55 0 0.60 0.25 1.35 0.60 1.70 0.85 0.85 3.15 0.75 3.90 -0.15z m7.90 0.15 c0.80 -0.80 0.75 -2.65 -0.10 -3.35 -0.40 -0.35 -1.35 -0.55 -2.15 -0.45 -1.25 0.15 -1.40 0.35 -1.55 2.30 -0.15 2.10 -0.15 2.10 1.50 2.10 0.95 0 1.95 -0.25 2.30 -0.60z m72.85 -25.50 c0 -7.50 -0.35 -8.30 -5 -10.65 -2.90 -1.45 -3.25 -1.50 -9.50 -1.50 -6.20 0 -6.65 0.05 -9.50 1.50 -4.35 2.15 -5.25 4.15 -5.25 11.35 l0 5.40 12.15 0.15 c6.65 0.05 13.25 0.15 14.60 0.10 l2.50 0 0 -6.35z m28.75 3.25 c0 -4.70 -0.75 -7.10 -3 -9.20 -2.30 -2.20 -5.60 -3.20 -10.10 -3.10 -4.80 0.15 -8.35 2.15 -10.20 5.80 -0.90 1.65 -1.55 7.70 -1.05 9.05 0.30 0.70 1.90 0.80 12.35 0.80 l12 0 0 -3.35z m-62 -0.30 c0 -8.10 -3.45 -12.05 -10.95 -12.70 -8.55 -0.70 -13.20 3.25 -13.65 11.60 l-0.15 3.50 3.25 0.30 c1.80 0.15 7.35 0.30 12.40 0.35 l9.10 0.10 0 -3.15z"/>
  <path d="M70.85 115.95 c-3.65 -1.90 -5.05 -5.95 -3.45 -9.65 1.80 -4 6.20 -5.70 10.30 -3.85 2.90 1.25 4.30 3.45 4.30 6.80 0 3.25 -1.40 5.50 -4.15 6.75 -2.65 1.25 -4.60 1.20 -7 -0.05z m6.40 -3.60 c1.95 -1.65 1.95 -4.55 0.05 -6.15 -0.75 -0.70 -2 -1.20 -2.85 -1.20 -1.95 0 -4.45 2.40 -4.45 4.25 0 1.85 2.50 4.25 4.45 4.25 0.85 0 2.05 -0.50 2.80 -1.15z"/>
  <path d="M101.10 91.10 l-3.15 -0.15 0.15 -2.85 0.15 -2.85 7 -0.15 c7.85 -0.15 8.25 0 8.25 3.35 0 3.35 0.35 3.25 -12.40 2.65z"/>
  <path d="M94.70 79.20 c-0.20 -0.70 -0.20 -3.25 -0.05 -5.60 0.20 -2.40 0.35 -4.85 0.35 -5.45 0 -1.60 0.80 -1.40 2.55 0.60 l1.55 1.75 6.95 0 6.95 0 1.65 -1.85 c1 -1.05 1.95 -1.65 2.25 -1.45 1.15 0.70 0.50 13.30 -0.70 13.30 -0.35 0 -1.10 -0.80 -1.70 -1.75 -1.85 -2.95 -2.60 -3.25 -8.80 -3.25 l-5.60 0 -1.95 2.15 c-2.60 2.95 -3.05 3.15 -3.45 1.55z"/>
  <path d="M99.60 62.65 c-1.05 -0.20 -1.15 -0.45 -1 -3.05 l0.15 -2.85 6.25 -0.15 c8.65 -0.20 8.60 -0.25 8.40 3.30 l-0.15 2.85 -6.25 0.05 c-3.45 0.05 -6.75 0 -7.40 -0.15z"/>
  <path d="M68.10 90.40 c-0.65 -0.65 -0.80 -2.90 -0.30 -4.80 0.30 -1.10 0.45 -1.15 6.90 -1 l6.55 0.15 0 3 0 3 -6.25 0.15 c-4.45 0.10 -6.45 -0.05 -6.90 -0.50z"/>
  <path d="M85.35 79.15 c-0.60 -0.70 -1.65 -1.95 -2.35 -2.75 l-1.25 -1.45 -6.90 -0.10 -6.90 -0.10 -2.30 2.65 c-3.45 4.05 -3.65 3.80 -3.65 -4.65 0 -8.50 0.35 -9.05 3.25 -5.80 l1.85 2.05 7.80 0 7.80 0 2.10 -2.05 c1.15 -1.15 2.35 -1.90 2.65 -1.75 1 0.65 0.50 15.30 -0.50 15.30 -0.25 0 -0.95 -0.60 -1.60 -1.35z"/>
  <path d="M73.10 62.15 l-5.65 -0.20 0.15 -2.85 0.15 -2.85 7.25 0 7.25 0 0.15 2.40 c0.20 2.80 -0.50 3.90 -2.35 3.75 -0.70 -0.05 -3.85 -0.20 -6.95 -0.25z"/>
  <path d="M36.20 89.80 c-0.15 -0.35 -0.20 -1.65 -0.10 -2.85 l0.15 -2.20 7.50 0 7.50 0 0.15 1.70 c0.10 0.95 0.05 2.20 -0.10 2.85 -0.30 1.20 -0.35 1.20 -7.60 1.20 -5.70 0 -7.30 -0.15 -7.50 -0.70z"/>
  <path d="M51.95 77.50 l-2.20 -2.50 -6 -0.05 -5.95 -0.10 -2.10 2.40 c-1.20 1.30 -2.35 2.20 -2.65 2.05 -0.70 -0.45 -0.75 -12.60 -0.05 -13.05 0.25 -0.15 1.25 0.50 2.20 1.55 l1.70 1.85 6.95 0.25 7 0.25 1.45 -1.85 c2.45 -3.05 2.70 -2.55 2.70 4.65 0 3.60 -0.20 6.60 -0.45 6.75 -0.25 0.15 -1.40 -0.85 -2.60 -2.20z"/>
  <path d="M36.70 61.30 c-0.15 -0.35 -0.20 -1.65 -0.10 -2.85 l0.15 -2.20 7.20 -0.15 c4.60 -0.10 7.35 0.05 7.55 0.40 0.25 0.40 0.25 1.80 0.05 5.15 -0.05 0.20 -3.30 0.35 -7.30 0.35 -5.75 0 -7.35 -0.15 -7.55 -0.70z"/>
  <path d="M73.25 46.65 c-0.55 -0.15 -1.75 -0.80 -2.70 -1.50 -5.60 -4.25 -2.85 -12.90 4.30 -13.50 7.80 -0.65 11.10 9.20 4.65 13.90 -1.35 1 -4.60 1.55 -6.25 1.10z m4.20 -3.90 c1.65 -0.80 2.05 -1.65 2.05 -4 0 -3.40 -4.75 -5.05 -7.25 -2.50 -2.60 2.55 -0.75 7.10 2.90 7.20 0.50 0.05 1.55 -0.30 2.30 -0.70z"/>
 </g>
 <g fill="#ffffff">
  <path d="M0 71 l0 -71 75 0 75 0 0 71 0 71 -29.60 -0.05 c-25.70 -0.05 -29.30 -0.15 -27.20 -0.70 4.40 -1.20 6.65 -4.55 6.20 -9.30 -0.30 -2.90 -2.05 -5.45 -4.60 -6.65 l-1.80 -0.85 0 -4.70 c0 -5.20 0.40 -5.75 2.45 -3.55 2.15 2.30 5.80 3.45 10.80 3.45 7.50 0 11.10 -1.95 13.85 -7.50 l1.65 -3.35 0.25 -17.20 c0.20 -12.15 0.40 -17.25 0.85 -17.50 0.30 -0.20 1.70 -0.25 3.10 -0.20 2.45 0.20 2.55 0.25 2.55 1.65 0 2.15 1.25 4.75 2.60 5.50 0.60 0.35 2.15 0.80 3.40 0.95 1.35 0.15 2.25 0.50 2.20 0.90 -0.05 0.30 -0.10 7.45 -0.10 15.75 l-0.10 15.20 -2.05 0.95 c-4.15 1.85 -6.05 7.10 -4 11.05 2.45 4.85 7.85 6.45 12.45 3.65 2.45 -1.50 3.60 -3.75 3.60 -7.05 0 -3.30 -1.20 -5.45 -4.20 -7.45 l-1.90 -1.30 0.05 -15.45 c0.05 -8.50 0.20 -15.60 0.35 -15.85 0.15 -0.20 1.15 -0.40 2.20 -0.40 4.30 0 6.35 -2.25 5.80 -6.45 -0.40 -2.80 -0.40 -4 0 -7.60 0.25 -2.50 0.15 -2.95 -0.95 -4.25 -1 -1.10 -1.75 -1.45 -3.90 -1.70 l-2.70 -0.25 -0.15 -12.25 c-0.10 -6.75 0 -13.90 0.15 -15.90 l0.35 -3.65 1.90 0.30 c2.60 0.45 3.85 -0.05 4.80 -1.80 0.90 -1.75 0.70 -2.20 -1.15 -2.70 -3.70 -0.90 -5.90 -4.55 -6.45 -10.65 -0.30 -3.35 -1.20 -5.30 -1.90 -4.15 -0.15 0.25 -0.65 2.20 -1.05 4.30 -1.20 6.30 -3.30 9.05 -7.60 10 -2.05 0.40 -2.15 1.60 -0.35 3.30 1.05 1 1.80 1.20 4.35 1.20 2.05 0 3.10 0.25 3.25 0.70 0.10 0.35 0.05 7.45 -0.15 15.80 l-0.35 15.15 -2.50 0.20 c-3.30 0.35 -4.95 1.95 -5.65 5.55 -0.50 2.50 -0.60 2.60 -2.20 2.75 -0.95 0.10 -2.20 0.05 -2.85 -0.10 l-1.20 -0.30 0 -14.70 0 -14.65 -1.55 -3.10 c-2.65 -5.30 -6.95 -7.55 -14.35 -7.55 -4.65 0 -7.20 0.80 -10.45 3.30 -0.85 0.65 -1.75 1.20 -1.90 1.20 -0.20 0 -0.25 -3.10 -0.15 -6.90 l0.15 -6.85 2.20 -0.15 c2.15 -0.15 2.35 -0.05 5.55 3.15 1.85 1.85 3.50 3.15 3.65 2.90 0.40 -0.60 0.55 -17.60 0.20 -17.95 -0.70 -0.70 -2.40 0.55 -4.30 3.05 -2 2.60 -2.20 2.75 -4.30 2.75 -1.95 0 -2.25 -0.15 -2.25 -1.10 0 -1.95 2.40 -5.20 5.25 -7.15 1.95 -1.35 2.75 -2.25 2.75 -3 0 -1.10 -0.10 -1.15 -10.35 -1.35 -5.75 -0.15 -10.70 -0.15 -11 0 -1.20 0.40 -0.65 1.30 3.10 4.85 3.40 3.25 5.50 6.40 4.95 7.35 -0.15 0.25 -1.25 0.40 -2.45 0.40 -1.85 0 -2.70 -0.40 -5.45 -2.50 -1.80 -1.40 -3.40 -2.50 -3.55 -2.50 -0.40 0 -0.30 15.30 0.10 15.70 0.20 0.15 1.55 -0.85 3 -2.30 2.55 -2.50 2.65 -2.60 5.40 -2.50 1.55 0.05 3 0.20 3.20 0.30 0.40 0.25 0.15 9.80 -0.25 10.25 -0.10 0.15 -0.70 -0.25 -1.35 -0.85 -1.70 -1.60 -5.25 -3 -9.30 -3.65 -5.90 -1 -13.40 0.55 -16.70 3.45 -1.40 1.20 -1.50 0.75 -1.40 -5.75 l0.05 -4.15 2.80 0 c2.65 0 2.90 0.10 5.40 2.50 1.45 1.35 2.90 2.50 3.15 2.50 0.35 0 0.65 -2.55 0.85 -6.65 0.45 -9.05 0.20 -9.90 -2.10 -7.75 -2.45 2.35 -4.70 3.40 -7.20 3.40 -1.65 0 -2.40 -0.20 -2.40 -0.65 0 -1.35 3.10 -5.30 5.70 -7.35 2.70 -2.05 3.55 -3.20 3 -4.05 -0.15 -0.25 -5.10 -0.45 -11 -0.45 l-10.70 0 0.05 1.15 c0 0.75 0.90 1.75 2.95 3.25 1.90 1.40 3.25 2.85 3.95 4.25 1.65 3.35 1.45 3.85 -1.30 3.85 -2.30 0 -2.45 -0.10 -4.15 -2.55 -2.15 -3.20 -3.85 -4.45 -4.55 -3.40 -0.55 0.90 -0.60 17.80 -0.05 18.15 0.25 0.15 1.85 -1.20 3.60 -2.95 3.10 -3.10 3.30 -3.25 5.70 -3.25 l2.45 0 -0.40 6.85 c-0.20 3.80 -0.45 7 -0.55 7.10 -0.10 0.15 -0.85 -0.35 -1.60 -1.10 -2.70 -2.55 -5.85 -3.60 -11.10 -3.60 -5.85 0.05 -9.05 1.25 -12 4.60 -3.25 3.70 -3.50 5.10 -3.85 21.05 l-0.30 14.15 -3.05 -0.15 -3.05 -0.15 -0.25 -2.55 c-0.15 -1.40 -0.60 -2.95 -1 -3.45 -1 -1.20 -3.85 -2.35 -4.90 -2.05 -2.20 0.70 -2.20 0.30 -1.85 -16.35 l0.40 -15.80 3.05 0.30 c2.85 0.25 3.15 0.20 4.45 -1.15 1.90 -1.85 1.55 -2.80 -1.25 -3.60 -3.80 -1.05 -5.80 -4.45 -6.65 -11.30 -0.35 -2.80 -0.95 -3.80 -1.80 -2.95 -0.25 0.25 -0.70 2.20 -1 4.40 -0.55 4.30 -2.05 7.90 -3.70 9.05 -0.55 0.40 -1.85 0.95 -2.85 1.25 -2.15 0.55 -2.35 1.25 -0.85 3.15 0.90 1.10 1.40 1.30 3.75 1.30 l2.70 0 0 11.15 c0 6.15 -0.15 13.25 -0.30 15.75 l-0.35 4.60 -1.60 0 c-2.35 0 -4.60 0.90 -5.45 2.25 -0.90 1.35 -1.05 5.30 -0.35 6.70 0.35 0.60 0.25 1.55 -0.20 2.95 -0.70 2 -0.60 4.40 0.35 6.20 0.60 1.25 2.30 2.05 4.90 2.40 l2.25 0.25 -0.20 15.75 c-0.10 8.65 -0.35 15.80 -0.60 15.90 -1.15 0.45 -3.75 2.50 -4.60 3.70 -1.50 2.05 -1.70 6.20 -0.40 8.75 2.65 5.20 9.75 6.05 13.70 1.70 3.80 -4.20 2.65 -10.65 -2.30 -13.30 l-1.85 -1 0 -11.75 c0 -6.45 0.15 -13.60 0.35 -15.85 l0.30 -4.15 1.95 0 c3.80 0 5.65 -1.90 6 -6 l0.15 -1.75 3 0 3 0 0 17.75 c0 17.45 0 17.80 1.15 20.25 2.45 5.30 6.40 7.75 13.10 8.15 5.10 0.25 7.55 -0.30 11 -2.65 1.45 -0.95 2.70 -1.75 2.80 -1.75 0.10 0 0.20 2.15 0.20 4.75 l0 4.70 -1.75 0.85 c-3.45 1.60 -5.70 5.90 -5 9.35 0.50 2.45 2.45 5.10 4.40 6 5.30 2.55 11.80 -0.40 12.65 -5.75 0.65 -3.95 -1.30 -7.85 -4.85 -9.70 -1.35 -0.65 -1.45 -0.95 -1.45 -3.70 0 -1.65 0.20 -3 0.45 -3 0.25 0 1.60 0.75 3 1.70 6.20 4.20 16.85 4.20 23.15 0.05 1.05 -0.70 2.10 -1.25 2.40 -1.25 0.30 0 0.50 1.30 0.50 3 0 2.45 -0.15 3.10 -0.85 3.35 -1.65 0.55 -4.15 2.70 -4.90 4.15 -0.95 1.85 -0.95 6.15 -0.05 7.90 1 1.95 2.80 3.50 5.05 4.30 1.80 0.65 -3.15 0.75 -43.10 0.75 l-45.15 0.05 0 -71z"/>
  <path d="M55.25 137.30 c-1.40 -0.60 -2.25 -1.75 -2.95 -3.95 -0.40 -1.25 0.85 -4.05 2.25 -5.05 2 -1.35 4.30 -1.05 6.25 0.90 2.80 2.80 2.10 6.55 -1.60 8.10 -2 0.85 -2.05 0.85 -3.95 0z"/>
  <path d="M87.45 136.55 c-3.20 -3.25 -1 -8.55 3.55 -8.55 1.65 0 2.40 0.30 3.55 1.45 3.20 3.25 1 8.55 -3.55 8.55 -1.65 0 -2.40 -0.30 -3.55 -1.45z"/>
  <path d="M135.05 126.20 c-1.90 -1.60 -2.45 -4 -1.35 -6.10 0.45 -0.85 1.25 -1.80 1.75 -2.10 1.60 -0.85 4.30 -0.60 5.75 0.55 1.85 1.45 2.35 2.95 1.75 5.15 -1 3.65 -5 4.95 -7.90 2.50z"/>
  <path d="M8.25 125.40 c-2.95 -1.60 -3.65 -5.25 -1.50 -7.80 3.85 -4.55 10.65 0.15 8.15 5.65 -1.05 2.30 -4.40 3.40 -6.65 2.15z"/>
  <path d="M67.20 118.10 c-2.65 -0.90 -4.90 -2.50 -6.40 -4.50 -0.95 -1.25 -1.05 -2.55 -0.90 -9.55 l0.10 -4.70 14.35 0.30 c7.85 0.20 14.45 0.50 14.60 0.65 0.15 0.15 0.20 3 0.15 6.35 -0.20 5.55 -0.30 6.20 -1.45 7.70 -0.70 0.90 -2.50 2.25 -4.05 3 -2.50 1.25 -3.50 1.40 -8.35 1.55 -4.30 0.10 -6.05 -0.10 -8.05 -0.80z m10.65 -2.10 c2.75 -1.25 4.15 -3.50 4.15 -6.75 0 -3.35 -1.40 -5.55 -4.30 -6.80 -4.10 -1.85 -8.50 -0.15 -10.30 3.85 -1.60 3.70 -0.20 7.75 3.45 9.65 2.40 1.25 4.35 1.30 7 0.05z"/>
  <path d="M71.45 112.05 c-0.85 -0.90 -1.45 -2 -1.45 -2.80 0 -1.85 2.50 -4.25 4.45 -4.25 2.35 0 4.25 1.95 4.20 4.30 -0.10 3.90 -4.40 5.55 -7.20 2.75z"/>
  <path d="M102.40 115.55 c-6.15 -0.85 -9.75 -5.90 -9.05 -12.65 l0.30 -2.90 6.10 0 c3.35 0 8.85 0.15 12.15 0.35 l6.10 0.30 0 3.55 c-0.05 5.40 -1.80 8.40 -6.30 10.75 -1.55 0.75 -5.95 1.05 -9.30 0.60z"/>
  <path d="M37.80 114.25 c-4.40 -1.55 -6.75 -5.45 -6.80 -11.15 l0 -3.60 12.40 0.10 12.35 0.15 0.15 3 c0.25 5.10 -2.15 9.50 -6.15 11.30 -2.45 1.15 -9.05 1.25 -11.95 0.20z"/>
  <path d="M95.75 96 l-2.50 -0.25 0.20 -21 c0.10 -14.55 0.30 -21.20 0.70 -21.70 0.45 -0.50 1.65 -0.60 5.60 -0.35 2.75 0.15 8.10 0.30 11.90 0.30 l6.85 0 0 19.15 c0 10.50 -0.15 20.30 -0.35 21.75 l-0.30 2.65 -9.80 -0.15 c-5.40 -0.05 -10.90 -0.25 -12.30 -0.40z m17.30 -5.10 c0.65 -1 0.55 -4.10 -0.20 -5.05 -0.55 -0.75 -1.45 -0.85 -7.60 -0.75 l-7 0.15 -0.15 2.85 -0.15 2.85 3.15 0.15 c9.90 0.45 11.55 0.45 11.95 -0.20z m-14.90 -13.25 l1.95 -2.15 5.60 0 c6.20 0 6.95 0.30 8.80 3.25 0.60 0.95 1.35 1.75 1.70 1.75 1.20 0 1.85 -12.60 0.70 -13.30 -0.30 -0.20 -1.25 0.40 -2.25 1.45 l-1.65 1.85 -6.95 0 -6.95 0 -1.55 -1.75 c-1.75 -2 -2.55 -2.20 -2.55 -0.60 0 0.60 -0.15 3.05 -0.35 5.45 -0.30 4.80 0.05 7.15 1 6.60 0.35 -0.20 1.45 -1.35 2.50 -2.55z m15.25 -17.75 c0.20 -3.55 0.25 -3.50 -8.40 -3.30 l-6.25 0.15 -0.15 2.85 c-0.20 3.40 -0.50 3.30 8.40 3.20 l6.25 -0.05 0.15 -2.85z"/>
  <path d="M62.15 95.65 l-2.15 -0.20 0 -10.90 c0 -6 0.15 -15.65 0.35 -21.45 l0.30 -10.60 14.40 0 c11.05 0 14.40 0.15 14.50 0.65 0.10 0.30 0.10 10.05 -0.05 21.60 l-0.25 21 -12.50 0.05 c-6.85 0 -13.45 -0.05 -14.60 -0.15z m19.10 -7.90 l0 -3 -6.55 -0.15 c-6.45 -0.15 -6.60 -0.10 -6.90 1 -0.50 1.90 -0.35 4.15 0.30 4.80 0.45 0.45 2.45 0.60 6.90 0.50 l6.25 -0.15 0 -3z m6.45 -9.85 c0.50 -4.35 0.35 -12.30 -0.25 -12.70 -0.30 -0.15 -1.50 0.60 -2.65 1.75 l-2.10 2.05 -7.80 0 -7.80 0 -1.85 -2.05 c-2.90 -3.25 -3.25 -2.70 -3.25 5.80 0 8.45 0.20 8.70 3.65 4.65 l2.30 -2.65 6.90 0.10 6.90 0.10 1.25 1.45 c0.70 0.80 1.75 2.05 2.35 2.75 0.65 0.75 1.35 1.35 1.60 1.35 0.20 0 0.55 -1.20 0.75 -2.60z m-5.75 -16.10 c0.35 -0.40 0.55 -1.80 0.45 -3.15 l-0.15 -2.40 -7.25 0 -7.25 0 -0.15 2.85 -0.15 2.85 5.65 0.20 c3.10 0.05 6.25 0.20 6.95 0.25 0.75 0.05 1.60 -0.20 1.90 -0.60z"/>
  <path d="M31.15 94.70 c-0.15 -0.40 -0.10 -10.15 0.15 -21.60 l0.45 -20.85 12.25 0 12.25 0 0.15 9 c0.10 4.95 0 14.70 -0.15 21.65 l-0.35 12.60 -12.20 0 c-10.65 0 -12.25 -0.10 -12.55 -0.80z m20.15 -5.40 c0.15 -0.65 0.20 -1.90 0.10 -2.85 l-0.15 -1.70 -7.50 0 -7.50 0 -0.15 2.20 c-0.25 3.65 -0.45 3.55 7.60 3.55 7.25 0 7.30 0 7.60 -1.20z m3.70 -16.35 c0 -7.20 -0.25 -7.70 -2.70 -4.65 l-1.45 1.85 -7 -0.25 -6.95 -0.25 -1.70 -1.85 c-0.95 -1.05 -1.95 -1.70 -2.20 -1.55 -0.70 0.45 -0.65 12.60 0.05 13.05 0.30 0.15 1.45 -0.75 2.65 -2.05 l2.10 -2.40 5.95 0.10 6 0.05 2.20 2.50 c1.20 1.35 2.35 2.35 2.60 2.20 0.25 -0.15 0.45 -3.15 0.45 -6.75z m-3.45 -11.30 c0.20 -3.35 0.20 -4.75 -0.05 -5.15 -0.20 -0.35 -2.95 -0.50 -7.55 -0.40 l-7.20 0.15 -0.15 2.20 c-0.25 3.65 -0.45 3.55 7.65 3.55 4 0 7.25 -0.15 7.30 -0.35z"/>
  <path d="M141.20 77.25 c-1.25 -1.90 -0.75 -2.95 1.45 -3.15 1.60 -0.15 1.95 0 2.45 1.20 0.55 1.15 0.50 1.40 -0.55 2.25 -1.55 1.25 -2.35 1.20 -3.35 -0.30z"/>
  <path d="M132.70 77.30 c-0.15 -0.40 -0.20 -1.25 -0.10 -1.90 0.10 -0.95 0.50 -1.15 2.25 -1.30 1.70 -0.15 2.10 0 2.40 0.85 0.55 1.70 -0.55 3.05 -2.55 3.05 -1.05 0 -1.85 -0.30 -2 -0.70z"/>
  <path d="M5 75.80 c-0.30 -0.40 -0.50 -1.25 -0.40 -1.90 0.10 -0.95 0.50 -1.15 2.30 -1.30 1.95 -0.15 2.10 -0.05 2.10 1.10 0 0.65 -0.15 1.55 -0.30 2 -0.40 1 -2.85 1.05 -3.70 0.10z"/>
  <path d="M13 75.80 c-0.30 -0.40 -0.50 -1.25 -0.40 -1.90 0.10 -0.90 0.50 -1.20 1.95 -1.30 2.15 -0.20 3.20 0.80 2.75 2.65 -0.25 1 -0.60 1.25 -2 1.25 -0.90 0 -1.95 -0.35 -2.30 -0.70z"/>
  <path d="M133.40 69.45 c-1.10 -0.65 -1.15 -2.60 -0.10 -3.65 1.70 -1.70 3.85 -0.35 3.60 2.20 -0.10 1.45 -0.35 1.75 -1.40 1.85 -0.70 0.10 -1.65 -0.10 -2.10 -0.40z"/>
  <path d="M140.75 69 c-0.40 -1.25 0.95 -3.50 2.05 -3.50 1.40 0 2.70 1.05 2.70 2.15 0 1.60 -0.90 2.35 -2.80 2.35 -1.20 0 -1.70 -0.25 -1.95 -1z"/>
  <path d="M5.10 67.90 c-0.35 -0.35 -0.60 -1.10 -0.60 -1.70 0 -2.55 3.80 -3.05 4.65 -0.55 0.30 0.95 0.25 1.60 -0.15 2.10 -0.75 0.90 -3.05 1 -3.90 0.15z"/>
  <path d="M13.10 66.40 c0.15 -1.95 0.30 -2.15 1.55 -2.30 1.70 -0.20 2.85 0.65 2.85 2.10 0 1.55 -0.95 2.30 -2.90 2.30 -1.65 0 -1.65 0 -1.50 -2.10z"/>
  <path d="M72.65 48.65 l-12.15 -0.15 0 -5.40 c0 -7.20 0.90 -9.20 5.25 -11.35 2.85 -1.45 3.30 -1.50 9.50 -1.50 6.25 0 6.60 0.05 9.50 1.50 4.65 2.35 5 3.15 5 10.65 l0 6.35 -2.50 0 c-1.35 0.05 -7.95 -0.05 -14.60 -0.10z m6.85 -3.10 c6.45 -4.70 3.15 -14.55 -4.65 -13.90 -7.15 0.60 -9.90 9.25 -4.30 13.50 0.95 0.70 2.15 1.35 2.70 1.50 1.65 0.45 4.90 -0.10 6.25 -1.10z"/>
  <path d="M73.20 42.90 c-2.35 -1.10 -2.85 -4.75 -0.95 -6.65 2.50 -2.55 7.25 -0.90 7.25 2.50 0 2.35 -0.40 3.20 -2.05 4 -1.60 0.85 -2.75 0.90 -4.25 0.15z"/>
  <path d="M94.15 48.20 c-0.50 -1.35 0.15 -7.40 1.05 -9.05 1.85 -3.65 5.40 -5.65 10.20 -5.80 4.50 -0.10 7.80 0.90 10.10 3.10 2.25 2.10 3 4.50 3 9.20 l0 3.35 -12 0 c-10.45 0 -12.05 -0.10 -12.35 -0.80z"/>
  <path d="M35 48.05 l-3.25 -0.30 0.15 -3.50 c0.45 -8.35 5.10 -12.30 13.65 -11.60 7.50 0.65 10.95 4.60 10.95 12.70 l0 3.15 -9.10 -0.10 c-5.05 -0.05 -10.60 -0.20 -12.40 -0.35z"/>
 </g>
</svg>